<svg xmlns="http://www.w3.org/2000/svg" height="94.556" width="250" viewBox="0 0 250 94.55595"><g transform="matrix(.51667 0 0 .51667 .88028 1.1407)"><path d="m280.3 45.7 0.1-0.2-0.1 0.2m-147.1 129.1-0.1-0.1-0.1-0.1 0.2 0.2zm200.9-130.9 0.1 0.1 0.1 0.1-0.2-0.2zm118.8 61.1c2.9-3.8 3.4-7.4 3.4-12.7v-16.9c2 1.6 4.1 2.2 5.7 2.6 2.5 0.5 11 1.1 15.8-11.3 1.4-3.6 2.2-7.9 2.2-11.2 0-8.1-5.7-16.8-15-16.8-5 0-9.1 2.9-11.7 6.9l-0.7-0.9-0.1-0.1c-3.1-3.7-7.6-5.8-12.3-5.8-5.3 0-10.4 2.7-13.2 7.1-1.1 1.7-1.8 3.3-2.3 5-2.5-3.1-4.7-5.8-4.7-5.8-3.4-4.2-7.4-6.2-12.2-6.2-6.6 0-12 3.4-14.7 8.7-0.6-1.2-1.3-2.3-2.4-3.5-3-3.4-7.4-5.3-12-5.3s-9 1.9-11.9 5.3c-0.9 0.9-1.5 1.9-2.1 2.8-2.8-4.8-8.1-8.1-14-8.1-5.4 0-10.2 2.7-13.3 7.3 0 0-0.4 0.5-0.9 1.4-0.6-1.1-1.3-2.2-2.3-3.3-3-3.4-7.5-5.4-12.1-5.4-6.4 0-11.7 3.5-14.3 8.9-0.5-1-1.1-2-1.9-3l-0.1-0.1c-3.1-3.7-7.6-5.8-12.3-5.8-5.3 0-10.3 2.7-13.2 7.1-1.1 1.7-1.8 3.3-2.3 5-2.5-3.1-4.7-5.8-4.7-5.8-3.4-4.2-7.4-6.2-12.2-6.2-6.4 0-11.7 3.2-14.4 8.2-0.5-0.8-1-1.6-1.7-2.4-3-3.6-7.8-5.8-12.5-5.8-4.8 0-9.4 2.2-12.5 6.1-1.2 1.5-1.9 2.8-2.5 4.3-0.7-1.8-1.7-3.6-3.3-5.3-3-3.2-7.4-5.1-11.8-5.1-4.7 0-9.6 2.4-12.6 6.2l-0.1 0.1c-2.5 3.3-3.1 6.1-3.3 10.4-1.7-2.6-3.8-5-6.1-7.1-6.9-6.1-15.2-9.1-25.6-9.1h-11.9c-8.3 0-14.4 3.9-16.7 10.8-0.6 1.7-0.7 2.8-0.8 5.3h-0.3c-1.7-9.5-10-16.7-19.9-16.7h-54.7c-0.4-2.1-1.2-3.9-2.1-5.6 3 0.6 6.4 0.1 9.6-1.7l-2 0.5 2.6-0.9h0.1l0.1-0.1c4.4-3.3 6.9-8.4 6.9-13.8 0-1.4-0.2-2.8-0.5-4.2-1.7-6.9-7.1-11.7-14-12.9-3.3-0.5-10.3 0.2-15.9 4.3-4.3 3.2-7.1 7.8-7.8 13.4-0.1 0.9-0.2 1.7-0.2 2.5 0 2 0.4 3.8 0.9 5.5-5.6-2.7-12.2-2.1-18.1 2h-0.1c-6.3 4.5-8.1 9.7-8.6 13.3-0.3 2.7 0 5.5 1.1 8-1.5 3-2.4 6.3-2.4 9.8v98.5c0 11.2 9.1 20.4 20.3 20.4h84.9c9.8 0 18.1-7.1 19.9-16.4h0.9v1.2c0.1 1.3 0.2 2.3 0.5 3.4 1 3.7 3.2 6.6 6.6 8.8 3.3 2.2 6.5 2.7 11.7 2.7h8.2c4.3 0 8.3-0.3 11.1-0.8h0.1c6.2-1.3 12.2-4.4 16.9-8.7l1.2-1.2 0.1-0.1c1.8-1.8 3.3-3.8 4.6-5.9 1.2 2 2.6 3.9 4.1 5.7 7 7.9 17.2 12.5 27.9 12.5 10.6 0 20.7-4.5 27.8-12.5l0.8-1c0.5 2.2 1.3 4.1 2.7 6l0.1 0.2c3 3.9 7.8 6.2 12.7 6.2 4.7 0 9.2-2.1 12.3-5.8l0.1-0.1c1.6-2.1 2.6-4.1 3.1-6.5l4.8 6.1c3.2 4.1 7.5 6.4 12.6 6.4 4.9 0 9.6-2.3 12.5-6 1.4-1.9 2.3-3.7 2.8-5.9l0.2 0.2c5.9 8 15.3 12.8 25.1 12.8 8.9 0 17.4-3.9 23.3-10.8l1.7-2.2c4.1-5.5 6-12 6-20.4v-9.9c1.5 0.5 3.2 0.8 5 0.8v23.4l0.1 2.7c0.2 3.4 1 5.8 2.6 8.4l0.2 0.3c3.1 4.2 7.8 6.6 13.1 6.6 5.6 0 10.4-2.7 13.3-7.3 1.5-2.4 2.2-4.8 2.5-7.8 0 0 0-1 0.1-1.8h1.7c0.2 1.3 0.6 2.6 1.2 3.8 3.8 8.6 14.4 14.1 26.9 14.1 8.9 0 15.7-2.5 20.9-7.7 1.8-1.8 3.2-3.8 4.4-6 2-3.8 3-8.1 3-12.4 0-7-2.7-13.6-7.3-17.9 2.3-2 4-4.7 4.7-7.8 1.7 1.3 3.8 2.1 6.1 2.1 4.7 0 8.7-3.4 9.5-8v-0.4l0.1-1.3c0-5.4-4.3-9.7-9.7-9.7-3.7 0-6.9 2.1-8.6 5-1.8-2.7-4.5-5-7.7-6.7 1.3-1 2.3-2 3.2-3.2zm13.4 18.9zm-39.3-78.2l0.1-0.1-0.1 0.1zm-60.2-1.7 0.1-0.1-0.1 0.1z" fill-rule="evenodd" clip-rule="evenodd" fill="#fff"/><path fill="#613a00" d="m49.578 4.0918c-2.734 0.0574-7.766 0.7461-11.879 3.8086-3.4 2.4996-5.499 6.1996-6.199 10.6-0.9 6.1 2.5992 10.201 5.6992 13.801 3.3 3.9 6.2004 7.2992 4.4004 13.199-0.2 0.6-0.09883 1.0996 0.20117 1.5996s0.69883 0.9 1.2988 1c1.1 0.4 2.3012-0.30039 2.7012-1.4004 2.5-8.101-1.801-13.2-5.301-17.2-3.3-3.8-5.299-6.4-4.699-10.4 0.5-3.3 2-5.8992 4.5-7.6992 3.6-2.7 8.3-3.0008 9.5-2.8008 5.1 0.8 6.6 4.7008 7 6.3008 0.3 1.1 0.29922 2.1988 0.19922 3.2988-0.3 2.3-1.3992 4.3012-3.1992 5.7012h-0.10156c-2.1 1.1-3.9 1.1-5 0-1.1-1-1.1988-2.6-0.79883-3.5 0.4-0.801 1.5-1.101 3.1-0.901 0.6 0.1 1.0996-0.000391 1.5996-0.40039 0.5-0.3 0.80039-0.80039 0.90039-1.4004 0.2-1.2-0.60078-2.3-1.8008-2.5-3.5-0.6-6.2996 0.60156-7.5996 3.1016-1.4 2.7-0.70039 6.3 1.5996 8.5 2.6 2.5 6.4008 2.6996 10.301 0.59961l0.30078-0.20117c4.2-3.1 5.9988-8.4996 4.7988-13.6-1.2-5-5.2-8.6-10.5-9.5-0.2875-0.0125-0.63086-0.016016-1.0215-0.00781zm-28.191 24.32c-2.9375-0.1125-6.0363 0.83867-8.9863 2.8887-4.4 3.1-6.4008 6.7984-6.8008 10.398-0.4 3.1 0.4 6.0008 2 8.3008 3.3 4.8 10.1 7.1992 17 2.6992l0.09961-0.09961c3.6-2.7 3.5016-8.1004 1.1016-11.4-2.3-3.2-6-3.6984-9.5-1.3984-1 0.7-1.2016 2-0.60156 3 0.3 0.5 0.80039 0.79844 1.4004 0.89844 0.6 0.1 1.0996 0.0012 1.5996-0.29883 2-1.4 3.0016-0.50117 3.6016 0.29883 0.7 0.9 0.99883 2.3 0.79883 3.5-0.1 0.9-0.4 1.5004-1 1.9004-4.7 3.1-8.9 1.4004-11-1.5996-2.3-3.4-2.0988-8.5992 3.7012-12.699 5.7-3.9 9.8988-1.5012 11.799 0.29883 3.7 3.4 5.1996 9.3004 3.0996 12.9-0.6 1-0.19922 2.4004 0.80078 2.9004 0.5 0.3 1.0996 0.39922 1.5996 0.19922 0.6-0.2 1.0008-0.5 1.3008-1 3-5.4 1.3-13.399-4-18.199-2.3-2.2-5.0762-3.3758-8.0137-3.4883zm51.576 15.588c-3.0955 0.01641-7.0246 0.54961-11.662 1.5996-6.1 1.3-13.3 3.4996-19.9 6.0996s-13.401 5.9012-18.701 9.2012c-9.301 5.5-14.1 10.499-13.2 13.799v0.301c0 0.4 0.099219 0.7 0.19922 1l0.40039 0.69922 0.20117 0.40039 12 30.4c0.7 1.8 2.9988 2.8992 6.7988 3.1992 0.6 0.1 1.2 0.4 1.5 1l27.701 53.602c5.3 10.5 20.499 10.198 32.299 5.3984 13.3-5.4 19.401-14.599 16.301-24.799l-0.5-1.7012c-8.9-32.9-13.699-48.7-16.099-56.2-0.2-0.6-0.10156-1.3008 0.39844-1.8008 2.6-2.8 3.5008-5.1 2.8008-7l-12-30.398-0.09961-0.40039-0.20117-0.80078-0.5-0.90039-0.199-0.2c-0.956-1.688-3.557-2.521-7.537-2.5zm1.2285 4.0762c1.7953 0.03594 2.9828 0.27305 3.5078 0.62305-0.2 1-1.6988 2.9008-4.7988 5.3008-7 0.8-17.4 3.6-27.4 7.5-10 4-19.599 9.3992-25.199 13.699-3.9 0.3-6.3012 0-7.2012-0.5 0.6-2.4 10.2-11.2 30-19.1 14.85-5.925 25.706-7.6312 31.092-7.5234zm5.208 7.123 10.1 25.102c-0.4 2.7-10.8 11.8-29.1 19.1-18.3 7.2-32.101 7.8-34.201 6l-10.099-25.099c9.4 0.7 24-3.8016 33.6-7.6016s23.301-10.6 29.701-17.5zm6.9004 34.9c6.3 18.9 15.7 53.801 16.6 56.701 2.6 8.6-3.9 15.7-13.9 19.7-10.4 4.2-23.1 4.3996-27-3.4004-1.3-2.7-18.699-34.6-27.199-52.5 8.7-0.9 19.3-3.9996 27-7.0996 7.8-3.1 17.6-8.1004 24.5-13.4z"/><path fill="#f17e06" d="m261.2 44.9c-6.2 0.1-10.199 4.2-10.199 10.5v37.299c0 4.3 0.4 6.1008 2 8.3008 1.9 2.4 4.8008 3.8008 7.8008 3.8008 2.9 0 5.7-1.3 7.5-3.5 1.7-2.099 2.2-3.9 2.2-7.8v-12.4l15.4 19.701c2 2.6 4.5992 4 7.6992 4 3 0 5.7996-1.3016 7.5996-3.6016 1.7-2.2 2.1016-4.0988 2.1016-8.7988v-36c0-3.6-0.60078-5.7008-2.3008-7.8008-1.9-2.299-4.6-3.599-7.5-3.599-3.2 0-6.3004 1.6992-7.9004 4.1992-1.4 2-1.7988 3.8012-1.7988 7.7012v10.9l-2.8008-3.5-12.6-15.5c-2.2-2.7-4.4012-3.9004-7.2012-3.9004zm146.7 0c-6.1 0-10.201 4.1004-10.201 10.4v37.299c0 4.3 0.4 6.1008 2 8.3008 1.9 2.4 4.8008 3.7988 7.8008 3.7988 2.9 0 5.7-1.3 7.5-3.5 1.7-2.1 2.1992-3.8988 2.1992-7.7988v-12.301l15.4 19.701c2 2.6 4.6012 4 7.7012 4 3 0 5.7996-1.3016 7.5996-3.6016 1.7-2.2 2.0996-4.0988 2.0996-8.7988v-36c0-3.6-0.60078-5.7008-2.3008-7.8008-1.9-2.3-4.5-3.5996-7.5-3.5996-3.2 0-6.2984 1.6992-7.8984 4.1992-1.4 2-1.8008 3.8012-1.8008 7.7012v10.9l-2.8008-3.5-12.6-15.5c-2.2-2.7-4.3992-3.9004-7.1992-3.9004zm-205.3 0.1c-2.8 0-5.7992 1.5008-7.6992 3.8008-1.7 2.2-2 3.5992-2 9.1992v20.699c0 7.8 1.0988 11.9 4.7988 16.9 4.7 6.4 12.2 10.201 20 10.201 7 0 13.902-3.2016 18.602-8.6016 4.2-4.8 6.1992-10.5 6.1992-18.5v-20.898c0-5.3-0.40078-7.1008-2.3008-9.3008-1.8-2.1-4.7996-3.5-7.5996-3.5-2.9 0-5.7 1.3992-7.5 3.6992-1.8 2.101-2.1 3.402-2.1 7.802v23.5c0 4.1-1.9008 6.5-5.3008 6.5-3.3 0-5.2988-2.6008-5.2988-6.8008v-23.199c0-4.2-0.69961-6.4004-2.5996-8.4004-1.8-1.8-4.5012-3.0996-7.2012-3.0996zm119.5 0c-5.8 0-9.6992 4.4004-9.6992 10.9v37.799c0 6.8 3.8004 11.102 9.9004 11.102 5.8 0 9.6992-4.4012 9.6992-11.201v-10.199l14.6 18.5c1.4 1.8 4.1008 2.9004 6.8008 2.9004 5.3 0 9.6992-4.5004 9.6992-9.9004 0-2-0.60039-3.8008-1.9004-5.3008l-12-15.4 6.8008-9.7988 3.0996-4.5996c1-1.4 1.5-3.3016 1.5-5.1016 0-5.2-4.4988-9.6992-9.7988-9.6992-3.3 0-6.1 1.6-8 4.5l-10.102 14.9-0.69922 1v-9.399c0-3.5-0.69961-5.6992-2.5996-7.6992-1.8-2-4.5008-3.3008-7.3008-3.3008zm56.701 0c-2.8 0-5.4012 1.1992-7.2012 3.1992-2 2.2-2.5 4.0004-2.5 8.9004v36.5c0 4.1 0.6 6.0996 2.5 8.0996 1.7 1.8 4.6012 3.1016 7.2012 3.1016s5.3992-1.2008 7.1992-3.3008c1.8-1.9 2.5-4.2004 2.5-7.9004v-36.5c0-4.8-0.59961-6.8-2.5996-9-1.7-2-4.2996-3.0996-7.0996-3.0996zm86.2 0c-5.1 0-8.5996 6.2008-8.5996 11.301 0 2.3 0 5.2996 0.5 8.0996 0.7 3.5 2.3988 6.5988 6.2988 7.2988 4.1 0.8 6.9016-2.9988 8.6016-7.2988 1.2-3.2 1.7988-6.8 1.7988-9 0.1-5.101-3.4-10.401-8.6-10.401zm-322.1 0.40039c-5.6 0-9.3012 2.2004-10.701 6.4004-0.4 1.3-0.39844 1.8988-0.39844 6.7988v32.4c0 4.1-0.001 5.0004 0.29883 6.4004 0.6 2.3 1.8996 3.8988 4.0996 5.2988 1.8 1.2 3.6012 1.6016 8.2012 1.6016h8.1992c4.1 0 7.6-0.30117 10-0.70117 5.1-1.1 10.1-3.5996 13.9-7.0996 6-5.6 9.5-13.5 9.5-21.6-0.1-3.7-0.8-7.2-2-10.5-1.6-4.4-4.3008-8.3-7.8008-11.5-5.7-5.1-12.498-7.5-21.398-7.5h-11.9zm-136.6 9.6c-0.3 1.1-0.5 2.3996-0.5 3.5996v11.6c1.6-3.401 5.2992-7 11.199-10.8-4.1-0.1-7.8992-1.8-10.699-4.4zm144.8 8.5h1.5996c3.1 0 5.0016 0.30039 6.6016 0.90039l0.89844 0.40039c3.8 1.901 6.3 5.8 6.3 10.2 0 3.6-1.9008 7.2004-4.8008 9.4004-2.3 1.6-3.8996 1.9004-10.6 1.9004v-22.801zm-145.2 14.4v79.6c0 7.9 6.3988 14.301 14.299 14.301h37.5c-1.3-1.3-2.3988-2.8016-3.2988-4.6016 0 0-23-44.498-27-52.398-4.7-0.6-7.7996-2.6012-9.0996-5.7012l-11.9-30.2-0.5-1zm54.651 38.15c-1.225 0-2.5016 0.19883-3.8516 0.54883-1.2 0.3-2.499 0.7-3.699 0.9-1.8 0.4-2.6 1.3-2.5 2.5 0 0.4 0.09922 0.60039 0.69922 1.9004 1.4 3 2.7016 6.0996 4.1016 9.0996 0.5 1.1 0.59844 1.4008 0.89844 1.8008 0.5 0.6 1.0004 0.99922 1.9004 1.1992 0.7 0.2 1.2996 0.20039 2.5996-0.0996l2.4004-0.59961c1.2-0.3 2.2008-0.7 2.8008-1 1.4-0.7 2.4992-1.9008 3.1992-3.3008 1.1-2.2 1.2008-4.8992 0.30078-7.1992-0.4-0.9-1.0012-1.9012-1.7012-2.7012-1-1.1-2.1996-1.9004-3.5996-2.4004-1.15-0.45-2.3238-0.64844-3.5488-0.64844zm-0.15039 5.5488h0.29883c1.4 0.2 2.6016 1.1008 3.1016 2.3008 0.4 1.1 0.19961 2.2996-0.40039 3.0996-0.5 0.6-0.90039 0.90039-2.9004 1.4004-0.901-2.1-1.8-4.3-2.7-6.4l0.5-0.0996c0.9-0.2 1.4996-0.30078 2.0996-0.30078z"/><path fill="#e9388c" d="m84.199 44.301 0.10156 0.09961c0.4 0.5 0.69844 1.0992 0.89844 1.6992 0.2 0.4 0.30039 0.90039 0.40039 1.4004 10.3 26 11.7 29.699 11.9 30.199 0.4 0.9 0.5 1.9004 0.5 2.9004 0 2.4-0.99922 4.9-3.1992 7.5 2.6 8 7.2992 23.9 15.699 55l0.5 1.7012v-0.10156c3.3 10.7-1.6 20.7-12.9 27.3h7.3008c7.9 0 14.299-6.4008 14.299-14.301v-99.1c0-7.9-6.3988-14.299-14.299-14.299h-21.201zm-4.982 64.339c-1.599-0.08-3.267 0.38-5.217 1.36-1.2 0.6-2.3 1.0996-3.5 1.5996-1.6 0.7-2.5004 1.8012-2.4004 3.2012 0 0.4 0.09961 0.6 0.59961 2l3.6016 9.2988c0.4 1.2 0.49883 1.4008 0.79883 1.8008 0.4 0.6 1.0012 0.9 1.7012 1 0.6 0.1 1.2 0 2.5-0.5 0.8-0.3 1.4988-0.7 2.2988-1 1.1-0.5 1.9996-1.0996 2.5996-1.5996 1.3-1 2.3-2.5016 3-4.1016 1-2.6 1.2004-5.4984 0.40039-7.8984-0.499-1.1-0.999-2-1.599-2.8-0.9-1-1.9992-1.6996-3.1992-2.0996-0.525-0.15-1.0512-0.23711-1.584-0.26367zm139.78 2.26c-9 0-17.101 3.7988-22.801 9.7988-2.8 3-4.8988 6.5008-6.2988 10.301-1.2 3.2-1.8008 6.7008-1.8008 10.301 0 8 2.9008 15.299 7.8008 20.799 5.6 6.4 13.899 10.4 23.199 10.4 9.1 0 17.4-4.0004 23-10.4 4.9-5.5 7.9004-12.7 7.9004-20.5 0-3.7-0.70039-7.2-1.9004-10.5-1.4-3.9-3.6004-7.4004-6.4004-10.4-5.7-6-13.699-9.7988-22.699-9.7988zm216.2 0.1c-8.8 0-15.7 3.7008-19.1 9.8008-1.5 2.7-2.4004 5.8984-2.4004 9.3984v1c0.3 7.6 4.5012 12.801 12.701 15.701 1.6 0.6 3.1988 1.0992 4.7988 1.6992 3.1 1.1 3.4004 1.3012 3.9004 1.7012 1.1 0.7 1.5996 1.4996 1.5996 2.5996 0 1.6-0.99961 2.6992-2.5996 2.6992-1.5 0-2.0988-0.39922-6.2988-3.6992-2.5-2-4.5008-2.8008-6.8008-2.8008-4.9 0-8.6992 3.8012-8.6992 8.7012 0 1.6 0.3 2.9984 1 4.3984 2.7 6 10.9 10.4 21.1 10.4 7.2 0 12.5-2.0004 16.4-5.9004 1.3-1.3 2.3992-2.8 3.1992-4.5 1.5-2.9 2.3008-6.1 2.3008-9.5 0-5.5-2.3004-10.799-5.9004-13.799-2.7-2.3-7.5-4.7012-12.5-6.2012-2-0.6-3.3008-1.1992-4.3008-1.6992-1.2-0.7-1.6992-1.4-1.6992-2.5 0-1.3 1.1-2.5 2.5-2.5 1.1 0 2.0992 0.49922 4.1992 2.1992 2 1.5 3.5 2.4004 5 2.9004 1 0.3 1.9 0.5 3 0.5 1 0 1.9012-0.2 2.7012-0.5 2.9-1.1 4.6992-3.8004 4.6992-7.4004 0-1-0.2-1.9984-0.5-2.8984-1.9-5.7-9.2-9.8-18.3-9.8zm-171.6 0.80078c-5.5 0-9.4004 3.4988-9.9004 8.7988 0 0.5-0.0996 1.0004-0.0996 1.4004v37.301c0 1-0.00039 1.8992 0.0996 2.6992 0.2 2.5 0.70039 3.8996 1.9004 5.5996 1.8 2.3 4.7012 3.7012 7.7012 3.7012 2.9 0 5.5984-1.3 7.3984-3.5 1.4-1.7 2.0016-3.2008 2.1016-5.8008v-1.9004-12.9l11.5 14.701 4.1992 5.4004c2 2.6 4.4996 3.8984 7.5996 3.8984 3 0 5.7-1.2996 7.5-3.5996 1.2-1.6 1.8-3.0992 2-5.6992 0.1-0.9 0.0996-1.9 0.0996-3v-36.1c-0.1-0.6-0.0992-1.4016-0.19922-2.1016-0.2-2.2-0.89922-3.7984-2.1992-5.3984-1.8-2.2-4.4008-3.5-7.3008-3.5-3.1 0-6.2008 1.6992-7.8008 4.1992-1 1.4-1.3996 2.6992-1.5996 4.6992-0.1 0.8-0.0996 1.8004-0.0996 2.9004v11.5l-3.3008-4.0996-8.3984-10.4-4.1016-5c-2.2-2.7-4.2996-3.7988-7.0996-3.7988zm57.801 0c-2.8 0-5.6996 1.4992-7.5996 3.6992-1.2 1.5-1.7004 2.5996-1.9004 5.0996-0.1 1-0.0996 2.3-0.0996 4v20.801c0 7.7 1.0996 11.8 4.5996 16.6l0.0996 0.19922c4.7 6.3 12.1 10.201 19.9 10.201 6.9 0 13.8-3.1996 18.6-8.5996 0.5-0.6 1.0004-1.2012 1.4004-1.7012 3.2-4.4 4.6992-9.6996 4.6992-16.6v-21c0.2-1.5 0.19961-2.7008 0.0996-3.8008-0.2-2.5-0.79961-3.7984-2.0996-5.3984-1.7-2.1-4.7-3.5-7.5-3.5-2.9 0-5.6004 1.3992-7.4004 3.6992-1.3 1.6-1.9 2.6992-2 5.1992 0 0.7-0.0996 1.5-0.0996 2.5v23.5c0 4.1-2 6.7012-5.5 6.7012s-5.5-2.7-5.5-7v-23.301c0-0.9 0.00039-1.8-0.0996-2.5-0.3-2.6-1-4.1988-2.5-5.7988-1.7-1.8-4.3996-3-7.0996-3zm144.7 0c-4.2 0-7.6992 3.3996-7.6992 7.5996 0 0.5-0.00039 0.89883 0.0996 1.2988 0.6 3.6 3.8 6.3008 7.5 6.3008 3.8 0 6.8996-2.7008 7.5996-6.3008 0.1-0.4 0.0996-0.89883 0.0996-1.2988 0-4.2-3.3996-7.5996-7.5996-7.5996zm-322.9 0.5c-5.6 0-9.2 2.1988-10.5 6.2988-0.2 0.7-0.29844 1.1-0.39844 2s-0.10156 2.3012-0.10156 4.7012v32.5 4.1992c0 0.9 0.10078 1.3996 0.30078 2.0996 0.6 2.3 1.8 3.8012 4 5.2012 1.7 1.2 3.4996 1.5996 8.0996 1.5996h8.2012c4.1 0 7.6-0.30117 10-0.70117 5.1-1 9.9988-3.5996 13.799-7.0996l1.2012-0.90039c5.3-5.5 8.3984-12.9 8.3984-20.5 0-3.6-0.69844-7.1996-1.8984-10.6-1.5-3.9-3.8008-7.4004-6.8008-10.4l-1-0.89844c-5.7-5.1-12.501-7.5-21.301-7.5h-12zm236 0c-7.7 0-8.5 0.1-10.5 1-2.6 1.1-4.6984 4.2984-4.8984 7.3984v0.5c0 2.3 0.99922 4.5008 2.6992 6.3008 1.7 1.7 3.8992 2.5 7.1992 2.5h5.4004v29.699c0 0.9-0.00039 1.6008 0.0996 2.3008 0.1 2.4 0.60156 3.7008 1.6016 5.3008 1.8 2.5 4.6984 4 7.8984 4 3.3 0 6.2004-1.6008 7.9004-4.3008 0.9-1.5 1.3996-2.9 1.5996-5 0.1-0.7 0.10156-1.5 0.10156-2.5v-29.6h4.5c3.5 0 5.8984-0.69961 7.3984-2.0996 1.9-1.7 3.1016-4.3004 3.1016-6.9004l-0.10156-0.20117c-0.2-4.3-3.3988-7.5992-7.7988-8.1992-0.6-0.1-0.90117-0.0992-1.7012-0.19922h-4.8984-19.602zm86.9 0.39844c3.7 0 6.7012 3.0012 6.7012 6.7012 0 0.5-0.002 0.89883-0.10156 1.2988-0.6 3.1-3.2996 5.4004-6.5996 5.4004s-5.9996-2.3004-6.5996-5.4004c-0.1-0.4-0.0996-0.89883-0.0996-1.2988 0-3.7 2.9992-6.7012 6.6992-6.7012zm-388.9 2.1016h0.30078c1.3 0 2.3008 0.8 2.8008 2 0.3 1.1 0.19961 2.5-0.40039 3.5-0.5 0.8-0.90117 1.1-2.7012 2l-2.3984-6.6016 0.5-0.19922c0.9-0.4 1.3984-0.59922 1.8984-0.69922zm386 0.39844v8.5h1v-3.8984h1.9004l0.59961 1 1.8008 2.8984h1.1992l-1.8984-2.8984-0.5-1.1016c1.5 0 2.6992-0.69883 2.6992-2.2988 0-0.7-0.3-1.5008-1-1.8008-0.6-0.4-1.3996-0.40039-2.0996-0.40039h-3.7012zm1.1016 0.70117h2.3984c1.1 0 2.2012 0.2 2.2012 1.5 0 1.7-1.8 1.5-3 1.5h-1.5996v-3zm-312.9 14.299h1.7988c3.2 0 5.2004 0.30039 6.9004 0.90039l0.70117 0.30078c3.9 1.9 6.3984 5.8988 6.3984 10.299 0 3.7-1.8988 7.4-4.7988 9.5-2.3 1.6-4.0012 1.9-10.701 2h-0.19922v-22.1h-0.0996v-0.90039zm67.699 0c1.7 0 3.2012 0.30039 4.7012 0.90039 4.2 1.8 7.0996 5.8996 7.0996 10.6 0 6.5-5.3008 11.9-11.801 11.9-6.5 0-11.799-5.4004-11.799-11.9 0-4.7 2.8996-8.7996 7.0996-10.6 1.4-0.6 2.9992-0.90039 4.6992-0.90039z"/></g></svg>
