<?xml version="1.0" encoding="utf-8"?>
<!-- Generator: Adobe Illustrator 15.0.2, SVG Export Plug-In . SVG Version: 6.00 Build 0)  -->
<!DOCTYPE svg PUBLIC "-//W3C//DTD SVG 1.1//EN" "http://www.w3.org/Graphics/SVG/1.1/DTD/svg11.dtd">
<svg version="1.1" id="Ebene_1" xmlns="http://www.w3.org/2000/svg" xmlns:xlink="http://www.w3.org/1999/xlink" x="0px" y="0px"
	 width="841.89px" height="451px" viewBox="0 0 841.89 451" enable-background="new 0 0 841.89 451" xml:space="preserve">
<path fill="#01422D" d="M527.27,382.468c-4.827,20.017-19.927,28.45-45.205,28.45c-17.156,0-32.247-3.445-40.01-11.229
	c-8.418-8.256-9.685-19.646-9.685-31.819v-59.691h19.208v58.67c0,13.253,1.089,21.159,6.268,26.981
	c5.88,6.826,16.038,8.823,24.606,8.823c18.12,0,30.191-5.869,33.467-21.813c0.757-3.673,1.346-8.173,1.346-15.12v-57.542h11.823
	v53.521C529.088,371.694,528.511,377.338,527.27,382.468"/>
<path fill="none" stroke="#01422D" stroke-width="0.185" d="M527.27,382.468c-4.827,20.017-19.927,28.45-45.205,28.45
	c-17.156,0-32.247-3.445-40.01-11.229c-8.418-8.256-9.685-19.646-9.685-31.819v-59.691h19.208v58.67
	c0,13.253,1.089,21.159,6.268,26.981c5.88,6.826,16.038,8.823,24.606,8.823c18.12,0,30.191-5.869,33.467-21.813
	c0.757-3.673,1.346-8.173,1.346-15.12v-57.542h11.823v53.521C529.088,371.694,528.511,377.338,527.27,382.468"/>
<path fill="#01422D" d="M624.595,327.236l-22.248,46.391h43.399L624.595,327.236 M661.584,408.691l-12.667-28.23h-49.855
	l-13.567,28.23h-12.192l50.139-100.513h11.947l49.06,100.513H661.584z"/>
<path fill="none" stroke="#01422D" stroke-width="0.185" d="M624.595,327.236l-22.248,46.391h43.399L624.595,327.236
	 M661.584,408.691l-12.667-28.23h-49.855l-13.567,28.23h-12.192l50.139-100.513h11.947l49.06,100.513H661.584z"/>
<path fill="#01422D" d="M167.008,327.236l-22.23,46.391h43.408L167.008,327.236 M204.016,408.691l-12.647-28.23h-49.866
	l-13.585,28.23h-12.185l50.14-100.513h11.938l49.08,100.513H204.016z"/>
<path fill="none" stroke="#01422D" stroke-width="0.185" d="M167.008,327.236l-22.23,46.391h43.408L167.008,327.236
	 M204.016,408.691l-12.647-28.23h-49.866l-13.585,28.23h-12.185l50.14-100.513h11.938l49.08,100.513H204.016z"/>
<path fill="#01422D" d="M331.524,410.909c-33.193,0-64.739-11.419-64.739-50.017c0-12.544,5.567-25.402,13.974-34.605
	c13.179-14.305,33.192-20.011,52.089-20.011c11.427,0,24.664,2.592,34.963,7.828v11.939c-9.334-6.961-21.623-11.761-33.607-11.761
	c-27.305,0-46.136,17.081-46.136,45.341c0,25.579,16.617,43.087,42.178,43.087c6.505,0,15.508-1.157,21.7-3.531v-36.697h19.208
	v40.975C359.887,408.531,343.896,410.909,331.524,410.909"/>
<path fill="none" stroke="#01422D" stroke-width="0.185" d="M331.524,410.909c-33.193,0-64.739-11.419-64.739-50.017
	c0-12.544,5.567-25.402,13.974-34.605c13.179-14.305,33.192-20.011,52.089-20.011c11.427,0,24.664,2.592,34.963,7.828v11.939
	c-9.334-6.961-21.623-11.761-33.607-11.761c-27.305,0-46.136,17.081-46.136,45.341c0,25.579,16.617,43.087,42.178,43.087
	c6.505,0,15.508-1.157,21.7-3.531v-36.697h19.208v40.975C359.887,408.531,343.896,410.909,331.524,410.909"/>
<path fill="#01422D" d="M766.691,315.156h-14.125v48.085h12.354c10.358,0,16.551-1.932,21.378-5.823
	c5.095-4.091,8.143-10.366,8.143-18.848C794.44,321.584,782.095,315.156,766.691,315.156 M799.335,408.691l-26.633-38.596h-20.136
	v38.596h-19.219V308.179h36.354c14.75,0,29.51,2.138,37.728,11.218c4.298,4.745,6.636,11.343,6.636,19.834
	c0,15.536-11.712,24.946-22.144,28.648l29.538,40.813H799.335z"/>
<path fill="none" stroke="#01422D" stroke-width="0.185" d="M766.691,315.156h-14.125v48.085h12.354
	c10.358,0,16.551-1.932,21.378-5.823c5.095-4.091,8.143-10.366,8.143-18.848C794.44,321.584,782.095,315.156,766.691,315.156
	 M799.335,408.691l-26.633-38.596h-20.136v38.596h-19.219V308.179h36.354c14.75,0,29.51,2.138,37.728,11.218
	c4.298,4.745,6.636,11.343,6.636,19.834c0,15.536-11.712,24.946-22.144,28.648l29.538,40.813H799.335z"/>
<path fill="#01422D" d="M34.549,429.352c-5.074,2.385-10.631,3.965-16.35,3.965c13.169-9.522,18.736-19.208,20.639-35.246
	c1.117-8.899,1.117-17.799,1.117-26.689v-63.202h19.219v76.07C59.175,402.824,52.027,420.784,34.549,429.352"/>
<path fill="none" stroke="#01422D" stroke-width="0.185" d="M34.549,429.352c-5.074,2.385-10.631,3.965-16.35,3.965
	c13.169-9.522,18.736-19.208,20.639-35.246c1.117-8.899,1.117-17.799,1.117-26.689v-63.202h19.219v76.07
	C59.175,402.824,52.027,420.784,34.549,429.352"/>
<path fill="#241F20" d="M155.373,39.854c6.901,0.208,12.828-2.367,12.847-2.736c0.019-0.369-7.64-1.098-7.64-1.098
	c-7.015,0.293-9.875,2.896-9.913,3.2C150.62,39.512,152.495,39.758,155.373,39.854"/>
<path fill="#241F20" d="M108.462,51.735c0,0,0.417-1.468,0.596-1.789c0.18-0.332,1.184-3.721,6.031-4.09
	c0,0,2.442-0.218,5.254,0.653c0,0-1.619,4.175-8.245,4.866C112.098,51.375,109.493,51.764,108.462,51.735 M757.29,239.957
	c-1.646,4.068-8.7,9.25-16.984,12.022c-8.747,2.924-27.011,3-36.354-0.104c0,0-1.969-2.14-8.541-4.071
	c-15.28-4.496-20.221-7.629-27.976-14.853c-5.48-5.102-11.513-11.502-17.362-17.534c-2.604-2.688-8.938-9.032-20.071-10.963
	c-11.616-2.007-40.124-4.185-50.622-7.896c-7.063-2.508-15.433-7.27-25.94-22.986c-5.037-7.545-8.852-9.742-16.124-14.381
	c0,0,5.549,4.383,8.466,9.704c4.212,7.726,6.229,13.284,8.529,17.391c2.317,4.138,4.999,7.822,9.183,11.182
	c5.188,4.166,8.54,5.084,14.4,6.267c5.604,1.137,24.738,1.98,41.155,2.623c16.141,0.625,23.043,5.624,28.089,9.857
	c4.639,3.918,12.034,15.111,17.222,19.691c6.938,6.098,7.119,6.183,15.176,11.238c4.07,2.555,7.659,4.229,10.964,5.416
	c7.393,4.344,4.336,11.928,4.336,11.928c-2.121,6.042-9.751,8.207-18.66,6.948c-13.463-1.191-25.051-12.421-34.84-20.477
	c-5.387-4.441-7.291-6.657-17.677-13.872c-15.801-10.961-52.931-10.053-52.931-10.053l-27.21-0.171
	c-52.999,0.778-72.389-41.864-77.681-50.812c-1.827-3.114-3.521-5.623-5.131-7.678c-2.471-3.333-15.772-20.695-30.021-26.896
	c0,0,13.68,11.834,12.308,18.31c-2.935-0.038-6.268,0.151-10.245,0.265c-53.395,1.563-64.491-1.392-72.926-3.077
	c-8.446-1.695-22.599-5.898-36.354-12.232c0,0,1.534-13.159-3.929-24.094c0,0,44.072,15.564,79.137,11.153
	c0,0-56.595-2.765-91.899-30.901c0,0,8.711,29.737,1.827,42.224c0,0-9.277,22.674-56.851,7.545c0,0-21.88-8.511-38.893-8.511
	c0,0-12.808,0.53-14.341,7.205c0,0-0.835,3.19,2.508,4.705c0,0,3.711,1.061,1.959,3.816c-2.887,4.554-6.893,8.076-10.869,10.063
	c-13.273-0.653-12.289-11.55-12.289-11.55c0.237-3.863,1.487-6.561,2.67-9.221c8.34-18.66,37.651-21.368,37.651-21.368
	c31.186-3.114,63.877,4.374,63.877,4.374c-23.385-5.577-31.337-9.667-38.022-15.243c-9.004-7.517-17.419-32.775-17.419-32.775
	c-3.588,12.383,0.852,24.899,3.854,31.327c-4.431-7.072-10.746-13.045-16.379-17.562c-14.4-11.542-35.304-15.271-35.304-15.271
	c-6.041-1.033-8.436-7.29-8.436-7.29c-7.745-14.258-16.511-14.93-16.511-14.93c4.317,5.917,3.863,14.012,3.863,14.012
	c0,14.921-19.19,19.873-19.19,19.873c-14.353,14.267-16.843,13.963-19.645,14.172c-2.803,0.199-4.875-2.708-4.875-2.708
	c-0.91-1.364,0.605-2.585,0.605-2.585c2.423-1.515,4.715-3.493,4.715-3.493c13.993-11.238,15.962-16.984,14.826-24.824
	c-2.282-15.66-14.911-14.504-14.911-14.504c-5.936,0-8.871,4.525-8.871,4.525c-2.291,2.727-7.3,11.256-7.3,11.256
	c-4.412,7.291-8.359,6.22-8.359,6.22c-4.866,0.313-8.388-4.005-8.388-4.005c-0.19-0.169-0.332-0.369-0.492-0.539
	c-3.607-3.873-0.502-8.549-0.502-8.549c5.937-10.49,16.18-11.521,17.572-11.607c1.401-0.085,6.125-0.436,6.125-0.436
	c11.568-0.842,19.123-11.9,19.123-11.9c-4.875-2.357-13.584-1.107-13.584-1.107c-8.483,0.568-10.717,9.571-10.736,9.571
	c-7.347,1.08-6.978-4.563-5.406-6.049c1.24-1.458,5.613-8.54,33.741-12.762c0,0,14.921-2.954,41.42-0.047
	c0.974,0.104,1.921,0.957,0.672,2.433c-3.333,3.911-13.756,12.582-30.476,8.388c0,0-0.302,6.684,17.932,10.026
	c0,0,16.445,3.502,43.294,25.069c0,0-13.017-24.075-35.521-31.413c0,0-1.667-1.06-0.152-2.584c0,0,10.65-9.544,29.443-8.54
	c0,0,62.144,3.191,97.079,39.649c0,0-1.211-6.078-6.532-14.892c0,0-1.07-1.051-0.455-1.817c0,0,0.455-1.525,6.533-0.304
	c0,0,22.182,3.645,73.674,22.485c0,0,38.599,13.529,59.646,22.258c31.64,13.112,110.909,45.264,160.974,72.975
	c8.938,4.942,46.173,23.337,46.173,23.337c27.834,17.277,53.444,29.783,53.444,29.783c25.221,11.656,43.559,6.316,43.559,6.316
	c5.859-2.207,17.051-8.283,21.415-3.968C758.463,234.361,758.596,237.237,757.29,239.957z M763.567,230.176
	c-3.297-7.677-13.909-5.794-13.909-5.794c-4.855,0.294-10.98,5.376-19.492,7.127c-18.31,3.778-32.313-2.45-32.313-2.45
	c-26.98-12.08-45.244-25.24-57.126-32.038c-11.88-6.797-55.856-29.898-99.842-52.004c0,0-50.385-25.827-124.932-56.644
	c0,0-143.829-65.259-247.279-65.259c0,0-53.585-0.673-71.733,19.948c0,0-3.2,2.651-1.639,5.917c0,0,0.218,0.9-0.454,1.477
	c0,0-7.981,5.245-14.476,12.771c0,0-3.483,3.56-0.682,8.871c0,0,3.465,6.04,5.653,8.635c2.206,2.584,6.618,7.11,13.358,6.438
	c2.982-0.303,3.067-1.05,3.067-1.05c3.096,3.124,8.502,3.313,8.502,3.313c-0.54-1.921-2.604-5.728-2.784-7.943
	c-0.199-2.48,0.766-4.781,0.766-4.781c1.127-2.727,3.239-6.107,5.388-7.792c1.912-1.496,6.655-3.048,10.196-0.568
	c2.841,1.989,5.86,8.36,2.453,16.748c0,0-3.834,6.627-7.375,7.365l-0.984,0.047c-2.027-0.038-6.542-2.527-6.542-2.527
	s-0.189,0.54,0.313,2.822c0.293,1.296,0.71,2.736,1.06,3.843l-0.937,0.757c0,0-2.85,2.292-1.59,5.596
	c0,0,2.774,10.433,10.518,10.433c6.845,0.228,12.544-6.267,12.544-6.267c14.684-15.839,35.379-17.969,35.379-17.969
	c22.939-1.563,55.717,21.926,64.644,28.705c-33.969-0.369-47.678,12.667-47.678,12.667c-19.133,14.893-11.683,32.862-11.683,32.862
	c1.392,3.909,5.311,6.759,7.811,7.857c3.606,1.571,6.57,1.637,9.363,1.325c2.017-0.218,4.231-0.966,5.358-1.742
	c2.604-1.535,7.252-4.573,9.496-7.802c1.497-1.619,3.001-5.585,2.007-9.363c0,0-0.605-3.039,2.131-3.655
	c0,0,9.002-2.281,27.18,5.748c0,0,19.749,11.512,45.367,13.794c0,0,29.132,2.954,36.167-12.819c0,0,16.738,6.845,41.231,9.648
	c0,0,23.866,2.47,62.58-0.445c7.619-0.578,16.566,0.057,16.566,0.057c12.393,1.486,20.27,7.934,23.375,12.98
	c12.688,20.6,27.825,61.017,89.809,59.418l28.052-0.769c17.051,0,30.938,0.142,44.572,7.432
	c5.954,3.191,21.681,18.801,31.365,24.074c28.677,19.325,45.244,10.341,45.244,10.341c9.761-5.69,8.994-15.813,6.618-21.481
	c-2.935-0.93,35.531,5.64,51.93-15.896C764.059,237.333,764.739,232.932,763.567,230.176z"/>
</svg>
