<?xml version="1.0" encoding="UTF-8" standalone="no"?>
<!-- Created with Inkscape (http://www.inkscape.org/) -->

<svg
   xmlns:dc="http://purl.org/dc/elements/1.1/"
   xmlns:cc="http://creativecommons.org/ns#"
   xmlns:rdf="http://www.w3.org/1999/02/22-rdf-syntax-ns#"
   xmlns:svg="http://www.w3.org/2000/svg"
   xmlns="http://www.w3.org/2000/svg"
   xmlns:sodipodi="http://sodipodi.sourceforge.net/DTD/sodipodi-0.dtd"
   xmlns:inkscape="http://www.inkscape.org/namespaces/inkscape"
   width="112.88889mm"
   height="17.901699mm"
   viewBox="0 0 399.99999 63.431217"
   id="svg2"
   version="1.1"
   inkscape:version="0.91 r13725"
   sodipodi:docname="Nordsee_Logo.svg">
  <defs
     id="defs4" />
  <sodipodi:namedview
     id="base"
     pagecolor="#ffffff"
     bordercolor="#666666"
     borderopacity="1.0"
     inkscape:pageopacity="0.0"
     inkscape:pageshadow="2"
     inkscape:zoom="0.35"
     inkscape:cx="283.46457"
     inkscape:cy="44.951252"
     inkscape:document-units="px"
     inkscape:current-layer="layer1"
     showgrid="false"
     fit-margin-top="0"
     fit-margin-left="0"
     fit-margin-right="0"
     fit-margin-bottom="0"
     inkscape:window-width="1366"
     inkscape:window-height="705"
     inkscape:window-x="-8"
     inkscape:window-y="-8"
     inkscape:window-maximized="1" />
  <metadata
     id="metadata7">
    <rdf:RDF>
      <cc:Work
         rdf:about="">
        <dc:format>image/svg+xml</dc:format>
        <dc:type
           rdf:resource="http://purl.org/dc/dcmitype/StillImage" />
        <dc:title></dc:title>
      </cc:Work>
    </rdf:RDF>
  </metadata>
  <g
     inkscape:label="Layer 1"
     inkscape:groupmode="layer"
     id="layer1"
     transform="translate(345.60742,-513.88224)">
    <g
       id="layer1-7"
       transform="matrix(0.70555556,0,0,0.70555556,-672.75362,489.86484)">
      <g
         id="g6958">
        <path
           style="fill:#003b78;fill-opacity:1;fill-rule:nonzero;stroke:none"
           id="path6187"
           d="m 571.42564,42.811895 c -18.85315,0 -36.2819,13.853986 -36.2819,33.678333 0,21.215503 15.25646,36.197932 36.2819,36.197912 21.02536,0 36.19793,-14.982409 36.19791,-36.197912 0,-19.824374 -17.34517,-33.67836 -36.19791,-33.678333 z m 187.7924,0.419929 c -13.11926,0 -22.59225,8.700614 -22.5922,22.004298 0,12.693611 7.03468,15.433942 17.72102,18.476891 3.64902,1.04344 10.33032,2.69252 10.33026,7.474742 0,4.608123 -4.23453,6.634857 -8.23061,6.634884 -5.82158,0 -10.85936,-3.063858 -15.11746,-6.802855 l -7.30677,13.773686 c 6.69065,4.69581 14.75931,7.47474 23.01213,7.47474 6.6033,0 13.43465,-1.86785 18.56087,-6.21496 5.21183,-4.4348 6.80283,-11.115694 6.80286,-17.637028 0,-10.607752 -7.00343,-15.194079 -16.12529,-17.88899 l -4.36726,-1.343774 c -2.95464,-0.956095 -7.5587,-2.38923 -7.55873,-6.214955 0,-3.652055 4.17846,-5.459027 7.30677,-5.459081 4.17075,0 8.12575,1.673939 11.25411,4.283279 l 6.80285,-13.185781 c -5.82023,-3.303319 -13.88919,-5.375096 -20.49255,-5.375096 z m -295.54627,1.763703 0,65.508983 17.04913,0 0,-40.14525 0.16797,0 31.24274,40.14525 16.96515,0 0,-65.508983 -16.96515,0 0,40.06126 -0.16797,0 -31.24274,-40.06126 -17.04913,0 z m 150.67065,0 0,65.508983 17.04913,0 0,-25.195766 0.16797,0 16.0413,25.195766 21.16444,0 -20.57654,-26.875483 c 9.29556,-1.651847 14.36159,-9.434368 14.36159,-18.476891 0,-13.998765 -9.81466,-20.156528 -22.76018,-20.156609 l -25.44771,0 z m 59.04206,0 0,65.508983 24.18793,0 c 18.15775,0 33.25841,-14.321947 33.25841,-32.754494 0,-18.433568 -15.01337,-32.754408 -33.25841,-32.754489 l -24.18793,0 z m 117.0763,0 0,65.508983 37.28973,0 0,-14.445574 -20.2406,0 0,-11.254107 19.23277,0 0,-14.445569 -19.23277,0 0,-11.002149 20.2406,0 0,-14.361584 -37.28973,0 z m 47.78796,0 0,65.508983 37.28973,0 0,-14.445574 -20.2406,0 0,-11.254107 19.14878,0 0,-14.445569 -19.14878,0 0,-11.002149 20.2406,0 0,-14.361584 -37.28973,0 z m -206.85719,13.01781 1.59573,0 c 5.56054,0 11.84195,1.016861 11.84201,8.146629 0,7.129393 -6.28142,8.146683 -11.84201,8.14663 l -1.59573,0 0,-16.293259 z m -59.96591,1.259788 c 10.16465,0 18.47683,8.258915 18.47689,17.301089 0,11.303477 -8.31232,19.568654 -18.47689,19.568708 -10.16565,0 -18.5608,-8.265151 -18.56088,-19.568708 0,-9.042254 8.39515,-17.301062 18.56088,-17.301089 z m 119.00797,0.08399 4.03133,0 c 10.9474,0 18.6448,6.654368 18.64486,18.392905 0,12.780983 -8.64821,18.308973 -18.81284,18.30892 l -3.86335,0 0,-36.701825 z"
           inkscape:connector-curvature="0" />
        <path
           style="fill:#e70018;fill-opacity:1;fill-rule:nonzero;stroke:none"
           id="path6201"
           d="m 919.82219,78.991327 c 0.77033,1.232577 11.16474,14.257777 32.9191,15.413087 l 0,23.185136 c -42.18644,-1.57423 -62.65077,-34.830281 -64.53474,-38.598223 1.88397,-3.767942 22.3483,-37.023322 64.53474,-38.597553 l 0,23.185139 c -21.75436,1.155309 -32.14877,14.18051 -32.9191,15.412414 z m 40.24334,15.327086 C 969.84654,93.52693 980.96895,89.740175 993.90882,78.991327 980.96895,68.243152 969.84654,64.456733 960.06553,63.664914 l 0,-23.217389 c 22.77697,1.216115 37.82086,12.200459 49.09307,23.281554 7.6448,-8.929377 15.5545,-19.85829 21.4423,-29.688668 l 0,32.917757 c -1.0918,2.073107 -4.5658,7.087064 -8.2074,11.964963 3.7165,4.965916 7.1986,10.06621 8.2074,12.101356 l 0,32.918433 c -5.8696,-9.80082 -13.7498,-20.69311 -21.3717,-29.606031 -11.60116,11.675711 -26.2483,22.067781 -49.16367,23.206301"
           inkscape:connector-curvature="0" />
      </g>
    </g>
  </g>
</svg>
