<?xml version="1.0" encoding="UTF-8" standalone="no"?>
<!-- Created with Inkscape (http://www.inkscape.org/) -->
<svg xmlns:dc="http://purl.org/dc/elements/1.1/" xmlns:cc="http://creativecommons.org/ns#" xmlns:rdf="http://www.w3.org/1999/02/22-rdf-syntax-ns#" xmlns:svg="http://www.w3.org/2000/svg" xmlns="http://www.w3.org/2000/svg" xmlns:xlink="http://www.w3.org/1999/xlink" xmlns:sodipodi="http://sodipodi.sourceforge.net/DTD/sodipodi-0.dtd" xmlns:inkscape="http://www.inkscape.org/namespaces/inkscape" id="svg2993" version="1.1" inkscape:version="0.48.3.1 r9886" width="264.20312" height="209.77986" xml:space="preserve" sodipodi:docname="SEAT_logo (2012).svg"><metadata id="metadata2999"><rdf:RDF><cc:Work rdf:about=""><dc:format>image/svg+xml</dc:format><dc:type rdf:resource="http://purl.org/dc/dcmitype/StillImage"/><dc:title/></cc:Work></rdf:RDF></metadata><defs id="defs2997"><clipPath clipPathUnits="userSpaceOnUse" id="clipPath3007"><path d="m 0,841.89 595.275,0 L 595.275,0 0,0 0,841.89 z" id="path3009" inkscape:connector-curvature="0"/></clipPath><radialGradient fx="0" fy="0" cx="0" cy="0" r="1" gradientUnits="userSpaceOnUse" gradientTransform="matrix(120.2673,-33.33725,-21.003464,-75.772003,289.46777,462.06152)" spreadMethod="pad" id="radialGradient3047"><stop style="stop-opacity:1;stop-color:#828282" offset="0" id="stop3049"/><stop style="stop-opacity:1;stop-color:#b3b3b4" offset="0.797928" id="stop3051"/><stop style="stop-opacity:1;stop-color:#b3b3b4" offset="0.797928" id="stop3053"/><stop style="stop-opacity:1;stop-color:#dadadb" offset="1" id="stop3055"/></radialGradient><linearGradient x1="0" y1="0" x2="1" y2="0" gradientUnits="userSpaceOnUse" gradientTransform="matrix(152.80406,0,0,-152.80406,259.05664,611.1875)" spreadMethod="pad" id="linearGradient3071"><stop style="stop-opacity:1;stop-color:#504f4f" offset="0" id="stop3073"/><stop style="stop-opacity:1;stop-color:#5c5c5b" offset="0.453995" id="stop3075"/><stop style="stop-opacity:1;stop-color:#2b2b2a" offset="0.906891" id="stop3077"/><stop style="stop-opacity:1;stop-color:#2b2b2a" offset="1" id="stop3079"/></linearGradient><clipPath clipPathUnits="userSpaceOnUse" id="clipPath3087"><path d="m 0,841.89 595.275,0 L 595.275,0 0,0 0,841.89 z" id="path3089" inkscape:connector-curvature="0"/></clipPath><linearGradient x1="0" y1="0" x2="1" y2="0" gradientUnits="userSpaceOnUse" gradientTransform="matrix(-13.503555,60.344223,60.344223,13.503555,196.37695,595.71484)" spreadMethod="pad" id="linearGradient3107"><stop style="stop-opacity:1;stop-color:#9e9e9e" offset="0" id="stop3109"/><stop style="stop-opacity:1;stop-color:#b3b3b4" offset="1" id="stop3111"/></linearGradient><linearGradient x1="0" y1="0" x2="1" y2="0" gradientUnits="userSpaceOnUse" gradientTransform="matrix(223.24095,0,0,-223.24095,192.8291,658.35596)" spreadMethod="pad" id="linearGradient3127"><stop style="stop-opacity:1;stop-color:#d0d1d1" offset="0" id="stop3129"/><stop style="stop-opacity:1;stop-color:#676767" offset="1" id="stop3131"/></linearGradient><linearGradient x1="0" y1="0" x2="1" y2="0" gradientUnits="userSpaceOnUse" gradientTransform="matrix(0,-43.189346,-43.189346,0,412.81348,651.32959)" spreadMethod="pad" id="linearGradient3147"><stop style="stop-opacity:1;stop-color:#ffffff" offset="0" id="stop3149"/><stop style="stop-opacity:1;stop-color:#dadadb" offset="0.116562" id="stop3151"/><stop style="stop-opacity:1;stop-color:#dadadb" offset="0.116562" id="stop3153"/><stop style="stop-opacity:1;stop-color:#737373" offset="1" id="stop3155"/></linearGradient><clipPath clipPathUnits="userSpaceOnUse" id="clipPath3163"><path d="m 0,841.89 595.275,0 L 595.275,0 0,0 0,841.89 z" id="path3165" inkscape:connector-curvature="0"/></clipPath><clipPath clipPathUnits="userSpaceOnUse" id="clipPath3175"><path d="m 177.12,656.483 241.205,0 0,-109.937 -241.205,0 0,109.937 z" id="path3177" inkscape:connector-curvature="0"/></clipPath><radialGradient fx="0" fy="0" cx="0" cy="0" r="1" gradientUnits="userSpaceOnUse" gradientTransform="matrix(-224.35435,195.70711,195.70711,224.35435,409.59961,461.62402)" spreadMethod="pad" id="radialGradient3183"><stop style="stop-opacity:1;stop-color:#898989" offset="0" id="stop3185"/><stop style="stop-opacity:1;stop-color:#c7c7c8" offset="0.588776" id="stop3187"/><stop style="stop-opacity:1;stop-color:#c7c7c8" offset="0.588776" id="stop3189"/><stop style="stop-opacity:1;stop-color:#ededed" offset="0.961227" id="stop3191"/><stop style="stop-opacity:1;stop-color:#ededed" offset="1" id="stop3193"/></radialGradient><clipPath clipPathUnits="userSpaceOnUse" id="clipPath3213"><path d="m 177.12,656.483 241.205,0 0,-109.937 -241.205,0 0,109.937 z" id="path3215" inkscape:connector-curvature="0"/></clipPath><radialGradient fx="0" fy="0" cx="0" cy="0" r="1" gradientUnits="userSpaceOnUse" gradientTransform="matrix(-217.12875,222.1476,222.1476,217.12875,519.33789,413.00586)" spreadMethod="pad" id="radialGradient3221"><stop style="stop-opacity:1;stop-color:#898989" offset="0" id="stop3223"/><stop style="stop-opacity:1;stop-color:#c7c7c8" offset="0.588776" id="stop3225"/><stop style="stop-opacity:1;stop-color:#c7c7c8" offset="0.588776" id="stop3227"/><stop style="stop-opacity:1;stop-color:#ffffff" offset="0.943512" id="stop3229"/><stop style="stop-opacity:1;stop-color:#ffffff" offset="1" id="stop3231"/></radialGradient><clipPath clipPathUnits="userSpaceOnUse" id="clipPath3255"><path d="m 182.239,459.827 c 0.667,-0.455 2.692,-1.849 9.934,-2.353 l 0,0 c 39.539,-2.771 75.15,-4.113 108.878,-4.113 l 0,0 c 22.747,0 44.868,0.6 67.604,1.837 l 0,0 c 11.123,0.602 19.032,1.315 25.123,2.709 l 0,0 c 1.71,1.112 2.589,2.208 2.903,2.837 l 0,0 c 0.613,1.229 0.062,2.357 -0.949,3.644 l 0,0 c -5.967,-1.864 -14.391,-2.383 -31.093,-3.206 l 0,0 c -22.457,-1.113 -46.46,-1.764 -71.337,-1.937 l 0,0 c -1.904,-0.012 -3.809,-0.017 -5.671,-0.017 l 0,0 c -29.193,0 -55.798,1.619 -89.255,4.226 l 0,0 c -6.223,0.485 -9.985,1.012 -12.064,2.384 l 0,0 c -0.682,0.45 -1.232,0.878 -1.674,1.376 l 0,0 c -0.228,-0.234 -0.527,-0.515 -0.912,-0.863 l 0,0 c -2.146,-1.923 -3.285,-1.546 -4.087,1.461 l 0,0 c 0.556,-6.027 1.125,-6.974 2.6,-7.985" id="path3257" inkscape:connector-curvature="0"/></clipPath><linearGradient x1="0" y1="0" x2="1" y2="0" gradientUnits="userSpaceOnUse" gradientTransform="matrix(217.2998,0,0,-217.2998,179.63867,460.58691)" spreadMethod="pad" id="linearGradient3267"><stop style="stop-opacity:0.91001755;stop-color:#ffffff" offset="0" id="stop3269"/><stop style="stop-opacity:1;stop-color:#ffffff" offset="1" id="stop3271"/></linearGradient><mask maskUnits="userSpaceOnUse" x="0" y="0" width="1" height="1" id="mask3273"><g id="g3275"><g id="g3277"><g id="g3279"><g id="g3281"><path d="m -32768,32767 65535,0 0,-65534 -65535,0 0,65534 z" style="fill:url(#linearGradient3267);stroke:none" id="path3283" inkscape:connector-curvature="0"/></g></g></g></g></mask><linearGradient x1="0" y1="0" x2="1" y2="0" gradientUnits="userSpaceOnUse" gradientTransform="matrix(217.2998,0,0,-217.2998,179.63867,460.58691)" spreadMethod="pad" id="linearGradient3289"><stop style="stop-opacity:1;stop-color:#737373" offset="0" id="stop3291"/><stop style="stop-opacity:1;stop-color:#2b2b2a" offset="1" id="stop3293"/></linearGradient><clipPath clipPathUnits="userSpaceOnUse" id="clipPath3301"><path d="m 0,841.89 595.275,0 L 595.275,0 0,0 0,841.89 z" id="path3303" inkscape:connector-curvature="0"/></clipPath><linearGradient x1="0" y1="0" x2="1" y2="0" gradientUnits="userSpaceOnUse" gradientTransform="matrix(16.874558,60.978271,60.978271,-16.874558,403.83008,465.34375)" spreadMethod="pad" id="linearGradient3321"><stop style="stop-opacity:1;stop-color:#5c5c5b" offset="0" id="stop3323"/><stop style="stop-opacity:1;stop-color:#2b2b2a" offset="1" id="stop3325"/></linearGradient><radialGradient fx="0" fy="0" cx="0" cy="0" r="1" gradientUnits="userSpaceOnUse" gradientTransform="matrix(-778.01746,567.05927,567.05927,778.01746,513.16602,-146.4043)" spreadMethod="pad" id="radialGradient3341"><stop style="stop-opacity:1;stop-color:#7e7e7d" offset="0" id="stop3343"/><stop style="stop-opacity:1;stop-color:#dadadb" offset="0.558929" id="stop3345"/><stop style="stop-opacity:1;stop-color:#ffffff" offset="1" id="stop3347"/></radialGradient><linearGradient x1="0" y1="0" x2="1" y2="0" gradientUnits="userSpaceOnUse" gradientTransform="matrix(-5.0714264,-20.340347,-20.340347,5.0714264,344.75977,524.18359)" spreadMethod="pad" id="linearGradient3363"><stop style="stop-opacity:1;stop-color:#737373" offset="0" id="stop3365"/><stop style="stop-opacity:1;stop-color:#e5e5e5" offset="1" id="stop3367"/></linearGradient><linearGradient x1="0" y1="0" x2="1" y2="0" gradientUnits="userSpaceOnUse" gradientTransform="matrix(158.41162,0,0,-158.41162,178.69482,508.78711)" spreadMethod="pad" id="linearGradient3383"><stop style="stop-opacity:1;stop-color:#b5b6b6" offset="0" id="stop3385"/><stop style="stop-opacity:1;stop-color:#504f4f" offset="1" id="stop3387"/></linearGradient><linearGradient x1="0" y1="0" x2="1" y2="0" gradientUnits="userSpaceOnUse" gradientTransform="matrix(144.18262,0,0,-144.18262,271.75684,586.66309)" spreadMethod="pad" id="linearGradient3403"><stop style="stop-opacity:1;stop-color:#b3b3b4" offset="0" id="stop3405"/><stop style="stop-opacity:1;stop-color:#e1e2e2" offset="1" id="stop3407"/></linearGradient><linearGradient x1="0" y1="0" x2="1" y2="0" gradientUnits="userSpaceOnUse" gradientTransform="matrix(153.28374,-26.611847,-26.611847,-153.28374,180.87061,546.30371)" spreadMethod="pad" id="linearGradient3423"><stop style="stop-opacity:1;stop-color:#898989" offset="0" id="stop3425"/><stop style="stop-opacity:1;stop-color:#2b2b2a" offset="0.895706" id="stop3427"/><stop style="stop-opacity:1;stop-color:#2b2b2a" offset="1" id="stop3429"/></linearGradient><linearGradient x1="0" y1="0" x2="1" y2="0" gradientUnits="userSpaceOnUse" gradientTransform="matrix(177.05638,-29.095444,-29.095444,-177.05638,182.6123,546.4248)" spreadMethod="pad" id="linearGradient3445"><stop style="stop-opacity:1;stop-color:#676767" offset="0" id="stop3447"/><stop style="stop-opacity:1;stop-color:#504f4f" offset="1" id="stop3449"/></linearGradient><clipPath clipPathUnits="userSpaceOnUse" id="clipPath3457"><path d="m 0,841.89 595.275,0 L 595.275,0 0,0 0,841.89 z" id="path3459" inkscape:connector-curvature="0"/></clipPath><linearGradient x1="0" y1="0" x2="1" y2="0" gradientUnits="userSpaceOnUse" gradientTransform="matrix(121.24023,0,0,-121.24023,236.06836,592.65332)" spreadMethod="pad" id="linearGradient3477"><stop style="stop-opacity:1;stop-color:#5c5c5b" offset="0" id="stop3479"/><stop style="stop-opacity:1;stop-color:#9e9e9e" offset="1" id="stop3481"/></linearGradient><clipPath clipPathUnits="userSpaceOnUse" id="clipPath3489"><path d="m 0,841.89 595.275,0 L 595.275,0 0,0 0,841.89 z" id="path3491" inkscape:connector-curvature="0"/></clipPath><clipPath clipPathUnits="userSpaceOnUse" id="clipPath3497"><path d="m 183.279,572.08 228.849,0 0,-110.434 -228.849,0 0,110.434 z" id="path3499" inkscape:connector-curvature="0"/></clipPath><radialGradient fx="0" fy="0" cx="0" cy="0" r="1" gradientUnits="userSpaceOnUse" gradientTransform="matrix(-225.23238,196.47301,196.47301,225.23238,411.9541,463.7041)" spreadMethod="pad" id="radialGradient3505"><stop style="stop-opacity:1;stop-color:#898989" offset="0" id="stop3507"/><stop style="stop-opacity:1;stop-color:#c7c7c8" offset="0.512955" id="stop3509"/><stop style="stop-opacity:1;stop-color:#ffffff" offset="1" id="stop3511"/></radialGradient><clipPath clipPathUnits="userSpaceOnUse" id="clipPath3535"><path d="m 291.496,542.987 120.632,0 0,-81.309 -120.632,0 0,81.309 z" id="path3537" inkscape:connector-curvature="0"/></clipPath><radialGradient fx="0" fy="0" cx="0" cy="0" r="1" gradientUnits="userSpaceOnUse" gradientTransform="matrix(-99.594803,27.383621,27.383621,99.594818,405.63379,459.55078)" spreadMethod="pad" id="radialGradient3543"><stop style="stop-opacity:1;stop-color:#2b2b2a" offset="0" id="stop3545"/><stop style="stop-opacity:1;stop-color:#dadadb" offset="0.811783" id="stop3547"/><stop style="stop-opacity:1;stop-color:#ffffff" offset="1" id="stop3549"/></radialGradient><clipPath clipPathUnits="userSpaceOnUse" id="clipPath3581"><path d="m 0,841.89 595.275,0 L 595.275,0 0,0 0,841.89 z" id="path3583" inkscape:connector-curvature="0"/></clipPath><clipPath clipPathUnits="userSpaceOnUse" id="clipPath3589"><path d="m 253.844,335.103 87.796,0 0,-58.308 -87.796,0 0,58.308 z" id="path3591" inkscape:connector-curvature="0"/></clipPath><clipPath clipPathUnits="userSpaceOnUse" id="clipPath3605"><path d="m 253.844,728.694 87.796,0 0,-58.307 -87.796,0 0,58.307 z" id="path3607" inkscape:connector-curvature="0"/></clipPath><clipPath clipPathUnits="userSpaceOnUse" id="clipPath3621"><path d="m 253.693,450.96 87.796,0 0,-58.308 -87.796,0 0,58.308 z" id="path3623" inkscape:connector-curvature="0"/></clipPath><clipPath clipPathUnits="userSpaceOnUse" id="clipPath3637"><path d="m 508.811,429.031 58.307,0 0,-87.796 -58.307,0 0,87.796 z" id="path3639" inkscape:connector-curvature="0"/></clipPath><clipPath clipPathUnits="userSpaceOnUse" id="clipPath3653"><path d="m 28.1567,429.111 58.3077,0 0,-87.796 -58.3077,0 0,87.796 z" id="path3655" inkscape:connector-curvature="0"/></clipPath><clipPath clipPathUnits="userSpaceOnUse" id="clipPath3669"><path d="m 86.085,670.766 423.105,0 0,-336.043 -423.105,0 0,336.043 z" id="path3671" inkscape:connector-curvature="0"/></clipPath><clipPath clipPathUnits="userSpaceOnUse" id="clipPath3683"><path d="m 28.1562,728.695 538.9628,0 0,-451.901 -538.9628,0 0,451.901 z" id="path3685" inkscape:connector-curvature="0"/></clipPath><clipPath clipPathUnits="userSpaceOnUse" id="clipPath3737"><path d="m 0,841.89 595.275,0 L 595.275,0 0,0 0,841.89 z" id="path3739" inkscape:connector-curvature="0"/></clipPath><clipPath clipPathUnits="userSpaceOnUse" id="clipPath3817"><path d="m 0,841.89 595.275,0 L 595.275,0 0,0 0,841.89 z" id="path3819" inkscape:connector-curvature="0"/></clipPath><clipPath clipPathUnits="userSpaceOnUse" id="clipPath3833"><path d="m 0,841.89 595.275,0 L 595.275,0 0,0 0,841.89 z" id="path3835" inkscape:connector-curvature="0"/></clipPath><clipPath clipPathUnits="userSpaceOnUse" id="clipPath3853"><path d="m 0,841.89 595.275,0 L 595.275,0 0,0 0,841.89 z" id="path3855" inkscape:connector-curvature="0"/></clipPath><clipPath clipPathUnits="userSpaceOnUse" id="clipPath3867"><path d="m 0,841.89 595.275,0 L 595.275,0 0,0 0,841.89 z" id="path3869" inkscape:connector-curvature="0"/></clipPath><clipPath clipPathUnits="userSpaceOnUse" id="clipPath3881"><path d="m 0,841.89 595.275,0 L 595.275,0 0,0 0,841.89 z" id="path3883" inkscape:connector-curvature="0"/></clipPath><clipPath clipPathUnits="userSpaceOnUse" id="clipPath3899"><path d="m 0,841.89 595.275,0 L 595.275,0 0,0 0,841.89 z" id="path3901" inkscape:connector-curvature="0"/></clipPath><clipPath clipPathUnits="userSpaceOnUse" id="clipPath3921"><path d="m 0,841.89 595.275,0 L 595.275,0 0,0 0,841.89 z" id="path3923" inkscape:connector-curvature="0"/></clipPath><clipPath clipPathUnits="userSpaceOnUse" id="clipPath3935"><path d="m 0,841.89 595.275,0 L 595.275,0 0,0 0,841.89 z" id="path3937" inkscape:connector-curvature="0"/></clipPath><clipPath clipPathUnits="userSpaceOnUse" id="clipPath3951"><path d="m 0,841.89 595.275,0 L 595.275,0 0,0 0,841.89 z" id="path3953" inkscape:connector-curvature="0"/></clipPath><clipPath clipPathUnits="userSpaceOnUse" id="clipPath3965"><path d="m 0,841.89 595.275,0 L 595.275,0 0,0 0,841.89 z" id="path3967" inkscape:connector-curvature="0"/></clipPath><clipPath clipPathUnits="userSpaceOnUse" id="clipPath3979"><path d="m 0,841.89 595.275,0 L 595.275,0 0,0 0,841.89 z" id="path3981" inkscape:connector-curvature="0"/></clipPath><radialGradient inkscape:collect="always" xlink:href="#radialGradient3047" id="radialGradient4187" gradientUnits="userSpaceOnUse" gradientTransform="matrix(120.2673,-33.33725,-21.003464,-75.772003,289.46777,462.06152)" spreadMethod="pad" cx="0" cy="0" fx="0" fy="0" r="1"/><linearGradient inkscape:collect="always" xlink:href="#linearGradient3071" id="linearGradient4189" gradientUnits="userSpaceOnUse" gradientTransform="matrix(152.80406,0,0,-152.80406,259.05664,611.1875)" spreadMethod="pad" x1="0" y1="0" x2="1" y2="0"/><linearGradient inkscape:collect="always" xlink:href="#linearGradient3107" id="linearGradient4191" gradientUnits="userSpaceOnUse" gradientTransform="matrix(-13.503555,60.344223,60.344223,13.503555,196.37695,595.71484)" spreadMethod="pad" x1="0" y1="0" x2="1" y2="0"/><linearGradient inkscape:collect="always" xlink:href="#linearGradient3127" id="linearGradient4193" gradientUnits="userSpaceOnUse" gradientTransform="matrix(223.24095,0,0,-223.24095,192.8291,658.35596)" spreadMethod="pad" x1="0" y1="0" x2="1" y2="0"/><linearGradient inkscape:collect="always" xlink:href="#linearGradient3147" id="linearGradient4195" gradientUnits="userSpaceOnUse" gradientTransform="matrix(0,-43.189346,-43.189346,0,412.81348,651.32959)" spreadMethod="pad" x1="0" y1="0" x2="1" y2="0"/><radialGradient inkscape:collect="always" xlink:href="#radialGradient3183" id="radialGradient4197" gradientUnits="userSpaceOnUse" gradientTransform="matrix(-224.35435,195.70711,195.70711,224.35435,409.59961,461.62402)" spreadMethod="pad" cx="0" cy="0" fx="0" fy="0" r="1"/><radialGradient inkscape:collect="always" xlink:href="#radialGradient3221" id="radialGradient4199" gradientUnits="userSpaceOnUse" gradientTransform="matrix(-217.12875,222.1476,222.1476,217.12875,519.33789,413.00586)" spreadMethod="pad" cx="0" cy="0" fx="0" fy="0" r="1"/><linearGradient inkscape:collect="always" xlink:href="#linearGradient3289" id="linearGradient4201" gradientUnits="userSpaceOnUse" gradientTransform="matrix(217.2998,0,0,-217.2998,179.63867,460.58691)" spreadMethod="pad" x1="0" y1="0" x2="1" y2="0"/><linearGradient inkscape:collect="always" xlink:href="#linearGradient3321" id="linearGradient4203" gradientUnits="userSpaceOnUse" gradientTransform="matrix(16.874558,60.978271,60.978271,-16.874558,403.83008,465.34375)" spreadMethod="pad" x1="0" y1="0" x2="1" y2="0"/><radialGradient inkscape:collect="always" xlink:href="#radialGradient3341" id="radialGradient4205" gradientUnits="userSpaceOnUse" gradientTransform="matrix(-778.01746,567.05927,567.05927,778.01746,513.16602,-146.4043)" spreadMethod="pad" cx="0" cy="0" fx="0" fy="0" r="1"/><linearGradient inkscape:collect="always" xlink:href="#linearGradient3363" id="linearGradient4207" gradientUnits="userSpaceOnUse" gradientTransform="matrix(-5.0714264,-20.340347,-20.340347,5.0714264,344.75977,524.18359)" spreadMethod="pad" x1="0" y1="0" x2="1" y2="0"/><linearGradient inkscape:collect="always" xlink:href="#linearGradient3383" id="linearGradient4209" gradientUnits="userSpaceOnUse" gradientTransform="matrix(158.41162,0,0,-158.41162,178.69482,508.78711)" spreadMethod="pad" x1="0" y1="0" x2="1" y2="0"/><linearGradient inkscape:collect="always" xlink:href="#linearGradient3403" id="linearGradient4211" gradientUnits="userSpaceOnUse" gradientTransform="matrix(144.18262,0,0,-144.18262,271.75684,586.66309)" spreadMethod="pad" x1="0" y1="0" x2="1" y2="0"/><linearGradient inkscape:collect="always" xlink:href="#linearGradient3423" id="linearGradient4213" gradientUnits="userSpaceOnUse" gradientTransform="matrix(153.28374,-26.611847,-26.611847,-153.28374,180.87061,546.30371)" spreadMethod="pad" x1="0" y1="0" x2="1" y2="0"/><linearGradient inkscape:collect="always" xlink:href="#linearGradient3445" id="linearGradient4215" gradientUnits="userSpaceOnUse" gradientTransform="matrix(177.05638,-29.095444,-29.095444,-177.05638,182.6123,546.4248)" spreadMethod="pad" x1="0" y1="0" x2="1" y2="0"/><linearGradient inkscape:collect="always" xlink:href="#linearGradient3477" id="linearGradient4217" gradientUnits="userSpaceOnUse" gradientTransform="matrix(121.24023,0,0,-121.24023,236.06836,592.65332)" spreadMethod="pad" x1="0" y1="0" x2="1" y2="0"/><radialGradient inkscape:collect="always" xlink:href="#radialGradient3505" id="radialGradient4219" gradientUnits="userSpaceOnUse" gradientTransform="matrix(-225.23238,196.47301,196.47301,225.23238,411.9541,463.7041)" spreadMethod="pad" cx="0" cy="0" fx="0" fy="0" r="1"/><radialGradient inkscape:collect="always" xlink:href="#radialGradient3543" id="radialGradient4221" gradientUnits="userSpaceOnUse" gradientTransform="matrix(-99.594803,27.383621,27.383621,99.594818,405.63379,459.55078)" spreadMethod="pad" cx="0" cy="0" fx="0" fy="0" r="1"/></defs><sodipodi:namedview pagecolor="#ffffff" bordercolor="#666666" borderopacity="1" objecttolerance="10" gridtolerance="10" guidetolerance="10" inkscape:pageopacity="0" inkscape:pageshadow="2" inkscape:window-width="1680" inkscape:window-height="988" id="namedview2995" showgrid="false" fit-margin-top="0" fit-margin-left="0" fit-margin-right="0" fit-margin-bottom="0" inkscape:zoom="0.63429547" inkscape:cx="138.5948" inkscape:cy="-60.434576" inkscape:window-x="-8" inkscape:window-y="-8" inkscape:window-maximized="1" inkscape:current-layer="g3001"/><g id="g3001" inkscape:groupmode="layer" inkscape:label="SEAT_Master_Logo_Vertical_P1795U_CS5_120209" transform="matrix(1.25,0,0,-1.25,-239.94581,733.31103)"><g id="g4035" transform="matrix(0.5,0,0,0.5,148.81895,251.36844)"><g id="g3003"><g clip-path="url(#clipPath3007)" id="g3005"><g transform="translate(105.9634,372.71)" id="g3011"><path id="path3013" style="fill:#e53125;fill-opacity:1;fill-rule:nonzero;stroke:none" d="m 0,0 c -4.719,0.374 -5.546,2.015 -5.546,4.862 0,2.618 1.422,4.122 5.015,4.122 l 70.581,0 0,11.148 -72.371,0 c -10.335,0 -17.367,-3.974 -17.367,-15.496 0,-11.6 5.311,-15.495 17.061,-16.465 l 57.259,-4.789 c 4.417,-0.375 5.613,-1.869 5.613,-5.009 0,-3 -1.35,-4.867 -5.242,-4.867 l -71.845,0 0,-11.303 73.121,0 c 12.575,0 18.111,5.021 18.111,16.913 0,10.849 -5.021,15.119 -17.286,16.167 L 0,0 z m 109.565,-15.488 c 0,-8.092 1.644,-11.006 10.627,-11.006 l 63.923,0 0,-11.303 -67.52,0 c -15.331,0 -22.459,6.892 -22.459,19.908 l 0,38.021 89.979,0 0,-11.31 -74.55,0 0,-11.37 71.551,0 0,-11.075 -71.551,0 0,-1.865 z m 206.054,35.62 0,-11.31 36.001,0 0,-46.619 15.341,0 0,46.619 36.076,0 0,11.31 -87.418,0 z m -85.405,0 c -15.341,0 -22.377,-8.158 -22.377,-21.183 l 0,-36.746 15.341,0 0,16.913 58.307,0 0,-16.913 15.344,0 0,57.929 -66.615,0 z m 51.271,-11.31 0,-18.328 -58.307,0 0,5.09 c 0,7.932 1.268,13.238 10.629,13.238 l 47.678,0 z" inkscape:connector-curvature="0"/></g><g transform="translate(420.9209,543.4502)" id="g3015"><path id="path3017" style="fill:#ffffff;fill-opacity:1;fill-rule:nonzero;stroke:none" d="m 0,0 -246.453,43.803 c 0,0 0.69,27.615 1.187,42.205 0.497,14.609 3.567,23.503 9.599,28.854 8.321,7.383 18.024,9.147 41.189,10.408 53.682,2.918 108.326,2.514 176.806,-2.276 7.121,-0.502 9.818,-1.84 11.223,-2.805 3.028,-2.076 3.416,-4.403 4.22,-16.558 C -1.577,93.829 0,60.968 0,60.968 c 0,0 -80.835,2.956 -120.619,2.956 -11.176,0 -20.194,-0.068 -27.563,-0.213 -4.915,-0.093 -7.212,-0.552 -9.107,-1.456 L 0,35.473 0,0 z" inkscape:connector-curvature="0"/></g><g transform="translate(174.3247,577.873)" id="g3019"><path id="path3021" style="fill:#ffffff;fill-opacity:1;fill-rule:nonzero;stroke:none" d="m 0,0 246.445,-43.802 c 0,0 -0.687,-27.609 -1.184,-42.205 -0.494,-14.607 -3.569,-23.498 -9.6,-28.853 -8.318,-7.383 -18.022,-9.146 -41.185,-10.407 -53.683,-2.918 -108.324,-2.515 -176.806,2.281 -7.126,0.498 -9.819,1.84 -11.225,2.798 -3.029,2.078 -3.413,4.411 -4.218,16.558 C 1.576,-93.826 0,-60.968 0,-60.968 c 0,0 80.833,-2.955 120.611,-2.955 11.177,0 20.197,0.067 27.564,0.212 4.919,0.093 7.219,0.552 9.107,1.459 L 0,-35.472 0,0 z" inkscape:connector-curvature="0"/></g><g transform="translate(418.3252,546.5459)" id="g3023"><path id="path3025" style="fill:#2b2b2a;fill-opacity:1;fill-rule:nonzero;stroke:none" d="m 0,0 0,30.189 -160.274,27.292 c 0,0 2.228,2.966 4.463,4.019 2.235,1.057 5.17,1.613 10.178,1.711 7.381,0.141 16.419,0.209 27.61,0.209 35.184,0 103.225,-2.337 117.89,-2.855 -0.399,8.172 -1.559,31.815 -2.09,39.802 -0.801,12.089 -1.201,13.286 -3.101,14.586 -0.66,0.459 -2.691,1.848 -9.936,2.353 -39.536,2.77 -75.149,4.116 -108.87,4.116 -22.756,0 -44.874,-0.603 -67.609,-1.839 -22.497,-1.224 -31.865,-2.88 -39.61,-9.757 -5.5,-4.88 -8.267,-13.456 -8.732,-27.004 -0.408,-12.003 -0.949,-33.085 -1.124,-39.952 L 0,0 z m -241.409,28.231 0,-30.184 160.272,-27.294 c 0,0 -2.225,-2.963 -4.46,-4.021 -2.237,-1.056 -5.174,-1.613 -10.175,-1.711 -7.387,-0.14 -16.423,-0.208 -27.618,-0.208 -35.181,0 -103.221,2.335 -117.883,2.855 0.395,-8.174 1.554,-31.815 2.086,-39.796 0.803,-12.095 1.202,-13.292 3.101,-14.591 0.667,-0.455 2.691,-1.848 9.934,-2.353 39.539,-2.771 75.15,-4.113 108.878,-4.113 22.748,0 44.869,0.6 67.604,1.837 22.5,1.222 31.868,2.883 39.61,9.761 5.497,4.876 8.27,13.45 8.728,26.996 0.409,12.005 0.953,33.091 1.128,39.954 L -241.409,28.231 z M -244,31.327 2.444,-12.475 c 0,0 -0.686,-27.609 -1.183,-42.205 -0.494,-14.607 -3.57,-23.498 -9.601,-28.853 -8.317,-7.383 -18.021,-9.146 -41.184,-10.406 -53.683,-2.918 -108.325,-2.516 -176.806,2.28 -7.127,0.498 -9.82,1.84 -11.226,2.799 -3.029,2.077 -3.412,4.41 -4.217,16.557 -0.651,9.804 -2.227,42.662 -2.227,42.662 0,0 80.833,-2.955 120.61,-2.955 11.177,0 20.198,0.067 27.565,0.212 4.919,0.093 7.219,0.552 9.106,1.459 L -244,-4.145 l 0,35.472 z M 2.596,-3.096 -243.857,40.708 c 0,0 0.69,27.615 1.187,42.205 0.497,14.608 3.566,23.502 9.598,28.853 8.322,7.383 18.025,9.148 41.19,10.408 53.682,2.918 108.325,2.514 176.806,-2.276 7.121,-0.502 9.817,-1.839 11.222,-2.804 3.029,-2.076 3.416,-4.404 4.221,-16.558 0.652,-9.803 2.229,-42.664 2.229,-42.664 0,0 -80.835,2.957 -120.619,2.957 -11.176,0 -20.195,-0.068 -27.563,-0.213 -4.915,-0.094 -7.212,-0.553 -9.107,-1.457 L 2.596,32.377 l 0,-35.473 z" inkscape:connector-curvature="0"/></g><g transform="translate(304.0762,501.0029)" id="g3027"><path id="path3029" style="fill:#ffffff;fill-opacity:1;fill-rule:nonzero;stroke:none" d="m 0,0 c -1.421,0 -8.607,0.014 -10.158,0.014 -32.712,0 -67.78,0.227 -110.639,2.593 l -6.227,10.604 1.643,-0.06 7.106,-8.207 C -81.268,2.909 -47.338,2.43 -10.158,2.43 -8.607,2.43 -1.587,2.417 0,2.417 c 5.265,0 11.383,0.021 16.822,0.199 18.768,0.612 24.456,2.562 37.339,15.589 l 4.65,0.42 -1.915,-1.974 C 43.027,2.357 37.336,0.867 16.899,0.203 11.43,0.021 5.285,0 0,0" inkscape:connector-curvature="0"/></g><g transform="translate(418.1211,531.9092)" id="g3031"><path id="path3033" style="fill:#ffffff;fill-opacity:1;fill-rule:nonzero;stroke:none" d="m 0,0 -241.205,42.868 0,-1.537 4.205,-2.15 0.042,-19.823 -4.247,-4.703 0,-1.971 6.561,5.412 -0.002,22.075 L -3.495,-0.911 0,0 z" inkscape:connector-curvature="0"/></g></g></g><g id="g3035"><g id="g3037"><g id="g3043"><g id="g3045"><path id="path3057" style="fill:url(#radialGradient4187);stroke:none" d="m 411.634,517.74 c -0.131,-3.939 -0.247,-7.342 -0.382,-10.518 l 0,0 c -0.183,-4.283 -0.37,-8.622 -0.607,-14.493 l 0,0 c -0.607,-15.013 -4.022,-19.773 -10.534,-23.735 l 0,0 c -6.203,-3.781 -13.487,-4.304 -35.593,-5.404 l 0,0 c -22.428,-1.109 -46.393,-1.758 -71.234,-1.928 l 0,0 c -1.895,-0.012 -3.796,-0.017 -5.653,-0.017 l 0,0 c -29.125,0 -55.674,1.614 -89.069,4.222 l 0,0 c -5.679,0.442 -9.287,0.909 -10.92,1.987 l 0,0 c -1.758,1.16 -2.23,1.47 -2.69,8.615 l 0,0 c -0.067,1.079 -0.137,2.06 -0.195,3 l 0,0 c -0.179,2.734 -0.408,5.151 -0.54,8.779 l 0,0 c -0.136,3.721 -0.399,7.339 -0.937,15.362 l 0,0 -2.2,3.747 c 0.466,-8.538 0.772,-15.851 0.9,-19.635 l 0,0 c 0.115,-3.437 0.189,-5.705 0.364,-8.407 l 0,0 0.027,-0.331 c 0.055,-0.841 0.109,-1.718 0.169,-2.672 l 0,0 c 0.464,-7.169 0.993,-8.64 3.772,-10.474 l 0,0 c 2.079,-1.372 5.841,-1.899 12.064,-2.384 l 0,0 c 33.457,-2.607 60.062,-4.226 89.255,-4.226 l 0,0 c 1.862,0 3.767,0.005 5.671,0.017 l 0,0 c 24.877,0.173 48.88,0.824 71.337,1.937 l 0,0 c 22.568,1.117 30.027,1.665 36.73,5.748 l 0,0 c 7.243,4.409 11.037,9.593 11.694,25.697 l 0,0 c 0.228,5.76 0.414,10.045 0.592,14.247 l 0,0 0.015,0.245 c 0.284,6.759 0.574,13.967 0.956,23.885 l 0,0 -2.507,0.448 c -0.154,-4.002 -0.329,-9.099 -0.485,-13.712" inkscape:connector-curvature="0"/></g></g></g></g><g id="g3059"><g id="g3061"><g id="g3067"><g id="g3069"><path id="path3081" style="fill:url(#linearGradient4189);stroke:none" d="m 299.587,615.845 c -2.538,0 -5.767,-0.022 -9.263,-0.061 l 0,0 c -10.68,-0.115 -18.973,-0.181 -23.855,-1.061 l 0,0 c -10.675,-1.92 -10.126,-7.451 -6.12,-8.202 l 0,0 c 0.666,0.599 1.413,1.172 2.166,1.525 l 0,0 c 2.234,1.057 5.169,1.613 10.178,1.711 l 0,0 c 7.38,0.141 16.418,0.209 27.609,0.209 l 0,0 c 34.293,0 99.795,-2.217 116.671,-2.812 l 0,0 c -1.255,1.901 -4.061,6.147 -4.71,7.136 l 0,0 -1.011,0.052 c -27.944,1.371 -56.372,1.512 -87.172,1.512 l 0,0 c -7.994,0 -16.146,-0.009 -24.493,-0.009 m 112.676,-1.555 0.001,0 -0.035,0.052 c 0.01,-0.016 0.022,-0.034 0.034,-0.052" inkscape:connector-curvature="0"/></g></g></g></g><g id="g3083"><g clip-path="url(#clipPath3087)" id="g3085"><g transform="translate(407.4336,650.6675)" id="g3091"><path id="path3093" style="fill:#ffffff;fill-opacity:1;fill-rule:nonzero;stroke:none" d="M 0,0 1.367,1.992 C 1.376,1.987 0.988,2.25 0.988,2.25 c -1.76,1.211 -5.451,1.972 -11.619,2.405 -31.507,2.205 -66.454,3.577 -91.2,3.577 -1.698,0 -3.356,-0.004 -4.963,-0.018 -5.198,-0.034 -10.141,-0.063 -14.852,-0.093 -23.774,-0.143 -42.412,-0.391 -56.112,-1.133 -1.167,-0.064 -2.303,-0.125 -3.407,-0.184 -19.538,-1.045 -29.346,-1.567 -37.017,-8.376 -5.179,-4.599 -7.289,-10.84 -7.782,-23.023 l -0.239,-5.841 c -0.372,-9.216 -0.556,-15.023 -0.946,-27.359 -0.666,-0.314 -2.498,-1.172 -3.114,-1.461 l -0.05,-1.996 5.573,2.294 0.072,2.795 c 0.335,10.754 0.539,17.245 0.884,25.631 l 0.233,5.844 c 0.462,11.432 2.353,17.209 6.973,21.306 7.044,6.253 16.567,6.763 35.547,7.774 1.103,0.059 2.237,0.118 3.4,0.182 13.657,0.744 32.262,0.99 56.002,1.135 4.706,0.025 9.655,0.055 14.85,0.093 1.607,0.009 3.256,0.013 4.948,0.013 24.689,0 59.569,-1.368 91.028,-3.572 5.565,-0.388 9.074,-1.054 10.424,-1.984 L 0.003,0 0,0 z" inkscape:connector-curvature="0"/></g></g></g><g id="g3095"><g id="g3097"><g id="g3103"><g id="g3105"><path id="path3113" style="fill:url(#linearGradient4191);stroke:none" d="m 186.976,656.372 c -5.499,-4.88 -8.267,-13.456 -8.731,-27.004 l 0,0 c -0.373,-11.001 -0.861,-29.631 -1.075,-37.952 l 0,0 c 0.457,0.207 2.323,1.083 3.114,1.456 l 0,0 c 0.391,12.336 0.575,18.143 0.947,27.359 l 0,0 0.238,5.841 c 0.493,12.184 2.603,18.424 7.783,23.023 l 0,0 c 1.133,1.004 2.318,1.87 3.567,2.626 l 0,0 c -1.123,2.255 -1.475,4.392 -0.663,6.013 l 0,0 c 0.656,1.305 3.373,3.553 9.242,5.668 l 0,0 c -6.201,-1.427 -10.522,-3.563 -14.422,-7.03" inkscape:connector-curvature="0"/></g></g></g></g><g id="g3115"><g id="g3117"><g id="g3123"><g id="g3125"><path id="path3133" style="fill:url(#linearGradient4193);stroke:none" d="m 226.586,666.129 c -11.161,-0.609 -19.086,-1.322 -25.188,-2.727 l 0,0 c -5.869,-2.115 -8.586,-4.363 -9.242,-5.668 l 0,0 c -0.812,-1.621 -0.46,-3.758 0.663,-6.013 l 0,0 c 7.216,4.345 16.8,4.858 33.449,5.751 l 0,0 c 1.105,0.059 2.241,0.119 3.407,0.183 l 0,0 c 13.701,0.743 32.338,0.99 56.112,1.133 l 0,0 c 4.712,0.03 9.654,0.06 14.853,0.094 l 0,0 c 1.607,0.013 3.264,0.017 4.962,0.017 l 0,0 c 24.747,0 59.694,-1.372 91.201,-3.577 l 0,0 c 6.167,-0.433 9.858,-1.194 11.619,-2.404 l 0,0 c 0,0 0.388,-0.263 0.379,-0.259 l 0,0 c 0.43,-0.318 0.788,-0.636 1.101,-0.981 l 0,0 c 1.557,2.408 3.924,2.482 6.073,-2.935 l 0,0 c -0.722,10.382 -1.178,11.524 -2.974,12.755 l 0,0 c -0.661,0.459 -2.69,1.849 -9.936,2.354 l 0,0 c -39.536,2.77 -75.149,4.116 -108.869,4.116 l 0,0 c -22.757,0 -44.874,-0.604 -67.61,-1.839" inkscape:connector-curvature="0"/></g></g></g></g><g id="g3135"><g id="g3137"><g id="g3143"><g id="g3145"><path id="path3157" style="fill:url(#linearGradient4195);stroke:none" d="m 407.434,650.668 c 1.524,-1.139 1.746,-2.142 2.353,-8.556 l 0,0 c 0.547,-5.832 1.426,-20.53 1.494,-26.336 l 0,0 5.692,-8.622 1.219,-0.043 -0.077,1.554 -4.753,8.041 c -0.088,6.53 -0.645,20.038 -1.173,25.631 l 0,0 c -0.508,5.361 -0.733,7.624 -2.287,9.341 l 0,0 c -0.313,0.345 -0.671,0.663 -1.101,0.981 l 0,0 -1.367,-1.991 z" inkscape:connector-curvature="0"/></g></g></g></g><g id="g3159"><g clip-path="url(#clipPath3163)" id="g3161"><g transform="translate(415.9756,648.7437)" id="g3167"><path id="path3169" style="fill:#2b2b2a;fill-opacity:1;fill-rule:nonzero;stroke:none" d="m 0,0 c -2.149,5.416 -4.517,5.342 -6.073,2.935 1.553,-1.717 1.778,-3.98 2.287,-9.341 0.527,-5.594 1.084,-19.102 1.173,-25.631 L 2.14,-40.079 C 1.687,-30.801 0.63,-9.358 0.127,-1.831" inkscape:connector-curvature="0"/></g><g id="g3171"><g id="g3173"/><g id="g3195"><g id="g3197" clip-path="url(#clipPath3175)"><g id="g3199"><g id="g3201"><g id="g3203"><g id="g3205"><path id="path3207" style="fill:url(#radialGradient4197);stroke:none" d="m 411.281,615.776 c -32.864,1.594 -68.344,2.486 -111.693,2.486 -8.675,0 -25.537,-0.277 -33.242,-0.425 -13.091,-0.252 -15.368,-8.394 -15.449,-11.414 l 161.63,-37.525 0,-20.027 5.798,-2.325 -241.205,42.87 5.573,2.293 0.073,2.795 c 0,0 0.538,17.245 0.883,25.631 l 0.234,5.844 c 0.462,11.432 2.353,17.209 6.972,21.307 7.044,6.252 16.568,6.763 35.547,7.774 1.104,0.059 2.238,0.118 3.401,0.182 13.657,0.744 32.261,0.989 56.002,1.134 4.706,0.026 9.655,0.055 14.849,0.094 1.608,0.009 3.256,0.013 4.949,0.013 24.689,0 59.569,-1.369 91.028,-3.572 5.564,-0.388 9.074,-1.054 10.424,-1.985 l 0.382,-0.259 c 0.017,-0.013 0.026,-0.025 0.044,-0.034 0.033,-0.025 0.062,-0.05 0.092,-0.077 0.009,-0.004 0.018,-0.007 0.021,-0.012 0.038,-0.031 0.077,-0.059 0.115,-0.09 0,-0.004 0.009,-0.007 0.009,-0.012 0.042,-0.034 0.077,-0.063 0.115,-0.097 0.003,-0.005 0.003,-0.005 0.009,-0.009 0.039,-0.034 0.071,-0.068 0.107,-0.102 0.003,0 0.009,-0.005 0.009,-0.005 0.032,-0.038 0.064,-0.071 0.104,-0.105 0.905,-0.965 1.171,-2.379 1.615,-6.885 0.033,-0.357 0.071,-0.732 0.11,-1.127 0.547,-5.832 1.426,-20.529 1.494,-26.336" inkscape:connector-curvature="0"/></g></g></g></g></g></g></g><g id="g3209"><g id="g3211"/><g id="g3233"><g id="g3235" clip-path="url(#clipPath3213)"><g id="g3237"><g id="g3239"><g id="g3241"><g id="g3243"><path id="path3245" style="fill:url(#radialGradient4199);stroke:none" d="m 411.281,615.776 c -32.864,1.594 -68.344,2.486 -111.693,2.486 -8.675,0 -25.537,-0.277 -33.242,-0.425 -13.091,-0.252 -15.368,-8.394 -15.449,-11.414 l 161.63,-37.525 0,-20.027 5.798,-2.325 -241.205,42.87 5.573,2.293 0.073,2.795 c 0,0 0.538,17.245 0.883,25.631 l 0.234,5.844 c 0.462,11.432 2.353,17.209 6.972,21.307 7.044,6.252 16.568,6.763 35.547,7.774 1.104,0.059 2.238,0.118 3.401,0.182 13.657,0.744 32.261,0.989 56.002,1.134 4.706,0.026 9.655,0.055 14.849,0.094 1.608,0.009 3.256,0.013 4.949,0.013 24.689,0 59.569,-1.369 91.028,-3.572 5.564,-0.388 9.074,-1.054 10.424,-1.985 l 0.382,-0.259 c 0.017,-0.013 0.026,-0.025 0.044,-0.034 0.033,-0.025 0.062,-0.05 0.092,-0.077 0.009,-0.004 0.018,-0.007 0.021,-0.012 0.038,-0.031 0.077,-0.059 0.115,-0.09 0,-0.004 0.009,-0.007 0.009,-0.012 0.042,-0.034 0.077,-0.063 0.115,-0.097 0.003,-0.005 0.003,-0.005 0.009,-0.009 0.039,-0.034 0.071,-0.068 0.107,-0.102 0.003,0 0.009,-0.005 0.009,-0.005 0.032,-0.038 0.064,-0.071 0.104,-0.105 0.905,-0.965 1.171,-2.379 1.615,-6.885 0.033,-0.357 0.071,-0.732 0.11,-1.127 0.547,-5.832 1.426,-20.529 1.494,-26.336" inkscape:connector-curvature="0"/></g></g></g></g></g></g></g><g transform="translate(176.916,573.2402)" id="g3247"><path id="path3249" style="fill:#b3b3b4;fill-opacity:1;fill-rule:nonzero;stroke:none" d="M 0,0 4.206,-2.15 4.247,-21.973 0,-26.676 0,0 z" inkscape:connector-curvature="0"/></g></g></g><g id="g3251"><g clip-path="url(#clipPath3255)" id="g3253"><g id="g3259"><g id="g3261"/><g mask="url(#mask3273)" id="g3285"><g id="g3287"><path id="path3295" style="fill:url(#linearGradient4201);stroke:none" d="m 182.239,459.827 c 0.667,-0.455 2.692,-1.849 9.934,-2.353 l 0,0 c 39.539,-2.771 75.15,-4.113 108.878,-4.113 l 0,0 c 22.747,0 44.868,0.6 67.604,1.837 l 0,0 c 11.123,0.602 19.032,1.315 25.123,2.709 l 0,0 c 1.71,1.112 2.589,2.208 2.903,2.837 l 0,0 c 0.613,1.229 0.062,2.357 -0.949,3.644 l 0,0 c -5.967,-1.864 -14.391,-2.383 -31.093,-3.206 l 0,0 c -22.457,-1.113 -46.46,-1.764 -71.337,-1.937 l 0,0 c -1.904,-0.012 -3.809,-0.017 -5.671,-0.017 l 0,0 c -29.193,0 -55.798,1.619 -89.255,4.226 l 0,0 c -6.223,0.485 -9.985,1.012 -12.064,2.384 l 0,0 c -0.682,0.45 -1.232,0.878 -1.674,1.376 l 0,0 c -0.228,-0.234 -0.527,-0.515 -0.912,-0.863 l 0,0 c -2.146,-1.923 -3.285,-1.546 -4.087,1.461 l 0,0 c 0.556,-6.027 1.125,-6.974 2.6,-7.985" inkscape:connector-curvature="0"/></g></g></g></g></g><g id="g3297"><g clip-path="url(#clipPath3301)" id="g3299"><g transform="translate(182.3706,478.9834)" id="g3305"><path id="path3307" style="fill:#9e9e9e;fill-opacity:1;fill-rule:nonzero;stroke:none" d="m 0,0 -0.027,0.331 c -0.174,2.702 -0.248,4.97 -0.364,8.407 -0.127,3.784 -0.433,11.097 -0.9,19.636 l -4.027,6.856 c 0.395,-8.173 1.553,-31.815 2.086,-39.795 l 0.5,-6.607 c 0.802,-3.007 1.942,-3.384 4.087,-1.46 0.385,0.348 0.684,0.629 0.912,0.862 -1.361,1.525 -1.749,3.692 -2.098,9.099 C 0.109,-1.717 0.056,-0.841 0,0" inkscape:connector-curvature="0"/></g></g></g><g id="g3309"><g id="g3311"><g id="g3317"><g id="g3319"><path id="path3327" style="fill:url(#linearGradient4203);stroke:none" d="m 414.626,531.004 c -0.382,-9.918 -0.672,-17.126 -0.956,-23.885 l 0,0 -0.015,-0.245 c -0.178,-4.202 -0.364,-8.487 -0.592,-14.247 l 0,0 c -0.657,-16.104 -4.451,-21.288 -11.694,-25.697 l 0,0 c -1.743,-1.063 -3.539,-1.887 -5.637,-2.542 l 0,0 c 1.011,-1.287 1.562,-2.415 0.949,-3.644 l 0,0 c -0.314,-0.629 -1.193,-1.725 -2.903,-2.837 l 0,0 c 6.236,1.427 10.571,3.566 14.487,7.052 l 0,0 c 5.497,4.876 8.27,13.45 8.728,26.996 l 0,0 c 0.409,12.005 0.954,33.091 1.128,39.954 l 0,0 -3.495,-0.905 z" inkscape:connector-curvature="0"/></g></g></g></g><g id="g3329"><g id="g3331"><g id="g3337"><g id="g3339"><path id="path3349" style="fill:url(#radialGradient4205);stroke:none" d="m 183.478,550.005 179.408,-30.377 -1.913,-1.974 C 347.104,503.36 341.412,501.87 320.976,501.206 l 0,0 c -5.47,-0.182 -11.615,-0.203 -16.9,-0.203 l 0,0 c -1.42,0 -8.607,0.014 -10.158,0.014 l 0,0 c -32.712,0 -67.779,0.227 -110.638,2.593 l 0,0 c 0.538,-8.023 0.801,-11.641 0.937,-15.362 l 0,0 c 0.132,-3.628 0.361,-6.045 0.54,-8.779 l 0,0 c 0.058,-0.94 0.128,-1.921 0.195,-3 l 0,0 c 0.46,-7.145 0.932,-7.455 2.69,-8.615 l 0,0 c 1.633,-1.078 5.241,-1.545 10.92,-1.987 l 0,0 c 33.395,-2.608 59.944,-4.222 89.069,-4.222 l 0,0 c 1.857,0 3.758,0.005 5.653,0.017 l 0,0 c 24.841,0.17 48.806,0.819 71.234,1.928 l 0,0 c 22.106,1.1 29.39,1.623 35.593,5.404 l 0,0 c 6.512,3.962 9.927,8.722 10.534,23.735 l 0,0 c 0.237,5.871 0.424,10.21 0.607,14.493 l 0,0 c 0.135,3.176 0.251,6.579 0.382,10.518 l 0,0 c 0.156,4.613 0.331,9.71 0.485,13.712 l 0,0 0.009,0 -228.653,40.629 0.003,-22.076 z" inkscape:connector-curvature="0"/></g></g></g></g><g id="g3351"><g id="g3353"><g id="g3359"><g id="g3361"><path id="path3369" style="fill:url(#linearGradient4207);stroke:none" d="m 337.189,517.298 c 0,0 -2.226,-2.962 -4.461,-4.02 l 0,0 c -1.483,-0.695 -3.273,-1.18 -5.768,-1.452 l 0,0 c 4.471,-1.011 5.94,-1.546 7.698,-2.251 l 0,0 c 1.483,-0.586 2.493,-1.593 2.448,-2.295 l 0,0 c -0.066,-0.839 -1.208,-2.016 -5.348,-2.938 l 0,0 c 10.808,1.316 16.476,4.753 26.479,14.866 l 0,0 -21.048,-1.91 z" inkscape:connector-curvature="0"/></g></g></g></g><g id="g3371"><g id="g3373"><g id="g3379"><g id="g3381"><path id="path3389" style="fill:url(#linearGradient4209);stroke:none" d="m 185.8,505.948 c 37.009,-2.036 70.938,-2.515 108.118,-2.515 l 0,0 c 1.551,0 8.571,-0.014 10.158,-0.014 l 0,0 c 5.265,0 11.383,0.022 16.823,0.2 l 0,0 c 4.196,0.137 7.739,0.341 10.859,0.723 l 0,0 c 4.14,0.922 5.282,2.099 5.348,2.938 l 0,0 c 0.045,0.702 -0.965,1.709 -2.448,2.295 l 0,0 c -1.758,0.705 -3.227,1.24 -7.698,2.251 l 0,0 c 0,0 -2.722,-0.226 -4.407,-0.26 l 0,0 c -7.387,-0.139 -16.423,-0.207 -27.618,-0.207 l 0,0 c -34.004,0 -98.713,2.183 -116.24,2.796 l 0,0 7.105,-8.207 z" inkscape:connector-curvature="0"/></g></g></g></g><g id="g3391"><g id="g3393"><g id="g3399"><g id="g3401"><path id="path3409" style="fill:url(#linearGradient4211);stroke:none" d="m 357.309,580.664 c -1.451,0.238 49.737,-8.197 54.664,-9.029 l 0,0 3.966,5.504 -144.182,24.553 c 14.906,-4.878 54.966,-14.137 85.552,-21.028" inkscape:connector-curvature="0"/></g></g></g></g><g id="g3411"><g id="g3413"><g id="g3419"><g id="g3421"><path id="path3431" style="fill:url(#linearGradient4213);stroke:none" d="m 176.916,544.593 160.273,-27.295 c -2.28,2.643 -10.261,5.747 -16.285,6.919 l 0,0 c -3.96,0.772 -6.993,1.435 -10.211,1.928 l 0,0 c -1.405,0.214 -78.132,13.288 -129.257,22.179 l 0,0 -4.52,-3.731 z" inkscape:connector-curvature="0"/></g></g></g></g><g id="g3433"><g id="g3435"><g id="g3441"><g id="g3443"><path id="path3451" style="fill:url(#linearGradient4215);stroke:none" d="m 181.436,548.324 c 51.119,-8.896 127.846,-21.965 129.257,-22.179 l 0,0 c 3.218,-0.493 6.251,-1.156 10.211,-1.928 l 0,0 c 7.37,-1.436 14.837,-4.935 16.285,-6.919 l 0,0 25.697,2.33 -179.408,30.377 -2.042,-1.681 z" inkscape:connector-curvature="0"/></g></g></g></g><g id="g3453"><g clip-path="url(#clipPath3457)" id="g3455"><g transform="translate(411.2813,615.7759)" id="g3461"><path id="path3463" style="fill:#2b2b2a;fill-opacity:1;fill-rule:nonzero;stroke:none" d="m 0,0 c -32.864,1.594 -68.345,2.486 -111.693,2.486 -8.675,0 -25.537,-0.277 -33.243,-0.424 -16.338,-0.316 -25.697,-8.081 -33.195,-16.47 l -1.329,-1.379 26.731,4.654 c 0,0 0.48,0.688 1.797,1.878 -4.006,0.752 -4.555,6.282 6.12,8.203 4.881,0.879 13.175,0.946 23.855,1.061 3.496,0.038 6.725,0.06 9.264,0.06 40.506,0 76.466,0.224 111.664,-1.503 L 0.982,-1.486 0,0 z" inkscape:connector-curvature="0"/></g></g></g><g id="g3465"><g id="g3467"><g id="g3473"><g id="g3475"><path id="path3483" style="fill:url(#linearGradient4217);stroke:none" d="m 236.068,600.727 c 11.012,-1.873 73.663,-12.23 121.241,-20.063 l 0,0 c -30.586,6.891 -70.646,16.15 -85.552,21.028 l 0,0 -13.204,2.95 -22.485,-3.915 z" inkscape:connector-curvature="0"/></g></g></g></g><g id="g3485"><g clip-path="url(#clipPath3489)" id="g3487"><g id="g3493"><g id="g3495"/><g id="g3513"><g id="g3515" clip-path="url(#clipPath3497)"><g id="g3517"><g id="g3519"><g id="g3521"><g id="g3523"><path id="path3525" style="fill:url(#radialGradient4219);stroke:none" d="m 411.252,507.222 c -0.184,-4.284 -0.37,-8.622 -0.607,-14.493 -0.607,-15.012 -4.022,-19.773 -10.534,-23.736 -6.203,-3.78 -13.487,-4.304 -35.593,-5.403 -22.428,-1.109 -46.393,-1.758 -71.234,-1.928 -1.894,-0.012 -3.797,-0.016 -5.653,-0.016 -29.125,0 -55.674,1.613 -89.069,4.221 -5.679,0.442 -9.287,0.909 -10.92,1.987 -1.758,1.161 -2.23,1.47 -2.69,8.615 -0.067,1.079 -0.137,2.06 -0.194,3 -0.179,2.734 -0.409,5.151 -0.541,8.779 -0.135,3.721 -0.399,7.339 -0.938,15.362 42.86,-2.366 77.927,-2.593 110.639,-2.593 1.551,0 8.737,-0.014 10.158,-0.014 5.285,0 11.43,0.02 16.9,0.203 20.436,0.664 26.128,2.154 39.997,16.448 l 1.914,1.974 -179.409,30.377 -0.003,22.075 228.653,-40.628 -0.009,0 c -0.154,-4.002 -0.329,-9.099 -0.485,-13.712 -0.131,-3.939 -0.246,-7.342 -0.382,-10.518" inkscape:connector-curvature="0"/></g></g></g></g></g></g></g><g transform="translate(231.8213,599.9888)" id="g3527"><path id="path3529" style="fill:#ffffff;fill-opacity:1;fill-rule:nonzero;stroke:none" d="M 0,0 4.247,0.738 C 21.62,-2.218 167.373,-26.188 180.152,-28.354 l 3.966,5.505 2.386,-0.404 -5.798,-7.837 L 0,0 z" inkscape:connector-curvature="0"/></g><g id="g3531"><g id="g3533"/><g id="g3551"><g id="g3553" clip-path="url(#clipPath3535)" style="opacity:0.10000598"><g id="g3555"><g id="g3557"><g id="g3559"><g id="g3561"><path id="path3563" style="fill:url(#radialGradient4221);stroke:none" d="m 400.111,468.993 c 6.512,3.963 9.927,8.724 10.534,23.736 0.237,5.871 0.423,10.209 0.607,14.493 0.136,3.176 0.251,6.579 0.382,10.518 0.156,4.613 0.331,9.71 0.485,13.712 l 0.009,0 -64.927,11.535 c -11.3,-3.856 -21.395,-9.195 -29.789,-15.659 l 45.475,-7.7 -1.914,-1.974 c -13.869,-14.294 -19.561,-15.784 -39.997,-16.448 -5.47,-0.183 -11.615,-0.203 -16.9,-0.203 -1.068,0 -5.388,0.005 -8.128,0.009 -2.891,-6.559 -4.452,-13.529 -4.452,-20.759 0,-6.435 1.237,-12.661 3.543,-18.575 24.217,0.188 47.583,0.833 69.479,1.912 22.106,1.099 29.39,1.623 35.593,5.403" inkscape:connector-curvature="0"/></g></g></g></g></g></g></g><g transform="translate(412.5273,548.8711)" id="g3565"><path id="path3567" style="fill:#9e9e9e;fill-opacity:1;fill-rule:nonzero;stroke:none" d="m 0,0 2.309,0.675 0,22.479 L 0,20.027 0,0 z" inkscape:connector-curvature="0"/></g><g transform="translate(412.5273,548.8711)" id="g3569"><path id="path3571" style="fill:#898989;fill-opacity:1;fill-rule:nonzero;stroke:none" d="m 0,0 2.309,0.675 3.489,-1.706 0,-1.294 L 0,0 z" inkscape:connector-curvature="0"/></g><g transform="translate(418.3252,576.7354)" id="g3573"><path id="path3575" style="fill:#444443;fill-opacity:1;fill-rule:nonzero;stroke:none" d="m 0,0 -3.489,-4.71 0,-22.479 L 0,-28.896 0,0 z" inkscape:connector-curvature="0"/></g></g></g></g></g></svg>