<?xml version="1.0" encoding="UTF-8" standalone="no"?>
<!-- Generator: Adobe Illustrator 14.0.0, SVG Export Plug-In . SVG Version: 6.00 Build 43363)  -->

<svg
   xmlns:dc="http://purl.org/dc/elements/1.1/"
   xmlns:cc="http://creativecommons.org/ns#"
   xmlns:rdf="http://www.w3.org/1999/02/22-rdf-syntax-ns#"
   xmlns:svg="http://www.w3.org/2000/svg"
   xmlns="http://www.w3.org/2000/svg"
   xmlns:sodipodi="http://sodipodi.sourceforge.net/DTD/sodipodi-0.dtd"
   xmlns:inkscape="http://www.inkscape.org/namespaces/inkscape"
   version="1.1"
   sodipodi:version="0.32"
   inkscape:version="0.47 r22583"
   sodipodi:docname="YamahaMotorCoRed.svg"
   inkscape:output_extension="org.inkscape.output.svg.inkscape"
   x="0px"
   y="0px"
   width="301.25px"
   height="67px"
   viewBox="341.829 73.3 301.25 67"
   enable-background="new 341.829 73.3 301.25 67"
   xml:space="preserve"
   id="svg2"><metadata
   id="metadata46"><rdf:RDF><cc:Work
       rdf:about=""><dc:format>image/svg+xml</dc:format><dc:type
         rdf:resource="http://purl.org/dc/dcmitype/StillImage" /><dc:title></dc:title></cc:Work></rdf:RDF></metadata><defs
   id="defs44"><inkscape:perspective
     sodipodi:type="inkscape:persp3d"
     inkscape:vp_x="0 : 33.5 : 1"
     inkscape:vp_y="0 : 1000 : 0"
     inkscape:vp_z="301.25 : 33.5 : 1"
     inkscape:persp3d-origin="150.625 : 22.333333 : 1"
     id="perspective48" /></defs><sodipodi:namedview
   pagecolor="#ffffff"
   bordercolor="#666666"
   borderopacity="1"
   objecttolerance="10"
   gridtolerance="10"
   guidetolerance="10"
   inkscape:pageopacity="0"
   inkscape:pageshadow="2"
   inkscape:window-width="1280"
   inkscape:window-height="738"
   id="namedview42"
   showgrid="false"
   inkscape:zoom="2.5350218"
   inkscape:cx="131.8153"
   inkscape:cy="-10.319112"
   inkscape:window-x="-8"
   inkscape:window-y="-8"
   inkscape:window-maximized="1"
   inkscape:current-layer="svg2" />
<radialGradient
   id="SVGID_1_"
   cx="396.03809"
   cy="168.4126"
   r="32.303902"
   gradientTransform="matrix(1.3475,0,0,-1.3475,-169.6691,318.5104)"
   gradientUnits="userSpaceOnUse">
	<stop
   offset="0"
   style="stop-color:#fd9196;stop-opacity:1;"
   id="stop5" />
	<stop
   offset="1"
   style="stop-color:#f30713;stop-opacity:1;"
   id="stop7" />
</radialGradient>
<path
   fill="url(#SVGID_1_)"
   d="M375.371,74.497c-17.832,0-32.303,14.471-32.303,32.303s14.472,32.304,32.303,32.304  c17.833,0,32.303-14.472,32.303-32.304S393.204,74.497,375.371,74.497z"
   id="path9"
   style="fill-opacity:1.0" />
<path
   opacity="0.66"
   enable-background="new    "
   d="M375.481,76.588c-17.073,0-30.927,13.854-30.927,30.927  s13.854,30.937,30.927,30.937c17.073,0,30.937-13.863,30.937-30.937S392.554,76.588,375.481,76.588z M375.49,77.307  c0.18,0,0.365,0.056,0.51,0.16c0.16,0.113,0.276,0.272,0.341,0.453v0.01l0.009,0.009l1.031,3.743  c13.412,0.973,24.008,12.174,24.008,25.833c0,4.032-0.925,7.854-2.571,11.258l2.656,2.675l0.009,0.01l0.01,0.009  c0.132,0.153,0.201,0.331,0.217,0.511c0.017,0.182-0.018,0.374-0.114,0.538c-0.091,0.158-0.229,0.288-0.406,0.369  c-0.175,0.08-0.366,0.1-0.549,0.065h-0.019h-0.009l-3.648-0.954c-4.659,6.893-12.549,11.428-21.484,11.428  s-16.819-4.535-21.475-11.428l-3.638,0.965h-0.01h-0.019c-0.204,0.037-0.391-0.004-0.548-0.076c-0.175-0.08-0.314-0.21-0.406-0.369  c-0.089-0.154-0.132-0.347-0.113-0.528c0.017-0.181,0.085-0.357,0.217-0.512l0.009-0.009l0.01-0.009l2.646-2.675  c-1.648-3.408-2.57-7.231-2.57-11.268c0-13.664,10.597-24.869,24.017-25.833l1.012-3.733l0.009-0.019v-0.01  c0.064-0.181,0.181-0.34,0.341-0.453C375.126,77.351,375.31,77.307,375.49,77.307z M375.49,77.684c-0.109,0-0.222,0.031-0.312,0.095  c-0.089,0.063-0.162,0.161-0.198,0.265l-2.25,8.318c-0.057,0.161-0.081,0.357-0.029,0.52c0.054,0.162,0.153,0.291,0.294,0.388  c0.404,0.278,0.556,0.803,0.746,1.313c0.19,0.51,0.221,0.948,0.085,1.475c-0.136,0.527-0.438,1.007-0.851,1.361  c-0.742,0.636-1.409,1.403-1.824,2.306c-0.415,0.903-0.557,1.869-0.557,2.845v2.4l-11.626-6.71l-1.286,2.211l12.912,7.448v2.703  l-2.325,1.343l-12.912-7.458l-1.286,2.231l11.626,6.711l-2.08,1.201c-0.845,0.487-1.6,1.098-2.174,1.909  c-0.574,0.811-0.917,1.772-1.096,2.731c-0.101,0.535-0.358,1.037-0.747,1.418c-0.388,0.381-0.787,0.562-1.324,0.651  c-0.536,0.089-1.059,0.239-1.502,0.029c-0.154-0.072-0.324-0.093-0.491-0.057c-0.167,0.034-0.333,0.126-0.445,0.255l-6.058,6.135  c-0.072,0.082-0.123,0.193-0.132,0.302c-0.011,0.11,0.011,0.207,0.066,0.303c0.055,0.095,0.136,0.181,0.236,0.227  c0.1,0.045,0.213,0.059,0.321,0.038l8.337-2.212c0.167-0.03,0.339-0.109,0.453-0.236s0.185-0.284,0.199-0.454  c0.039-0.49,0.419-0.875,0.766-1.295c0.347-0.418,0.714-0.667,1.238-0.813c0.524-0.145,1.084-0.113,1.598,0.067  c0.921,0.324,1.922,0.508,2.911,0.416c0.99-0.092,1.896-0.448,2.741-0.936l2.08-1.202v13.423h2.562v-14.896l2.334-1.352l2.326,1.342  v14.906h2.57v-13.423l2.08,1.202c0.846,0.487,1.752,0.844,2.741,0.936c0.99,0.091,1.99-0.103,2.911-0.427  c0.514-0.18,1.083-0.201,1.607-0.057c0.523,0.146,0.873,0.396,1.219,0.813c0.345,0.42,0.736,0.797,0.774,1.285  c0.015,0.17,0.085,0.326,0.199,0.454c0.114,0.128,0.276,0.233,0.444,0.265l8.346,2.184c0.107,0.021,0.222,0.008,0.321-0.037  c0.101-0.046,0.181-0.123,0.236-0.218c0.055-0.096,0.077-0.203,0.066-0.312c-0.011-0.11-0.052-0.22-0.124-0.304l-6.078-6.115  c-0.11-0.128-0.268-0.238-0.435-0.273s-0.337-0.018-0.491,0.057c-0.444,0.21-0.966,0.07-1.502-0.02  c-0.537-0.09-0.936-0.279-1.324-0.66c-0.389-0.383-0.646-0.885-0.747-1.418c-0.179-0.962-0.512-1.922-1.086-2.732  c-0.575-0.812-1.347-1.412-2.193-1.899l-2.07-1.201l11.626-6.711l-1.285-2.221l-12.911,7.458l-2.326-1.342v-2.704l12.912-7.448  l-1.286-2.221l-11.626,6.71v-2.4c0-0.977-0.151-1.942-0.566-2.845c-0.416-0.903-1.083-1.67-1.825-2.306  c-0.413-0.354-0.714-0.834-0.85-1.361c-0.136-0.526-0.096-0.965,0.094-1.475c0.191-0.509,0.323-1.036,0.728-1.313  c0.14-0.098,0.25-0.226,0.302-0.388c0.053-0.162,0.057-0.359,0-0.52l-2.287-8.318c-0.036-0.104-0.1-0.201-0.189-0.265  C375.704,77.715,375.601,77.684,375.49,77.684z M375.49,93.762c0.61,0,1.213,0.25,1.645,0.681c0.432,0.432,0.681,1.035,0.681,1.645  v4.367l-2.326,1.342l-2.334-1.352v-4.357c0-0.61,0.249-1.212,0.68-1.645C374.268,94.011,374.88,93.762,375.49,93.762z   M375.5,104.755l2.316,1.342v2.703l-2.316,1.343l-2.344-1.353v-2.684L375.5,104.755z M368.27,108.933l2.325,1.342v2.703  l-3.771,2.174c-0.528,0.305-1.177,0.385-1.768,0.228c-0.59-0.159-1.112-0.56-1.417-1.087c-0.305-0.528-0.385-1.178-0.227-1.768  c0.158-0.591,0.549-1.104,1.078-1.408L368.27,108.933z M382.721,108.933l3.771,2.174c0.528,0.305,0.928,0.818,1.087,1.408  s0.069,1.249-0.236,1.777c-0.305,0.527-0.829,0.919-1.418,1.077c-0.59,0.157-1.23,0.077-1.758-0.227l-3.781-2.183v-2.686  L382.721,108.933z"
   id="path11" />
<radialGradient
   id="SVGID_2_"
   cx="409.8008"
   cy="334.4487"
   r="46.4129"
   gradientTransform="matrix(1.1559 1.1559 1.0476 -1.0476 -480.6613 -48.5159)"
   gradientUnits="userSpaceOnUse">
	<stop
   offset="0.0476"
   style="stop-color:#E4EBEE"
   id="stop14" />
	<stop
   offset="0.2722"
   style="stop-color:#F5F8F9"
   id="stop16" />
	<stop
   offset="0.4667"
   style="stop-color:#FFFFFF"
   id="stop18" />
	<stop
   offset="0.7524"
   style="stop-color:#BFC1C3"
   id="stop20" />
	<stop
   offset="0.8667"
   style="stop-color:#DCE0E6"
   id="stop22" />
	<stop
   offset="0.9048"
   style="stop-color:#E2E6ED"
   id="stop24" />
	<stop
   offset="1"
   style="stop-color:#BCBEC0"
   id="stop26" />
</radialGradient>
<path
   fill="url(#SVGID_2_)"
   d="M375.368,75.87c-17.073,0-30.927,13.853-30.927,30.927s13.854,30.937,30.927,30.937  c17.074,0,30.936-13.863,30.936-30.937S392.441,75.87,375.368,75.87z M375.377,76.588c0.179,0,0.365,0.057,0.51,0.161  c0.16,0.114,0.276,0.272,0.34,0.454v0.009l0.009,0.01l1.031,3.743c13.412,0.973,24.008,12.174,24.008,25.832  c0,4.031-0.924,7.852-2.57,11.257l2.656,2.676l0.009,0.009l0.01,0.01c0.131,0.153,0.2,0.33,0.217,0.51  c0.018,0.183-0.018,0.374-0.113,0.538c-0.091,0.158-0.229,0.289-0.406,0.369c-0.175,0.081-0.366,0.101-0.548,0.066h-0.019h-0.01  l-3.648-0.954c-4.659,6.892-12.549,11.427-21.484,11.427c-8.936,0-16.819-4.535-21.476-11.427l-3.638,0.964h-0.01h-0.019  c-0.204,0.037-0.391-0.004-0.548-0.076c-0.174-0.08-0.315-0.209-0.406-0.369c-0.089-0.153-0.132-0.346-0.113-0.528  c0.016-0.18,0.085-0.357,0.217-0.511l0.01-0.009l0.01-0.01l2.646-2.675c-1.649-3.407-2.571-7.231-2.571-11.267  c0-13.665,10.598-24.869,24.018-25.832l1.011-3.734l0.009-0.02v-0.009c0.064-0.182,0.181-0.34,0.34-0.454  C375.012,76.632,375.197,76.588,375.377,76.588z M375.377,76.966c-0.11,0-0.223,0.031-0.312,0.094  c-0.09,0.064-0.163,0.161-0.198,0.265l-2.25,8.318c-0.056,0.161-0.081,0.349-0.028,0.511c0.054,0.162,0.153,0.3,0.293,0.396  c0.404,0.279,0.556,0.804,0.747,1.314c0.19,0.509,0.221,0.948,0.085,1.475c-0.135,0.527-0.447,1.006-0.86,1.36  c-0.742,0.636-1.4,1.404-1.815,2.306c-0.416,0.903-0.557,1.869-0.557,2.846v2.401l-11.626-6.711l-1.286,2.211l12.912,7.448v2.703  l-2.326,1.342l-12.912-7.458l-1.286,2.221l11.626,6.72l-2.079,1.201c-0.846,0.488-1.609,1.098-2.184,1.909  c-0.575,0.811-0.908,1.771-1.087,2.732c-0.1,0.534-0.358,1.036-0.747,1.418c-0.388,0.38-0.786,0.561-1.323,0.651  c-0.536,0.089-1.06,0.239-1.503,0.028c-0.154-0.073-0.325-0.093-0.492-0.056c-0.167,0.033-0.333,0.124-0.444,0.254l-6.068,6.134  c-0.072,0.084-0.113,0.194-0.124,0.304c-0.011,0.108,0.012,0.207,0.066,0.302c0.055,0.095,0.137,0.172,0.236,0.219  c0.101,0.045,0.214,0.065,0.322,0.046l8.336-2.212c0.168-0.031,0.34-0.108,0.454-0.236c0.113-0.128,0.185-0.284,0.199-0.453  c0.039-0.49,0.419-0.876,0.765-1.295c0.347-0.421,0.714-0.668,1.238-0.813c0.525-0.146,1.084-0.113,1.597,0.067  c0.922,0.323,1.922,0.508,2.912,0.414c0.989-0.091,1.896-0.446,2.741-0.934l2.08-1.202v13.422h2.561v-14.896l2.335-1.351  l2.325,1.342v14.905h2.571v-13.422l2.07,1.202c0.846,0.487,1.761,0.843,2.75,0.934c0.99,0.093,1.99-0.101,2.912-0.425  c0.513-0.18,1.082-0.212,1.606-0.065c0.523,0.146,0.873,0.401,1.22,0.822c0.345,0.419,0.736,0.796,0.774,1.285  c0.014,0.17,0.085,0.326,0.199,0.454c0.113,0.128,0.277,0.232,0.444,0.264l8.346,2.185c0.108,0.02,0.222,0.008,0.322-0.037  c0.101-0.047,0.182-0.124,0.236-0.219c0.054-0.095,0.076-0.202,0.066-0.312c-0.011-0.11-0.052-0.22-0.123-0.303l-6.078-6.115  c-0.111-0.13-0.269-0.239-0.435-0.273c-0.167-0.035-0.338-0.018-0.492,0.056c-0.443,0.211-0.966,0.071-1.502-0.019  c-0.537-0.091-0.935-0.281-1.323-0.661c-0.389-0.382-0.646-0.884-0.747-1.417c-0.18-0.962-0.513-1.923-1.087-2.732  c-0.574-0.812-1.347-1.412-2.193-1.9l-2.079-1.201l11.635-6.72l-1.286-2.212l-12.911,7.458l-2.326-1.343v-2.703l12.912-7.448  l-1.285-2.221l-11.626,6.711v-2.401c0-0.977-0.151-1.943-0.567-2.846c-0.416-0.902-1.083-1.67-1.824-2.306  c-0.414-0.354-0.715-0.833-0.851-1.36c-0.135-0.527-0.096-0.965,0.094-1.475c0.191-0.509,0.324-1.036,0.729-1.314  c0.14-0.097,0.249-0.235,0.302-0.396c0.054-0.162,0.057-0.35,0-0.511l-2.287-8.318c-0.037-0.104-0.109-0.201-0.198-0.265  C375.581,76.997,375.487,76.966,375.377,76.966z M375.377,93.044c0.61,0,1.212,0.249,1.645,0.681c0.432,0.432,0.68,1.035,0.68,1.645  v4.367l-2.325,1.342l-2.335-1.352v-4.358c0-0.61,0.249-1.212,0.681-1.645C374.155,93.292,374.767,93.044,375.377,93.044z   M375.377,104.037l2.325,1.342v2.704l-2.315,1.341l-2.344-1.351v-2.685L375.377,104.037z M368.146,108.206l2.335,1.352v2.703  l-3.772,2.174c-0.528,0.305-1.177,0.384-1.768,0.227c-0.59-0.158-1.113-0.559-1.418-1.087c-0.305-0.527-0.385-1.178-0.227-1.767  c0.158-0.591,0.549-1.113,1.078-1.418L368.146,108.206z M382.599,108.206l3.78,2.184c0.529,0.305,0.929,0.817,1.087,1.408  c0.159,0.59,0.059,1.249-0.246,1.776c-0.305,0.528-0.819,0.92-1.409,1.078c-0.589,0.157-1.239,0.077-1.767-0.228l-3.772-2.174  v-2.703L382.599,108.206z"
   id="path28" />
<path
   sodipodi:nodetypes="cccccccccc"
   fill="#0E419D"
   d="M413.014,79.659l11.914,36.38v17.77h11.755v-17.77l11.242-36.38h-10.626  l-6.676,23.641l-6.484-23.641H413.014z"
   id="path30"
   style="fill:#f30711;fill-opacity:1" />
<path
   sodipodi:nodetypes="cccccccccccccc"
   fill="#0E419D"
   d="M486.391,79.659v54.149h9.777V98.692l5.604,35.116h7.382l5.592-35.116  v35.116h9.961V79.659h-14.93l-4.258,25.759l-4.104-25.759H486.391z"
   id="path32"
   style="fill:#f30711;fill-opacity:1" />
<path
   sodipodi:nodetypes="ccccccccccccc"
   fill="#0E419D"
   d="M570.061,79.659v54.149h10.898v-22.821h9.283v22.821h10.639V79.659  h-10.639v21.542h-9.283V79.659H570.061z"
   id="path34"
   style="fill:#f30711;fill-opacity:1" />
<path
   sodipodi:nodetypes="ccccccccccccc"
   fill="#0E419D"
   d="M616.364,79.649l-9.417,54.157h10.629l2.096-13.229h8.144l2.053,13.229  h10.721l-9.42-54.157H616.364z M623.833,91.525l2.771,19.593h-5.659L623.833,91.525z"
   id="path36"
   style="fill:#f30711;fill-opacity:1" />
<path
   sodipodi:nodetypes="ccccccccccccc"
   fill="#0E419D"
   d="M540.037,79.649l-9.417,54.157h10.629l2.096-13.229h8.145l2.052,13.229  h10.722l-9.42-54.157H540.037z M547.506,91.525l2.771,19.593h-5.659L547.506,91.525z"
   id="path38"
   style="fill:#f30711;fill-opacity:1" />
<path
   sodipodi:nodetypes="ccccccccccccc"
   fill="#0E419D"
   d="M456.411,79.649l-9.418,54.157h10.629l2.095-13.229h8.145l2.052,13.229  h10.722l-9.419-54.157H456.411z M463.879,91.525l2.772,19.593h-5.66L463.879,91.525z"
   id="path40"
   style="fill:#f30711;fill-opacity:1" />
</svg>