<?xml version="1.0" encoding="UTF-8" standalone="no"?>
<svg
   xmlns:dc="http://purl.org/dc/elements/1.1/"
   xmlns:cc="http://creativecommons.org/ns#"
   xmlns:rdf="http://www.w3.org/1999/02/22-rdf-syntax-ns#"
   xmlns:svg="http://www.w3.org/2000/svg"
   xmlns="http://www.w3.org/2000/svg"
   xmlns:sodipodi="http://sodipodi.sourceforge.net/DTD/sodipodi-0.dtd"
   xmlns:inkscape="http://www.inkscape.org/namespaces/inkscape"
   inkscape:version="1.0beta2 (2b71d25, 2019-12-03)"
   sodipodi:docname="heart.svg"
   id="svg12"
   version="1.1"
   enable-background="new 0 0 50 50"
   viewBox="0 0 50 50">
  <metadata
     id="metadata18">
    <rdf:RDF>
      <cc:Work
         rdf:about="">
        <dc:format>image/svg+xml</dc:format>
        <dc:type
           rdf:resource="http://purl.org/dc/dcmitype/StillImage" />
      </cc:Work>
    </rdf:RDF>
  </metadata>
  <defs
     id="defs16" />
  <sodipodi:namedview
     inkscape:current-layer="svg12"
     inkscape:window-maximized="0"
     inkscape:window-y="23"
     inkscape:window-x="0"
     inkscape:cy="25"
     inkscape:cx="25"
     inkscape:zoom="11.38"
     showgrid="false"
     id="namedview14"
     inkscape:window-height="777"
     inkscape:window-width="1151"
     inkscape:pageshadow="2"
     inkscape:pageopacity="0"
     guidetolerance="10"
     gridtolerance="10"
     objecttolerance="10"
     borderopacity="1"
     inkscape:document-rotation="0"
     bordercolor="#666666"
     pagecolor="#ffffff" />
  <path
     inkscape:connector-curvature="0"
     id="path845"
     d="M 24.705511,42.30812 C 24.558208,42.179252 23.490615,41.296763 22.33308,40.347034 15.109495,34.420261 10.230995,29.939372 7.7576941,26.959578 4.9117319,23.530808 3.6503941,20.645303 3.5131645,17.249561 3.4327699,15.260199 3.7353177,13.755724 4.546932,12.108963 5.06087,11.066185 5.5332268,10.415833 6.444164,9.4968056 c 2.4986335,-2.520823 6.232622,-3.493202 9.856681,-2.566808 1.097784,0.2806189 2.718753,1.0821804 3.751879,1.8552858 0.985788,0.7376818 2.490033,2.2464476 3.864983,3.8766016 0.579168,0.686666 1.073456,1.246151 1.098419,1.243301 0.02496,-0.0029 0.440816,-0.482388 0.92412,-1.065638 3.022464,-3.6474988 5.257755,-5.3135519 8.004153,-5.9658199 4.721979,-1.1214676 9.484236,1.0685603 11.548063,5.3106289 1.510615,3.104976 1.34622,7.035814 -0.443667,10.60848 -2.085769,4.163256 -6.481965,8.597729 -17.48289,17.635109 -1.329086,1.091859 -2.456133,2.014287 -2.504547,2.04984 -0.04841,0.03555 -0.208546,-0.0408 -0.355847,-0.169666 z"
     style="font-variation-settings:normal;opacity:1;vector-effect:none;fill:#ffffff;fill-opacity:1;stroke-width:2;stroke-linecap:butt;stroke-linejoin:miter;stroke-miterlimit:4;stroke-dasharray:none;stroke-dashoffset:0;stroke-opacity:1;stop-color:#000000;stop-opacity:1" />
  <path
     inkscape:connector-curvature="0"
     id="path847"
     d="M 24.705511,42.30812 C 24.558208,42.179252 23.490615,41.296782 22.33308,40.347076 13.023719,32.709162 8.4483099,28.304047 6.0093789,24.630931 5.3203859,23.593284 4.4856216,21.929414 4.1577602,20.940246 3.6051315,19.272948 3.3556987,16.882297 3.5684062,15.29167 4.1941657,10.612243 7.9426689,7.0276271 12.627417,6.6287256 c 1.981721,-0.1687415 3.836901,0.177664 5.579964,1.04191 1.83884,0.9117336 3.355496,2.2251848 5.530858,4.7898214 0.573924,0.676626 1.091975,1.283545 1.151227,1.348711 0.0879,0.09667 0.299209,-0.105509 1.148002,-1.098419 3.131338,-3.6630044 5.075296,-5.1163708 7.752555,-5.7960647 4.764015,-1.2094726 9.612435,0.9737977 11.702439,5.2696727 1.510615,3.104976 1.34622,7.035814 -0.443667,10.60848 -1.766201,3.52539 -5.244785,7.271512 -12.562476,13.528657 -1.882332,1.609527 -6.888369,5.759991 -7.424961,6.155973 -0.04841,0.03573 -0.208546,-0.04048 -0.355847,-0.169347 z"
     style="font-variation-settings:normal;opacity:1;vector-effect:none;fill:#ffffff;fill-opacity:1;stroke-width:2;stroke-linecap:butt;stroke-linejoin:miter;stroke-miterlimit:4;stroke-dasharray:none;stroke-dashoffset:0;stroke-opacity:1;stop-color:#000000;stop-opacity:1" />
  <path
     inkscape:connector-curvature="0"
     id="path849"
     d="M 24.314587,41.994034 C 17.578053,36.413636 15.482489,34.62272 12.934974,32.26876 7.1050595,26.881791 4.525026,23.259073 3.7427618,19.361644 3.5198206,18.250898 3.4354236,16.282928 3.5682198,15.29167 4.1965859,10.601228 7.9327646,7.0284704 12.627417,6.6287256 c 1.98666,-0.1691622 3.852271,0.1783066 5.579964,1.0392652 1.847321,0.9205722 3.328322,2.2048801 5.577103,4.8364032 0.598865,0.700791 1.136326,1.286036 1.19436,1.300546 0.05803,0.01451 0.533704,-0.479779 1.057047,-1.098419 1.281232,-1.514532 3.082084,-3.312725 3.9738,-3.9679301 1.988223,-1.4608858 3.990552,-2.1311936 6.387497,-2.1383035 1.877884,-0.00557 3.589193,0.4317313 5.092366,1.3012847 4.399863,2.5452259 6.101847,7.6560569 4.342076,13.0386739 -1.285858,3.933058 -4.810023,8.043946 -12.773634,14.900263 -1.778036,1.53081 -7.537555,6.311205 -7.996485,6.637073 -0.04833,0.03432 -0.384446,-0.183279 -0.746924,-0.483548 z"
     style="font-variation-settings:normal;opacity:1;vector-effect:none;fill:#ffffff;fill-opacity:1;stroke-width:2;stroke-linecap:butt;stroke-linejoin:miter;stroke-miterlimit:4;stroke-dasharray:none;stroke-dashoffset:0;stroke-opacity:1;stop-color:#000000;stop-opacity:1" />
  <path
     inkscape:connector-curvature="0"
     id="path851"
     d="M 24.483417,42.130908 C 24.213795,41.906185 23.00895,40.911687 21.805983,39.920914 8.4015736,28.880932 4.3793732,24.158823 3.6177011,18.567663 3.1269989,14.965595 4.0737865,11.862659 6.3682803,9.5531052 9.4481516,6.4530195 14.238618,5.6902439 18.207381,7.6679908 c 1.846775,0.9202996 3.23128,2.1186074 5.580213,4.8297462 0.603994,0.69713 1.141424,1.281627 1.19429,1.298883 0.05287,0.01725 0.526025,-0.474038 1.051466,-1.091762 1.252035,-1.471933 3.076733,-3.3007953 3.915622,-3.9245578 2.000532,-1.4875119 4.027628,-2.1728327 6.448216,-2.1800128 2.709366,-0.00804 5.028753,0.8830166 6.936858,2.6649767 2.730349,2.5498439 3.758455,6.2663679 2.8654,10.3581959 -0.976849,4.475766 -4.375834,8.670241 -13.14145,16.217049 -1.827783,1.573641 -7.760579,6.504661 -7.996485,6.646247 -0.04833,0.02901 -0.308472,-0.131125 -0.578094,-0.355848 z"
     style="font-variation-settings:normal;opacity:1;vector-effect:none;fill:#ffffff;fill-opacity:1;stroke-width:2;stroke-linecap:butt;stroke-linejoin:miter;stroke-miterlimit:4;stroke-dasharray:none;stroke-dashoffset:0;stroke-opacity:1;stop-color:#000000;stop-opacity:1" />
  <path
     inkscape:connector-curvature="0"
     id="path853"
     d="M 22.242388,40.28549 C 12.740502,32.444434 8.4315308,28.288145 6.012758,24.630931 4.2797231,22.010562 3.494655,19.54601 3.4901863,16.711862 3.4858984,13.992397 4.4669514,11.499341 6.2706718,9.6460794 7.1275121,8.7657052 7.9583053,8.164452 9.0685413,7.6212337 11.939993,6.2162845 15.329024,6.2336238 18.207381,7.6679908 c 1.851452,0.9226306 3.287888,2.169111 5.650574,4.9033362 0.594636,0.688143 1.112126,1.251169 1.149979,1.251169 0.03785,0 0.480371,-0.484403 0.983371,-1.07645 1.225056,-1.441931 3.133957,-3.3551301 3.957667,-3.9665802 2.004595,-1.4880354 4.028457,-2.1720008 6.448216,-2.1791784 2.709366,-0.00804 5.028753,0.8830166 6.936858,2.6649767 2.749867,2.5680729 3.76294,6.2366929 2.863008,10.3677469 -1.011959,4.645296 -4.560052,8.913972 -14.281413,17.181827 -1.784137,1.51738 -6.67521,5.56483 -6.85413,5.671915 -0.04833,0.02893 -1.316935,-0.961641 -2.819123,-2.201263 z"
     style="font-variation-settings:normal;opacity:1;vector-effect:none;fill:#ffffff;fill-opacity:1;stroke-width:2;stroke-linecap:butt;stroke-linejoin:miter;stroke-miterlimit:4;stroke-dasharray:none;stroke-dashoffset:0;stroke-opacity:1;stop-color:#000000;stop-opacity:1" />
  <path
     sodipodi:nodetypes="cssscscssccsscc"
     inkscape:connector-curvature="0"
     id="path855"
     d="M 9.7691653,31.163859 C 3.5911019,25.1146 1.3567854,21.072098 1.3486758,15.928837 1.3417664,11.546733 3.6319751,7.8145519 7.484641,5.9295124 9.9062991,4.7446388 12.702415,4.4732589 15.410535,5.1602558 c 1.184914,0.3005892 2.77852,1.0660694 3.960196,1.9022578 1.045437,0.7397837 2.870034,2.4432415 4.476243,4.3057494 0.657733,0.762686 1.210306,1.322841 1.210306,1.322841 0,0 0.706512,-0.707927 1.211546,-1.295523 3.515297,-4.0899755 5.45261,-5.4928185 8.417701,-6.2455925 1.839813,-0.467089 3.977264,-0.4656573 5.828329,0.0039 3.506513,0.8895001 6.464333,3.6814291 7.60174,7.1753975 0.431258,1.324754 0.545135,2.141005 0.530764,3.804365 -0.05537,6.408561 -3.542103,11.236137 -15.500767,21.461643 -2.286542,1.955154 -8.070332,6.686187 -8.070332,6.686187 C 19.83363,40.193658 14.213171,35.492604 9.7691653,31.163859 Z"
     style="font-variation-settings:normal;opacity:1;vector-effect:none;fill:#ff0000;fill-opacity:1;stroke:#000000;stroke-width:2;stroke-linecap:butt;stroke-linejoin:miter;stroke-miterlimit:4;stroke-dasharray:none;stroke-dashoffset:0;stroke-opacity:1;stop-color:#000000;stop-opacity:1" />
</svg>
