<?xml version="1.0" encoding="UTF-8" standalone="no"?>
<svg
   xmlns:dc="http://purl.org/dc/elements/1.1/"
   xmlns:cc="http://creativecommons.org/ns#"
   xmlns:rdf="http://www.w3.org/1999/02/22-rdf-syntax-ns#"
   xmlns:svg="http://www.w3.org/2000/svg"
   xmlns="http://www.w3.org/2000/svg"
   xmlns:sodipodi="http://sodipodi.sourceforge.net/DTD/sodipodi-0.dtd"
   xmlns:inkscape="http://www.inkscape.org/namespaces/inkscape"
   inkscape:version="1.0beta2 (2b71d25, 2019-12-03)"
   sodipodi:docname="moon.svg"
   xml:space="preserve"
   enable-background="new 0 0 64 64"
   viewBox="0 0 64 64"
   y="0px"
   x="0px"
   id="Layer_1"
   version="1.1"><metadata
   id="metadata46"><rdf:RDF><cc:Work
       rdf:about=""><dc:format>image/svg+xml</dc:format><dc:type
         rdf:resource="http://purl.org/dc/dcmitype/StillImage" /></cc:Work></rdf:RDF></metadata><defs
   id="defs44" /><sodipodi:namedview
   inkscape:current-layer="Layer_1"
   inkscape:window-maximized="0"
   inkscape:window-y="23"
   inkscape:window-x="0"
   inkscape:cy="32"
   inkscape:cx="-13.294118"
   inkscape:zoom="4.25"
   showgrid="false"
   id="namedview42"
   inkscape:window-height="789"
   inkscape:window-width="992"
   inkscape:pageshadow="2"
   inkscape:pageopacity="0"
   guidetolerance="10"
   gridtolerance="10"
   objecttolerance="10"
   borderopacity="1"
   inkscape:document-rotation="0"
   bordercolor="#666666"
   pagecolor="#ffffff" />

<g
   id="g11">
</g>
<g
   id="g13">
</g>
<g
   id="g15">
</g>
<g
   id="g17">
</g>
<g
   id="g19">
</g>
<g
   id="g21">
</g>
<g
   id="g23">
</g>
<g
   id="g25">
</g>
<g
   id="g27">
</g>
<g
   id="g29">
</g>
<g
   id="g31">
</g>
<g
   id="g33">
</g>
<g
   id="g35">
</g>
<g
   id="g37">
</g>
<g
   id="g39">
</g>
<path
   inkscape:connector-curvature="0"
   id="path48"
   d="M 29.178536,61.695927 C 18.745268,60.379108 9.9482071,54.270016 5.3553774,45.152002 3.1747861,40.822939 2.2112753,36.741791 2.2125164,31.839767 2.2137601,26.927492 3.2560954,22.473082 5.3767136,18.317599 7.9488452,13.277348 12.27291,8.7104581 17.196916,5.8336122 18.642483,4.989041 22.286918,3.3411765 22.709214,3.3411765 c 0.12125,0 -0.340742,0.6617647 -1.026648,1.4705882 -9.130634,10.7668813 -8.453683,26.9537313 1.545245,36.9490143 5.230384,5.228473 11.982177,7.983348 19.572189,7.985866 5.972466,0.0019 10.952153,-1.495045 15.754021,-4.736078 0.770595,-0.520113 1.439746,-0.906998 1.487003,-0.859739 0.141882,0.14188 -0.869299,2.011847 -2.170497,4.013878 -4.432115,6.819289 -11.4514,11.506767 -19.717176,13.167127 -2.253779,0.45272 -6.808582,0.637501 -8.974815,0.364094 z"
   style="font-variation-settings:normal;opacity:1;vector-effect:none;fill:#ff0000;fill-opacity:1;stroke-width:2;stroke-dasharray:none;stroke-dashoffset:0;stroke-opacity:1;stop-color:#000000;stop-opacity:1;stroke:#000000" /></svg>
