<svg xmlns="http://www.w3.org/2000/svg" viewBox="0 0 64 64" y="0" x="0">
    <path fill="orange" d="M 29.178536,61.695927 C 18.745268,60.379108 9.9482071,54.270016 5.3553774,45.152002 3.1747861,40.822939 2.2112753,36.741791 2.2125164,31.839767 2.2137601,26.927492 3.2560954,22.473082 5.3767136,18.317599 7.9488452,13.277348 12.27291,8.7104581 17.196916,5.8336122 18.642483,4.989041 22.286918,3.3411765 22.709214,3.3411765 c 0.12125,0 -0.340742,0.6617647 -1.026648,1.4705882 -9.130634,10.7668813 -8.453683,26.9537313 1.545245,36.9490143 5.230384,5.228473 11.982177,7.983348 19.572189,7.985866 5.972466,0.0019 10.952153,-1.495045 15.754021,-4.736078 0.770595,-0.520113 1.439746,-0.906998 1.487003,-0.859739 0.141882,0.14188 -0.869299,2.011847 -2.170497,4.013878 -4.432115,6.819289 -11.4514,11.506767 -19.717176,13.167127 -2.253779,0.45272 -6.808582,0.637501 -8.974815,0.364094 z"/>
</svg>
