<?xml version="1.0" encoding="UTF-8" standalone="no"?>
<svg xmlns:svg="http://www.w3.org/2000/svg" xmlns="http://www.w3.org/2000/svg" height="16.000843" width="17.397421" version="1.1" viewBox="0 0 17.397421 16.000843">
  <path
     style="stroke:#0000ff;stroke-opacity:1"
     stroke-width="1.301"
     stroke-linecap="round"
     fill="none"
     d="m 6.3949892,9.0274155 c -0.515,-1.022 0.145,-2.212 1.139,-2.62 1.403,-0.576 2.9539998,0.32 3.4469998,1.686 0.643,1.781 -0.494,3.6990005 -2.2339998,4.2740005 -2.157,0.714 -4.446,-0.668 -5.101,-2.7810005 -0.786,-2.533 0.842,-5.193 3.328,-5.928 2.908,-0.86 5.9419998,1.015 6.7549998,3.875 0.934,3.2830005 -1.188,6.6910005 -4.4229998,7.5820005 -3.658,1.01 -7.44,-1.361 -8.40899998,-4.97 -1.083,-4.0300005 1.53499998,-8.1900005 5.51699998,-9.23600048 4.4069998,-1.158 8.9399998,1.70799998 10.0599998,6.05999998 0.489,1.897 0.313,3.9350005 -0.474,5.7280005" />
</svg>
