<svg xmlns="http://www.w3.org/2000/svg" width="750" height="185" viewBox="0 0 750 185"><g fill="#28B4E5"><path d="M40.389 84.39h-7.414c-9.503 0-17.295-2.947-23.378-8.745-6.366-6.649-9.597-14.824-9.597-24.326v-40.486c0-2.946 1.044-5.51 3.231-7.602 2.186-2.187 4.656-3.231 7.602-3.231 3.137 0 5.702 1.044 7.792 3.231 2.187 2.092 3.327 4.656 3.327 7.602v40.486c0 2.089.379 4.371 1.236 6.748 1.806 2.848 4.752 4.371 9.123 4.371h73.55600000000001c9.598 0 17.39 2.946 23.378 8.741 6.366 6.653 9.598 14.825 9.598 24.329v77.453c0 2.946-1.044 5.415-3.231 7.602-2.09 2.092-4.656 3.231-7.507 3.231-3.136 0-5.796-1.14-7.887-3.231-2.187-2.187-3.231-4.656-3.231-7.602v-77.453c0-2.092-.475-4.371-1.236-6.653-1.806-2.946-4.847-4.465-9.123-4.465h-66.239zM21.952 139.795v33.166c0 2.946-1.14 5.415-3.231 7.602-2.186 2.187-4.75 3.231-7.602 3.231-3.137 0-5.797-1.044-7.887-3.231-2.188-2.187-3.232-4.656-3.232-7.602v-64.14699999999999c0-2.947 1.044-5.418 3.231-7.603 2.09-2.187 4.656-3.231 7.602-3.231 3.137 0 5.702 1.044 7.887 3.231 2.092 2.184 3.231 4.656 3.231 7.603v30.981zM725.196 84.39h13.967c2.946 0 5.514-1.044 7.605-3.231 2.184-2.092 3.231-4.75 3.231-7.887 0-2.947-1.048-5.513-3.231-7.602-2.092-2.187-4.659-3.231-7.605-3.231h-64.242c-9.501 0-17.391 3.042-23.661 9.026-6.178 6.178-9.314 14.16-9.314 24.044v77.453c0 2.946 1.048 5.51 3.231 7.602 2.093 2.187 4.751 3.231 7.888 3.231 2.852 0 5.418-1.044 7.602-3.231 2.093-2.092 3.235-4.656 3.235-7.602v-77.454c0-7.412 3.516-11.118 10.738-11.118h50.556zM347.63 144.071v28.89c0 2.946-1.046 5.415-3.231 7.602-2.09 2.187-4.657 3.231-7.602 3.231-3.042 0-5.703-1.044-7.794-3.231-2.185-2.187-3.231-4.656-3.231-7.602v-64.14699999999999c0-2.947 1.046-5.418 3.231-7.603 2.091-2.187 4.657-3.231 7.509-3.231 3.135 0 5.796 1.044 7.887 3.231 2.186 2.184 3.231 4.656 3.231 7.603v35.257zM350.575 84.39h-14.063c-2.852 0-5.418-1.044-7.509-3.231-2.185-2.092-3.231-4.75-3.231-7.887 0-2.947 1.046-5.513 3.231-7.602 2.091-2.187 4.657-3.231 7.509-3.231h85.436c9.501 0 17.388 3.042 23.661 9.026 6.178 6.178 9.314 14.16 9.314 24.044v77.453c0 2.946-1.048 5.415-3.235 7.602-2.089 2.092-4.747 3.231-7.884 3.231-2.946 0-5.418-1.14-7.602-3.231-2.096-2.187-3.137-4.656-3.137-7.602v-77.454c0-7.412-3.614-11.118-10.837-11.118h-71.653zM204.795 183.794h-9.408c-9.502 0-17.581-3.231-24.139-9.694-5.892-6.083-8.743-13.875-8.743-23.376v-55.216c0-8.362 2.377-15.584 7.224-21.572 6.081-7.697 14.444-11.498 25.373-11.498h74.126c9.503 0 17.581 3.231 24.232 9.691 5.796 5.988 8.743 13.875 8.743 23.379v55.405c0 8.267-2.47 15.395-7.317 21.382-6.273 7.697-14.825 11.499-25.658 11.499h-73.841 9.408zm-20.431-45.236v12.831c0 4.275 1.426 7.317 4.371 9.121 2.377.858 4.562 1.333 6.652 1.333h74.221c4.466 0 7.602-1.522 9.408-4.466.856-2.282 1.236-4.564 1.236-6.653v-55.879999999999995c0-4.276-1.426-7.412-4.372-9.125-2.281-.854-4.561-1.329-6.651-1.329h-74.506c-4.277 0-7.319 1.519-9.125 4.465-.854 2.282-1.234 4.561-1.234 6.653v55.88-12.83zM520.969 183.794h-9.314c-9.596 0-17.673-3.231-24.233-9.694-5.89-6.083-8.741-13.875-8.741-23.376v-55.216c0-8.362 2.377-15.584 7.222-21.572 6.083-7.697 14.543-11.498 25.374-11.498h74.129c9.501 0 17.581 3.231 24.23 9.691 5.799 5.988 8.745 13.875 8.745 23.379v55.405c0 8.267-2.472 15.395-7.32 21.382-6.271 7.697-14.825 11.499-25.655 11.499h-73.75 9.313zm-20.433-45.236v12.831c0 4.275 1.428 7.317 4.374 9.121 2.377.858 4.561 1.333 6.744 1.333h74.12899999999999c4.466 0 7.603-1.522 9.406-4.466.854-2.282 1.234-4.564 1.234-6.653v-55.879999999999995c0-4.276-1.425-7.412-4.276-9.125-2.377-.854-4.655-1.329-6.744-1.329h-74.509c-4.276 0-7.314 1.519-9.121 4.465-.858 2.282-1.238 4.561-1.238 6.653v55.88-12.83z"/></g></svg>