<?xml version="1.0" encoding="utf-8"?>
<!-- Generator: Adobe Illustrator 14.0.0, SVG Export Plug-In . SVG Version: 6.00 Build 43363)  -->
<!DOCTYPE svg PUBLIC "-//W3C//DTD SVG 1.1//EN" "http://www.w3.org/Graphics/SVG/1.1/DTD/svg11.dtd">
<svg version="1.1" id="Abarth_Logo" xmlns="http://www.w3.org/2000/svg" xmlns:xlink="http://www.w3.org/1999/xlink" x="0px"
	 y="0px" width="210px" height="226px" viewBox="0 0 210 226" enable-background="new 0 0 210 226" xml:space="preserve">
<path fill-rule="evenodd" clip-rule="evenodd" d="M118.862,156.198l7.536-0.161l6.734-4.65l-0.48,20.204l-9.781,0.802l-4.489-2.726
	L118.862,156.198z M117.525,170.681l4.493,2.887l10.155-0.536l-15.714,17.321l-6.202-5.131l-1.173-4.81L117.525,170.681z
	 M108.013,181.586l1.178,4.703l5.555,5.238l-18.382,3.208l-2.142-5.131l1.821-4.167L108.013,181.586z M94.361,185.463L93,189.554
	l1.58,5.569l-19.758-17.146l4.748-2.018L94.361,185.463z M76.051,148.501l2.726,25.816l-12.667,4.81L76.051,148.501z
	 M128.589,133.107l13.639-0.16l2.313-2.25l-0.253,6.245l-14.379,1.007l1.285,4.713l13.243-0.496l2.084-2.245l-0.48,6.253
	l-13.74,0.553l0.762,2.797l-7.223,4.775l-7.104,1.026l-1.061-1.409l-9.621,9.621l-5.196-3.604l3.669-0.034l8.321-9.736l-2.771-3.678
	l-9.958,10.025l-5.131-4.145h3.118l9.033-9.78l-2.613-3.469l-9.854,9.854l-5.328-3.592l3.079-0.316l9.123-9.905l-2.64-3.505
	l-9.64,9.937l-5.763-3.671L88.78,138l8.289-11.446l26.273-12.077l16.047-0.116l1.889-2.228l-1.309,6.779l-15.024,0.819l1.17,4.292
	l14.158-0.265l2.398-2.146l-0.631,6.268l-14.632,0.888L128.589,133.107z M88.877,113.517l8.287,11.298L51.17,145.775l-6.68-43.614
	l32.081-30.533l-9.66,31.815l15.393-8.178l-14.912,23.571l-13.629,2.084l6.414,12.828L88.877,113.517z M111.575,101.538
	l10.596,11.929l-24.376,11.114l-2.236-15.97l9.995-0.34L111.575,101.538z M169.691,91.898l-46.774,21.263l-0.064-0.008
	l-2.669-14.066l33.86-8.736l-5.894-12.574l-10.516,8.991l-27.712-4.114l15.647-6.911L95.801,62.383l44.907-4.346L169.691,91.898z"/>
</svg>
