<?xml version="1.0" encoding="UTF-8" standalone="no"?>
<!-- Created with Inkscape (http://www.inkscape.org/) -->

<svg
   xmlns:dc="http://purl.org/dc/elements/1.1/"
   xmlns:cc="http://creativecommons.org/ns#"
   xmlns:rdf="http://www.w3.org/1999/02/22-rdf-syntax-ns#"
   xmlns:svg="http://www.w3.org/2000/svg"
   xmlns="http://www.w3.org/2000/svg"
   xmlns:sodipodi="http://sodipodi.sourceforge.net/DTD/sodipodi-0.dtd"
   xmlns:inkscape="http://www.inkscape.org/namespaces/inkscape"
   width="244.3607"
   height="129.65935"
   id="svg2"
   version="1.1"
   inkscape:version="0.47 r22583"
   sodipodi:docname="Acura_log.svg">
  <defs
     id="defs4">
    <inkscape:perspective
       sodipodi:type="inkscape:persp3d"
       inkscape:vp_x="0 : 526.18109 : 1"
       inkscape:vp_y="0 : 1000 : 0"
       inkscape:vp_z="744.09448 : 526.18109 : 1"
       inkscape:persp3d-origin="372.04724 : 350.78739 : 1"
       id="perspective10" />
    <inkscape:perspective
       id="perspective2881"
       inkscape:persp3d-origin="0.5 : 0.33333333 : 1"
       inkscape:vp_z="1 : 0.5 : 1"
       inkscape:vp_y="0 : 1000 : 0"
       inkscape:vp_x="0 : 0.5 : 1"
       sodipodi:type="inkscape:persp3d" />
  </defs>
  <sodipodi:namedview
     id="base"
     pagecolor="#ffffff"
     bordercolor="#666666"
     borderopacity="1.0"
     inkscape:pageopacity="0.0"
     inkscape:pageshadow="2"
     inkscape:zoom="0.815"
     inkscape:cx="119.88218"
     inkscape:cy="82.445959"
     inkscape:document-units="px"
     inkscape:current-layer="layer1"
     showgrid="false"
     showborder="false"
     inkscape:showpageshadow="false"
     inkscape:window-width="1366"
     inkscape:window-height="741"
     inkscape:window-x="0"
     inkscape:window-y="1"
     inkscape:window-maximized="1" />
  <metadata
     id="metadata7">
    <rdf:RDF>
      <cc:Work
         rdf:about="">
        <dc:format>image/svg+xml</dc:format>
        <dc:type
           rdf:resource="http://purl.org/dc/dcmitype/StillImage" />
        <dc:title></dc:title>
      </cc:Work>
    </rdf:RDF>
  </metadata>
  <g
     inkscape:label="Layer 1"
     inkscape:groupmode="layer"
     id="layer1"
     transform="translate(-66.135697,-493.55843)">
    <path
       style="fill:#000000;stroke:none"
       d="m 176.46875,494.03125 c -14.20768,1.90357 -27.24984,11.07566 -30.5,30.03125 l 0.25,16.9375 c 1.26269,24.71992 28.18693,30.60494 40.375,30.5 26.5687,-0.52843 37.42119,-12.40547 40.375,-32.875 l 0,-10.9375 c -0.76714,-14.69204 -9.13611,-28.76685 -30.53125,-33.65625 l -19.96875,0 z m 0.78125,3 18.4375,0 c 18.58855,4.98079 25.92472,17.55525 26.75,31.0625 l 0,10.09375 c -2.72729,16.56807 -10.62985,29.62508 -36.09375,30.8125 -13.35195,-0.60263 -30.99602,-2.94413 -35.875,-29.53125 l 0,-15.40625 c 3.70042,-16.56925 14.36262,-23.87463 26.78125,-27.03125 z"
       id="path2937" />
    <path
       sodipodi:nodetypes="ccccccccccc"
       id="path2941"
       d="m 170.93424,531.88108 13.63705,-38.25952 0.25254,31.44099 3.283,0 0,-31.50412 13.8896,37.05996 5.3033,37.88072 -18.43529,-38.63833 -4.79822,0 -17.04555,38.07748 3.91357,-36.05718 z"
       style="fill:#000000;stroke:none" />

  </g>
</svg>
