<?xml version="1.0" encoding="utf-8"?>
<!-- Generator: Adobe Illustrator 22.0.1, SVG Export Plug-In . SVG Version: 6.00 Build 0)  -->
<svg version="1.1" id="Layer_1" xmlns="http://www.w3.org/2000/svg" xmlns:xlink="http://www.w3.org/1999/xlink" x="0px" y="0px"
	 viewBox="0 0 3326 501.5" style="enable-background:new 0 0 3326 501.5;" xml:space="preserve">
<style type="text/css">
	.st0{fill:#002E6E;}
	.st1{fill-rule:evenodd;clip-rule:evenodd;fill:#002E6E;}
</style>
<g>
	<g>
		<g>
			<path class="st0" d="M787.8765,263.0042c-27.7088,5.8712-151.7607,64.4168-202.0892,89.5393
				c-0.7278,0.0844-27.7089,6.3078-29.5975,6.5773c-15.3069-3.6758-219.3013-70.6324-327.9119-35.8296
				c-53.2137,17.1242-213.8771,58.7231-213.8771,58.7231c-16.3499,4.8609,9.4496,6.6359,17.0354,5.45
				c7.6074-0.9422,34.1139-5.0796,65.3168-11.3961c62.5961-12.6749,98.026-14.6265,131.0495-16.4936
				c63-3.4484,157.1185,5.9124,232.4309,43.02c5.9047,2.8679,8.6762,5.9969,8.9027,9.9001
				c0.4547,10.5468-16.9433,27.5779-23.8436,32.2122c0,0,21.8713,1.0929,35.4041-3.0023c5.2949-1.632,11.0386-1.9516,18.9663-2.2289
				c10.3324-0.9931,24.5756-1.8594,46.4685-5.804c43.5626-7.9053,63.2308-18.7217,83.8533-30.2107l1.5433-0.7234
				c13.444-7.3172,132.5679-55.3746,132.5679-55.3746c71.2455-29.0256,101.272-1.0429,186.6015-10.1772
				c85.3717-8.9492,153.0095-33.6591,205.2897-37.9319c9.676-0.8577-12.4897-7.2663-18.621-8.0405
				c-25.3456-2.9015-145.3564-0.1343-181.9672-4.9453C875.317,275.5534,815.8584,257.016,787.8765,263.0042z"/>
			<g>
				<path class="st0" d="M969.9996,377.927c0,35.5263-16.4179,99.4806-16.4179,99.4806c-0.7484,2.7749-2.0015,6.3577-2.5441,8.3093
					c-0.5676,1.9593,1.2031,3.457,3.8394,3.457h43.5376c2.8594,0,5.4293-0.7743,5.698-1.8172
					c0.1387-1.0008,1.0266-4.0875,1.5227-6.5851c0,0,14.9917-66.3176,14.9917-102.8447c0-11.6234-0.7734-23.1631-1.8164-34.5677
					c-15.8546,3.0023-32.5912,5.6859-50.127,7.9562C969.3898,360.0794,969.9996,369.0286,969.9996,377.927z"/>
				<path class="st0" d="M1005.1392,272.5081c-9.7906-32.6661-24.1217-63.596-41.9271-91.6709
					c-24.5084,1.4546-43.2009-0.0887-59.6437-1.9972c-1.5434-0.1352-2.725-0.2274-3.9067-0.2739
					c21.5983,26.9811,38.9954,57.5535,51.0356,90.4858c2.3383,0.3109,4.5629,0.6812,6.7909,0.8664
					C967.6148,271.4574,984.9706,272.1386,1005.1392,272.5081z"/>
			</g>
			<path class="st0" d="M270.3186,377.927c0,36.4341,14.9452,102.8447,14.9452,102.8447c0.5426,2.4976,1.3375,5.5843,1.5226,6.5851
				c0.3402,1.043,2.88,1.8172,5.6515,1.8172h43.6556c2.6785,0,4.2469-1.4977,3.7679-3.457
				c-0.8165-1.9516-1.9094-5.5344-2.5906-8.3093c0,0-15.6686-62.0036-16.1234-97.7065
				c-17.6701-2.3124-34.7271-3.6328-50.8289-4.1297C270.3186,376.3879,270.3186,377.1191,270.3186,377.927z"/>
			<path class="st0" d="M331.3921,297.7572c9.2428-35.7029,24.4153-69.0425,44.7192-98.9294
				c-16.7839,1.5434-36.658,3.6327-63.7777,8.9027c-14.8074,27.9818-25.9131,58.2348-33.1123,90.0766
				C295.3016,296.7142,312.6996,296.7142,331.3921,297.7572z"/>
			<path class="st0" d="M439.2491,130.2347c56.0524-45.968,128.0937-73.4916,206.1311-73.4916
				c59.5767,0,115.4688,15.9425,163.5942,43.8778c13.1754-5.4078,23.8229-9.3566,30.0471-10.6768
				c11.6733-2.4976,26.6658-1.043,45.9465,2.1824C819.8537,38.6647,736.4335,6.3681,645.3802,6.3681
				c-120.7344,0-228.39,57.0066-296.9777,144.9905c18.5323-5.0891,34.9286-9.9043,45.7872-13.1297
				C407.3142,134.007,422.2852,131.3285,439.2491,130.2347z"/>
			<path class="st0" d="M842.3856,105.3896c-21.8972,4.6344-120.2375,51.1028-160.0536,70.8597
				c-0.7485,0.0922-21.985,4.9538-23.6421,5.2691c-11.8756-3.0867-173.632-55.8715-259.6393-28.3901
				c-42.2001,13.4483-169.6118,46.4262-169.6118,46.4262c-12.8558,3.7679,7.4265,5.2234,13.6714,4.5422
				c6.064-0.9086,26.9811-4.2261,51.6454-9.4031c49.6938-9.7226,77.6291-11.5398,103.929-12.9023
				c49.854-2.9515,124.3929,4.5887,184.2848,34.1139c4.4957,2.3167,6.678,4.6344,6.8124,7.7211
				c0.366,8.2671-13.3304,22.0315-18.9405,25.3911c0,0,17.5315,0.9087,28.2092-2.271c4.0875-1.1351,8.7219-1.589,14.9874-1.9972
				c8.1749-0.5469,19.5546-1.2281,36.7252-4.4492c34.6392-6.2242,50.1942-14.6722,66.6164-23.8022l1.2944-0.546
				c10.3323-5.9512,104.6326-44.0173,104.6326-44.0173c56.6406-22.7549,80.4429-0.8156,148.1272-7.8132
				c67.6335-7.1285,121.2339-26.8002,162.4797-30.1143c7.7461-0.6347-9.9034-5.8581-14.605-6.2241
				c-20.0084-2.3633-115.0571-0.2266-144.2205-4.041C911.857,115.2939,864.5979,100.6674,842.3856,105.3896z"/>
		</g>
		<path class="st1" d="M1561.0536,478.1302c1.0007,4.8445-2.4054,8.6633-7.2664,8.6633h-88.7366
			c-4.9073,0-9.5375-3.8188-9.9241-8.7718l-2.7043-23.4577c-0.5004-4.8867-4.9031-8.8812-9.6511-8.8812h-95.4603
			c-4.8359,0-10.2651,3.793-12.3761,7.9898l-10.7655,25.1225c-1.7958,4.3312-7.3335,7.9984-12.1737,7.9984h-96.0245
			c-4.8823,0-7.2241-3.5664-4.8823-7.889l164.3176-333.4041c2.0903-4.475,7.7926-7.8812,12.8352-7.8812h95.4559
			c4.7223,0,9.6296,3.7008,10.5598,8.6081L1561.0536,478.1302z M1439.0669,374.7059L1422.283,253.925
			c-0.6562-4.8359-2.8807-5.2019-4.6549-0.6812l-47.9655,113.5137c-1.775,4.382,0.7019,7.9484,5.5844,7.9484H1439.0669"/>
		<path class="st1" d="M1914.181,137.6191l-11.4469,73.9714c-0.707,4.6809-5.2992,8.5832-10.2023,8.5832h-145.3099
			c-4.7937,0-9.5125,3.8644-10.2437,8.4944l-5.0211,30.9807c-0.6984,4.6085,2.7749,8.4945,7.4515,8.4945h126.5959
			c4.8361,0,8.2679,3.9953,7.3595,8.7726l-9.7899,60.6066c-0.6562,4.8867-5.3328,8.7046-10.2186,8.7046h-126.024
			c-4.8446,0-9.3617,3.9109-9.9337,8.6718l-5.8539,39.3865c-0.6132,4.8195,2.9023,8.6546,7.6539,8.6546h155.9576
			c4.9288,0,8.2507,3.7843,7.5865,8.7804l-9.6726,66.4097c-0.521,4.8445-5.021,8.6633-9.9241,8.6633h-267.7515
			c-4.9961,0-8.2886-3.8188-7.5402-8.6633l50.897-331.8607c0.6348-4.9496,5.2019-8.6503,10.0844-8.6503H1914.181"/>
		<path class="st1" d="M2593.3022,137.6191l-11.4216,73.9714c-0.6562,4.6809-5.2649,8.5832-10.1267,8.5832h-145.4692
			c-4.8867,0-9.6304,3.8644-10.3118,8.4944l-4.8608,30.7533c-0.6562,4.8359,2.4976,8.7219,7.5359,8.7219h126.3523
			c4.8359,0,8.2422,3.9953,7.6953,8.7726l-9.8733,60.6066c-0.9084,4.8867-5.4336,8.7046-10.1353,8.7046h-126.1843
			c-4.928,0-9.52,3.9109-10.042,8.6718l-5.7869,39.3865c-0.7732,4.8195,2.658,8.6546,7.6289,8.6546h156.0076
			c4.8782,0,8.3103,3.7843,7.7471,8.7804l-9.6306,66.4097c-0.7991,4.8445-5.3154,8.6633-10.2695,8.6633h-267.8347
			c-4.7524,0-8.2258-3.8188-7.6538-8.6633l51.0776-331.8607c0.7485-4.9496,5.2227-8.6503,10.2188-8.6503H2593.3022"/>
		<path class="st1" d="M2914.3596,478.1302c0.9336,4.8445-2.0686,8.6633-7.1069,8.6633h-88.53
			c-5.0632,0-9.4951-3.8188-10.0171-8.7718l-2.8843-23.4577c-0.5217-4.8867-4.9539-8.8812-9.8157-8.8812h-95.2751
			c-4.8108,0-10.4202,3.793-12.4224,7.9898l-10.7656,25.1225c-1.9929,4.3312-7.5859,7.9984-12.3967,7.9984h-95.9822
			c-4.7939,0-7.1062-3.5664-5.0461-7.889l164.6458-333.4041c2.1531-4.475,7.8555-7.8812,12.8516-7.8812h95.25
			c5.0461,0,9.7898,3.7008,10.6975,8.6081L2914.3596,478.1302z M2792.28,374.7059l-16.5266-120.7809
			c-0.8413-4.8359-2.8005-5.2019-4.8193-0.6812l-47.8733,113.5137c-2.0015,4.382,0.4292,7.9484,5.2649,7.9484H2792.28"/>
		<path class="st1" d="M3317,137.6148l-52.2388,340.5154c-0.5718,4.8445-5.1382,8.6633-10,8.6633h-86.3931
			c-4.8618,0-10.564-3.5664-12.5569-7.9984l-76.3604-165.0919c-2.0181-4.407-4.5837-11.8585-5.5845-16.535l-3.9272-21.2787
			c-0.9087-4.8445-1.5479-6.4757-1.5479-3.8351c0,2.6242,0,8.6297,0,13.4406c0,0-0.1851,8.4944-0.4958,12.9436
			c-0.3704,4.4492-1.4556,12.1281-2.0696,16.9889l-24.668,162.7029c-0.5891,4.8445-5.0381,8.6633-9.8999,8.6633h-87.4187
			c-4.9963,0-8.3352-3.8188-7.5618-8.6633l50.5815-331.8607c0.5884-4.9496,5.0376-8.6546,10.0845-8.6546h85.6196
			c4.8867,0,10.6311,3.5242,12.7,7.8812l74.5173,162.6228c2.0859,4.264,4.8369,11.6742,6.2666,16.2999l5.4919,24.3233
			c0.8406,4.7523,1.8164,4.6593,1.9087-0.1094l1.2539-25.4171c0.521-4.6507,1.5391-12.6069,2.3796-17.3679l24.374-159.5783
			c0.7485-4.9496,5.3579-8.6546,10.261-8.6546H3317"/>
		<path class="st1" d="M2172.823,290.8939c-4.7515,0-8.7468,0-8.7468,0.1007c0,0-4.2053,0.1094-8.907,0.1094h-18.4358
			c-4.7688,0-9.4539,4.1133-10.1772,8.739l-9.7476,60.7831c-0.8406,4.786,2.5906,8.5367,7.6116,8.5367h11.7163
			c4.7517,0,6.7954,3.5492,4.4744,7.6539c0,0-4.5422,8.2257-9.8569,13.7928c-15.1475,15.3913-33.8867,23.1631-56.9827,23.1631
			c-22.0942,0-38.377-7.9062-48.8739-23.5326c-10.5381-15.6436-13.1709-41.4982-7.4686-77.4956
			c5.3328-36.317,15.9132-62.3395,31.1787-77.9194c15.467-15.6945,33.8608-23.3948,55.3247-23.3948
			c22.4646,0,38.9998,7.7004,49.8074,23.1003c1.5476,2.1781,1.5476,2.1781,1.5476,2.1781c1.3625,2.8179,6.4509,5.0426,11.354,5.0426
			h93.8032c4.9038,0,7.8562-3.7266,6.561-8.2886c0,0-10.4211-39.7447-25.1648-57.8232
			c-26.0054-31.729-67.6799-47.6965-124.8218-47.6965c-55.7373,0-101.6588,16.169-137.8665,48.5794
			c-36.1317,32.2967-58.7308,77.5162-67.6963,135.7683c-6.3844,41.5231-3.8188,76.0901,7.653,103.8876
			c11.5562,27.8897,29.1093,48.1927,52.5497,60.9597c23.1881,12.7671,54.484,19.26,93.2815,19.26
			c38.1091,0,71.0449-7.4515,98.707-22.2537c27.957-14.8539,50.5559-35.6865,68.134-62.373
			c17.6201-26.7288,29.6138-60.7582,36.0396-102.2728c0.8157-6.443,1.4133-9.807,1.4133-9.807
			c0.4031-4.8867-3.2297-8.7976-8.1758-8.7976H2172.823z"/>
	</g>
</g>
</svg>
