<?xml version="1.0" encoding="utf-8"?>
<!-- Generator: Adobe Illustrator 22.0.1, SVG Export Plug-In . SVG Version: 6.00 Build 0)  -->
<svg version="1.1" id="Layer_1" xmlns="http://www.w3.org/2000/svg" xmlns:xlink="http://www.w3.org/1999/xlink" x="0px" y="0px"
	 viewBox="0 0 3326 501.5" style="enable-background:new 0 0 3326 501.5;" xml:space="preserve">
<style type="text/css">
	.st0{fill:#002E6E;}
	.st1{fill-rule:evenodd;clip-rule:evenodd;fill:#002E6E;}
</style>
<g>
	<g>
		<g>
			<path class="st0" d="M787.8765,263.0042c-27.7088,5.8712-151.7607,64.4168-202.0892,89.5393
				c-0.7278,0.0844-27.7089,6.3078-29.5975,6.5773c-15.3069-3.6758-219.3013-70.6324-327.9119-35.8296
				c-53.2137,17.1242-213.8771,58.7231-213.8771,58.7231c-16.3499,4.8609,9.4496,6.6359,17.0354,5.45
				c7.6074-0.9422,34.1139-5.0796,65.3168-11.3961c62.5961-12.6749,98.026-14.6265,131.0495-16.4936
				c63-3.4484,157.1185,5.9124,232.4309,43.02c5.9047,2.8679,8.6762,5.9969,8.9027,9.9001
				c0.4547,10.5468-16.9433,27.5779-23.8436,32.2122c0,0,21.8713,1.0929,35.4041-3.0023c5.2949-1.632,11.0386-1.9516,18.9663-2.2289
				c10.3324-0.9931,24.5756-1.8594,46.4685-5.804c43.5626-7.9053,63.2308-18.7217,83.8533-30.2107l1.5433-0.7234
				c13.444-7.3172,132.5679-55.3746,132.5679-55.3746c71.2455-29.0256,101.272-1.0429,186.6015-10.1772
				c85.3717-8.9492,153.0095-33.6591,205.2897-37.9319c9.676-0.8577-12.4897-7.2663-18.621-8.0405
				c-25.3456-2.9015-145.3564-0.1343-181.9672-4.9453C875.317,275.5534,815.8584,257.016,787.8765,263.0042z"/>
			<g>
				<path class="st0" d="M969.9996,377.927c0,35.5263-16.4179,99.4806-16.4179,99.4806c-0.7484,2.7749-2.0015,6.3577-2.5441,8.3093
					c-0.5676,1.9593,1.2031,3.457,3.8394,3.457h43.5376c2.8594,0,5.4293-0.7743,5.698-1.8172
					c0.1387-1.0008,1.0266-4.0875,1.5227-6.5851c0,0,14.9917-66.3176,14.9917-102.8447c0-11.6234-0.7734-23.1631-1.8164-34.5677
					c-15.8546,3.0023-32.5912,5.6859-50.127,7.9562C969.3898,360.0794,969.9996,369.0286,969.9996,377.927z"/>
				<path class="st0" d="M1005.1392,272.5081c-9.7906-32.6661-24.1217-63.596-41.9271-91.6709
					c-24.5084,1.4546-43.2009-0.0887-59.6437-1.9972c-1.5434-0.1352-2.725-0.2274-3.9067-0.2739
					c21.5983,26.9811,38.9954,57.5535,51.0356,90.4858c2.3383,0.3109,4.5629,0.6812,6.7909,0.8664
					C967.6148,271.4574,984.9706,272.1386,1005.1392,272.5081z"/>
			</g>
			<path class="st0" d="M270.3186,377.927c0,36.4341,14.9452,102.8447,14.9452,102.8447c0.5426,2.4976,1.3375,5.5843,1.5226,6.5851
				c0.3402,1.043,2.88,1.8172,5.6515,1.8172h43.6556c2.6785,0,4.2469-1.4977,3.7679-3.457
				c-0.8165-1.9516-1.9094-5.5344-2.5906-8.3093c0,0-15.6686-62.0036-16.1234-97.7065
				c-17.6701-2.3124-34.7271-3.6328-50.8289-4.1297C270.3186,376.3879,270.3186,377.1191,270.3186,377.927z"/>
			<path class="st0" d="M331.3921,297.7572c9.2428-35.7029,24.4153-69.0425,44.7192-98.9294
				c-16.7839,1.5434-36.658,3.6327-63.7777,8.9027c-14.8074,27.9818-25.9131,58.2348-33.1123,90.0766
				C295.3016,296.7142,312.6996,296.7142,331.3921,297.7572z"/>
			<path class="st0" d="M439.2491,130.2347c56.0524-45.968,128.0937-73.4916,206.1311-73.4916
				c59.5767,0,115.4688,15.9425,163.5942,43.8778c13.1754-5.4078,23.8229-9.3566,30.0471-10.6768
				c11.6733-2.4976,26.6658-1.043,45.9465,2.1824C819.8537,38.6647,736.4335,6.3681,645.3802,6.3681
				c-120.7344,0-228.39,57.0066-296.9777,144.9905c18.5323-5.0891,34.9286-9.9043,45.7872-13.1297
				C407.3142,134.007,422.2852,131.3285,439.2491,130.2347z"/>
			<path class="st0" d="M842.3856,105.3896c-21.8972,4.6344-120.2375,51.1028-160.0536,70.8597
				c-0.7485,0.0922-21.985,4.9538-23.6421,5.2691c-11.8756-3.0867-173.632-55.8715-259.6393-28.3901
				c-42.2001,13.4483-169.6118,46.4262-169.6118,46.4262c-12.8558,3.7679,7.4265,5.2234,13.6714,4.5422
				c6.064-0.9086,26.9811-4.2261,51.6454-9.4031c49.6938-9.7226,77.6291-11.5398,103.929-12.9023
				c49.854-2.9515,124.3929,4.5887,184.2848,34.1139c4.4957,2.3167,6.678,4.6344,6.8124,7.7211
				c0.366,8.2671-13.3304,22.0315-18.9405,25.3911c0,0,17.5315,0.9087,28.2092-2.271c4.0875-1.1351,8.7219-1.589,14.9874-1.9972
				c8.1749-0.5469,19.5546-1.2281,36.7252-4.4492c34.6392-6.2242,50.1942-14.6722,66.6164-23.8022l1.2944-0.546
				c10.3323-5.9512,104.6326-44.0173,104.6326-44.0173c56.6406-22.7549,80.4429-0.8156,148.1272-7.8132
				c67.6335-7.1285,121.2339-26.8002,162.4797-30.1143c7.7461-0.6347-9.9034-5.8581-14.605-6.2241
				c-20.0084-2.3633-115.0571-0.2266-144.2205-4.041C911.857,115.2939,864.5979,100.6674,842.3856,105.3896z"/>
		</g>
	</g>
</g>
</svg>
