<?xml version="1.0" encoding="utf-8"?>
<!-- Generator: Adobe Illustrator 18.1.0, SVG Export Plug-In . SVG Version: 6.00 Build 0)  -->
<svg version="1.1" id="Layer_1" xmlns="http://www.w3.org/2000/svg" xmlns:xlink="http://www.w3.org/1999/xlink" x="0px" y="0px"
	 viewBox="0 0 1417.3 265.1" enable-background="new 0 0 1417.3 265.1" xml:space="preserve">
<g>
	<g>
		<path fill="#82C341" d="M1415.8,139.4c-5.1,16.4-22.1,31.8-42.5,35c3.3,5.1,4.8,11.4,4,18.4c-2.2,19-20.4,34.3-39.9,34.5
			c-13.2,0.1-31.1-5.6-43.7-25.5c-11.3-17.7-12.9-45.8-12.1-54.3c-13.8,14.1-22.4,27.8-26.5,37.3c-9.2,21.5-12.7,47.7-12.5,60
			c0,0-1.7,1.6-3.3,1.9c-5.1-0.9-9.5-2.8-12.8-5.7c-4-3.6-4.9-7-4.9-7c6.1-30.5,15.8-49.5,30.3-71.2c19.5-29.3,49.6-47.4,85.3-58.3
			c25.8-7.9,52.6-9.6,71,6C1418.1,118.7,1418.7,130.5,1415.8,139.4z M1263.8,123.2c-6.1,10.2-22.8,26.6-36,35.1
			c-27.5,17.6-47.3,18.8-57.2,12.5c-1.2-0.7-2.2-1.6-3.1-2.5c-7.7-8.1-6.4-22.5,2.6-34.3c4.4-5.8,10.1-9.9,15.6-11.8
			c-4.3-2-7.2-6.2-7.8-12.1c-1.2-11.8,7.7-27.3,20-33.6c10.8-5.5,34.1-11,51.2,14.5C1255.8,100.9,1261.8,115,1263.8,123.2
			L1263.8,123.2z M1376.8,16c-1.5-14.7-17.2-20.1-34.5-12.7c-8.2,3.5-15.4,9.4-20.5,16.1c0.8-6.7-1.1-12.6-5.9-16.1
			c-9.5-6.9-26.8-1.8-38.6,11c-4.1,4.5-17.5,20.7-18.2,44.5c-0.3,11.5,4.8,37,21.6,54.6l0,0c44.8-16.9,68.9-42.8,78.1-53.5
			c10.6-12.4,15.1-23.3,17-31.3C1377.2,22.3,1377,17.8,1376.8,16z"/>
		<path fill="#3CB14A" d="M1358.8,59.9c10.6-12.4,15.1-23.3,17-31.3c0.1-0.4,0.2-0.8,0.3-1.3c-2.2,8.9-21,31.9-47,51.5
			c-27,20.3-42.4,30.5-48.3,34.5C1325.5,96.5,1349.6,70.6,1358.8,59.9z"/>
		<path fill="#3CB14A" d="M1227.8,158.2c13.2-8.5,29.9-24.9,36-35.1l0,0c-11.8,11.2-29.2,27.9-59.1,41.1
			c-14.8,6.3-29.3,8.7-34.1,6.4C1180.5,177,1200.3,175.8,1227.8,158.2z"/>
		<path fill="#3CB14A" d="M1415.8,139.4c0.7-2.2,1.2-4.5,1.4-6.9c-1.4,9.5-7.8,21-18,27.3c-9,5.6-19.4,9.3-31.2,8.3
			c1.9,1.8,3.4,3.3,5.3,6.2l0,0l0,0C1393.7,171.2,1410.7,155.8,1415.8,139.4z"/>
		<path fill="#F9ED32" d="M1284.4,129.4L1284.4,129.4c-0.1,0.1-0.2,0.1-0.2,0.2C1284.2,129.5,1284.3,129.4,1284.4,129.4
			C1284.4,129.4,1284.4,129.4,1284.4,129.4z"/>
		<path fill="#3CB14A" d="M1284.2,129.5c-32.1,23-43,64.4-44.8,117.1l0,0c1.6-0.3,3.3-1.9,3.3-1.9c-0.2-12.3,3.3-38.4,12.5-60
			c4.1-9.5,12.7-23.2,26.5-37.3c1-9.4,2.1-14.9,2.8-18C1284.3,129.4,1284.2,129.5,1284.2,129.5z"/>
	</g>
</g>
</svg>
