<?xml version="1.0" encoding="UTF-8" standalone="no"?>
<!-- Created with Inkscape (http://www.inkscape.org/) -->

<svg
   xmlns:dc="http://purl.org/dc/elements/1.1/"
   xmlns:cc="http://creativecommons.org/ns#"
   xmlns:rdf="http://www.w3.org/1999/02/22-rdf-syntax-ns#"
   xmlns:svg="http://www.w3.org/2000/svg"
   xmlns="http://www.w3.org/2000/svg"
   xmlns:sodipodi="http://sodipodi.sourceforge.net/DTD/sodipodi-0.dtd"
   xmlns:inkscape="http://www.inkscape.org/namespaces/inkscape"
   viewBox="0 0 113.08549 17.255985"
   version="1.1"
   id="svg8"
   inkscape:version="0.92.3 (2405546, 2018-03-11)"
   sodipodi:docname="aeromexico.svg">
  <defs
     id="defs2" />
  <sodipodi:namedview
     id="base"
     pagecolor="#00ffff"
     bordercolor="#666666"
     borderopacity="1.0"
     inkscape:pageopacity="0"
     inkscape:pageshadow="2"
     inkscape:zoom="1.4"
     inkscape:cx="451.73565"
     inkscape:cy="-10.201303"
     inkscape:document-units="px"
     inkscape:current-layer="layer1"
     showgrid="false"
     fit-margin-left="0.3"
     fit-margin-top="0.3"
     fit-margin-right="0.3"
     fit-margin-bottom="0.3"
     units="px"
     inkscape:window-x="-9"
     inkscape:window-y="-9"
     inkscape:window-maximized="1" />
  <metadata
     id="metadata5">
    <rdf:RDF>
      <cc:Work
         rdf:about="">
        <dc:format>image/svg+xml</dc:format>
        <dc:type
           rdf:resource="http://purl.org/dc/dcmitype/StillImage" />
        <dc:title></dc:title>
      </cc:Work>
    </rdf:RDF>
  </metadata>
  <g
     inkscape:label="Layer 1"
     inkscape:groupmode="layer"
     id="layer1"
     transform="translate(-42.229916,-105.38279)">
    <g
       id="g10"
       transform="matrix(0.16287104,0,0,-0.16287104,42.309291,122.55951)">
      <g
         id="g12"
         transform="scale(0.1)">
        <path
           d="m 5841.01,257.578 c -18.83,0 -33.54,14.57 -33.54,34.434 0,19.48 14.71,34.215 33.54,34.215 18.73,0 33.34,-14.735 33.34,-34.215 0,-19.864 -14.61,-34.434 -33.34,-34.434 z m 0,75.512 c -22.64,0 -41.88,-17.445 -41.88,-41.078 0,-23.817 19.24,-41.203 41.88,-41.203 22.49,0 41.62,17.386 41.62,41.203 0,23.633 -19.13,41.078 -41.62,41.078 v 0"
           style="fill:#0c2f59;fill-opacity:1;fill-rule:nonzero;stroke:none"
           id="path14"
           inkscape:connector-curvature="0" />
        <path
           d="m 5832.25,294.855 v 14.665 h 9.77 c 4.98,0 10.34,-0.961 10.34,-6.954 0,-7.269 -5.36,-7.711 -11.42,-7.711 z m 15.35,-5.71 c 7,0.785 12.31,4.472 12.31,12.941 0,9.406 -5.45,13.559 -16.77,13.559 h -18.05 v -47.45 h 7.16 v 20.559 h 8.3 l 12.53,-20.559 h 8.07 l -13.55,20.95 v 0"
           style="fill:#0c2f59;fill-opacity:1;fill-rule:nonzero;stroke:none"
           id="path16"
           inkscape:connector-curvature="0" />
        <path
           d="m 923.66,732.188 c 20.906,-0.231 35.207,-6.438 46.828,-11.918 24.203,-11.481 52.542,-24.692 88.062,-41.86 0,-0.152 57.22,40.793 60.3,42.91 19.54,13.211 38.3,3.149 44.38,-8.242 21.37,-40.336 60.77,-123.992 81.57,-200.547 2.39,-9.226 -0.49,-23.386 -14.86,-27.84 -8.3,-2.324 -22.54,-4.41 -37.42,-6.289 -20.76,-2.566 -20.4,-19.382 -20.4,-29.511 0,-12.618 0.17,-97.008 0.17,-125.914 0.47,-17.719 -13.05,-75.692 -80.02,-75.692 -4.47,0 -153.407,0 -152.75,0 -57.79,-0.238 -104.247,48.664 -104.559,100.633 -0.063,34.176 0,272 0.078,298.633 0.274,51.476 46.508,86.222 88.621,85.637 v 0"
           style="fill:#0c2f59;fill-opacity:1;fill-rule:nonzero;stroke:none"
           id="path18"
           inkscape:connector-curvature="0" />
        <path
           d="M 681.98,247.285 H 185.313 v -55.156 h 582.773 c 0,0 21.148,48.781 21.148,102.809 0,2.855 0.184,374.414 0.184,374.414 0,29.496 12.008,79.468 72.695,92.679 1.672,0.364 3.371,0.731 5.121,1.055 171.966,40.605 349.226,3.637 449.306,-39.441 17.95,-8.75 22.04,5.578 21.51,11.703 2.06,84.136 -61.9,180.086 -179.52,185.843 -95.65,2.207 -148.65,-32.07 -168.061,-41.543 -1.653,-0.835 -3.981,-0.484 -6.184,1.981 -17.597,17.367 -55.215,43.418 -97.539,55.461 -6.34,1.41 -6.836,10.785 0.367,11.539 90.414,9.773 169.727,-0.598 202.667,-5.899 7.64,-1.316 13.44,3.141 10.4,10.165 -2.44,5.39 -4.26,7.773 -8.13,16.039 -8.07,17.379 -29.34,35.686 -56.4,43.276 -71.17,19.78 -192.314,36.87 -300.142,37.52 -121.438,0.76 -249.512,-23.47 -281.852,-30.84 -7.734,-1.64 -18.613,-4.45 -20.59,-4.76 -8.836,-1.79 -10.941,-10.23 -7.046,-14.31 2.316,-2.574 9.074,-8.242 12.273,-12.168 4.004,-5.039 5.816,-12.164 -1.754,-19.617 L 211.91,766.375 h 153.692 1.734 c 9.977,0.348 19.496,-8.844 19.496,-20.309 0.102,-10.304 -8.269,-20.191 -18.762,-20.191 h -1.218 -199.664 l -61.102,-55.59 h 261.375 l 1.469,0.129 c 10.285,-0.129 18.25,-10.574 18.082,-20.375 -0.078,-8.883 -7.657,-19.84 -18.082,-19.84 l -1.594,-0.168 H 61.3047 L 0.117188,574.863 H 528.047 l 1.695,-0.062 c 10.41,0 18.481,-10.766 18.535,-20.11 0.164,-10.8 -7.492,-20.472 -18.144,-20.433 H 528.699 0 v -55.156 h 527.5 l 1.586,-0.129 c 12.105,-0.118 19.191,-11.02 19.137,-20.942 -0.086,-9.304 -8.868,-19.187 -19.379,-19.187 H 527.438 0 v -55.481 h 688.637 1.676 c 11.496,-0.32 18.796,-10.168 18.472,-20.945 -0.328,-9.352 -8.062,-19.191 -18.387,-19.191 H 688.867 185.52 v -55.602 h 496.46 l 10.555,0.121 c 9.274,0 17.313,-11.555 17.313,-20.902 0,-9.395 -8.203,-19.559 -17.559,-19.559 H 681.98 v 0"
           style="fill:#0c2f59;fill-opacity:1;fill-rule:nonzero;stroke:none"
           id="path20"
           inkscape:connector-curvature="0" />
        <path
           d="M 370.828,56.6289 370.766,0.109375 c 0,0 74.632,-0.230469 117.195,0 C 592.898,0.941406 661.637,56.6289 661.637,56.6289 H 370.828 v 0"
           style="fill:#0c2f59;fill-opacity:1;fill-rule:nonzero;stroke:none"
           id="path22"
           inkscape:connector-curvature="0" />
        <path
           d="m 370.828,151.676 -0.062,-55.2893 h 337.105 c 15.531,15.8473 35.496,44.6293 40.828,55.1603 l -377.871,0.129 v 0"
           style="fill:#0c2f59;fill-opacity:1;fill-rule:nonzero;stroke:none"
           id="path24"
           inkscape:connector-curvature="0" />
        <path
           d="m 5578.91,305.918 c -3.85,-0.246 -7.56,-0.453 -11.08,-0.621 -3.54,0.168 -7.21,0.207 -11.05,0.621 -20.91,1.875 -37.44,9.344 -52.55,20.941 -4.25,3.59 -8.49,7.594 -12.61,12.286 -22.01,24.785 -33.85,67.035 -36.67,100.312 -6.44,77.816 8.99,191.52 104.56,199.125 2.44,0.234 4.78,0.234 7.27,0.234 0.24,0 0.65,0.118 1.05,0.118 0.41,0 0.71,-0.118 1.14,-0.118 2.29,0 4.75,0 7.07,-0.234 95.66,-7.605 111.22,-121.309 104.8,-199.125 -2.81,-33.277 -13.55,-74.668 -36.74,-100.312 -4.21,-4.692 -8.45,-8.696 -12.58,-12.286 -15.22,-11.597 -33.06,-19.433 -52.61,-20.941 z m 228.7,187.227 c -0.08,1.058 -0.2,1.918 -0.32,3.097 -1.92,42.832 -16.13,81.246 -36.22,110.988 -41.8,65.512 -115.08,100.872 -203.24,99.704 -88.09,1.168 -161.42,-34.192 -203.27,-99.704 -20.05,-29.742 -34.3,-68.156 -36.25,-110.988 -0.09,-1.179 -0.24,-2.039 -0.33,-3.097 -11.93,-143.793 71.85,-243.25 214.75,-254.758 8.62,-0.699 16.86,-1.024 25.1,-0.942 8.21,-0.082 16.62,0.243 25.16,0.942 142.85,11.508 226.67,110.965 214.62,254.758 v 0"
           style="fill:#0c2f59;fill-opacity:1;fill-rule:nonzero;stroke:none"
           id="path26"
           inkscape:connector-curvature="0" />
        <path
           d="m 4857.54,600.145 c 0,35.566 3.43,98.117 3.43,98.117 h -0.04 -117.05 -0.21 c 0,0 3.56,-62.551 3.56,-98.117 l -0.25,-256.309 c 0,-35.641 -3.31,-96.098 -3.31,-96.098 h 0.37 116.72 0.21 c 0,0 -3.15,60.457 -3.15,96.098 l -0.28,256.309 v 0"
           style="fill:#0c2f59;fill-opacity:1;fill-rule:nonzero;stroke:none"
           id="path28"
           inkscape:connector-curvature="0" />
        <path
           d="m 4173.33,317.387 c -24.58,0 -56.63,0 -81.49,-0.121 -1.15,45.277 -1.63,89.043 -1.72,128.722 l -0.25,6.207 h 0.13 c 0,0.45 0,0.739 0,1.063 h 135.29 v 63.734 h -135.08 c 0.32,68.61 1.63,113.699 1.63,113.699 l 167.88,0.039 v 67.61 c -117.26,-0.43 -286.89,0 -286.89,0 0,0 2.48,-62.203 2.48,-97.777 V 344.734 c 0,-32.535 -2,-87.855 -2.4,-96.918 h 297.87 l 0.32,71.45 c 0,0 -58.66,-1.879 -97.77,-1.879 v 0"
           style="fill:#0c2f59;fill-opacity:1;fill-rule:nonzero;stroke:none"
           id="path30"
           inkscape:connector-curvature="0" />
        <path
           d="m 2220.29,317.387 c -24.46,0 -56.73,0 -81.55,-0.121 -1.11,45.277 -1.59,89.043 -1.8,128.722 l -0.08,6.207 h 0.08 c 0,0.45 0,0.739 0,1.063 h 135.28 v 63.734 h -135.07 c 0.36,68.61 1.59,113.699 1.59,113.699 l 167.98,0.039 v 67.61 c -117.35,-0.43 -286.87,0 -286.87,0 0,0 2.49,-62.203 2.49,-97.777 V 344.734 c 0,-32.535 -2.04,-87.855 -2.39,-96.918 h 297.87 l 0.25,71.45 c 0,0 -58.67,-1.879 -97.78,-1.879 v 0"
           style="fill:#0c2f59;fill-opacity:1;fill-rule:nonzero;stroke:none"
           id="path32"
           inkscape:connector-curvature="0" />
        <path
           d="m 4556.69,490.082 129.26,208.18 h -89.58 l -0.65,-1.989 c -27.16,-46.804 -60.92,-103.55 -74.39,-124.375 l -5.18,-8.332 -75,134.696 h -134.61 l 129.83,-233.16 -135.26,-217.364 h 89.09 c 57.55,98.594 87.4,143.867 87.4,143.867 l 80.27,-143.867 h 134.16 l -135.34,242.344 v 0"
           style="fill:#0c2f59;fill-opacity:1;fill-rule:nonzero;stroke:none"
           id="path34"
           inkscape:connector-curvature="0" />
        <path
           d="m 5223.02,308.934 c -104.27,0 -160.45,76.632 -157.63,170.984 2.53,82.141 40.01,151.996 129.53,157.977 34.35,2.285 62.27,-3.629 110.4,-16.512 l -4.9,70.402 c 0,0 -40.78,13.024 -99.17,15.25 -74.26,2.817 -141.5,-11.457 -195.1,-60.953 -47.73,-43.832 -76.18,-108.719 -76.18,-171.676 0,-69.695 28.66,-133.871 82.42,-178.367 55.94,-47.234 115.99,-57.973 187.4,-57.973 46.79,0 74.29,3.133 119.74,15.508 l -6.66,69.074 c -9.83,-3.257 -42.69,-13.714 -89.85,-13.714 v 0"
           style="fill:#0c2f59;fill-opacity:1;fill-rule:nonzero;stroke:none"
           id="path36"
           inkscape:connector-curvature="0" />
        <path
           d="m 3718.19,765.906 h 130.53 l 3.66,-30.144 c 29.12,-300.957 47.03,-488.235 47.03,-488.235 h -135.89 l -13.44,186.496 -12.5,166.657 -115.14,-352.864 c -30.36,-0.078 -72.72,0 -72.72,0 0,0 -36.46,125.379 -43.09,142.813 l -65.94,211.684 c 0,0 -10.2,-117.829 -14.04,-168.165 -8,-101.046 -15.02,-186.621 -15.02,-186.621 h -101.42 c 0,0 41.53,421.5 44.66,447.118 3.17,26.375 8.13,71.261 8.13,71.261 h 133.28 l 110.41,-303.465 111.5,303.465 v 0"
           style="fill:#0c2f59;fill-opacity:1;fill-rule:nonzero;stroke:none"
           id="path38"
           inkscape:connector-curvature="0" />
        <path
           d="m 3027.73,306.203 c -3.71,-0.414 -7.34,-0.492 -10.87,-0.531 -3.64,0.039 -7.23,0.039 -11.07,0.531 -20.93,1.914 -37.28,9.27 -52.4,20.86 -4.33,3.386 -8.41,7.632 -12.59,12.121 -21.84,24.66 -33.69,66.757 -36.49,100.07 -6.45,77.32 9.11,190.492 104.21,198.055 2.43,0.093 4.78,0.296 7.17,0.296 0.35,0 0.74,0.172 1.17,0 0.25,0.172 0.71,0 0.97,0 2.35,0 4.78,-0.203 7.21,-0.296 95.05,-7.563 110.66,-120.735 104.11,-198.055 -2.72,-33.313 -13.48,-74.465 -36.52,-100.07 -4.17,-4.489 -8.31,-8.735 -12.55,-12.121 -15.03,-11.59 -32.77,-19.348 -52.35,-20.86 z m 227.86,186.285 c -0.13,1.067 -0.35,2.125 -0.41,2.981 -1.85,42.949 -16.01,81.082 -36.11,110.722 -41.53,65.278 -114.5,100.375 -202.21,99.196 -87.93,1.179 -160.88,-33.918 -202.47,-99.196 -19.88,-29.64 -34.14,-67.773 -36.03,-110.722 -0.03,-0.856 -0.28,-1.914 -0.28,-2.981 -12.04,-143.136 71.47,-242.175 213.69,-253.656 8.47,-0.57 16.75,-0.766 25.09,-0.766 8.1,0 16.45,0.196 24.98,0.766 142.12,11.481 225.69,110.52 213.75,253.656 v 0"
           style="fill:#0c2f59;fill-opacity:1;fill-rule:nonzero;stroke:none"
           id="path40"
           inkscape:connector-curvature="0" />
        <path
           d="m 1659.55,468.324 56.4,167.813 3.36,9.883 59.05,-177.696 z m 332.07,-220.508 c -3.98,9.27 -28.11,66.383 -45.81,112.477 l -152.32,405.613 h -118.6 c 0,0 -33.71,-95.125 -38.57,-110.804 l -111.23,-314.45 c -14.45,-40.211 -34.74,-92.914 -34.74,-92.914 h 96.78 c 0,0 27.38,87.403 33.03,103.207 l 14.92,43.641 h 167.74 l 22.78,-66.508 c 4.86,-12.449 24.65,-79.273 25.03,-80.262 h 140.99 v 0"
           style="fill:#0c2f59;fill-opacity:1;fill-rule:nonzero;stroke:none"
           id="path42"
           inkscape:connector-curvature="0" />
        <path
           d="m 2577.05,499.223 c -17.46,-9.02 -56.91,-6.524 -76.41,-5.379 l 1.49,128.828 10.88,0.691 c 35.91,2.871 62.11,-1.98 72.86,-6.84 16.13,-7.085 25.52,-22.171 26.4,-47.668 1.36,-37.945 -13.07,-58.238 -35.22,-69.632 z m 206.97,-251.485 c -28.02,40.254 -38.36,56.871 -59.91,86.309 l -80.76,125.492 c 38.87,19.195 75.37,51.367 80.93,118.688 3.42,42.109 -19.07,76.957 -32.45,88.796 -19.45,17.313 -38.35,24.332 -65.25,27.622 -21.64,2.796 -37.2,2.957 -50.18,3.734 h -190.23 c 0,0 2.24,-62.242 2.24,-97.883 V 345.762 c 0,-35.762 -2.24,-97.946 -2.24,-97.946 h 117.02 c 0,0 -3.42,62.184 -3.42,97.946 l 0.87,81.691 c 0,0 25.48,0 43.41,-0.203 l 74.01,-135.668 c 9.95,-17.266 24.34,-38.906 27.74,-43.844 h 138.22 v 0"
           style="fill:#0c2f59;fill-opacity:1;fill-rule:nonzero;stroke:none"
           id="path44"
           inkscape:connector-curvature="0" />
        <path
           d="m 6743.09,936.602 -4.92,2.246 1.21,2.679 13.32,-6 -1.27,-2.687 -4.93,2.215 -6.47,-14.465 -3.44,1.527 6.5,14.485 v 0"
           style="fill:#1b458f;fill-opacity:1;fill-rule:nonzero;stroke:none"
           id="path46"
           inkscape:connector-curvature="0" />
        <path
           d="m 6755.26,934.445 5.47,-2.629 -2.27,-14.781 0.04,-0.043 10.29,10.863 5.42,-2.675 -8.25,-16.922 -3.23,1.609 6.81,13.949 h -0.03 l -11.38,-11.703 -3.24,1.617 2.26,16.165 -0.08,-0.012 -6.82,-13.922 -3.22,1.582 8.23,16.902 v 0"
           style="fill:#1b458f;fill-opacity:1;fill-rule:nonzero;stroke:none"
           id="path48"
           inkscape:connector-curvature="0" />
        <path
           d="m 6795.42,787.953 -0.38,-0.437 c 64.41,-64.739 106.81,-152.051 113.67,-250.286 15.15,-217.042 -148.45,-405.285 -365.49,-420.449 -101.95,-7.136 -197.62,25.227 -271.91,84.09 l -0.39,-0.43 c 77.04,-71.875 182.64,-112.8707 296.12,-104.9605 217.04,15.1875 380.67,203.4685 365.49,420.4805 -7.73,109.695 -59.58,205.742 -137.11,271.992 v 0"
           style="fill:#1b458f;fill-opacity:1;fill-rule:nonzero;stroke:none"
           id="path50"
           inkscape:connector-curvature="0" />
        <path
           d="m 6097.18,340.031 c -12.49,-6.98 -15.35,-17.515 -8.88,-33.738 5.92,-14.773 15.21,-21.184 25.14,-17.234 7.95,3.164 9.3,10.027 5.99,27.808 l -1.45,6.899 c -3.22,17.527 -3.78,25.047 -1.65,32.566 2.01,8.43 6.88,13.984 14.27,16.926 17.83,7.117 34.67,-3.828 44.71,-28.965 10.79,-27.102 5,-47.48 -16.09,-56.289 l -5.29,13.23 c 14.68,6.407 18.37,20.157 10.54,39.805 -6.43,16.094 -16.64,23.184 -27.41,18.899 -8.64,-3.489 -10.72,-11.528 -7.51,-29.766 l 1.24,-7.609 1.17,-6.75 c 2.33,-13.575 2.58,-18.329 1.28,-24.098 -1.74,-7.168 -6.34,-12.434 -13.75,-15.41 -16.69,-6.692 -32.75,3.14 -41.8,25.758 -9.77,24.445 -4.54,42.66 14.26,51.039 l 5.23,-13.071 v 0"
           style="fill:#1b458f;fill-opacity:1;fill-rule:nonzero;stroke:none"
           id="path52"
           inkscape:connector-curvature="0" />
        <path
           d="m 6086.04,482.25 59.79,50.352 0.39,-18.582 -50.64,-41.946 16.43,-18.105 35.51,0.801 0.33,-14.61 -101.59,-2.258 -0.31,14.614 39.99,0.886 5.47,-0.058 5.2,0.144 -3.45,3.575 -3.46,3.632 -44.96,48.52 -0.47,19.265 41.77,-46.23 v 0"
           style="fill:#1b458f;fill-opacity:1;fill-rule:nonzero;stroke:none"
           id="path54"
           inkscape:connector-curvature="0" />
        <path
           d="m 6131.02,639.563 39.18,-13.727 -4.85,-13.82 -39.14,13.808 -70.22,-21.191 5.91,16.789 43.58,12.156 5.37,1.504 c 2.17,0.676 3.58,0.891 7.41,1.688 -3.45,4.043 -4.24,5.023 -7.79,10.031 l -26.89,36.355 5.58,16.008 41.86,-59.601 v 0"
           style="fill:#1b458f;fill-opacity:1;fill-rule:nonzero;stroke:none"
           id="path56"
           inkscape:connector-curvature="0" />
        <path
           d="m 6199.79,826.039 -21.46,-26.25 64.08,-52.449 -15.41,-18.852 -64.11,52.5 -21.39,-26.121 -14.51,11.903 58.26,71.132 14.54,-11.863 v 0"
           style="fill:#1b458f;fill-opacity:1;fill-rule:nonzero;stroke:none"
           id="path58"
           inkscape:connector-curvature="0" />
        <path
           d="m 6336.88,922.316 -51.27,-29.961 10.92,-18.699 47.09,27.496 8.78,-14.992 -47.09,-27.515 12.67,-21.598 52.26,30.574 9.44,-16.211 -73.24,-42.844 -51.37,87.692 72.33,42.269 9.48,-16.211 v 0"
           style="fill:#1b458f;fill-opacity:1;fill-rule:nonzero;stroke:none"
           id="path60"
           inkscape:connector-curvature="0" />
        <path
           d="m 6475.44,935.246 c -5.55,9.305 -7.75,13.422 -10.94,20.656 -0.95,-7.234 -1.9,-12.621 -4.32,-23.105 l -4.24,-19.356 29.51,4.715 z m 58.09,-52.371 -26.6,-1.707 -13.11,21.957 -40.97,-6.539 -5.74,-25.02 -25.31,-6.523 26.74,111.031 25.01,3.973 59.98,-97.172 v 0"
           style="fill:#1b458f;fill-opacity:1;fill-rule:nonzero;stroke:none"
           id="path62"
           inkscape:connector-curvature="0" />
        <path
           d="m 6696.73,850.363 -21.41,8.149 8.14,30.179 c 0.92,3.547 2.2,8.422 4.02,14.559 1.68,6.371 3.14,11.324 4.25,14.969 1.29,4.097 2.57,8.344 3.92,12.722 l 2.44,7.231 c -6.02,-10.262 -8.38,-13.879 -13.89,-22.211 -2.32,-3.66 -4.49,-6.707 -6.25,-9.254 l -28.82,-40.387 -18.5,4.868 -5.79,48.558 c -0.44,2.445 -0.67,5.988 -1,10.805 -0.33,6.41 -0.71,11.219 -0.85,14.597 -0.11,2.707 -0.11,6.809 -0.05,12.293 l -2.51,-12.261 c -3.01,-13.383 -4.33,-19.2 -8.42,-35.153 l -8.43,-32.718 -22.5,3.527 25.47,99.363 34.13,-6.601 4.85,-47.008 c 1.26,-11.039 1.42,-20.254 0.97,-33.348 3.84,7.461 5.21,9.981 9.63,16.828 2.96,4.629 5.52,8.465 7.82,12.004 l 26.75,38.399 32.43,-11 -26.4,-99.11 v 0"
           style="fill:#1b458f;fill-opacity:1;fill-rule:nonzero;stroke:none"
           id="path64"
           inkscape:connector-curvature="0" />
        <path
           d="m 6694.36,522.648 c 29.27,19.731 53.7,30.293 68.84,29.77 8.98,-0.332 19.71,-3.02 19.71,-14.105 0,-11.375 -10.85,-20.926 -32.07,-28.497 -18.58,-6.668 -47.16,-8.347 -78.32,-4.832 8.57,7.762 15.74,13.575 21.84,17.664 z m -412.14,-36.113 c -18.25,1.25 -27.15,8.637 -27.15,22.59 0,1.863 1.24,46.289 103.07,51.406 11.62,0.606 24.64,0.969 44.39,-1.277 -0.84,-0.039 -11.55,-9.856 -11.55,-9.856 l -6.35,-5.761 c -24.59,-22.266 -65.7,-59.59 -102.41,-57.102 z m 220.32,168.149 c -12.35,-10.801 -36.74,-34.243 -60.32,-56.868 l -26.7,-25.593 c -21.85,3.965 -43.39,5.82 -65.55,5.82 -49.55,0 -94.86,-13.613 -115.48,-34.688 -7.9,-8.097 -11.8,-16.847 -11.61,-26.105 0.5,-23.906 27.91,-35.977 36.29,-39.094 43.92,-16.402 80.83,-11.66 119.56,15.442 21.39,14.98 47.19,39.062 67.24,58.293 15.63,-3.625 33.42,-8.196 52.43,-13.801 l 17.64,-5.176 c -22.83,-22.336 -46.23,-46.055 -67.94,-65.184 l -1.64,-1.496 c -30.2,-26.589 -52.04,-45.832 -83.51,-52.832 -22.21,-4.922 -37.97,-0.293 -43.12,2.942 -0.48,-0.09 -1.22,-0.996 -1.22,-0.996 18.27,-15.012 35.54,-23.555 65.24,-20.996 28.3,2.461 60.95,20.308 94.44,51.558 l 45.15,44.348 31.59,31.394 c 0,-0.203 63.9,-18.757 63.9,-18.757 0.51,-0.149 1.17,-0.34 1.17,-0.34 -0.66,0 -39.53,-38.489 -39.53,-38.489 l -33.98,-33.796 c -34.84,-33.79 -53.75,-51.348 -74.03,-65.735 -33.7,-23.847 -62.4,-36.262 -87.84,-37.969 -13.07,-0.832 -32.02,0.059 -47.84,9.317 -0.72,0.144 -1.67,-0.711 -1.67,-0.711 17.19,-14.731 38.26,-32.309 74.46,-31.281 41.03,1.113 77.28,20.839 133.83,72.8 25.78,23.645 51.36,50.09 73.99,73.481 l 41.93,42.547 c 27.68,-6.184 52.38,-8.645 79.72,-8.098 39.82,0.774 73.78,19.856 74.24,41.606 0.32,16.089 -12.89,24.695 -20.78,29.8 -6.56,4.289 -24.36,14.172 -48.95,14.172 -29.84,0 -60.96,-13.183 -92.53,-39.14 l -21.03,-18.536 c 0.22,0.149 -7.71,2.122 -7.71,2.122 L 6563.93,531 c 17.21,16.125 31.91,29.941 45.17,41.699 31.97,28.438 67.36,40.125 88.02,41.477 15.04,0.972 41.37,-0.332 52.18,-7.981 0.51,0.059 1.2,1.16 1.2,1.16 -28.77,24.668 -53.67,27.903 -74.23,27.903 -20.19,0 -52.69,-6.477 -92.42,-37.254 -16.23,-12.57 -37.26,-33.574 -59.33,-55.766 0,0.141 -29.56,9.082 -29.56,9.082 l -7.15,2.27 c 0,0 -31.04,9.414 -31.07,9.414 0.68,0 17.72,16.695 17.72,16.695 20.93,20.52 40.73,39.934 56.16,52.922 56.08,47.195 91.36,53.352 115.93,53.438 26.92,0.109 48.26,-5.411 63.51,-16.446 0.46,0.071 1.15,1.075 1.15,1.075 -31.5,28.476 -54.13,37.578 -93.24,37.902 -34.32,0.23 -75.34,-18.879 -115.43,-53.906 v 0"
           style="fill:#1b458f;fill-opacity:1;fill-rule:nonzero;stroke:none"
           id="path66"
           inkscape:connector-curvature="0" />
        <path
           d="m 3322.46,14.7695 c 0,0 205,167.5005 722.5,167.5005 390,0 623.75,-124.5864 1079.79,-124.5864 410.21,0 684,140.9574 684,140.9574 0,0 -240.45,-187.6215 -722.95,-187.6215 -482.5,0 -636.35,126.2505 -1112.97,126.2505 -476.62,0 -650.37,-122.5005 -650.37,-122.5005"
           style="fill:#e41d25;fill-opacity:1;fill-rule:nonzero;stroke:none"
           id="path68"
           inkscape:connector-curvature="0" />
      </g>
    </g>
  </g>
</svg>
