<?xml version="1.0" encoding="UTF-8" standalone="no"?>
<svg
   xmlns:dc="http://purl.org/dc/elements/1.1/"
   xmlns:cc="http://creativecommons.org/ns#"
   xmlns:rdf="http://www.w3.org/1999/02/22-rdf-syntax-ns#"
   xmlns:svg="http://www.w3.org/2000/svg"
   xmlns="http://www.w3.org/2000/svg"
   xmlns:sodipodi="http://sodipodi.sourceforge.net/DTD/sodipodi-0.dtd"
   xmlns:inkscape="http://www.inkscape.org/namespaces/inkscape"
   viewBox="0 0 113.08549 17.255985"
   version="1.1"
   id="svg8"
   inkscape:version="1.0beta2 (2b71d25, 2019-12-03)"
   sodipodi:docname="aeromexico.svg">
  <defs
     id="defs2" />
  <sodipodi:namedview
     id="base"
     pagecolor="#00ffff"
     bordercolor="#666666"
     borderopacity="1.0"
     inkscape:pageopacity="0"
     inkscape:pageshadow="2"
     inkscape:zoom="2.8986028"
     inkscape:cx="93.689908"
     inkscape:cy="8.2936926"
     inkscape:document-units="px"
     inkscape:current-layer="layer1"
     showgrid="false"
     fit-margin-left="0.3"
     fit-margin-top="0.3"
     fit-margin-right="0.3"
     fit-margin-bottom="0.3"
     units="px"
     inkscape:window-x="0"
     inkscape:window-y="23"
     inkscape:window-maximized="0"
     inkscape:document-rotation="0"
     inkscape:window-width="1600"
     inkscape:window-height="880" />
  <metadata
     id="metadata5">
    <rdf:RDF>
      <cc:Work
         rdf:about="">
        <dc:format>image/svg+xml</dc:format>
        <dc:type
           rdf:resource="http://purl.org/dc/dcmitype/StillImage" />
        <dc:title />
      </cc:Work>
    </rdf:RDF>
  </metadata>
  <g
     inkscape:label="Layer 1"
     inkscape:groupmode="layer"
     id="layer1"
     transform="translate(-42.229916,-105.38279)">
    <g
       id="g10"
       transform="matrix(0.16287104,0,0,-0.16287104,50.309291,122.55951)">
      <g
         id="g12"
         transform="scale(0.1)">
        <path
           d="m 923.66,732.188 c 20.906,-0.231 35.207,-6.438 46.828,-11.918 24.203,-11.481 52.542,-24.692 88.062,-41.86 0,-0.152 57.22,40.793 60.3,42.91 19.54,13.211 38.3,3.149 44.38,-8.242 21.37,-40.336 60.77,-123.992 81.57,-200.547 2.39,-9.226 -0.49,-23.386 -14.86,-27.84 -8.3,-2.324 -22.54,-4.41 -37.42,-6.289 -20.76,-2.566 -20.4,-19.382 -20.4,-29.511 0,-12.618 0.17,-97.008 0.17,-125.914 0.47,-17.719 -13.05,-75.692 -80.02,-75.692 -4.47,0 -153.407,0 -152.75,0 -57.79,-0.238 -104.247,48.664 -104.559,100.633 -0.063,34.176 0,272 0.078,298.633 0.274,51.476 46.508,86.222 88.621,85.637 v 0"
           style="fill:#0c2f59;fill-opacity:1;fill-rule:nonzero;stroke:none"
           id="path18"
           inkscape:connector-curvature="0" />
        <path
           d="M 681.98,247.285 H 185.313 v -55.156 h 582.773 c 0,0 21.148,48.781 21.148,102.809 0,2.855 0.184,374.414 0.184,374.414 0,29.496 12.008,79.468 72.695,92.679 1.672,0.364 3.371,0.731 5.121,1.055 171.966,40.605 349.226,3.637 449.306,-39.441 17.95,-8.75 22.04,5.578 21.51,11.703 2.06,84.136 -61.9,180.086 -179.52,185.843 -95.65,2.207 -148.65,-32.07 -168.061,-41.543 -1.653,-0.835 -3.981,-0.484 -6.184,1.981 -17.597,17.367 -55.215,43.418 -97.539,55.461 -6.34,1.41 -6.836,10.785 0.367,11.539 90.414,9.773 169.727,-0.598 202.667,-5.899 7.64,-1.316 13.44,3.141 10.4,10.165 -2.44,5.39 -4.26,7.773 -8.13,16.039 -8.07,17.379 -29.34,35.686 -56.4,43.276 -71.17,19.78 -192.314,36.87 -300.142,37.52 -121.438,0.76 -249.512,-23.47 -281.852,-30.84 -7.734,-1.64 -18.613,-4.45 -20.59,-4.76 -8.836,-1.79 -10.941,-10.23 -7.046,-14.31 2.316,-2.574 9.074,-8.242 12.273,-12.168 4.004,-5.039 5.816,-12.164 -1.754,-19.617 L 211.91,766.375 h 153.692 1.734 c 9.977,0.348 19.496,-8.844 19.496,-20.309 0.102,-10.304 -8.269,-20.191 -18.762,-20.191 h -1.218 -199.664 l -61.102,-55.59 h 261.375 l 1.469,0.129 c 10.285,-0.129 18.25,-10.574 18.082,-20.375 -0.078,-8.883 -7.657,-19.84 -18.082,-19.84 l -1.594,-0.168 H 61.3047 L 0.117188,574.863 H 528.047 l 1.695,-0.062 c 10.41,0 18.481,-10.766 18.535,-20.11 0.164,-10.8 -7.492,-20.472 -18.144,-20.433 H 528.699 0 v -55.156 h 527.5 l 1.586,-0.129 c 12.105,-0.118 19.191,-11.02 19.137,-20.942 -0.086,-9.304 -8.868,-19.187 -19.379,-19.187 H 527.438 0 v -55.481 h 688.637 1.676 c 11.496,-0.32 18.796,-10.168 18.472,-20.945 -0.328,-9.352 -8.062,-19.191 -18.387,-19.191 H 688.867 185.52 v -55.602 h 496.46 l 10.555,0.121 c 9.274,0 17.313,-11.555 17.313,-20.902 0,-9.395 -8.203,-19.559 -17.559,-19.559 H 681.98 v 0"
           style="fill:#0c2f59;fill-opacity:1;fill-rule:nonzero;stroke:none"
           id="path20"
           inkscape:connector-curvature="0" />
        <path
           d="M 370.828,56.6289 370.766,0.109375 c 0,0 74.632,-0.230469 117.195,0 C 592.898,0.941406 661.637,56.6289 661.637,56.6289 H 370.828 v 0"
           style="fill:#0c2f59;fill-opacity:1;fill-rule:nonzero;stroke:none"
           id="path22"
           inkscape:connector-curvature="0" />
        <path
           d="m 370.828,151.676 -0.062,-55.2893 h 337.105 c 15.531,15.8473 35.496,44.6293 40.828,55.1603 l -377.871,0.129 v 0"
           style="fill:#0c2f59;fill-opacity:1;fill-rule:nonzero;stroke:none"
           id="path24"
           inkscape:connector-curvature="0" />
        <path
           d="m 5578.91,305.918 c -3.85,-0.246 -7.56,-0.453 -11.08,-0.621 -3.54,0.168 -7.21,0.207 -11.05,0.621 -20.91,1.875 -37.44,9.344 -52.55,20.941 -4.25,3.59 -8.49,7.594 -12.61,12.286 -22.01,24.785 -33.85,67.035 -36.67,100.312 -6.44,77.816 8.99,191.52 104.56,199.125 2.44,0.234 4.78,0.234 7.27,0.234 0.24,0 0.65,0.118 1.05,0.118 0.41,0 0.71,-0.118 1.14,-0.118 2.29,0 4.75,0 7.07,-0.234 95.66,-7.605 111.22,-121.309 104.8,-199.125 -2.81,-33.277 -13.55,-74.668 -36.74,-100.312 -4.21,-4.692 -8.45,-8.696 -12.58,-12.286 -15.22,-11.597 -33.06,-19.433 -52.61,-20.941 z m 228.7,187.227 c -0.08,1.058 -0.2,1.918 -0.32,3.097 -1.92,42.832 -16.13,81.246 -36.22,110.988 -41.8,65.512 -115.08,100.872 -203.24,99.704 -88.09,1.168 -161.42,-34.192 -203.27,-99.704 -20.05,-29.742 -34.3,-68.156 -36.25,-110.988 -0.09,-1.179 -0.24,-2.039 -0.33,-3.097 -11.93,-143.793 71.85,-243.25 214.75,-254.758 8.62,-0.699 16.86,-1.024 25.1,-0.942 8.21,-0.082 16.62,0.243 25.16,0.942 142.85,11.508 226.67,110.965 214.62,254.758 v 0"
           style="fill:#0c2f59;fill-opacity:1;fill-rule:nonzero;stroke:none"
           id="path26"
           inkscape:connector-curvature="0" />
        <path
           d="m 4857.54,600.145 c 0,35.566 3.43,98.117 3.43,98.117 h -0.04 -117.05 -0.21 c 0,0 3.56,-62.551 3.56,-98.117 l -0.25,-256.309 c 0,-35.641 -3.31,-96.098 -3.31,-96.098 h 0.37 116.72 0.21 c 0,0 -3.15,60.457 -3.15,96.098 l -0.28,256.309 v 0"
           style="fill:#0c2f59;fill-opacity:1;fill-rule:nonzero;stroke:none"
           id="path28"
           inkscape:connector-curvature="0" />
        <path
           d="m 4173.33,317.387 c -24.58,0 -56.63,0 -81.49,-0.121 -1.15,45.277 -1.63,89.043 -1.72,128.722 l -0.25,6.207 h 0.13 c 0,0.45 0,0.739 0,1.063 h 135.29 v 63.734 h -135.08 c 0.32,68.61 1.63,113.699 1.63,113.699 l 167.88,0.039 v 67.61 c -117.26,-0.43 -286.89,0 -286.89,0 0,0 2.48,-62.203 2.48,-97.777 V 344.734 c 0,-32.535 -2,-87.855 -2.4,-96.918 h 297.87 l 0.32,71.45 c 0,0 -58.66,-1.879 -97.77,-1.879 v 0"
           style="fill:#0c2f59;fill-opacity:1;fill-rule:nonzero;stroke:none"
           id="path30"
           inkscape:connector-curvature="0" />
        <path
           d="m 2220.29,317.387 c -24.46,0 -56.73,0 -81.55,-0.121 -1.11,45.277 -1.59,89.043 -1.8,128.722 l -0.08,6.207 h 0.08 c 0,0.45 0,0.739 0,1.063 h 135.28 v 63.734 h -135.07 c 0.36,68.61 1.59,113.699 1.59,113.699 l 167.98,0.039 v 67.61 c -117.35,-0.43 -286.87,0 -286.87,0 0,0 2.49,-62.203 2.49,-97.777 V 344.734 c 0,-32.535 -2.04,-87.855 -2.39,-96.918 h 297.87 l 0.25,71.45 c 0,0 -58.67,-1.879 -97.78,-1.879 v 0"
           style="fill:#0c2f59;fill-opacity:1;fill-rule:nonzero;stroke:none"
           id="path32"
           inkscape:connector-curvature="0" />
        <path
           d="m 4556.69,490.082 129.26,208.18 h -89.58 l -0.65,-1.989 c -27.16,-46.804 -60.92,-103.55 -74.39,-124.375 l -5.18,-8.332 -75,134.696 h -134.61 l 129.83,-233.16 -135.26,-217.364 h 89.09 c 57.55,98.594 87.4,143.867 87.4,143.867 l 80.27,-143.867 h 134.16 l -135.34,242.344 v 0"
           style="fill:#0c2f59;fill-opacity:1;fill-rule:nonzero;stroke:none"
           id="path34"
           inkscape:connector-curvature="0" />
        <path
           d="m 5223.02,308.934 c -104.27,0 -160.45,76.632 -157.63,170.984 2.53,82.141 40.01,151.996 129.53,157.977 34.35,2.285 62.27,-3.629 110.4,-16.512 l -4.9,70.402 c 0,0 -40.78,13.024 -99.17,15.25 -74.26,2.817 -141.5,-11.457 -195.1,-60.953 -47.73,-43.832 -76.18,-108.719 -76.18,-171.676 0,-69.695 28.66,-133.871 82.42,-178.367 55.94,-47.234 115.99,-57.973 187.4,-57.973 46.79,0 74.29,3.133 119.74,15.508 l -6.66,69.074 c -9.83,-3.257 -42.69,-13.714 -89.85,-13.714 v 0"
           style="fill:#0c2f59;fill-opacity:1;fill-rule:nonzero;stroke:none"
           id="path36"
           inkscape:connector-curvature="0" />
        <path
           d="m 3718.19,765.906 h 130.53 l 3.66,-30.144 c 29.12,-300.957 47.03,-488.235 47.03,-488.235 h -135.89 l -13.44,186.496 -12.5,166.657 -115.14,-352.864 c -30.36,-0.078 -72.72,0 -72.72,0 0,0 -36.46,125.379 -43.09,142.813 l -65.94,211.684 c 0,0 -10.2,-117.829 -14.04,-168.165 -8,-101.046 -15.02,-186.621 -15.02,-186.621 h -101.42 c 0,0 41.53,421.5 44.66,447.118 3.17,26.375 8.13,71.261 8.13,71.261 h 133.28 l 110.41,-303.465 111.5,303.465 v 0"
           style="fill:#0c2f59;fill-opacity:1;fill-rule:nonzero;stroke:none"
           id="path38"
           inkscape:connector-curvature="0" />
        <path
           d="m 3027.73,306.203 c -3.71,-0.414 -7.34,-0.492 -10.87,-0.531 -3.64,0.039 -7.23,0.039 -11.07,0.531 -20.93,1.914 -37.28,9.27 -52.4,20.86 -4.33,3.386 -8.41,7.632 -12.59,12.121 -21.84,24.66 -33.69,66.757 -36.49,100.07 -6.45,77.32 9.11,190.492 104.21,198.055 2.43,0.093 4.78,0.296 7.17,0.296 0.35,0 0.74,0.172 1.17,0 0.25,0.172 0.71,0 0.97,0 2.35,0 4.78,-0.203 7.21,-0.296 95.05,-7.563 110.66,-120.735 104.11,-198.055 -2.72,-33.313 -13.48,-74.465 -36.52,-100.07 -4.17,-4.489 -8.31,-8.735 -12.55,-12.121 -15.03,-11.59 -32.77,-19.348 -52.35,-20.86 z m 227.86,186.285 c -0.13,1.067 -0.35,2.125 -0.41,2.981 -1.85,42.949 -16.01,81.082 -36.11,110.722 -41.53,65.278 -114.5,100.375 -202.21,99.196 -87.93,1.179 -160.88,-33.918 -202.47,-99.196 -19.88,-29.64 -34.14,-67.773 -36.03,-110.722 -0.03,-0.856 -0.28,-1.914 -0.28,-2.981 -12.04,-143.136 71.47,-242.175 213.69,-253.656 8.47,-0.57 16.75,-0.766 25.09,-0.766 8.1,0 16.45,0.196 24.98,0.766 142.12,11.481 225.69,110.52 213.75,253.656 v 0"
           style="fill:#0c2f59;fill-opacity:1;fill-rule:nonzero;stroke:none"
           id="path40"
           inkscape:connector-curvature="0" />
        <path
           d="m 1659.55,468.324 56.4,167.813 3.36,9.883 59.05,-177.696 z m 332.07,-220.508 c -3.98,9.27 -28.11,66.383 -45.81,112.477 l -152.32,405.613 h -118.6 c 0,0 -33.71,-95.125 -38.57,-110.804 l -111.23,-314.45 c -14.45,-40.211 -34.74,-92.914 -34.74,-92.914 h 96.78 c 0,0 27.38,87.403 33.03,103.207 l 14.92,43.641 h 167.74 l 22.78,-66.508 c 4.86,-12.449 24.65,-79.273 25.03,-80.262 h 140.99 v 0"
           style="fill:#0c2f59;fill-opacity:1;fill-rule:nonzero;stroke:none"
           id="path42"
           inkscape:connector-curvature="0" />
        <path
           d="m 2577.05,499.223 c -17.46,-9.02 -56.91,-6.524 -76.41,-5.379 l 1.49,128.828 10.88,0.691 c 35.91,2.871 62.11,-1.98 72.86,-6.84 16.13,-7.085 25.52,-22.171 26.4,-47.668 1.36,-37.945 -13.07,-58.238 -35.22,-69.632 z m 206.97,-251.485 c -28.02,40.254 -38.36,56.871 -59.91,86.309 l -80.76,125.492 c 38.87,19.195 75.37,51.367 80.93,118.688 3.42,42.109 -19.07,76.957 -32.45,88.796 -19.45,17.313 -38.35,24.332 -65.25,27.622 -21.64,2.796 -37.2,2.957 -50.18,3.734 h -190.23 c 0,0 2.24,-62.242 2.24,-97.883 V 345.762 c 0,-35.762 -2.24,-97.946 -2.24,-97.946 h 117.02 c 0,0 -3.42,62.184 -3.42,97.946 l 0.87,81.691 c 0,0 25.48,0 43.41,-0.203 l 74.01,-135.668 c 9.95,-17.266 24.34,-38.906 27.74,-43.844 h 138.22 v 0"
           style="fill:#0c2f59;fill-opacity:1;fill-rule:nonzero;stroke:none"
           id="path44"
           inkscape:connector-curvature="0" />
        <path
           d="m 6743.09,936.602 -4.92,2.246 1.21,2.679 13.32,-6 -1.27,-2.687 -4.93,2.215 -6.47,-14.465 -3.44,1.527 6.5,14.485 v 0"
           style="fill:#1b458f;fill-opacity:1;fill-rule:nonzero;stroke:none"
           id="path46"
           inkscape:connector-curvature="0" />
        <path
           d="m 6755.26,934.445 5.47,-2.629 -2.27,-14.781 0.04,-0.043 10.29,10.863 5.42,-2.675 -8.25,-16.922 -3.23,1.609 6.81,13.949 h -0.03 l -11.38,-11.703 -3.24,1.617 2.26,16.165 -0.08,-0.012 -6.82,-13.922 -3.22,1.582 8.23,16.902 v 0"
           style="fill:#1b458f;fill-opacity:1;fill-rule:nonzero;stroke:none"
           id="path48"
           inkscape:connector-curvature="0" />
        <path
           d="m 3322.46,14.7695 c 0,0 205,167.5005 722.5,167.5005 390,0 623.75,-124.5864 1079.79,-124.5864 410.21,0 684,140.9574 684,140.9574 0,0 -240.45,-187.6215 -722.95,-187.6215 -482.5,0 -636.35,126.2505 -1112.97,126.2505 -476.62,0 -650.37,-122.5005 -650.37,-122.5005"
           style="fill:#e41d25;fill-opacity:1;fill-rule:nonzero;stroke:none"
           id="path68"
           inkscape:connector-curvature="0" />
      </g>
    </g>
  </g>
</svg>
