<?xml version="1.0" encoding="UTF-8" standalone="no"?>
<svg
   xmlns:dc="http://purl.org/dc/elements/1.1/"
   xmlns:cc="http://creativecommons.org/ns#"
   xmlns:rdf="http://www.w3.org/1999/02/22-rdf-syntax-ns#"
   xmlns:svg="http://www.w3.org/2000/svg"
   xmlns="http://www.w3.org/2000/svg"
   xmlns:sodipodi="http://sodipodi.sourceforge.net/DTD/sodipodi-0.dtd"
   xmlns:inkscape="http://www.inkscape.org/namespaces/inkscape"
   version="1.0"
   id="Layer_1"
   x="0px"
   y="0px"
   viewBox="0 0 290.59799 82.260048"
   enable-background="new 0 0 334 84"
   xml:space="preserve"
   inkscape:version="0.48.1 "
   sodipodi:docname="AJAX.svg"><metadata
   id="metadata202"><rdf:RDF><cc:Work
       rdf:about=""><dc:format>image/svg+xml</dc:format><dc:type
         rdf:resource="http://purl.org/dc/dcmitype/StillImage" /></cc:Work></rdf:RDF></metadata><defs
   id="defs200" /><sodipodi:namedview
   pagecolor="#ffffff"
   bordercolor="#666666"
   borderopacity="1"
   objecttolerance="10"
   gridtolerance="10"
   guidetolerance="10"
   inkscape:pageopacity="0"
   inkscape:pageshadow="2"
   id="namedview198"
   showgrid="false"
   fit-margin-top="0"
   fit-margin-left="0"
   fit-margin-right="0"
   fit-margin-bottom="0"
   inkscape:zoom="8.7486948"
   inkscape:cx="247.11667"
   inkscape:cy="40.949792"
   inkscape:window-x="-8"
   inkscape:window-y="-8"
   inkscape:window-maximized="1"
   inkscape:current-layer="g3" />
<g
   id="g3"
   transform="translate(-0.66700113,-0.869)">
	
	<g
   id="g41">
		<path
   clip-rule="evenodd"
   d="m 11.133,58.333 -2.265,-0.991 9.396,-1.145 c 0.167,0.271 0.329,0.511 0.519,0.765 l -7.65,1.371 0,0 z m 25.22,0 2.268,-1.051 -9.343,-1.114 c -0.082,0.3 -0.33,0.54 -0.498,0.794 l 7.573,1.371 0,0 z m -1.363,0.157 -2.847,0.954 -4.046,-1.228 -0.351,-0.11 c 0.135,-0.106 0.245,-0.213 0.351,-0.357 0.171,-0.133 0.307,-0.327 0.467,-0.467 l 6.426,1.208 0,0 z m 7.513,-2.65 -2.6,1.205 -10.381,-1.205 c 0.085,-0.243 0.167,-0.49 0.244,-0.741 l 12.737,0.741 0,0 z m 0.928,-0.36 3.39,-2.152 H 28.46 c 0,0.767 -0.111,1.425 -0.363,1.992 -0.704,1.829 -2.479,2.706 -4.256,2.68 -1.745,-0.051 -3.525,-0.954 -4.317,-2.623 -0.277,-0.607 -0.438,-1.251 -0.438,-2.049 H 0.667 L 4.028,55.48 18.1,54.752 c 0.272,1.005 0.771,1.882 1.424,2.529 1.123,1.181 2.729,1.832 4.317,1.832 1.559,0.033 3.14,-0.54 4.256,-1.799 0.605,-0.654 1.069,-1.502 1.345,-2.52 l 13.989,0.686 0,0 z m -15.334,5.58 0.363,0.657 -0.363,0.166 -0.952,0.438 -1.091,-2.162 c -0.685,0.24 -1.443,0.377 -2.213,0.406 -0.821,0.03 -1.672,-0.086 -2.409,-0.327 l -0.924,2.083 c -0.304,0.023 -0.713,0 -0.984,-0.196 -0.14,-0.084 -0.277,-0.218 -0.331,-0.407 l 0.331,-0.551 0.792,-1.419 c -0.249,-0.167 -0.465,-0.276 -0.688,-0.493 l 0.658,-0.792 c 1.125,0.685 2.352,1.062 3.556,1.062 1.204,0.03 2.4,-0.354 3.521,-1.145 l 0.734,0.218 0.307,0.113 c -0.109,0.079 -0.193,0.156 -0.307,0.243 -0.215,0.217 -0.405,0.435 -0.756,0.627 l 0.756,1.479 0,0 z m 0,-11.181 c 0.712,0.846 1.236,1.89 1.51,3.091 h -1.173 c -0.085,-0.354 -0.195,-0.711 -0.337,-1.038 -0.783,-2.076 -2.4,-3.551 -4.256,-4.781 -0.247,-0.141 -0.467,-0.301 -0.712,-0.438 0.245,0.083 0.465,0.163 0.712,0.246 1.69,0.682 3.193,1.613 4.256,2.92 l 0,0 z m -3.169,7.71 c 0.309,-0.054 0.769,-0.221 1.126,-0.494 l -1.863,-3.688 1.941,-0.927 -1.635,-1.418 -0.656,0.297 -2.817,1.281 0.827,1.858 1.333,-0.597 1.744,3.688 0,0 z m -5.077,0.517 c -0.111,-0.08 -0.223,-0.187 -0.327,-0.273 -0.219,-0.19 -0.414,-0.384 -0.542,-0.574 l -6.424,1.212 2.734,0.918 4.559,-1.283 0,0 z M 18.1,55.84 C 17.992,55.597 17.913,55.35 17.828,55.099 L 4.985,55.84 7.581,57.095 18.1,55.84 l 0,0 z"
   id="path43"
   inkscape:connector-curvature="0"
   style="fill:#00529b;fill-rule:evenodd" />
		<g
   id="g45">
		</g>
		<g
   id="g51">
			<path
   clip-rule="evenodd"
   d="m 275.223,7.136 -1.573,0.2 -1.009,0.096 c -1.892,0.164 -4.747,0.407 -7.267,2.012 -2.499,1.595 -5.363,4.926 -7.364,7.489 -21.702,3.634 -33.6,16.492 -41.473,25.011 l -4.935,5.76 0.827,-0.257 c 14.789,-13.646 27.979,-20.944 40.329,-22.309 l 0.183,-0.02 1.645,-2.146 3.461,-4.539 c 1.423,-1.282 3.392,-1.735 6.291,-2.066 l 5.059,-0.323 5.987,-0.42 c 3.42,-0.458 6.358,-1.246 10.39,-6.785 l 5.491,-7.412 -0.644,-0.558 C 285.583,5.86 280.08,6.538 275.223,7.136 z m 0.104,0.847 c 4.208,-0.517 8.877,-1.265 13.383,-4.542 -1.626,2.196 -3.625,4.895 -3.625,4.895 -3.842,5.276 -6.49,5.998 -9.814,6.441 0,0.003 -5.91,0.413 -5.91,0.413 l -5.119,0.331 c -2.162,0.244 -3.735,0.704 -5.117,1.392 1.925,-2.423 4.479,-5.323 6.713,-6.748 2.339,-1.495 5.068,-1.725 6.875,-1.882 l 1.052,-0.104 c 0,10e-4 1.562,-0.196 1.562,-0.196 z m -17.984,9.975 c -0.389,0.501 -3.435,4.495 -3.435,4.495 0,0 -1.252,1.635 -1.434,1.873 -10.551,1.215 -21.69,6.707 -33.854,16.641 7.686,-8.256 19.079,-19.455 38.723,-23.009 z m 16.42,-9.778 0,0 h 0.007 -0.007 z"
   id="path53"
   inkscape:connector-curvature="0"
   style="fill-rule:evenodd" />
			
				<linearGradient
   id="SVGID_1_"
   gradientUnits="userSpaceOnUse"
   x1="-3286.5796"
   y1="-3928.3291"
   x2="-3204.3096"
   y2="-3851.6111"
   gradientTransform="matrix(0.246,0,0,0.246,1029.1508,996.5813)">
				<stop
   offset="0.0056"
   style="stop-color:#C4161C"
   id="stop56" />
				<stop
   offset="0.3"
   style="stop-color:#C93627"
   id="stop58" />
				<stop
   offset="0.5"
   style="stop-color:#EBB39E"
   id="stop60" />
				<stop
   offset="0.7191"
   style="stop-color:#C93627"
   id="stop62" />
				<stop
   offset="1"
   style="stop-color:#C4161C"
   id="stop64" />
			</linearGradient>
			<path
   clip-rule="evenodd"
   d="m 212.15,47.151 c 15.694,-11.47 24.131,-16.024 42.773,-16.191 l -4.016,5.417 c -0.756,1.607 -1.929,1.534 -3.164,1.46 -13.327,-0.106 -22.636,0.888 -38.826,12.645 l 3.233,-3.331 z"
   id="path66"
   inkscape:connector-curvature="0"
   style="fill:url(#SVGID_1_);fill-rule:evenodd" />
			
				<linearGradient
   id="SVGID_2_"
   gradientUnits="userSpaceOnUse"
   x1="-3285.7183"
   y1="-3961.1313"
   x2="-3147.6008"
   y2="-3864.4204"
   gradientTransform="matrix(0.246,0,0,0.246,1029.1508,996.5813)">
				<stop
   offset="0"
   style="stop-color:#FFFFFF"
   id="stop69" />
				<stop
   offset="0.3427"
   style="stop-color:#FFFFFF"
   id="stop71" />
				<stop
   offset="0.55"
   style="stop-color:#FFFFFF"
   id="stop73" />
				<stop
   offset="0.9101"
   style="stop-color:#C2CAE3"
   id="stop75" />
			</linearGradient>
			<path
   clip-rule="evenodd"
   d="m 212.14,47.133 c 15.793,-14.572 28.978,-21.136 40.572,-22.417 1.026,-1.358 4.567,-5.907 5.64,-7.422 -26.428,4.315 -38.111,22.201 -46.212,29.839 z"
   id="path77"
   inkscape:connector-curvature="0"
   style="fill:url(#SVGID_2_);fill-rule:evenodd" />
			
				<linearGradient
   id="SVGID_3_"
   gradientUnits="userSpaceOnUse"
   x1="-3263.5693"
   y1="-3924.6646"
   x2="-3213.949"
   y2="-3878.3928"
   gradientTransform="matrix(0.246,0,0,0.246,1029.1508,996.5813)">
				<stop
   offset="0.1067"
   style="stop-color:#00529B"
   id="stop80" />
				<stop
   offset="0.5"
   style="stop-color:#778EC1"
   id="stop82" />
				<stop
   offset="0.5196"
   style="stop-color:#728ABF"
   id="stop84" />
				<stop
   offset="0.7283"
   style="stop-color:#3C69AA"
   id="stop86" />
				<stop
   offset="0.8811"
   style="stop-color:#00589F"
   id="stop88" />
				<stop
   offset="0.9607"
   style="stop-color:#00529B"
   id="stop90" />
			</linearGradient>
			<path
   clip-rule="evenodd"
   d="m 212.951,46.299 c -0.313,0.3 -1.403,1.475 -1.716,1.755 9.268,-6.834 17.03,-13.948 36.361,-16.578 0.963,-1.091 3.775,-4.789 5.1,-6.761 -17.623,2.396 -29.149,12.235 -39.745,21.584 z"
   id="path92"
   inkscape:connector-curvature="0"
   style="fill:url(#SVGID_3_);fill-rule:evenodd" />
			
				<linearGradient
   id="SVGID_4_"
   gradientUnits="userSpaceOnUse"
   x1="-3178.6011"
   y1="-3928.29"
   x2="-3149.2168"
   y2="-3909.9287"
   gradientTransform="matrix(0.246,0,0,0.246,1029.1508,996.5813)">
				<stop
   offset="0.0056"
   style="stop-color:#C4161C"
   id="stop95" />
				<stop
   offset="0.4944"
   style="stop-color:#C93627"
   id="stop97" />
				<stop
   offset="1"
   style="stop-color:#EBB39E"
   id="stop99" />
			</linearGradient>
			<path
   clip-rule="evenodd"
   d="m 250.557,37.002 c 0.17,-0.597 0.586,-1.041 -1.373,-2.196 -2.305,-1.358 -3.102,-0.787 -2.592,-2.168 0.379,-1.048 5.33,-3.134 8.943,-1.91 0.001,10e-4 -3.205,3.715 -4.978,6.274 z"
   id="path101"
   inkscape:connector-curvature="0"
   style="fill:url(#SVGID_4_);fill-rule:evenodd" />
			
				<linearGradient
   id="SVGID_5_"
   gradientUnits="userSpaceOnUse"
   x1="227.6714"
   y1="-112.8286"
   x2="249.27229"
   y2="-96.551201"
   gradientTransform="matrix(0.9841,0.0195,-0.0195,0.9841,32.0135,115.2372)">
				<stop
   offset="0.073"
   style="stop-color:#C2CAE3"
   id="stop104" />
				<stop
   offset="0.5"
   style="stop-color:#00529B"
   id="stop106" />
				<stop
   offset="0.545"
   style="stop-color:#00559E"
   id="stop108" />
				<stop
   offset="0.6155"
   style="stop-color:#1F5FA4"
   id="stop110" />
				<stop
   offset="0.7025"
   style="stop-color:#486FAE"
   id="stop112" />
				<stop
   offset="0.8028"
   style="stop-color:#738BBF"
   id="stop114" />
				<stop
   offset="0.9129"
   style="stop-color:#ABB7D9"
   id="stop116" />
				<stop
   offset="0.9494"
   style="stop-color:#C2CAE3"
   id="stop118" />
			</linearGradient>
			<path
   clip-rule="evenodd"
   d="m 264.44,15.588 c -3.615,0.484 -5.895,1.385 -7.343,3.21 l -5.048,6.761 c 1.101,-0.984 4.428,-1.468 8.032,-1.561 l 0.505,0.01 c 0.15,-0.01 0.306,0 0.459,-0.01 0.508,-0.013 1.048,-0.037 1.61,-0.051 5.112,-0.2 12.21,-0.921 16.354,-5.75 l 6.209,-8.586 0.743,-1.022 c -5.393,7.103 -17.698,6.489 -21.521,6.999 z"
   id="path120"
   inkscape:connector-curvature="0"
   style="fill:url(#SVGID_5_);fill-rule:evenodd" />
			
				<linearGradient
   id="SVGID_6_"
   gradientUnits="userSpaceOnUse"
   x1="221.91161"
   y1="-104.1655"
   x2="242.386"
   y2="-88.7369"
   gradientTransform="matrix(0.9841,0.0195,-0.0195,0.9841,32.0135,115.2372)">
				<stop
   offset="0.0562"
   style="stop-color:#EBB39E"
   id="stop123" />
				<stop
   offset="0.3278"
   style="stop-color:#C93627"
   id="stop125" />
				<stop
   offset="0.5169"
   style="stop-color:#C4161C"
   id="stop127" />
				<stop
   offset="0.7472"
   style="stop-color:#C93627"
   id="stop129" />
				<stop
   offset="0.9607"
   style="stop-color:#EBB39E"
   id="stop131" />
			</linearGradient>
			<path
   clip-rule="evenodd"
   d="m 267.438,23.101 c -3.878,0.543 -8.313,0.704 -9.585,0.768 -2.173,0.096 -5.061,0.79 -5.86,1.758 -2.436,3.027 -4.768,5.85 -5.4,7.012 1.488,-1.375 6.384,-1.225 12.325,-1.499 5.935,-0.271 11.948,-2.837 16.69,-8.243 l 3.603,-4.979 c -2.412,3.094 -6.661,4.469 -11.773,5.183 z"
   id="path133"
   inkscape:connector-curvature="0"
   style="fill:url(#SVGID_6_);fill-rule:evenodd" />
			
				<linearGradient
   id="SVGID_7_"
   gradientUnits="userSpaceOnUse"
   x1="232.90379"
   y1="-120.1172"
   x2="254.85719"
   y2="-103.5741"
   gradientTransform="matrix(0.9841,0.0195,-0.0195,0.9841,32.0135,115.2372)">
				<stop
   offset="0"
   style="stop-color:#FFFFFF"
   id="stop136" />
				<stop
   offset="0.3"
   style="stop-color:#FFFFFF"
   id="stop138" />
				<stop
   offset="0.5056"
   style="stop-color:#D4D9EC"
   id="stop140" />
				<stop
   offset="0.7"
   style="stop-color:#FFFFFF"
   id="stop142" />
				<stop
   offset="1"
   style="stop-color:#FFFFFF"
   id="stop144" />
			</linearGradient>
			<path
   clip-rule="evenodd"
   d="m 273.707,7.757 c -1.579,0.213 -5.14,0.156 -8.101,2.048 -2.967,1.892 -6.539,6.381 -8.295,8.744 1.632,-1.746 3.799,-2.243 6.979,-2.603 3.179,-0.367 7.772,-0.304 11.037,-0.745 3.136,-0.417 6.053,-1.047 10.102,-6.611 l 5.493,-7.415 c -5.694,5.64 -11.912,5.874 -17.215,6.582 z"
   id="path146"
   inkscape:connector-curvature="0"
   style="fill:url(#SVGID_7_);fill-rule:evenodd" />
		</g>
	</g>
</g>
</svg>