<?xml version="1.0" encoding="utf-8"?>
<!-- Generator: Adobe Illustrator 14.0.0, SVG Export Plug-In . SVG Version: 6.00 Build 43363)  -->
<!DOCTYPE svg PUBLIC "-//W3C//DTD SVG 1.1//EN" "http://www.w3.org/Graphics/SVG/1.1/DTD/svg11.dtd">
<svg version="1.1" id="Layer_1" xmlns="http://www.w3.org/2000/svg" xmlns:xlink="http://www.w3.org/1999/xlink" x="0px" y="0px"
	 viewBox="0 0 200 65" enable-background="new 0 0 200 65" xml:space="preserve">
<g>
	<path fill-rule="evenodd" clip-rule="evenodd" fill="#ED1C24" d="M1.928,23.908c1.502-0.094,2.731,0.971,3.003,2.364v18.47
		c-0.033,5.234,4.181,9.453,9.432,9.449c5.138,0.004,9.348-4.215,9.431-9.449V31.425c-0.098-10.148,8.112-18.372,18.224-18.468
		c7.142-0.051,12.987-4.927,14.578-11.6c-3.669,2.795-8.338,4.561-13.292,4.512c-0.983,0.049-0.879,0.106-1.716,0h0.214
		c-14.197,0-25.441,11.349-25.51,25.556v12.458V43.67c-0.007,0.098-0.007,0.102,0,0.213c-0.007,1.266-1.115,2.377-2.571,2.363
		c-1.276,0.014-2.387-1.098-2.359-2.363c-0.027-0.109-0.027-0.115,0-0.213V26.486c-0.027-1.734-1.351-3.065-3-3.007
		c0.14-0.983,0.971-1.722,1.931-1.719c0.359-0.003,0.659,0.071,0.858,0.216c0.416,0.096,0.882,0.168,1.286,0.214
		c2.687-0.046,4.799-2.162,4.716-4.726c0.083-0.101,0.081-0.156,0-0.213c-1.001,1.367-2.712,2.275-4.716,2.362
		c-0.25-0.178-0.735-0.174-1.074-0.215c-2.213,0.041-3.995,1.823-4.072,4.081H0v0.429h2.146H1.928"/>
	<path fill-rule="evenodd" clip-rule="evenodd" fill="#ED1C24" d="M42.018,21.546c-5.46-0.05-9.895,4.395-9.862,9.879v-0.213v15.464
		c-0.039,7.621-6.108,13.75-13.72,13.746c-5.279,0.004-9.906-3.068-12.219-7.518c2.078,1.986,4.933,3.273,8.146,3.221
		c6.231,0.053,11.331-5.057,11.363-11.383V31.425c-0.024-9.037,7.289-16.36,16.292-16.323h-0.43
		c4.839-0.038,9.213-2.017,12.434-5.156c-0.507,6.436-5.891,11.55-12.434,11.6H42.018"/>
	<path fill="#ED1C24" d="M39.659,35.936c-0.072-1.447,1.02-2.543,2.357-2.576c1.366,0.033,2.458,1.129,2.357,2.576
		c0.101,0.201,0.049,0.484,0,0.645c-0.133,0.5-0.619,0.924-1.283,0.861c-0.569,0.063-1.096-0.467-1.074-1.074
		c-0.022-0.207,0.008-0.361,0-0.432v-0.213c-0.148,0.566-0.248,1.076-0.215,1.502c-0.033,2.471,1.885,4.391,4.289,4.295
		c1.675,0.096,3.154-0.916,3.86-2.359c0.586-1.098,0.943-2.414,0.855-3.867c0.087-4.571-3.662-8.33-8.357-8.377
		c-4.569,0.047-8.32,3.806-8.363,8.377v11.383c0,8.684-6.978,15.674-15.65,15.68c-1.15-0.006-2.336-0.145-3.429-0.43h-0.214
		c2.182,1.035,4.729,1.648,7.505,1.717c9.485-0.068,17.244-7.842,17.148-17.396V35.723L39.659,35.936"/>
</g>
</svg>
