<?xml version="1.0" encoding="utf-8"?>
<!-- Generator: Adobe Illustrator 21.0.2, SVG Export Plug-In . SVG Version: 6.00 Build 0)  -->
<svg version="1.1"
	 id="Layer_1" inkscape:version="0.47 r22583" sodipodi:docname="Air_Canada_Logo.svg" xmlns:cc="http://creativecommons.org/ns#" xmlns:dc="http://purl.org/dc/elements/1.1/" xmlns:inkscape="http://www.inkscape.org/namespaces/inkscape" xmlns:rdf="http://www.w3.org/1999/02/22-rdf-syntax-ns#" xmlns:sodipodi="http://sodipodi.sourceforge.net/DTD/sodipodi-0.dtd" xmlns:svg="http://www.w3.org/2000/svg"
	 xmlns="http://www.w3.org/2000/svg" xmlns:xlink="http://www.w3.org/1999/xlink" x="0px" y="0px" viewBox="0 0 300.7 39.3"
	 style="enable-background:new 0 0 300.7 39.3;" xml:space="preserve">
<style type="text/css">
	.st0{fill:#D82F2E;}
</style>
<defs>
	
	
		<inkscape:perspective  id="perspective31" inkscape:persp3d-origin="484.4165 : 42.204333 : 1" inkscape:vp_x="0 : 63.306499 : 1" inkscape:vp_y="0 : 1000 : 0" inkscape:vp_z="968.83301 : 63.306499 : 1" sodipodi:type="inkscape:persp3d">
		</inkscape:perspective>
</defs>
<sodipodi:namedview  bordercolor="#666666" borderopacity="1" gridtolerance="10" guidetolerance="10" id="namedview25" inkscape:current-layer="Layer_1" inkscape:cx="484.4165" inkscape:cy="63.307499" inkscape:pageopacity="0" inkscape:pageshadow="2" inkscape:window-maximized="1" inkscape:window-x="-4" inkscape:window-y="-4" inkscape:zoom="0.5573716" objecttolerance="10" pagecolor="#ffffff" showgrid="false">
	</sodipodi:namedview>
<g>
	<path class="st0" d="M20.7,27.9c0-1.3,0.7-1.5,1.9-0.8c2.2,1.2,4.6,2.5,4.6,2.5c0.1-0.7,0.7-1.3,2-1c1.2,0.3,2.6,0.6,2.6,0.6
		s-0.7-1.7-1.1-2.4c-0.6-1.4,0-2,0.6-2.2c0,0-0.8-0.6-1.4-1c-1.2-0.8-0.9-1.7,0.2-2.2c1.6-0.7,3.6-1.6,3.6-1.6
		c-0.6-0.4-1.4-1.4-0.5-2.6c0.8-1.2,2-2.8,2-2.8s-2.2,0-3.6,0c-1.3,0-1.6-1.1-1.6-1.8c0,0-2.1,1.5-3.6,2.5c-1.3,0.9-2.4,0-2.2-1.5
		c0.3-2.3,0.6-4.9,0.6-4.9c-0.8,0.5-2.1,0.5-2.7-0.8C21.1,6.2,20,3.9,20,3.9s-1,2.2-1.9,4.1c-0.6,1.3-2,1.3-2.7,0.8
		c0,0,0.3,2.6,0.6,4.9c0.2,1.5-1,2.3-2.2,1.5c-1.5-1-3.6-2.5-3.6-2.5c0,0.7-0.3,1.8-1.6,1.8c-1.4,0-3.6,0-3.6,0s1.2,1.7,2,2.8
		c0.8,1.2,0.1,2.2-0.5,2.6c0,0,2,0.9,3.6,1.6c1.2,0.5,1.5,1.3,0.2,2.2c-0.6,0.4-1.4,1-1.4,1c0.6,0.2,1.2,0.8,0.6,2.2
		c-0.3,0.7-1.1,2.4-1.1,2.4s1.4-0.3,2.6-0.6c1.3-0.3,2,0.3,2,1c0,0,2.3-1.3,4.5-2.5c1.2-0.7,1.9-0.4,1.9,0.8V31c0,1.8-0.3,3.8-1,4.8
		C9.8,34.9,2.7,28.1,2.7,19.1C2.7,9.8,10.5,2.2,20,2.2c9.6,0,17.3,7.5,17.3,16.8c0,8.7-6.7,15.8-15.4,16.7v2.3
		c10.2-0.9,18.1-9.1,18.1-19C40.1,8.5,31.1,0,20,0C9,0,0,8.5,0,19.1c0,9.3,6.9,17,16.2,18.7c1.6,0.3,2.5,0.5,3.4,1.5
		c1-1.8,1.2-5.6,1.2-7.8V27.9z"/>
</g>
</svg>
