<?xml version="1.0" encoding="UTF-8" standalone="no"?>
<svg
   xmlns:dc="http://purl.org/dc/elements/1.1/"
   xmlns:cc="http://creativecommons.org/ns#"
   xmlns:rdf="http://www.w3.org/1999/02/22-rdf-syntax-ns#"
   xmlns:svg="http://www.w3.org/2000/svg"
   xmlns="http://www.w3.org/2000/svg"
   xmlns:xlink="http://www.w3.org/1999/xlink"
   xmlns:sodipodi="http://sodipodi.sourceforge.net/DTD/sodipodi-0.dtd"
   xmlns:inkscape="http://www.inkscape.org/namespaces/inkscape"
   inkscape:version="1.0beta2 (2b71d25, 2019-12-03)"
   sodipodi:docname="american-express_.svg"
   id="svg11533"
   height="855.35431"
   width="1062.9921"
   viewBox="0 0 1062.9921 855.35431"
   version="1.0">
  <metadata
     id="metadata101">
    <rdf:RDF>
      <cc:Work
         rdf:about="">
        <dc:format>image/svg+xml</dc:format>
        <dc:type
           rdf:resource="http://purl.org/dc/dcmitype/StillImage" />
      </cc:Work>
    </rdf:RDF>
  </metadata>
  <sodipodi:namedview
     inkscape:current-layer="svg11533"
     inkscape:window-maximized="0"
     inkscape:window-y="23"
     inkscape:window-x="0"
     inkscape:cy="356.59032"
     inkscape:cx="218.1644"
     inkscape:zoom="1.803853"
     showgrid="false"
     id="namedview99"
     inkscape:window-height="651"
     inkscape:window-width="977"
     inkscape:pageshadow="2"
     inkscape:pageopacity="0"
     guidetolerance="10"
     gridtolerance="10"
     objecttolerance="10"
     borderopacity="1"
     inkscape:document-rotation="0"
     bordercolor="#666666"
     pagecolor="#ffffff" />
  <defs
     id="defs11536">
    <linearGradient
       id="linearGradient3431">
      <stop
         offset="0"
         style="stop-color:#7fd3f3;stop-opacity:1"
         id="stop3433" />
      <stop
         offset="1"
         style="stop-color:#017cc2;stop-opacity:1"
         id="stop3435" />
    </linearGradient>
    <clipPath
       id="clipPath2566">
      <path
         id="path2568"
         d="M 426.85,73.228 L 426.85,26.412 L 539.619,26.412 L 539.619,73.228" />
    </clipPath>
    <clipPath
       id="clipPath2546">
      <path
         id="path2548"
         d="M 426.85,73.228 L 426.85,26.412 L 539.619,26.412 L 539.619,73.228" />
    </clipPath>
    <clipPath
       id="clipPath2458">
      <path
         id="path2460"
         d="M 426.852,16.344 L 539.622,16.344 L 539.622,73.224 L 426.852,73.224 L 426.852,16.344 z" />
    </clipPath>
    <clipPath
       id="clipPath2702">
      <path
         id="path2704"
         d="M 136.842,126.206 L 136.842,89.01 L 221.901,89.01 L 221.901,126.206" />
    </clipPath>
    <clipPath
       id="clipPath2694">
      <path
         id="path2696"
         d="M 136.773,89.01 L 221.976,89.01 L 221.976,126.207 L 136.773,126.207 L 136.773,89.01 z" />
    </clipPath>
    <clipPath
       id="clipPath3098">
      <path
         id="path3100"
         d="M 448.155,589.898 L 548.995,589.898 L 548.995,630.637 L 448.155,630.637 L 448.155,589.898 z" />
    </clipPath>
    <clipPath
       id="clipPath2634">
      <path
         id="path2636"
         d="M 350.521,153.92 L 340.986,163.455 L 331.45,153.92 L 340.986,144.384 L 350.521,153.92 z" />
    </clipPath>
    <clipPath
       id="clipPath2622">
      <path
         id="path2624"
         d="M 297.638,126.142 L 384.638,126.142 L 384.638,163.942 L 297.638,163.942 L 297.638,126.142 z" />
    </clipPath>
    <clipPath
       id="clipPath2614">
      <path
         id="path2616"
         d="M 297.638,163.942 L 384.638,163.942 L 384.638,126.142 L 297.638,126.142 L 297.638,163.942 z" />
    </clipPath>
    <clipPath
       id="clipPath2606">
      <path
         id="path2608"
         d="M 297.639,126.144 L 384.111,126.144 L 384.111,162.828 L 297.639,162.828 L 297.639,126.144 z" />
    </clipPath>
    <clipPath
       id="clipPath2989">
      <path
         id="path2991"
         d="M 297.639,126.144 L 384.111,126.144 L 384.111,162.828 L 297.639,162.828 L 297.639,126.144 z" />
    </clipPath>
    <clipPath
       id="clipPath2985">
      <path
         id="path2987"
         d="M 297.638,163.942 L 384.638,163.942 L 384.638,126.142 L 297.638,126.142 L 297.638,163.942 z" />
    </clipPath>
    <clipPath
       id="clipPath2981">
      <path
         id="path2983"
         d="M 297.638,126.142 L 384.638,126.142 L 384.638,163.942 L 297.638,163.942 L 297.638,126.142 z" />
    </clipPath>
    <clipPath
       id="clipPath2977">
      <path
         id="path2979"
         d="M 350.521,153.92 L 340.986,163.455 L 331.45,153.92 L 340.986,144.384 L 350.521,153.92 z" />
    </clipPath>
    <clipPath
       id="clipPath2973">
      <path
         id="path2975"
         d="M 448.155,589.898 L 548.995,589.898 L 548.995,630.637 L 448.155,630.637 L 448.155,589.898 z" />
    </clipPath>
    <clipPath
       id="clipPath2969">
      <path
         id="path2971"
         d="M 136.773,89.01 L 221.976,89.01 L 221.976,126.207 L 136.773,126.207 L 136.773,89.01 z" />
    </clipPath>
    <clipPath
       id="clipPath2965">
      <path
         id="path2967"
         d="M 136.842,126.206 L 136.842,89.01 L 221.901,89.01 L 221.901,126.206" />
    </clipPath>
    <clipPath
       id="clipPath2961">
      <path
         id="path2963"
         d="M 426.852,16.344 L 539.622,16.344 L 539.622,73.224 L 426.852,73.224 L 426.852,16.344 z" />
    </clipPath>
    <clipPath
       id="clipPath2957">
      <path
         id="path2959"
         d="M 426.85,73.228 L 426.85,26.412 L 539.619,26.412 L 539.619,73.228" />
    </clipPath>
    <clipPath
       id="clipPath2953">
      <path
         id="path2955"
         d="M 426.85,73.228 L 426.85,26.412 L 539.619,26.412 L 539.619,73.228" />
    </clipPath>
    <clipPath
       id="clipPath5596">
      <path
         id="path5598"
         d="M 403.659,59.76 L 426.645,59.76 L 426.645,87.165 L 403.659,87.165 L 403.659,59.76 z" />
    </clipPath>
    <clipPath
       id="clipPath5604">
      <path
         id="path5606"
         d="M 403.659,87.165 L 403.659,59.764 L 425.07,59.764 L 425.07,87.165" />
    </clipPath>
    <clipPath
       id="clipPath5452">
      <path
         id="path5454"
         d="M 362.556,59.76 L 395.037,59.76 L 395.037,85.104 L 362.556,85.104 L 362.556,59.76 z" />
    </clipPath>
    <clipPath
       id="clipPath5580">
      <path
         id="path5582"
         d="M 362.557,85.106 L 362.557,59.764 L 395.039,59.764 L 395.039,85.106" />
    </clipPath>
    <clipPath
       id="clipPath3372">
      <path
         id="path3374"
         d="M 297.639,126.144 L 384.111,126.144 L 384.111,162.828 L 297.639,162.828 L 297.639,126.144 z" />
    </clipPath>
    <clipPath
       id="clipPath3368">
      <path
         id="path3370"
         d="M 297.638,163.942 L 384.638,163.942 L 384.638,126.142 L 297.638,126.142 L 297.638,163.942 z" />
    </clipPath>
    <clipPath
       id="clipPath3364">
      <path
         id="path3366"
         d="M 297.638,126.142 L 384.638,126.142 L 384.638,163.942 L 297.638,163.942 L 297.638,126.142 z" />
    </clipPath>
    <clipPath
       id="clipPath3360">
      <path
         id="path3362"
         d="M 350.521,153.92 L 340.986,163.455 L 331.45,153.92 L 340.986,144.384 L 350.521,153.92 z" />
    </clipPath>
    <clipPath
       id="clipPath3356">
      <path
         id="path3358"
         d="M 448.155,589.898 L 548.995,589.898 L 548.995,630.637 L 448.155,630.637 L 448.155,589.898 z" />
    </clipPath>
    <clipPath
       id="clipPath3352">
      <path
         id="path3354"
         d="M 136.773,89.01 L 221.976,89.01 L 221.976,126.207 L 136.773,126.207 L 136.773,89.01 z" />
    </clipPath>
    <clipPath
       id="clipPath3348">
      <path
         id="path3350"
         d="M 136.842,126.206 L 136.842,89.01 L 221.901,89.01 L 221.901,126.206" />
    </clipPath>
    <clipPath
       id="clipPath3344">
      <path
         id="path3346"
         d="M 426.852,16.344 L 539.622,16.344 L 539.622,73.224 L 426.852,73.224 L 426.852,16.344 z" />
    </clipPath>
    <clipPath
       id="clipPath3340">
      <path
         id="path3342"
         d="M 426.85,73.228 L 426.85,26.412 L 539.619,26.412 L 539.619,73.228" />
    </clipPath>
    <clipPath
       id="clipPath3336">
      <path
         id="path3338"
         d="M 426.85,73.228 L 426.85,26.412 L 539.619,26.412 L 539.619,73.228" />
    </clipPath>
    <clipPath
       id="clipPath3332">
      <path
         id="path3334"
         d="M 403.659,59.76 L 426.645,59.76 L 426.645,87.165 L 403.659,87.165 L 403.659,59.76 z" />
    </clipPath>
    <clipPath
       id="clipPath3328">
      <path
         id="path3330"
         d="M 403.659,87.165 L 403.659,59.764 L 425.07,59.764 L 425.07,87.165" />
    </clipPath>
    <clipPath
       id="clipPath3324">
      <path
         id="path3326"
         d="M 362.556,59.76 L 395.037,59.76 L 395.037,85.104 L 362.556,85.104 L 362.556,59.76 z" />
    </clipPath>
    <clipPath
       id="clipPath3320">
      <path
         id="path3322"
         d="M 362.557,85.106 L 362.557,59.764 L 395.039,59.764 L 395.039,85.106" />
    </clipPath>
    <clipPath
       id="clipPath5328">
      <path
         id="path5330"
         d="M 326.178,59.76 L 354.798,59.76 L 354.798,85.104 L 326.178,85.104 L 326.178,59.76 z" />
    </clipPath>
    <radialGradient
       gradientTransform="matrix(1.5230958,1.6324196,-1.5000173,1.3995588,123.78293,-579.48703)"
       gradientUnits="userSpaceOnUse"
       xlink:href="#linearGradient3431"
       id="radialGradient3437"
       fy="189.88792"
       fx="307.88284"
       r="388.89389"
       cy="189.88792"
       cx="307.88284" />
    <radialGradient
       gradientTransform="matrix(1.5230958,1.6324196,-1.5000173,1.3995588,123.78293,-579.48703)"
       gradientUnits="userSpaceOnUse"
       xlink:href="#linearGradient3431"
       id="radialGradient3453"
       fy="189.88792"
       fx="307.88284"
       r="388.89389"
       cy="189.88792"
       cx="307.88284" />
    <radialGradient
       gradientTransform="matrix(1.5230958,1.6324196,-1.5000173,1.3995588,81.913399,-616.67808)"
       gradientUnits="userSpaceOnUse"
       xlink:href="#linearGradient3431"
       id="radialGradient2510"
       fy="189.88792"
       fx="307.88284"
       r="388.89389"
       cy="189.88792"
       cx="307.88284" />
  </defs>
  <path
     style="fill:#ffffff;fill-opacity:1;fill-rule:nonzero;stroke:none"
     id="path5332"
     d="M 138.7047,35.424453 L 916.49249,35.424453 L 916.49249,816.12218 L 138.7047,816.12218 L 138.7047,35.424453 z" />
  <path
     sodipodi:nodetypes="cccccccccccccccccccccccccc"
     inkscape:connector-curvature="0"
     style="fill:url(#radialGradient2510);fill-opacity:1;fill-rule:nonzero;stroke:none"
     id="path5348"
     d="M 916.49249,816.12218 H 138.7047 V 430.80379 h 37.33381 l 8.42023,-20.4624 h 18.82169 l 8.45119,20.4624 61.13888,-1.82084 -50.83029,-125.7828 H 165.04887 L 138.7047,363.72056 V 35.424454 H 916.49249 M 250.24898,412.7069 210.61712,321.21697 h -32.56648 l -39.16026,91.57 h 23.83668 l 8.38928,-20.49335 h 45.50639 l 8.42023,20.49335 z m -71.30054,-39.48263 14.89019,-36.37415 14.92114,36.37415 h -29.81133" />
</svg>
