<?xml version="1.0" encoding="UTF-8" standalone="no"?>
<!-- Created with Inkscape (http://www.inkscape.org/) -->

<svg
   xmlns:dc="http://purl.org/dc/elements/1.1/"
   xmlns:cc="http://creativecommons.org/ns#"
   xmlns:rdf="http://www.w3.org/1999/02/22-rdf-syntax-ns#"
   xmlns:svg="http://www.w3.org/2000/svg"
   xmlns="http://www.w3.org/2000/svg"
   xmlns:xlink="http://www.w3.org/1999/xlink"
   xmlns:sodipodi="http://sodipodi.sourceforge.net/DTD/sodipodi-0.dtd"
   xmlns:inkscape="http://www.inkscape.org/namespaces/inkscape"
   width="300"
   height="46.412663"
   id="svg2"
   version="1.1"
   inkscape:version="0.48.2 r9819"
   sodipodi:docname="New document 1">
  <defs
     id="defs4">
    <clipPath
       id="clipPath4465"
       clipPathUnits="userSpaceOnUse">
      <path
         id="path4467"
         d="m 62.789,504.4 34.56,0 0,32.4 -34.56,0 0,-32.4 z"
         inkscape:connector-curvature="0" />
    </clipPath>
    <clipPath
       id="clipPath4449"
       clipPathUnits="userSpaceOnUse">
      <path
         id="path4451"
         d="m 68.378,509.44 25.371,0 0,22.479 -25.371,0 0,-22.479 z"
         inkscape:connector-curvature="0" />
    </clipPath>
    <linearGradient
       id="linearGradient4437"
       spreadMethod="pad"
       gradientTransform="matrix(558,0,0,558,27,738.78)"
       gradientUnits="userSpaceOnUse"
       y2="0"
       x2="1"
       y1="0"
       x1="0">
      <stop
         id="stop4439"
         offset="0"
         style="stop-opacity:1;stop-color:#192a4a" />
      <stop
         id="stop4441"
         offset="1"
         style="stop-opacity:1;stop-color:#4a8bc9" />
    </linearGradient>
    <linearGradient
       id="linearGradient4427"
       spreadMethod="pad"
       gradientTransform="matrix(558,0,0,558,27,132.84)"
       gradientUnits="userSpaceOnUse"
       y2="0"
       x2="1"
       y1="0"
       x1="0">
      <stop
         id="stop4429"
         offset="0"
         style="stop-opacity:1;stop-color:#192a4a" />
      <stop
         id="stop4431"
         offset="1"
         style="stop-opacity:1;stop-color:#4a8bc9" />
    </linearGradient>
    <clipPath
       id="clipPath4393"
       clipPathUnits="userSpaceOnUse">
      <path
         id="path4395"
         d="M 0,0 612,0 612,792 0,792 0,0 z"
         inkscape:connector-curvature="0" />
    </clipPath>
    <clipPath
       id="clipPath4365"
       clipPathUnits="userSpaceOnUse">
      <path
         id="path4367"
         d="m 63.943,200.817 32.252,0 0,20.583 -32.252,0 0,-20.583 z"
         inkscape:connector-curvature="0" />
    </clipPath>
    <clipPath
       id="clipPath4305"
       clipPathUnits="userSpaceOnUse">
      <path
         id="path4307"
         d="m 67.923,266.523 23.779,0 0,20.668 -23.779,0 0,-20.668 z"
         inkscape:connector-curvature="0" />
    </clipPath>
    <clipPath
       id="clipPath4273"
       clipPathUnits="userSpaceOnUse">
      <path
         id="path4275"
         d="m 67.817,316.323 24.061,0 0,16.731 -24.061,0 0,-16.731 z"
         inkscape:connector-curvature="0" />
    </clipPath>
    <clipPath
       id="clipPath4253"
       clipPathUnits="userSpaceOnUse">
      <path
         id="path4255"
         d="m 67.534,355.073 25.07,0 0,22.892 -25.07,0 0,-22.892 z"
         inkscape:connector-curvature="0" />
    </clipPath>
    <clipPath
       id="clipPath4237"
       clipPathUnits="userSpaceOnUse">
      <path
         id="path4239"
         d="m 69.943,358.166 20.252,0 0,19.8 -20.252,0 0,-19.8 z"
         inkscape:connector-curvature="0" />
    </clipPath>
    <clipPath
       id="clipPath4193"
       clipPathUnits="userSpaceOnUse">
      <path
         id="path4195"
         d="m 67.534,423.274 25.07,0 0,19.526 -25.07,0 0,-19.526 z"
         inkscape:connector-curvature="0" />
    </clipPath>
    <clipPath
       id="clipPath4177"
       clipPathUnits="userSpaceOnUse">
      <path
         id="path4179"
         d="m 68.719,424.747 22.7,0 0,14.58 -22.7,0 0,-14.58 z"
         inkscape:connector-curvature="0" />
    </clipPath>
    <clipPath
       id="clipPath4151"
       clipPathUnits="userSpaceOnUse">
      <path
         id="path4153"
         d="M 0,0 612,0 612,792 0,792 0,0 z"
         inkscape:connector-curvature="0" />
    </clipPath>
    <clipPath
       id="clipPath3099"
       clipPathUnits="userSpaceOnUse">
      <path
         id="path3101"
         d="m 387,680.4 188.64,0 0,18 -188.64,0 0,-18 z"
         inkscape:connector-curvature="0" />
    </clipPath>
    <clipPath
       id="clipPath3085"
       clipPathUnits="userSpaceOnUse">
      <path
         id="path3087"
         d="m 162.72,676.171 182.88,0 0,31.945 -182.88,0 0,-31.945 z"
         inkscape:connector-curvature="0" />
    </clipPath>
    <linearGradient
       id="linearGradient3073"
       spreadMethod="pad"
       gradientTransform="matrix(-5e-7,12.125795,12.125795,5e-7,320.22589,692.19874)"
       gradientUnits="userSpaceOnUse"
       y2="0"
       x2="1"
       y1="0"
       x1="0">
      <stop
         id="stop3075"
         offset="0"
         style="stop-opacity:1;stop-color:#283370" />
      <stop
         id="stop3077"
         offset="1"
         style="stop-opacity:1;stop-color:#4bb0e7" />
    </linearGradient>
    <linearGradient
       id="linearGradient3053"
       spreadMethod="pad"
       gradientTransform="matrix(7.1377506,4.2887983,4.2887983,-7.1377506,324.16052,688.58606)"
       gradientUnits="userSpaceOnUse"
       y2="0"
       x2="1"
       y1="0"
       x1="0">
      <stop
         id="stop3055"
         offset="0"
         style="stop-opacity:1;stop-color:#eaeeef" />
      <stop
         id="stop3057"
         offset="1"
         style="stop-opacity:1;stop-color:#93a5ad" />
    </linearGradient>
    <linearGradient
       id="linearGradient3033"
       spreadMethod="pad"
       gradientTransform="matrix(6.4055726,0,0,-6.4055726,324.86398,687.65087)"
       gradientUnits="userSpaceOnUse"
       y2="0"
       x2="1"
       y1="0"
       x1="0">
      <stop
         id="stop3035"
         offset="0"
         style="stop-opacity:1;stop-color:#641e1f" />
      <stop
         id="stop3037"
         offset="1"
         style="stop-opacity:1;stop-color:#d22a27" />
    </linearGradient>
    <linearGradient
       id="linearGradient3011"
       spreadMethod="pad"
       gradientTransform="matrix(-8e-7,-17.551294,-17.551294,8e-7,332.85547,689.11102)"
       gradientUnits="userSpaceOnUse"
       y2="0"
       x2="1"
       y1="0"
       x1="0">
      <stop
         id="stop3013"
         offset="0"
         style="stop-opacity:1;stop-color:#ec1d27" />
      <stop
         id="stop3015"
         offset="0.754601"
         style="stop-opacity:1;stop-color:#741519" />
      <stop
         id="stop3017"
         offset="1"
         style="stop-opacity:1;stop-color:#741519" />
    </linearGradient>
    <linearGradient
       gradientUnits="userSpaceOnUse"
       y2="566.33307"
       x2="652.13562"
       y1="643.60974"
       x1="531.46777"
       id="linearGradient3102"
       xlink:href="#linearGradient3104"
       inkscape:collect="always" />
    <linearGradient
       gradientUnits="userSpaceOnUse"
       y2="520.51685"
       x2="698.77301"
       y1="622.7948"
       x1="521.99634"
       id="linearGradient3078"
       xlink:href="#linearGradient3072"
       inkscape:collect="always" />
    <linearGradient
       gradientUnits="userSpaceOnUse"
       y2="786.99048"
       x2="525.44409"
       y1="569.81665"
       x1="525.44409"
       id="linearGradient3046"
       xlink:href="#linearGradient3048"
       inkscape:collect="always" />
    <linearGradient
       gradientUnits="userSpaceOnUse"
       y2="473.23691"
       x2="421.73868"
       y1="263.43304"
       x1="421.73868"
       id="linearGradient3026"
       xlink:href="#linearGradient3020"
       inkscape:collect="always" />
    <linearGradient
       id="linearGradient3020">
      <stop
         id="stop3022"
         offset="0"
         style="stop-color:#05aee9;stop-opacity:1" />
      <stop
         style="stop-color:#00a9e0;stop-opacity:1"
         offset="0.09626903"
         id="stop3044" />
      <stop
         style="stop-color:#07a3dc;stop-opacity:1"
         offset="0.20386381"
         id="stop3042" />
      <stop
         style="stop-color:#089dd5;stop-opacity:1"
         offset="0.29863822"
         id="stop3040" />
      <stop
         style="stop-color:#0a92cc;stop-opacity:1"
         offset="0.40429688"
         id="stop3038" />
      <stop
         style="stop-color:#0f87c3;stop-opacity:1"
         offset="0.5"
         id="stop3036" />
      <stop
         style="stop-color:#127cb8;stop-opacity:1"
         offset="0.60000002"
         id="stop3034" />
      <stop
         style="stop-color:#0e70ad;stop-opacity:1"
         offset="0.69999999"
         id="stop3032" />
      <stop
         style="stop-color:#0f63a3;stop-opacity:1"
         offset="0.80000001"
         id="stop3030" />
      <stop
         style="stop-color:#135393;stop-opacity:1"
         offset="0.89999998"
         id="stop3028" />
      <stop
         id="stop3024"
         offset="1"
         style="stop-color:#184485;stop-opacity:1" />
    </linearGradient>
    <linearGradient
       id="linearGradient3048">
      <stop
         style="stop-color:#eb2023;stop-opacity:1"
         offset="0"
         id="stop3050" />
      <stop
         id="stop3052"
         offset="0.09626903"
         style="stop-color:#e92026;stop-opacity:1" />
      <stop
         id="stop3054"
         offset="0.20386381"
         style="stop-color:#e31e27;stop-opacity:1" />
      <stop
         id="stop3056"
         offset="0.29863822"
         style="stop-color:#e01e26;stop-opacity:1" />
      <stop
         id="stop3058"
         offset="0.40429688"
         style="stop-color:#d81f27;stop-opacity:1" />
      <stop
         id="stop3060"
         offset="0.5"
         style="stop-color:#cf2027;stop-opacity:1" />
      <stop
         id="stop3062"
         offset="0.60000002"
         style="stop-color:#c62127;stop-opacity:1" />
      <stop
         id="stop3064"
         offset="0.69999999"
         style="stop-color:#b92025;stop-opacity:1" />
      <stop
         id="stop3066"
         offset="0.80000001"
         style="stop-color:#ae1f23;stop-opacity:1" />
      <stop
         id="stop3068"
         offset="0.89999998"
         style="stop-color:#a01d22;stop-opacity:1" />
      <stop
         style="stop-color:#901c1c;stop-opacity:1"
         offset="1"
         id="stop3070" />
    </linearGradient>
    <linearGradient
       id="linearGradient3072">
      <stop
         id="stop3074"
         offset="0"
         style="stop-color:#e7ebee;stop-opacity:1" />
      <stop
         style="stop-color:#dfe4e8;stop-opacity:1"
         offset="0.24913195"
         id="stop3100" />
      <stop
         style="stop-color:#cad1d7;stop-opacity:1"
         offset="0.4982639"
         id="stop3098" />
      <stop
         style="stop-color:#a8b5bd;stop-opacity:1"
         offset="0.74913192"
         id="stop3096" />
      <stop
         id="stop3076"
         offset="1"
         style="stop-color:#93a6ad;stop-opacity:1" />
    </linearGradient>
    <linearGradient
       id="linearGradient3104">
      <stop
         style="stop-color:#6c221f;stop-opacity:1"
         offset="0"
         id="stop3106" />
      <stop
         id="stop3108"
         offset="0.24913195"
         style="stop-color:#7f2620;stop-opacity:1" />
      <stop
         id="stop3110"
         offset="0.4982639"
         style="stop-color:#982b24;stop-opacity:1" />
      <stop
         id="stop3112"
         offset="0.74913192"
         style="stop-color:#b53125;stop-opacity:1" />
      <stop
         style="stop-color:#cb3327;stop-opacity:1"
         offset="1"
         id="stop3114" />
    </linearGradient>
    <linearGradient
       inkscape:collect="always"
       xlink:href="#linearGradient3048"
       id="linearGradient5429"
       gradientUnits="userSpaceOnUse"
       x1="525.44409"
       y1="569.81665"
       x2="525.44409"
       y2="786.99048" />
    <linearGradient
       inkscape:collect="always"
       xlink:href="#linearGradient3104"
       id="linearGradient5431"
       gradientUnits="userSpaceOnUse"
       x1="531.46777"
       y1="643.60974"
       x2="652.13562"
       y2="566.33307" />
    <linearGradient
       inkscape:collect="always"
       xlink:href="#linearGradient3072"
       id="linearGradient5433"
       gradientUnits="userSpaceOnUse"
       x1="521.99634"
       y1="622.7948"
       x2="698.77301"
       y2="520.51685" />
    <linearGradient
       inkscape:collect="always"
       xlink:href="#linearGradient3020"
       id="linearGradient5435"
       gradientUnits="userSpaceOnUse"
       x1="421.73868"
       y1="263.43304"
       x2="421.73868"
       y2="473.23691" />
    <linearGradient
       inkscape:collect="always"
       xlink:href="#linearGradient3011"
       id="linearGradient5449"
       gradientUnits="userSpaceOnUse"
       gradientTransform="matrix(-8e-7,-17.551294,-17.551294,8e-7,332.85547,689.11102)"
       spreadMethod="pad"
       x1="0"
       y1="0"
       x2="1"
       y2="0" />
    <linearGradient
       inkscape:collect="always"
       xlink:href="#linearGradient3048"
       id="linearGradient5465"
       gradientUnits="userSpaceOnUse"
       x1="525.44409"
       y1="569.81665"
       x2="525.44409"
       y2="786.99048" />
    <linearGradient
       inkscape:collect="always"
       xlink:href="#linearGradient3104"
       id="linearGradient5467"
       gradientUnits="userSpaceOnUse"
       x1="531.46777"
       y1="643.60974"
       x2="652.13562"
       y2="566.33307" />
    <linearGradient
       inkscape:collect="always"
       xlink:href="#linearGradient3072"
       id="linearGradient5469"
       gradientUnits="userSpaceOnUse"
       x1="521.99634"
       y1="622.7948"
       x2="698.77301"
       y2="520.51685" />
    <linearGradient
       inkscape:collect="always"
       xlink:href="#linearGradient3020"
       id="linearGradient5471"
       gradientUnits="userSpaceOnUse"
       x1="421.73868"
       y1="263.43304"
       x2="421.73868"
       y2="473.23691" />
  </defs>
  <sodipodi:namedview
     id="base"
     pagecolor="#ffffff"
     bordercolor="#666666"
     borderopacity="1.0"
     inkscape:pageopacity="0.0"
     inkscape:pageshadow="2"
     inkscape:zoom="1.979899"
     inkscape:cx="247.82949"
     inkscape:cy="-39.177568"
     inkscape:document-units="px"
     inkscape:current-layer="g2993"
     showgrid="false"
     fit-margin-left="0.5"
     fit-margin-top="0.5"
     fit-margin-bottom="0.5"
     fit-margin-right="0.5"
     inkscape:window-width="1920"
     inkscape:window-height="1028"
     inkscape:window-x="-8"
     inkscape:window-y="-8"
     inkscape:window-maximized="1" />
  <metadata
     id="metadata7">
    <rdf:RDF>
      <cc:Work
         rdf:about="">
        <dc:format>image/svg+xml</dc:format>
        <dc:type
           rdf:resource="http://purl.org/dc/dcmitype/StillImage" />
        <dc:title></dc:title>
      </cc:Work>
    </rdf:RDF>
  </metadata>
  <g
     inkscape:label="Layer 1"
     inkscape:groupmode="layer"
     id="layer1"
     transform="translate(-137.89356,-32.599422)">
    <g
       transform="matrix(1.25,0,0,-1.25,-428.21429,879.32551)"
       inkscape:label="US_Airways_Side_by_Side_Factsheet"
       id="g2993">
      <g
         id="g5437" />
      <g
         id="g5451"
         transform="matrix(1.3439297,0,0,1.3439297,230.19543,-269.75452)">
        <g
           transform="matrix(0.72462467,0,0,-0.72462467,-193.02879,488.4987)"
           inkscape:label="Layer 1"
           id="layer1-8">
          <g
             transform="matrix(0.07116922,0,0,0.07116922,677.12796,-316.7662)"
             id="g5423">
            <path
               style="fill:url(#linearGradient5465);stroke:none"
               d="m 532.0969,643.96918 60.17872,100.00014 c 18.65478,29.97019 49.38721,43.57143 87.67857,43.57143 l 154.82143,0 -181.24972,-219.64257 -25.71457,-14.64314 -67.85714,22.14286 -34.38507,49.75797 z"
               id="path3016"
               inkscape:connector-curvature="0"
               sodipodi:nodetypes="ccccccccc" />
            <path
               style="fill:url(#linearGradient5467);stroke:none"
               d="m 653.5259,567.89818 -37.83792,-45.86608 -100.0051,53.79062 10.6066,54.2957 5.80742,13.85076 c -2.27427,-36.79788 60.90759,-79.52245 121.429,-76.071 z"
               id="path3018"
               inkscape:connector-curvature="0"
               sodipodi:nodetypes="cccccc" />
            <path
               style="fill:url(#linearGradient5469);fill-opacity:1;stroke:none"
               d="m 532.0969,643.96918 -54.107,-89.46414 c -6.51775,-10.14881 -8.30357,-19.02922 -8.30357,-29.375 0,-11.37942 4.85119,-17.61905 23.48214,-27.5 21.70395,-10.39186 65.40103,-14.91072 110.44643,-14.91072 73.19517,0 90.74093,23.4911 98.21429,48.83929 0,0 -10.33436,-4.10714 -34.64286,-4.10714 -77.1112,0 -138.75,37.43131 -138.75,94.10714 0,11.89326 3.66057,22.41057 3.66057,22.41057 z"
               id="path3014"
               inkscape:connector-curvature="0"
               sodipodi:nodetypes="ccccccccc" />
            <path
               style="fill:url(#linearGradient5471);fill-opacity:1;stroke:none"
               d="m 299.69963,263.36991 72.77989,0 c 30.6936,0 43.28235,12.5561 55.69889,24.875 14.21129,12.91899 57.3127,71.25418 148.42929,185.11046 l -98.61614,0 c -40.32578,0 -53.08064,-6.87005 -68.67691,-30.65461 z"
               id="path3012"
               inkscape:connector-curvature="0"
               sodipodi:nodetypes="ccccccc" />
          </g>
        </g>
      </g>
      <g
         id="g4361">
        <g
           clip-path="url(#clipPath4365)"
           id="g4363">
          <g
             transform="matrix(0.2266244,0,0,-0.2584647,1912.0443,-850.36291)"
             id="g4369">
            <g
               transform="translate(-7973.7549,-4000.1055)"
               id="g4371">
              <path
                 id="path4373"
                 style="fill:#086591;fill-opacity:1;fill-rule:evenodd;stroke:none"
                 d="m 0,0 0,-12.642 0.979,-1.056 0,-9.497 3.194,-1.903 0,-0.226 1.165,0.55 10.133,4.778 0.468,0.222 0,0.516 0,3.29 6.038,2.115 0.548,0.193 0,0.577 0,13.186 0.519,0 0,0.795 5.519,0 0,5.769 -294.922,0 0,-5.769 6.355,0 0,-5.688 -0.995,0 0,-1.579 3.478,-3.546 5.027,-5.125 5.027,5.125 3.417,3.484 0,1.641 -0.892,0 0,5.688 2.106,0 0,-4.832 0,-1.99 0,-4.207 -1.066,0 0,-1.52 3.563,-3.634 5.055,-5.153 5.055,5.153 3.57,3.64 0,1.514 -1.031,0 0,4.207 0,1.99 0,4.792 1.689,0 0,-37.302 18.869,0 0,13.852 18.215,0 0,23.45 1.92,0 0,-39.504 15.762,0 0,39.544 2.298,0 0,-24.439 12.15,0 0,-30.045 15.762,0 0,54.484 3.283,0 0,-61.931 15.762,7.224 0,23.862 16.807,0 0,2.776 13.513,0 2.092,0 0,2.093 0,9.744 5.48,0 0,-20.456 13.909,-2.71 4.001,1.979 0,-11.466 18.112,-3.528 8.167,4.04 0,13.963 0.218,0 0,-4.768 5.749,-5.161 0,-4.036 1.611,0 0,3.995 5.744,5.202 0,4.768 1.834,0 0,34.41 2.887,0 0,-25.668 3.608,0 0,-4.505 1.608,0 0,-2.853 4.973,-5.326 4.913,5.326 0,2.853 1.609,0 0,4.505 3.194,0 0,25.668 1.688,0 L -0.263,0 0,0 z"
                 inkscape:connector-curvature="0" />
            </g>
          </g>
        </g>
      </g>
    </g>
  </g>
</svg>
