<?xml version="1.0" encoding="utf-8"?>
<!DOCTYPE svg PUBLIC "-//W3C//DTD SVG 1.1//EN" "http://www.w3.org/Graphics/SVG/1.1/DTD/svg11.dtd">
<svg version="1.1" xmlns="http://www.w3.org/2000/svg" width="210" height="100" viewBox="887.126 389.37 210 100">
  <title>Aston Martin Logo</title>
  <path d="M1091.797,395.929c-0.704-1.167-1.993-1.255-2.511-1.273h-80.859c-2.29,0-4.14,0.694-5.508,2.066c-0.982,0.979-1.659,2.256-2.009,3.795c-0.006,0.036-0.101,0.357-0.793,0.357h-15.983c-0.692,0-0.787-0.321-0.793-0.357c-0.35-1.539-1.026-2.816-2.009-3.795c-1.368-1.372-3.218-2.066-5.507-2.066h-80.86c-0.518,0.018-1.807,0.107-2.511,1.273c-0.334,0.569-0.585,1.528,0.14,2.867c0.006,0.012,1.481,2.465,1.481,2.465c0.602,0.987,1.293,1.354,2.748,1.446c0.021,0.002,0.695,0.072,1.167,0.893l1.508,2.649c0.317,0.608,1.067,2.033,3.625,2.379c0.043,0.006,0.789,0.089,1.201,0.873c0.006,0.009,1.862,3.277,1.862,3.277c0.542,1.051,1.302,1.44,2.682,1.866c0.003,0,33.818,9.927,33.818,9.927c1.149,0.34,1.619,1.637,1.619,1.637c0.808,2.087,1.857,3.804,7.136,5.397c0.003,0.002,27.667,7.549,27.667,7.549c0.338,0.112,3.507,1.076,5.894-1.227c0,0,6.471-6.176,6.488-6.188c0.002-0.006,0.271-0.28,0.637-0.28l0,0h0.001c0.365,0,0.634,0.273,0.636,0.28c0.017,0.012,6.488,6.188,6.488,6.188c2.387,2.303,5.555,1.339,5.894,1.227c0,0,27.663-7.546,27.667-7.549c5.279-1.593,6.328-3.311,7.136-5.397c0,0,0.469-1.297,1.618-1.637c0,0,33.816-9.927,33.818-9.927c1.38-0.426,2.14-0.815,2.682-1.866c0,0,1.856-3.269,1.862-3.277c0.412-0.784,1.158-0.866,1.201-0.873c2.558-0.346,3.308-1.771,3.624-2.379l1.509-2.649c0.472-0.821,1.146-0.89,1.167-0.893c1.454-0.092,2.146-0.459,2.748-1.446c0,0,1.475-2.453,1.48-2.465C1092.383,397.457,1092.132,396.498,1091.797,395.929z M985.116,414.81h2.792l-4.048,14.6c-2.252-0.307-4.453-0.735-6.605-1.292C980.199,423.136,984.13,416.479,985.116,414.81z M983.757,414.81l-7.672,12.99c-2.07-0.583-4.091-1.286-6.066-2.111c4.186-4.361,9.222-9.611,10.438-10.879l0,0l0,0H983.757z M965.696,414.81L965.696,414.81l7.242,0l-10.111,7.236c-1.756-1.06-3.463-2.227-5.121-3.498C961.502,416.771,965.017,415.128,965.696,414.81z M956.674,417.739c-0.088-0.072-2.397-2.012-3.377-2.929h9.638L956.674,417.739z M974.948,414.81h3.886l-9.961,10.388c-1.685-0.744-3.331-1.581-4.941-2.5C968.712,419.274,973.695,415.706,974.948,414.81z M975.825,396.161L975.825,396.161c1.874,0,3.368,0.548,4.444,1.625c0.777,0.777,1.316,1.804,1.603,3.057c0,0,0.058,0.214,0.131,0.369h-39.722c-0.607-0.997-1.608-2.806-1.608-2.806c-0.044-0.081-0.716-1.29-1.993-2.245C957.741,396.161,975.825,396.161,975.825,396.161z M948.844,410.187c-0.523-0.606-1.024-1.202-1.502-1.794l3.554-0.479v1.852L948.844,410.187z M950.895,410.958v1.473c-0.396-0.41-0.78-0.824-1.152-1.235C950.205,411.098,950.593,411.02,950.895,410.958z M946.497,407.327c-0.476-0.617-0.927-1.221-1.353-1.813l5.751-0.381l0,0l0,0l0,0v1.601L946.497,407.327z M950.895,403.918l-6.571,0.435c-0.474-0.682-0.91-1.343-1.312-1.973h7.882L950.895,403.918L950.895,403.918z M896.932,401.212L896.932,401.212L896.932,401.212L896.932,401.212L896.932,401.212c-1.028-0.077-1.246-0.199-1.569-0.729c0.003,0.004-1.341-2.231-1.448-2.408c-0.223-0.411-0.296-0.715-0.287-0.929c0.025-0.548,0.397-0.97,1.378-0.985l40.302,0.003c2.728,0,4.336,2.8,4.336,2.8c0.354,0.659,0.777,1.415,1.271,2.248H896.932z M902.394,406.921L902.394,406.921c-1.027-0.354-1.353-0.97-1.563-1.37c-0.628-1.068-1.454-2.664-1.86-3.172h42.658c0.41,0.655,0.854,1.345,1.341,2.063l-37.423,2.486C904.958,407,903.251,407.136,902.394,406.921z M909.307,412.312L909.307,412.312c-1.362,0.182-1.79-0.268-1.868-0.375l-1.792-3.155c-0.122-0.235-0.266-0.431-0.416-0.604c0.23-0.021,38.541-2.572,38.541-2.572c0.437,0.616,0.898,1.25,1.391,1.896L909.307,412.312L909.307,412.312z M918,415.76L918,415.76c-3.714-1.096-6.733-1.979-8.021-2.355l36.012-4.833c0.492,0.619,1.006,1.247,1.545,1.881l-24.64,5.066C921.981,415.708,919.353,416.114,918,415.76z M930.21,419.343L930.21,419.343c-2.75-0.806-5.648-1.657-8.382-2.462c0.729-0.101,1.25-0.208,1.305-0.22c-0.003,0.003,17.85-3.667,25.284-5.194c0.735,0.824,1.506,1.652,2.323,2.482l-16.509,5.093C934.194,419.054,931.942,419.801,930.21,419.343z M943.085,423.124L943.085,423.124c-0.352-0.104-4.273-1.256-9.327-2.742c0.482-0.107,0.799-0.214,0.834-0.226c-0.015,0.006,13.858-4.274,17.088-5.271c1.185,1.149,2.456,2.292,3.816,3.405l-8.929,4.179C945.978,422.766,944.256,423.441,943.085,423.124z M950.24,429.615c-3.494-1.318-4.017-2.631-4.514-3.904c-0.041-0.113-0.296-0.792-0.869-1.444c1.183-0.224,2.161-0.714,2.225-0.747c-0.01,0.002,4.726-2.208,9.434-4.415c1.706,1.339,3.468,2.569,5.276,3.682l-8.347,5.971C953.419,428.785,951.688,430.071,950.24,429.615z M960.255,432.449L960.255,432.449l-7.397-2.015c0.738-0.321,1.242-0.7,1.283-0.733c-0.006,0.006,4.133-2.956,8.746-6.256c1.667,0.973,3.374,1.86,5.124,2.651l-4.859,5.063C962.718,431.616,961.365,432.714,960.255,432.449z M970.518,435.25L970.518,435.25l-7.961-2.173c0.826-0.47,1.398-1.063,1.442-1.107c0,0,2.276-2.376,5.151-5.374c2.054,0.875,4.157,1.625,6.315,2.248l-2.63,4.457C972.515,433.878,971.442,435.396,970.518,435.25z M980.884,437.447c-0.451,0.273-0.975,0.336-1.597,0.193l-6.958-1.896c0.85-0.694,1.423-1.682,1.521-1.864c-0.004,0.004,1.178-1.994,2.781-4.711c2.25,0.595,4.554,1.057,6.91,1.38l-1.347,4.853l0,0C982.196,435.417,981.878,436.84,980.884,437.447z M983.961,436.836c-0.53,0.515-1.125,0.804-1.701,0.959c0.771-0.869,1.039-1.962,1.079-2.131l1.378-4.962c1.728,0.2,3.487,0.33,5.27,0.39C988.559,432.449,983.961,436.836,983.961,436.836z M991.541,429.952c-2.214-0.018-4.381-0.155-6.507-0.396v0l4.089-14.746h2.417V429.952z M1002.38,400.843L1002.38,400.843c0.282-1.253,0.823-2.28,1.6-3.057c1.076-1.077,2.573-1.625,4.444-1.625c0,0,18.087,0,37.146,0c-1.277,0.956-1.948,2.164-1.993,2.245c-0.43,0.806-0.968,1.75-1.606,2.807h-39.723C1002.33,401.067,1002.38,400.843,1002.38,400.843L1002.38,400.843z M1033.345,409.764v-1.852l3.567,0.479c-0.479,0.593-0.982,1.191-1.507,1.794C1034.486,409.997,1033.778,409.853,1033.345,409.764z M1034.509,411.196c-0.375,0.414-0.765,0.833-1.164,1.248v-1.485L1034.509,411.196z M1033.345,406.734v-1.601l5.767,0.381c-0.426,0.592-0.881,1.196-1.356,1.813L1033.345,406.734z M1033.345,403.918v-1.539h7.897c-0.401,0.63-0.841,1.292-1.311,1.973L1033.345,403.918z M1011.309,414.81L1011.309,414.81h7.244l7.99,3.738c-1.66,1.271-3.367,2.438-5.122,3.5C1017.565,419.287,1013.502,416.378,1011.309,414.81z M1020.317,422.698c-1.605,0.92-3.255,1.756-4.936,2.5c-3.628-3.78-7.996-8.338-9.965-10.388h3.886L1020.317,422.698z M1021.314,414.81h9.639c-0.982,0.976-3.301,2.866-3.377,2.929C1025.232,416.64,1022.946,415.575,1021.314,414.81z M1000.492,414.81h3.301l10.437,10.882c-1.971,0.821-3.994,1.521-6.064,2.107L1000.492,414.81L1000.492,414.81z M999.133,414.81L999.133,414.81l7.862,13.305c-2.152,0.56-4.356,0.988-6.605,1.295l-4.048-14.6H999.133z M992.711,429.955V414.81h2.418l4.087,14.746C997.089,429.8,994.921,429.934,992.711,429.955z M999.28,435.876L999.28,435.876c0,0-3.746-3.576-5.018-4.784c1.783-0.063,3.543-0.194,5.271-0.396l1.378,4.971c0.039,0.173,0.314,1.263,1.08,2.129C1000.934,437.495,1000.615,437.182,999.28,435.876z M1004.962,437.64L1004.962,437.64c-0.622,0.143-1.147,0.08-1.599-0.193c-0.969-0.593-1.291-1.956-1.31-2.037l-1.347-4.861c2.355-0.327,4.656-0.789,6.905-1.384l2.795,4.73c0.096,0.169,0.662,1.158,1.513,1.848L1004.962,437.64z M1013.732,435.25L1013.732,435.25c-0.925,0.146-1.998-1.372-2.31-1.938l-2.641-4.47c2.157-0.622,4.267-1.367,6.317-2.245l5.151,5.376c0.046,0.045,0.616,0.637,1.442,1.104L1013.732,435.25z M1025.31,432.092L1025.31,432.092L1025.31,432.092l-1.316,0.357c-1.108,0.266-2.462-0.833-2.895-1.289c0,0-2.126-2.211-4.856-5.063c1.747-0.792,3.454-1.675,5.12-2.652l8.758,6.266c0.036,0.029,0.536,0.404,1.271,0.723C1029.446,430.963,1025.31,432.092,1025.31,432.092z M1038.527,425.705c-0.498,1.277-1.019,2.592-4.526,3.91c-1.448,0.45-3.17-0.83-3.185-0.845c-0.007-0.006-3.912-2.801-8.359-5.983c1.808-1.116,3.569-2.342,5.279-3.682l9.45,4.423c0.052,0.027,1.026,0.519,2.207,0.739C1038.828,424.91,1038.573,425.573,1038.527,425.705L1038.527,425.705z M1041.166,423.124c-1.171,0.318-2.896-0.358-3.469-0.646c0,0-4.413-2.065-8.943-4.185c1.36-1.116,2.632-2.256,3.816-3.408l17.101,5.277c0.032,0.012,0.344,0.113,0.819,0.22L1041.166,423.124z M1054.048,419.34c-1.732,0.464-3.993-0.286-4.016-0.292l-0.026-0.009c0,0-0.004-0.002-0.006-0.002l-16.491-5.087c0.817-0.83,1.595-1.655,2.326-2.482l25.283,5.197c0.056,0.009,0.573,0.116,1.301,0.217L1054.048,419.34L1054.048,419.34z M1066.261,415.756L1066.261,415.756L1066.261,415.756c-1.35,0.358-3.99-0.047-4.907-0.237c0,0-16.865-3.466-24.637-5.064c0.539-0.634,1.057-1.262,1.547-1.884l36.007,4.833L1066.261,415.756L1066.261,415.756z M1078.593,408.797L1078.593,408.797c0.01-0.012-1.472,2.596-1.78,3.138c-0.075,0.101-0.496,0.559-1.867,0.377l-35.855-4.81c0.492-0.643,0.958-1.281,1.395-1.896l38.088,2.527c0.056,0.006,0.216,0.024,0.445,0.044C1078.862,408.357,1078.719,408.559,1078.593,408.797z M1084.954,402.855l-1.536,2.697c-0.21,0.399-0.533,1.015-1.56,1.369c-0.857,0.214-2.564,0.078-3.155,0.006l-37.418-2.486c0.484-0.717,0.933-1.408,1.341-2.063h42.65C1085.165,402.522,1085.056,402.676,1084.954,402.855L1084.954,402.855L1084.954,402.855z M1090.334,398.075L1090.334,398.075c-0.021,0.033-1.45,2.412-1.45,2.412c-0.271,0.447-0.439,0.649-1.554,0.72c-0.007,0-43.991,0.006-43.991,0.006c0.492-0.833,0.914-1.589,1.269-2.247c0.012-0.023,1.57-2.8,4.337-2.8l40.299-0.003c0.423,0.018,0.973,0.065,1.263,0.545c0.035,0.065,0.118,0.199,0.118,0.44C1090.624,397.36,1090.556,397.664,1090.334,398.075z"/>
  <linearGradient id="SVGID_1_" gradientUnits="userSpaceOnUse" x1="990.7542" y1="408.0259" x2="1003.1702" y2="396.201" gradientTransform="matrix(2.8387 0 0 -2.8387 -1837.9453 1549.4854)">
    <stop offset="0" stop-color="#339966"/>
    <stop offset="1" stop-color="#004F32"/>
    <stop offset="1" stop-color="#004F32"/>
  </linearGradient>
  <path fill="url(#SVGID_1_)" d="M952.083,413.64c-0.006-0.006-0.011-0.012-0.017-0.018v-11.237h80.111v11.243c-0.002,0.006-0.006,0.006-0.009,0.009L952.083,413.64L952.083,413.64L952.083,413.64z"/>
</svg>