<?xml version="1.0" encoding="UTF-8" standalone="no"?>
<svg
   xmlns:dc="http://purl.org/dc/elements/1.1/"
   xmlns:cc="http://creativecommons.org/ns#"
   xmlns:rdf="http://www.w3.org/1999/02/22-rdf-syntax-ns#"
   xmlns:svg="http://www.w3.org/2000/svg"
   xmlns="http://www.w3.org/2000/svg"
   xmlns:xlink="http://www.w3.org/1999/xlink"
   xmlns:sodipodi="http://sodipodi.sourceforge.net/DTD/sodipodi-0.dtd"
   xmlns:inkscape="http://www.inkscape.org/namespaces/inkscape"
   inkscape:version="1.0beta2 (2b71d25, 2019-12-03)"
   sodipodi:docname="austrian-airlines_.svg"
   xml:space="preserve"
   viewBox="0 0 425.197 141.732"
   y="0px"
   x="0px"
   id="Ebene_1"
   version="1.1"><metadata
   id="metadata1812"><rdf:RDF><cc:Work
       rdf:about=""><dc:format>image/svg+xml</dc:format><dc:type
         rdf:resource="http://purl.org/dc/dcmitype/StillImage" /></cc:Work></rdf:RDF></metadata><defs
   id="defs1810" /><sodipodi:namedview
   inkscape:current-layer="g1805"
   inkscape:window-maximized="0"
   inkscape:window-y="23"
   inkscape:window-x="0"
   inkscape:cy="70.865997"
   inkscape:cx="212.5985"
   inkscape:zoom="1.1406478"
   showgrid="false"
   id="namedview1808"
   inkscape:window-height="596"
   inkscape:window-width="957"
   inkscape:pageshadow="2"
   inkscape:pageopacity="0"
   guidetolerance="10"
   gridtolerance="10"
   objecttolerance="10"
   borderopacity="1"
   inkscape:document-rotation="0"
   bordercolor="#666666"
   pagecolor="#ffffff" />
<g
   transform="matrix(1.460799,0,0,1.460799,-105.07335,-35.912735)"
   id="g1805">
	
	<g
   id="g1757">
		<path
   inkscape:connector-curvature="0"
   id="path1693"
   d="m 360.127,76.6 c -0.13,-0.702 0,-1.437 -3.809,-1.156 -3.809,0.29 -50.089,4.111 -56.146,4.111 -0.762,0 -4.014,0.22 -3.744,1.66 0.283,1.441 2.156,1.533 2.704,1.611 0.551,0.067 6.299,0.701 7.923,2.146 2.518,2.236 -0.633,8.524 -4.889,11.557 -8.02,5.718 -3.879,6.045 -1.754,4.722 10.812,-6.656 29.809,-15.429 56.529,-22.417 0,0 3.46,-0.792 3.186,-2.234 z"
   fill="#FFFFFF" />
		<path
   inkscape:connector-curvature="0"
   id="path1695"
   d="m 300.486,79.619 c -0.755,0 -3.983,0.216 -3.712,1.628 0.272,1.41 2.176,1.501 2.719,1.572 0.545,0.072 6.244,0.693 7.822,2.14 2.447,2.238 -0.694,8.424 -4.906,11.431 -7.823,5.582 -3.753,5.896 -1.647,4.591 10.514,-6.468 29.39,-15.204 55.852,-22.125 0,0 3.446,-0.791 3.179,-2.195 -0.13,-0.695 -0.005,-1.395 -3.776,-1.116 -3.773,0.285 -49.532,4.074 -55.531,4.074 z"
   fill="#FEFEFE" />
		<path
   inkscape:connector-curvature="0"
   id="path1697"
   d="m 300.801,79.683 c -0.747,0 -3.947,0.212 -3.681,1.596 0.267,1.379 2.196,1.462 2.734,1.533 0.54,0.072 6.189,0.687 7.723,2.133 2.376,2.241 -0.757,8.324 -4.925,11.305 -7.628,5.447 -3.629,5.749 -1.541,4.459 10.215,-6.278 28.97,-14.978 55.173,-21.832 0,0 3.434,-0.79 3.173,-2.156 -0.13,-0.688 -0.01,-1.352 -3.743,-1.077 -3.736,0.284 -48.973,4.039 -54.913,4.039 z"
   fill="#FDFDFD" />
		<path
   inkscape:connector-curvature="0"
   id="path1699"
   d="m 301.114,79.746 c -0.739,0 -3.911,0.207 -3.648,1.564 0.26,1.346 2.217,1.423 2.75,1.493 0.534,0.071 6.134,0.681 7.622,2.126 2.306,2.245 -0.818,8.224 -4.942,11.179 -7.432,5.311 -3.504,5.602 -1.435,4.328 9.916,-6.09 28.55,-14.754 54.494,-21.54 0,0 3.422,-0.789 3.167,-2.117 -0.131,-0.681 -0.014,-1.309 -3.711,-1.036 -3.699,0.281 -48.415,4.003 -54.297,4.003 z"
   fill="#FBFBFC" />
		<path
   inkscape:connector-curvature="0"
   id="path1701"
   d="m 301.429,79.81 c -0.731,0 -3.875,0.203 -3.616,1.533 0.255,1.313 2.237,1.384 2.765,1.454 0.529,0.07 6.08,0.674 7.522,2.119 2.234,2.247 -0.881,8.124 -4.961,11.053 -7.236,5.176 -3.378,5.453 -1.328,4.196 9.618,-5.9 28.131,-14.529 53.817,-21.248 0,0 3.408,-0.788 3.16,-2.077 -0.131,-0.674 -0.018,-1.267 -3.679,-0.997 -3.663,0.278 -47.857,3.967 -53.68,3.967 z"
   fill="#FAFAFA" />
		<path
   inkscape:connector-curvature="0"
   id="path1703"
   d="m 301.744,79.874 c -0.725,0 -3.839,0.198 -3.585,1.501 0.249,1.281 2.257,1.346 2.78,1.415 0.523,0.069 6.023,0.666 7.421,2.112 2.164,2.25 -0.942,8.023 -4.978,10.927 -7.041,5.041 -3.254,5.306 -1.223,4.065 9.319,-5.713 27.711,-14.305 53.139,-20.956 0,0 3.395,-0.787 3.153,-2.038 -0.13,-0.667 -0.022,-1.225 -3.646,-0.958 -3.624,0.277 -47.296,3.932 -53.061,3.932 z"
   fill="#F9F9F9" />
		<path
   inkscape:connector-curvature="0"
   id="path1705"
   d="m 302.058,79.937 c -0.718,0 -3.801,0.194 -3.552,1.47 0.244,1.25 2.276,1.309 2.795,1.377 0.519,0.068 5.969,0.659 7.32,2.104 2.094,2.252 -1.004,7.924 -4.996,10.802 -6.845,4.904 -3.128,5.156 -1.115,3.933 9.021,-5.522 27.291,-14.079 52.46,-20.663 0,0 3.385,-0.786 3.147,-1.999 -0.129,-0.659 -0.027,-1.182 -3.614,-0.918 -3.588,0.272 -46.739,3.894 -52.445,3.894 z"
   fill="#F8F8F8" />
		<path
   inkscape:connector-curvature="0"
   id="path1707"
   d="m 302.372,80 c -0.71,0 -3.765,0.19 -3.521,1.439 0.238,1.217 2.299,1.269 2.81,1.337 0.515,0.068 5.914,0.652 7.22,2.098 2.025,2.256 -1.066,7.824 -5.014,10.676 -6.649,4.77 -3,5.014 -1.009,3.802 8.734,-5.314 26.871,-13.854 51.782,-20.371 0,0 3.369,-0.784 3.14,-1.96 -0.13,-0.652 -0.031,-1.139 -3.58,-0.878 C 350.648,76.412 308.019,80 302.372,80 Z"
   fill="#F6F7F7" />
		<path
   inkscape:connector-curvature="0"
   id="path1709"
   d="m 302.686,80.065 c -0.703,0 -3.728,0.185 -3.488,1.406 0.233,1.185 2.318,1.229 2.825,1.297 0.51,0.067 5.859,0.646 7.119,2.092 1.954,2.258 -1.127,7.723 -5.031,10.55 -6.453,4.634 -2.874,4.866 -0.902,3.67 8.439,-5.12 26.452,-13.63 51.103,-20.079 0,0 3.361,-0.784 3.135,-1.92 -0.129,-0.646 -0.036,-1.096 -3.549,-0.838 -3.515,0.267 -45.623,3.822 -51.212,3.822 z"
   fill="#F5F5F6" />
		<path
   inkscape:connector-curvature="0"
   id="path1711"
   d="m 303.001,80.128 c -0.695,0 -3.691,0.182 -3.456,1.375 0.228,1.152 2.338,1.192 2.84,1.259 0.505,0.067 5.805,0.638 7.02,2.084 1.883,2.26 -1.183,7.632 -5.049,10.424 -6.248,4.513 -2.748,4.721 -0.796,3.539 8.143,-4.927 26.032,-13.405 50.425,-19.787 0,0 3.349,-0.783 3.128,-1.881 -0.128,-0.64 -0.041,-1.054 -3.517,-0.799 -3.479,0.265 -45.065,3.786 -50.595,3.786 z"
   fill="#F4F4F5" />
		<path
   inkscape:connector-curvature="0"
   id="path1713"
   d="m 303.315,80.191 c -0.688,0 -3.655,0.177 -3.425,1.344 0.222,1.12 2.359,1.153 2.855,1.219 0.499,0.066 5.753,0.629 6.919,2.077 1.817,2.259 -1.244,7.532 -5.067,10.298 -6.05,4.377 -2.622,4.573 -0.689,3.408 7.849,-4.732 25.612,-13.182 49.748,-19.495 0,0 3.335,-0.782 3.121,-1.842 -0.128,-0.632 -0.046,-1.011 -3.484,-0.759 -3.442,0.263 -44.507,3.75 -49.978,3.75 z"
   fill="#F3F3F3" />
		<path
   inkscape:connector-curvature="0"
   id="path1715"
   d="m 303.629,80.255 c -0.681,0 -3.619,0.173 -3.393,1.312 0.216,1.088 2.38,1.114 2.871,1.18 0.494,0.065 5.699,0.622 6.818,2.07 1.748,2.261 -1.307,7.434 -5.085,10.172 -5.854,4.242 -2.497,4.428 -0.582,3.277 7.554,-4.538 25.192,-12.957 49.068,-19.203 0,0 3.324,-0.781 3.115,-1.803 -0.128,-0.624 -0.051,-0.969 -3.452,-0.719 -3.404,0.26 -43.947,3.714 -49.36,3.714 z"
   fill="#F2F2F2" />
		<path
   inkscape:connector-curvature="0"
   id="path1717"
   d="m 303.943,80.319 c -0.674,0 -3.583,0.168 -3.36,1.28 0.211,1.055 2.4,1.075 2.886,1.14 0.489,0.065 5.645,0.614 6.719,2.063 1.678,2.264 -1.367,7.334 -5.103,10.047 -5.658,4.107 -2.37,4.279 -0.476,3.145 7.255,-4.347 24.772,-12.731 48.391,-18.91 0,0 3.311,-0.78 3.108,-1.764 -0.127,-0.618 -0.055,-0.926 -3.419,-0.68 -3.37,0.258 -43.391,3.679 -48.746,3.679 z"
   fill="#F0F1F1" />
		<path
   inkscape:connector-curvature="0"
   id="path1719"
   d="m 304.258,80.383 c -0.666,0 -3.546,0.164 -3.328,1.248 0.206,1.023 2.421,1.038 2.901,1.101 0.483,0.065 5.59,0.607 6.618,2.057 1.607,2.266 -1.429,7.234 -5.121,9.92 -5.462,3.974 -2.245,4.134 -0.37,3.014 6.959,-4.155 24.353,-12.506 47.713,-18.617 0,0 3.3,-0.78 3.102,-1.725 -0.127,-0.61 -0.059,-0.884 -3.387,-0.64 -3.332,0.255 -42.832,3.642 -48.128,3.642 z"
   fill="#EFF0F0" />
		<path
   inkscape:connector-curvature="0"
   id="path1721"
   d="m 304.572,80.446 c -0.658,0 -3.51,0.159 -3.297,1.217 0.199,0.991 2.441,0.998 2.916,1.062 0.48,0.063 5.535,0.601 6.518,2.051 1.537,2.268 -1.489,7.134 -5.139,9.794 -5.265,3.837 -2.119,3.986 -0.263,2.882 6.662,-3.964 23.934,-12.281 47.034,-18.326 0,0 3.286,-0.778 3.096,-1.685 -0.127,-0.603 -0.065,-0.841 -3.354,-0.601 -3.296,0.252 -42.273,3.606 -47.511,3.606 z"
   fill="#EEEEEF" />
		<path
   inkscape:connector-curvature="0"
   id="path1723"
   d="m 304.887,80.51 c -0.652,0 -3.474,0.155 -3.265,1.185 0.194,0.959 2.461,0.961 2.931,1.023 0.474,0.062 5.481,0.593 6.418,2.043 1.468,2.271 -1.552,7.034 -5.157,9.668 -5.068,3.703 -1.993,3.84 -0.157,2.751 6.365,-3.774 23.515,-12.057 46.356,-18.033 0,0 3.273,-0.778 3.09,-1.647 -0.126,-0.597 -0.069,-0.799 -3.322,-0.56 -3.26,0.25 -41.717,3.57 -46.894,3.57 z"
   fill="#EDEDEE" />
		<path
   inkscape:connector-curvature="0"
   id="path1725"
   d="m 305.201,80.574 c -0.645,0 -3.437,0.15 -3.232,1.152 0.188,0.927 2.48,0.921 2.945,0.983 0.469,0.062 5.427,0.587 6.317,2.036 1.397,2.274 -1.612,6.936 -5.175,9.543 -4.872,3.567 -1.868,3.692 -0.05,2.619 6.067,-3.582 23.095,-11.832 45.678,-17.741 0,0 3.262,-0.776 3.083,-1.606 -0.127,-0.589 -0.073,-0.756 -3.289,-0.521 -3.222,0.247 -41.158,3.535 -46.277,3.535 z"
   fill="#ECECEC" />
		<path
   inkscape:connector-curvature="0"
   id="path1727"
   d="m 305.516,80.638 c -0.637,0 -3.401,0.146 -3.201,1.121 0.184,0.895 2.502,0.883 2.962,0.944 0.463,0.062 5.371,0.58 6.216,2.029 1.327,2.276 -1.674,6.835 -5.191,9.416 -4.678,3.433 -1.742,3.546 0.056,2.488 5.769,-3.393 22.675,-11.606 44.999,-17.449 0,0 3.249,-0.775 3.077,-1.566 -0.127,-0.583 -0.077,-0.714 -3.257,-0.48 -3.187,0.242 -40.601,3.497 -45.661,3.497 z"
   fill="#EAEBEB" />
		<path
   inkscape:connector-curvature="0"
   id="path1729"
   d="m 305.83,80.701 c -0.63,0 -3.364,0.142 -3.169,1.09 0.178,0.862 2.522,0.844 2.977,0.904 0.458,0.061 5.316,0.573 6.116,2.022 1.257,2.279 -1.736,6.736 -5.21,9.291 -4.481,3.297 -1.617,3.398 0.162,2.356 5.471,-3.204 22.255,-11.383 44.321,-17.156 0,0 3.235,-0.775 3.07,-1.528 -0.126,-0.576 -0.082,-0.671 -3.225,-0.44 -3.148,0.241 -40.04,3.461 -45.042,3.461 z"
   fill="#E9EAEA" />
		<path
   inkscape:connector-curvature="0"
   id="path1731"
   d="m 306.145,80.765 c -0.623,0 -3.327,0.138 -3.137,1.059 0.172,0.83 2.542,0.806 2.991,0.865 0.453,0.059 5.262,0.566 6.016,2.016 1.187,2.282 -1.798,6.636 -5.228,9.165 -4.285,3.161 -1.491,3.251 0.269,2.225 5.172,-3.015 21.836,-11.157 43.643,-16.864 0,0 3.222,-0.773 3.064,-1.488 -0.126,-0.569 -0.087,-0.629 -3.192,-0.401 -3.113,0.235 -39.483,3.423 -44.426,3.423 z"
   fill="#E8E8E9" />
		<path
   inkscape:connector-curvature="0"
   id="path1733"
   d="m 306.459,80.828 c -0.615,0 -3.292,0.134 -3.106,1.026 0.167,0.799 2.562,0.768 3.007,0.827 0.448,0.059 5.207,0.559 5.915,2.008 1.116,2.285 -1.859,6.535 -5.246,9.039 -4.091,3.024 -1.365,3.103 0.376,2.094 4.872,-2.826 21.416,-10.932 42.965,-16.571 0,0 3.21,-0.772 3.058,-1.45 -0.126,-0.562 -0.092,-0.586 -3.16,-0.361 -3.076,0.234 -38.924,3.388 -43.809,3.388 z"
   fill="#E7E7E8" />
		<path
   inkscape:connector-curvature="0"
   id="path1735"
   d="m 306.773,80.893 c -0.608,0 -3.256,0.128 -3.073,0.994 0.161,0.767 2.583,0.729 3.021,0.787 0.442,0.059 5.152,0.552 5.815,2.002 1.045,2.287 -1.922,6.436 -5.264,8.913 -3.895,2.888 -1.241,2.956 0.483,1.962 4.573,-2.638 20.995,-10.708 42.285,-16.279 0,0 3.196,-0.772 3.052,-1.41 -0.126,-0.555 -0.097,-0.544 -3.128,-0.322 -3.038,0.232 -38.364,3.353 -43.191,3.353 z"
   fill="#E5E6E7" />
		<path
   inkscape:connector-curvature="0"
   id="path1737"
   d="m 307.087,80.956 c -0.6,0 -3.218,0.124 -3.04,0.963 0.155,0.733 2.603,0.691 3.036,0.748 0.438,0.058 5.099,0.545 5.715,1.994 0.975,2.292 -1.984,6.335 -5.281,8.787 -3.7,2.753 -1.115,2.81 0.589,1.831 4.272,-2.453 20.576,-10.482 41.607,-15.987 0,0 3.183,-0.77 3.045,-1.37 -0.126,-0.549 -0.101,-0.502 -3.095,-0.283 -3.003,0.23 -37.808,3.317 -42.576,3.317 z"
   fill="#E4E5E6" />
		<path
   inkscape:connector-curvature="0"
   id="path1739"
   d="m 307.401,81.02 c -0.593,0 -3.183,0.12 -3.009,0.932 0.15,0.701 2.623,0.652 3.052,0.709 0.433,0.058 5.043,0.538 5.614,1.987 0.904,2.294 -2.046,6.234 -5.299,8.661 -3.506,2.616 -0.99,2.66 0.695,1.699 3.974,-2.266 20.156,-10.258 40.93,-15.695 0,0 3.17,-0.769 3.038,-1.331 -0.127,-0.541 -0.105,-0.459 -3.062,-0.243 -2.965,0.227 -37.249,3.281 -41.959,3.281 z"
   fill="#E3E4E4" />
		<path
   inkscape:connector-curvature="0"
   id="path1741"
   d="m 307.716,81.083 c -0.586,0 -3.146,0.116 -2.977,0.9 0.145,0.668 2.643,0.613 3.066,0.669 0.428,0.058 4.988,0.532 5.515,1.981 0.834,2.296 -2.108,6.133 -5.317,8.535 -3.311,2.479 -0.865,2.513 0.802,1.568 3.672,-2.081 19.737,-10.034 40.251,-15.403 0,0 3.156,-0.769 3.032,-1.293 -0.126,-0.533 -0.109,-0.416 -3.03,-0.202 -2.929,0.225 -36.692,3.245 -41.342,3.245 z"
   fill="#E2E2E3" />
		<path
   inkscape:connector-curvature="0"
   id="path1743"
   d="m 308.03,81.148 c -0.578,0 -3.11,0.11 -2.945,0.867 0.14,0.637 2.665,0.576 3.083,0.631 0.422,0.057 4.932,0.524 5.413,1.974 0.764,2.3 -2.171,6.032 -5.335,8.41 -3.116,2.341 -0.74,2.364 0.908,1.437 3.372,-1.896 19.317,-9.81 39.573,-15.111 0,0 3.143,-0.767 3.025,-1.253 -0.127,-0.527 -0.114,-0.374 -2.997,-0.163 -2.892,0.219 -36.133,3.208 -40.725,3.208 z"
   fill="#E1E1E2" />
		<path
   inkscape:connector-curvature="0"
   id="path1745"
   d="m 308.345,81.211 c -0.571,0 -3.074,0.107 -2.913,0.836 0.134,0.604 2.685,0.536 3.098,0.591 0.417,0.056 4.877,0.519 5.312,1.968 0.692,2.303 -2.233,5.93 -5.353,8.283 -2.922,2.204 -0.616,2.215 1.015,1.306 3.07,-1.712 18.898,-9.584 38.895,-14.819 0,0 3.129,-0.765 3.02,-1.214 -0.127,-0.52 -0.119,-0.33 -2.965,-0.123 -2.856,0.218 -35.576,3.172 -40.109,3.172 z"
   fill="#DFE0E1" />
		<path
   inkscape:connector-curvature="0"
   id="path1747"
   d="m 308.658,81.274 c -0.562,0 -3.036,0.103 -2.88,0.805 0.128,0.572 2.704,0.498 3.111,0.552 0.413,0.055 4.823,0.511 5.214,1.96 0.622,2.306 -2.298,5.828 -5.371,8.157 -2.727,2.067 -0.492,2.067 1.121,1.175 2.769,-1.529 18.479,-9.359 38.217,-14.526 0,0 3.115,-0.765 3.013,-1.175 -0.128,-0.513 -0.123,-0.288 -2.933,-0.083 -2.819,0.215 -35.016,3.135 -39.492,3.135 z"
   fill="#DEDFE0" />
		<path
   inkscape:connector-curvature="0"
   id="path1749"
   d="m 308.973,81.338 c -0.556,0 -3.001,0.099 -2.849,0.773 0.122,0.54 2.726,0.458 3.128,0.512 0.406,0.054 4.767,0.506 5.112,1.954 0.551,2.309 -2.36,5.727 -5.389,8.031 -2.533,1.928 -0.368,1.915 1.228,1.043 2.466,-1.348 18.059,-9.135 37.539,-14.234 0,0 3.102,-0.763 3.006,-1.136 -0.129,-0.505 -0.128,-0.251 -2.9,-0.044 -2.783,0.208 -34.458,3.101 -38.875,3.101 z"
   fill="#DDDEDF" />
		<path
   inkscape:connector-curvature="0"
   id="path1751"
   d="m 309.287,81.402 c -0.549,0 -2.964,0.094 -2.816,0.74 0.116,0.509 2.745,0.421 3.143,0.474 0.401,0.054 4.712,0.498 5.012,1.946 0.479,2.311 -2.427,5.62 -5.406,7.906 -2.341,1.787 -0.245,1.763 1.334,0.911 2.162,-1.166 17.639,-8.909 36.86,-13.942 0,0 3.087,-0.762 3,-1.096 -0.13,-0.497 -0.133,-0.203 -2.867,-0.004 -2.747,0.211 -33.902,3.065 -38.26,3.065 z"
   fill="#DCDDDD" />
		<path
   inkscape:connector-curvature="0"
   id="path1753"
   d="m 309.602,81.466 c -0.541,0 -2.929,0.089 -2.785,0.709 0.11,0.476 2.766,0.383 3.158,0.435 0.397,0.053 4.657,0.491 4.912,1.939 0.408,2.315 -2.489,5.52 -5.425,7.779 -2.146,1.652 -0.123,1.609 1.44,0.78 1.86,-0.986 17.22,-8.685 36.183,-13.649 0,0 3.072,-0.761 2.993,-1.058 -0.131,-0.49 -0.137,-0.16 -2.835,0.036 -2.71,0.209 -33.343,3.029 -37.641,3.029 z"
   fill="#DADBDC" />
		<path
   inkscape:connector-curvature="0"
   id="path1755"
   d="m 349.743,78.462 c -0.135,-0.482 -0.142,-0.118 -2.803,0.075 -2.673,0.205 -32.784,2.992 -37.024,2.992 -0.534,0 -2.887,0.084 -2.753,0.678 0.109,0.442 2.786,0.346 3.173,0.395 0.392,0.055 4.598,0.485 4.812,1.933 0.33,2.319 -2.551,5.42 -5.442,7.654 -1.949,1.517 0,1.457 1.547,0.648 1.558,-0.802 16.8,-8.46 35.504,-13.357 -0.001,0 3.057,-0.759 2.986,-1.018 z"
   fill="#D9DADB" />
	</g>
	<g
   id="g1803">
		<linearGradient
   y2="74.636101"
   x2="310.36169"
   y1="49.983398"
   x1="305.12161"
   gradientUnits="userSpaceOnUse"
   id="SVGID_1_">
			<stop
   id="stop1759"
   style="stop-color:#FFFFFF"
   offset="0" />
			<stop
   id="stop1761"
   style="stop-color:#FCFCFC"
   offset="0.2184" />
			<stop
   id="stop1763"
   style="stop-color:#F2F2F2"
   offset="0.3937" />
			<stop
   id="stop1765"
   style="stop-color:#E1E2E2"
   offset="0.5541" />
			<stop
   id="stop1767"
   style="stop-color:#C9CACC"
   offset="0.7047" />
			<stop
   id="stop1769"
   style="stop-color:#C6C7C8"
   offset="0.7247" />
		</linearGradient>
		<path
   inkscape:connector-curvature="0"
   style="fill:url(#SVGID_1_)"
   id="path1772"
   d="m 343.082,46.052 c 0,0 -25.516,1.86 -46.221,5.92 0,0 -1.594,0.302 -2.643,0.512 0,0 3.688,-0.62 4.863,0.758 1.23,1.442 3.049,5.058 -11.591,17.901 -4.85,4.249 -10.264,8.039 -14.39,10.735 l 9.605,-1.55 c 4.468,-4.253 16.272,-13.869 26.76,-19.37 17.76,-9.313 31.727,-14.259 33.534,-14.82 0.13,-0.04 0.083,-0.086 0.083,-0.086 z"
   fill="url(#SVGID_1_)" />
		<path
   inkscape:connector-curvature="0"
   id="path1774"
   d="m 343.082,46.052 c 0,0 -25.516,1.86 -46.221,5.92 0,0 -1.594,0.302 -2.643,0.512 0,0 3.688,-0.62 4.863,0.758 1.23,1.442 3.049,5.058 -11.591,17.901 -4.85,4.249 -10.264,8.039 -14.39,10.735 l 9.605,-1.55 c 4.468,-4.253 16.272,-13.869 26.76,-19.37 17.76,-9.313 31.727,-14.259 33.534,-14.82 0.13,-0.04 0.083,-0.086 0.083,-0.086 z"
   fill="#D81E05" />
		<g
   id="g1801">
			<defs
   id="defs1777">
				<path
   inkscape:connector-curvature="0"
   d="m 294.218,52.484 c 0,0 3.688,-0.62 4.864,0.758 1.231,1.442 3.048,5.058 -11.592,17.901 l -11.328,-15.37 10.832,-4.057 z"
   id="SVGID_2_" />
			</defs>
			<clipPath
   id="SVGID_3_">
				<use
   height="100%"
   width="100%"
   y="0"
   x="0"
   id="use1779"
   overflow="visible"
   xlink:href="#SVGID_2_" />
			</clipPath>
			
				<linearGradient
   gradientTransform="matrix(0.9249,0,0,0.9249,-1031.0892,-295.1562)"
   y2="377.32831"
   x2="1450.0005"
   y1="377.32831"
   x1="1416.829"
   gradientUnits="userSpaceOnUse"
   id="SVGID_4_">
				<stop
   id="stop1782"
   style="stop-color:#FFFFFF"
   offset="0" />
				<stop
   id="stop1784"
   style="stop-color:#FBFBFB"
   offset="0.0886" />
				<stop
   id="stop1786"
   style="stop-color:#EEEFEF"
   offset="0.1804" />
				<stop
   id="stop1788"
   style="stop-color:#DADADB"
   offset="0.2737" />
				<stop
   id="stop1790"
   style="stop-color:#BDBDBE"
   offset="0.368" />
				<stop
   id="stop1792"
   style="stop-color:#98999A"
   offset="0.4622" />
				<stop
   id="stop1794"
   style="stop-color:#87888A"
   offset="0.5" />
			</linearGradient>
			<path
   inkscape:connector-curvature="0"
   style="fill:url(#SVGID_4_)"
   id="path1797"
   d="m 279.433,55.866 8.763,1.316 c 16.5,-7.664 15.73,0.737 15.73,0.737 l 6.006,-8.169 c -4.388,0.651 -8.828,1.391 -13.069,2.222 0,0 -1.594,0.302 -2.643,0.512 l -14.789,3.319 -0.022,0.007 c -0.015,0.004 -0.024,0.01 -0.024,0.026 0,0.013 0.01,0.022 0.024,0.026 0.011,0.002 0.024,0.004 0.024,0.004 z"
   fill="url(#SVGID_4_)"
   clip-path="url(#SVGID_3_)" />
			<path
   inkscape:connector-curvature="0"
   id="path1799"
   d="m 279.433,55.866 8.763,1.316 c 16.5,-7.664 15.73,0.737 15.73,0.737 l 6.006,-8.169 c -4.388,0.651 -8.828,1.391 -13.069,2.222 0,0 -1.594,0.302 -2.643,0.512 l -14.789,3.319 -0.022,0.007 c -0.015,0.004 -0.024,0.01 -0.024,0.026 0,0.013 0.01,0.022 0.024,0.026 0.011,0.002 0.024,0.004 0.024,0.004 z"
   fill="#D81E05"
   clip-path="url(#SVGID_3_)" />
		</g>
	</g>
</g>
</svg>
