<?xml version="1.0" encoding="UTF-8" standalone="no"?>
<!-- Created with Inkscape (http://www.inkscape.org/) -->

<svg
   xmlns:dc="http://purl.org/dc/elements/1.1/"
   xmlns:cc="http://creativecommons.org/ns#"
   xmlns:rdf="http://www.w3.org/1999/02/22-rdf-syntax-ns#"
   xmlns:svg="http://www.w3.org/2000/svg"
   xmlns="http://www.w3.org/2000/svg"
   xmlns:sodipodi="http://sodipodi.sourceforge.net/DTD/sodipodi-0.dtd"
   xmlns:inkscape="http://www.inkscape.org/namespaces/inkscape"
   width="208.64909"
   height="49.674042"
   viewBox="0 0 55.205074 13.142923"
   version="1.1"
   id="svg534"
   inkscape:version="0.92.0 r15299"
   sodipodi:docname="avianca.svg">
  <defs
     id="defs528" />
  <sodipodi:namedview
     id="base"
     pagecolor="#ffffff"
     bordercolor="#666666"
     borderopacity="1.0"
     inkscape:pageopacity="0.0"
     inkscape:pageshadow="2"
     inkscape:zoom="3.1290698"
     inkscape:cx="130.19856"
     inkscape:cy="-10.041711"
     inkscape:document-units="mm"
     inkscape:current-layer="layer1"
     showgrid="false"
     fit-margin-top="0"
     fit-margin-left="0"
     fit-margin-right="0"
     fit-margin-bottom="0"
     units="px"
     inkscape:window-width="1280"
     inkscape:window-height="744"
     inkscape:window-x="-4"
     inkscape:window-y="-4"
     inkscape:window-maximized="1" />
  <metadata
     id="metadata531">
    <rdf:RDF>
      <cc:Work
         rdf:about="">
        <dc:format>image/svg+xml</dc:format>
        <dc:type
           rdf:resource="http://purl.org/dc/dcmitype/StillImage" />
        <dc:title></dc:title>
      </cc:Work>
    </rdf:RDF>
  </metadata>
  <g
     inkscape:label="Layer 1"
     inkscape:groupmode="layer"
     id="layer1"
     transform="translate(-91.214279,-160.27233)">
    <g
       id="g617"
       style="fill:#da291c;fill-opacity:1"
       transform="translate(0.13229084,-0.1322873)">
      <path
         d="m 143.64454,170.70204 c -0.21096,-0.65299 -0.8763,-1.16134 -3.21557,-1.33773 0.37395,0.43356 0.76694,0.84702 1.17969,1.23507 h 1.1878 c 0.49248,0 0.70909,0.0413 0.84808,0.10266"
         style="fill:#da291c;fill-opacity:1;fill-rule:nonzero;stroke:none;stroke-width:0.35277778"
         id="path62"
         inkscape:connector-curvature="0" />
      <path
         d="m 134.66871,163.95273 c -0.10901,2.53153 1.24707,5.08212 5.71747,5.40738 l 0.0441,0.004 c -2.27083,-2.63772 -3.80118,-6.01521 -4.41537,-8.8272 0,0 -1.24707,1.09996 -1.3462,3.41559"
         style="fill:#da291c;fill-opacity:1;fill-rule:nonzero;stroke:none;stroke-width:0.35277778"
         id="path66"
         inkscape:connector-curvature="0" />
      <path
         d="m 141.60852,170.59938 c -1.76107,0 -4.80236,7.1e-4 -4.80236,7.1e-4 0.0631,0.14957 0.28434,0.25435 0.78457,0.28398 2.99862,0.1778 3.42371,2.53118 7.7149,2.53118 0.37783,0 0.61278,-0.0219 0.84914,-0.0667 -1.6951,-0.52141 -3.21981,-1.50213 -4.54625,-2.7492"
         style="fill:#da291c;fill-opacity:1;fill-rule:nonzero;stroke:none;stroke-width:0.35277778"
         id="path70"
         inkscape:connector-curvature="0" />
    </g>
  </g>
</svg>
