<?xml version="1.0" encoding="utf-8"?>
<!-- Generator: Adobe Illustrator 15.0.2, SVG Export Plug-In . SVG Version: 6.00 Build 0)  -->
<!DOCTYPE svg PUBLIC "-//W3C//DTD SVG 1.1//EN" "http://www.w3.org/Graphics/SVG/1.1/DTD/svg11.dtd">
<svg version="1.1"
	 id="Layer_1" sodipodi:docbase="/home/mantisears" sodipodi:docname="Baidu.svg" inkscape:version="0.45.1" sodipodi:version="0.32" inkscape:output_extension="org.inkscape.output.svg.inkscape" xmlns:dc="http://purl.org/dc/elements/1.1/" xmlns:cc="http://web.resource.org/cc/" xmlns:rdf="http://www.w3.org/1999/02/22-rdf-syntax-ns#" xmlns:svg="http://www.w3.org/2000/svg" xmlns:sodipodi="http://sodipodi.sourceforge.net/DTD/sodipodi-0.dtd" xmlns:inkscape="http://www.inkscape.org/namespaces/inkscape"
	 xmlns="http://www.w3.org/2000/svg" xmlns:xlink="http://www.w3.org/1999/xlink" x="0px" y="0px"
	 viewBox="0 0 231 79" enable-background="new 0 0 231 79" xml:space="preserve">
<sodipodi:namedview  id="base" inkscape:current-layer="Layer_1" inkscape:window-y="138" inkscape:window-x="138" inkscape:pageshadow="2" inkscape:pageopacity="0.0" inkscape:cy="87.802316" inkscape:cx="147" inkscape:zoom="1.2823129" pagecolor="#ffffff" bordercolor="#666666" borderopacity="1.0" objecttolerance="10.0" gridtolerance="10.0" guidetolerance="10.0">
	</sodipodi:namedview>
<rect id="rect2223" x="0.78" y="0.761" fill="#FFFFFF" fill-opacity="0"/>
<g id="g2225" transform="translate(1.55968, -5.45889)">
	<path id="path2227" fill="#2319DC" d="M89.241,47.789c7.75-1.665,6.692-10.937,6.465-12.963c-0.382-3.125-4.055-8.582-9.039-8.146
		c-6.275,0.559-7.191,9.623-7.191,9.623C78.626,40.5,81.504,49.458,89.241,47.789 M103.633,32.246c4.278,0,7.736-4.93,7.736-11.02
		c0-6.091-3.458-11.013-7.736-11.013c-4.28,0-7.747,4.922-7.747,11.013C95.886,27.316,99.352,32.246,103.633,32.246 M122.077,32.971
		c5.727,0.75,9.396-5.359,10.13-9.988c0.75-4.623-2.95-10-6.995-10.923c-4.063-0.934-9.135,5.57-9.592,9.813
		C115.063,27.063,116.356,32.238,122.077,32.971 M144.756,40.748c0-2.214-1.833-8.888-8.659-8.888c-6.84,0-7.744,6.298-7.744,10.748
		c0,4.247,0.354,10.171,8.848,9.987C145.686,52.407,144.756,42.977,144.756,40.748 M136.097,60.184c0,0-8.853-6.848-14.02-14.252
		c-7.016-10.917-16.97-6.471-20.298-0.927c-3.318,5.558-8.476,9.068-9.214,10c-0.745,0.913-10.692,6.288-8.485,16.103
		c2.212,9.807,9.969,9.621,9.969,9.621s5.717,0.559,12.347-0.924c6.644-1.479,12.36,0.363,12.36,0.363s15.498,5.197,19.733-4.803
		C142.729,65.373,136.097,60.184,136.097,60.184"/>
</g>
</svg>
