<?xml version="1.0" encoding="utf-8"?>
<!-- Generator: Adobe Illustrator 21.0.0, SVG Export Plug-In . SVG Version: 6.00 Build 0)  -->
<svg version="1.1" id="Ebene_1" xmlns="http://www.w3.org/2000/svg" xmlns:xlink="http://www.w3.org/1999/xlink" x="0px" y="0px"
	 viewBox="0 0 549.2 232" style="enable-background:new 0 0 549.2 232;" xml:space="preserve">
<style type="text/css">
	.st0{fill:#E20015;}
	.st1{fill:#575757;}
</style>
<g>
	<g id="_x38_7_x2F_87_x2F_87__x7C__0_x2F_0_x2F_0">
		<g>
			<path class="st1" d="M100.8,71.5c-26.6,0-48.2,21.6-48.2,48.2s21.6,48.2,48.2,48.2c26.6,0,48.2-21.6,48.2-48.2
				S127.4,71.5,100.8,71.5z M100.8,163.4c-24.1,0-43.7-19.6-43.7-43.7S76.7,76,100.8,76c24.1,0,43.7,19.6,43.7,43.7
				S124.9,163.4,100.8,163.4z"/>
			<path class="st1" d="M120.7,89.6h-3.3v16.5H84.3V89.6h-3.4c-9.7,6.5-16.2,17.5-16.2,30.1c0,12.6,6.5,23.6,16.2,30.1h3.4v-16.5
				h33.1v16.5h3.3c9.8-6.5,16.2-17.5,16.2-30.1C136.9,107.1,130.5,96.1,120.7,89.6z M79.7,143.3c-6.7-5.9-10.6-14.4-10.6-23.6
				c0-9.2,3.9-17.7,10.6-23.6V143.3z M117.4,128.7H84.3v-18.1h33.1C117.4,110.7,117.4,128.7,117.4,128.7z M121.9,143.2v-10l0,0
				v-27.1l0,0v-10c6.6,5.9,10.5,14.4,10.5,23.5C132.4,128.8,128.5,137.3,121.9,143.2z"/>
		</g>
	</g>
</g>
</svg>
