<svg version="1.0" xmlns="http://www.w3.org/2000/svg" xmlns:xlink="http://www.w3.org/1999/xlink" width="100px" height="15px">
<g>
	<path fill="#EE452A" d="M3.724,13.77c0,0.658-0.72,1.188-1.614,1.188c-0.891,0-1.61-0.53-1.61-1.188
		c0-0.655,0.72-1.191,1.612-1.191C3.004,12.577,3.724,13.113,3.724,13.77"/>
	<path fill="#EE452A" d="M4.85,10.932c0,0.551-0.63,0.995-1.412,1c-0.784-0.005-1.416-0.449-1.416-1s0.632-0.988,1.416-0.988
		C4.22,9.941,4.85,10.381,4.85,10.932"/>
	<path fill="#EE452A" d="M5.775,8.564c0,0.441-0.538,0.8-1.203,0.802c-0.667,0-1.208-0.359-1.208-0.802c0-0.44,0.542-0.8,1.208-0.8
		C5.237,7.764,5.775,8.126,5.775,8.564"/>
	<path fill="#EE452A" d="M8.236,2.1C8.234,2.274,7.955,2.416,7.608,2.416S6.978,2.274,6.978,2.1c0-0.177,0.283-0.316,0.63-0.316
		S8.234,1.922,8.236,2.1"/>
	<path fill="#EE452A" d="M8.963,0.271c0,0.126-0.211,0.226-0.472,0.226c-0.263,0-0.472-0.1-0.474-0.226
		c0-0.124,0.211-0.229,0.474-0.229C8.752,0.042,8.963,0.147,8.963,0.271"/>
	<path fill="#EE452A" d="M8.62,1.138c0,0.147-0.242,0.262-0.547,0.264c-0.299,0-0.543-0.117-0.543-0.264
		c0-0.144,0.244-0.261,0.543-0.261C8.377,0.877,8.62,0.994,8.62,1.138"/>
	<path fill="#EE452A" d="M6.556,6.484c0,0.357-0.459,0.645-1.026,0.645c-0.563,0-1.023-0.288-1.023-0.645
		c0-0.355,0.459-0.646,1.023-0.646C6.097,5.839,6.556,6.129,6.556,6.484"/>
	<path fill="#EE452A" d="M7.233,4.751c0,0.282-0.391,0.515-0.878,0.515c-0.483,0-0.874-0.233-0.874-0.515
		c0-0.288,0.391-0.52,0.874-0.52C6.842,4.231,7.233,4.463,7.233,4.751"/>
	<path fill="#EE452A" d="M7.485,13.572c0,0.593-0.655,1.068-1.463,1.068s-1.465-0.477-1.465-1.068S5.214,12.5,6.02,12.5
		C6.83,12.5,7.485,12.98,7.485,13.572"/>
	<path fill="#EE452A" d="M10.704,12.684c0,0.521-0.591,0.941-1.32,0.941c-0.727,0-1.318-0.42-1.318-0.941
		c0-0.521,0.591-0.947,1.318-0.947C10.112,11.736,10.704,12.162,10.704,12.684"/>
	<path fill="#EE452A" d="M12.347,10.869c0,0.408-0.483,0.742-1.083,0.742c-0.593,0-1.076-0.334-1.076-0.742
		c0-0.415,0.483-0.749,1.076-0.749C11.862,10.12,12.347,10.454,12.347,10.869"/>
	<path fill="#EE452A" d="M10.775,7.633c0,0.274-0.353,0.493-0.784,0.493c-0.437,0-0.79-0.219-0.79-0.493
		c0-0.272,0.353-0.497,0.79-0.497C10.423,7.136,10.775,7.36,10.775,7.633"/>
	<path fill="#EE452A" d="M7.812,3.302c0,0.228-0.332,0.414-0.744,0.414c-0.409,0-0.742-0.187-0.742-0.414
		c0-0.227,0.333-0.411,0.742-0.411C7.479,2.891,7.812,3.076,7.812,3.302"/>
	<path fill="#EE452A" d="M12.059,8.986c0,0.334-0.409,0.603-0.918,0.603c-0.505,0-0.915-0.271-0.915-0.603
		c0-0.328,0.41-0.601,0.918-0.601C11.649,8.387,12.059,8.658,12.059,8.986"/>
</g>
</svg>
