<?xml version="1.0" encoding="UTF-8" standalone="no"?>
<!-- Created with Inkscape (http://www.inkscape.org/) -->
<svg
   xmlns:dc="http://purl.org/dc/elements/1.1/"
   xmlns:cc="http://creativecommons.org/ns#"
   xmlns:rdf="http://www.w3.org/1999/02/22-rdf-syntax-ns#"
   xmlns:svg="http://www.w3.org/2000/svg"
   xmlns="http://www.w3.org/2000/svg"
   xmlns:sodipodi="http://sodipodi.sourceforge.net/DTD/sodipodi-0.dtd"
   xmlns:inkscape="http://www.inkscape.org/namespaces/inkscape"
   width="310.92056"
   height="164.62"
   id="svg1927"
   sodipodi:version="0.32"
   inkscape:version="0.46"
   version="1.0"
   sodipodi:docbase="C:\Dokumente und Einstellungen\Andreas\Eigene Dateien\Eigene Bilder\sonstiges\Logos\Vektor\Transportation"
   sodipodi:docname="Bugatti_logo.svg"
   inkscape:output_extension="org.inkscape.output.svg.inkscape">
  <defs
     id="defs1929">
    <inkscape:perspective
       sodipodi:type="inkscape:persp3d"
       inkscape:vp_x="0 : 78.807526 : 1"
       inkscape:vp_y="0 : 1000 : 0"
       inkscape:vp_z="310.92056 : 78.807526 : 1"
       inkscape:persp3d-origin="155.46028 : 52.53835 : 1"
       id="perspective2542" />
  </defs>
  <sodipodi:namedview
     id="base"
     pagecolor="#ffffff"
     bordercolor="#666666"
     borderopacity="1.0"
     inkscape:pageopacity="0.0"
     inkscape:pageshadow="2"
     inkscape:zoom="1.6916667"
     inkscape:cx="171.64673"
     inkscape:cy="73.570425"
     inkscape:document-units="px"
     inkscape:current-layer="layer1"
     inkscape:window-width="904"
     inkscape:window-height="667"
     inkscape:window-x="115"
     inkscape:window-y="115"
     showgrid="false" />
  <metadata
     id="metadata1932">
    <rdf:RDF>
      <cc:Work
         rdf:about="">
        <dc:format>image/svg+xml</dc:format>
        <dc:type
           rdf:resource="http://purl.org/dc/dcmitype/StillImage" />
      </cc:Work>
    </rdf:RDF>
  </metadata>
  <g
     inkscape:label="Ebene 1"
     inkscape:groupmode="layer"
     id="layer1"
     transform="translate(69.74601,-182.1261)">
    <g
       id="g1970"
       transform="matrix(0.9699961,0,0,0.9699961,2.5717615,11.375821)">
      <path
         style="fill:#be0030"
         d="M 85.714871,337.94651 C -0.81187535,337.94651 -67.951201,302.7614 -67.951201,261.11374 C -67.951201,219.10696 -0.81226512,183.92173 85.714871,183.92173 C 171.88264,183.92173 239.38094,219.10709 239.38094,261.11374 C 239.38094,302.7614 171.88303,337.94651 85.714871,337.94651 L 85.714871,337.94651 z"
         id="_196511608" />
      <path
         style="fill:#aaaaaa"
         d="M -69.746009,261.11322 C -69.746009,217.31132 -0.45271358,182.12608 85.714286,182.12608 C 171.88205,182.12608 241.17456,217.31119 241.17456,261.11322 C 241.17456,304.55601 171.88154,339.74112 85.714286,339.74112 C -0.45336319,339.74112 -69.746009,304.55601 -69.746009,261.11322 L -69.746009,261.11322 z M 85.714286,196.48735 C -2.2484899,196.48735 -55.385775,232.39054 -55.385775,261.11322 C -55.385775,289.47679 -2.2490096,325.37997 85.714286,325.37997 C 173.67706,325.37997 226.81434,289.47679 226.81434,261.11322 C 226.81434,232.39054 173.67756,196.48735 85.714286,196.48735 L 85.714286,196.48735 z M 77.456586,189.30665 C 77.456586,187.15249 75.661369,185.71639 73.866138,185.71639 C 71.711973,185.71639 70.275871,187.5116 70.275871,189.66577 C 70.275871,191.46099 72.071089,192.8971 73.866138,192.8971 C 76.020472,192.8971 77.456586,191.10188 77.456586,189.30665 L 77.456586,189.30665 z M 65.608451,189.66577 C 65.249504,187.87055 63.813402,186.43443 61.659068,186.43443 C 59.864006,186.79355 58.427911,188.22965 58.427911,190.38382 C 58.427911,192.17904 60.222967,193.97408 62.377119,193.61515 C 64.172337,193.61515 65.608451,191.81993 65.608451,189.66577 z M 53.760478,190.74294 C 53.401363,188.94772 51.606313,187.5116 49.811095,187.87055 C 47.65693,187.87055 46.220829,189.66577 46.579763,191.81993 C 46.938878,193.61515 48.733928,195.05127 50.529146,194.69215 C 52.683311,194.69215 54.119412,192.8971 53.760478,190.74295 L 53.760478,190.74294 z M 41.912343,192.17904 C 41.553404,190.38382 39.758178,188.9477 37.96296,189.30665 C 35.808795,189.66577 34.73181,191.46099 34.73181,193.61515 C 35.090748,195.4102 36.885975,196.84648 39.040127,196.48737 C 40.835345,196.12843 42.271459,194.3332 41.912343,192.17905 L 41.912343,192.17904 z M 30.423311,194.3332 C 30.064372,192.53798 27.910042,191.10187 26.114993,191.46099 C 23.960828,192.17904 22.883661,193.97409 23.242778,195.7693 C 23.601716,197.92347 25.755877,199.00064 27.551095,198.64152 C 29.346312,198.28258 30.782427,196.12842 30.423311,194.3332 z M 18.575344,196.84647 C 18.216229,195.05125 16.42101,193.97409 14.266845,194.3332 C 12.471796,195.05126 11.394629,196.84647 11.753746,198.64152 C 12.471799,200.79568 14.266845,201.87285 16.062063,201.15479 C 18.216228,200.79567 19.293395,199.00062 18.575331,196.84647 L 18.575344,196.84647 z M 7.4452595,200.07762 C 6.7272062,198.28257 4.5730437,197.2054 2.777826,197.92346 C 0.98277718,198.28257 -0.094389812,200.43672 0.62366089,202.23195 C 0.98277588,204.38612 3.1369293,205.10417 4.9319781,204.74505 C 7.0863121,204.027 7.8043628,201.87284 7.4452465,200.07762 L 7.4452595,200.07762 z M -4.0437726,204.027 C -4.7618259,202.23195 -6.557041,201.15479 -8.3520898,201.87284 C -10.506255,202.59089 -11.224306,204.74505 -10.506255,206.54027 C -9.7882016,208.33549 -7.6340391,209.41249 -5.8388214,208.69444 C -4.0437726,207.97638 -3.3257219,205.82222 -4.0437726,204.027 L -4.0437726,204.027 z M -14.814741,208.3355 C -15.891733,206.54028 -18.046073,205.82223 -19.482174,206.89922 C -21.277223,207.61745 -21.995274,209.7716 -21.277223,211.56665 C -20.55917,213.36187 -18.405007,214.07992 -16.60979,213.36187 C -14.814741,212.2847 -14.09669,210.13054 -14.814741,208.3355 z M -25.585709,213.72099 C -26.303763,211.92577 -28.81686,211.56665 -30.253143,212.64382 C -32.048192,213.72099 -32.766242,215.87515 -31.689244,217.31125 C -30.612076,219.10647 -28.457912,219.82452 -26.662694,218.74735 C -24.867646,217.67018 -24.508529,215.51602 -25.585703,213.72099 L -25.585709,213.72099 z M -35.638627,220.18347 C -36.715619,218.38825 -38.869777,218.0293 -40.664995,219.10648 C -42.101096,220.54258 -42.460213,222.69674 -41.383048,224.13284 C -39.946947,225.92806 -37.792782,226.28701 -36.35668,225.21001 C -34.561463,223.77373 -34.202346,221.61956 -35.638627,220.18346 L -35.638627,220.18347 z M -44.973312,227.36417 C -46.409413,225.92807 -48.56376,225.92807 -49.999862,227.36417 C -51.435963,228.80027 -51.435963,230.95444 -49.999862,232.39054 C -48.56376,233.82664 -46.409413,233.82664 -44.973312,232.39054 C -43.537211,230.95444 -43.537211,228.80027 -44.973312,227.36417 z M -52.872078,235.9808 C -54.667295,234.90381 -56.82146,235.26275 -57.898445,236.69903 C -58.975614,238.49408 -58.616675,240.64824 -57.180392,241.7254 C -55.385343,242.80257 -53.231191,242.44346 -52.154024,241.00735 C -51.076856,239.21213 -51.435971,237.05797 -52.872078,235.9808 L -52.872078,235.9808 z M -59.334729,246.03372 C -61.129778,245.31567 -63.28393,246.39284 -64.002162,248.18806 C -64.720216,249.98311 -63.643047,252.13726 -61.847828,252.85531 C -59.693663,253.21442 -57.898445,252.49637 -57.180395,250.34221 C -56.462341,248.54699 -57.53951,246.75176 -59.334729,246.03371 L -59.334729,246.03372 z M 89.304683,332.56047 C 89.304683,330.76542 87.509634,328.9702 85.714416,328.9702 C 83.560251,328.9702 82.12415,330.76542 82.12415,332.56047 C 82.12415,334.7148 83.560251,336.15092 85.714416,336.15092 C 87.509634,336.15092 89.304683,334.71482 89.304683,332.56047 L 89.304683,332.56047 z M 77.456716,332.56047 C 77.456716,330.76542 76.020615,328.9702 73.866268,328.9702 C 72.071219,328.9702 70.276001,330.4063 70.276001,332.20153 C 70.276001,334.3557 71.712103,336.15092 73.866268,336.15092 C 75.661485,336.15092 77.456716,334.71482 77.456716,332.56047 z M 65.608581,332.20153 C 65.608581,330.04737 64.172479,328.25215 62.377249,328.25215 C 60.223084,328.25215 58.428041,329.68825 58.428041,331.48348 C 58.428041,333.63765 59.864149,335.07375 61.659198,335.43287 C 63.813532,335.43287 65.249646,333.99677 65.608581,332.20153 z M 53.760608,331.12437 C 54.119546,328.9702 52.68344,327.17498 50.529276,327.17498 C 48.734058,326.81604 46.939009,328.25215 46.579893,330.04737 C 46.220955,332.20153 47.657061,333.99675 49.811225,334.35569 C 51.606443,334.35569 53.401492,332.91959 53.760608,331.12435 L 53.760608,331.12437 z M 41.912473,329.68827 C 42.271588,327.5341 40.835481,325.73888 39.040257,325.37995 C 36.886092,325.02083 35.090874,326.45693 35.090874,328.25216 C 34.731936,330.40633 35.808927,332.20155 37.96309,332.56048 C 39.758307,332.91959 41.553538,331.48348 41.912473,329.68827 z M 30.42344,327.5341 C 30.782555,325.73888 29.346449,323.58472 27.551225,323.22578 C 25.756007,322.86667 23.601842,323.94383 23.242908,326.098 C 22.883793,327.89305 23.960961,330.04738 26.115123,330.40632 C 27.910172,330.76542 30.064506,329.32932 30.42344,327.5341 z M 18.575474,325.02083 C 19.293527,323.22578 18.216359,321.07145 16.062206,320.71252 C 14.266988,319.99445 12.471939,321.07145 11.753888,323.22578 C 11.394773,325.02083 12.471942,326.81605 14.266988,327.5341 C 16.421153,327.89304 18.216371,326.81604 18.575487,325.02083 L 18.575474,325.02083 z M 7.4453894,321.7895 C 7.8045044,319.99445 7.0864511,317.8403 4.932121,317.12225 C 3.1370722,316.76313 0.9829201,317.8403 0.6238038,319.63535 C -0.094249497,321.43057 0.9829188,323.58473 2.7779689,323.94385 C 4.5731866,324.6619 6.7273517,323.58473 7.4454024,321.78951 L 7.4453894,321.7895 z M -4.0436427,317.8403 C -3.3255894,316.04508 -4.0436427,313.89092 -5.8386915,313.17287 C -7.6339092,312.4548 -9.7880742,313.5318 -10.506125,315.32703 C -11.224178,317.12225 -10.506125,319.27641 -8.3519599,319.99446 C -6.5569111,320.71252 -4.7616934,319.63535 -4.0436427,317.8403 L -4.0436427,317.8403 z M -14.814611,313.5318 C -14.096558,311.73675 -14.814611,309.58241 -16.60966,308.50543 C -18.404878,307.78737 -20.559043,308.50543 -21.277093,310.30048 C -21.995147,312.0957 -21.277093,314.24986 -19.482045,314.96791 C -18.045943,316.04508 -15.891596,315.32702 -14.814611,313.53181 L -14.814611,313.5318 z M -25.585579,308.14631 C -24.508411,306.35126 -24.867526,304.19693 -26.662571,303.11994 C -28.457789,302.04277 -30.611954,302.76083 -31.689121,304.55604 C -32.766112,305.99215 -32.048059,308.50543 -30.253019,309.22348 C -28.816736,310.30047 -26.303637,309.94153 -25.585586,308.14631 L -25.585579,308.14631 z M -35.638497,301.68383 C -34.202214,300.24773 -34.561329,298.09338 -36.35655,296.65728 C -37.792652,295.58029 -39.946817,295.93923 -41.382918,297.73445 C -42.460087,299.17055 -42.100972,301.32471 -40.664865,302.76082 C -38.869647,303.83798 -36.715482,303.47887 -35.638497,301.68382 L -35.638497,301.68383 z M -44.973182,294.50313 C -43.537081,293.06703 -43.537081,290.91286 -44.973182,289.47676 C -46.409284,288.04066 -48.56363,288.04066 -49.999732,289.47676 C -51.435833,290.91286 -51.435833,293.06703 -49.999732,294.50313 C -48.56363,295.93923 -46.409284,295.93923 -44.973182,294.50313 z M -52.871948,285.88631 C -51.435846,284.80932 -51.07673,282.65516 -52.153894,280.85994 C -53.231063,279.42384 -55.385226,279.06473 -57.180262,280.14189 C -58.616546,281.21888 -58.97548,283.37322 -57.898316,285.16826 C -56.821324,286.60436 -54.667165,286.96348 -52.871948,285.88631 z M -59.334599,275.83339 C -57.539381,275.47445 -56.462214,273.32029 -57.180265,271.52508 C -57.898318,269.37091 -59.693533,268.65286 -61.847698,269.01181 C -63.642916,269.72986 -64.720083,271.88419 -64.002032,273.67924 C -63.283802,275.47446 -61.129648,276.55163 -59.334599,275.83341 L -59.334599,275.83339 z M -62.565749,264.70348 C -60.411584,264.34436 -58.975483,262.90826 -58.975483,260.75409 C -58.975483,258.95888 -60.7707,257.16383 -62.924865,257.52276 C -64.720083,257.52276 -66.156197,258.95886 -66.156197,261.11321 C -66.156197,262.90826 -64.36098,264.70348 -62.565749,264.70348 L -62.565749,264.70348 z M 233.9946,257.52278 C 232.19955,257.16384 230.40433,258.95888 230.40433,260.75411 C 230.40433,262.90827 231.84044,264.34437 233.9946,264.70349 C 235.78981,264.70349 237.58505,262.90827 237.58505,261.11322 C 237.58505,258.95889 236.14895,257.52278 233.9946,257.52278 z M 232.9176,269.01181 C 231.12239,268.65287 228.96822,269.37092 228.6091,271.52508 C 227.89105,273.32029 228.96822,275.47446 230.76344,275.83339 C 232.55849,276.55162 234.71264,275.47445 235.43087,273.67923 C 235.78981,271.88418 235.07175,269.72985 232.9176,269.01179 L 232.9176,269.01181 z M 228.6091,280.14189 C 226.81405,279.06472 224.6599,279.42384 223.58274,280.85995 C 222.14663,282.65516 222.86469,284.80933 224.30079,285.88631 C 226.096,286.96348 228.25017,286.60437 229.32734,285.16826 C 230.40433,283.37321 230.04539,281.21888 228.6091,280.14189 L 228.6091,280.14189 z M 221.42857,289.47676 C 219.99247,288.04066 217.47919,288.04066 216.04309,289.47676 C 214.96592,290.91286 214.96592,293.06703 216.04309,294.50313 C 217.47919,295.93923 219.99247,295.93923 221.42857,294.50313 C 222.50557,293.06703 222.50557,290.91286 221.42857,289.47676 z M 212.45282,297.73446 C 211.37565,295.93924 209.22149,295.58029 207.78539,296.65729 C 205.99017,298.09339 205.63105,300.24774 206.70822,301.68384 C 208.14432,303.47889 210.29849,303.83801 211.73459,302.76083 C 213.52981,301.32473 213.88892,299.17057 212.45282,297.73446 L 212.45282,297.73446 z M 202.75884,304.55606 C 202.04079,302.76084 199.5275,302.04279 198.0914,303.11996 C 196.29635,304.19695 195.5783,306.35129 196.6553,308.14632 C 197.73247,309.94154 199.88663,310.30049 201.68185,309.22349 C 203.4769,308.50544 203.83602,305.99216 202.75885,304.55606 L 202.75884,304.55606 z M 192.70592,310.30048 C 191.62892,308.50543 189.47477,307.78738 187.67955,308.50543 C 185.88433,309.58242 185.16628,311.73676 186.24345,313.5318 C 186.9615,315.32702 189.11567,316.04507 190.91088,314.9679 C 192.70593,314.24984 193.42398,312.09569 192.70593,310.30046 L 192.70592,310.30048 z M 181.93495,315.32703 C 181.2169,313.53181 179.06273,312.45482 177.26752,313.17287 C 175.47247,313.89092 174.3953,316.04508 175.11335,317.8403 C 175.8314,319.63535 177.98574,320.71252 179.78079,319.99446 C 181.576,319.2764 182.653,317.12225 181.93495,315.32703 z M 170.80503,319.63535 C 170.08698,317.8403 168.29177,316.76313 166.1376,317.12225 C 164.34238,317.8403 163.26539,319.99446 163.98344,321.7895 C 164.70149,323.58472 166.4967,324.66189 168.65087,323.94383 C 170.44592,323.58472 171.52309,321.43057 170.80503,319.63534 L 170.80503,319.63535 z M 159.67495,323.2258 C 158.9569,321.07146 157.16185,319.99446 155.0077,320.71253 C 153.21248,321.07146 152.13531,323.2258 152.49443,325.02085 C 153.21248,326.81606 155.0077,327.89306 156.80275,327.53411 C 158.95691,326.81605 160.03408,325.02085 159.67496,323.2258 L 159.67495,323.2258 z M 148.18592,326.09801 C 147.46787,323.94385 145.67282,322.86668 143.8776,323.2258 C 141.72344,323.58473 140.64627,325.7389 141.00539,327.53411 C 141.36432,329.32933 143.15955,330.76545 145.3137,330.40633 C 147.10892,330.04738 148.54503,327.89306 148.18592,326.09801 z M 136.33795,328.25218 C 135.97884,326.45696 134.18379,325.02085 132.38857,325.37996 C 130.2344,325.7389 129.15724,327.53413 129.15724,329.68828 C 129.51635,331.4835 131.3114,332.91961 133.46574,332.56049 C 135.26078,332.20155 136.69689,330.40633 136.33795,328.25218 z M 124.84892,330.0474 C 124.4898,328.25218 122.69475,326.81606 120.5406,327.17501 C 118.74538,327.17501 117.30927,328.97023 117.66822,331.12439 C 117.66822,332.91961 119.46344,334.35573 121.6176,334.35573 C 123.41282,333.99678 124.84893,332.20156 124.84893,330.04741 L 124.84892,330.0474 z M 113.00078,331.4835 C 112.64185,329.68828 111.20574,328.25216 109.05158,328.25216 C 107.25637,328.25216 105.46114,330.04738 105.82025,332.20155 C 105.82025,333.99677 107.6153,335.43288 109.76963,335.43288 C 111.56468,335.07376 113.00078,333.63766 113.00078,331.4835 L 113.00078,331.4835 z M 101.15282,332.20155 C 101.15282,330.40633 99.3576,328.97022 97.562552,328.97022 C 95.408218,328.97022 93.972103,330.76543 93.972103,332.56048 C 93.972103,334.71482 95.767321,336.15093 97.562552,336.15093 C 99.716717,336.15093 101.15282,334.35571 101.15282,332.20155 z M 82.124111,189.30727 C 82.124111,191.10249 83.560212,192.89772 85.714377,192.89772 C 87.509595,192.89772 89.304644,191.1025 89.304644,189.30727 C 89.304644,187.15311 87.509595,185.71701 85.714377,185.71701 C 83.560212,185.71701 82.124111,187.15311 82.124111,189.30727 z M 93.972077,189.30727 C 93.972077,191.10249 95.408179,192.89772 97.562526,192.89772 C 99.357574,192.89772 101.15279,191.46162 101.15279,189.66639 C 101.15279,187.51222 99.716691,185.71701 97.562526,185.71701 C 95.767308,185.71701 93.972077,187.15311 93.972077,189.30727 L 93.972077,189.30727 z M 105.82021,189.66639 C 105.4611,191.82055 107.25631,193.61577 109.05154,193.61577 C 111.20571,193.97471 112.64181,192.17967 113.00075,190.38444 C 113.00075,188.23027 111.56464,186.79417 109.7696,186.43506 C 107.61526,186.43506 105.82021,187.87116 105.82021,189.66639 L 105.82021,189.66639 z M 117.66818,190.74356 C 117.30924,192.89772 118.74535,194.69276 120.54056,194.69276 C 122.69473,195.05187 124.48976,193.61577 124.84888,191.82054 C 124.84888,189.66638 123.41278,187.87116 121.61755,187.87116 C 119.46338,187.51222 117.66817,188.94833 117.66817,190.74354 L 117.66818,190.74356 z M 129.15721,192.17966 C 129.15721,194.33382 130.23438,196.12904 132.38854,196.48797 C 134.18376,196.84709 135.97881,195.41081 136.33793,193.61576 C 136.69686,191.46159 135.26076,189.66638 133.46571,189.30726 C 131.31138,188.94832 129.51633,190.38443 129.15721,192.17964 L 129.15721,192.17966 z M 141.00535,194.33382 C 140.64623,196.12904 141.7234,198.28321 143.87756,198.64214 C 145.67278,199.00125 147.46783,197.92409 148.18588,195.76992 C 148.545,193.97471 147.10889,192.17966 145.31366,191.46161 C 143.1595,191.10249 141.36428,192.5386 141.00535,194.33382 z M 152.49438,196.84709 C 152.13526,199.00126 153.21243,200.79629 155.00765,201.15541 C 157.16181,201.87346 158.95685,200.79629 159.6749,198.64214 C 160.03401,196.84709 158.95685,195.05187 156.80268,194.33382 C 155.00763,193.97471 153.21242,195.05188 152.49437,196.84709 L 152.49438,196.84709 z M 163.98341,200.07824 C 163.26536,201.87346 164.34234,204.02762 166.13758,204.74567 C 168.29174,205.10479 170.08696,204.38674 170.80501,202.23258 C 171.52306,200.43736 170.44589,198.28319 168.65084,197.92408 C 166.49668,197.20602 164.70146,198.28319 163.98341,200.07824 L 163.98341,200.07824 z M 175.11333,204.02762 C 174.39528,205.82284 175.47244,207.97701 177.26749,208.69506 C 179.06271,209.41311 181.21687,208.33612 181.93492,206.54089 C 182.65298,204.74567 181.57599,202.59151 179.78076,201.87346 C 177.98571,201.15541 175.83138,202.23257 175.11333,204.02762 L 175.11333,204.02762 z M 186.24341,208.33612 C 185.16624,210.13117 185.88429,212.28532 187.67951,213.36249 C 189.47473,214.08054 191.6289,213.36249 192.70588,211.56727 C 193.42393,209.77222 192.70588,207.61807 190.91083,206.89984 C 189.11561,205.82285 186.96145,206.5409 186.2434,208.33612 L 186.24341,208.33612 z M 196.65526,213.72161 C 195.57828,215.51666 196.29633,217.67081 198.09136,218.74798 C 199.52747,219.82514 202.04075,219.10709 202.7588,217.31187 C 203.83596,215.87577 203.47685,213.72161 201.68181,212.64444 C 199.88659,211.56727 197.73243,211.92639 196.65526,213.72161 L 196.65526,213.72161 z M 206.70818,220.18409 C 205.63101,221.62019 205.99013,223.77436 207.78535,225.21064 C 209.22145,226.28763 211.37561,225.92869 212.45278,224.13347 C 213.88888,222.69737 213.52978,220.5432 211.73455,219.1071 C 210.29845,218.02993 208.14428,218.38887 206.70818,220.18409 L 206.70818,220.18409 z M 216.04305,227.36479 C 214.96588,228.80089 214.96588,230.95506 216.04305,232.39116 C 217.47915,233.82726 219.99243,233.82726 221.42853,232.39116 C 222.50553,230.95506 222.50553,228.80089 221.42853,227.36479 C 219.99243,225.92869 217.47915,225.92869 216.04305,227.36479 z M 224.30075,235.98143 C 222.86465,237.05859 222.14658,239.21276 223.5827,241.00798 C 224.65986,242.44408 226.81403,242.80319 228.60906,241.72603 C 230.04535,240.64886 230.40428,238.4947 229.3273,236.69966 C 228.25013,235.26338 226.09597,234.90444 224.30075,235.98143 L 224.30075,235.98143 z M 230.7634,246.03434 C 228.96818,246.7524 227.89101,248.54761 228.60906,250.34284 C 228.96818,252.49701 231.12233,253.21506 232.91756,252.85594 C 235.07173,252.13789 235.78978,249.98373 235.43083,248.18869 C 234.7126,246.39347 232.55845,245.31631 230.7634,246.03436 L 230.7634,246.03434 z"
         id="_226036680" />
    </g>
  </g>
</svg>
