<?xml version="1.0" encoding="UTF-8" standalone="no"?>
<!-- Created with Inkscape (http://www.inkscape.org/) -->

<svg
   xmlns:dc="http://purl.org/dc/elements/1.1/"
   xmlns:cc="http://creativecommons.org/ns#"
   xmlns:rdf="http://www.w3.org/1999/02/22-rdf-syntax-ns#"
   xmlns:svg="http://www.w3.org/2000/svg"
   xmlns="http://www.w3.org/2000/svg"
   xmlns:sodipodi="http://sodipodi.sourceforge.net/DTD/sodipodi-0.dtd"
   xmlns:inkscape="http://www.inkscape.org/namespaces/inkscape"
   width="253.19699"
   height="73.968712"
   viewBox="0 0 66.991703 19.570886"
   version="1.1"
   id="svg1898"
   inkscape:version="0.92.0 r15299"
   sodipodi:docname="bulgaria air.svg">
  <defs
     id="defs1892">
    <clipPath
       id="clipPath518"
       clipPathUnits="userSpaceOnUse">
      <path
         inkscape:connector-curvature="0"
         id="path516"
         d="m 165.93,422.641 h 263.415 v 77.724 H 165.93 Z" />
    </clipPath>
    <linearGradient
       id="linearGradient508"
       spreadMethod="pad"
       gradientTransform="matrix(4.2756158,-7.2821671,7.2821671,4.2756158,196.55302,224.25639)"
       gradientUnits="userSpaceOnUse"
       y2="0"
       x2="1"
       y1="0"
       x1="0">
      <stop
         id="stop498"
         offset="0"
         style="stop-opacity:1;stop-color:#df846b" />
      <stop
         id="stop500"
         offset="0.0659341"
         style="stop-opacity:1;stop-color:#df846b" />
      <stop
         id="stop502"
         offset="0.351648"
         style="stop-opacity:1;stop-color:#e2001a" />
      <stop
         id="stop504"
         offset="0.85"
         style="stop-opacity:1;stop-color:#ac0527" />
      <stop
         id="stop506"
         offset="1"
         style="stop-opacity:1;stop-color:#ac0527" />
    </linearGradient>
    <linearGradient
       id="linearGradient482"
       spreadMethod="pad"
       gradientTransform="matrix(4.1129729,9.9357301,-10.863083,0.02863233,188.83693,210.25349)"
       gradientUnits="userSpaceOnUse"
       y2="0"
       x2="1"
       y1="0"
       x1="0">
      <stop
         id="stop472"
         offset="0"
         style="stop-opacity:1;stop-color:#df846b" />
      <stop
         id="stop474"
         offset="0.0659341"
         style="stop-opacity:1;stop-color:#df846b" />
      <stop
         id="stop476"
         offset="0.351648"
         style="stop-opacity:1;stop-color:#e2001a" />
      <stop
         id="stop478"
         offset="0.85"
         style="stop-opacity:1;stop-color:#ac0527" />
      <stop
         id="stop480"
         offset="1"
         style="stop-opacity:1;stop-color:#ac0527" />
    </linearGradient>
    <linearGradient
       id="linearGradient456"
       spreadMethod="pad"
       gradientTransform="matrix(9.3959329,15.096497,-16.803374,3.5195915,185.62575,205.218)"
       gradientUnits="userSpaceOnUse"
       y2="0"
       x2="1"
       y1="0"
       x1="0">
      <stop
         id="stop446"
         offset="0"
         style="stop-opacity:1;stop-color:#90bf9f" />
      <stop
         id="stop448"
         offset="0.0934066"
         style="stop-opacity:1;stop-color:#90bf9f" />
      <stop
         id="stop450"
         offset="0.675824"
         style="stop-opacity:1;stop-color:#1fa22e" />
      <stop
         id="stop452"
         offset="0.884615"
         style="stop-opacity:1;stop-color:#008132" />
      <stop
         id="stop454"
         offset="1"
         style="stop-opacity:1;stop-color:#008132" />
    </linearGradient>
    <linearGradient
       id="linearGradient430"
       spreadMethod="pad"
       gradientTransform="matrix(-18.573746,-9.595664,7.5642013,-18.132221,196.3625,215.67319)"
       gradientUnits="userSpaceOnUse"
       y2="0"
       x2="1"
       y1="0"
       x1="0">
      <stop
         id="stop424"
         offset="0"
         style="stop-opacity:1;stop-color:#eceded" />
      <stop
         id="stop426"
         offset="0.263736"
         style="stop-opacity:1;stop-color:#ffffff" />
      <stop
         id="stop428"
         offset="1"
         style="stop-opacity:1;stop-color:#cfd1d2" />
    </linearGradient>
  </defs>
  <sodipodi:namedview
     id="base"
     pagecolor="#ffffff"
     bordercolor="#666666"
     borderopacity="1.0"
     inkscape:pageopacity="0.0"
     inkscape:pageshadow="2"
     inkscape:zoom="2.5541236"
     inkscape:cx="175.5984"
     inkscape:cy="48.803302"
     inkscape:document-units="mm"
     inkscape:current-layer="layer1"
     showgrid="false"
     fit-margin-top="0"
     fit-margin-left="0"
     fit-margin-right="0"
     fit-margin-bottom="0"
     units="px"
     inkscape:window-width="1280"
     inkscape:window-height="744"
     inkscape:window-x="-4"
     inkscape:window-y="-4"
     inkscape:window-maximized="1" />
  <metadata
     id="metadata1895">
    <rdf:RDF>
      <cc:Work
         rdf:about="">
        <dc:format>image/svg+xml</dc:format>
        <dc:type
           rdf:resource="http://purl.org/dc/dcmitype/StillImage" />
        <dc:title></dc:title>
      </cc:Work>
    </rdf:RDF>
  </metadata>
  <g
     inkscape:label="Layer 1"
     inkscape:groupmode="layer"
     id="layer1"
     transform="translate(-109.26578,-206.43095)">
    <g
       id="g2501"
       transform="matrix(0.71525993,0,0,0.71525993,31.376928,64.087203)">
      <path
         inkscape:connector-curvature="0"
         id="path432"
         style="fill:url(#linearGradient430);stroke:none;stroke-width:0.35277778"
         d="m 196.07084,213.28694 c 1.79106,0.84419 3.30624,2.21368 4.21182,3.13619 v 0 c 1.44039,1.46932 0.74118,5.00592 -0.7874,6.47241 v 0 c 2.00307,-1.46014 2.62537,-3.15877 2.69134,-4.52155 v 0 -0.49847 c -0.0272,-0.5581 -0.14182,-1.03752 -0.27411,-1.38854 v 0 c -0.88865,-2.35796 -3.10162,-4.10986 -6.39727,-5.62116 v 0 c -7.76429,-3.5627 -18.77272,-6.38492 -19.84516,-11.48609 v 0 c 0.53904,9.12989 13.11592,10.47785 20.40078,13.90721" />
      <path
         inkscape:connector-curvature="0"
         id="path458"
         style="fill:url(#linearGradient456);stroke:none;stroke-width:0.35277778"
         d="m 199.22856,217.36928 c 3.72427,3.42018 -0.4131,6.04802 -1.37972,6.66009 v 0 c 2.0447,-1.12994 3.65796,-2.99684 3.74933,-4.98933 v 0 -0.35419 c -0.061,-1.32186 -0.81104,-2.68323 -2.56293,-3.90843 v 0 c -5.50616,-3.84951 -19.58728,-6.477 -21.00827,-8.85507 v 0 c 2.86032,7.31202 16.28598,6.93102 21.20159,11.44693" />
      <path
         inkscape:connector-curvature="0"
         id="path484"
         style="fill:url(#linearGradient482);stroke:none;stroke-width:0.35277778"
         d="m 180.28721,209.75916 c 4.46229,7.29897 19.15443,6.88199 20.15279,10.70398 v 0 c 0.2159,0.82762 -0.29034,1.63336 -0.88018,2.21968 v 0 c 0.82797,-0.81492 1.41005,-1.50777 1.36807,-2.87867 v 0 c -0.17039,-5.77144 -16.91287,-6.97865 -20.64068,-10.04499 z" />
      <path
         inkscape:connector-curvature="0"
         id="path510"
         style="fill:url(#linearGradient508);stroke:none;stroke-width:0.35277778"
         d="m 193.29907,225.99434 c 6.05966,-1.8362 9.94798,-5.49627 4.5533,-7.16385 v 0 c 2.88008,1.37654 0.50306,5.46805 -4.5533,7.16385" />
      <path
         d="m 127.14763,219.18192 h -0.70661 l 2.25918,-8.35907 0.0106,-0.0392 h 1.87748 l -1.91699,7.1053 c -0.19297,0.77787 -0.78493,1.29293 -1.52365,1.29293"
         style="fill:#4b4b4d;fill-opacity:1;fill-rule:nonzero;stroke:none;stroke-width:0.35277778"
         id="path522"
         inkscape:connector-curvature="0" />
      <path
         d="m 128.85341,210.67638 -0.0102,0.0395 -2.25919,8.35801 h 0.70661 c 0.73978,0 1.33245,-0.51505 1.52506,-1.29293 l 1.91488,-7.10459 z"
         style="fill:#a0a5a9;fill-opacity:1;fill-rule:nonzero;stroke:none;stroke-width:0.35277778"
         id="path526"
         inkscape:connector-curvature="0" />
      <path
         d="m 113.42521,219.18192 h -3.16865 l 0.50483,-0.37218 c 0.18026,-0.127 0.381,-0.44873 0.46707,-0.70944 0.10196,-0.28927 0.30516,-0.90628 0.41558,-1.25765 0.16792,-0.53552 0.44344,-1.45627 0.82479,-2.7566 0.18768,-0.64982 0.36654,-1.21074 0.49248,-1.657 0.29915,-1.11337 1.03081,-1.83656 2.0708,-1.83939 0.22155,-0.002 0.47414,-0.008 0.75565,-0.0166 0.19967,-0.005 0.37889,-0.006 0.54152,-0.006 0.1912,0 0.35948,0.002 0.51223,0.002 0.39899,0 0.69568,0.018 0.91052,0.06 0.20249,0.043 0.38312,0.10513 0.54292,0.19227 0.15699,0.0882 0.28787,0.19932 0.38559,0.33514 0.0956,0.13123 0.16581,0.28469 0.2099,0.45508 0.043,0.15346 0.0639,0.31609 0.0628,0.4886 v 0.0533 0.004 l -7.1e-4,0.0363 c -0.006,0.17851 -0.0307,0.3556 -0.0737,0.53658 -0.0561,0.23706 -0.13582,0.46425 -0.23742,0.67874 -0.10301,0.21555 -0.22401,0.41099 -0.36477,0.58773 -0.13864,0.17286 -0.28893,0.32209 -0.45226,0.44909 -0.15699,0.12065 -0.3041,0.21554 -0.4438,0.28751 l -0.007,0.004 c 0.0702,0.0402 0.14005,0.0889 0.20885,0.14287 0.115,0.0963 0.21307,0.21555 0.29421,0.3549 0.0833,0.13899 0.14147,0.28857 0.17392,0.44802 0.0254,0.12736 0.0381,0.26424 0.0381,0.40852 l -0.001,0.0924 -0.002,0.0236 v 0.001 c -0.008,0.1718 -0.0349,0.35172 -0.079,0.53445 -0.0998,0.40817 -0.27093,0.78494 -0.51576,1.12713 -0.24306,0.34008 -0.53481,0.6156 -0.8703,0.81739 -0.33232,0.1979 -0.68333,0.33125 -1.05234,0.39828 -0.37394,0.067 -1.07597,0.0956 -2.14312,0.0963 m 0.53516,-3.61844 -0.59584,2.03694 h 0.95991 c 0.24059,0 0.43004,-0.0116 0.55598,-0.0314 0.12629,-0.0183 0.25259,-0.054 0.37888,-0.10266 0.127,-0.0519 0.22578,-0.10548 0.29387,-0.15522 0.0706,-0.0519 0.14005,-0.11959 0.21201,-0.20673 0.0702,-0.0875 0.13477,-0.18732 0.19192,-0.30021 0.0554,-0.1136 0.0988,-0.22895 0.12947,-0.3496 0.0226,-0.0935 0.0374,-0.1778 0.0399,-0.25012 l 10e-4,-0.0437 c 0,-0.0392 -0.002,-0.0776 -0.008,-0.11042 -0.0173,-0.10654 -0.0557,-0.19015 -0.11783,-0.26317 -0.0635,-0.0759 -0.14111,-0.12735 -0.25082,-0.16439 -0.0956,-0.0325 -0.30233,-0.0593 -0.58667,-0.0593 h -0.0169 -1.1864 m 1.62172,-3.42406 c -0.11888,0 -0.23742,0.001 -0.32632,0.005 -0.20849,0.0243 -0.27834,0.0476 -0.39828,0.39617 -0.0804,0.28434 -0.31468,1.04422 -0.42933,1.4418 h 0.59125 c 0.35948,0 0.60643,-0.0116 0.71156,-0.0282 0.11288,-0.0162 0.23918,-0.0505 0.38276,-0.10583 0.12171,-0.0473 0.23495,-0.11783 0.34078,-0.22155 0.11183,-0.10971 0.19967,-0.22331 0.26917,-0.35242 0.072,-0.12983 0.12242,-0.25894 0.15522,-0.39265 l 0.004,-0.0191 c 0.0162,-0.0688 0.0251,-0.13193 0.0268,-0.19191 l 7.1e-4,-0.042 c 0,-0.0325 -7.1e-4,-0.0624 -0.004,-0.09 -0.0134,-0.10054 -0.0423,-0.16298 -0.0885,-0.2166 -0.0526,-0.0554 -0.121,-0.0991 -0.2219,-0.12947 -0.0935,-0.0279 -0.27517,-0.0483 -0.52176,-0.0483 h -0.0162 c 0,0 -0.23777,-0.005 -0.47519,-0.005"
         style="fill:#4b4b4d;fill-opacity:1;fill-rule:nonzero;stroke:none;stroke-width:0.35277778"
         id="path530"
         inkscape:connector-curvature="0" />
      <path
         d="m 117.05275,212.56311 c -0.002,0.0586 -0.0102,0.12382 -0.0254,0.19191 l -0.006,0.0187 c -0.0318,0.13441 -0.0825,0.26388 -0.15346,0.3944 -0.0688,0.127 -0.15769,0.24271 -0.26952,0.35066 -0.10619,0.10407 -0.21837,0.1771 -0.34149,0.22225 -0.14287,0.055 -0.26882,0.0885 -0.38276,0.10619 -0.10407,0.0166 -0.35278,0.0272 -0.71085,0.0272 h -0.5902 c 0.11324,-0.39722 0.34643,-1.15711 0.42792,-1.44109 0.11995,-0.3489 0.19015,-0.37077 0.39899,-0.39723 0.26706,-0.0109 0.80116,7.1e-4 0.80116,7.1e-4 l 0.0169,-7.1e-4 c 0.24694,0 0.42791,0.0205 0.51964,0.0494 0.1016,0.0289 0.17004,0.073 0.22225,0.13017 0.0473,0.0522 0.0758,0.11536 0.0885,0.2152 0.005,0.0282 0.006,0.0582 0.006,0.0914 z m -0.78281,3.53377 c -0.004,0.0734 -0.0159,0.15593 -0.0399,0.25048 -0.0293,0.11959 -0.0734,0.23601 -0.12982,0.34819 -0.0575,0.1143 -0.12171,0.21413 -0.19156,0.30162 -0.0709,0.0868 -0.14076,0.15452 -0.21272,0.20708 -0.067,0.0494 -0.16616,0.10196 -0.29422,0.15346 -0.12665,0.0505 -0.25153,0.0854 -0.37818,0.10337 -0.127,0.0205 -0.31538,0.0321 -0.55739,0.0321 h -0.95744 l 0.59479,-2.03659 h 1.1871 l 0.0159,-0.001 c 0.28575,0 0.49283,0.0265 0.58738,0.0593 0.10865,0.0377 0.18767,0.0903 0.25153,0.16369 0.0617,0.0744 0.0991,0.15663 0.11677,0.26529 0.006,0.0321 0.009,0.0699 0.009,0.10936 z m 2.55517,-5.04895 v 7.1e-4 c -0.0998,-0.13582 -0.23037,-0.24695 -0.3863,-0.33585 -0.15945,-0.0864 -0.33972,-0.14922 -0.54257,-0.19156 -0.21449,-0.0423 -0.51294,-0.0607 -0.91158,-0.0607 -0.28257,0 -0.61983,-0.006 -1.05374,0.006 -0.28258,0.008 -0.5327,0.0127 -0.75565,0.0155 -1.03929,0.003 -1.77271,0.72637 -2.07151,1.8408 -0.12489,0.44485 -0.30269,1.00541 -0.49107,1.65452 -0.381,1.30105 -0.65723,2.22039 -0.82621,2.75873 -0.10971,0.35101 -0.31362,0.96661 -0.41416,1.2573 -0.0864,0.2614 -0.28681,0.58137 -0.46743,0.70873 l -0.50659,0.37218 h 3.16901 c 1.06785,0 1.76988,-0.0296 2.14594,-0.0967 0.36689,-0.0656 0.71826,-0.20038 1.05058,-0.39723 0.33549,-0.2025 0.62864,-0.47696 0.87065,-0.8188 0.24377,-0.34078 0.41628,-0.71896 0.51647,-1.12677 0.0437,-0.18309 0.0695,-0.3616 0.0783,-0.5334 v -7.1e-4 l 7.1e-4,-0.0247 0.003,-0.0917 c 0,-0.145 -0.0134,-0.28223 -0.0381,-0.40958 -0.0332,-0.15945 -0.091,-0.30868 -0.17462,-0.44873 -0.0808,-0.13829 -0.17816,-0.25788 -0.29351,-0.35172 -0.0706,-0.0568 -0.13865,-0.10513 -0.20955,-0.1457 l 0.006,-0.004 c 0.14005,-0.0706 0.28786,-0.16651 0.44414,-0.28681 0.16369,-0.12594 0.31539,-0.27622 0.45297,-0.45014 0.1404,-0.17639 0.26105,-0.37112 0.36336,-0.58597 0.10125,-0.21554 0.18133,-0.44132 0.23813,-0.6798 0.0423,-0.18097 0.0674,-0.35913 0.073,-0.53516 l 0.002,-0.0374 v -0.004 -0.054 c 3.5e-4,-0.17039 -0.0198,-0.33408 -0.0628,-0.48824 -0.043,-0.17075 -0.1143,-0.32421 -0.20919,-0.45544"
         style="fill:#a0a5a9;fill-opacity:1;fill-rule:nonzero;stroke:none;stroke-width:0.35277778"
         id="path534"
         inkscape:connector-curvature="0" />
      <path
         d="m 121.23832,219.18192 h -0.0744 c -0.60078,-0.001 -1.04633,-0.0956 -1.35995,-0.34255 -0.29422,-0.23424 -0.42016,-0.59443 -0.42016,-1.016 l 0.002,-0.091 c 0.009,-0.266 0.0607,-0.56339 0.14535,-0.89818 l 1.1176,-4.12538 h 1.87431 l -1.09785,4.08587 c -0.0512,0.17428 -0.078,0.32421 -0.0808,0.43921 l -0.001,0.0254 c 0.003,0.17568 0.0377,0.24659 0.12171,0.31715 0.0864,0.0706 0.2801,0.12947 0.59901,0.12947 h 0.005 c 0.54645,-0.004 0.8262,-0.13406 1.0294,-0.36689 0.20603,-0.2346 0.34149,-0.6283 0.4632,-1.17828 l 0.93627,-3.45193 h 1.84362 l -1.43122,5.473 c -0.0265,0.0903 -0.0536,0.2032 -0.0699,0.29845 -0.0215,0.13476 0.0374,0.25011 0.0917,0.32737 l 0.27094,0.34008 h -2.35832 l 0.0889,-0.40957 c -0.50624,0.3877 -1.10808,0.44379 -1.6951,0.44379"
         style="fill:#4b4b4d;fill-opacity:1;fill-rule:nonzero;stroke:none;stroke-width:0.35277778"
         id="path538"
         inkscape:connector-curvature="0" />
      <path
         d="m 124.98507,218.37339 c 0.0148,-0.0952 0.0402,-0.21061 0.0674,-0.30021 l 1.43228,-5.47265 h -1.84256 l -0.93804,3.45335 c -0.121,0.54927 -0.25717,0.94332 -0.46108,1.17792 -0.20602,0.23319 -0.48471,0.36266 -1.03117,0.36583 h -0.004 c -0.32068,0 -0.5133,-0.0596 -0.60008,-0.12982 -0.0847,-0.0684 -0.11818,-0.14111 -0.12135,-0.31609 v -0.0254 c 0.005,-0.11536 0.031,-0.26317 0.0815,-0.43921 l 1.09961,-4.08658 h -1.87643 l -1.11689,4.12574 c -0.0857,0.33514 -0.13512,0.63218 -0.14464,0.89888 l -0.003,0.091 c -7.1e-4,0.42121 0.12629,0.78175 0.42121,1.01494 0.3115,0.24765 0.75847,0.34149 1.35961,0.34254 h 0.0734 c 0.58702,0 1.18921,-0.0557 1.6965,-0.44309 l -0.0896,0.40993 h 2.35796 l -0.27093,-0.34078 c -0.0543,-0.0765 -0.11148,-0.19226 -0.0903,-0.32632"
         style="fill:#a0a5a9;fill-opacity:1;fill-rule:nonzero;stroke:none;stroke-width:0.35277778"
         id="path542"
         inkscape:connector-curvature="0" />
      <path
         d="m 170.46182,219.18192 -2.48461,-7.1e-4 0.14499,-2.0514 h -1.53776 c -0.11853,0.22649 -0.38453,0.73413 -0.49989,0.95779 -0.44873,0.86255 -1.22837,1.09361 -1.83374,1.09361 h -0.002 -0.009 c -0.0797,7.1e-4 -0.14852,7.1e-4 -0.20602,7.1e-4 -0.1143,0 -0.18168,-7.1e-4 -0.18168,-7.1e-4 l -0.33196,-0.002 0.16051,-0.30022 c 0.003,-7e-4 3.75073,-6.96912 3.89361,-7.22312 0.15769,-0.28011 0.40887,-0.5588 0.63782,-0.72637 0.29704,-0.22225 0.58632,-0.31679 0.9137,-0.31679 l 0.0116,0.001 c 0.0991,0 0.20073,0.006 0.30621,0.0176 0.55386,0.048 0.8389,0.51011 0.83714,1.04528 l -0.003,0.0765 v 0.0141 c -0.0123,0.36301 -0.34395,6.16938 -0.35701,6.45619 l -0.001,-0.001 v 0.0914 l -10e-4,-0.002 c 0.002,0.21061 0.0466,0.35278 0.15487,0.48966 h 0.001 c 0.12242,0.16086 0.27129,0.28469 0.27129,0.28469 l 0.11677,0.0956 m -2.05811,-5.59047 -1.11195,2.10538 h 0.96873 l 0.14322,-2.10538"
         style="fill:#4b4b4d;fill-opacity:1;fill-rule:nonzero;stroke:none;stroke-width:0.35277778"
         id="path546"
         inkscape:connector-curvature="0" />
      <path
         d="m 168.40358,215.58871 h -0.96802 l 1.1116,-2.10538 z m 1.81328,3.1048 v 0 c -0.10795,-0.13688 -0.15522,-0.27834 -0.15664,-0.48895 l 0.001,0.001 v -0.091 l 0.002,7.1e-4 c 0.0113,-0.28681 0.34396,-6.09283 0.35737,-6.45619 v -0.0134 l 0.001,-0.0769 c 0.004,-0.53446 -0.28223,-0.9966 -0.83538,-1.04457 -0.10689,-0.0113 -0.20743,-0.019 -0.30586,-0.019 h -0.0138 c -0.32526,-0.001 -0.61454,0.0942 -0.91299,0.31538 -0.22895,0.16792 -0.47977,0.44697 -0.63852,0.72743 -0.14253,0.254 -3.89079,7.221 -3.89079,7.22312 l -0.16051,0.29951 0.33196,0.003 h 0.17992 0.20602 0.01 c 0.60537,0 1.38783,-0.23036 1.83586,-1.09502 0.11677,-0.22155 0.38171,-0.7306 0.49883,-0.95709 h 1.53987 l -0.14569,2.05211 h 2.48461 l -0.11642,-0.0949 c 0,0 -0.14922,-0.12453 -0.27234,-0.28539"
         style="fill:#a0a5a9;fill-opacity:1;fill-rule:nonzero;stroke:none;stroke-width:0.35277778"
         id="path550"
         inkscape:connector-curvature="0" />
      <path
         d="m 175.50644,219.18192 h -0.71191 l 1.28165,-4.79213 c 0.2794,-1.06186 1.06891,-1.64536 1.97978,-1.64536 h 0.005 0.0176 2.70898 l -0.008,0.0607 -0.0233,0.16757 c -0.0868,0.68827 -0.65123,1.38747 -1.51553,1.38888 h -0.46814 c -0.39581,0.001 -0.59478,0.0752 -0.72249,0.19297 -0.12629,0.11572 -0.22084,0.33091 -0.30868,0.6784 l -0.71614,2.65606 c -0.18873,0.76976 -0.75494,1.29293 -1.51941,1.29293"
         style="fill:#4b4b4d;fill-opacity:1;fill-rule:nonzero;stroke:none;stroke-width:0.35277778"
         id="path554"
         inkscape:connector-curvature="0" />
      <path
         d="m 178.22135,212.63543 h -0.0162 c -0.91299,-7.1e-4 -1.70462,0.58279 -1.98437,1.64606 l -1.28341,4.79249 h 0.71261 c 0.76447,0 1.33139,-0.52211 1.51942,-1.29293 l 0.71578,-2.65607 c 0.0889,-0.34678 0.18309,-0.56162 0.3108,-0.67804 0.12665,-0.11677 0.3235,-0.19191 0.72249,-0.19191 h 0.46637 c 0.86184,-0.003 1.42805,-0.70132 1.51589,-1.39029 l 0.0226,-0.16687 0.008,-0.0624 z"
         style="fill:#a0a5a9;fill-opacity:1;fill-rule:nonzero;stroke:none;stroke-width:0.35277778"
         id="path558"
         inkscape:connector-curvature="0" />
      <path
         d="m 156.56503,219.18192 h -0.067 c -0.73448,-0.001 -1.24354,-0.13758 -1.57938,-0.43991 -0.31045,-0.28187 -0.42334,-0.68404 -0.42334,-1.13418 0,-0.036 0,-0.073 0.002,-0.10866 0.0194,-0.53022 0.16722,-1.14088 0.35454,-1.83162 0.23001,-0.87983 0.5147,-1.64112 1.02482,-2.1964 0.50906,-0.55527 1.24107,-0.86959 2.26483,-0.86959 h 0.004 0.009 c 0.36336,0.002 0.73307,0.0155 1.06045,0.14287 0.16933,0.0635 0.3249,0.16545 0.45049,0.30727 l 0.0952,-0.37782 h 1.88243 l -1.49755,5.47123 c -0.0423,0.13335 -0.0586,0.24341 -0.0628,0.33443 v 0.0279 c 0,0.13053 0.0286,0.21131 0.0723,0.28681 l 0.1905,0.31714 h -2.23344 l 0.0759,-0.33231 c -0.50941,0.34255 -1.02941,0.40287 -1.62313,0.40287 m 1.69757,-5.06659 c -0.58385,0.007 -0.84596,0.16757 -1.07386,0.48436 -0.22366,0.32138 -0.37465,0.84667 -0.55774,1.51836 -0.10901,0.41592 -0.16933,0.73342 -0.17604,0.95779 l -0.003,0.0416 c 0.003,0.24624 0.0511,0.33373 0.13723,0.3997 0.085,0.0684 0.28681,0.11677 0.59972,0.11677 h 0.006 0.0176 c 0.58561,-0.003 0.88195,-0.1143 1.10173,-0.34184 0.2226,-0.23001 0.38558,-0.6417 0.56479,-1.27176 h 7.1e-4 c 0.14393,-0.54998 0.26,-0.99378 0.26917,-1.29399 v -0.0441 c -0.001,-0.21661 -0.0441,-0.32209 -0.14146,-0.40675 -0.10372,-0.0878 -0.33479,-0.16016 -0.73308,-0.16016 h -0.006 -0.007"
         style="fill:#4b4b4d;fill-opacity:1;fill-rule:nonzero;stroke:none;stroke-width:0.35277778"
         id="path562"
         inkscape:connector-curvature="0" />
      <path
         d="m 159.29291,214.62015 c -0.0106,0.2981 -0.12382,0.74366 -0.26846,1.29293 h -0.001 c -0.17815,0.62971 -0.34361,1.04175 -0.56445,1.27071 -0.21978,0.22718 -0.51576,0.34007 -1.10207,0.34148 h -0.0162 c -0.3175,0.003 -0.52176,-0.0466 -0.60819,-0.11571 -0.0861,-0.0663 -0.13441,-0.15451 -0.13617,-0.40005 l 0.002,-0.0406 c 0.006,-0.22436 0.0667,-0.54222 0.17851,-0.95885 0.18062,-0.67168 0.33267,-1.19697 0.55597,-1.5187 0.22755,-0.31645 0.4886,-0.4759 1.0728,-0.48331 h 0.008 c 0.40216,-7e-4 0.63394,0.0723 0.73589,0.16122 0.0998,0.0829 0.14287,0.18944 0.14358,0.40499 z m 0.99519,3.41736 1.49789,-5.47123 h -1.88242 l -0.0935,0.37747 c -0.12594,-0.14146 -0.28257,-0.24271 -0.45226,-0.30727 -0.32597,-0.12735 -0.69568,-0.14076 -1.05868,-0.14182 h -0.0109 c -1.02482,-0.001 -1.75754,0.31327 -2.26625,0.8689 -0.51152,0.55597 -0.79586,1.31621 -1.02764,2.19639 -0.18591,0.69109 -0.33443,1.30316 -0.35277,1.82986 -0.002,0.0377 -0.004,0.0737 -0.004,0.11148 0,0.44802 0.1143,0.8516 0.42333,1.13347 0.3362,0.30163 0.84561,0.4378 1.57974,0.43921 h 0.0667 c 0.59373,0 1.11337,-0.0589 1.62349,-0.40181 l -0.0762,0.33125 h 2.23308 l -0.19015,-0.31891 c -0.0423,-0.0723 -0.0709,-0.15451 -0.0709,-0.28434 v -0.0289 c 0.003,-0.0903 0.0208,-0.20038 0.061,-0.33373"
         style="fill:#a0a5a9;fill-opacity:1;fill-rule:nonzero;stroke:none;stroke-width:0.35277778"
         id="path566"
         inkscape:connector-curvature="0" />
      <path
         d="m 171.9727,219.18192 h -0.70838 l 1.71803,-6.39833 0.0102,-0.0392 h 1.87678 l -1.37548,5.15091 c -0.22119,0.76517 -0.77752,1.28658 -1.52118,1.28658"
         style="fill:#4b4b4d;fill-opacity:1;fill-rule:nonzero;stroke:none;stroke-width:0.35277778"
         id="path570"
         inkscape:connector-curvature="0" />
      <path
         d="m 173.13683,212.63543 -0.0113,0.0413 -1.71803,6.39728 h 0.70803 c 0.7426,0 1.30034,-0.5207 1.52118,-1.28553 l 1.37512,-5.15302 z"
         style="fill:#a0a5a9;fill-opacity:1;fill-rule:nonzero;stroke:none;stroke-width:0.35277778"
         id="path574"
         inkscape:connector-curvature="0" />
      <path
         d="m 133.15903,221.53294 h -0.006 c -0.0554,0 -0.11007,-7.1e-4 -0.16228,-0.002 h -3.44769 l 0.0155,-0.0656 c 0.002,-0.004 0.16263,-0.73943 0.41628,-1.0601 0.24659,-0.3108 0.66498,-0.56303 1.25976,-0.56303 h 1.53141 c 0.50659,0 0.81739,-0.0875 1.01036,-0.2286 0.19367,-0.14358 0.31044,-0.35701 0.40322,-0.72038 l 0.031,-0.10653 c -0.49848,0.31926 -1.04634,0.37006 -1.54905,0.37006 -0.007,0 -0.0138,0 -0.0205,0 h -0.0441 c -0.72566,0 -1.23437,-0.14146 -1.56915,-0.44803 -0.31045,-0.28716 -0.42686,-0.69356 -0.4251,-1.143 0,-0.0356 0,-0.0699 0.003,-0.10618 0.0138,-0.4378 0.12206,-0.92816 0.2727,-1.46156 0.25435,-0.9966 0.50835,-1.83127 1.00894,-2.43946 0.49883,-0.60995 1.24496,-0.94439 2.35268,-0.94439 h 0.006 0.0183 c 0.42086,0 0.77893,0.005 1.09255,0.11289 0.16969,0.0568 0.3235,0.1517 0.44838,0.28752 l 0.0557,-0.20779 0.0427,-0.15699 h 2.43522 l -0.48612,0.37007 c -0.1965,0.15628 -0.29634,0.29245 -0.39512,0.70026 l -1.42804,5.24581 c -0.26282,0.9719 -0.57644,1.61889 -1.04846,2.02953 -0.47378,0.40851 -1.07244,0.53763 -1.82174,0.53763 m 1.22449,-7.44291 c -0.48154,0.002 -0.73272,0.0808 -0.94121,0.29493 -0.21202,0.2159 -0.39758,0.63958 -0.59196,1.35431 -0.1457,0.54434 -0.26353,0.99307 -0.27411,1.29611 v 0.043 c 0,0.19931 0.042,0.30656 0.12277,0.381 0.084,0.0797 0.26987,0.14922 0.60678,0.14922 0.005,0 0.01,0 0.0148,0 h 0.001 c 0.67381,-0.005 0.97084,-0.15452 1.19556,-0.44732 0.22543,-0.2921 0.40147,-1.00824 0.55104,-1.52259 0.14958,-0.51365 0.18345,-0.72496 0.1905,-0.9592 v -0.0395 c -0.002,-0.22225 -0.0466,-0.31997 -0.14464,-0.40005 -0.10336,-0.0836 -0.33231,-0.14994 -0.7112,-0.14994 -0.004,0 -0.008,0 -0.0113,0 h -0.008"
         style="fill:#4b4b4d;fill-opacity:1;fill-rule:nonzero;stroke:none;stroke-width:0.35277778"
         id="path578"
         inkscape:connector-curvature="0" />
      <path
         d="m 135.4021,214.57292 c -0.008,0.23319 -0.0413,0.44344 -0.19085,0.95779 -0.14817,0.51576 -0.32632,1.23049 -0.55069,1.524 -0.22613,0.2921 -0.52317,0.44238 -1.19521,0.44803 h -0.003 c -0.34537,7e-4 -0.53517,-0.0699 -0.61983,-0.15134 -0.0819,-0.0751 -0.12277,-0.18133 -0.12312,-0.3803 l 3.5e-4,-0.0437 c 0.009,-0.30233 0.127,-0.75248 0.27446,-1.2954 0.19403,-0.71438 0.37889,-1.13912 0.59161,-1.35467 0.20743,-0.21378 0.45932,-0.2921 0.94015,-0.29527 h 0.008 c 0.38594,0 0.61877,0.0656 0.72249,0.14958 0.0995,0.0815 0.14393,0.17815 0.14499,0.4011 z m 3.07869,-2.032 h -2.43452 l -0.0416,0.1584 -0.0564,0.20673 c -0.12629,-0.13512 -0.2794,-0.22931 -0.44803,-0.28681 -0.31432,-0.1076 -0.67133,-0.11183 -1.0929,-0.1136 h -0.0187 c -1.1109,0 -1.85984,0.33408 -2.35797,0.94545 -0.50094,0.60748 -0.75424,1.4425 -1.00965,2.43945 -0.14993,0.5334 -0.25823,1.02306 -0.2734,1.46156 -0.001,0.0349 -0.002,0.0699 -0.002,0.10619 -7e-4,0.44944 0.11642,0.85549 0.42616,1.14229 0.33514,0.30551 0.8442,0.44803 1.56915,0.44803 h 0.0423 c 0.50906,0.002 1.06433,-0.0459 1.57233,-0.36865 l -0.0328,0.10513 c -0.0928,0.36336 -0.20884,0.57749 -0.40322,0.72037 -0.19192,0.14146 -0.50342,0.2293 -1.01142,0.2293 h -1.52964 c -0.5962,-7e-4 -1.01353,0.25153 -1.26154,0.56268 -0.25294,0.32103 -0.41345,1.05763 -0.41627,1.06116 l -0.0148,0.0649 h 3.44875 c 0.0515,0 0.10584,0.003 0.16087,0.003 h 0.008 c 0.74788,0 1.34761,-0.13017 1.82209,-0.53763 0.47061,-0.41134 0.78282,-1.05692 1.0481,-2.03094 l 1.42664,-5.2444 c 0.10054,-0.41028 0.19932,-0.54539 0.39546,-0.70096 z"
         style="fill:#a0a5a9;fill-opacity:1;fill-rule:nonzero;stroke:none;stroke-width:0.35277778"
         id="path582"
         inkscape:connector-curvature="0" />
      <path
         d="m 145.79641,219.18192 h -0.71296 l 1.28305,-4.79213 c 0.27799,-1.06151 1.06574,-1.64536 1.97591,-1.64536 h 0.006 2.72838 l -0.008,0.0603 -0.0219,0.16792 c -0.0889,0.68827 -0.65369,1.38747 -1.51659,1.38888 h -0.46743 c -0.39758,0.001 -0.5969,0.0752 -0.72178,0.19297 -0.12771,0.11572 -0.2226,0.33091 -0.30974,0.6784 l -0.71649,2.65606 c -0.18874,0.76976 -0.75424,1.29293 -1.51871,1.29293"
         style="fill:#4b4b4d;fill-opacity:1;fill-rule:nonzero;stroke:none;stroke-width:0.35277778"
         id="path586"
         inkscape:connector-curvature="0" />
      <path
         d="m 151.19017,212.86473 0.0229,-0.16792 0.007,-0.0614 h -2.72697 c -0.91369,-0.001 -1.70497,0.58244 -1.98261,1.64607 l -1.28235,4.79248 h 0.71156 c 0.76482,0 1.33103,-0.52211 1.51835,-1.29293 l 0.71614,-2.65606 c 0.0892,-0.34678 0.18344,-0.56163 0.31115,-0.67804 0.12488,-0.11677 0.3235,-0.19227 0.72214,-0.19227 h 0.46566 c 0.8636,-0.003 1.42805,-0.70097 1.5173,-1.38994"
         style="fill:#a0a5a9;fill-opacity:1;fill-rule:nonzero;stroke:none;stroke-width:0.35277778"
         id="path590"
         inkscape:connector-curvature="0" />
      <path
         d="m 140.12583,219.18192 h -0.01 -0.0649 c -0.73236,-7.1e-4 -1.24424,-0.13758 -1.57868,-0.43991 -0.31044,-0.28187 -0.42368,-0.68616 -0.42298,-1.13524 0,-0.0356 0,-0.072 0.001,-0.1076 0.0198,-0.53022 0.16687,-1.143 0.35525,-1.83303 0.23036,-0.87983 0.51435,-1.63971 1.02588,-2.19499 0.50729,-0.5535 1.23613,-0.86818 2.25566,-0.86818 h 0.008 0.0145 c 0.36336,0 0.73272,0.0141 1.05904,0.14146 0.17004,0.0635 0.32526,0.16545 0.45156,0.30833 l 0.0952,-0.37994 h 1.8803 l -1.49613,5.47229 c -0.0815,0.28222 -0.0991,0.46214 0.009,0.64911 l 0.18944,0.31714 h -2.23132 l 0.0744,-0.33231 c -0.508,0.34113 -1.02447,0.40287 -1.61537,0.40287 m 1.68981,-5.06659 c -0.58315,0.007 -0.8435,0.16615 -1.07069,0.48436 -0.22542,0.32138 -0.37676,0.84667 -0.55738,1.51836 -0.11183,0.41733 -0.1704,0.73483 -0.17851,0.95779 v 0.043 c 0.001,0.24553 0.0497,0.33302 0.13511,0.39828 0.0857,0.0684 0.28611,0.11677 0.59655,0.11677 h 0.007 0.0198 c 0.58526,-0.003 0.88124,-0.1143 1.10102,-0.34184 0.22225,-0.23072 0.3877,-0.64453 0.56762,-1.276 l 0.006,-0.0212 c 0.14111,-0.53834 0.254,-0.97473 0.26247,-1.26753 v -0.0437 c -10e-4,-0.2166 -0.0445,-0.32209 -0.14393,-0.40816 -0.10266,-0.0875 -0.3295,-0.16087 -0.72531,-0.16087 h -0.0106 v -7.1e-4 l -0.004,0.001 h -0.005"
         style="fill:#4b4b4d;fill-opacity:1;fill-rule:nonzero;stroke:none;stroke-width:0.35277778"
         id="path594"
         inkscape:connector-curvature="0" />
      <path
         d="m 142.8474,214.62015 c -0.01,0.29351 -0.12277,0.72919 -0.26211,1.26612 l -0.008,0.0219 c -0.17957,0.63288 -0.34361,1.04669 -0.56621,1.27494 -0.21837,0.22789 -0.51576,0.34078 -1.10067,0.34219 h -0.0187 c -0.31503,0.003 -0.51752,-0.0466 -0.60536,-0.11571 -0.084,-0.0663 -0.13265,-0.1531 -0.13441,-0.39793 l 0.001,-0.0437 c 0.006,-0.22331 0.067,-0.53905 0.1778,-0.9578 0.18203,-0.67168 0.33161,-1.19627 0.55562,-1.5187 0.2279,-0.31715 0.48825,-0.4759 1.07174,-0.48331 h 0.006 l 0.002,-7e-4 c 0.40146,0 0.63394,0.073 0.73766,0.16192 0.0988,0.0829 0.14146,0.19085 0.14287,0.4064 z m 0.99483,3.41736 1.4986,-5.47264 h -1.88136 l -0.0945,0.37994 c -0.12664,-0.14252 -0.28292,-0.24377 -0.45261,-0.30833 -0.32702,-0.12735 -0.69709,-0.14182 -1.06045,-0.14182 h -0.012 c -1.02412,0 -1.75578,0.31327 -2.26484,0.8689 -0.50941,0.55597 -0.79516,1.3155 -1.02587,2.19498 -0.18733,0.69109 -0.33585,1.30457 -0.35384,1.83127 -0.002,0.0377 -0.003,0.073 -0.003,0.10936 0,0.44944 0.11183,0.85372 0.42474,1.13559 0.33514,0.30163 0.8442,0.43921 1.57727,0.43921 h 0.0663 0.008 c 0.59197,0 1.10808,-0.0617 1.61714,-0.40181 l -0.0759,0.33125 h 2.23203 l -0.18945,-0.31609 c -0.10724,-0.18803 -0.0903,-0.36653 -0.0102,-0.64981"
         style="fill:#a0a5a9;fill-opacity:1;fill-rule:nonzero;stroke:none;stroke-width:0.35277778"
         id="path598"
         inkscape:connector-curvature="0" />
      <path
         d="m 151.16213,219.18192 h -0.70661 l 1.72543,-6.43749 h 1.84574 l -1.34232,5.15091 c -0.22261,0.76517 -0.78035,1.28658 -1.52224,1.28658"
         style="fill:#4b4b4d;fill-opacity:1;fill-rule:nonzero;stroke:none;stroke-width:0.35277778"
         id="path602"
         inkscape:connector-curvature="0" />
      <path
         d="m 150.59793,219.07383 h 0.70767 c 0.74189,0 1.30034,-0.52035 1.52153,-1.28517 l 1.34373,-5.15338 h -1.84573 z"
         style="fill:#a0a5a9;fill-opacity:1;fill-rule:nonzero;stroke:none;stroke-width:0.35277778"
         id="path606"
         inkscape:connector-curvature="0" />
    </g>
  </g>
</svg>
