<?xml version="1.0" encoding="utf-8"?>
<!-- Generator: Adobe Illustrator 18.0.0, SVG Export Plug-In . SVG Version: 6.00 Build 0)  -->
<!DOCTYPE svg PUBLIC "-//W3C//DTD SVG 1.1//EN" "http://www.w3.org/Graphics/SVG/1.1/DTD/svg11.dtd">
<svg version="1.1"
	 id="svg2200" sodipodi:docname="Burger_King_Logo.svg" inkscape:version="0.91 r13725" xmlns:inkscape="http://www.inkscape.org/namespaces/inkscape" xmlns:rdf="http://www.w3.org/1999/02/22-rdf-syntax-ns#" xmlns:cc="http://creativecommons.org/ns#" xmlns:dc="http://purl.org/dc/elements/1.1/" xmlns:svg="http://www.w3.org/2000/svg" xmlns:sodipodi="http://sodipodi.sourceforge.net/DTD/sodipodi-0.dtd"
	 xmlns="http://www.w3.org/2000/svg" xmlns:xlink="http://www.w3.org/1999/xlink" x="0px" y="0px" viewBox="-98.5 -99.2 291.8 295"
	 enable-background="new -98.5 -99.2 291.8 295" xml:space="preserve">
<sodipodi:namedview  id="namedview20" pagecolor="#ffffff" bordercolor="#666666" inkscape:zoom="0.91" borderopacity="1" inkscape:cy="115.26545" inkscape:cx="272.05608" showgrid="false" inkscape:pageopacity="0" inkscape:current-layer="svg2200" inkscape:window-width="1366" inkscape:window-y="-8" inkscape:pageshadow="2" inkscape:window-maximized="1" inkscape:window-x="-8" inkscape:window-height="705" objecttolerance="10" gridtolerance="10" guidetolerance="10">
	</sodipodi:namedview>
<path id="path11" inkscape:connector-curvature="0" fill="#FAAF18" d="M121.2-57.7c0.7-1.7-0.7-3.3-0.7-3.3s-11-18.6-49.7-22.8
	c-20.8-2.2-49,2-68.8,12.7C-34-51.8-39.4-19.9-39.4-19.9c-0.2,0.8-0.5,3.2,0.3,4.2c0.8,1,2,1,3.5,0.5c12.7-4.3,50.4-16.8,74.2-23.1
	c33.9-9,61.8-14.5,79.6-17.5C119.6-56.1,120.7-56.5,121.2-57.7"/>
<path id="path13" inkscape:connector-curvature="0" fill="#185494" d="M159.9,92.5c-20.3,45.6-59.2,77.3-110.3,78
	C12.5,171-20.3,158.3-44,136.1l-14.3,6.1l0-22.2c-15.6-21-24.7-47.7-24.7-77.9c0-77.5,59.3-138.5,142.1-138.5
	c13.5,0,25.7,2.1,34.9,4.2c-14.2-4.5-28.3-7-44-7c-88.8,0-148.6,72-148.6,146.3c0,80.9,63.5,148.7,146.8,148.7
	c79.6,0,122.5-56.1,136.3-89.9L159.9,92.5"/>
<path id="path23" inkscape:connector-curvature="0" fill="#FAAF18" d="M-9.5,131.4c-0.8,1.9,1.1,3.8,1.1,3.8
	c8,10.1,43.7,22.9,82.5,13.5c59.2-14.3,71.7-56.2,73.1-62.1c0.3-1.2,0.5-3.1-0.6-4.3c-0.9-1-2.3-1-4.1-0.6
	C101.3,91.4,33,112.3-6.5,129.2C-8.2,129.9-8.9,130.2-9.5,131.4"/>
<path id="path37" inkscape:connector-curvature="0" fill="#FFFFFF" d="M9.9-71.5C-11.9-61.9-26.6-39-27.4-29.4
	c-0.3,3.8,4.8,4.4,5.3,0.3C-17.5-46.7-3.5-63.3,9.9-71.5"/>
<path id="path39" inkscape:connector-curvature="0" fill="#FFFFFF" d="M82-55.1c11.7-2.9,18.2-3.3,18.3-8.6
	c0.2-8.8-24.8-19-47.8-17.1c23.4,1.6,37.4,10.6,37.4,16.8C90-60,86.5-56.5,82-55.1"/>
<path id="path41" inkscape:connector-curvature="0" fill="#FFFFFF" d="M89.2,138.9c17.6-6.9,34.5-20.2,43.9-40
	c2.7-5.7-5.1-8.7-7.3-1.9C120.3,111.1,109.1,127.6,89.2,138.9"/>
</svg>
