<?xml version="1.0" encoding="utf-8"?>
<!-- Generator: Adobe Illustrator 23.0.1, SVG Export Plug-In . SVG Version: 6.00 Build 0)  -->
<svg version="1.1" id="Livello_1" xmlns="http://www.w3.org/2000/svg" xmlns:xlink="http://www.w3.org/1999/xlink" x="0px" y="0px"
	 viewBox="0 0 9454.1 6726.5" style="enable-background:new 0 0 9454.1 6726.5;" xml:space="preserve">
<style type="text/css">
	.st0{fill-rule:evenodd;clip-rule:evenodd;fill:#6E6E6E;}
</style>
<g>
	<path class="st0" d="M7323.5,4713.6C6841,4299.9,5407.5,3122.7,4727,3122.7c-680.8,0-2113.2,1176.4-2596,1590.4
		c-2.9-97.8-5.6-157.2-5.6-244.3c0,0-11.8-143.8,115.4-287.7c1046.6-948.3,2143.9-1412.3,2177.6-1426.5
		c327.2-138.3,308.8-112.3,308.5-667.3c0,0,14.6-0.9,23.9,0.1c460.8,41.7,1699.7,1244.1,2432.9,2057
		c1.3,1.4,144.7,167.4,144.7,342.4C7328.6,4568.8,7326.2,4649.7,7323.5,4713.6 M7303.8,4035c-77.9-86.4-1912.6-2111.6-2576.8-2111.6
		c-664,0-2498.8,2025.2-2576.6,2111.5l-0.1,0.1c-7.6,8.5-186.7,213.2-186.7,451.9c0,185.8,12.3,372.8,12.5,374.6
		c0.4,8.6,4.7,87.6,48.6,109.1c7.1,3.5,14.8,5.3,22.7,5.3c16.3,0,34.5-7.3,54.2-21.7c19.8-17.5,1888.9-1668.4,2625.4-1668.4
		c736.6,0,2605.8,1650.9,2624.5,1667.6c20.4,15,38.8,22.5,55.3,22.5c8,0,15.5-1.8,22.7-5.2c43.8-21.4,48.1-100.5,48.5-109.4
		c0.1-1.4,12.4-188.4,12.4-374.2C7490.4,4248.2,7311.3,4043.5,7303.8,4035 M7320.9,2787.4c-482-413.2-1914.1-1589.2-2593.8-1589.2
		c-680.1,0-2111.1,1175.3-2593.4,1588.8c-2.9-97.6-5.6-157.1-5.6-244c0,0-11.8-143.7,115.3-287.4
		C3289,1308.2,4385.2,844.7,4418.8,830.5c326.9-138.2,308.5-112.2,308.2-666.6c0,0,14.5-0.9,23.9,0.1
		c460.3,41.7,1698,1242.9,2430.4,2054.9c1.3,1.4,144.6,167.2,144.6,342.1C7326,2642.8,7323.5,2723.6,7320.9,2787.4 M7301.2,2109.5
		C7223.3,2023.2,5390.5,0,4727,0c-663.3,0-2496.3,2023.2-2574,2109.4l-0.1,0.1c-7.6,8.5-186.6,213-186.6,451.5
		c0,185.6,12.4,372.4,12.5,374.2c0.4,8.6,4.7,87.5,48.5,109c7.1,3.5,14.8,5.2,22.7,5.2c16.3,0,34.4-7.3,54.1-21.7
		C2124,3010.2,3991.2,1361,4727,1361c735.9,0,2603.2,1649.2,2621.9,1665.9c20.3,15,38.7,22.4,55.2,22.4c8,0,15.5-1.7,22.7-5.2
		c43.7-21.4,48.1-100.4,48.4-109.3c0.1-1.4,12.4-188.2,12.4-373.8C7487.7,2322.5,7308.8,2118,7301.2,2109.5"/>
</g>
</svg>
