<?xml version="1.0" encoding="utf-8"?>
<!-- Generator: Adobe Illustrator 16.0.0, SVG Export Plug-In . SVG Version: 6.00 Build 0)  -->
<!DOCTYPE svg PUBLIC "-//W3C//DTD SVG 1.1//EN" "http://www.w3.org/Graphics/SVG/1.1/DTD/svg11.dtd">
<svg version="1.1" id="Layer_1" xmlns:svg="http://www.w3.org/2000/svg"
	 xmlns="http://www.w3.org/2000/svg" xmlns:xlink="http://www.w3.org/1999/xlink" x="0px" y="0px" width="800px" height="261.953px"
	 viewBox="0 0 800 261.953" enable-background="new 0 0 800 261.953" xml:space="preserve">
<g id="g3">
	<path id="path5" fill="#E61D2A" d="M307.209,228.509c-29.768-19.176-70.167-22.541-135.32-4.465
		c-69.457,16.322-92.615,26.785-123.028,5.781c-11.684-10.318-15.873-26.931-12.745-50.861
		c7.255-39.01,26.861-76.551,61.686-118.193c19.439-21.662,37.47-40.252,61.28-47.717c18.248-4.683,16.542,9.658,14.334,11.709
		c-2.33,0-6.244,0.367-9.269,2.341c-2.455,1.904-9.194,8.052-9.556,16.322c-0.522,12.66,12.58,10.025,18.231,3.074
		c6.091-7.833,15.093-22.833,8.012-36.813c-2.968-4.976-8.096-8.415-14.463-9.586c-21.802-1.246-42.107,9.147-60.846,20.637
		C64.543,49.207,31.76,88.655,13.21,131.835c-10.695,26.053-20.367,63.373-5.869,93.748c11.215,21.076,34.499,32.271,62.278,29.93
		c19.483-2.047,43.042-8.344,58.887-12.146c15.845-3.808,96.954-31.689,123.604,16.836c0,0,8.862-17.203,31.009-17.57
		c18.208-1.68,44.475,5.271,63.604,19.32C340.35,252.369,322.282,238.244,307.209,228.509L307.209,228.509z"/>

</g>
</svg>
