<?xml version="1.0" encoding="utf-8"?>
<svg xmlns="http://www.w3.org/2000/svg" width="191" height="40" viewBox="0 0 191 40">
    <path fill="#f8ac00" d="M19.4 0C8.3 0 0 9 0 20s8.3 20 19.4 20c11 0 19.4-8.9 19.4-20-.1-11-8.4-20-19.4-20zm0 38.2c-10 0-17.6-8.1-17.6-18.2 0-10 7.5-18.2 17.6-18.2S36.9 10 36.9 20.1c0 10-7.5 18.1-17.5 18.1zm11.7-5.8v-3.2l-13-11.8c-.5-.5-.3-.7.1-.7H28l-4.9 4 1.8 1.7 10.3-8H20c-2 0-2.8 0-3.3.2-.5.1-1.1.4-1.4 1.1-.2.5-.2 1.4.1 2 .5.8 1.2 1.5 3.3 3.6-2-1.2-7.3-4.7-7.3-4.7h1.5v-2.3H3.5l27.6 18.1z"></path>
</svg>