<?xml version="1.0" encoding="UTF-8" standalone="no"?>
<!-- Created with Inkscape (http://www.inkscape.org/) -->

<svg
   xmlns:dc="http://purl.org/dc/elements/1.1/"
   xmlns:cc="http://creativecommons.org/ns#"
   xmlns:rdf="http://www.w3.org/1999/02/22-rdf-syntax-ns#"
   xmlns:svg="http://www.w3.org/2000/svg"
   xmlns="http://www.w3.org/2000/svg"
   version="1.1"
   viewBox="0 0 80.775902 71.113503"
   id="svg3842">
  <defs
     id="defs3844">
    <linearGradient
       x1="0"
       y1="0"
       x2="1"
       y2="0"
       id="linearGradient3587"
       gradientUnits="userSpaceOnUse"
       gradientTransform="matrix(0,2.5896366,2.5896366,0,73.801627,546.34383)"
       spreadMethod="pad">
      <stop
         id="stop3589"
         style="stop-color:#12406e;stop-opacity:1"
         offset="0" />
      <stop
         id="stop3591"
         style="stop-color:#0d2e52;stop-opacity:1"
         offset="1" />
    </linearGradient>
    <linearGradient
       x1="0"
       y1="0"
       x2="1"
       y2="0"
       id="linearGradient3567"
       gradientUnits="userSpaceOnUse"
       gradientTransform="matrix(0,2.58964,2.58964,0,51.459159,546.34383)"
       spreadMethod="pad">
      <stop
         id="stop3569"
         style="stop-color:#12406e;stop-opacity:1"
         offset="0" />
      <stop
         id="stop3571"
         style="stop-color:#0d2e52;stop-opacity:1"
         offset="1" />
    </linearGradient>
    <linearGradient
       x1="0"
       y1="0"
       x2="1"
       y2="0"
       id="linearGradient3547"
       gradientUnits="userSpaceOnUse"
       gradientTransform="matrix(0,2.589645,2.589645,0,42.003962,546.34383)"
       spreadMethod="pad">
      <stop
         id="stop3549"
         style="stop-color:#12406e;stop-opacity:1"
         offset="0" />
      <stop
         id="stop3551"
         style="stop-color:#0d2e52;stop-opacity:1"
         offset="1" />
    </linearGradient>
    <linearGradient
       x1="0"
       y1="0"
       x2="1"
       y2="0"
       id="linearGradient3527"
       gradientUnits="userSpaceOnUse"
       gradientTransform="matrix(0,2.589632,2.589632,0,60.562143,546.34383)"
       spreadMethod="pad">
      <stop
         id="stop3529"
         style="stop-color:#12406e;stop-opacity:1"
         offset="0" />
      <stop
         id="stop3531"
         style="stop-color:#0d2e52;stop-opacity:1"
         offset="1" />
    </linearGradient>
    <linearGradient
       x1="0"
       y1="0"
       x2="1"
       y2="0"
       id="linearGradient3507"
       gradientUnits="userSpaceOnUse"
       gradientTransform="matrix(0,2.5896578,2.5896578,0,66.722562,546.34382)"
       spreadMethod="pad">
      <stop
         id="stop3509"
         style="stop-color:#12406e;stop-opacity:1"
         offset="0" />
      <stop
         id="stop3511"
         style="stop-color:#0d2e52;stop-opacity:1"
         offset="1" />
    </linearGradient>
    <clipPath
       id="clipPath3487">
      <path
         d="m 25.99,505.521 64.665,0 0,56.731 -64.665,0 0,-56.731 z"
         id="path3489" />
    </clipPath>
    <radialGradient
       cx="0"
       cy="0"
       r="1"
       fx="0"
       fy="0"
       id="radialGradient3475"
       gradientUnits="userSpaceOnUse"
       gradientTransform="matrix(0,-5.5228894,-5.5228894,0,52.936613,554.73061)"
       spreadMethod="pad">
      <stop
         id="stop3477"
         style="stop-color:#7a8ea8;stop-opacity:1"
         offset="0" />
      <stop
         id="stop3479"
         style="stop-color:#12406e;stop-opacity:1"
         offset="1" />
    </radialGradient>
    <clipPath
       id="clipPath3455">
      <path
         d="m 25.99,505.521 64.665,0 0,56.731 -64.665,0 0,-56.731 z"
         id="path3457" />
    </clipPath>
    <radialGradient
       cx="0"
       cy="0"
       r="1"
       fx="0"
       fy="0"
       id="radialGradient3443"
       gradientUnits="userSpaceOnUse"
       gradientTransform="matrix(0,-5.7432571,-5.7432571,0,60.696616,554.94033)"
       spreadMethod="pad">
      <stop
         id="stop3445"
         style="stop-color:#7a8ea8;stop-opacity:1"
         offset="0" />
      <stop
         id="stop3447"
         style="stop-color:#12406e;stop-opacity:1"
         offset="1" />
    </radialGradient>
    <radialGradient
       cx="0"
       cy="0"
       r="1"
       fx="0"
       fy="0"
       id="radialGradient3423"
       gradientUnits="userSpaceOnUse"
       gradientTransform="matrix(0,-4.7584794,-4.7584794,0,64.821318,554.24123)"
       spreadMethod="pad">
      <stop
         id="stop3425"
         style="stop-color:#7a8ea8;stop-opacity:1"
         offset="0" />
      <stop
         id="stop3427"
         style="stop-color:#12406e;stop-opacity:1"
         offset="1" />
    </radialGradient>
    <clipPath
       id="clipPath3391">
      <path
         d="m 25.99,505.521 64.665,0 0,56.731 -64.665,0 0,-56.731 z"
         id="path3393" />
    </clipPath>
    <linearGradient
       x1="0"
       y1="0"
       x2="1"
       y2="0"
       id="linearGradient3369"
       gradientUnits="userSpaceOnUse"
       gradientTransform="matrix(-3.0420975,11.844755,-11.844755,-3.0420975,72.565161,532.3654)"
       spreadMethod="pad">
      <stop
         id="stop3371"
         style="stop-color:#4a4a49;stop-opacity:1"
         offset="0" />
      <stop
         id="stop3373"
         style="stop-color:#a4a3a3;stop-opacity:1"
         offset="0.44354999" />
      <stop
         id="stop3375"
         style="stop-color:#a4a3a3;stop-opacity:1"
         offset="0.44354999" />
      <stop
         id="stop3377"
         style="stop-color:#e9e9e9;stop-opacity:1"
         offset="0.83012098" />
      <stop
         id="stop3379"
         style="stop-color:#e9e9e9;stop-opacity:1"
         offset="1" />
    </linearGradient>
    <linearGradient
       x1="0"
       y1="0"
       x2="1"
       y2="0"
       id="linearGradient3347"
       gradientUnits="userSpaceOnUse"
       gradientTransform="matrix(0,-16.228569,-16.228569,0,58.322298,532.36294)"
       spreadMethod="pad">
      <stop
         id="stop3349"
         style="stop-color:#4a4a49;stop-opacity:1"
         offset="0" />
      <stop
         id="stop3351"
         style="stop-color:#cacaca;stop-opacity:1"
         offset="0.49772301" />
      <stop
         id="stop3353"
         style="stop-color:#ffffff;stop-opacity:1"
         offset="1" />
    </linearGradient>
    <linearGradient
       x1="0"
       y1="0"
       x2="1"
       y2="0"
       id="linearGradient3323"
       gradientUnits="userSpaceOnUse"
       gradientTransform="matrix(-14.359916,-19.413398,19.413398,-14.359916,79.533431,537.09044)"
       spreadMethod="pad">
      <stop
         id="stop3325"
         style="stop-color:#000000;stop-opacity:1"
         offset="0" />
      <stop
         id="stop3327"
         style="stop-color:#4a4a49;stop-opacity:1"
         offset="0.45249999" />
      <stop
         id="stop3329"
         style="stop-color:#8c8c8b;stop-opacity:1"
         offset="0.80269998" />
      <stop
         id="stop3331"
         style="stop-color:#f0f0f0;stop-opacity:1"
         offset="1" />
    </linearGradient>
    <linearGradient
       x1="0"
       y1="0"
       x2="1"
       y2="0"
       id="linearGradient3299"
       gradientUnits="userSpaceOnUse"
       gradientTransform="matrix(14.359919,-19.413403,-19.413403,-14.359919,37.111165,537.09045)"
       spreadMethod="pad">
      <stop
         id="stop3301"
         style="stop-color:#000000;stop-opacity:1"
         offset="0" />
      <stop
         id="stop3303"
         style="stop-color:#4a4a49;stop-opacity:1"
         offset="0.45249999" />
      <stop
         id="stop3305"
         style="stop-color:#8c8c8b;stop-opacity:1"
         offset="0.80269998" />
      <stop
         id="stop3307"
         style="stop-color:#f0f0f0;stop-opacity:1"
         offset="1" />
    </linearGradient>
    <linearGradient
       x1="0"
       y1="0"
       x2="1"
       y2="0"
       id="linearGradient3273"
       gradientUnits="userSpaceOnUse"
       gradientTransform="matrix(0,-17.905331,-17.905331,0,58.322298,549.42438)"
       spreadMethod="pad">
      <stop
         id="stop3275"
         style="stop-color:#e3e3e3;stop-opacity:1"
         offset="0" />
      <stop
         id="stop3277"
         style="stop-color:#f4f4f4;stop-opacity:1"
         offset="0.31290099" />
      <stop
         id="stop3279"
         style="stop-color:#f4f4f4;stop-opacity:1"
         offset="0.31290099" />
      <stop
         id="stop3281"
         style="stop-color:#646363;stop-opacity:1"
         offset="0.98514903" />
      <stop
         id="stop3283"
         style="stop-color:#646363;stop-opacity:1"
         offset="1" />
    </linearGradient>
    <linearGradient
       x1="0"
       y1="0"
       x2="1"
       y2="0"
       id="linearGradient3243"
       gradientUnits="userSpaceOnUse"
       gradientTransform="matrix(0,-59.060049,-59.060049,0,58.322286,561.3329)"
       spreadMethod="pad">
      <stop
         id="stop3245"
         style="stop-color:#c6c6c6;stop-opacity:1"
         offset="0" />
      <stop
         id="stop3247"
         style="stop-color:#ededed;stop-opacity:1"
         offset="0.110594" />
      <stop
         id="stop3249"
         style="stop-color:#f0f0f0;stop-opacity:1"
         offset="0.334407" />
      <stop
         id="stop3251"
         style="stop-color:#575756;stop-opacity:1"
         offset="0.66711599" />
      <stop
         id="stop3253"
         style="stop-color:#3a3938;stop-opacity:1"
         offset="0.84930998" />
      <stop
         id="stop3255"
         style="stop-color:#929292;stop-opacity:1"
         offset="0.98019803" />
      <stop
         id="stop3257"
         style="stop-color:#929292;stop-opacity:1"
         offset="1" />
    </linearGradient>
    <linearGradient
       x1="0"
       y1="0"
       x2="1"
       y2="0"
       id="linearGradient3213"
       gradientUnits="userSpaceOnUse"
       gradientTransform="matrix(0,-59.059695,-59.059695,0,58.322286,561.33291)"
       spreadMethod="pad">
      <stop
         id="stop3215"
         style="stop-color:#c6c6c6;stop-opacity:1"
         offset="0" />
      <stop
         id="stop3217"
         style="stop-color:#ededed;stop-opacity:1"
         offset="0.110594" />
      <stop
         id="stop3219"
         style="stop-color:#f0f0f0;stop-opacity:1"
         offset="0.334407" />
      <stop
         id="stop3221"
         style="stop-color:#575756;stop-opacity:1"
         offset="0.66711599" />
      <stop
         id="stop3223"
         style="stop-color:#3a3938;stop-opacity:1"
         offset="0.83478498" />
      <stop
         id="stop3225"
         style="stop-color:#929292;stop-opacity:1"
         offset="0.964948" />
      <stop
         id="stop3227"
         style="stop-color:#929292;stop-opacity:1"
         offset="1" />
    </linearGradient>
    <clipPath
       id="clipPath3193">
      <path
         d="m 25.99,505.521 64.665,0 0,56.731 -64.665,0 0,-56.731 z"
         id="path3195" />
    </clipPath>
    <linearGradient
       x1="0"
       y1="0"
       x2="1"
       y2="0"
       id="linearGradient3173"
       gradientUnits="userSpaceOnUse"
       gradientTransform="matrix(0,-59.250598,-59.250598,0,58.322286,563.50107)"
       spreadMethod="pad">
      <stop
         id="stop3175"
         style="stop-color:#e3e3e3;stop-opacity:1"
         offset="0" />
      <stop
         id="stop3177"
         style="stop-color:#fafafa;stop-opacity:1"
         offset="0.110594" />
      <stop
         id="stop3179"
         style="stop-color:#ffffff;stop-opacity:1"
         offset="0.34575099" />
      <stop
         id="stop3181"
         style="stop-color:#dadada;stop-opacity:1"
         offset="0.69499397" />
      <stop
         id="stop3183"
         style="stop-color:#d5d5d5;stop-opacity:1"
         offset="0.849347" />
      <stop
         id="stop3185"
         style="stop-color:#e3e3e3;stop-opacity:1"
         offset="1" />
    </linearGradient>
    <clipPath
       id="clipPath3153">
      <path
         d="m 25.99,505.521 64.665,0 0,56.731 -64.665,0 0,-56.731 z"
         id="path3155" />
    </clipPath>
    <linearGradient
       x1="0"
       y1="0"
       x2="1"
       y2="0"
       id="linearGradient3139"
       gradientUnits="userSpaceOnUse"
       gradientTransform="matrix(-73.301409,0,0,73.301409,94.526292,561.14566)"
       spreadMethod="pad">
      <stop
         id="stop3141"
         style="stop-color:#f0f0f0;stop-opacity:1"
         offset="0" />
      <stop
         id="stop3143"
         style="stop-color:#929292;stop-opacity:1"
         offset="0.49732199" />
      <stop
         id="stop3145"
         style="stop-color:#f0f0f0;stop-opacity:1"
         offset="1" />
    </linearGradient>
    <linearGradient
       x1="0"
       y1="0"
       x2="1"
       y2="0"
       id="linearGradient3113"
       gradientUnits="userSpaceOnUse"
       gradientTransform="matrix(0,-76.73631,-76.73631,0,58.32231,588.0513)"
       spreadMethod="pad">
      <stop
         id="stop3115"
         style="stop-color:#131313;stop-opacity:1"
         offset="0" />
      <stop
         id="stop3117"
         style="stop-color:#ffffff;stop-opacity:1"
         offset="0.505198" />
      <stop
         id="stop3119"
         style="stop-color:#ffffff;stop-opacity:1"
         offset="0.505198" />
      <stop
         id="stop3121"
         style="stop-color:#434342;stop-opacity:1"
         offset="0.73869199" />
      <stop
         id="stop3123"
         style="stop-color:#434342;stop-opacity:1"
         offset="1" />
    </linearGradient>
    <clipPath
       id="clipPath3093">
      <path
         d="m 25.99,505.521 64.665,0 0,56.731 -64.665,0 0,-56.731 z"
         id="path3095" />
    </clipPath>
    <linearGradient
       x1="0"
       y1="0"
       x2="1"
       y2="0"
       id="linearGradient3075"
       gradientUnits="userSpaceOnUse"
       gradientTransform="matrix(3.0420975,11.844755,11.844755,-3.0420975,44.079436,532.3654)"
       spreadMethod="pad">
      <stop
         id="stop3077"
         style="stop-color:#4a4a49;stop-opacity:1"
         offset="0" />
      <stop
         id="stop3079"
         style="stop-color:#a4a3a3;stop-opacity:1"
         offset="0.47723499" />
      <stop
         id="stop3081"
         style="stop-color:#a4a3a3;stop-opacity:1"
         offset="0.47723499" />
      <stop
         id="stop3083"
         style="stop-color:#e9e9e9;stop-opacity:1"
         offset="0.83012098" />
      <stop
         id="stop3085"
         style="stop-color:#e9e9e9;stop-opacity:1"
         offset="1" />
    </linearGradient>
    <clipPath
       id="clipPath3055">
      <path
         d="m 25.99,505.521 64.665,0 0,56.731 -64.665,0 0,-56.731 z"
         id="path3057" />
    </clipPath>
  </defs>
  <metadata
     id="metadata3847">
    <rdf:RDF>
      <cc:Work
         rdf:about="">
        <dc:format>image/svg+xml</dc:format>
        <dc:type
           rdf:resource="http://purl.org/dc/dcmitype/StillImage" />
        <dc:title></dc:title>
      </cc:Work>
    </rdf:RDF>
  </metadata>
  <g
     transform="translate(1304.1023,89.766)"
     id="layer1">
    <rect
       width="58.329475"
       height="17.144136"
       x="-1292.0818"
       y="-69.069717"
       id="rect3595"
       style="fill:#808080;stroke:#000000;stroke-width:0.19999999;stroke-miterlimit:5;stroke-opacity:0.24509804;stroke-dasharray:none" />
    <g
       transform="matrix(1.25,0,0,-1.25,-1336.6172,613.14875)"
       id="g3051">
      <g
         clip-path="url(#clipPath3055)"
         id="g3053">
        <g
           transform="translate(51.1973,512.7117)"
           id="g3059">
          <path
             d="m 0,0 c -5.274,1.933 -7.163,6.306 -9.127,10.742 -2.301,5.195 -6.734,18.93 -8.016,22.864 -0.004,0.014 -0.009,0.029 -0.014,0.043 0.016,-0.05 0.033,-0.101 0.049,-0.154 0.714,-2.345 1.271,-4.476 1.867,-6.367 2.581,-8.181 4.984,-14.298 4.984,-14.298 0,0 2.412,-6.435 4.654,-9.044 C -3.431,1.257 -0.902,-0.023 1.79,-0.553 1.901,-0.575 2.016,-0.598 2.14,-0.62 2.256,-0.64 2.377,-0.66 2.505,-0.679 2.518,-0.681 2.531,-0.684 2.544,-0.686 2.541,-0.685 2.538,-0.684 2.535,-0.684 1.623,-0.515 0.792,-0.289 0.03,-0.012 0.02,-0.008 0.01,-0.004 0,0"
             id="path3061"
             style="fill:#ffffff;fill-opacity:1;fill-rule:nonzero;stroke:none" />
        </g>
      </g>
    </g>
    <g
       transform="matrix(1.25,0,0,-1.25,-1336.6172,613.14875)"
       id="g3063">
      <g
         id="g3065">
        <g
           id="g3071">
          <g
             id="g3073">
            <path
               d="m 33.701,547.432 0,-10e-4 0.02,-0.063 0.014,-0.037 0,-0.002 0.056,-0.165 c 0.038,-0.098 0.079,-0.203 0.121,-0.311 l 0,0 c 0.365,-0.933 0.898,-2.174 1.64,-3.605 l 0,0 c 0.025,-0.049 0.053,-0.101 0.079,-0.151 l 0,0 c 0.273,-0.521 0.571,-1.065 0.901,-1.628 l 0,0 c 1.399,-2.395 3.327,-5.122 5.926,-7.755 l 0,0 c 0.158,-0.161 0.321,-0.319 0.484,-0.477 l 0,0 c 0.075,-0.074 0.148,-0.15 0.226,-0.224 l 0,0 c 0.06,-0.057 0.119,-0.116 0.18,-0.174 l 0,0 c 0.222,-0.217 0.404,-0.385 0.534,-0.496 l 0,0 c 0.001,-10e-4 0.001,-0.002 0.002,-0.002 l 0,0 10e-4,-10e-4 c 0.194,-0.009 0.391,-0.018 0.588,-0.027 l 0,0 c 0.418,-0.018 0.991,-0.043 1.563,-0.068 l 0,0 c 0.715,-0.031 1.426,-0.061 1.819,-0.076 l 0,0 c 1.475,-0.059 2.954,-0.103 4.431,-0.139 l 0,0 1.206,-0.045 1.948,-0.013 c 0.932,-0.013 1.841,-0.02 2.714,-0.02 l 0,0 0.067,0 0,0 c -0.036,0 -0.08,0.002 -0.131,0.003 l 0,0 c -0.141,0.004 -0.335,0.012 -0.578,0.026 l 0,0 c -1.014,0.058 -2.861,0.231 -5.13,0.748 l 0,0 c -0.812,0.184 -1.678,0.414 -2.577,0.696 l 0,0 c -4.69,1.475 -10.343,4.404 -14.149,10.323 l 0,0 c -0.155,0.241 -0.309,0.498 -0.461,0.761 l 0,0 c -0.751,1.305 -1.414,2.746 -1.486,2.907 l 0,0 c -0.002,0.004 -0.004,0.008 -0.005,0.01 l 0,0 c -0.002,0.004 -0.003,0.005 -0.003,0.005 l 0,0 0,10e-4 z"
               id="path3087"
               style="fill:url(#linearGradient3075);stroke:none" />
          </g>
        </g>
      </g>
    </g>
    <g
       transform="matrix(1.25,0,0,-1.25,-1336.6172,613.14875)"
       id="g3089">
      <g
         clip-path="url(#clipPath3093)"
         id="g3091">
        <g
           transform="translate(69.1515,524.8881)"
           id="g3097">
          <path
             d="m 0,0 c -0.827,-1.928 -1.751,-3.914 -3.153,-5.184 -0.979,-0.883 -2.353,-1.718 -5.744,-1.844 -0.635,-0.025 -3.23,-0.025 -3.864,0 -3.392,0.126 -4.765,0.961 -5.744,1.844 -1.402,1.27 -2.326,3.256 -3.153,5.184 -0.332,0.768 -2.046,4.978 -2.778,6.906 5.147,-0.232 9.899,-0.355 13.607,-0.353 l 0,0 C -7.121,6.551 -2.37,6.674 2.777,6.906 2.045,4.978 0.332,0.768 0,0 M 3.019,7.425 C 2.602,7.407 2.028,7.382 1.457,7.357 0.742,7.326 0.031,7.296 -0.361,7.281 -1.837,7.222 -3.316,7.177 -4.793,7.142 L -5.999,7.098 -7.947,7.084 C -8.88,7.071 -9.788,7.064 -10.662,7.064 l -0.335,0 c -0.873,0 -1.782,0.007 -2.715,0.02 l -1.948,0.014 -1.205,0.044 c -1.477,0.035 -2.956,0.08 -4.432,0.139 -0.393,0.015 -1.103,0.045 -1.819,0.076 -0.571,0.025 -1.144,0.05 -1.562,0.068 -0.289,0.013 -0.503,0.023 -0.589,0.027 0.029,-0.082 2.318,-5.825 2.824,-7.026 0.506,-1.191 0.999,-2.388 1.623,-3.519 0.581,-1.052 1.273,-2.056 2.197,-2.827 0.216,-0.18 0.443,-0.342 0.678,-0.489 0.778,-0.486 1.647,-0.806 2.553,-0.997 1.256,-0.261 2.544,-0.308 3.821,-0.317 l 0.742,10e-4 0.741,-10e-4 c 1.278,0.009 2.565,0.056 3.822,0.317 0.906,0.191 1.774,0.511 2.553,0.997 0.234,0.147 0.461,0.309 0.678,0.489 0.924,0.771 1.615,1.775 2.197,2.827 0.624,1.131 1.117,2.328 1.623,3.519 C 1.291,1.627 3.579,7.37 3.608,7.452 3.523,7.448 3.308,7.438 3.019,7.425"
             id="path3099"
             style="fill:#000000;fill-opacity:1;fill-rule:nonzero;stroke:none" />
        </g>
      </g>
    </g>
    <g
       transform="matrix(1.25,0,0,-1.25,-1336.6172,613.14875)"
       id="g3101">
      <g
         id="g3103">
        <g
           id="g3109">
          <g
             id="g3111">
            <path
               d="m 58.323,560.9 -10e-4,0 -0.002,0 c -4.052,-0.006 -13.108,-0.055 -20.33,-0.098 l 0,0 c -3.105,-0.018 -5.873,-0.035 -7.756,-0.047 l 0,0 c -0.309,-0.023 -0.592,-0.046 -0.845,-0.067 l 0,0 c 0.006,-0.024 0.039,-0.141 0.099,-0.339 l 0,0 c 0.409,-1.383 2.043,-6.71 3.842,-11.947 l 0,0 0.005,-0.01 c 0.123,-0.328 0.247,-0.654 0.374,-0.979 l 0,0 c -0.003,0.007 -0.005,0.014 -0.007,0.019 l 0,0 c -0.272,0.775 -0.415,1.266 -0.415,1.266 l 0,0 c -0.114,0.413 0.203,0.802 0.622,0.714 l 0,0 c 2.07,-0.433 8.369,-1.29 24.414,-1.27 l 0,0 c 16.043,-0.02 22.342,0.837 24.412,1.27 l 0,0 c 0.421,0.088 0.736,-0.301 0.622,-0.714 l 0,0 c 0,0 -0.142,-0.491 -0.415,-1.266 l 0,0 c -0.002,-0.005 -0.004,-0.012 -0.006,-0.019 l 0,0 c 0.127,0.325 0.252,0.651 0.373,0.979 l 0,0 0.006,0.01 c 1.799,5.237 3.432,10.564 3.843,11.947 l 0,0 c 0.057,0.198 0.092,0.315 0.097,0.339 l 0,0 c -0.253,0.021 -0.536,0.044 -0.844,0.067 l 0,0 c -1.884,0.012 -4.651,0.029 -7.756,0.047 l 0,0 c -7.223,0.043 -16.279,0.092 -20.33,0.098 l 0,0 -0.002,0 z"
               id="path3125"
               style="fill:url(#linearGradient3113);stroke:none" />
          </g>
        </g>
      </g>
    </g>
    <g
       transform="matrix(1.25,0,0,-1.25,-1336.6172,613.14875)"
       id="g3127">
      <g
         id="g3129">
        <g
           id="g3135">
          <g
             id="g3137">
            <path
               d="m 58.641,561.599 c -0.105,0 -0.21,0 -0.316,0 l 0,0 -0.002,0 -10e-4,0 -0.003,0 c -0.105,0 -0.21,0 -0.316,0 l 0,0 c -0.18,0.003 -0.363,0.004 -0.547,0.004 l 0,0 c -0.694,0 -1.379,-0.016 -1.807,-0.018 l 0,0 c -5.217,-0.032 -10.527,-0.128 -15.738,-0.322 l 0,0 c -3.51,-0.119 -6.679,-0.298 -8.878,-0.451 l 0,0 c -0.296,-0.019 -0.573,-0.038 -0.83,-0.057 l 0,0 c -0.299,-0.023 -0.571,-0.045 -0.814,-0.067 l 0,0 c 0.253,0.021 0.536,0.044 0.845,0.067 l 0,0 c 1.883,0.012 4.651,0.029 7.756,0.047 l 0,0 c 7.222,0.043 16.278,0.092 20.33,0.098 l 0,0 c 10e-4,0 13.112,-0.055 20.335,-0.098 l 0,0 c 3.105,-0.018 5.872,-0.035 7.756,-0.047 l 0,0 c 0.308,-0.023 0.591,-0.046 0.844,-0.067 l 0,0 c -0.241,0.022 -0.515,0.044 -0.814,0.067 l 0,0 c -0.256,0.019 -0.533,0.038 -0.829,0.057 l 0,0 c -2.199,0.153 -5.369,0.332 -8.879,0.451 l 0,0 c -5.212,0.194 -10.521,0.29 -15.737,0.322 l 0,0 c -0.428,0.002 -1.11,0.018 -1.803,0.018 l 0,0 c -0.185,0 -0.371,-10e-4 -0.552,-0.004"
               id="path3147"
               style="fill:url(#linearGradient3139);stroke:none" />
          </g>
        </g>
      </g>
    </g>
    <g
       transform="matrix(1.25,0,0,-1.25,-1336.6172,613.14875)"
       id="g3149">
      <g
         clip-path="url(#clipPath3153)"
         id="g3151">
        <g
           transform="translate(90.0222,558.9188)"
           id="g3157">
          <path
             d="m 0,0 c 0,-0.037 -0.173,-1.014 -0.233,-1.331 -0.421,-2.307 -0.881,-4.609 -1.383,-6.9 -0.502,-2.276 -1.042,-4.54 -1.614,-6.799 -0.351,-1.368 -0.718,-2.736 -1.095,-4.099 -0.275,-1.003 -1.127,-3.97 -1.639,-5.666 -0.572,-1.889 -1.165,-3.766 -1.779,-5.644 -0.674,-2.044 -2.764,-8.016 -3.141,-8.965 -1.724,-4.335 -3.548,-7.698 -6.729,-10.205 -3.068,-2.42 -6.328,-3.447 -14.087,-3.443 -7.759,-0.004 -11.018,1.023 -14.087,3.443 -3.181,2.507 -5.005,5.87 -6.728,10.205 -0.377,0.949 -2.468,6.921 -3.142,8.965 -0.614,1.878 -1.207,3.755 -1.778,5.644 -0.513,1.696 -1.365,4.663 -1.64,5.666 -0.377,1.363 -0.744,2.731 -1.095,4.099 -0.572,2.259 -1.112,4.523 -1.614,6.799 -0.502,2.291 -0.961,4.593 -1.383,6.9 -0.06,0.317 -0.233,1.294 -0.233,1.331 -0.013,0.108 -0.009,0.215 0.002,0.322 0.008,0.072 0.019,0.143 0.038,0.213 0.122,0.466 0.471,0.869 0.983,1.007 0.102,0.027 0.317,0.059 0.483,0.081 0.381,0.054 0.8,0.103 1.262,0.147 0.241,0.021 0.514,0.043 0.813,0.066 0.257,0.019 0.533,0.038 0.829,0.057 2.2,0.153 5.369,0.332 8.879,0.45 5.212,0.195 10.522,0.292 15.738,0.322 0.541,0.004 1.492,0.028 2.354,0.015 0.106,0 0.533,0 0.638,0 0.862,0.013 1.814,-0.011 2.355,-0.015 5.216,-0.03 10.526,-0.127 15.737,-0.322 3.51,-0.118 6.68,-0.297 8.879,-0.45 0.296,-0.019 0.573,-0.038 0.829,-0.057 0.3,-0.023 0.572,-0.045 0.814,-0.066 0.461,-0.044 0.88,-0.093 1.261,-0.147 C -1.34,1.601 -1.125,1.569 -1.023,1.542 -0.511,1.404 -0.162,1.001 -0.039,0.535 -0.021,0.465 -0.01,0.394 -0.002,0.322 0.009,0.215 0.013,0.108 0,0 M -0.888,2.217 C -1.036,2.256 -1.297,2.293 -1.439,2.311 -1.825,2.366 -2.257,2.417 -2.718,2.46 l -0.003,0 c -4.352,0.392 -17.958,0.858 -28.975,0.873 l -0.004,0 -0.004,0 C -42.721,3.318 -56.326,2.852 -60.679,2.46 l -0.002,0 c -0.461,-0.043 -0.894,-0.094 -1.28,-0.149 -0.142,-0.018 -0.403,-0.055 -0.551,-0.094 -0.917,-0.246 -1.52,-1.152 -1.404,-2.107 l 0.002,0 c 0.036,-0.288 0.234,-1.352 0.236,-1.361 0.431,-2.36 0.898,-4.688 1.387,-6.919 0.486,-2.201 1.03,-4.494 1.618,-6.816 0.333,-1.301 0.702,-2.683 1.097,-4.107 0.281,-1.027 1.129,-3.979 1.643,-5.679 0.555,-1.835 1.155,-3.737 1.783,-5.657 0.689,-2.09 2.78,-8.058 3.152,-8.994 1.734,-4.362 3.57,-7.804 6.889,-10.421 2.922,-2.304 6.085,-3.555 14.376,-3.555 l 0.066,0 c 8.291,0 11.454,1.251 14.376,3.555 3.32,2.617 5.155,6.059 6.89,10.421 0.371,0.936 2.463,6.904 3.152,8.994 0.627,1.92 1.227,3.822 1.782,5.657 0.514,1.7 1.362,4.652 1.643,5.679 0.395,1.424 0.764,2.806 1.097,4.107 0.588,2.322 1.133,4.615 1.619,6.816 0.489,2.231 0.955,4.559 1.387,6.919 0.001,0.009 0.199,1.073 0.235,1.361 l 0.002,0 C 0.633,1.065 0.029,1.971 -0.888,2.217"
             id="path3159"
             style="fill:#000000;fill-opacity:1;fill-rule:nonzero;stroke:none" />
        </g>
      </g>
    </g>
    <g
       transform="matrix(1.25,0,0,-1.25,-1336.6172,613.14875)"
       id="g3161">
      <g
         id="g3163">
        <g
           id="g3169">
          <g
             id="g3171">
            <path
               d="m 89.791,558.376 c -0.422,-2.307 -0.882,-4.609 -1.384,-6.9 l 0,0 c -0.502,-2.275 -1.041,-4.54 -1.614,-6.799 l 0,0 c -0.351,-1.368 -0.717,-2.737 -1.095,-4.099 l 0,0 c -0.274,-1.004 -1.127,-3.97 -1.639,-5.666 l 0,0 c -0.571,-1.889 -1.164,-3.766 -1.779,-5.644 l 0,0 c -0.673,-2.044 -2.764,-8.015 -3.141,-8.965 l 0,0 c -1.724,-4.335 -3.548,-7.697 -6.729,-10.205 l 0,0 c -0.587,-0.464 -1.182,-0.876 -1.815,-1.24 l 0,0 c -2.667,-1.535 -6,-2.206 -12.272,-2.203 l 0,0 c -6.273,-0.003 -9.606,0.668 -12.274,2.203 l 0,0 c -0.631,0.364 -1.227,0.776 -1.815,1.24 l 0,0 c -3.181,2.508 -5.005,5.87 -6.728,10.205 l 0,0 c -0.377,0.95 -2.468,6.921 -3.141,8.965 l 0,0 c -0.615,1.878 -1.208,3.755 -1.78,5.644 l 0,0 c -0.512,1.696 -1.364,4.662 -1.638,5.666 l 0,0 c -0.379,1.362 -0.745,2.731 -1.096,4.099 l 0,0 c -0.571,2.259 -1.111,4.524 -1.613,6.799 l 0,0 c -0.503,2.291 -0.963,4.593 -1.384,6.9 l 0,0 c -0.041,0.22 -0.137,0.757 -0.192,1.077 l 0,0 c -0.018,-0.069 -0.03,-0.14 -0.037,-0.213 l 0,0 c 0.046,-0.279 0.165,-0.954 0.213,-1.207 l 0,0 c 0.422,-2.307 0.881,-4.61 1.383,-6.9 l 0,0 c 0.502,-2.275 1.043,-4.54 1.615,-6.799 l 0,0 c 0.351,-1.368 0.717,-2.737 1.095,-4.099 l 0,0 c 0.275,-1.004 1.127,-3.971 1.639,-5.666 l 0,0 c 0.572,-1.889 1.165,-3.766 1.778,-5.644 l 0,0 c 0.675,-2.044 2.765,-8.016 3.142,-8.965 l 0,0 c 1.724,-4.335 3.547,-7.697 6.729,-10.205 l 0,0 c 3.071,-2.421 6.332,-3.448 14.103,-3.443 l 0,0 10e-4,0 c 7.77,-0.005 11.032,1.022 14.103,3.443 l 0,0 c 3.181,2.508 5.006,5.87 6.728,10.205 l 0,0 c 0.377,0.949 2.468,6.921 3.142,8.965 l 0,0 c 0.614,1.878 1.207,3.755 1.778,5.644 l 0,0 c 0.513,1.695 1.365,4.662 1.64,5.666 l 0,0 c 0.377,1.362 0.744,2.731 1.095,4.099 l 0,0 c 0.572,2.259 1.112,4.524 1.614,6.799 l 0,0 c 0.502,2.29 0.961,4.593 1.383,6.9 l 0,0 c 0.048,0.253 0.168,0.928 0.215,1.207 l 0,0 c -0.008,0.073 -0.02,0.144 -0.038,0.213 l 0,0 c -0.055,-0.32 -0.151,-0.857 -0.192,-1.077"
               id="path3187"
               style="fill:url(#linearGradient3173);stroke:none" />
          </g>
        </g>
      </g>
    </g>
    <g
       transform="matrix(1.25,0,0,-1.25,-1336.6172,613.14875)"
       id="g3189">
      <g
         clip-path="url(#clipPath3193)"
         id="g3191">
        <g
           transform="translate(65.4472,512.7117)"
           id="g3197">
          <path
             d="m 0,0 c 5.274,1.933 7.163,6.306 9.128,10.742 2.3,5.195 6.733,18.93 8.015,22.864 0.004,0.014 0.009,0.029 0.014,0.043 -0.016,-0.05 -0.033,-0.101 -0.049,-0.154 C 16.394,31.15 15.837,29.019 15.241,27.128 12.66,18.947 10.258,12.83 10.258,12.83 c 0,0 -2.413,-6.435 -4.655,-9.044 C 3.431,1.257 0.902,-0.023 -1.79,-0.553 -1.901,-0.575 -2.016,-0.598 -2.14,-0.62 c -0.116,-0.02 -0.237,-0.04 -0.365,-0.059 -0.013,-0.002 -0.026,-0.005 -0.039,-0.007 0.003,0.001 0.006,0.002 0.009,0.002 0.912,0.169 1.744,0.395 2.505,0.672 C -0.02,-0.008 -0.01,-0.004 0,0"
             id="path3199"
             style="fill:#ffffff;fill-opacity:1;fill-rule:nonzero;stroke:none" />
        </g>
      </g>
    </g>
    <g
       transform="matrix(1.25,0,0,-1.25,-1336.6172,613.14875)"
       id="g3201">
      <g
         id="g3203">
        <g
           id="g3209">
          <g
             id="g3211">
            <path
               d="m 87.158,560.349 c -0.411,-1.383 -2.044,-6.71 -3.843,-11.947 l 0,0 -0.006,-0.01 c -0.119,-0.322 -0.242,-0.641 -0.366,-0.96 l 0,0 0,-10e-4 -0.02,-0.063 -0.013,-0.037 c 0,-0.002 -10e-4,-0.005 -0.002,-0.007 l 0,0 c -0.021,-0.067 -0.052,-0.172 -0.079,-0.258 l 0,0 c -0.075,-0.237 -0.151,-0.474 -0.225,-0.705 l 0,0 c -0.016,-0.05 -0.033,-0.102 -0.049,-0.155 l 0,0 c -0.714,-2.345 -1.271,-4.474 -1.867,-6.366 l 0,0 c -2.581,-8.181 -4.983,-14.298 -4.983,-14.298 l 0,0 c 0,0 -2.413,-6.435 -4.654,-9.045 l 0,0 c -2.173,-2.528 -4.702,-3.808 -7.394,-4.338 l 0,0 c -0.111,-0.023 -0.226,-0.046 -0.349,-0.067 l 0,0 c -0.116,-0.02 -0.238,-0.04 -0.366,-0.06 l 0,0 c -0.013,-0.001 -0.026,-0.004 -0.038,-0.006 l 0,0 c 0.002,0.001 0.005,0.001 0.009,0.002 l 0,0 c -1.045,-0.157 -2.502,-0.275 -4.59,-0.277 l 0,0 c -2.089,0.002 -3.546,0.12 -4.591,0.277 l 0,0 c 0.003,-10e-4 0.006,-10e-4 0.01,-0.002 l 0,0 c -0.014,0.002 -0.026,0.005 -0.04,0.006 l 0,0 c -0.127,0.02 -0.249,0.04 -0.364,0.06 l 0,0 c -0.125,0.021 -0.24,0.044 -0.351,0.067 l 0,0 c -2.691,0.53 -5.22,1.81 -7.393,4.338 l 0,0 c -2.241,2.61 -4.654,9.045 -4.654,9.045 l 0,0 c 0,0 -2.403,6.117 -4.983,14.298 l 0,0 c -0.597,1.892 -1.153,4.021 -1.867,6.366 l 0,0 c -0.017,0.053 -0.033,0.105 -0.049,0.155 l 0,0 c -0.076,0.231 -0.151,0.468 -0.225,0.705 l 0,0 c -0.027,0.086 -0.059,0.191 -0.08,0.258 l 0,0 c 0,0.002 -10e-4,0.005 -10e-4,0.007 l 0,0 -0.014,0.037 -0.02,0.063 0,10e-4 0,-10e-4 0,10e-4 c -0.124,0.319 -0.246,0.638 -0.366,0.96 l 0,0 -0.005,0.01 c -1.799,5.237 -3.433,10.564 -3.842,11.947 l 0,0 c -0.06,0.198 -0.093,0.315 -0.099,0.339 l 0,0 c -0.461,-0.043 -0.88,-0.092 -1.26,-0.146 l 0,0 c -0.167,-0.022 -0.381,-0.054 -0.484,-0.081 l 0,0 c -0.512,-0.138 -0.861,-0.541 -0.983,-1.008 l 0,0 c 0.055,-0.32 0.151,-0.857 0.192,-1.077 l 0,0 c 0.421,-2.307 0.881,-4.609 1.384,-6.9 l 0,0 c 0.502,-2.275 1.042,-4.54 1.613,-6.799 l 0,0 c 0.351,-1.368 0.717,-2.737 1.096,-4.099 l 0,0 c 0.274,-1.004 1.126,-3.97 1.638,-5.666 l 0,0 c 0.572,-1.889 1.165,-3.766 1.78,-5.644 l 0,0 c 0.673,-2.044 2.764,-8.015 3.141,-8.965 l 0,0 c 1.723,-4.335 3.547,-7.697 6.728,-10.205 l 0,0 c 0.588,-0.464 1.184,-0.876 1.815,-1.24 l 0,0 c 2.668,-1.535 6.001,-2.206 12.273,-2.203 l 0,0 10e-4,0 c 6.272,-0.003 9.605,0.668 12.272,2.203 l 0,0 c 0.633,0.364 1.228,0.776 1.815,1.24 l 0,0 c 3.181,2.508 5.005,5.87 6.729,10.205 l 0,0 c 0.377,0.95 2.468,6.921 3.141,8.965 l 0,0 c 0.615,1.878 1.208,3.755 1.779,5.644 l 0,0 c 0.512,1.696 1.365,4.662 1.639,5.666 l 0,0 c 0.378,1.362 0.744,2.731 1.095,4.099 l 0,0 c 0.573,2.259 1.112,4.524 1.614,6.799 l 0,0 c 0.502,2.291 0.962,4.593 1.384,6.9 l 0,0 c 0.041,0.22 0.137,0.757 0.192,1.077 l 0,0 c -0.122,0.467 -0.472,0.87 -0.984,1.008 l 0,0 c -0.101,0.027 -0.317,0.059 -0.483,0.081 l 0,0 c -0.381,0.054 -0.799,0.103 -1.261,0.146 l 0,0 c -0.005,-0.024 -0.04,-0.141 -0.097,-0.339"
               id="path3229"
               style="fill:url(#linearGradient3213);stroke:none" />
          </g>
        </g>
      </g>
    </g>
    <g
       transform="matrix(1.25,0,0,-1.25,-1336.6172,613.14875)"
       id="g3231">
      <g
         id="g3233">
        <g
           id="g3239">
          <g
             id="g3241">
            <path
               d="m 89.806,558.033 c -0.422,-2.307 -0.881,-4.61 -1.383,-6.9 l 0,0 c -0.502,-2.275 -1.042,-4.54 -1.614,-6.799 l 0,0 c -0.351,-1.368 -0.718,-2.737 -1.095,-4.099 l 0,0 c -0.275,-1.004 -1.127,-3.971 -1.64,-5.666 l 0,0 c -0.571,-1.889 -1.164,-3.766 -1.778,-5.644 l 0,0 c -0.674,-2.044 -2.765,-8.016 -3.142,-8.965 l 0,0 c -1.722,-4.335 -3.547,-7.697 -6.728,-10.205 l 0,0 c -3.071,-2.421 -6.333,-3.448 -14.103,-3.443 l 0,0 c -7.772,-0.005 -11.033,1.022 -14.104,3.443 l 0,0 c -3.182,2.508 -5.005,5.87 -6.729,10.205 l 0,0 c -0.377,0.949 -2.467,6.921 -3.142,8.965 l 0,0 c -0.613,1.878 -1.206,3.755 -1.778,5.644 l 0,0 c -0.512,1.695 -1.364,4.662 -1.639,5.666 l 0,0 c -0.378,1.362 -0.744,2.731 -1.095,4.099 l 0,0 c -0.572,2.259 -1.113,4.524 -1.615,6.799 l 0,0 c -0.502,2.29 -0.961,4.593 -1.383,6.9 l 0,0 c -0.048,0.253 -0.167,0.928 -0.213,1.207 l 0,0 c -0.012,-0.106 -0.016,-0.213 -0.003,-0.321 l 0,0 c 0,-0.038 0.174,-1.014 0.233,-1.331 l 0,0 c 0.421,-2.308 0.881,-4.609 1.383,-6.901 l 0,0 c 0.503,-2.275 1.043,-4.539 1.614,-6.798 l 0,0 c 0.351,-1.368 0.718,-2.736 1.095,-4.1 l 0,0 c 0.276,-1.003 1.127,-3.97 1.639,-5.665 l 0,0 c 0.573,-1.889 1.165,-3.767 1.78,-5.645 l 0,0 c 0.673,-2.044 2.764,-8.014 3.141,-8.965 l 0,0 c 1.723,-4.333 3.547,-7.697 6.728,-10.205 l 0,0 c 3.069,-2.419 6.329,-3.446 14.087,-3.442 l 0,0 10e-4,0 c 7.758,-0.004 11.017,1.023 14.087,3.442 l 0,0 c 3.18,2.508 5.004,5.872 6.728,10.205 l 0,0 c 0.377,0.951 2.468,6.921 3.141,8.965 l 0,0 c 0.615,1.878 1.208,3.756 1.779,5.645 l 0,0 c 0.512,1.695 1.364,4.662 1.639,5.665 l 0,0 c 0.377,1.364 0.744,2.732 1.095,4.1 l 0,0 c 0.572,2.259 1.112,4.523 1.614,6.798 l 0,0 c 0.502,2.292 0.962,4.593 1.383,6.901 l 0,0 c 0.06,0.317 0.233,1.293 0.233,1.331 l 0,0 c 0.013,0.108 0.01,0.215 -0.001,0.321 l 0,0 c -0.047,-0.279 -0.167,-0.954 -0.215,-1.207"
               id="path3259"
               style="fill:url(#linearGradient3243);stroke:none" />
          </g>
        </g>
      </g>
    </g>
    <g
       transform="matrix(1.25,0,0,-1.25,-1336.6172,613.14875)"
       id="g3261">
      <g
         id="g3263">
        <g
           id="g3269">
          <g
             id="g3271">
            <path
               d="m 82.735,549.412 c -2.07,-0.433 -8.369,-1.29 -24.412,-1.27 l 0,0 -10e-4,0 c -16.044,-0.02 -22.343,0.837 -24.413,1.27 l 0,0 c -0.419,0.088 -0.736,-0.301 -0.622,-0.714 l 0,0 c 0,0 0.143,-0.491 0.415,-1.266 l 0,0 c 0.002,-0.005 0.004,-0.011 0.007,-0.016 l 0,0 c 0.072,-0.161 0.735,-1.602 1.486,-2.907 l 0,0 c 0.152,-0.263 0.306,-0.52 0.461,-0.761 l 0,0 c 3.806,-5.919 9.459,-8.848 14.149,-10.323 l 0,0 c 0.899,-0.282 1.765,-0.512 2.577,-0.696 l 0,0 c 2.269,-0.517 4.116,-0.69 5.13,-0.748 l 0,0 c 0.243,-0.014 0.437,-0.022 0.578,-0.026 l 0,0 c 0.051,-0.001 0.087,-0.003 0.064,-0.003 l 0,0 0.168,-10e-4 10e-4,0 0.167,10e-4 c -0.022,0 0.014,0.002 0.064,0.003 l 0,0 c 0.14,0.004 0.336,0.012 0.579,0.026 l 0,0 c 1.013,0.058 2.861,0.231 5.13,0.748 l 0,0 c 0.812,0.184 1.676,0.414 2.576,0.696 l 0,0 c 4.69,1.475 10.344,4.404 14.149,10.323 l 0,0 c 0.155,0.241 0.31,0.498 0.461,0.761 l 0,0 c 0.752,1.305 1.414,2.746 1.487,2.907 l 0,0 c 0.002,0.005 0.004,0.011 0.006,0.016 l 0,0 c 0.273,0.775 0.415,1.266 0.415,1.266 l 0,0 c 0.104,0.372 -0.145,0.726 -0.504,0.727 l 0,0 c -0.038,0 -0.077,-0.005 -0.118,-0.013"
               id="path3285"
               style="fill:url(#linearGradient3273);stroke:none" />
          </g>
        </g>
      </g>
    </g>
    <g
       transform="matrix(1.25,0,0,-1.25,-1336.6172,613.14875)"
       id="g3287">
      <g
         id="g3289">
        <g
           id="g3295">
          <g
             id="g3297">
            <path
               d="m 33.735,547.328 10e-4,-10e-4 c 0,10e-4 0,10e-4 -10e-4,10e-4 l 0,0 z m 10e-4,-0.004 c 0,0.001 0,0.002 0,0.003 l 0,0 0,-0.003 z m 0.082,-0.258 c -0.036,0.109 -0.05,0.154 0.049,-0.158 l 0,0 c 0.05,-0.157 0.108,-0.341 0.174,-0.547 l 0,0 c 0.004,-0.014 0.009,-0.03 0.013,-0.044 l 0,0 c 1.282,-3.934 5.715,-17.668 8.016,-22.863 l 0,0 c 1.964,-4.437 3.853,-8.809 9.127,-10.743 l 0,0 c 0.01,-0.004 0.02,-0.007 0.031,-0.011 l 0,0 c 0.76,-0.277 1.592,-0.504 2.504,-0.672 l 0,0 c 1.045,-0.157 2.502,-0.275 4.59,-0.277 l 0,0 0,0 10e-4,0 0,5.035 -0.723,-10e-4 c -1.277,0.009 -2.565,0.056 -3.821,0.317 l 0,0 c -0.901,0.19 -1.765,0.531 -2.54,1.012 l 0,0 c 0,0 -0.471,0.309 -0.691,0.493 l 0,0 c -0.925,0.772 -1.616,1.776 -2.197,2.827 l 0,0 c -0.624,1.131 -1.117,2.328 -1.624,3.519 l 0,0 c -0.506,1.201 -0.992,2.407 -1.476,3.62 l 0,0 c -0.242,0.605 -1.077,2.97 -1.056,2.911 l 0,0 c 0.113,-0.29 0.22,-0.571 0.333,-0.861 l 0,0 c 0.232,-0.611 0.48,-1.202 0.722,-1.808 l 0,0 c 0.485,-1.213 0.971,-2.418 1.477,-3.619 l 0,0 c 0.506,-1.191 0.999,-2.388 1.624,-3.52 l 0,0 c 0.58,-1.051 1.272,-2.055 2.197,-2.826 l 0,0 c 0.22,-0.184 0.691,-0.498 0.691,-0.498 l 0,0 c 0.775,-0.48 1.639,-0.818 2.54,-1.008 l 0,0 c 1.256,-0.261 2.543,-0.308 3.821,-0.317 l 0,0 0.722,10e-4 10e-4,0 0,0.138 -10e-4,0 -0.741,-0.001 c -1.278,0.009 -2.565,0.056 -3.821,0.317 l 0,0 c -0.907,0.191 -1.775,0.511 -2.554,0.996 l 0,0 c -0.235,0.149 -0.461,0.31 -0.677,0.49 l 0,0 c -0.925,0.771 -1.617,1.776 -2.197,2.827 l 0,0 c -0.625,1.131 -1.118,2.328 -1.624,3.52 l 0,0 c -0.506,1.2 -2.794,6.943 -2.823,7.025 l 0,0 -10e-4,10e-4 c -10e-4,0 -10e-4,10e-4 -0.002,0.002 l 0,0 c -0.13,0.111 -0.312,0.279 -0.534,0.496 l 0,0 c -0.061,0.058 -0.12,0.117 -0.18,0.174 l 0,0 c -0.057,0.054 -0.138,0.135 -0.226,0.224 l 0,0 c -0.163,0.158 -0.326,0.316 -0.484,0.477 l 0,0 c -2.599,2.633 -4.527,5.36 -5.926,7.755 l 0,0 c -0.33,0.563 -0.628,1.107 -0.901,1.628 l 0,0 c -0.026,0.05 -0.054,0.102 -0.079,0.151 l 0,0 c -0.742,1.431 -1.275,2.672 -1.64,3.605 l 0,0 c -0.042,0.108 -0.083,0.213 -0.121,0.311 l 0,0 -0.055,0.16 c 0.024,-0.073 0.05,-0.156 0.082,-0.258"
               id="path3309"
               style="fill:url(#linearGradient3299);stroke:none" />
          </g>
        </g>
      </g>
    </g>
    <g
       transform="matrix(1.25,0,0,-1.25,-1336.6172,613.14875)"
       id="g3311">
      <g
         id="g3313">
        <g
           id="g3319">
          <g
             id="g3321">
            <path
               d="m 82.853,547.164 c -0.038,-0.098 -0.078,-0.203 -0.121,-0.311 l 0,0 c -0.364,-0.933 -0.898,-2.174 -1.639,-3.605 l 0,0 c -0.025,-0.049 -0.053,-0.101 -0.079,-0.151 l 0,0 c -0.273,-0.521 -0.572,-1.065 -0.901,-1.628 l 0,0 c -1.4,-2.395 -3.327,-5.122 -5.927,-7.755 l 0,0 c -0.157,-0.161 -0.32,-0.319 -0.483,-0.477 l 0,0 c -0.088,-0.089 -0.169,-0.17 -0.226,-0.224 l 0,0 c -0.06,-0.057 -0.12,-0.116 -0.181,-0.174 l 0,0 c -0.221,-0.217 -0.404,-0.385 -0.534,-0.496 l 0,0 c 0,-10e-4 -0.001,-0.002 -0.002,-0.002 l 0,0 0,-10e-4 c -0.029,-0.082 -2.318,-5.825 -2.824,-7.025 l 0,0 c -0.506,-1.192 -0.999,-2.389 -1.623,-3.52 l 0,0 c -0.581,-1.051 -1.273,-2.056 -2.197,-2.827 l 0,0 c -0.216,-0.18 -0.443,-0.341 -0.678,-0.49 l 0,0 c -0.777,-0.485 -1.647,-0.805 -2.553,-0.996 l 0,0 c -1.257,-0.261 -2.544,-0.308 -3.822,-0.317 l 0,0 -0.74,0.001 -10e-4,0 0,-0.138 10e-4,0 0.722,-10e-4 c 1.277,0.009 2.565,0.056 3.822,0.317 l 0,0 c 0.9,0.19 1.764,0.528 2.539,1.008 l 0,0 c 0,0 0.47,0.314 0.691,0.498 l 0,0 c 0.924,0.771 1.616,1.775 2.197,2.826 l 0,0 c 0.624,1.132 1.118,2.329 1.623,3.52 l 0,0 c 0.507,1.201 0.992,2.406 1.476,3.619 l 0,0 c 0.243,0.606 0.492,1.197 0.723,1.808 l 0,0 c 0.114,0.29 0.221,0.571 0.333,0.861 l 0,0 c 0.022,0.059 -0.813,-2.306 -1.056,-2.911 l 0,0 c -0.484,-1.213 -0.97,-2.419 -1.476,-3.62 l 0,0 c -0.505,-1.191 -0.999,-2.388 -1.623,-3.519 l 0,0 c -0.582,-1.051 -1.273,-2.055 -2.197,-2.827 l 0,0 c -0.221,-0.184 -0.691,-0.493 -0.691,-0.493 l 0,0 c -0.775,-0.481 -1.639,-0.822 -2.54,-1.012 l 0,0 c -1.257,-0.261 -2.544,-0.308 -3.822,-0.317 l 0,0 -0.722,10e-4 0,-5.035 0,0 10e-4,0 c 2.088,0.002 3.545,0.12 4.59,0.277 l 0,0 c 0.911,0.168 1.743,0.395 2.504,0.672 l 0,0 c 0.01,0.004 0.02,0.007 0.03,0.011 l 0,0 c 5.274,1.934 7.163,6.306 9.128,10.743 l 0,0 c 2.3,5.195 6.734,18.929 8.015,22.863 l 0,0 c 0.005,0.014 0.009,0.03 0.014,0.044 l 0,0 c 0.065,0.206 0.123,0.39 0.173,0.547 l 0,0 c 0.099,0.312 0.085,0.267 0.05,0.158 l 0,0 c 0.032,0.102 0.058,0.185 0.081,0.258 l 0,0 c 0.001,0.001 0.001,0.003 0.001,0.005 l 0,0 -0.056,-0.165 z"
               id="path3333"
               style="fill:url(#linearGradient3323);stroke:none" />
          </g>
        </g>
      </g>
    </g>
    <g
       transform="matrix(1.25,0,0,-1.25,-1336.6172,613.14875)"
       id="g3335">
      <g
         id="g3337">
        <g
           id="g3343">
          <g
             id="g3345">
            <path
               d="m 72.449,531.484 c -0.112,-0.29 -0.219,-0.571 -0.333,-0.861 l 0,0 c -0.231,-0.611 -0.48,-1.202 -0.723,-1.808 l 0,0 c -0.484,-1.213 -0.969,-2.418 -1.476,-3.619 l 0,0 c -0.505,-1.191 -0.999,-2.388 -1.623,-3.52 l 0,0 c -0.581,-1.051 -1.273,-2.055 -2.197,-2.826 l 0,0 c -0.221,-0.184 -0.691,-0.498 -0.691,-0.498 l 0,0 c -0.775,-0.48 -1.639,-0.818 -2.539,-1.008 l 0,0 c -1.257,-0.261 -2.545,-0.308 -3.822,-0.317 l 0,0 -0.722,10e-4 -10e-4,0 -0.722,-10e-4 c -1.278,0.009 -2.565,0.056 -3.821,0.317 l 0,0 c -0.901,0.19 -1.765,0.528 -2.54,1.008 l 0,0 c 0,0 -0.471,0.314 -0.691,0.498 l 0,0 c -0.925,0.771 -1.617,1.775 -2.197,2.826 l 0,0 c -0.625,1.132 -1.118,2.329 -1.624,3.52 l 0,0 c -0.506,1.201 -0.992,2.406 -1.477,3.619 l 0,0 c -0.242,0.606 -0.49,1.197 -0.722,1.808 l 0,0 c -0.112,0.288 -0.219,0.568 -0.331,0.856 l 0,0 c 0.043,-0.125 0.822,-2.325 1.054,-2.906 l 0,0 c 0.484,-1.213 0.97,-2.419 1.476,-3.62 l 0,0 c 0.507,-1.191 1,-2.388 1.624,-3.519 l 0,0 c 0.581,-1.051 1.272,-2.055 2.197,-2.827 l 0,0 c 0.22,-0.184 0.691,-0.493 0.691,-0.493 l 0,0 c 0.775,-0.481 1.639,-0.822 2.54,-1.012 l 0,0 c 1.256,-0.261 2.544,-0.308 3.821,-0.317 l 0,0 0.723,10e-4 0.721,-10e-4 c 1.278,0.009 2.565,0.056 3.822,0.317 l 0,0 c 0.901,0.19 1.765,0.531 2.54,1.012 l 0,0 c 0,0 0.47,0.309 0.691,0.493 l 0,0 c 0.924,0.772 1.615,1.776 2.197,2.827 l 0,0 c 0.624,1.131 1.118,2.328 1.623,3.519 l 0,0 c 0.506,1.201 0.992,2.407 1.476,3.62 l 0,0 c 0.24,0.598 1.057,2.912 1.057,2.912 l 0,0 c 0,0 0,0 -0.001,-10e-4 m -28.254,0 c 10e-4,-0.001 0.002,-0.003 0.002,-0.005 l 0,0 c -0.001,0.004 -0.002,0.006 -0.002,0.006 l 0,0 c 0,0 0,0 0,-10e-4"
               id="path3355"
               style="fill:url(#linearGradient3347);stroke:none" />
          </g>
        </g>
      </g>
    </g>
    <g
       transform="matrix(1.25,0,0,-1.25,-1336.6172,613.14875)"
       id="g3357">
      <g
         id="g3359">
        <g
           id="g3365">
          <g
             id="g3367">
            <path
               d="m 82.943,547.431 0,10e-4 0,-10e-4 z m -0.002,-0.005 c -0.002,-0.002 -0.003,-0.006 -0.005,-0.01 l 0,0 c -0.073,-0.161 -0.735,-1.602 -1.487,-2.907 l 0,0 c -0.151,-0.263 -0.306,-0.52 -0.461,-0.761 l 0,0 C 77.183,537.829 71.529,534.9 66.839,533.425 l 0,0 c -0.9,-0.282 -1.764,-0.512 -2.576,-0.696 l 0,0 c -2.269,-0.517 -4.117,-0.69 -5.13,-0.748 l 0,0 c -0.243,-0.014 -0.439,-0.022 -0.579,-0.026 l 0,0 c -0.05,-0.001 -0.094,-0.003 -0.13,-0.003 l 0,0 0,0 0.066,0 c 0.873,0 1.781,0.007 2.714,0.02 l 0,0 1.949,0.013 1.205,0.045 c 1.477,0.036 2.957,0.08 4.432,0.139 l 0,0 c 0.393,0.015 1.103,0.045 1.819,0.076 l 0,0 c 0.571,0.025 1.144,0.05 1.562,0.068 l 0,0 c 0.197,0.009 0.394,0.018 0.589,0.027 l 0,0 0,10e-4 c 10e-4,0 10e-4,10e-4 0.002,0.002 l 0,0 c 0.13,0.111 0.313,0.279 0.534,0.496 l 0,0 c 0.061,0.058 0.121,0.117 0.181,0.174 l 0,0 c 0.077,0.074 0.15,0.15 0.226,0.224 l 0,0 c 0.162,0.158 0.326,0.316 0.483,0.477 l 0,0 c 2.6,2.633 4.527,5.36 5.927,7.755 l 0,0 c 0.329,0.563 0.628,1.107 0.901,1.628 l 0,0 c 0.026,0.05 0.054,0.102 0.079,0.151 l 0,0 c 0.741,1.431 1.275,2.672 1.639,3.605 l 0,0 c 0.043,0.108 0.083,0.213 0.121,0.311 l 0,0 0.056,0.165 10e-4,0.002 0.013,0.037 0.02,0.063 c 0,0 -0.001,-0.001 -0.002,-0.005"
               id="path3381"
               style="fill:url(#linearGradient3369);stroke:none" />
          </g>
        </g>
      </g>
    </g>
  </g>
</svg>
