<?xml version="1.0" encoding="UTF-8" standalone="no"?>
<svg
   xmlns:dc="http://purl.org/dc/elements/1.1/"
   xmlns:cc="http://creativecommons.org/ns#"
   xmlns:rdf="http://www.w3.org/1999/02/22-rdf-syntax-ns#"
   xmlns:svg="http://www.w3.org/2000/svg"
   xmlns="http://www.w3.org/2000/svg"
   xmlns:sodipodi="http://sodipodi.sourceforge.net/DTD/sodipodi-0.dtd"
   xmlns:inkscape="http://www.inkscape.org/namespaces/inkscape"
   inkscape:version="1.0beta2 (2b71d25, 2019-12-03)"
   sodipodi:docname="dell_.svg"
   width="300"
   height="300"
   viewBox="0 0 300 300"
   id="svg3794"
   version="1.1">
  <sodipodi:namedview
     inkscape:current-layer="g3464"
     inkscape:window-maximized="0"
     inkscape:window-y="23"
     inkscape:window-x="0"
     inkscape:cy="137.94643"
     inkscape:cx="131.25"
     inkscape:zoom="2.24"
     showgrid="false"
     id="namedview18"
     inkscape:window-height="762"
     inkscape:window-width="1117"
     inkscape:pageshadow="2"
     inkscape:pageopacity="0"
     guidetolerance="10"
     gridtolerance="10"
     objecttolerance="10"
     borderopacity="1"
     inkscape:document-rotation="0"
     bordercolor="#666666"
     pagecolor="#ffffff" />
  <defs
     id="defs3796" />
  <metadata
     id="metadata3799">
    <rdf:RDF>
      <cc:Work
         rdf:about="">
        <dc:format>image/svg+xml</dc:format>
        <dc:type
           rdf:resource="http://purl.org/dc/dcmitype/StillImage" />
        <dc:title />
      </cc:Work>
    </rdf:RDF>
  </metadata>
  <g
     id="layer1"
     transform="translate(-318.33375,-439.74274)">
    <g
       id="g3460"
       transform="matrix(4.579965,0,0,-4.579965,468.34291,456.8459)">
      <path
         d="m 0,0 c -8.01,0 -15.264,-3.249 -20.516,-8.505 -5.254,-5.244 -8.501,-12.502 -8.501,-20.516 0,-8.008 3.247,-15.261 8.501,-20.507 5.252,-5.249 12.506,-8.504 20.516,-8.504 8.012,0 15.27,3.255 20.514,8.504 5.252,5.246 8.492,12.499 8.492,20.507 0,8.014 -3.24,15.272 -8.492,20.516 C 15.27,-3.249 8.012,0 0,0 m 0,3.516 c 17.965,0 32.531,-14.568 32.531,-32.537 0,-17.963 -14.566,-32.529 -32.531,-32.529 -17.963,0 -32.535,14.566 -32.535,32.529 0,17.969 14.572,32.537 32.535,32.537"
         style="fill:#007db8;fill-opacity:1;fill-rule:nonzero;stroke:none"
         id="path3462" />
    </g>
    <g
       id="g3464"
       transform="matrix(4.579965,0,0,-4.579965,397.87238,588.54693)">
      <path
         sodipodi:nodetypes="ccccccc"
         inkscape:connector-curvature="0"
         d="m 35.322,-2.914 h 4.867 V -7.013 H 30.436 V 6.996 h 4.886 z"
         style="fill:#007db8;fill-opacity:1;fill-rule:nonzero;stroke:none"
         id="path3466" />
    </g>
  </g>
</svg>
