<?xml version="1.0" encoding="UTF-8" standalone="no"?>
<svg
   xmlns:dc="http://purl.org/dc/elements/1.1/"
   xmlns:cc="http://creativecommons.org/ns#"
   xmlns:rdf="http://www.w3.org/1999/02/22-rdf-syntax-ns#"
   xmlns:svg="http://www.w3.org/2000/svg"
   xmlns="http://www.w3.org/2000/svg"
   xmlns:sodipodi="http://sodipodi.sourceforge.net/DTD/sodipodi-0.dtd"
   xmlns:inkscape="http://www.inkscape.org/namespaces/inkscape"
   inkscape:version="1.0beta2 (2b71d25, 2019-12-03)"
   sodipodi:docname="dunkin-donuts copy.svg"
   id="svg20"
   version="1.1"
   viewBox="0 0 250 94.55595"
   width="250"
   height="94.556">
  <metadata
     id="metadata26">
    <rdf:RDF>
      <cc:Work
         rdf:about="">
        <dc:format>image/svg+xml</dc:format>
        <dc:type
           rdf:resource="http://purl.org/dc/dcmitype/StillImage" />
      </cc:Work>
    </rdf:RDF>
  </metadata>
  <defs
     id="defs24" />
  <sodipodi:namedview
     inkscape:current-layer="svg20"
     inkscape:window-maximized="0"
     inkscape:window-y="23"
     inkscape:window-x="0"
     inkscape:cy="60.192148"
     inkscape:cx="91.329535"
     inkscape:zoom="3.8453564"
     showgrid="false"
     id="namedview22"
     inkscape:window-height="712"
     inkscape:window-width="1251"
     inkscape:pageshadow="2"
     inkscape:pageopacity="0"
     guidetolerance="10"
     gridtolerance="10"
     objecttolerance="10"
     borderopacity="1"
     inkscape:document-rotation="0"
     bordercolor="#666666"
     pagecolor="#ffffff" />
  <g
     id="g18"
     transform="matrix(.51667 0 0 .51667 .88028 1.1407)">
    <path
       sodipodi:nodetypes="scccccccsccccscccccsssscss"
       inkscape:connector-curvature="0"
       id="path10"
       fill="#fff"
       clip-rule="evenodd"
       fill-rule="evenodd"
       d="M 104.59667,38.296673 50.4,38.8 c -0.4,-2.1 -1.2,-3.9 -2.1,-5.6 3,0.6 6.4,0.1 9.6,-1.7 l -2,0.5 2.6,-0.9 h 0.1 L 58.7,31 c 4.4,-3.3 6.9,-8.4 6.9,-13.8 0,-1.4 -0.2,-2.8 -0.5,-4.2 C 63.4,6.1 58,1.3 51.1,0.1 47.8,-0.4 40.8,0.3 35.2,4.4 c -4.3,3.2 -7.1,7.8 -7.8,13.4 -0.1,0.9 -0.2,1.7 -0.2,2.5 0,2 0.4,3.8 0.9,5.5 -5.6,-2.7 -12.2,-2.1 -18.1,2 H 9.9 c -6.3,4.5 -8.1,9.7 -8.6,13.3 -0.3,2.7 0,5.5 1.1,8 -1.5,3 -2.4,6.3 -2.4,9.8 v 98.5 c 0,11.2 9.1,20.4 20.3,20.4 h 84.9 c 11.92153,0 20.50662,-0.75473 20.30996,-22.48793 0.20733,-64.928849 0.62562,-88.278917 0.45919,-98.244234 -0.19464,-11.655045 -8.58742,-18.889898 -21.37248,-18.771163 z" />
    <path
       id="path12"
       d="m49.578 4.0918c-2.734 0.0574-7.766 0.7461-11.879 3.8086-3.4 2.4996-5.499 6.1996-6.199 10.6-0.9 6.1 2.5992 10.201 5.6992 13.801 3.3 3.9 6.2004 7.2992 4.4004 13.199-0.2 0.6-0.09883 1.0996 0.20117 1.5996s0.69883 0.9 1.2988 1c1.1 0.4 2.3012-0.30039 2.7012-1.4004 2.5-8.101-1.801-13.2-5.301-17.2-3.3-3.8-5.299-6.4-4.699-10.4 0.5-3.3 2-5.8992 4.5-7.6992 3.6-2.7 8.3-3.0008 9.5-2.8008 5.1 0.8 6.6 4.7008 7 6.3008 0.3 1.1 0.29922 2.1988 0.19922 3.2988-0.3 2.3-1.3992 4.3012-3.1992 5.7012h-0.10156c-2.1 1.1-3.9 1.1-5 0-1.1-1-1.1988-2.6-0.79883-3.5 0.4-0.801 1.5-1.101 3.1-0.901 0.6 0.1 1.0996-0.000391 1.5996-0.40039 0.5-0.3 0.80039-0.80039 0.90039-1.4004 0.2-1.2-0.60078-2.3-1.8008-2.5-3.5-0.6-6.2996 0.60156-7.5996 3.1016-1.4 2.7-0.70039 6.3 1.5996 8.5 2.6 2.5 6.4008 2.6996 10.301 0.59961l0.30078-0.20117c4.2-3.1 5.9988-8.4996 4.7988-13.6-1.2-5-5.2-8.6-10.5-9.5-0.2875-0.0125-0.63086-0.016016-1.0215-0.00781zm-28.191 24.32c-2.9375-0.1125-6.0363 0.83867-8.9863 2.8887-4.4 3.1-6.4008 6.7984-6.8008 10.398-0.4 3.1 0.4 6.0008 2 8.3008 3.3 4.8 10.1 7.1992 17 2.6992l0.09961-0.09961c3.6-2.7 3.5016-8.1004 1.1016-11.4-2.3-3.2-6-3.6984-9.5-1.3984-1 0.7-1.2016 2-0.60156 3 0.3 0.5 0.80039 0.79844 1.4004 0.89844 0.6 0.1 1.0996 0.0012 1.5996-0.29883 2-1.4 3.0016-0.50117 3.6016 0.29883 0.7 0.9 0.99883 2.3 0.79883 3.5-0.1 0.9-0.4 1.5004-1 1.9004-4.7 3.1-8.9 1.4004-11-1.5996-2.3-3.4-2.0988-8.5992 3.7012-12.699 5.7-3.9 9.8988-1.5012 11.799 0.29883 3.7 3.4 5.1996 9.3004 3.0996 12.9-0.6 1-0.19922 2.4004 0.80078 2.9004 0.5 0.3 1.0996 0.39922 1.5996 0.19922 0.6-0.2 1.0008-0.5 1.3008-1 3-5.4 1.3-13.399-4-18.199-2.3-2.2-5.0762-3.3758-8.0137-3.4883zm51.576 15.588c-3.0955 0.01641-7.0246 0.54961-11.662 1.5996-6.1 1.3-13.3 3.4996-19.9 6.0996s-13.401 5.9012-18.701 9.2012c-9.301 5.5-14.1 10.499-13.2 13.799v0.301c0 0.4 0.099219 0.7 0.19922 1l0.40039 0.69922 0.20117 0.40039 12 30.4c0.7 1.8 2.9988 2.8992 6.7988 3.1992 0.6 0.1 1.2 0.4 1.5 1l27.701 53.602c5.3 10.5 20.499 10.198 32.299 5.3984 13.3-5.4 19.401-14.599 16.301-24.799l-0.5-1.7012c-8.9-32.9-13.699-48.7-16.099-56.2-0.2-0.6-0.10156-1.3008 0.39844-1.8008 2.6-2.8 3.5008-5.1 2.8008-7l-12-30.398-0.09961-0.40039-0.20117-0.80078-0.5-0.90039-0.199-0.2c-0.956-1.688-3.557-2.521-7.537-2.5zm1.2285 4.0762c1.7953 0.03594 2.9828 0.27305 3.5078 0.62305-0.2 1-1.6988 2.9008-4.7988 5.3008-7 0.8-17.4 3.6-27.4 7.5-10 4-19.599 9.3992-25.199 13.699-3.9 0.3-6.3012 0-7.2012-0.5 0.6-2.4 10.2-11.2 30-19.1 14.85-5.925 25.706-7.6312 31.092-7.5234zm5.208 7.123 10.1 25.102c-0.4 2.7-10.8 11.8-29.1 19.1-18.3 7.2-32.101 7.8-34.201 6l-10.099-25.099c9.4 0.7 24-3.8016 33.6-7.6016s23.301-10.6 29.701-17.5zm6.9004 34.9c6.3 18.9 15.7 53.801 16.6 56.701 2.6 8.6-3.9 15.7-13.9 19.7-10.4 4.2-23.1 4.3996-27-3.4004-1.3-2.7-18.699-34.6-27.199-52.5 8.7-0.9 19.3-3.9996 27-7.0996 7.8-3.1 17.6-8.1004 24.5-13.4z"
       fill="#613a00" />
    <path
       sodipodi:nodetypes="cscccccssccccccc"
       inkscape:connector-curvature="0"
       id="path14"
       d="m 6.301,55.00039 c -0.3,1.1 -0.5,2.3996 -0.5,3.5996 v 11.6 c 1.6,-3.401 5.2992,-7 11.199,-10.8 -4.1,-0.1 -7.8992,-1.8 -10.699,-4.4 z m -0.4,22.9 v 79.6 c 0,7.9 6.3988,14.301 14.299,14.301 h 37.5 c -1.3,-1.3 -2.3988,-2.8016 -3.2988,-4.6016 0,0 -23,-44.498 -27,-52.398 -4.7,-0.6 -7.7996,-2.6012 -9.0996,-5.7012 l -11.9,-30.2 -0.5,-1 z"
       fill="#f17e06" />
    <path
       sodipodi:nodetypes="cccccscccccsssscc"
       inkscape:connector-curvature="0"
       id="path16"
       d="m 84.199,44.301 0.10156,0.09961 c 0.4,0.5 0.69844,1.0992 0.89844,1.6992 0.2,0.4 0.30039,0.90039 0.40039,1.4004 10.3,26 11.7,29.699 11.9,30.199 0.4,0.9 0.5,1.9004 0.5,2.9004 0,2.4 -0.99922,4.9 -3.1992,7.5 2.6,8 7.2992,23.9 15.699,55 l 0.5,1.7012 v -0.10156 c 3.3,10.7 -1.6,20.7 -12.9,27.3 h 7.3008 c 7.9,0 14.299,-6.4008 14.299,-14.301 v -99.1 c 0,-7.9 -6.3988,-14.299 -14.299,-14.299 h -21.201 z"
       fill="#e9388c" />
  </g>
</svg>
