<svg xmlns="http://www.w3.org/2000/svg" height="94.556" width="250" viewBox="0 0 250 94.55595">
    <g transform="matrix(.51667 0 0 .51667 .88028 1.1407)">
        <path d="m280.3 45.7 0.1-0.2-0.1 0.2m-147.1 129.1-0.1-0.1-0.1-0.1 0.2 0.2zm200.9-130.9 0.1 0.1 0.1 0.1-0.2-0.2zm118.8 61.1c2.9-3.8 3.4-7.4 3.4-12.7v-16.9c2 1.6 4.1 2.2 5.7 2.6 2.5 0.5 11 1.1 15.8-11.3 1.4-3.6 2.2-7.9 2.2-11.2 0-8.1-5.7-16.8-15-16.8-5 0-9.1 2.9-11.7 6.9l-0.7-0.9-0.1-0.1c-3.1-3.7-7.6-5.8-12.3-5.8-5.3 0-10.4 2.7-13.2 7.1-1.1 1.7-1.8 3.3-2.3 5-2.5-3.1-4.7-5.8-4.7-5.8-3.4-4.2-7.4-6.2-12.2-6.2-6.6 0-12 3.4-14.7 8.7-0.6-1.2-1.3-2.3-2.4-3.5-3-3.4-7.4-5.3-12-5.3s-9 1.9-11.9 5.3c-0.9 0.9-1.5 1.9-2.1 2.8-2.8-4.8-8.1-8.1-14-8.1-5.4 0-10.2 2.7-13.3 7.3 0 0-0.4 0.5-0.9 1.4-0.6-1.1-1.3-2.2-2.3-3.3-3-3.4-7.5-5.4-12.1-5.4-6.4 0-11.7 3.5-14.3 8.9-0.5-1-1.1-2-1.9-3l-0.1-0.1c-3.1-3.7-7.6-5.8-12.3-5.8-5.3 0-10.3 2.7-13.2 7.1-1.1 1.7-1.8 3.3-2.3 5-2.5-3.1-4.7-5.8-4.7-5.8-3.4-4.2-7.4-6.2-12.2-6.2-6.4 0-11.7 3.2-14.4 8.2-0.5-0.8-1-1.6-1.7-2.4-3-3.6-7.8-5.8-12.5-5.8-4.8 0-9.4 2.2-12.5 6.1-1.2 1.5-1.9 2.8-2.5 4.3-0.7-1.8-1.7-3.6-3.3-5.3-3-3.2-7.4-5.1-11.8-5.1-4.7 0-9.6 2.4-12.6 6.2l-0.1 0.1c-2.5 3.3-3.1 6.1-3.3 10.4-1.7-2.6-3.8-5-6.1-7.1-6.9-6.1-15.2-9.1-25.6-9.1h-11.9c-8.3 0-14.4 3.9-16.7 10.8-0.6 1.7-0.7 2.8-0.8 5.3h-0.3c-1.7-9.5-10-16.7-19.9-16.7h-54.7c-0.4-2.1-1.2-3.9-2.1-5.6 3 0.6 6.4 0.1 9.6-1.7l-2 0.5 2.6-0.9h0.1l0.1-0.1c4.4-3.3 6.9-8.4 6.9-13.8 0-1.4-0.2-2.8-0.5-4.2-1.7-6.9-7.1-11.7-14-12.9-3.3-0.5-10.3 0.2-15.9 4.3-4.3 3.2-7.1 7.8-7.8 13.4-0.1 0.9-0.2 1.7-0.2 2.5 0 2 0.4 3.8 0.9 5.5-5.6-2.7-12.2-2.1-18.1 2h-0.1c-6.3 4.5-8.1 9.7-8.6 13.3-0.3 2.7 0 5.5 1.1 8-1.5 3-2.4 6.3-2.4 9.8v98.5c0 11.2 9.1 20.4 20.3 20.4h84.9c9.8 0 18.1-7.1 19.9-16.4h0.9v1.2c0.1 1.3 0.2 2.3 0.5 3.4 1 3.7 3.2 6.6 6.6 8.8 3.3 2.2 6.5 2.7 11.7 2.7h8.2c4.3 0 8.3-0.3 11.1-0.8h0.1c6.2-1.3 12.2-4.4 16.9-8.7l1.2-1.2 0.1-0.1c1.8-1.8 3.3-3.8 4.6-5.9 1.2 2 2.6 3.9 4.1 5.7 7 7.9 17.2 12.5 27.9 12.5 10.6 0 20.7-4.5 27.8-12.5l0.8-1c0.5 2.2 1.3 4.1 2.7 6l0.1 0.2c3 3.9 7.8 6.2 12.7 6.2 4.7 0 9.2-2.1 12.3-5.8l0.1-0.1c1.6-2.1 2.6-4.1 3.1-6.5l4.8 6.1c3.2 4.1 7.5 6.4 12.6 6.4 4.9 0 9.6-2.3 12.5-6 1.4-1.9 2.3-3.7 2.8-5.9l0.2 0.2c5.9 8 15.3 12.8 25.1 12.8 8.9 0 17.4-3.9 23.3-10.8l1.7-2.2c4.1-5.5 6-12 6-20.4v-9.9c1.5 0.5 3.2 0.8 5 0.8v23.4l0.1 2.7c0.2 3.4 1 5.8 2.6 8.4l0.2 0.3c3.1 4.2 7.8 6.6 13.1 6.6 5.6 0 10.4-2.7 13.3-7.3 1.5-2.4 2.2-4.8 2.5-7.8 0 0 0-1 0.1-1.8h1.7c0.2 1.3 0.6 2.6 1.2 3.8 3.8 8.6 14.4 14.1 26.9 14.1 8.9 0 15.7-2.5 20.9-7.7 1.8-1.8 3.2-3.8 4.4-6 2-3.8 3-8.1 3-12.4 0-7-2.7-13.6-7.3-17.9 2.3-2 4-4.7 4.7-7.8 1.7 1.3 3.8 2.1 6.1 2.1 4.7 0 8.7-3.4 9.5-8v-0.4l0.1-1.3c0-5.4-4.3-9.7-9.7-9.7-3.7 0-6.9 2.1-8.6 5-1.8-2.7-4.5-5-7.7-6.7 1.3-1 2.3-2 3.2-3.2zm13.4 18.9zm-39.3-78.2l0.1-0.1-0.1 0.1zm-60.2-1.7 0.1-0.1-0.1 0.1z"
              fill-rule="evenodd" clip-rule="evenodd" fill="#fff"/>
        <path fill="#613a00"
              d="m49.578 4.0918c-2.734 0.0574-7.766 0.7461-11.879 3.8086-3.4 2.4996-5.499 6.1996-6.199 10.6-0.9 6.1 2.5992 10.201 5.6992 13.801 3.3 3.9 6.2004 7.2992 4.4004 13.199-0.2 0.6-0.09883 1.0996 0.20117 1.5996s0.69883 0.9 1.2988 1c1.1 0.4 2.3012-0.30039 2.7012-1.4004 2.5-8.101-1.801-13.2-5.301-17.2-3.3-3.8-5.299-6.4-4.699-10.4 0.5-3.3 2-5.8992 4.5-7.6992 3.6-2.7 8.3-3.0008 9.5-2.8008 5.1 0.8 6.6 4.7008 7 6.3008 0.3 1.1 0.29922 2.1988 0.19922 3.2988-0.3 2.3-1.3992 4.3012-3.1992 5.7012h-0.10156c-2.1 1.1-3.9 1.1-5 0-1.1-1-1.1988-2.6-0.79883-3.5 0.4-0.801 1.5-1.101 3.1-0.901 0.6 0.1 1.0996-0.000391 1.5996-0.40039 0.5-0.3 0.80039-0.80039 0.90039-1.4004 0.2-1.2-0.60078-2.3-1.8008-2.5-3.5-0.6-6.2996 0.60156-7.5996 3.1016-1.4 2.7-0.70039 6.3 1.5996 8.5 2.6 2.5 6.4008 2.6996 10.301 0.59961l0.30078-0.20117c4.2-3.1 5.9988-8.4996 4.7988-13.6-1.2-5-5.2-8.6-10.5-9.5-0.2875-0.0125-0.63086-0.016016-1.0215-0.00781zm-28.191 24.32c-2.9375-0.1125-6.0363 0.83867-8.9863 2.8887-4.4 3.1-6.4008 6.7984-6.8008 10.398-0.4 3.1 0.4 6.0008 2 8.3008 3.3 4.8 10.1 7.1992 17 2.6992l0.09961-0.09961c3.6-2.7 3.5016-8.1004 1.1016-11.4-2.3-3.2-6-3.6984-9.5-1.3984-1 0.7-1.2016 2-0.60156 3 0.3 0.5 0.80039 0.79844 1.4004 0.89844 0.6 0.1 1.0996 0.0012 1.5996-0.29883 2-1.4 3.0016-0.50117 3.6016 0.29883 0.7 0.9 0.99883 2.3 0.79883 3.5-0.1 0.9-0.4 1.5004-1 1.9004-4.7 3.1-8.9 1.4004-11-1.5996-2.3-3.4-2.0988-8.5992 3.7012-12.699 5.7-3.9 9.8988-1.5012 11.799 0.29883 3.7 3.4 5.1996 9.3004 3.0996 12.9-0.6 1-0.19922 2.4004 0.80078 2.9004 0.5 0.3 1.0996 0.39922 1.5996 0.19922 0.6-0.2 1.0008-0.5 1.3008-1 3-5.4 1.3-13.399-4-18.199-2.3-2.2-5.0762-3.3758-8.0137-3.4883zm51.576 15.588c-3.0955 0.01641-7.0246 0.54961-11.662 1.5996-6.1 1.3-13.3 3.4996-19.9 6.0996s-13.401 5.9012-18.701 9.2012c-9.301 5.5-14.1 10.499-13.2 13.799v0.301c0 0.4 0.099219 0.7 0.19922 1l0.40039 0.69922 0.20117 0.40039 12 30.4c0.7 1.8 2.9988 2.8992 6.7988 3.1992 0.6 0.1 1.2 0.4 1.5 1l27.701 53.602c5.3 10.5 20.499 10.198 32.299 5.3984 13.3-5.4 19.401-14.599 16.301-24.799l-0.5-1.7012c-8.9-32.9-13.699-48.7-16.099-56.2-0.2-0.6-0.10156-1.3008 0.39844-1.8008 2.6-2.8 3.5008-5.1 2.8008-7l-12-30.398-0.09961-0.40039-0.20117-0.80078-0.5-0.90039-0.199-0.2c-0.956-1.688-3.557-2.521-7.537-2.5zm1.2285 4.0762c1.7953 0.03594 2.9828 0.27305 3.5078 0.62305-0.2 1-1.6988 2.9008-4.7988 5.3008-7 0.8-17.4 3.6-27.4 7.5-10 4-19.599 9.3992-25.199 13.699-3.9 0.3-6.3012 0-7.2012-0.5 0.6-2.4 10.2-11.2 30-19.1 14.85-5.925 25.706-7.6312 31.092-7.5234zm5.208 7.123 10.1 25.102c-0.4 2.7-10.8 11.8-29.1 19.1-18.3 7.2-32.101 7.8-34.201 6l-10.099-25.099c9.4 0.7 24-3.8016 33.6-7.6016s23.301-10.6 29.701-17.5zm6.9004 34.9c6.3 18.9 15.7 53.801 16.6 56.701 2.6 8.6-3.9 15.7-13.9 19.7-10.4 4.2-23.1 4.3996-27-3.4004-1.3-2.7-18.699-34.6-27.199-52.5 8.7-0.9 19.3-3.9996 27-7.0996 7.8-3.1 17.6-8.1004 24.5-13.4z"/>
</g>
</svg>
