<?xml version="1.0" encoding="utf-8"?>
<!-- Generator: Adobe Illustrator 18.0.0, SVG Export Plug-In . SVG Version: 6.00 Build 0)  -->
<!DOCTYPE svg PUBLIC "-//W3C//DTD SVG 1.1//EN" "http://www.w3.org/Graphics/SVG/1.1/DTD/svg11.dtd">
<svg version="1.1" id="Layer_1" xmlns="http://www.w3.org/2000/svg" xmlns:xlink="http://www.w3.org/1999/xlink" x="0px" y="0px"
	 viewBox="1.9 159.7 397.4 89.1" enable-background="new 1.9 159.7 397.4 89.1" xml:space="preserve">
<g enable-background="new    ">
	<path fill="#FF6600" d="M274.8,159.7c3.8,0,7.7,0.3,11.7,1c3.2,0.5,5.6,1.3,7,2.3s2.1,2.3,2.1,4c0,1.1-0.3,1.9-0.8,2.5
		s-1.6,1.3-3.3,2.2c-2,1-3.1,2.2-3.4,3.6c-0.3,1.4-0.6,6.8-0.8,16.1c-0.1,9.1-0.2,14.5-0.3,16.3c-0.1,1.8-0.3,3.6-0.6,5.3
		c-1,5-3,8.9-6,11.8c-2.5,2.3-5.6,4.2-9.5,5.5s-7.9,2-12.2,2c-3.8,0-7.6-0.5-11.4-1.5c-3.8-1-7.1-2.4-9.9-4.1
		c-2.3-1.4-4.2-3.4-5.5-5.8c-1.4-2.4-2.1-5.1-2.1-7.8c0-3.4,1.1-6.3,3.2-8.5c2.2-2.2,4.9-3.4,8.1-3.4c3.2,0,5.9,0.9,8.1,2.8
		c2.2,1.9,3.3,4.3,3.3,7.1c0,0.7-0.2,1.9-0.6,3.6c-0.1,0.3-0.1,0.7-0.1,1.1c0,1.1,0.4,2,1.2,2.7s1.8,1,3.1,1c2.3,0,4.1-1,5.5-3.1
		s2.1-4.8,2.1-8.1l-0.1-4.7l-0.1-12.6c-0.3-7.6-0.5-12.1-0.7-13.5s-0.5-2.5-1.2-3.3c-0.5-0.7-1-1.1-1.4-1.3s-1.5-0.5-3.2-1
		c-0.8-0.2-1.5-0.6-2.1-1.4c-0.6-0.8-0.9-1.6-0.9-2.5c0-1.8,0.7-3.3,2.2-4.4c1.5-1.1,3.8-2,7.1-2.7
		C267.1,160.1,270.9,159.7,274.8,159.7z"/>
</g>
</svg>
