<?xml version="1.0" encoding="UTF-8" standalone="no"?>
<svg
   xmlns:dc="http://purl.org/dc/elements/1.1/"
   xmlns:cc="http://creativecommons.org/ns#"
   xmlns:rdf="http://www.w3.org/1999/02/22-rdf-syntax-ns#"
   xmlns:svg="http://www.w3.org/2000/svg"
   xmlns="http://www.w3.org/2000/svg"
   xmlns:sodipodi="http://sodipodi.sourceforge.net/DTD/sodipodi-0.dtd"
   xmlns:inkscape="http://www.inkscape.org/namespaces/inkscape"
   width="300"
   height="126"
   viewBox="0 0 785 328"
   version="1.0"
   id="svg2562"
   sodipodi:version="0.32"
   inkscape:version="0.46"
   sodipodi:docname="Ethiopian_Airlines_Logo.svg"
   inkscape:output_extension="org.inkscape.output.svg.inkscape">
  <metadata
     id="metadata2615">
    <rdf:RDF>
      <cc:Work
         rdf:about="">
        <dc:format>image/svg+xml</dc:format>
        <dc:type
           rdf:resource="http://purl.org/dc/dcmitype/StillImage" />
      </cc:Work>
    </rdf:RDF>
  </metadata>
  <defs
     id="defs2613">
    <inkscape:perspective
       sodipodi:type="inkscape:persp3d"
       inkscape:vp_x="0 : 205 : 1"
       inkscape:vp_y="0 : 1000 : 0"
       inkscape:vp_z="981.25 : 205 : 1"
       inkscape:persp3d-origin="490.625 : 136.66667 : 1"
       id="perspective2617" />
  </defs>
  <sodipodi:namedview
     inkscape:window-height="669"
     inkscape:window-width="640"
     inkscape:pageshadow="2"
     inkscape:pageopacity="0.0"
     guidetolerance="10.0"
     gridtolerance="10.0"
     objecttolerance="10.0"
     borderopacity="1.0"
     bordercolor="#666666"
     pagecolor="#ffffff"
     id="base"
     showgrid="false"
     inkscape:zoom="0.5543949"
     inkscape:cx="490.625"
     inkscape:cy="205"
     inkscape:window-x="23"
     inkscape:window-y="51"
     inkscape:current-layer="svg2562" />
  <g
     id="color_548f46ff">
    <path
       d="M 775.33,0 L 779.8,0 C 782.12,1.99 783.99,4.47 785,7.38 L 785,23.55 C 783.21,27.92 782.6,32.65 781.04,37.1 C 778.94,43.67 775.79,50.01 771.03,55.05 C 765.46,60.94 758.75,65.6 752.01,70.04 C 735.42,80.71 718.22,90.38 700.92,99.85 C 665.97,118.66 630.42,136.42 593.85,151.88 C 590.87,152.66 587.92,153.49 584.92,154.16 C 585.2,150.65 588.91,149.21 591.41,147.43 C 651.93,111.3 706.14,65.58 756.28,16.28 C 762.38,10.59 768,4.15 775.33,0 z"
       id="path2565"
       style="opacity:1;fill:#548f46" />
  </g>
  <g
     id="color_f1d212ff">
    <path
       d="M 756.48,74.53 C 758.68,73.48 761.79,74.52 762.29,77.08 C 763.08,80.89 761.54,84.68 760.12,88.14 C 754.45,100.53 745.54,111.71 733.82,118.83 C 727.57,122.43 720.68,124.71 713.93,127.16 C 680.86,138.42 646.85,146.64 612.8,154.33 C 613.14,154.55 613.84,154.99 614.19,155.22 C 613.6,155.36 612.44,155.64 611.85,155.78 C 611.38,153.88 607.04,154.6 609.18,156.39 C 605.26,157.03 601.04,157.18 597.68,159.54 C 597.15,158.83 596.64,158.12 596.14,157.4 C 592.27,157.59 588.43,157.97 584.58,158.31 C 584.67,156.92 584.78,155.54 584.92,154.16 C 587.92,153.49 590.87,152.66 593.85,151.88 C 596.29,151.43 598.72,150.83 601.07,149.99 C 613.61,145.6 625.83,140.35 637.95,134.89 C 672.24,119.25 705.9,102.2 738.82,83.83 C 744.68,80.69 750.26,76.93 756.48,74.53 z"
       id="path2568"
       style="opacity:1;fill:#f1d212" />
  </g>
  <g
     id="color_c12237ff">
    <path
       d="M 728.02,127.11 C 730.74,126.63 734.3,125.02 736.54,127.45 C 739.23,130.99 736.43,135.36 734.63,138.61 C 728.15,148.3 719.73,157.29 708.73,161.75 C 703.51,164.28 697.62,163.92 692.01,164.52 C 662.72,166.22 633.41,164.13 604.24,161.52 C 602,161.12 599.41,161.25 597.68,159.54 C 601.04,157.18 605.26,157.03 609.18,156.39 C 609.85,156.24 611.18,155.93 611.85,155.78 C 612.44,155.64 613.6,155.36 614.19,155.22 C 634.43,151.84 654.51,147.51 674.39,142.39 C 692.44,137.94 710.08,131.99 728.02,127.11 z"
       id="path2571"
       style="opacity:1;fill:#c12237" />
    <path
       d="M 285.66,275.68 C 293.67,272.15 302.94,271.56 311.39,273.74 C 315.83,274.85 320.65,277.4 321.81,282.22 C 323.37,287.56 323.2,294.77 318.04,298.11 C 311.58,301.99 303.76,300.5 296.64,301.31 C 298.91,306.76 305.27,309.02 307.59,314.39 C 308.69,318.95 309.05,323.72 311.15,328 L 296,328 C 299.26,324.96 300.74,319.14 297.28,315.73 C 291.36,309.96 283.99,305.64 278.98,298.98 C 276.4,293.91 276.79,287.76 278.55,282.48 C 279.65,279.2 282.66,277.11 285.66,275.68 M 294.28,277.26 C 290.26,279.16 286.27,283.14 286.83,287.96 C 286.97,290.69 286.13,294.48 289.21,295.9 C 295.34,296.68 301.6,296.27 307.73,295.76 C 312.41,295.3 313.05,289.7 313.13,285.97 C 313.66,281.94 310.07,278.73 306.7,277.31 C 302.61,276.69 298.37,276.73 294.28,277.26 z"
       id="path2595"
       style="opacity:1;fill:#c12237" />
    <path
       d="M 332.86,276.89 C 336.11,274.97 339.75,273.43 343.59,273.45 C 346.23,274.03 345.73,277.58 346.56,279.6 C 350.12,280.11 353.69,280.62 357.24,281.26 C 357.04,287.1 351.79,290.81 349.62,295.9 C 354.28,296.51 359.02,296.51 363.65,297.37 C 366.69,298.04 370.3,299.53 370.98,302.96 C 372.38,308.59 371.66,314.46 372.07,320.2 C 374.93,319.15 377.66,317.63 380.7,317.14 C 382.25,317.8 382.39,319.62 382.91,321.01 C 383.5,323.59 385.02,325.78 386.39,328 L 373.89,328 C 373.88,326.13 371.19,326.15 371.17,328 L 364.34,328 C 362.7,321.79 363.33,315.35 363.02,309.01 C 362.91,306.24 361.89,302.72 358.73,302.16 C 354.02,301.27 348.15,299.45 344.19,303.15 C 339.61,307.03 341.25,313.77 340.87,319.06 C 340.38,322.55 342.51,325.38 344.49,328 L 328.72,328 C 330.02,325.79 331.87,323.66 332,320.99 C 332.59,314.55 331.07,307.47 334.64,301.65 C 338.18,295.97 342.69,290.96 346.21,285.25 C 343.59,284.88 340.68,285.11 338.44,283.48 C 336.04,281.8 334.51,279.24 332.86,276.89 z"
       id="path2597"
       style="opacity:1;fill:#c12237" />
    <path
       d="M 449.71,278.72 C 454.65,273.6 462.21,272.61 468.99,272.66 C 474.68,272.94 480.89,272.89 485.81,276.21 C 489.68,278.98 490.48,283.97 492.06,288.14 C 495.23,288.33 498.42,288.42 501.61,288.44 C 501.22,293 503.27,296.89 505.78,300.51 C 501.93,301.07 498.03,300.89 494.16,300.69 C 493.62,298.05 493.12,295.4 492.53,292.78 C 489.06,294.85 486.81,298.76 482.69,299.73 C 476.74,301.82 470.3,300.05 464.33,301.88 C 467.51,306.29 472.78,308.74 475.6,313.42 C 477.27,318.22 476.54,323.66 479.66,328 L 464.66,328 C 466.21,324.95 469.58,321.27 467.16,317.81 C 461.7,310.28 452.13,306.78 447.19,298.79 C 444.24,292.42 444.7,283.94 449.71,278.72 M 463.36,277.48 C 456.6,278.21 454.2,286.12 455.04,291.91 C 455.48,293.56 455.81,296.15 458.04,296.12 C 463.33,296.65 468.69,296.45 474,296.21 C 478.16,296.38 481.53,292.04 481.15,288.04 C 481.23,284.81 481.23,280.77 478.21,278.77 C 473.71,276.3 468.25,276.68 463.36,277.48 z"
       id="path2599"
       style="opacity:1;fill:#c12237" />
    <path
       d="M 576.3,281.26 C 579.32,275.63 586.06,273.68 591.98,273.03 C 599.12,272.47 606.88,272.04 613.37,275.6 C 621,279.61 621.86,291.27 616.17,297.22 C 609.71,302.62 600.79,299.79 593.3,301.87 C 597.08,307.1 603.06,310.2 606.86,315.38 C 608.26,316.76 607.33,319.19 605.37,319.26 C 597.03,321.07 588.25,320.27 580.07,322.95 C 581.21,324.64 582.35,326.33 583.52,328 L 567.83,328 C 568.95,326.02 570.15,324.07 570.94,321.92 C 571.49,320.91 571.58,319.19 572.98,318.95 C 579.69,317.29 586.76,317.74 593.46,315.92 C 588.49,309.76 580.99,306.13 576.46,299.57 C 573.25,294.06 573.51,286.88 576.3,281.26 M 591.28,277.26 C 587.26,279.16 583.26,283.14 583.83,287.96 C 583.97,290.69 583.12,294.48 586.21,295.9 C 592.33,296.68 598.6,296.26 604.74,295.76 C 609.41,295.3 610.05,289.71 610.13,285.98 C 610.66,281.95 607.07,278.73 603.7,277.31 C 599.61,276.69 595.37,276.73 591.28,277.26 z"
       id="path2601"
       style="opacity:1;fill:#c12237" />
    <path
       d="M 395.12,276.35 C 399.1,274.88 403.27,273.75 407.56,274.14 C 408.26,275.87 408.94,277.62 409.62,279.36 C 411.53,280.16 413.44,280.96 415.34,281.8 C 416.78,286.73 417.02,291.88 417.07,296.98 C 424.04,297.09 430.96,297.83 437.92,298.18 C 438.44,302.19 439.68,306.04 441.7,309.55 C 438.62,309.88 435.41,310.43 432.36,309.6 C 429.21,308.53 429.28,304.66 428.59,301.99 C 424.75,301.51 420.88,301.51 417.03,301.68 C 417.02,308.14 416.8,314.6 416.98,321.05 C 416.97,323.54 418.22,325.76 419.16,328 L 404,328 C 405.38,326.26 407.09,324.44 407,322.06 C 407.18,315.2 407.07,308.33 406.86,301.47 C 402.95,301.12 399.04,300.88 395.12,301.13 C 394.24,303.71 393.6,306.36 392.91,309 C 389.36,310.01 385.55,310.39 382.01,309.12 C 384.36,305.64 385.45,301.61 385.5,297.43 C 392.57,297.28 399.69,297.7 406.72,296.72 C 407.24,292.96 407.23,289.17 406.98,285.4 C 401.34,285.35 397.84,280.66 395.12,276.35 z"
       id="path2603"
       style="opacity:1;fill:#c12237" />
    <path
       d="M 525.71,275.66 C 529.17,274.35 532.82,273.55 536.54,273.81 C 536.83,275.73 537.13,277.67 537.49,279.59 C 542.67,280.89 548.13,282.09 552.24,285.75 C 555.47,289.12 560.45,287.89 564.46,289.43 C 566.04,293.06 566.49,297.13 568.68,300.53 C 564.85,301.04 560.97,300.9 557.13,300.68 C 556.61,298.03 556.15,295.36 555.63,292.71 C 553.17,297.08 549.99,300.92 545.79,303.72 C 548.09,305.52 550.99,306.92 552.31,309.67 C 554.3,314.11 553.45,319.1 554.25,323.77 C 555.05,325.32 556.2,326.64 557.29,328 L 541.74,328 C 544.45,323.77 546.38,318.55 544.36,313.61 C 542.94,308.73 536.96,307.09 532.53,308.47 C 527.61,309.88 522.47,311.28 518.3,314.35 C 514.96,318.54 517.83,324.14 520.35,328 L 504.73,328 C 505.79,326.64 506.95,325.32 507.74,323.77 C 508.63,318.82 507.54,313.08 510.94,308.89 C 513.24,306.71 516.23,305.48 518.85,303.74 C 514.91,300.79 509.95,296.84 511.2,291.24 C 512.43,284.9 518.76,282 524.28,280.25 C 524.76,278.72 525.22,277.18 525.71,275.66 M 526.37,285.42 C 521.66,286.47 519.21,292.15 521.77,296.25 C 524.35,300.24 529.81,299.68 533.86,298.95 C 537.63,297.89 541.85,296.55 544.21,293.2 C 546.06,290.76 543.71,287.74 541.72,286.24 C 537.12,283.54 531.33,284.14 526.37,285.42 z"
       id="path2605"
       style="opacity:1;fill:#c12237" />
  </g>
  <g
     id="color_85472849">
    <path
       d="M 609.18,156.39 C 607.04,154.6 611.38,153.88 611.85,155.78 C 611.18,155.93 609.85,156.24 609.18,156.39 z"
       id="path2608"
       style="opacity:0.28999999;fill:#854728" />
    <path
       d="M 371.17,328 C 371.19,326.15 373.88,326.13 373.89,328 L 371.17,328 z"
       id="path2610"
       style="opacity:0.28999999;fill:#854728" />
  </g>
</svg>