<svg width="72" height="26" viewBox="0 0 72 26" fill="none" xmlns="http://www.w3.org/2000/svg">
<path d="M40.0592 2.36287L39.9923 2.29535L39.1214 1.41772L38.1836 2.36287L39.1214 3.30801L40.0592 2.36287Z" fill="#BD8B13"/>
<path d="M42.0013 2.36287L41.8673 2.29535L40.9964 1.41772L40.0586 2.36287L40.9964 3.30801L42.0013 2.36287Z" fill="#BD8B13"/>
<path d="M29.0059 2.16034C29.0059 2.36287 29.2068 2.43038 29.3408 2.49789C29.5418 2.5654 29.7427 2.70042 29.7427 2.97046V10.3291H37.8483V10.4641C37.8483 10.5316 37.8483 10.5316 37.8483 10.6667C37.8483 11.2743 38.0492 11.6793 38.3841 11.8143C38.3841 11.8143 38.5851 11.9494 38.8531 11.9494C39.054 11.9494 39.255 11.8819 39.4559 11.7468L39.5899 11.6793L39.4559 11.5443C39.255 11.3418 39.121 10.8017 39.121 10.4641V10.3966H42.1354V3.64557C42.1354 3.64557 41.7335 4.52321 40.2598 5.60338C40.2598 5.60338 40.3268 5.87341 40.5947 6.00844C40.9967 6.21097 40.9297 6.4135 40.9297 6.4135V9.11392H39.054V8.97891V8.84389C39.054 8.16878 38.8531 6.54852 37.0444 6.54852H36.9774C36.4415 6.54852 35.9056 6.54852 35.5037 6.54852H35.3697C34.2979 6.54852 33.762 6.41351 33.561 6.14347L33.494 6.00844L33.427 6.07595C33.2261 6.21097 33.0921 6.48101 33.0921 6.75106C33.0921 7.15612 33.36 7.6962 33.762 7.6962C34.0299 7.6962 34.4319 7.6962 34.8338 7.6962C35.5037 7.6962 36.2405 7.6962 36.2405 7.6962C37.7143 7.6962 37.7812 8.37131 37.7812 8.64135V8.97891H30.9485V0C30.9485 0 30.1447 1.08017 29.0059 1.8903V1.9578V2.16034Z" fill="#BD8B13"/>
<path d="M24.3167 11.4093C24.3167 11.4093 24.1828 12.4895 26.3934 12.4895C28.202 12.4895 28.269 11.3418 28.269 11.3418V7.15619C28.269 6.88614 28.202 6.14353 27.4652 6.14353H21.1683V5.67095C21.1683 5.53593 21.2353 5.53593 21.3693 5.46842C21.7042 5.26589 21.7712 5.06336 21.7042 4.92834C20.9673 4.52327 20.2305 3.57812 20.2305 3.57812V7.22369H26.5273H26.5943C26.7953 7.22369 27.0632 7.2912 27.0632 7.69626V10.6667C27.0632 10.6667 27.0632 11.2743 26.4603 11.2743C25.4555 11.2743 25.5225 10.7342 25.5225 10.7342V9.11399H20.2305V10.3967H24.3837V11.4093H24.3167Z" fill="#BD8B13"/>
<path d="M50.6438 2.97045C50.6438 2.6329 50.8448 2.56539 50.9788 2.49788C51.1128 2.43037 51.2467 2.36286 51.3137 2.09282V2.02531C51.3137 1.89029 51.2467 1.89028 51.1128 1.82277C50.9788 1.75526 50.7778 1.62024 50.3759 1.28269C49.706 0.742603 49.572 0.472563 49.572 0.472563L49.3711 0.13501V10.3966H50.6438C50.6438 10.3291 50.6438 3.17298 50.6438 2.97045Z" fill="#BD8B13"/>
<path d="M46.3555 11.6793L45.4846 12.557L44.6138 11.6793L45.4846 10.8017L46.3555 11.6793ZM43.475 11.6793L45.5516 13.7721L47.6282 11.6793L46.3555 10.3966L47.8962 8.77636V0.13501C47.8962 0.13501 47.2933 1.41772 46.2885 2.09282V2.16033C46.2885 2.36286 46.4224 2.43037 46.5564 2.49788C46.6904 2.56539 46.8243 2.70041 46.8243 2.97045C46.8243 3.24049 46.8243 8.16877 46.8243 8.16877L45.5516 9.51898L44.2788 8.16877C44.2788 8.10126 44.2788 3.17298 44.2788 2.97045C44.2788 2.6329 44.4128 2.56539 44.5468 2.49788C44.6808 2.43037 44.7477 2.36286 44.8147 2.16033V2.09282C43.8769 1.41772 43.207 0.13501 43.207 0.13501V8.91138L44.7477 10.4641L43.475 11.6793Z" fill="#BD8B13"/>
</svg>
