<svg width="72" height="26" viewBox="0 0 72 26" fill="none" xmlns="http://www.w3.org/2000/svg">
<path d="M40.0592 2.36287L39.9923 2.29535L39.1214 1.41772L38.1836 2.36287L39.1214 3.30801L40.0592 2.36287Z" fill="#BD8B13"/>
<path d="M42.0013 2.36287L41.8673 2.29535L40.9964 1.41772L40.0586 2.36287L40.9964 3.30801L42.0013 2.36287Z" fill="#BD8B13"/>
<path d="M29.0059 2.16034C29.0059 2.36287 29.2068 2.43038 29.3408 2.49789C29.5418 2.5654 29.7427 2.70042 29.7427 2.97046V10.3291H37.8483V10.4641C37.8483 10.5316 37.8483 10.5316 37.8483 10.6667C37.8483 11.2743 38.0492 11.6793 38.3841 11.8143C38.3841 11.8143 38.5851 11.9494 38.8531 11.9494C39.054 11.9494 39.255 11.8819 39.4559 11.7468L39.5899 11.6793L39.4559 11.5443C39.255 11.3418 39.121 10.8017 39.121 10.4641V10.3966H42.1354V3.64557C42.1354 3.64557 41.7335 4.52321 40.2598 5.60338C40.2598 5.60338 40.3268 5.87341 40.5947 6.00844C40.9967 6.21097 40.9297 6.4135 40.9297 6.4135V9.11392H39.054V8.97891V8.84389C39.054 8.16878 38.8531 6.54852 37.0444 6.54852H36.9774C36.4415 6.54852 35.9056 6.54852 35.5037 6.54852H35.3697C34.2979 6.54852 33.762 6.41351 33.561 6.14347L33.494 6.00844L33.427 6.07595C33.2261 6.21097 33.0921 6.48101 33.0921 6.75106C33.0921 7.15612 33.36 7.6962 33.762 7.6962C34.0299 7.6962 34.4319 7.6962 34.8338 7.6962C35.5037 7.6962 36.2405 7.6962 36.2405 7.6962C37.7143 7.6962 37.7812 8.37131 37.7812 8.64135V8.97891H30.9485V0C30.9485 0 30.1447 1.08017 29.0059 1.8903V1.9578V2.16034Z" fill="#BD8B13"/>
<path d="M24.3167 11.4093C24.3167 11.4093 24.1828 12.4895 26.3934 12.4895C28.202 12.4895 28.269 11.3418 28.269 11.3418V7.15619C28.269 6.88614 28.202 6.14353 27.4652 6.14353H21.1683V5.67095C21.1683 5.53593 21.2353 5.53593 21.3693 5.46842C21.7042 5.26589 21.7712 5.06336 21.7042 4.92834C20.9673 4.52327 20.2305 3.57812 20.2305 3.57812V7.22369H26.5273H26.5943C26.7953 7.22369 27.0632 7.2912 27.0632 7.69626V10.6667C27.0632 10.6667 27.0632 11.2743 26.4603 11.2743C25.4555 11.2743 25.5225 10.7342 25.5225 10.7342V9.11399H20.2305V10.3967H24.3837V11.4093H24.3167Z" fill="#BD8B13"/>
<path d="M50.6438 2.97045C50.6438 2.6329 50.8448 2.56539 50.9788 2.49788C51.1128 2.43037 51.2467 2.36286 51.3137 2.09282V2.02531C51.3137 1.89029 51.2467 1.89028 51.1128 1.82277C50.9788 1.75526 50.7778 1.62024 50.3759 1.28269C49.706 0.742603 49.572 0.472563 49.572 0.472563L49.3711 0.13501V10.3966H50.6438C50.6438 10.3291 50.6438 3.17298 50.6438 2.97045Z" fill="#BD8B13"/>
<path d="M46.3555 11.6793L45.4846 12.557L44.6138 11.6793L45.4846 10.8017L46.3555 11.6793ZM43.475 11.6793L45.5516 13.7721L47.6282 11.6793L46.3555 10.3966L47.8962 8.77636V0.13501C47.8962 0.13501 47.2933 1.41772 46.2885 2.09282V2.16033C46.2885 2.36286 46.4224 2.43037 46.5564 2.49788C46.6904 2.56539 46.8243 2.70041 46.8243 2.97045C46.8243 3.24049 46.8243 8.16877 46.8243 8.16877L45.5516 9.51898L44.2788 8.16877C44.2788 8.10126 44.2788 3.17298 44.2788 2.97045C44.2788 2.6329 44.4128 2.56539 44.5468 2.49788C44.6808 2.43037 44.7477 2.36286 44.8147 2.16033V2.09282C43.8769 1.41772 43.207 0.13501 43.207 0.13501V8.91138L44.7477 10.4641L43.475 11.6793Z" fill="#BD8B13"/>
<path d="M39.7904 16.2024L40.1253 16.4049C40.1923 16.4725 40.1923 16.4725 40.1923 16.54V19.2404H34.3644L33.0246 20.9282V16.54V16.4724L33.0916 16.4049L33.3596 16.2024V15.9324H30.4121V16.2024L30.6801 16.4049L30.747 16.4724V24.5062V24.6412L30.6801 24.7087L30.4121 24.9113V25.1813H33.3596V24.9113L33.0246 24.7087L32.9577 24.6412V20.9957L33.2926 21.0632L33.6945 20.8606L33.8955 20.7931C33.8955 20.7931 33.9625 20.7931 34.0294 20.7931H40.1253V23.6286L42.3359 21.2657V16.6075L42.4029 16.54L42.7379 16.4049V16.1349H39.7904V16.2024Z" fill="#BD8B13"/>
<path d="M71.2748 19.5105C70.9398 18.4304 70.136 17.5527 68.9302 16.8776C67.8584 16.27 66.3177 16 64.241 16H56.2695V16.27L56.6045 16.4726V17.4177H64.1741C65.7148 17.4177 66.8536 17.6203 67.5235 18.0253C68.5953 18.6329 69.1312 19.5105 69.1312 20.5232C69.1312 21.0633 68.9972 21.5359 68.7292 22.0084C68.4613 22.4135 67.9924 22.8186 67.4565 23.0886C66.7196 23.4937 65.5808 23.6962 64.1071 23.6962H60.1548V18.0928H58.0112V24.5063V24.5738L57.9442 24.6414L57.6763 24.7764V25.0464H64.1741C65.4468 25.0464 66.3847 24.9789 67.1216 24.8439C68.0594 24.6414 68.9302 24.3038 69.6001 23.8312C70.3369 23.3587 70.8729 22.7511 71.1408 22.1435C71.3418 21.6709 71.4758 21.1983 71.4758 20.6582C71.4088 20.2532 71.3418 19.8481 71.2748 19.5105Z" fill="#BD8B13"/>
<path d="M46.8253 17.6204L39.7246 25.0465H43.007V24.709H42.873H42.7391H42.6051L48.0311 18.9706L46.8253 17.6204Z" fill="#BD8B13"/>
<path d="M53.9915 24.7764V25.1139H57.2069L48.6325 16L47.3597 17.3502L48.7664 18.8354L50.2402 20.3207H47.7616L46.4219 21.7384L46.6898 21.9409L47.0248 21.7384H47.0918C47.0918 21.7384 47.2257 21.7384 47.2927 21.7384H51.446L54.3264 24.8439C54.3264 24.8439 54.2595 24.9114 54.0585 24.9114H53.9915V24.7764Z" fill="#BD8B13"/>
<path d="M29.1399 16.4049L29.4078 16.2024V15.9324H26.5273V16.2024L26.7953 16.4049L26.9293 16.54V24.4387V24.5737L26.8623 24.6412L26.5273 24.7762V25.0463H29.4078V24.7762L29.1399 24.6412L29.0729 24.5737V16.54V16.4724L29.1399 16.4049Z" fill="#BD8B13"/>
<path d="M14.8043 23.2912H14.6703H14.3354L13.9334 23.4937C13.8665 23.5612 13.7995 23.5612 13.7325 23.5612H7.23467C5.76094 23.5612 4.62215 23.3587 3.88528 22.9536C2.74649 22.346 2.21059 21.5359 2.21059 20.3882C2.21059 19.9156 2.34457 19.3755 2.67951 18.9705C3.21541 18.1604 4.01926 17.5528 5.22504 17.3502C5.55998 17.2827 5.82793 17.2827 6.0289 17.2827H9.37829C9.57925 17.2827 9.57924 17.3502 9.57924 17.3502L9.51225 17.6203H9.7802L11.1869 15.865H7.16768C6.22985 15.865 5.493 15.865 5.02408 15.9325C4.75613 15.9325 4.48818 16 4.28721 16.0675C3.61733 16.2025 3.01443 16.4726 2.41154 16.8101C1.40673 17.3502 0.736865 18.0928 0.334939 18.903C0.133975 19.3755 0 19.9156 0 20.5232C0 22.0084 0.803853 23.1561 2.34457 24.0338C3.01445 24.4388 3.8183 24.7089 4.68914 24.8439C5.35902 24.9789 6.22986 24.9789 7.30166 24.9789H13.3306L14.8043 23.2912Z" fill="#BD8B13"/>
<path d="M11.5213 21.1308L12.928 19.3755H3.48275L2.54492 20.7932H11.0524C11.1863 20.7932 11.2533 20.8607 11.2533 20.8607L11.1863 21.1308H11.5213Z" fill="#BD8B13"/>
<path d="M12.2597 15.9324L10.9199 17.6201L11.1879 17.6876H11.2549L11.6568 17.4851C11.7908 17.4176 11.8578 17.3501 11.9917 17.3501H17.2168V24.4387V24.5062L17.1498 24.5737L16.8818 24.7762V25.0463H19.8293V24.7762L19.5613 24.5737L19.4943 24.5062V24.4387V17.3501H24.1165C24.3175 17.3501 24.3175 17.4176 24.3175 17.4176V17.6876H24.5854L25.9922 15.9324H12.2597Z" fill="#BD8B13"/>
</svg>
