<?xml version="1.0" encoding="UTF-8" standalone="no"?>
<!-- Created with Inkscape (http://www.inkscape.org/) -->

<svg
   xmlns:dc="http://purl.org/dc/elements/1.1/"
   xmlns:cc="http://creativecommons.org/ns#"
   xmlns:rdf="http://www.w3.org/1999/02/22-rdf-syntax-ns#"
   xmlns:svg="http://www.w3.org/2000/svg"
   xmlns="http://www.w3.org/2000/svg"
   version="1.0"
   width="417.00049"
   height="107.58"
   viewBox="0 0 333.60039 86.064001"
   id="svg2">
  <title
     id="title3917">Five Guys logo</title>
  <defs
     id="defs56" />
  <metadata
     id="metadata4">
    <rdf:RDF>
      <cc:Work
         rdf:about="">
        <dc:format>image/svg+xml</dc:format>
        <dc:type
           rdf:resource="http://purl.org/dc/dcmitype/StillImage" />
        <dc:title>Five Guys logo</dc:title>
      </cc:Work>
    </rdf:RDF>
  </metadata>
  <g
     transform="matrix(0.0960355,0,0,0.0960355,1.5004145,-2.1827585)"
     id="g3891"
     style="fill:#c92027;fill-opacity:1">
    <path
       d="m 3137.6,98.2 c -67.5,4.7 -116,30.8 -137.6,74 -16.4,32.6 -15.4,81.6 2.1,110.5 7.6,12.6 22,27 36.4,36.6 8,5.4 27.6,14.9 40,19.5 5.5,2 28.2,8.3 50.5,13.9 58.7,14.9 70.8,19.5 75.6,28.7 2.5,4.7 1.4,12.1 -2.2,15.9 -6.6,6.9 -20.9,10.9 -38.8,10.9 -27.9,0 -46.3,-12.1 -50.6,-33.3 l -1.1,-5.7 -66.1,0 -66.1,0 0.7,10.1 c 3.1,47.6 32.2,87.6 80.9,110.9 30.1,14.5 56.4,20 94.9,20 65.6,0 116.6,-16.5 147.9,-47.9 17.3,-17.3 27.1,-35.1 32.4,-58.8 2.2,-9.5 3.1,-37.9 1.6,-48.4 -3.2,-21.7 -14,-42.3 -30.6,-57.8 -23,-21.5 -52.2,-33.9 -116.9,-49.6 -46.8,-11.4 -65.7,-19.8 -68.6,-30.5 -2.1,-7.8 2.1,-12.9 12.7,-15.4 19.5,-4.8 42.5,-1.5 52.8,7.6 5.4,4.8 7.5,8.4 9,15.8 l 1.2,5.5 65.6,0.3 65.7,0.2 0,-2.9 c 0,-9.8 -5.9,-32.6 -12.3,-47.1 -8.8,-20.3 -27.1,-42.1 -45.7,-54.4 -21.3,-14.3 -50.4,-24.3 -79.5,-27.5 -13.8,-1.5 -39.6,-2 -53.9,-1.1 z"
       id="path10"
       style="fill:#c92027;fill-opacity:1;stroke:none" />
    <path
       d="m 101,303.7 0,196.5 69,0 69,0 0,-66.5 0,-66.5 68,0 68,0 0,-51 0,-51 -68,0 -68,0 0,-28 0,-28 85.5,0 85.5,0 0,-51 0,-51 -154.5,0 -154.5,0 0,196.5 z"
       id="path12"
       style="fill:#c92027;fill-opacity:1;stroke:none" />
</g>
</svg>
