<?xml version="1.0" encoding="utf-8"?>
<!-- Generator: Adobe Illustrator 23.0.3, SVG Export Plug-In . SVG Version: 6.00 Build 0)  -->
<svg version="1.1" id="Camada_1" xmlns="http://www.w3.org/2000/svg" xmlns:xlink="http://www.w3.org/1999/xlink" x="0px" y="0px"
	 viewBox="0 0 1130.2 647.8" style="enable-background:new 0 0 1130.2 647.8;" xml:space="preserve">
<style type="text/css">
	.st0{opacity:0.25;fill:#37322D;enable-background:new    ;}
	.st1{fill:#FF7020;}
</style>
<title>Logo Preferencial Fundo Claro</title>
<g id="Logo">
	<path class="st0" d="M664,113.6c-14.1,0-28.1,1.3-41.9,3.9c105.2,19.7,184.9,104,184.9,214.9c0,79-64,151-143,151
		c-79,0-143-64-143.1-142.9c0-62.9,41-118.4,101.2-136.8c-13.6-4.1-27.7-6.2-41.9-6.2c-79,0-143,72-143,151
		c0,110.9,79.7,195.3,184.9,214.9c13.8,2.6,27.9,3.9,42,3.9c97.1,0,180-61,212.3-146.9V260.5C843.9,174.7,761.1,113.6,664,113.6z"/>
</g>
</svg>
