<?xml version="1.0" encoding="utf-8"?>
<!-- Generator: Adobe Illustrator 15.0.2, SVG Export Plug-In . SVG Version: 6.00 Build 0)  -->
<!DOCTYPE svg PUBLIC "-//W3C//DTD SVG 1.1//EN" "http://www.w3.org/Graphics/SVG/1.1/DTD/svg11.dtd">
<svg version="1.1" id="Layer_1" xmlns="http://www.w3.org/2000/svg" xmlns:xlink="http://www.w3.org/1999/xlink" x="0px" y="0px"
	 width="202.5px" height="50.458px" viewBox="0 0 202.5 50.458" enable-background="new 0 0 202.5 50.458" xml:space="preserve">
<g id="_x23_e60012ff">
	<path fill="#E60012" d="M18.365,1.806c2.429-0.619,4.917-0.992,7.417-1.158c-4.552,0.4-9.111,1.654-12.957,4.18
		C10.417,6.42,8.271,8.583,7.2,11.304c-0.87,2.176-0.909,4.67-0.08,6.864c0.98,2.649,2.994,4.792,5.281,6.39
		c1.922,1.35,4.08,2.324,6.297,3.08c2.268,0.756,4.58,1.478,6.627,2.742c1.311,0.805,2.513,1.864,3.225,3.248
		c0.525-1.027,1.332-1.889,2.246-2.58c2.155-1.621,4.753-2.469,7.284-3.301c2.729-0.904,5.387-2.137,7.634-3.953
		c2.051-1.645,3.784-3.809,4.507-6.367c0.633-2.168,0.417-4.547-0.517-6.594c-1.189-2.633-3.36-4.701-5.772-6.229
		C40.142,2.224,35.71,1.021,31.277,0.65c4.301,0.268,8.58,1.179,12.552,2.869c2.541,1.09,4.96,2.512,7.028,4.357
		c1.709,1.533,3.181,3.378,4.073,5.508c0.692,1.623,1.011,3.405,0.896,5.168c-0.115,2.18-0.861,4.312-2.076,6.121
		c-1.633,2.451-3.994,4.329-6.526,5.786c-1.542,0.886-3.163,1.625-4.825,2.255c-2.424,0.932-4.823,1.995-6.953,3.5
		c-2.084,1.452-3.9,3.319-5.154,5.537c-0.824,1.438-1.394,3.012-1.744,4.631c-0.641-2.918-2.076-5.662-4.161-7.809
		c-2.547-2.674-5.896-4.398-9.305-5.708c-2.463-0.927-4.868-2.052-7.036-3.558c-2.346-1.621-4.439-3.724-5.657-6.332
		c-1.237-2.635-1.505-5.74-0.617-8.521c0.907-2.887,2.884-5.322,5.206-7.211C10.286,4.577,14.269,2.855,18.365,1.806z"/>
	<path fill="#E60012" d="M22.39,1.804c0.79-0.154,1.582-0.311,2.388-0.356c-2.992,0.368-5.936,1.319-8.52,2.885
		c-1.995,1.235-3.812,2.919-4.768,5.099c-0.823,1.834-0.846,3.998-0.082,5.854c0.808,2.005,2.398,3.593,4.175,4.774
		c2.599,1.715,5.611,2.705,8.649,3.293c1.521,0.285,3.14,0.611,4.313,1.699c1.21-1.123,2.889-1.432,4.454-1.727
		c2.458-0.48,4.878-1.24,7.094-2.422c2.027-1.088,3.924-2.575,5.09-4.592c1.053-1.793,1.359-4.024,0.737-6.018
		c-0.619-2.049-2.066-3.744-3.737-5.033c-2.498-1.908-5.515-3.035-8.583-3.627c-0.432-0.093-0.873-0.137-1.312-0.18
		c0.999,0.042,1.979,0.258,2.954,0.465c3.232,0.732,6.396,2.02,9.004,4.098c1.759,1.412,3.26,3.25,3.92,5.435
		c0.664,2.149,0.388,4.558-0.724,6.511c-1.187,2.115-3.125,3.691-5.192,4.898c-1.726,1.005-3.577,1.775-5.469,2.4
		c-1.899,0.639-3.876,1.043-5.726,1.83c-0.997,0.424-1.953,1.057-2.51,2.012c-0.564-0.965-1.532-1.6-2.54-2.024
		c-2.072-0.872-4.295-1.285-6.401-2.058c-2.888-1.03-5.731-2.403-7.976-4.533c-1.527-1.449-2.697-3.35-2.981-5.461
		c-0.287-1.945,0.177-3.963,1.19-5.637c1.004-1.688,2.465-3.065,4.079-4.166C16.463,3.503,19.394,2.42,22.39,1.804z"/>
	<path fill="#E60012" d="M17.524,4.587c1.827-1.145,3.875-1.931,5.986-2.352c-1.928,0.475-3.792,1.268-5.405,2.438
		c-1.378,1.014-2.577,2.369-3.109,4.021c-0.499,1.502-0.329,3.191,0.407,4.587c1.013,1.952,2.841,3.345,4.781,4.295
		c3.248,1.563,6.95,2.042,10.519,1.698c2.995-0.311,6.001-1.227,8.431-3.053c1.533-1.158,2.833-2.785,3.168-4.72
		c0.312-1.668-0.203-3.413-1.206-4.757c-1.373-1.867-3.434-3.104-5.571-3.914c-0.637-0.242-1.289-0.438-1.949-0.602
		c1.739,0.34,3.428,0.949,4.997,1.771c1.908,1.021,3.685,2.449,4.727,4.381c0.812,1.486,1.05,3.289,0.572,4.92
		c-0.521,1.826-1.805,3.336-3.285,4.475c-1.954,1.492-4.269,2.466-6.655,3.01c-1.323,0.309-2.688,0.393-4.01,0.716
		c-0.521,0.118-1.004,0.382-1.37,0.772c-0.829-0.897-2.136-0.907-3.254-1.116c-2.824-0.356-5.611-1.242-7.995-2.821
		c-1.595-1.062-3.037-2.47-3.794-4.258c-0.688-1.594-0.689-3.46-0.007-5.057C14.289,7.14,15.825,5.668,17.524,4.587z"/>
	<path fill="#E60012" d="M27.992,3.656c1.295-0.143,2.639,0.227,3.671,1.021c1.188,0.895,1.958,2.316,2.057,3.801
		c0.104,1.313-0.31,2.662-1.14,3.688c-0.89,1.12-2.259,1.847-3.689,1.933c-1.352,0.098-2.729-0.373-3.744-1.27
		c-1.101-0.955-1.767-2.385-1.789-3.842c-0.04-1.383,0.496-2.77,1.458-3.764C25.646,4.349,26.792,3.781,27.992,3.656z"/>
	<path fill="#E60012" d="M10.929,35.497c2.612-0.493,5.344,0.008,7.724,1.147c2.807,1.342,5.199,3.479,6.985,6.015
		c1.15,1.634,2.045,3.454,2.591,5.378c-1.028-1.523-2.27-2.898-3.623-4.141c-1.812-1.646-3.884-3.07-6.226-3.838
		c-1.662-0.515-3.486-0.69-5.171-0.184c-0.893,0.271-1.746,0.779-2.275,1.564c-0.464,0.67-0.662,1.551-0.41,2.338
		c0.273,0.869,1.111,1.535,2.026,1.566c1.062,0.062,2.078-0.75,2.271-1.791c0.178-0.885-0.235-1.834-0.974-2.342
		c0.884,0.361,1.674,0.979,2.145,1.821C16.73,44.298,16.723,45.95,16,47.22c-0.568,1.029-1.577,1.75-2.659,2.166
		c-1.477,0.572-3.141,0.521-4.64,0.059c-1.527-0.473-2.875-1.502-3.722-2.859c-0.992-1.574-1.306-3.561-0.839-5.361
		c0.382-1.521,1.288-2.892,2.503-3.875C7.865,36.347,9.393,35.794,10.929,35.497z"/>
	<path fill="#E60012" d="M41.373,35.609c2.086-0.475,4.305-0.395,6.331,0.304c1.363,0.438,2.635,1.204,3.584,2.286
		c0.93,1.043,1.562,2.354,1.76,3.74c0.273,1.863-0.254,3.832-1.443,5.297c-1.867,2.351-5.354,3.22-8.115,2.066
		c-1.16-0.488-2.201-1.365-2.671-2.555c-0.548-1.322-0.379-2.926,0.477-4.081c0.468-0.666,1.158-1.142,1.901-1.452
		c-0.822,0.562-1.233,1.686-0.889,2.635c0.309,0.906,1.243,1.559,2.204,1.496c0.959-0.039,1.826-0.775,2.051-1.703
		c0.228-0.897-0.104-1.863-0.713-2.539c-0.796-0.899-1.996-1.324-3.16-1.471c-1.738-0.201-3.516,0.143-5.111,0.838
		c-1.708,0.729-3.256,1.793-4.659,3.002c-1.544,1.346-2.947,2.862-4.1,4.56c0.966-3.394,2.996-6.444,5.635-8.771
		C36.431,37.529,38.794,36.187,41.373,35.609z"/>

</g>
</svg>
