<?xml version="1.0" encoding="UTF-8" standalone="no"?>
<svg
   xmlns:dc="http://purl.org/dc/elements/1.1/"
   xmlns:cc="http://creativecommons.org/ns#"
   xmlns:rdf="http://www.w3.org/1999/02/22-rdf-syntax-ns#"
   xmlns:svg="http://www.w3.org/2000/svg"
   xmlns="http://www.w3.org/2000/svg"
   xmlns:sodipodi="http://sodipodi.sourceforge.net/DTD/sodipodi-0.dtd"
   xmlns:inkscape="http://www.inkscape.org/namespaces/inkscape"
   inkscape:version="1.0beta2 (2b71d25, 2019-12-03)"
   sodipodi:docname="honor_.svg"
   id="svg14"
   version="1.1"
   viewBox="0 0 750 185"
   height="185"
   width="750">
  <metadata
     id="metadata20">
    <rdf:RDF>
      <cc:Work
         rdf:about="">
        <dc:format>image/svg+xml</dc:format>
        <dc:type
           rdf:resource="http://purl.org/dc/dcmitype/StillImage" />
      </cc:Work>
    </rdf:RDF>
  </metadata>
  <defs
     id="defs18" />
  <sodipodi:namedview
     inkscape:current-layer="svg14"
     inkscape:window-maximized="0"
     inkscape:window-y="23"
     inkscape:window-x="0"
     inkscape:cy="57.99122"
     inkscape:cx="346.13634"
     inkscape:zoom="1.1857799"
     showgrid="false"
     id="namedview16"
     inkscape:window-height="787"
     inkscape:window-width="1145"
     inkscape:pageshadow="2"
     inkscape:pageopacity="0"
     guidetolerance="10"
     gridtolerance="10"
     objecttolerance="10"
     borderopacity="1"
     inkscape:document-rotation="0"
     bordercolor="#666666"
     pagecolor="#ffffff" />
  <g
     id="g12"
     fill="#28B4E5">
    <path
       sodipodi:nodetypes="cscsscscsscsscsscsssscsccscscsscscscc"
       inkscape:connector-curvature="0"
       id="path10"
       d="M 40.389,84.39 H 32.975 C 23.472,84.39 15.68,81.443 9.597,75.645 3.231,68.996 0,60.821 0,51.319 V 10.833 C 0,7.887 1.044,5.323 3.231,3.231 5.417,1.044 7.887,0 10.833,0 c 3.137,0 5.702,1.044 7.792,3.231 2.187,2.092 3.327,4.656 3.327,7.602 v 40.486 c 0,2.089 0.379,4.371 1.236,6.748 1.806,2.848 4.752,4.371 9.123,4.371 h 73.556 c 9.598,0 17.39,2.946 23.378,8.741 6.366,6.653 9.598,14.825 9.598,24.329 v 77.453 c 0,2.946 -1.044,5.415 -3.231,7.602 -2.09,2.092 -4.656,3.231 -7.507,3.231 -3.136,0 -5.796,-1.14 -7.887,-3.231 -2.187,-2.187 -3.231,-4.656 -3.231,-7.602 V 95.508 c 0,-2.092 -0.475,-4.371 -1.236,-6.653 -1.806,-2.946 -4.847,-4.465 -9.123,-4.465 z m -18.437,55.405 v 33.166 c 0,2.946 -1.14,5.415 -3.231,7.602 -2.186,2.187 -4.75,3.231 -7.602,3.231 -3.137,0 -5.797,-1.044 -7.887,-3.231 C 1.044,178.376 0,175.907 0,172.961 v -64.147 c 0,-2.947 1.044,-5.418 3.231,-7.603 2.09,-2.187 4.656,-3.231 7.602,-3.231 3.137,0 5.702,1.044 7.887,3.231 2.092,2.184 3.231,4.656 3.231,7.603 v 30.981 z" />
  </g>
</svg>
