<?xml version="1.0" encoding="UTF-8" standalone="no"?>
<svg
   xmlns:dc="http://purl.org/dc/elements/1.1/"
   xmlns:cc="http://creativecommons.org/ns#"
   xmlns:rdf="http://www.w3.org/1999/02/22-rdf-syntax-ns#"
   xmlns:svg="http://www.w3.org/2000/svg"
   xmlns="http://www.w3.org/2000/svg"
   xmlns:sodipodi="http://sodipodi.sourceforge.net/DTD/sodipodi-0.dtd"
   xmlns:inkscape="http://www.inkscape.org/namespaces/inkscape"
   inkscape:version="1.0beta2 (2b71d25, 2019-12-03)"
   sodipodi:docname="hp_.svg"
   xml:space="preserve"
   enable-background="new 0 0 433.701 433.701"
   viewBox="0 0 433.701 433.701"
   height="433.701px"
   width="433.701px"
   y="0px"
   x="0px"
   id="Layer_1"
   version="1.1"><metadata
   id="metadata17"><rdf:RDF><cc:Work
       rdf:about=""><dc:format>image/svg+xml</dc:format><dc:type
         rdf:resource="http://purl.org/dc/dcmitype/StillImage" /></cc:Work></rdf:RDF></metadata><defs
   id="defs15" /><sodipodi:namedview
   inkscape:current-layer="Layer_1"
   inkscape:window-maximized="0"
   inkscape:window-y="23"
   inkscape:window-x="0"
   inkscape:cy="282.86039"
   inkscape:cx="97.114018"
   inkscape:zoom="0.85862708"
   showgrid="false"
   id="namedview13"
   inkscape:window-height="819"
   inkscape:window-width="1214"
   inkscape:pageshadow="2"
   inkscape:pageopacity="0"
   guidetolerance="10"
   gridtolerance="10"
   objecttolerance="10"
   borderopacity="1"
   inkscape:document-rotation="0"
   bordercolor="#666666"
   pagecolor="#ffffff" />
<path
   sodipodi:nodetypes="sccsccccccccccsccsss"
   inkscape:connector-curvature="0"
   id="path10"
   d="m 216.85,432.851 c -2.147,0 -4.285,-0.039 -6.419,-0.101 -16.51432,-0.952 -30.64235,-3.09716 -43.727,-5.764 C 71.594,404.375 0.85,318.878 0.85,216.851 0.85,117.765 67.571,34.271 158.533,8.824 l -41.365,113.693 h -0.012 l -68.767,188.915 45.778,0.004 58.481,-160.531 h 34.404 l -58.481,160.531 45.761,0.008 54.498,-149.77 c 7.84,-21.537 -4.497,-39.157 -27.393,-39.157 H 162.956 L 207.142,1.077 c 3.221,-0.143 6.454,-0.227 9.708,-0.227 119.294,0 216,96.706 216,216.001 0,119.292 -96.706,216 -216,216 z"
   fill="#4987CE" />
</svg>
