<?xml version="1.0" encoding="UTF-8" standalone="no"?>
<!-- Created with Inkscape (http://www.inkscape.org/) -->

<svg
   xmlns:dc="http://purl.org/dc/elements/1.1/"
   xmlns:cc="http://creativecommons.org/ns#"
   xmlns:rdf="http://www.w3.org/1999/02/22-rdf-syntax-ns#"
   xmlns:svg="http://www.w3.org/2000/svg"
   xmlns="http://www.w3.org/2000/svg"
   xmlns:sodipodi="http://sodipodi.sourceforge.net/DTD/sodipodi-0.dtd"
   xmlns:inkscape="http://www.inkscape.org/namespaces/inkscape"
   width="146.54219"
   height="34.609776"
   viewBox="0 0 38.77262 9.15717"
   version="1.1"
   id="svg8"
   inkscape:version="0.92.3 (2405546, 2018-03-11)"
   sodipodi:docname="icelandair.svg">
  <defs
     id="defs2" />
  <sodipodi:namedview
     id="base"
     pagecolor="#00ffff"
     bordercolor="#666666"
     borderopacity="1.0"
     inkscape:pageopacity="0"
     inkscape:pageshadow="2"
     inkscape:zoom="5.6"
     inkscape:cx="97.691314"
     inkscape:cy="-24.544559"
     inkscape:document-units="mm"
     inkscape:current-layer="layer1"
     showgrid="false"
     units="px"
     fit-margin-top="0.5"
     fit-margin-left="0.5"
     fit-margin-right="0.5"
     fit-margin-bottom="0.5"
     inkscape:window-width="1920"
     inkscape:window-height="1001"
     inkscape:window-x="-9"
     inkscape:window-y="-9"
     inkscape:window-maximized="1" />
  <metadata
     id="metadata5">
    <rdf:RDF>
      <cc:Work
         rdf:about="">
        <dc:format>image/svg+xml</dc:format>
        <dc:type
           rdf:resource="http://purl.org/dc/dcmitype/StillImage" />
        <dc:title></dc:title>
      </cc:Work>
    </rdf:RDF>
  </metadata>
  <g
     inkscape:label="Layer 1"
     inkscape:groupmode="layer"
     id="layer1"
     transform="translate(-86.447023,-144.25474)">
    <g
       id="g64"
       transform="matrix(0.26458333,0,0,0.26458333,86.103065,144.28379)">
	<g
   id="g12">
		<path
   id="path10"
   d="m 146.6,0.4 c -1,0.1 -9.2,0.6 -9.2,0.6 0,0 -0.3,-0.1 -0.8,0.4 -0.4,0.5 -25.2,28.5 -25.2,28.5 0,0 -3.4,3.7 -8.2,4.1 0,0 0,0 0,0 h 33.9 L 147.3,1 c 0,0 0.3,-0.7 -0.7,-0.6 z"
   inkscape:connector-curvature="0"
   style="fill:#003a7d" />

	</g>

	<g
   id="g58">

			<linearGradient
   gradientTransform="matrix(1.0275,0.0123,-0.0126,0.9999,1836.4637,2.1447)"
   y2="44.824799"
   x2="-1664.1956"
   y1="43.542"
   x1="-1667.6876"
   gradientUnits="userSpaceOnUse"
   id="icelandairLogo1">
			<stop
   id="stop14"
   style="stop-color:#8B350B"
   offset="6.860500e-02" />

			<stop
   id="stop16"
   style="stop-color:#913C0E"
   offset="0.1507" />

			<stop
   id="stop18"
   style="stop-color:#A34E14"
   offset="0.2756" />

			<stop
   id="stop20"
   style="stop-color:#A65215"
   offset="0.2965" />

			<stop
   id="stop22"
   style="stop-color:#B76519"
   offset="0.4558" />

			<stop
   id="stop24"
   style="stop-color:#E8A71F"
   offset="0.8895" />

		</linearGradient>

		<path
   id="path27"
   d="m 122.3,25.9 c -0.2,0.1 -0.4,0.3 -0.5,0.5 -0.1,0.3 0.2,0.6 0.5,0.8 0.4,0.2 0.9,0.3 1.8,0.3 1,0 1.5,-0.2 1.5,-0.2 0,0 0.2,-0.6 0.4,-1 0.2,-0.4 0.5,-1.1 0.7,-1.5 -1.9,0.1 -3.4,0.5 -4.4,1.1 z"
   inkscape:connector-curvature="0"
   style="fill:url(#icelandairLogo1)" />


			<linearGradient
   gradientTransform="matrix(1.0275,0.0123,-0.0126,0.9999,1836.4637,2.1447)"
   y2="41.067902"
   x2="-1654.0332"
   y1="36.212299"
   x1="-1664.5685"
   gradientUnits="userSpaceOnUse"
   id="icelandairLogo2">
			<stop
   id="stop29"
   style="stop-color:#E79000"
   offset="0" />

			<stop
   id="stop31"
   style="stop-color:#E89400"
   offset="2.356468e-02" />

			<stop
   id="stop33"
   style="stop-color:#ECA022"
   offset="5.870681e-02" />

			<stop
   id="stop35"
   style="stop-color:#EDA42C"
   offset="7.000000e-02" />

			<stop
   id="stop37"
   style="stop-color:#F0B24D"
   offset="0.1001" />

			<stop
   id="stop39"
   style="stop-color:#FBDDAA"
   offset="0.2" />

			<stop
   id="stop41"
   style="stop-color:#FADAA3"
   offset="0.222" />

			<stop
   id="stop43"
   style="stop-color:#F9D48F"
   offset="0.2562" />

			<stop
   id="stop45"
   style="stop-color:#F7C96C"
   offset="0.2986" />

			<stop
   id="stop47"
   style="stop-color:#F4BB35"
   offset="0.3469" />

			<stop
   id="stop49"
   style="stop-color:#F4BA30"
   offset="0.35" />

			<stop
   id="stop51"
   style="stop-color:#EEA900"
   offset="0.66" />

			<stop
   id="stop53"
   style="stop-color:#E78E00"
   offset="0.98" />

		</linearGradient>

		<path
   id="path56"
   d="m 140.6,14.4 c 0,0 -0.8,1 -3.8,0.9 -2,0 -3,-0.6 -5.4,-0.7 -2.7,0 -4.6,0.9 -5.2,2.1 -0.3,0.6 -1.8,4 -1.8,4 0,0 0.8,-0.9 2.2,-1.3 1.9,-0.6 3.7,-0.5 5.5,-0.2 1.3,0.2 2.1,0.5 3.3,0.4 1.1,0 1.7,-0.3 2.1,-0.5 0.6,-0.3 1.1,-0.8 1.8,-1.9 0.6,-0.7 1.2,-2.4 1.3,-2.8 z M 122,26 c 0.4,-0.9 1,-2.4 1.8,-3.8 0.1,-0.3 0.4,-0.6 0.7,-0.8 1,-0.9 3.3,-1.6 6.1,-1.4 2,0.2 2.8,0.4 4,0.5 0.5,0 1.1,0.1 1.6,0 1.3,-0.2 1.7,-0.5 1.7,-0.5 0,0 -0.8,2.1 -2,3.4 -1.4,1.6 -2.8,1.7 -5.5,1.5 -3.9,-0.4 -6.6,0.1 -8.1,1.1 -0.2,0.1 -0.4,0.4 -0.5,0.6 0,0 0,-0.2 0.2,-0.6 z"
   inkscape:connector-curvature="0"
   style="fill:url(#icelandairLogo2)" />

	</g>

	<line
   id="line62"
   y2="17.5"
   x2="43.5"
   y1="17.5"
   x1="43.5"
   style="fill:none" />

</g>
  </g>
</svg>
