<?xml version="1.0" encoding="UTF-8" standalone="no"?>
<svg
   xmlns:dc="http://purl.org/dc/elements/1.1/"
   xmlns:cc="http://creativecommons.org/ns#"
   xmlns:rdf="http://www.w3.org/1999/02/22-rdf-syntax-ns#"
   xmlns:svg="http://www.w3.org/2000/svg"
   xmlns="http://www.w3.org/2000/svg"
   version="1.1"
   id="svg3914"
   viewBox="0 0 300 144.05028"
   height="144.05028"
   width="300">
  <defs
     id="defs3916" />
  <metadata
     id="metadata3919">
    <rdf:RDF>
      <cc:Work
         rdf:about="">
        <dc:format>image/svg+xml</dc:format>
        <dc:type
           rdf:resource="http://purl.org/dc/dcmitype/StillImage" />
        <dc:title></dc:title>
      </cc:Work>
    </rdf:RDF>
  </metadata>
  <g
     transform="translate(-232.85714,-666.05135)"
     id="layer1">
    <g
       transform="matrix(2.9588443,0,0,-2.9588443,413.39839,720.00875)"
       id="g3634">
      <path
         id="path3636"
         style="fill:#231f20;fill-opacity:1;fill-rule:nonzero;stroke:none"
         d="m 0,0 c -0.961,1.245 -10.321,13.861 -10.321,13.861 0,0 -9.396,-12.723 -10.294,-13.889 -3.47,0.296 -9.5,2.611 -9.5,6.628 0,5.108 8.755,9.839 19.794,9.839 C 1.272,16.439 9.475,11.708 9.475,6.6 9.475,2.583 3.475,0.296 0,0 m -10.321,17.898 c -14.258,0 -24.182,-5.569 -24.182,-12.782 0,-3.365 2.17,-7.172 6.775,-9.461 4.274,-2.123 10.312,-2.863 11.184,-2.97 l 6.223,18.338 6.287,-18.338 c 0.869,0.107 6.852,0.847 11.127,2.97 4.602,2.289 6.773,6.096 6.773,9.461 0,7.213 -9.927,12.782 -24.187,12.782" />
    </g>
  </g>
</svg>
