<?xml version="1.0" encoding="UTF-8" standalone="no"?>
<svg
   xmlns:dc="http://purl.org/dc/elements/1.1/"
   xmlns:cc="http://creativecommons.org/ns#"
   xmlns:rdf="http://www.w3.org/1999/02/22-rdf-syntax-ns#"
   xmlns:svg="http://www.w3.org/2000/svg"
   xmlns="http://www.w3.org/2000/svg"
   xmlns:sodipodi="http://sodipodi.sourceforge.net/DTD/sodipodi-0.dtd"
   xmlns:inkscape="http://www.inkscape.org/namespaces/inkscape"
   sodipodi:docname="isuzu_.svg"
   inkscape:version="1.0beta2 (2b71d25, 2019-12-03)"
   viewBox="0 0 1000 171.804"
   height="171.804"
   width="1000"
   id="svg2"
   version="1.1">
  <sodipodi:namedview
     inkscape:document-rotation="0"
     inkscape:current-layer="svg2"
     inkscape:window-maximized="0"
     inkscape:window-y="369"
     inkscape:window-x="860"
     inkscape:cy="91.514496"
     inkscape:cx="489.68831"
     inkscape:zoom="0.49698069"
     showgrid="false"
     id="namedview7014"
     inkscape:window-height="444"
     inkscape:window-width="740"
     inkscape:pageshadow="2"
     inkscape:pageopacity="0"
     guidetolerance="10"
     gridtolerance="10"
     objecttolerance="10"
     borderopacity="1"
     bordercolor="#666666"
     pagecolor="#ffffff" />
  <metadata
     id="metadata15">
    <rdf:RDF>
      <cc:Work
         rdf:about="">
        <dc:format>image/svg+xml</dc:format>
        <dc:type
           rdf:resource="http://purl.org/dc/dcmitype/StillImage" />
        <dc:title />
      </cc:Work>
    </rdf:RDF>
  </metadata>
  <defs
     id="defs4">
    <clipPath
       id="a">
      <path
         inkscape:connector-curvature="0"
         d="m 0,0 609.448,0 0,793.701 L 0,793.701 0,0 Z"
         id="path7" />
    </clipPath>
  </defs>
  <path
     sodipodi:nodetypes="ccccccccccccccccccccsccccccccccccccccccccc"
     id="path11"
     d="m 571.79642,0.6148918 c 5.79275,-0.173014 109.39572,-0.05126 141.78767,0.128157 28.68177,0.3203949 39.28685,4.4022289 47.07245,14.8214772 8.98387,12.04045 9.91302,27.124652 2.65286,39.536759 -5.20961,8.900575 -14.84711,16.666953 -29.30334,23.722055 -11.47655,5.895269 -31.57173,14.840701 -51.21195,23.48496 -26.30443,11.61753 -50.12261,21.67794 -54.12755,23.77332 -5.42109,2.84511 -3.37057,7.10636 0.93554,7.04228 11.23948,-0.13455 119.76372,-1.01885 125.55646,-1.03167 5.81836,-0.006 7.70871,2.08898 7.70871,8.33668 -0.0121,6.53606 0.0512,17.71144 0.0641,22.7801 -0.13468,6.09391 -2.07617,7.75996 -7.84968,7.81764 -6.59373,0.0705 -122.19871,0.10252 -130.42004,0.14096 -18.27534,-0.0449 -37.09534,0.0256 -48.32199,-5.41467 -14.0205,-6.8116 -18.76234,-20.46684 -18.77516,-30.04025 0.66643,-23.33117 13.66806,-30.80279 37.09536,-41.657774 26.04812,-11.822579 102.94295,-45.085999 107.5246,-47.213425 5.6774,-2.646463 3.91522,-7.84968 -1.35208,-7.676666 -4.04338,0.08331 -121.82703,0.685645 -127.6454,0.679238 -5.79915,-0.01915 -9.49012,-0.954778 -9.49012,-6.580916 0.0121,-5.600506 -0.0512,-19.646629 -0.0512,-25.4265563 0,-5.80556 2.33248,-7.0358769 8.15085,-7.2217059 M 267.60689,88.35125 C 241.55236,77.528302 165.52901,53.479445 155.44297,48.48769 c -4.85719,-2.088978 -4.53039,-8.291826 2.04412,-8.291826 11.22665,0.166613 122.66006,0.384474 128.47845,0.422921 5.81195,0.0129 8.25977,-2.249173 8.25977,-8.509694 0.0256,-6.529652 -0.0202,-18.512431 -0.0962,-23.7733183 -0.0768,-5.350598 -2.00568,-7.3754949 -6.81161,-7.3883109 -4.80592,0 -133.50223,0.1537899 -133.50223,0.1537899 -35.91629,-0.0833 -45.13085,5.203217 -55.306602,17.4230863 -13.264357,15.942862 -9.047959,37.524676 -1.435371,48.655202 8.573773,12.450555 22.728833,17.954943 45.252603,25.836662 27.28485,8.874948 91.5433,31.475618 91.5433,31.475618 5.88885,2.54394 5.44031,8.71475 -1.83266,8.71475 0,0 -122.57677,-1.10216 -128.38233,-1.11498 -5.818373,-0.006 -8.657072,2.83229 -8.682705,8.45203 0,5.61973 -0.05127,15.91723 -0.0769,21.76123 0,5.77993 1.678869,9.08 7.497245,9.28505 5.77993,0.19865 111.17711,-0.19865 143.58828,-0.26272 24.65761,-0.0641 48.47578,-7.68308 53.36501,-34.91666 2.92841,-23.46574 -7.00383,-38.011679 -31.73834,-48.059269"
     inkscape:connector-curvature="0"
     style="fill:#e60012" />
</svg>
