<?xml version="1.0" encoding="UTF-8" standalone="no"?>
<svg
   xmlns:dc="http://purl.org/dc/elements/1.1/"
   xmlns:cc="http://creativecommons.org/ns#"
   xmlns:rdf="http://www.w3.org/1999/02/22-rdf-syntax-ns#"
   xmlns:svg="http://www.w3.org/2000/svg"
   xmlns="http://www.w3.org/2000/svg"
   xmlns:sodipodi="http://sodipodi.sourceforge.net/DTD/sodipodi-0.dtd"
   xmlns:inkscape="http://www.inkscape.org/namespaces/inkscape"
   sodipodi:docname="japan-airlines_.svg"
   inkscape:version="1.0beta2 (2b71d25, 2019-12-03)"
   version="1.1"
   id="svg2"
   height="48.16486"
   width="522.77966">
  <defs
     id="defs4">
    <clipPath
       clipPathUnits="userSpaceOnUse"
       id="clipPath4980">
      <path
         inkscape:connector-curvature="0"
         d="m 0.113,474.803 420.123,0 0,-474.599 -420.123,0 0,474.599 z"
         id="path4982" />
    </clipPath>
    <clipPath
       clipPathUnits="userSpaceOnUse"
       id="clipPath4972">
      <path
         style="clip-rule:evenodd"
         inkscape:connector-curvature="0"
         d="m -0.7,471.11 850.39,0 0,-481.89 -850.39,0 0,481.89 z"
         id="path4974" />
    </clipPath>
    <clipPath
       clipPathUnits="userSpaceOnUse"
       id="clipPath4964">
      <path
         inkscape:connector-curvature="0"
         d="m -0.7,505.13 850,0 0,-515 -850,0 0,515 z"
         id="path4966" />
    </clipPath>
    <clipPath
       clipPathUnits="userSpaceOnUse"
       id="clipPath4956">
      <path
         inkscape:connector-curvature="0"
         d="m -0.685,505.14 849.99,0 0,-515.01 -849.99,0 0,515.01 z"
         id="path4958" />
    </clipPath>
    <clipPath
       clipPathUnits="userSpaceOnUse"
       id="clipPath4812">
      <path
         inkscape:connector-curvature="0"
         d="m 0.113,474.803 420.123,0 0,-474.599 -420.123,0 0,474.599 z"
         id="path4814" />
    </clipPath>
    <clipPath
       clipPathUnits="userSpaceOnUse"
       id="clipPath4804">
      <path
         style="clip-rule:evenodd"
         inkscape:connector-curvature="0"
         d="m -0.7,505.13 850.39,0 0,-515.91 -850.39,0 0,515.91 z"
         id="path4806" />
    </clipPath>
    <clipPath
       clipPathUnits="userSpaceOnUse"
       id="clipPath4796">
      <path
         inkscape:connector-curvature="0"
         d="m -0.7,505.13 850,0 0,-515 -850,0 0,515 z"
         id="path4798" />
    </clipPath>
    <clipPath
       clipPathUnits="userSpaceOnUse"
       id="clipPath4788">
      <path
         inkscape:connector-curvature="0"
         d="m -0.685,505.14 849.99,0 0,-515.01 -849.99,0 0,515.01 z"
         id="path4790" />
    </clipPath>
    <clipPath
       clipPathUnits="userSpaceOnUse"
       id="clipPath4716">
      <path
         inkscape:connector-curvature="0"
         d="m 0.113,474.803 420.123,0 0,-474.599 -420.123,0 0,474.599 z"
         id="path4718" />
    </clipPath>
    <clipPath
       clipPathUnits="userSpaceOnUse"
       id="clipPath4708">
      <path
         style="clip-rule:evenodd"
         inkscape:connector-curvature="0"
         d="m -0.7,505.13 850.39,0 0,-515.91 -850.39,0 0,515.91 z"
         id="path4710" />
    </clipPath>
    <clipPath
       clipPathUnits="userSpaceOnUse"
       id="clipPath4700">
      <path
         inkscape:connector-curvature="0"
         d="m -0.7,505.13 850,0 0,-515 -850,0 0,515 z"
         id="path4702" />
    </clipPath>
    <clipPath
       clipPathUnits="userSpaceOnUse"
       id="clipPath4692">
      <path
         inkscape:connector-curvature="0"
         d="m -0.685,505.14 849.99,0 0,-515.01 -849.99,0 0,515.01 z"
         id="path4694" />
    </clipPath>
    <clipPath
       clipPathUnits="userSpaceOnUse"
       id="clipPath4386">
      <path
         inkscape:connector-curvature="0"
         d="m 637.795,481.89 212.598,0 0,-480.94 -212.598,0 0,480.94 z"
         id="path4388" />
    </clipPath>
    <clipPath
       clipPathUnits="userSpaceOnUse"
       id="clipPath4378">
      <path
         style="clip-rule:evenodd"
         inkscape:connector-curvature="0"
         d="m 416.894,490.39 442.2,0 0,-498.89 -442.2,0 0,498.89 z"
         id="path4380" />
    </clipPath>
    <clipPath
       clipPathUnits="userSpaceOnUse"
       id="clipPath4370">
      <path
         inkscape:connector-curvature="0"
         d="m 424.394,482.89 427,0 0,-484 -427,0 0,484 z"
         id="path4372" />
    </clipPath>
    <clipPath
       clipPathUnits="userSpaceOnUse"
       id="clipPath4362">
      <path
         inkscape:connector-curvature="0"
         d="m 425.394,481.91 425.04,0 0,-480.96 -425.04,0 0,480.96 z"
         id="path4364" />
    </clipPath>
    <clipPath
       clipPathUnits="userSpaceOnUse"
       id="clipPath4352">
      <path
         inkscape:connector-curvature="0"
         d="m 637.795,481.89 212.598,0 0,-480.94 -212.598,0 0,480.94 z"
         id="path4354" />
    </clipPath>
    <clipPath
       clipPathUnits="userSpaceOnUse"
       id="clipPath4344">
      <path
         inkscape:connector-curvature="0"
         d="m 425.197,481.89 212.598,0 0,-481.89 -212.598,0 0,481.89 z"
         id="path4346" />
    </clipPath>
    <clipPath
       clipPathUnits="userSpaceOnUse"
       id="clipPath3702">
      <path
         inkscape:connector-curvature="0"
         d="m 1421.57,-1197.38 13.78,0 0,13.78 -13.78,0 0,-13.78 z"
         id="path3704" />
    </clipPath>
    <clipPath
       clipPathUnits="userSpaceOnUse"
       id="clipPath3692">
      <path
         inkscape:connector-curvature="0"
         d="m 438.985,21.063 c -0.693,-0.027 -1.395,-0.153 -2.07,-0.387 -0.729,-0.261 -1.422,-0.639 -2.052,-1.152 -0.585,-0.468 -1.071,-1.017 -1.458,-1.62 -0.423,-0.657 -0.72,-1.377 -0.9,-2.124 -0.072,-0.288 -0.126,-0.585 -0.153,-0.882 -0.027,-0.234 -0.036,-0.459 -0.045,-0.684 0,-0.792 0.126,-1.584 0.396,-2.349 0.252,-0.711 0.639,-1.395 1.143,-2.025 0.477,-0.594 1.035,-1.08 1.638,-1.467 0.693,-0.45 1.458,-0.756 2.241,-0.927 0.243,-0.054 0.504,-0.099 0.756,-0.126 0.297,-0.027 0.603,-0.036 0.9,-0.027 0.765,0.018 1.53,0.162 2.268,0.441 0.666,0.252 1.305,0.612 1.881,1.089 0.63,0.504 1.152,1.107 1.548,1.764 0.369,0.612 0.648,1.269 0.81,1.953 0.072,0.297 0.126,0.603 0.162,0.909 0.027,0.261 0.036,0.513 0.036,0.765 -0.009,0.81 -0.153,1.611 -0.441,2.385 -0.252,0.675 -0.621,1.314 -1.089,1.908 -0.513,0.63 -1.107,1.134 -1.746,1.539 -0.693,0.423 -1.44,0.711 -2.214,0.873 -0.225,0.045 -0.45,0.081 -0.675,0.108 -0.252,0.027 -0.495,0.036 -0.747,0.036 l -0.189,0"
         id="path3694" />
    </clipPath>
    <clipPath
       clipPathUnits="userSpaceOnUse"
       id="clipPath3684">
      <path
         inkscape:connector-curvature="0"
         d="m 432.307,21.06 13.779,0 0,-13.776 -13.779,0 0,13.776 z"
         id="path3686" />
    </clipPath>
    <clipPath
       clipPathUnits="userSpaceOnUse"
       id="clipPath3668">
      <path
         inkscape:connector-curvature="0"
         d="m 425.197,481.89 212.598,0 0,-481.89 -212.598,0 0,481.89 z"
         id="path3670" />
    </clipPath>
    <clipPath
       clipPathUnits="userSpaceOnUse"
       id="clipPath3530">
      <path
         inkscape:connector-curvature="0"
         d="m 460.331,111.439 c -6.966,0 -17.611,0.074 -17.611,0.074 l -0.36,0.198 -1.377,-0.054 -0.009,0.243 0.27,0.189 -0.477,3.438 -0.486,-0.018 0.027,0.207 0.657,0.063 4.266,1.449 -13.185,4.428 c 0,0 1.116,0.504 3.924,1.107 1.53,0.324 2.754,0.567 3.609,0.657 0.332,0.038 0.616,0.048 0.823,0.048 0.23,0 0.365,-0.012 0.365,-0.012 l 10.737,-1.197 -15.912,26.208 c 0,0 1.404,0.63 3.42,1.062 2.199,0.475 3.584,0.541 4.183,0.541 0.23,0 0.344,-0.01 0.344,-0.01 l 9.576,-6.345 12.357,-8.136 c 0,0 9.783,-6.255 11.034,-6.957 0.785,-0.449 1.922,-0.532 2.653,-0.532 0.425,0 0.713,0.028 0.713,0.028 0,0 0.279,0.117 2.934,0.765 2.646,0.639 11.943,2.646 11.943,2.646 l -0.405,0.612 0.432,0.09 0.495,-0.549 5.796,1.197 -0.612,1.071 0.36,0.063 0.99,-0.873 12.753,2.736 c 0,0 0.423,0.378 1.998,0.774 0.684,0.171 1.332,0.324 1.809,0.324 0.612,0 0.936,-0.189 0.936,-0.189 l 8.298,1.836 -1.341,1.692 c 0,0 -0.846,-0.27 -1.593,-0.45 -0.249,-0.06 -0.548,-0.08 -0.836,-0.08 -0.576,0 -1.108,0.08 -1.108,0.08 l -0.072,0.495 c 0,0 0.423,0.378 0.756,0.648 0.324,0.279 1.332,1.116 1.332,1.116 l -3.915,4.815 0.099,0.189 0.423,0.378 1.053,0.45 0.036,0.315 0.333,0.171 -0.063,0.126 -0.306,-0.036 -0.819,-0.369 -0.441,0.477 -0.648,-0.306 -0.414,-0.009 0.072,0.036 c 0.189,0.099 0.711,0.369 0.711,0.369 l -9.171,9.117 -1.332,1.431 -0.792,-0.09 0.198,0.18 c 0,0 0.279,0.108 1.377,0.288 1.098,0.18 7.497,0.558 7.497,0.558 l 0.414,-0.09 0.288,-0.333 0.423,-0.054 -0.171,-0.252 0.117,-0.27 1.044,-0.063 0.882,-0.558 c 0,0 11.403,-6.021 20.124,-10.395 5.346,-2.673 9.72,-4.563 9.72,-4.563 l 10.791,2.277 -0.558,1.017 0.243,0.009 0.999,-0.828 c 0,0 26.136,5.535 30.501,6.426 1.908,0.387 4.239,0.927 6.498,1.251 2.925,0.414 5.814,0.567 8.424,0.585 0.263,0.002 0.519,0.003 0.768,0.003 4.155,0 6.478,-0.277 8.745,-0.651 2.403,-0.396 4.446,-2.187 4.446,-2.187 0,0 1.143,-0.216 2.295,-0.738 1.233,-0.558 2.484,-1.206 2.52,-2.304 0.063,-1.665 -2.232,-3.204 -4.455,-4.842 -0.954,-0.702 -2.367,-1.62 -4.005,-2.448 -2.196,-1.098 -4.797,-2.106 -7.254,-2.988 -4.302,-1.548 -9.288,-2.565 -13.887,-3.564 -4.599,-0.999 -14.697,-3.285 -14.697,-3.285 l -0.27,-0.216 -0.828,-0.135 c 0,0 -0.576,-0.531 -1.629,-0.999 -1.116,-0.495 -2.736,-0.936 -4.437,-1.368 -3.33,-0.855 -7.533,-1.395 -7.533,-1.395 l -0.207,-0.036 -0.342,-0.225 c 0,0 0.207,-0.927 0.441,-2.439 0.225,-1.512 0.495,-2.097 0.054,-3.321 -0.441,-1.233 -3.978,-2.088 -6.651,-2.772 -2.501,-0.648 -5.798,-1.013 -6.389,-1.013 -0.04,0 -0.068,0.002 -0.082,0.005 -0.207,0.063 -0.387,0.234 -0.675,0.603 -0.297,0.369 -0.45,0.882 -0.45,0.882 l -3.114,-0.081 -0.216,0.234 -0.414,0.018 -0.081,0.207 -1.008,0.135 -3.411,0.603 0.027,0.171 2.556,1.926 c 0,0 -9.504,-2.187 -14.94,-3.285 -6.489,-1.314 -14.463,-1.926 -14.463,-1.926 l -0.351,-0.045 c 0,0 -2.331,-0.612 -4.284,-0.99 -1.962,-0.387 -6.939,-1.611 -6.939,-1.611 l -0.63,-1.512 -0.243,-0.009 0.09,1.287 -3.879,-0.837 -0.324,-0.639 -0.999,-0.243 0.189,0.594 c 0,0 -1.305,-0.261 -3.384,-0.468 -2.385,-0.234 -5.805,-0.423 -9.594,-0.603 -7.083,-0.333 -18.54,-0.378 -24.363,-0.414 -1.003,-0.008 -2.294,-0.011 -3.746,-0.011"
         id="path3532" />
    </clipPath>
    <clipPath
       clipPathUnits="userSpaceOnUse"
       id="clipPath3522">
      <path
         inkscape:connector-curvature="0"
         d="m 511.138,159.654 c -1.098,-0.18 -1.377,-0.288 -1.377,-0.288 l -0.198,-0.18 0.792,0.09 1.332,-1.431 9.171,-9.117 c 0,0 -0.522,-0.27 -0.711,-0.369 l -0.072,-0.036 0.414,0.009 0.648,0.306 0.441,-0.477 0.819,0.369 0.306,0.036 0.063,-0.126 -0.333,-0.171 -0.036,-0.315 -1.053,-0.45 -0.423,-0.378 -0.099,-0.189 3.915,-4.815 c 0,0 -1.008,-0.837 -1.332,-1.116 -0.333,-0.27 -0.756,-0.648 -0.756,-0.648 l 0.072,-0.495 c 0,0 1.197,-0.18 1.944,0 0.747,0.18 1.593,0.45 1.593,0.45 l 1.341,-1.692 -8.298,-1.836 c 0,0 -0.324,0.189 -0.936,0.189 -0.477,0 -1.125,-0.153 -1.809,-0.324 -1.575,-0.396 -1.998,-0.774 -1.998,-0.774 l -12.753,-2.736 -0.99,0.873 -0.36,-0.063 0.612,-1.071 -5.796,-1.197 -0.495,0.549 -0.432,-0.09 0.405,-0.612 c 0,0 -9.297,-2.007 -11.943,-2.646 -2.655,-0.648 -2.934,-0.765 -2.934,-0.765 0,0 -2.124,-0.207 -3.366,0.504 -1.251,0.702 -11.034,6.957 -11.034,6.957 l -12.357,8.136 -9.576,6.345 c 0,0 -1.485,0.126 -4.527,-0.531 -2.016,-0.432 -3.42,-1.062 -3.42,-1.062 l 15.912,-26.208 -10.737,1.197 c 0,0 -0.486,0.045 -1.188,-0.036 -0.855,-0.09 -2.079,-0.333 -3.609,-0.657 -2.808,-0.603 -3.924,-1.107 -3.924,-1.107 l 13.185,-4.428 -4.266,-1.449 -0.657,-0.063 -0.027,-0.207 0.486,0.018 0.477,-3.438 -0.27,-0.189 0.009,-0.243 1.377,0.054 0.36,-0.198 c 0,0 15.543,-0.108 21.357,-0.063 5.823,0.036 17.28,0.081 24.363,0.414 3.789,0.18 7.209,0.369 9.594,0.603 2.079,0.207 3.384,0.468 3.384,0.468 l -0.189,-0.594 0.999,0.243 0.324,0.639 3.879,0.837 -0.09,-1.287 0.243,0.009 0.63,1.512 c 0,0 4.977,1.224 6.939,1.611 1.953,0.378 4.284,0.99 4.284,0.99 l 0.351,0.045 c 0,0 7.974,0.612 14.463,1.926 5.436,1.098 14.94,3.285 14.94,3.285 l -2.556,-1.926 -0.027,-0.171 3.411,-0.603 1.008,-0.135 0.081,-0.207 0.414,-0.018 0.216,-0.234 3.114,0.081 c 0,0 0.153,-0.513 0.45,-0.882 0.288,-0.369 0.468,-0.54 0.675,-0.603 0.216,-0.054 3.798,0.315 6.471,1.008 2.673,0.684 6.21,1.539 6.651,2.772 0.441,1.224 0.171,1.809 -0.054,3.321 -0.234,1.512 -0.441,2.439 -0.441,2.439 l 0.342,0.225 0.207,0.036 c 0,0 4.203,0.54 7.533,1.395 1.701,0.432 3.321,0.873 4.437,1.368 1.053,0.468 1.629,0.999 1.629,0.999 l 0.828,0.135 0.27,0.216 c 0,0 10.098,2.286 14.697,3.285 4.599,0.999 9.585,2.016 13.887,3.564 2.457,0.882 5.058,1.89 7.254,2.988 1.638,0.828 3.051,1.746 4.005,2.448 2.223,1.638 4.518,3.177 4.455,4.842 -0.036,1.098 -1.287,1.746 -2.52,2.304 -1.152,0.522 -2.295,0.738 -2.295,0.738 0,0 -2.043,1.791 -4.446,2.187 -2.403,0.396 -4.869,0.684 -9.513,0.648 -2.61,-0.018 -5.499,-0.171 -8.424,-0.585 -2.259,-0.324 -4.59,-0.864 -6.498,-1.251 -4.365,-0.891 -30.501,-6.426 -30.501,-6.426 l -0.999,0.828 -0.243,-0.009 0.558,-1.017 -10.791,-2.277 c 0,0 -4.374,1.89 -9.72,4.563 -8.721,4.374 -20.124,10.395 -20.124,10.395 l -0.882,0.558 -1.044,0.063 -0.117,0.27 0.171,0.252 -0.423,0.054 -0.288,0.333 -0.414,0.09 c 0,0 -6.399,-0.378 -7.497,-0.558"
         id="path3524" />
    </clipPath>
    <clipPath
       clipPathUnits="userSpaceOnUse"
       id="clipPath3514">
      <path
         inkscape:connector-curvature="0"
         d="m 431.829,111.242 195.576,0 0,49.116 -195.576,0 0,-49.116 z"
         id="path3516" />
    </clipPath>
    <clipPath
       clipPathUnits="userSpaceOnUse"
       id="clipPath3500">
      <path
         inkscape:connector-curvature="0"
         d="m 425.197,63.46 189.644,0 0,-34.996 -189.644,0 0,34.996 z"
         id="path3502" />
    </clipPath>
    <clipPath
       clipPathUnits="userSpaceOnUse"
       id="clipPath3492">
      <path
         inkscape:connector-curvature="0"
         d="m 646.3,28.677 -221.058,0 0,242.352 221.058,0 0,-242.352 m -203.94,83.034 0.36,-0.198 c 0,0 10.645,-0.074 17.611,-0.074 1.452,0 2.743,0.003 3.746,0.011 5.823,0.036 17.28,0.081 24.363,0.414 3.789,0.18 7.209,0.369 9.594,0.603 2.079,0.207 3.384,0.468 3.384,0.468 l -0.189,-0.594 0.999,0.243 0.324,0.639 3.879,0.837 -0.09,-1.287 0.243,0.009 0.63,1.512 c 0,0 4.977,1.224 6.939,1.611 1.953,0.378 4.284,0.99 4.284,0.99 l 0.351,0.045 c 0,0 7.974,0.612 14.463,1.926 5.436,1.098 14.94,3.285 14.94,3.285 l -2.556,-1.926 -0.027,-0.171 3.411,-0.603 1.008,-0.135 0.081,-0.207 0.414,-0.018 0.216,-0.234 3.114,0.081 c 0,0 0.153,-0.513 0.45,-0.882 0.288,-0.369 0.468,-0.54 0.675,-0.603 0.014,-0.003 0.042,-0.005 0.082,-0.005 0.591,0 3.888,0.365 6.389,1.013 2.673,0.684 6.21,1.539 6.651,2.772 0.441,1.224 0.171,1.809 -0.054,3.321 -0.234,1.512 -0.441,2.439 -0.441,2.439 l 0.342,0.225 0.207,0.036 c 0,0 4.203,0.54 7.533,1.395 1.701,0.432 3.321,0.873 4.437,1.368 1.053,0.468 1.629,0.999 1.629,0.999 l 0.828,0.135 0.27,0.216 c 0,0 10.098,2.286 14.697,3.285 4.599,0.999 9.585,2.016 13.887,3.564 2.457,0.882 5.058,1.89 7.254,2.988 1.638,0.828 3.051,1.746 4.005,2.448 2.223,1.638 4.518,3.177 4.455,4.842 -0.036,1.098 -1.287,1.746 -2.52,2.304 -1.152,0.522 -2.295,0.738 -2.295,0.738 0,0 -2.043,1.791 -4.446,2.187 -2.267,0.374 -4.59,0.651 -8.745,0.651 -0.249,0 -0.505,-0.001 -0.768,-0.003 -2.61,-0.018 -5.499,-0.171 -8.424,-0.585 -2.259,-0.324 -4.59,-0.864 -6.498,-1.251 -4.365,-0.891 -30.501,-6.426 -30.501,-6.426 l -0.999,0.828 -0.243,-0.009 0.558,-1.017 -10.791,-2.277 c 0,0 -4.374,1.89 -9.72,4.563 -8.721,4.374 -20.124,10.395 -20.124,10.395 l -0.882,0.558 -1.044,0.063 -0.117,0.27 0.171,0.252 -0.423,0.054 -0.288,0.333 -0.414,0.09 c 0,0 -6.399,-0.378 -7.497,-0.558 -1.098,-0.18 -1.377,-0.288 -1.377,-0.288 l -0.198,-0.18 0.792,0.09 1.332,-1.431 9.171,-9.117 c 0,0 -0.522,-0.27 -0.711,-0.369 l -0.072,-0.036 0.414,0.009 0.648,0.306 0.441,-0.477 0.819,0.369 0.306,0.036 0.063,-0.126 -0.333,-0.171 -0.036,-0.315 -1.053,-0.45 -0.423,-0.378 -0.099,-0.189 3.915,-4.815 c 0,0 -1.008,-0.837 -1.332,-1.116 -0.333,-0.27 -0.756,-0.648 -0.756,-0.648 l 0.072,-0.495 c 0,0 0.532,-0.08 1.108,-0.08 0.288,0 0.587,0.02 0.836,0.08 0.747,0.18 1.593,0.45 1.593,0.45 l 1.341,-1.692 -8.298,-1.836 c 0,0 -0.324,0.189 -0.936,0.189 -0.477,0 -1.125,-0.153 -1.809,-0.324 -1.575,-0.396 -1.998,-0.774 -1.998,-0.774 l -12.753,-2.736 -0.99,0.873 -0.36,-0.063 0.612,-1.071 -5.796,-1.197 -0.495,0.549 -0.432,-0.09 0.405,-0.612 c 0,0 -9.297,-2.007 -11.943,-2.646 -2.655,-0.648 -2.934,-0.765 -2.934,-0.765 0,0 -0.288,-0.028 -0.713,-0.028 -0.731,0 -1.868,0.083 -2.653,0.532 -1.251,0.702 -11.034,6.957 -11.034,6.957 l -12.357,8.136 -9.576,6.345 c 0,0 -0.114,0.01 -0.344,0.01 -0.599,0 -1.984,-0.066 -4.183,-0.541 -2.016,-0.432 -3.42,-1.062 -3.42,-1.062 l 15.912,-26.208 -10.737,1.197 c 0,0 -0.135,0.012 -0.365,0.012 -0.207,0 -0.491,-0.01 -0.823,-0.048 -0.855,-0.09 -2.079,-0.333 -3.609,-0.657 -2.808,-0.603 -3.924,-1.107 -3.924,-1.107 l 13.185,-4.428 -4.266,-1.449 -0.657,-0.063 -0.027,-0.207 0.486,0.018 0.477,-3.438 -0.27,-0.189 0.009,-0.243 1.377,0.054"
         id="path3494" />
    </clipPath>
    <clipPath
       clipPathUnits="userSpaceOnUse"
       id="clipPath3484">
      <path
         inkscape:connector-curvature="0"
         d="m 424.929,28.442 189.936,0 0,35.046 -189.936,0 0,-35.046 z"
         id="path3486" />
    </clipPath>
    <clipPath
       clipPathUnits="userSpaceOnUse"
       id="clipPath3470">
      <path
         inkscape:connector-curvature="0"
         d="m 614.426,271.16 23.369,0 0,-242.696 -23.369,0 0,242.696 z"
         id="path3472" />
    </clipPath>
    <clipPath
       clipPathUnits="userSpaceOnUse"
       id="clipPath3462">
      <path
         inkscape:connector-curvature="0"
         d="m 646.3,28.677 -221.058,0 0,242.352 221.058,0 0,-242.352 m -203.94,83.034 0.36,-0.198 c 0,0 10.645,-0.074 17.611,-0.074 1.452,0 2.743,0.003 3.746,0.011 5.823,0.036 17.28,0.081 24.363,0.414 3.789,0.18 7.209,0.369 9.594,0.603 2.079,0.207 3.384,0.468 3.384,0.468 l -0.189,-0.594 0.999,0.243 0.324,0.639 3.879,0.837 -0.09,-1.287 0.243,0.009 0.63,1.512 c 0,0 4.977,1.224 6.939,1.611 1.953,0.378 4.284,0.99 4.284,0.99 l 0.351,0.045 c 0,0 7.974,0.612 14.463,1.926 5.436,1.098 14.94,3.285 14.94,3.285 l -2.556,-1.926 -0.027,-0.171 3.411,-0.603 1.008,-0.135 0.081,-0.207 0.414,-0.018 0.216,-0.234 3.114,0.081 c 0,0 0.153,-0.513 0.45,-0.882 0.288,-0.369 0.468,-0.54 0.675,-0.603 0.014,-0.003 0.042,-0.005 0.082,-0.005 0.591,0 3.888,0.365 6.389,1.013 2.673,0.684 6.21,1.539 6.651,2.772 0.441,1.224 0.171,1.809 -0.054,3.321 -0.234,1.512 -0.441,2.439 -0.441,2.439 l 0.342,0.225 0.207,0.036 c 0,0 4.203,0.54 7.533,1.395 1.701,0.432 3.321,0.873 4.437,1.368 1.053,0.468 1.629,0.999 1.629,0.999 l 0.828,0.135 0.27,0.216 c 0,0 10.098,2.286 14.697,3.285 4.599,0.999 9.585,2.016 13.887,3.564 2.457,0.882 5.058,1.89 7.254,2.988 1.638,0.828 3.051,1.746 4.005,2.448 2.223,1.638 4.518,3.177 4.455,4.842 -0.036,1.098 -1.287,1.746 -2.52,2.304 -1.152,0.522 -2.295,0.738 -2.295,0.738 0,0 -2.043,1.791 -4.446,2.187 -2.267,0.374 -4.59,0.651 -8.745,0.651 -0.249,0 -0.505,-0.001 -0.768,-0.003 -2.61,-0.018 -5.499,-0.171 -8.424,-0.585 -2.259,-0.324 -4.59,-0.864 -6.498,-1.251 -4.365,-0.891 -30.501,-6.426 -30.501,-6.426 l -0.999,0.828 -0.243,-0.009 0.558,-1.017 -10.791,-2.277 c 0,0 -4.374,1.89 -9.72,4.563 -8.721,4.374 -20.124,10.395 -20.124,10.395 l -0.882,0.558 -1.044,0.063 -0.117,0.27 0.171,0.252 -0.423,0.054 -0.288,0.333 -0.414,0.09 c 0,0 -6.399,-0.378 -7.497,-0.558 -1.098,-0.18 -1.377,-0.288 -1.377,-0.288 l -0.198,-0.18 0.792,0.09 1.332,-1.431 9.171,-9.117 c 0,0 -0.522,-0.27 -0.711,-0.369 l -0.072,-0.036 0.414,0.009 0.648,0.306 0.441,-0.477 0.819,0.369 0.306,0.036 0.063,-0.126 -0.333,-0.171 -0.036,-0.315 -1.053,-0.45 -0.423,-0.378 -0.099,-0.189 3.915,-4.815 c 0,0 -1.008,-0.837 -1.332,-1.116 -0.333,-0.27 -0.756,-0.648 -0.756,-0.648 l 0.072,-0.495 c 0,0 0.532,-0.08 1.108,-0.08 0.288,0 0.587,0.02 0.836,0.08 0.747,0.18 1.593,0.45 1.593,0.45 l 1.341,-1.692 -8.298,-1.836 c 0,0 -0.324,0.189 -0.936,0.189 -0.477,0 -1.125,-0.153 -1.809,-0.324 -1.575,-0.396 -1.998,-0.774 -1.998,-0.774 l -12.753,-2.736 -0.99,0.873 -0.36,-0.063 0.612,-1.071 -5.796,-1.197 -0.495,0.549 -0.432,-0.09 0.405,-0.612 c 0,0 -9.297,-2.007 -11.943,-2.646 -2.655,-0.648 -2.934,-0.765 -2.934,-0.765 0,0 -0.288,-0.028 -0.713,-0.028 -0.731,0 -1.868,0.083 -2.653,0.532 -1.251,0.702 -11.034,6.957 -11.034,6.957 l -12.357,8.136 -9.576,6.345 c 0,0 -0.114,0.01 -0.344,0.01 -0.599,0 -1.984,-0.066 -4.183,-0.541 -2.016,-0.432 -3.42,-1.062 -3.42,-1.062 l 15.912,-26.208 -10.737,1.197 c 0,0 -0.135,0.012 -0.365,0.012 -0.207,0 -0.491,-0.01 -0.823,-0.048 -0.855,-0.09 -2.079,-0.333 -3.609,-0.657 -2.808,-0.603 -3.924,-1.107 -3.924,-1.107 l 13.185,-4.428 -4.266,-1.449 -0.657,-0.063 -0.027,-0.207 0.486,0.018 0.477,-3.438 -0.27,-0.189 0.009,-0.243 1.377,0.054"
         id="path3464" />
    </clipPath>
    <clipPath
       clipPathUnits="userSpaceOnUse"
       id="clipPath3454">
      <path
         inkscape:connector-curvature="0"
         d="m 614.409,28.442 32.136,0 0,242.736 -32.136,0 0,-242.736 z"
         id="path3456" />
    </clipPath>
    <clipPath
       clipPathUnits="userSpaceOnUse"
       id="clipPath3440">
      <path
         inkscape:connector-curvature="0"
         d="m 425.197,271.16 189.644,0 0,-208.114 -189.644,0 0,208.114 z"
         id="path3442" />
    </clipPath>
    <clipPath
       clipPathUnits="userSpaceOnUse"
       id="clipPath3432">
      <path
         inkscape:connector-curvature="0"
         d="m 646.3,28.677 -221.058,0 0,242.352 221.058,0 0,-242.352 m -203.94,83.034 0.36,-0.198 c 0,0 10.645,-0.074 17.611,-0.074 1.452,0 2.743,0.003 3.746,0.011 5.823,0.036 17.28,0.081 24.363,0.414 3.789,0.18 7.209,0.369 9.594,0.603 2.079,0.207 3.384,0.468 3.384,0.468 l -0.189,-0.594 0.999,0.243 0.324,0.639 3.879,0.837 -0.09,-1.287 0.243,0.009 0.63,1.512 c 0,0 4.977,1.224 6.939,1.611 1.953,0.378 4.284,0.99 4.284,0.99 l 0.351,0.045 c 0,0 7.974,0.612 14.463,1.926 5.436,1.098 14.94,3.285 14.94,3.285 l -2.556,-1.926 -0.027,-0.171 3.411,-0.603 1.008,-0.135 0.081,-0.207 0.414,-0.018 0.216,-0.234 3.114,0.081 c 0,0 0.153,-0.513 0.45,-0.882 0.288,-0.369 0.468,-0.54 0.675,-0.603 0.014,-0.003 0.042,-0.005 0.082,-0.005 0.591,0 3.888,0.365 6.389,1.013 2.673,0.684 6.21,1.539 6.651,2.772 0.441,1.224 0.171,1.809 -0.054,3.321 -0.234,1.512 -0.441,2.439 -0.441,2.439 l 0.342,0.225 0.207,0.036 c 0,0 4.203,0.54 7.533,1.395 1.701,0.432 3.321,0.873 4.437,1.368 1.053,0.468 1.629,0.999 1.629,0.999 l 0.828,0.135 0.27,0.216 c 0,0 10.098,2.286 14.697,3.285 4.599,0.999 9.585,2.016 13.887,3.564 2.457,0.882 5.058,1.89 7.254,2.988 1.638,0.828 3.051,1.746 4.005,2.448 2.223,1.638 4.518,3.177 4.455,4.842 -0.036,1.098 -1.287,1.746 -2.52,2.304 -1.152,0.522 -2.295,0.738 -2.295,0.738 0,0 -2.043,1.791 -4.446,2.187 -2.267,0.374 -4.59,0.651 -8.745,0.651 -0.249,0 -0.505,-0.001 -0.768,-0.003 -2.61,-0.018 -5.499,-0.171 -8.424,-0.585 -2.259,-0.324 -4.59,-0.864 -6.498,-1.251 -4.365,-0.891 -30.501,-6.426 -30.501,-6.426 l -0.999,0.828 -0.243,-0.009 0.558,-1.017 -10.791,-2.277 c 0,0 -4.374,1.89 -9.72,4.563 -8.721,4.374 -20.124,10.395 -20.124,10.395 l -0.882,0.558 -1.044,0.063 -0.117,0.27 0.171,0.252 -0.423,0.054 -0.288,0.333 -0.414,0.09 c 0,0 -6.399,-0.378 -7.497,-0.558 -1.098,-0.18 -1.377,-0.288 -1.377,-0.288 l -0.198,-0.18 0.792,0.09 1.332,-1.431 9.171,-9.117 c 0,0 -0.522,-0.27 -0.711,-0.369 l -0.072,-0.036 0.414,0.009 0.648,0.306 0.441,-0.477 0.819,0.369 0.306,0.036 0.063,-0.126 -0.333,-0.171 -0.036,-0.315 -1.053,-0.45 -0.423,-0.378 -0.099,-0.189 3.915,-4.815 c 0,0 -1.008,-0.837 -1.332,-1.116 -0.333,-0.27 -0.756,-0.648 -0.756,-0.648 l 0.072,-0.495 c 0,0 0.532,-0.08 1.108,-0.08 0.288,0 0.587,0.02 0.836,0.08 0.747,0.18 1.593,0.45 1.593,0.45 l 1.341,-1.692 -8.298,-1.836 c 0,0 -0.324,0.189 -0.936,0.189 -0.477,0 -1.125,-0.153 -1.809,-0.324 -1.575,-0.396 -1.998,-0.774 -1.998,-0.774 l -12.753,-2.736 -0.99,0.873 -0.36,-0.063 0.612,-1.071 -5.796,-1.197 -0.495,0.549 -0.432,-0.09 0.405,-0.612 c 0,0 -9.297,-2.007 -11.943,-2.646 -2.655,-0.648 -2.934,-0.765 -2.934,-0.765 0,0 -0.288,-0.028 -0.713,-0.028 -0.731,0 -1.868,0.083 -2.653,0.532 -1.251,0.702 -11.034,6.957 -11.034,6.957 l -12.357,8.136 -9.576,6.345 c 0,0 -0.114,0.01 -0.344,0.01 -0.599,0 -1.984,-0.066 -4.183,-0.541 -2.016,-0.432 -3.42,-1.062 -3.42,-1.062 l 15.912,-26.208 -10.737,1.197 c 0,0 -0.135,0.012 -0.365,0.012 -0.207,0 -0.491,-0.01 -0.823,-0.048 -0.855,-0.09 -2.079,-0.333 -3.609,-0.657 -2.808,-0.603 -3.924,-1.107 -3.924,-1.107 l 13.185,-4.428 -4.266,-1.449 -0.657,-0.063 -0.027,-0.207 0.486,0.018 0.477,-3.438 -0.27,-0.189 0.009,-0.243 1.377,0.054"
         id="path3434" />
    </clipPath>
    <clipPath
       clipPathUnits="userSpaceOnUse"
       id="clipPath3424">
      <path
         inkscape:connector-curvature="0"
         d="m 424.929,63.032 189.936,0 0,208.146 -189.936,0 0,-208.146 z"
         id="path3426" />
    </clipPath>
    <clipPath
       clipPathUnits="userSpaceOnUse"
       id="clipPath3280">
      <path
         inkscape:connector-curvature="0"
         d="m 0.06,515.88 849.022,0 0,-31.156 -849.022,0 0,31.156 z"
         id="path3282" />
    </clipPath>
    <clipPath
       clipPathUnits="userSpaceOnUse"
       id="clipPath3272">
      <path
         style="clip-rule:evenodd"
         inkscape:connector-curvature="0"
         d="m -0.918,515.906 850.39,0 0,-515.91 -850.39,0 0,515.91 z"
         id="path3274" />
    </clipPath>
    <clipPath
       clipPathUnits="userSpaceOnUse"
       id="clipPath3264">
      <path
         inkscape:connector-curvature="0"
         d="m -0.918,515.906 850,0 0,-515 -850,0 0,515 z"
         id="path3266" />
    </clipPath>
    <clipPath
       clipPathUnits="userSpaceOnUse"
       id="clipPath3256">
      <path
         inkscape:connector-curvature="0"
         d="m -0.903,515.916 849.99,0 0,-515.01 -849.99,0 0,515.01 z"
         id="path3258" />
    </clipPath>
  </defs>
  <sodipodi:namedview
     inkscape:document-rotation="0"
     inkscape:window-maximized="0"
     inkscape:window-y="23"
     inkscape:window-x="0"
     inkscape:window-height="752"
     inkscape:window-width="1346"
     fit-margin-bottom="0"
     fit-margin-right="0"
     fit-margin-left="0"
     fit-margin-top="0"
     showgrid="false"
     inkscape:current-layer="layer1"
     inkscape:document-units="px"
     inkscape:cy="28.994022"
     inkscape:cx="56.896866"
     inkscape:zoom="8.0518544"
     inkscape:pageshadow="2"
     inkscape:pageopacity="0.0"
     borderopacity="1.0"
     bordercolor="#666666"
     pagecolor="#ffffff"
     id="base" />
  <metadata
     id="metadata7">
    <rdf:RDF>
      <cc:Work
         rdf:about="">
        <dc:format>image/svg+xml</dc:format>
        <dc:type
           rdf:resource="http://purl.org/dc/dcmitype/StillImage" />
        <dc:title />
      </cc:Work>
    </rdf:RDF>
  </metadata>
  <g
     transform="translate(48.869058,-312.05527)"
     id="layer1"
     inkscape:groupmode="layer"
     inkscape:label="Layer 1">
    <g
       style="fill:#cc0000;fill-opacity:1"
       transform="matrix(0.35131871,0,0,0.35131871,-129.43757,259.32541)"
       id="g4293">
      <g
         style="fill:#cc0000;fill-opacity:1"
         id="g4280"
         transform="matrix(2.9883675,0,0,-2.9883675,298.88136,261.10016)">
        <path
           inkscape:connector-curvature="0"
           d="M 0,0 1.76,0 1.684,2.097"
           style="fill:#cc0000;fill-opacity:1;fill-rule:nonzero;stroke:none"
           id="path4282" />
      </g>
      <g
         style="fill:#cc0000;fill-opacity:1"
         id="g4284"
         transform="matrix(2.9883675,0,0,-2.9883675,328.8816,227.3256)">
        <path
           sodipodi:nodetypes="cccccccccccccsssccccccccccccscccccccccccccccsccccc"
           inkscape:connector-curvature="0"
           d="m 0,0 c -4.689,-4.566 -11.701,-1.65 -10.988,3.954 0.55,4.322 5.849,8.626 9.859,10.964 l 0.002,0.049 c -0.523,0.498 -1.613,1.63 -2.316,2.479 -1.944,2.338 -5.344,2.437 -7.375,-0.128 L -22.354,16.242 V 16.17 l 12.368,-0.715 c 2.195,-0.125 2.909,-2.113 0.793,-3.717 -7.854,-5.947 -9.254,-12.248 -7.499,-17.239 l -0.059,-0.028 c -0.722,1.021 -1.261,2.272 -1.554,3.583 -3.775,2.371 -6.836,6.884 -6.836,12.454 0,8.099 6.6,14.767 14.765,14.767 8.165,0 14.767,-6.668 14.767,-14.767 C 4.391,6.128 2.471,2.406 0,0 m 12.473,0.887 c 0.15,1.453 0.111,3.535 -0.114,5.073 H 12.32 C 11.852,3.726 10.404,0.7 7.279,-1.77 l -0.035,0.045 c 2.738,2.924 4.375,6.529 4.629,10.243 -0.518,2.044 -1.318,4.021 -2.328,5.767 L 9.51,14.271 C 10.066,10.52 9.178,5.565 5.537,1.546 L 5.494,1.58 c 3.135,4.513 3.951,10.009 2.584,14.95 -4.178,5.65 -10.888,9.315 -18.454,9.315 -7.565,0 -14.274,-3.665 -18.453,-9.315 -1.368,-4.941 -0.552,-10.437 2.583,-14.95 l -0.04,-0.034 c -3.642,4.019 -4.528,8.974 -3.972,12.725 l -0.037,0.014 c -1.01,-1.746 -1.811,-3.723 -2.326,-5.767 0.252,-3.714 1.887,-7.319 4.626,-10.243 l -0.034,-0.045 c -3.126,2.47 -4.573,5.496 -5.041,7.73 h -0.039 c -0.225,-1.538 -0.264,-3.62 -0.114,-5.073 0.787,-2.471 2.473,-4.543 4.197,-6.036 l -0.031,-0.048 c -1.925,1.199 -3.003,2.371 -3.738,3.405 l -0.033,-0.013 c 2.115,-10.299 11.349,-18.227 22.452,-18.227 11.105,0 20.337,7.928 22.454,18.227 l -0.033,0.013 C 11.311,-2.826 10.232,-3.998 8.307,-5.197 l -0.03,0.048 c 1.723,1.493 3.407,3.565 4.196,6.036"
           style="fill:#cc0000;fill-opacity:1;fill-rule:nonzero;stroke:none"
           id="path4286" />
      </g>
    </g>
    <g
       transform="matrix(1.25,0,0,-1.25,-161.89562,852.66281)"
       id="g4340">
      <g
         clip-path="url(#clipPath4344)"
         id="g4342" />
    </g>
    <g
       transform="matrix(1.25,0,0,-1.25,-161.89562,852.66281)"
       id="g4952">
      <g
         clip-path="url(#clipPath4956)"
         id="g4954">
        <g
           id="g4960">
          <g
             clip-path="url(#clipPath4964)"
             id="g4962">
            <g
               id="g4968">
              <g
                 clip-path="url(#clipPath4972)"
                 id="g4970">
                <g
                   id="g4976">
                  <g
                     clip-path="url(#clipPath4980)"
                     id="g4978" />
                </g>
              </g>
            </g>
          </g>
        </g>
      </g>
    </g>
  </g>
</svg>
