<?xml version="1.0" encoding="UTF-8" standalone="no"?>
<svg
   xmlns:dc="http://purl.org/dc/elements/1.1/"
   xmlns:cc="http://creativecommons.org/ns#"
   xmlns:rdf="http://www.w3.org/1999/02/22-rdf-syntax-ns#"
   xmlns:svg="http://www.w3.org/2000/svg"
   xmlns="http://www.w3.org/2000/svg"
   xmlns:sodipodi="http://sodipodi.sourceforge.net/DTD/sodipodi-0.dtd"
   xmlns:inkscape="http://www.inkscape.org/namespaces/inkscape"
   sodipodi:docname="java_.svg"
   version="1.0"
   inkscape:version="1.0beta2 (2b71d25, 2019-12-03)"
   sodipodi:version="0.32"
   id="svg1968"
   viewBox="0 0 242.75197 460.24014"
   height="460.24014"
   width="242.75197">
  <defs
     id="defs1970" />
  <sodipodi:namedview
     inkscape:window-maximized="0"
     showgrid="false"
     inkscape:document-rotation="0"
     inkscape:window-y="23"
     inkscape:window-x="56"
     inkscape:window-height="574"
     inkscape:window-width="1121"
     units="mm"
     height="129.89mm"
     width="68.51mm"
     inkscape:current-layer="layer1"
     inkscape:document-units="px"
     inkscape:cy="230.12007"
     inkscape:cx="121.37598"
     inkscape:zoom="0.79523702"
     inkscape:pageshadow="2"
     inkscape:pageopacity="0.0"
     borderopacity="1.0"
     bordercolor="#666666"
     pagecolor="#ffffff"
     id="base" />
  <metadata
     id="metadata1973">
    <rdf:RDF>
      <cc:Work
         rdf:about="">
        <dc:format>image/svg+xml</dc:format>
        <dc:type
           rdf:resource="http://purl.org/dc/dcmitype/StillImage" />
      </cc:Work>
    </rdf:RDF>
  </metadata>
  <g
     transform="translate(3824.556,782.8939)"
     id="layer1"
     inkscape:groupmode="layer"
     inkscape:label="Ebene 1">
    <g
       transform="translate(-3826.724,-785.8793)"
       id="Ebene_x0020_1">
      <metadata
         id="CorelCorpID_0Corel-Layer" />
      <g
         id="_198302696">
        <path
           style="fill:#4e7896"
           id="_227268128"
           d="M 82.6262,243.321 C 82.6262,243.321 70.6871,250.5882 90.93145,252.66451 C 115.32815,255.77888 128.30555,255.26027 155.29775,250.06917 C 155.29775,250.06917 162.56495,254.74082 172.42745,258.37463 C 111.69475,284.32883 34.87045,256.81693 82.62615,243.32103 L 82.6262,243.321 z M 74.83977,209.5808 C 74.83977,209.5808 61.86287,219.44313 82.10697,221.5194 C 108.58047,224.11516 129.34377,224.63377 165.16037,217.36677 C 165.16037,217.36677 169.83223,222.55766 177.61827,225.1532 C 104.42767,246.9548 22.41227,227.22951 74.84027,209.5807 L 74.83977,209.5808 z M 218.10677,268.7562 C 218.10677,268.7562 226.93126,276.02361 208.24423,281.7331 C 173.46553,292.1149 62.38123,295.2292 31.23623,281.7331 C 20.33563,277.06166 41.09898,270.3133 47.84673,269.2752 C 54.5949,267.71812 58.22833,267.71812 58.22833,267.71812 C 46.28993,259.41266 -21.19117,284.84762 23.96883,292.11482 C 148.02983,312.35912 250.28983,283.29054 218.10583,268.75612 L 218.10677,268.7562 z M 88.33577,174.283 C 88.33577,174.283 31.75587,187.7791 68.09187,192.4508 C 83.66437,194.5269 114.29017,194.0083 142.83997,191.93177 C 166.19847,189.85546 189.55757,185.70283 189.55757,185.70283 C 189.55757,185.70283 181.25211,189.33622 175.54197,192.97024 C 117.92407,208.02324 7.35897,201.27528 39.02297,185.70283 C 66.01527,172.72553 88.33547,174.28303 88.33547,174.28303 L 88.33577,174.283 z M 189.55777,230.8629 C 247.69497,200.756 220.70287,171.6875 202.01567,175.3213 C 197.34381,176.35935 195.2675,177.39761 195.2675,177.39761 C 195.2675,177.39761 196.82479,174.28304 200.45818,173.24498 C 237.31338,160.26768 266.38198,212.17588 188.51978,232.42018 C 188.51978,232.42018 189.03839,231.90115 189.55783,230.86289 L 189.55777,230.8629 z M 94.04607,312.8782 C 150.10737,316.51201 235.75607,310.80189 237.83207,284.3288 C 237.83207,284.3288 233.67965,294.7106 191.63397,302.4964 C 143.87817,311.3211 84.70297,310.28283 49.92397,304.57271 C 49.92397,304.57271 57.19096,310.80186 94.04597,312.87817 L 94.04607,312.8782 z " />
        <path
           sodipodi:nodetypes="cccccccccccc"
           inkscape:connector-curvature="0"
           style="fill:#f58219"
           id="_230367536"
           d="m 154.26,2.98539 c 0,0 32.1832,32.7022 -30.6261,82.0153 -50.3512,39.9692 -11.4198,62.8088 0,88.7629 -29.5878,-26.4728 -50.8702,-49.8319 -36.336,-71.6335 21.2828,-32.1832 79.939,-47.7554 66.9621,-99.1446 z m -16.6105,148.977 c 15.053,17.1299 -4.15283,32.7026 -4.15283,32.7026 0,0 38.4121,-19.7253 20.7633,-44.1224 -16.0919,-23.3585 -28.5498,-34.7783 38.9311,-73.7098 0,0 -106.412,26.4735 -55.5416,85.1297 z" />
      </g>
    </g>
  </g>
</svg>
