<?xml version="1.0" encoding="UTF-8" standalone="no"?>
<svg
   xmlns:dc="http://purl.org/dc/elements/1.1/"
   xmlns:cc="http://creativecommons.org/ns#"
   xmlns:rdf="http://www.w3.org/1999/02/22-rdf-syntax-ns#"
   xmlns:svg="http://www.w3.org/2000/svg"
   xmlns="http://www.w3.org/2000/svg"
   xmlns:sodipodi="http://sodipodi.sourceforge.net/DTD/sodipodi-0.dtd"
   xmlns:inkscape="http://www.inkscape.org/namespaces/inkscape"
   sodipodi:docname="kia_.svg"
   inkscape:version="1.0beta2 (2b71d25, 2019-12-03)"
   version="1.1"
   id="svg2"
   height="167.47021"
   width="333.9082">
  <defs
     id="defs4" />
  <sodipodi:namedview
     inkscape:document-rotation="0"
     inkscape:window-maximized="1"
     inkscape:window-y="23"
     inkscape:window-x="0"
     inkscape:window-height="940"
     inkscape:window-width="1680"
     fit-margin-bottom="0"
     fit-margin-right="0"
     fit-margin-left="0"
     fit-margin-top="0"
     showgrid="false"
     inkscape:current-layer="layer1"
     inkscape:document-units="px"
     inkscape:cy="139.00872"
     inkscape:cx="238.47963"
     inkscape:zoom="1"
     inkscape:pageshadow="2"
     inkscape:pageopacity="0.0"
     borderopacity="1.0"
     bordercolor="#666666"
     pagecolor="#ffffff"
     id="base" />
  <metadata
     id="metadata7">
    <rdf:RDF>
      <cc:Work
         rdf:about="">
        <dc:format>image/svg+xml</dc:format>
        <dc:type
           rdf:resource="http://purl.org/dc/dcmitype/StillImage" />
        <dc:title />
      </cc:Work>
    </rdf:RDF>
  </metadata>
  <g
     transform="translate(-90.01231,-483.28295)"
     id="layer1"
     inkscape:groupmode="layer"
     inkscape:label="Calque 1">
    <path
       sodipodi:nodetypes="ccscsccsscccsccscccsccccccsssccccccscsscccccccccccccc"
       inkscape:connector-curvature="0"
       id="path2996"
       d="m 247.75605,650.63158 c -11.07296,-0.29197 -23.28388,-1.2664 -34.09302,-2.72066 -46.01936,-6.19132 -84.58205,-21.9716 -106.04989,-43.39679 -9.10364,-9.08555 -14.872517,-19.06791 -16.817948,-29.10146 -0.633564,-3.26756 -0.782882,-4.86858 -0.782882,-8.39387 0,-3.52528 0.149318,-5.12632 0.782882,-8.39386 1.278827,-6.59553 4.316026,-13.39614 8.797615,-19.69871 10.135183,-14.25339 27.919323,-26.94294 51.253783,-36.57121 38.89161,-16.04745 89.81559,-22.40414 139.40403,-17.40137 58.21223,5.87278 106.10009,27.11552 125.10254,55.49467 8.68722,12.97393 10.81535,27.0654 6.16734,40.83762 -2.68417,7.95326 -7.89899,15.90121 -15.24059,23.22819 -20.34051,20.30011 -56.13741,35.60808 -99.10426,42.38039 -19.21633,3.02884 -39.02714,4.27479 -59.4196,3.73706 z m 25.38754,-10.71117 c 23.3003,-1.4424 42.97576,-4.86728 62.14946,-10.81828 15.213,-4.72171 29.39365,-11.25837 40.28077,-18.56772 5.48651,-3.68352 9.29224,-6.79215 13.59665,-11.10608 5.11164,-5.12299 8.41015,-9.61788 11.09594,-15.12052 3.00437,-6.15538 4.16763,-10.981 4.16763,-17.28901 0,-6.34468 -1.23936,-11.4273 -4.28246,-17.562 -2.63142,-5.30481 -5.98825,-9.84359 -10.98111,-14.84753 -7.33256,-7.3488 -16.0431,-13.40936 -27.55537,-19.17222 -21.55094,-10.78809 -48.51488,-17.84623 -78.55308,-20.5622 -16.63752,-1.50434 -35.53968,-1.50508 -52.231,-0.002 -42.2311,3.80279 -78.48303,16.33869 -100.91323,34.89581 -2.84517,2.35387 -7.9169,7.47438 -10.04279,10.13936 -7.60112,9.52865 -11.18954,19.81006 -10.3719,29.71723 0.89081,10.79365 5.75145,20.31144 15.22014,29.80314 7.17246,7.1899 15.70031,13.16577 26.79067,18.77352 25.25452,12.76978 56.28649,20.08825 92.78434,21.88196 4.1221,0.20259 24.82801,0.0853 28.84534,-0.16339 z m -27.02985,-30.65878 c -0.30272,-0.13314 -0.65078,-0.46239 -0.77345,-0.73168 -0.1739,-0.38161 -0.22309,-9.03991 -0.22309,-39.25882 v -38.76922 l -0.53197,-0.53196 c -0.51391,-0.5139 -0.59116,-0.53197 -2.27487,-0.53197 h -1.7429 v -2.54786 -2.54785 h 13.46435 13.46437 l 0.59433,0.53105 0.59434,0.53102 v 41.50443 41.50442 l -0.50452,0.50462 -0.50451,0.5046 -10.50585,0.0407 c -8.41512,0.0325 -10.61538,-0.008 -11.05623,-0.20144 z"
       style="fill:#c41230;fill-opacity:1" />
  </g>
</svg>
