<?xml version="1.0" encoding="UTF-8" standalone="no"?>
<!-- Created with Inkscape (http://www.inkscape.org/) -->

<svg
   xmlns:dc="http://purl.org/dc/elements/1.1/"
   xmlns:cc="http://creativecommons.org/ns#"
   xmlns:rdf="http://www.w3.org/1999/02/22-rdf-syntax-ns#"
   xmlns:svg="http://www.w3.org/2000/svg"
   xmlns="http://www.w3.org/2000/svg"
   xmlns:sodipodi="http://sodipodi.sourceforge.net/DTD/sodipodi-0.dtd"
   xmlns:inkscape="http://www.inkscape.org/namespaces/inkscape"
   width="319.23459"
   height="37.385811"
   id="svg4835"
   version="1.1"
   inkscape:version="0.48.4 r9939"
   sodipodi:docname="New document 4">
  <defs
     id="defs4837" />
  <sodipodi:namedview
     id="base"
     pagecolor="#ffffff"
     bordercolor="#666666"
     borderopacity="1.0"
     inkscape:pageopacity="0.0"
     inkscape:pageshadow="2"
     inkscape:zoom="0.98994949"
     inkscape:cx="96.197071"
     inkscape:cy="-21.147089"
     inkscape:document-units="px"
     inkscape:current-layer="layer1"
     showgrid="false"
     fit-margin-top="0"
     fit-margin-left="0"
     fit-margin-right="0"
     fit-margin-bottom="0"
     inkscape:window-width="1440"
     inkscape:window-height="844"
     inkscape:window-x="-4"
     inkscape:window-y="-4"
     inkscape:window-maximized="1" />
  <metadata
     id="metadata4840">
    <rdf:RDF>
      <cc:Work
         rdf:about="">
        <dc:format>image/svg+xml</dc:format>
        <dc:type
           rdf:resource="http://purl.org/dc/dcmitype/StillImage" />
        <dc:title></dc:title>
      </cc:Work>
    </rdf:RDF>
  </metadata>
  <g
     inkscape:label="Layer 1"
     inkscape:groupmode="layer"
     id="layer1"
     transform="translate(-350.61803,-469.15066)">
        <path
       inkscape:connector-curvature="0"
       id="path3197"
       style="fill:#ed192d;fill-opacity:1;fill-rule:nonzero;stroke:none"
       d="m 414.12673,476.5885 c 5.68688,1.74557 9.8243,7.04025 9.8243,13.31267 0,0.92249 -0.0939,1.80632 -0.25962,2.66529 l -0.0221,0.12153 c -0.43087,2.45814 -1.4307,4.73124 -2.84758,6.65357 l -0.0276,0.0305 c 2.49129,-3.17074 3.98275,-7.18111 3.98275,-11.53948 0,-10.31317 -8.36599,-18.68192 -18.68744,-18.68192 -4.69534,0 -8.98191,1.73727 -12.26864,4.60143 l -0.0469,0.0415 c -2.58796,2.37529 -4.2037,5.78631 -4.2037,9.57296 0,1.56051 0.27067,3.07407 0.78439,4.4661 l 0.025,0.0663 c 1.30089,2.8393 4.17056,4.82239 7.50149,4.82239 4.54896,0 8.24446,-3.68446 8.24446,-8.2417 l -0.025,-3.54636 c 0,-1.61851 0.91145,-3.0492 2.251,-3.77836 l 0.0133,-0.004 c 1.04679,-0.57173 2.24272,-0.90869 3.52979,-0.90869 0.77611,0 1.51908,0.11601 2.22062,0.33972 l 0.0111,0.009" />
  </g>
</svg>
