<?xml version="1.0" encoding="UTF-8" standalone="no"?>
<!DOCTYPE svg PUBLIC "-//W3C//DTD SVG 1.0//EN" "http://www.w3.org/TR/2001/REC-SVG-20010904/DTD/svg10.dtd">
<!-- Generator: Adobe Illustrator 13.0.0, SVG Export Plug-In . SVG Version: 6.00 Build 14948)  -->
<svg
   xmlns:dc="http://purl.org/dc/elements/1.1/"
   xmlns:cc="http://creativecommons.org/ns#"
   xmlns:rdf="http://www.w3.org/1999/02/22-rdf-syntax-ns#"
   xmlns:svg="http://www.w3.org/2000/svg"
   xmlns="http://www.w3.org/2000/svg"
   xmlns:sodipodi="http://sodipodi.sourceforge.net/DTD/sodipodi-0.dtd"
   xmlns:inkscape="http://www.inkscape.org/namespaces/inkscape"
   version="1.0"
   id="Livello_1"
   x="0px"
   y="0px"
   width="192.756px"
   height="192.754px"
   viewBox="0 0 192.756 192.754"
   enable-background="new 0 0 192.756 192.754"
   xml:space="preserve"
   sodipodi:version="0.32"
   inkscape:version="0.46"
   sodipodi:docname="Lancia_Logo.svg"
   inkscape:output_extension="org.inkscape.output.svg.inkscape"><metadata
   id="metadata32"><rdf:RDF><cc:Work
       rdf:about=""><dc:format>image/svg+xml</dc:format><dc:type
         rdf:resource="http://purl.org/dc/dcmitype/StillImage" /></cc:Work></rdf:RDF></metadata><defs
   id="defs30"><inkscape:perspective
   sodipodi:type="inkscape:persp3d"
   inkscape:vp_x="0 : 96.376999 : 1"
   inkscape:vp_y="0 : 1000 : 0"
   inkscape:vp_z="192.756 : 96.376999 : 1"
   inkscape:persp3d-origin="96.377998 : 64.251333 : 1"
   id="perspective34" />
</defs><sodipodi:namedview
   inkscape:window-height="750"
   inkscape:window-width="1280"
   inkscape:pageshadow="2"
   inkscape:pageopacity="0.0"
   guidetolerance="10.0"
   gridtolerance="10.0"
   objecttolerance="10.0"
   borderopacity="1.0"
   bordercolor="#666666"
   pagecolor="#ffffff"
   id="base"
   showgrid="false"
   inkscape:zoom="2.3968374"
   inkscape:cx="96.377998"
   inkscape:cy="94.139402"
   inkscape:window-x="-8"
   inkscape:window-y="-8"
   inkscape:current-layer="Livello_1" />
<path
   style="fill:#e6e7e8"
   id="path5"
   d="M 96.025,192.409 C 94.109,191.687 80.145,184.886 76.378,182.838 C 50.32,168.678 32.982,151.662 18.849,126.38 C 9.301,109.296 4.212,91.082 2.542,68 C 2.165,62.804 2.354,45.652 2.853,39.602 L 3.071,36.961 L 6.868,34.058 C 20.69,23.491 37.119,14.474 51.574,9.521 C 59.841,6.688 69.749,4.419 79.846,3.046 C 87.267,2.037 105.15,1.952 112.372,2.89 C 129.721,5.144 142.974,9.036 157.61,16.175 C 168.684,21.577 180.392,29.024 189.248,36.299 L 190.454,37.29 L 190.831,44.06 C 191.299,52.428 191.037,68.658 190.335,74.882 C 189.179,85.14 187.767,92.061 184.82,101.924 C 182.316,110.307 180.783,114.188 177.083,121.494 C 169.712,136.054 161.769,147.114 150.866,157.999 C 138.146,170.698 125.937,178.909 105.05,188.813 C 97.3,192.487 96.781,192.694 96.025,192.409 L 96.025,192.409 z M 29.062,125.557 C 28.695,124.956 27.348,122.369 26.067,119.807 C 19.005,105.676 14.777,91.148 12.963,74.768 C 12.33,69.05 11.983,51.488 12.395,46.04 L 12.683,42.242 L 11.758,40.954 C 10.609,39.355 10.609,39.232 11.769,39 C 12.285,38.897 13.436,38.243 14.328,37.547 C 18.639,34.183 27.312,28.489 31.936,25.988 C 40.035,21.607 40.656,21.384 58.383,16.472 C 65.461,14.511 71.484,13.048 76.049,12.181 C 79.047,11.612 80.419,11.036 78.777,11.036 C 78.297,11.036 77.806,10.877 77.686,10.683 C 77.341,10.124 78.476,9.488 81.497,8.548 C 83.041,8.067 84.437,7.547 84.6,7.392 C 85.201,6.818 83.01,6.669 79.223,7.029 C 59.804,8.872 38.564,16.855 19.914,29.319 C 17.189,31.139 13.206,33.803 11.06,35.238 L 7.16,37.847 L 8.503,39.086 C 9.73,40.219 9.823,40.42 9.596,41.447 C 9.208,43.192 9.359,62.814 9.8,68.162 C 10.754,79.71 12.462,88.44 15.998,99.862 C 19.144,110.016 24.227,120.531 28.48,125.677 C 29.681,127.135 29.987,127.07 29.062,125.557 L 29.062,125.557 z M 172.231,118.027 C 176.675,109.211 178.771,103.786 180.589,96.398 C 181.515,92.631 182.232,87.245 181.746,87.69 C 181.621,87.805 180.868,90.405 180.072,93.469 C 176.907,105.645 174.55,112.2 170.106,121.163 C 168.755,123.888 167.952,125.745 168.319,125.291 C 168.687,124.837 170.447,121.568 172.231,118.027 L 172.231,118.027 z M 42.202,54.31 C 42.202,54.133 42.485,53.837 42.832,53.651 C 43.179,53.465 43.808,52.755 44.228,52.07 C 44.649,51.387 46.124,49.565 47.506,48.021 C 54.558,40.144 61.185,35.131 69.825,31.137 C 73.722,29.335 76.176,28.475 81.496,27.043 C 83.948,26.383 86.095,25.707 86.268,25.54 C 86.44,25.373 86.96,25.227 87.424,25.215 C 88.229,25.194 88.219,25.171 87.166,24.647 C 86.126,24.13 85.874,24.14 82.543,24.827 C 70.106,27.395 57.9,34.124 49.233,43.19 C 45.98,46.594 42.26,51.39 41.132,53.635 C 40.721,54.452 40.176,55.381 39.922,55.699 C 39.609,56.088 39.582,56.277 39.839,56.277 C 40.048,56.277 40.22,56.522 40.22,56.822 C 40.22,57.145 40.623,56.811 41.211,55.999 C 41.755,55.248 42.202,54.487 42.202,54.31 L 42.202,54.31 z" />
    <path
   style="fill:#acafb2"
   id="path7"
   d="M 91.073,189.561 C 78.543,183.652 70.777,179.409 63.169,174.317 C 43.811,161.36 29.127,144.796 17.648,122.967 C 11.522,111.313 6.976,97.199 4.722,82.836 C 3.143,72.774 2.802,66.672 3.042,52.81 C 3.16,45.908 3.344,39.62 3.449,38.835 C 3.628,37.501 3.847,37.244 6.824,34.874 C 21.992,22.794 41.732,12.638 59.51,7.766 C 72.194,4.291 83.622,2.747 96.687,2.746 C 108.892,2.745 119.14,4.034 131.524,7.128 C 150.799,11.943 171.79,22.881 189.688,37.438 C 190.716,38.274 190.941,63.579 190.005,73.119 C 188.938,84.011 187.453,91.459 184.188,102.333 C 180.427,114.857 175.871,124.301 167.537,136.851 C 161.858,145.401 157.617,150.605 150.705,157.506 C 139.324,168.869 127.84,176.912 110.926,185.369 C 103.602,189.03 97.186,191.998 96.623,191.986 C 96.385,191.98 93.888,190.889 91.073,189.561 L 91.073,189.561 z M 105.019,184.642 C 113.932,180.134 117.437,178.083 119.439,176.204 L 130.362,170.237 L 148.622,156.895 L 173.057,123.843 L 185.922,87.898 L 188.258,58.623 L 186.912,39.201 L 167.689,24.71 L 144.051,13.519 C 137.419,10.484 123.112,6.842 111.546,5.243 C 105.597,4.422 90.525,4.229 83.911,4.891 C 70.176,6.266 57.383,9.334 47.09,13.721 C 34.59,19.048 27.769,22.788 15.29,31.152 C 6.723,36.894 6.365,37.175 6.146,38.363 C 6.022,39.043 5.819,43.462 5.695,48.185 C 4.963,76.055 9.65,99.845 19.906,120.324 C 36.081,151.275 63.18,176.642 96.433,188.345 C 97.367,188.359 99.45,187.459 105.019,184.642 L 105.019,184.642 z" />
    <path
   style="fill:#01336b"
   id="path9"
   d="M 90.743,176.438 C 73.165,167.312 62.726,160.041 52.417,149.743 C 42.883,140.22 36.628,131.859 30.015,119.803 C 18.736,99.241 14.396,76.376 16.337,47.748 L 16.546,44.667 L 19.715,42.276 C 34.405,31.19 49.921,23.34 64.82,19.455 C 76.183,16.492 84.069,15.504 96.356,15.504 C 107.684,15.504 113.81,16.174 124.589,18.594 C 138.091,21.624 152.735,28.121 165.866,36.906 C 171.275,40.525 176.428,44.441 176.733,45.164 C 176.898,45.556 177.046,51.969 177.062,59.414 C 177.09,71.769 177.028,73.43 176.344,78.402 C 173.555,98.673 167.923,113.696 156.909,130.245 C 145.861,146.845 131.592,160.096 113.691,170.373 C 110.179,172.389 97.848,178.962 97.015,179.261 C 96.744,179.359 93.92,178.088 90.743,176.438 L 90.743,176.438 z" />
    <path
   style="fill:#e6e7e8"
   id="path11"
   d="M 103.881,156.312 C 115.891,155.004 127.442,150.499 137.062,143.368 C 140.366,140.92 146.23,135.263 148.956,131.896 C 155.849,123.379 160.625,113.29 162.95,102.341 C 163.806,98.305 163.862,97.546 163.87,89.628 C 163.878,82.291 163.787,80.72 163.151,77.41 C 159.328,57.471 147.364,40.758 129.658,30.623 C 123.451,27.068 115.452,24.248 107.749,22.895 C 102.608,21.993 92.512,21.815 87.605,22.54 C 70.904,25.01 56.169,32.962 45.59,45.215 C 30.482,62.713 25.41,85.856 31.805,108.121 C 37,126.21 50.328,141.901 67.462,150.1 C 73.674,153.074 82.242,155.528 89.091,156.297 C 92.722,156.706 100.202,156.713 103.881,156.312 L 103.881,156.312 z M 86.78,147.92 C 66.325,144.47 48.559,130.275 41.193,111.497 C 38.355,104.262 37.264,99.001 37.009,91.326 C 36.801,85.026 37.234,80.553 38.565,75.263 C 44.351,52.278 62.105,35.276 84.916,30.874 C 89.983,29.896 90.337,29.927 90.953,31.401 C 92.337,34.713 93.602,41.573 94.87,52.639 C 95.403,53.648 94.73,61.293 96.945,60.362 C 97.363,60.099 97.58,59.313 97.766,57.397 C 99.102,43.595 101.255,32.149 102.819,30.535 C 103.224,30.117 103.712,30.125 106.673,30.603 C 118.84,32.566 129.937,38.327 138.955,47.361 C 143.684,52.097 146.668,56.123 149.503,61.588 C 154.636,71.484 156.764,80.72 156.361,91.357 C 156.155,96.765 155.658,100.067 154.294,105.073 C 148.577,126.059 131.213,142.521 109.871,147.191 C 107.796,147.645 105.391,148.114 104.522,148.232 L 102.946,148.448 L 102.418,147.189 C 100.841,143.431 98.836,132.352 98.008,122.813 C 97.804,120.454 97.561,118.261 97.47,117.944 C 97.301,117.354 96.205,117.143 95.897,117.64 C 95.805,117.791 95.347,121.286 94.881,125.407 C 93.486,137.761 91.583,147.342 90.369,148.11 C 89.835,148.448 89.934,148.454 86.78,147.92 L 86.78,147.92 z" />
    <path
   style="fill:#8d9093"
   id="path13"
   d="M 91.073,152.176 C 90.8,152.113 88.794,151.915 86.615,151.737 C 82.734,151.421 78.4,150.387 74.317,148.81 C 72.437,148.084 69.48,146.444 69.683,146.241 C 69.752,146.173 70.99,146.577 72.433,147.141 C 78.806,149.632 81.182,150.132 87.771,150.374 C 92.541,150.55 94.165,150.727 95.175,151.181 C 96.163,151.626 96.358,151.834 95.999,152.061 C 95.555,152.343 92.133,152.423 91.073,152.176 L 91.073,152.176 z M 97.023,152.049 C 96.605,151.784 96.548,150.144 96.627,140.579 C 96.678,134.44 97.074,128.091 97.051,126.446 C 97.003,122.95 97.147,118.026 96.655,118.026 C 96.968,117.933 97.348,118.297 97.398,119.066 C 97.636,122.813 97.836,139.356 98.955,146.034 C 99.646,150.174 100.635,150.436 105.303,150.669 C 111.035,150.429 114.173,149.756 120.272,147.455 C 122.255,146.709 123.939,146.157 124.013,146.231 C 124.299,146.518 120.999,148.178 118.076,149.219 C 113.922,150.698 109.579,151.589 104.448,152.014 C 99.243,152.447 97.663,152.456 97.023,152.049 L 97.023,152.049 z" />
    <path
   style="fill:#8d9093"
   id="path15"
   d="M 96.658,59.909 C 97.151,59.909 97.412,54.274 97.054,51.324 C 96.521,46.922 96.425,26.687 96.934,26.178 C 97.645,25.467 105.633,26.324 111.05,27.692 C 116.667,29.111 119.778,30.286 124.754,32.867 C 128.397,34.757 131.899,37.025 131.611,37.311 C 131.537,37.386 129.406,36.41 126.876,35.143 C 120.91,32.154 117.931,31.097 111.97,29.858 C 109.283,29.299 105.948,28.551 104.556,28.196 C 101.298,27.364 100.47,27.382 99.474,28.305 C 98.754,28.972 98.623,29.478 98.336,32.68 C 98.096,35.37 98.12,36.971 98.432,38.912 C 98.353,43.919 99.483,46.788 96.658,59.909 L 96.658,59.909 z" />
    <path
   style="fill:#5f6269"
   id="path17"
   d="M 90.743,188.904 C 78.599,183.133 71.55,179.31 64.326,174.577 C 46.752,163.062 33.143,148.518 21.758,129.09 C 11.224,111.112 5.531,92.092 3.868,69.321 C 3.465,63.796 3.669,41.975 4.151,39.106 C 4.638,36.213 4.845,38.387 4.547,43.254 C 2.734,72.888 8.007,101.409 19.169,122.319 C 29.642,141.941 42.295,156.719 59.111,168.972 C 65.869,173.896 77.639,180.795 90.083,187.123 C 95.424,189.841 96.705,190.369 97.599,190.226 C 98.19,190.132 100.568,189.195 102.882,188.144 C 111.852,184.073 119.581,179.755 122.647,177.103 C 123.472,176.388 127.201,173.634 130.93,170.984 C 134.659,168.333 139.451,164.706 141.579,162.923 C 160.146,147.365 175.269,124.751 182.198,102.182 C 186.547,88.021 188.83,71.418 188.807,54.13 C 188.797,46.928 188.393,39.117 187.973,38.023 C 187.803,37.578 187.935,37.454 188.584,37.454 C 189.326,37.454 189.436,37.621 189.615,39.023 C 190.116,42.944 190.415,57.536 190.129,64.061 C 189.479,78.827 187.886,88.546 183.99,101.488 C 181.338,110.302 179.884,114.002 176.254,121.164 C 168.34,136.788 157.7,151.108 146.585,161.1 C 135.768,170.824 126.697,176.837 111.031,184.674 C 105.046,187.667 96.71,191.689 96.557,191.657 C 96.539,191.653 93.92,190.415 90.743,188.904 L 90.743,188.904 z M 90.501,183.09 C 81.742,178.528 70.18,171.127 66.44,167.686 C 64.977,166.34 64.987,166.346 70.112,169.543 C 75.058,172.63 81.597,176.214 89.171,179.987 L 96.351,183.564 L 100.894,181.309 C 115.996,173.815 125.51,167.934 134.554,160.508 C 148.554,149.012 159.13,136.148 167.804,120.062 C 177.299,102.455 181.867,82.828 181.881,59.578 C 181.885,53.261 181.282,42.326 180.868,41.211 C 180.417,39.997 167.217,30.794 160.114,26.741 C 152.558,22.43 143.135,18.22 133.35,14.781 C 130.541,13.794 128.163,12.906 128.066,12.808 C 127.523,12.259 136.102,14.28 140.962,15.846 C 149.158,18.488 158.193,22.691 165.699,27.355 C 169.123,29.482 178.928,36.62 181.82,39.09 C 182.515,39.684 182.618,40.167 182.928,44.297 C 183.377,50.241 183.067,68.011 182.414,73.809 C 181.131,85.211 178.033,98.436 174.224,108.781 C 172.261,114.111 166.963,125.032 163.891,130.08 C 161.42,134.14 155,143.384 152.196,146.922 C 147.191,153.233 134.666,164.938 129.303,168.317 C 125.339,170.813 108.544,179.463 101.566,182.599 C 99.438,183.557 97.261,184.651 96.727,185.031 C 96.193,185.412 95.705,185.719 95.642,185.716 C 95.582,185.711 93.267,184.531 90.501,183.09 L 90.501,183.09 z M 97.346,151.715 C 96.925,151.445 96.868,150.229 96.96,143.386 C 97.081,134.541 97.638,131.311 97.689,139.16 C 97.729,145.468 98.113,149.404 98.732,149.864 C 99.407,150.365 99.719,151.708 99.16,151.708 C 98.92,151.708 98.525,151.78 98.282,151.87 C 98.04,151.959 97.619,151.889 97.346,151.715 L 97.346,151.715 z M 91.238,151.378 C 90.971,150.947 93.709,150.947 94.375,151.378 C 94.731,151.607 94.385,151.699 93.156,151.703 C 92.213,151.707 91.35,151.56 91.238,151.378 L 91.238,151.378 z M 49.797,47.766 C 49.8,47.259 53.507,43.403 56.13,41.181 C 61.777,36.394 69.626,31.965 76.112,29.904 C 82.494,27.876 94.375,25.683 94.375,26.532 C 94.375,26.728 94.321,26.888 94.253,26.888 C 93.119,26.888 87.322,28.225 82.818,29.526 C 74.373,31.965 65.878,36.235 58.383,41.808 C 53.438,45.485 49.796,48.013 49.797,47.766 L 49.797,47.766 z M 97.261,42.738 C 96.887,40.232 96.646,28.435 96.948,27.383 L 97.232,26.392 L 100.84,26.506 C 104.825,26.631 109.497,27.42 114.01,28.728 C 116.82,29.542 121.121,31.294 121.121,31.623 C 121.121,31.707 120.415,31.561 119.554,31.299 C 116.002,30.218 103.241,27.203 101.404,27.011 C 99.664,26.829 99.401,26.878 99.205,27.424 C 99.083,27.765 98.752,28.459 98.471,28.966 C 98.076,29.675 97.905,31.541 97.721,37.056 C 97.569,41.63 97.402,43.687 97.261,42.738 L 97.261,42.738 z M 14.169,76.35 C 13.506,71 13.191,66.852 12.971,60.569 C 12.739,53.952 13.215,42.864 13.754,42.324 C 13.981,42.098 14.316,42.352 14.79,43.107 C 15.363,44.022 15.457,44.554 15.307,46.041 C 14.173,57.307 13.927,65.746 14.492,73.918 C 14.688,76.262 15.008,82.672 14.169,76.35 L 14.169,76.35 z M 182.848,34.234 C 179.472,31.971 176.631,29.79 176.612,29.447 C 176.583,28.918 177.371,29.259 179.658,30.766 C 181.727,32.129 186.304,36.092 185.845,36.121 C 185.753,36.127 184.404,35.278 182.848,34.234 L 182.848,34.234 z" />
    <path
   style="fill:#8d9093"
   id="path19"
   d="M 89.061,188.416 C 70.621,179.621 59.908,172.862 48.623,162.904 C 32.062,148.288 17.867,127.066 10.728,106.253 C 4.707,88.695 2.292,69.926 3.219,47.856 C 3.476,41.717 3.759,38.082 4.007,37.728 C 4.611,36.862 9.626,32.886 13.897,29.887 C 24.254,22.613 36.721,16.022 48.167,11.768 C 76.724,1.153 107.918,0.21 137.303,9.074 C 152.896,13.777 172.737,24.263 185.679,34.64 C 187.313,35.951 188.896,37.11 189.197,37.216 C 190.045,37.515 190.303,42.176 190.296,56.937 C 190.287,70.88 190.032,74.416 188.299,84.675 C 187.264,90.798 186.319,94.693 184.008,102.367 C 180.287,114.724 175.456,124.72 167.259,137.013 C 153.684,157.375 137.834,171.247 114.024,183.604 C 106.818,187.343 97.466,191.665 96.585,191.661 C 96.186,191.659 92.8,190.198 89.061,188.416 L 89.061,188.416 z M 103.268,187.206 C 108.583,184.723 111.718,183.002 112.867,181.934 C 113.322,181.514 115.847,179.866 118.481,178.274 C 132.9,169.559 142.347,162.324 150.841,153.49 C 159.613,144.367 166.263,135.249 172.725,123.476 C 183.237,104.33 188.214,82.052 188.293,53.801 C 188.308,48.534 188.199,42.958 188.049,41.408 C 187.785,38.657 187.752,38.576 186.648,37.941 C 162.24,19.8 141.545,8.945 111.712,4.544 C 105.192,3.695 87.611,3.687 81.166,4.529 C 67.27,6.344 55.303,9.398 46.995,13.25 C 31.599,20.386 27.252,22.75 16.775,29.688 C 12.871,32.273 8.766,34.939 7.655,35.612 L 5.634,36.836 L 5.432,39.045 C 4.947,44.328 4.807,59.638 5.19,65.524 C 7.017,93.643 13.678,114.234 27.836,135.529 C 32.718,142.874 37.54,148.731 44.166,155.372 C 56.301,167.53 67.083,174.866 88.837,185.761 C 95.868,189.283 96.912,189.709 97.959,189.489 C 98.384,189.397 100.774,188.37 103.268,187.206 L 103.268,187.206 z M 90.248,183.448 C 80.601,178.4 71.639,172.634 64.194,166.685 C 59.944,163.289 52.439,156.438 52.439,155.955 C 52.439,155.769 53.07,156.156 53.842,156.817 C 60.244,162.289 69.613,168.84 77.204,173.153 C 82.783,176.321 95.509,182.749 96.205,182.749 C 96.905,182.749 110.061,176.161 115.178,173.249 C 138.376,160.045 154.899,143.158 167.756,119.514 C 173.273,109.368 177.489,97.02 179.541,85.007 C 180.989,76.522 181.88,61.145 181.399,52.894 C 180.973,45.114 182.94,43.038 176.515,38.182 C 157.879,24.56 142.128,17.164 120.837,12.04 C 117.685,11.281 114.787,10.532 114.399,10.375 C 113.202,9.892 116.4,9.991 120.533,10.566 C 138.638,13.084 153.426,18.656 168.508,28.647 C 172.816,31.5 181.216,37.86 182.542,39.272 L 183.367,40.151 L 183.363,54.571 C 183.358,70.416 183.143,73.345 181.205,83.885 C 178.103,100.764 172.759,115.587 165.01,128.799 C 162.95,132.312 157.387,140.523 153.526,145.751 C 148.905,152.006 136.846,163.893 130.599,168.351 C 128.214,170.052 110.257,179.208 102.357,182.75 C 99.753,183.917 97.483,185.137 97.31,185.461 C 96.748,186.508 95.315,186.1 90.248,183.448 L 90.248,183.448 z M 15.134,70.311 L 15.295,74.181 C 15.837,87.205 19.71,102.568 25.616,115.114 C 28.758,121.79 33.352,129.445 38.657,136.849 C 40.023,138.756 41.937,141.426 42.909,142.783 C 43.882,144.139 47.485,148.077 50.915,151.534 C 54.347,154.99 56.724,157.439 56.199,156.975 C 43.384,145.666 33.895,133.403 26.704,118.853 C 19.239,103.748 15.607,91.505 13.579,74.603 C 12.823,68.309 12.683,43.415 13.397,42.166 C 14.877,39.576 30.846,28.929 38.898,25.163 C 42.122,23.655 48.287,21.266 48.891,21.29 C 49.117,21.299 47.511,22.165 45.324,23.215 C 37.919,26.769 31.788,30.456 23.542,36.312 C 21.908,37.473 19.271,39.203 17.681,40.157 C 16.092,41.111 14.791,42.049 14.791,42.241 L 15.134,70.311 L 15.134,70.311 z M 57.679,158.065 C 57.269,157.542 57.28,157.53 57.804,157.941 C 58.354,158.372 58.53,158.642 58.257,158.642 C 58.188,158.642 57.929,158.383 57.679,158.065 L 57.679,158.065 z" />
    <path
   style="fill:#8d9093"
   id="path25"
   d="M 150.161,50.498 C 151.389,52.576 151.712,53.228 153.509,57.269 C 154.438,59.357 155.556,61.85 155.992,62.809 C 156.428,63.767 156.785,64.623 156.785,64.71 C 156.785,64.798 157.394,66.295 158.139,68.038 C 159.863,72.071 160.651,75.917 161.088,82.435 C 161.674,91.129 160.684,100.224 158.368,107.46 C 157.343,110.658 154.912,116.264 154.658,116.011 C 154.581,115.934 155.179,114.049 155.988,111.823 C 158.947,103.664 160.088,97.402 160.088,89.289 C 160.088,80.776 159.16,74.402 156.933,67.587 C 155.34,62.715 152.797,57.836 148.696,51.783 C 141.842,40.97 142.169,39.398 150.161,50.498 L 150.161,50.498 z" />
<polygon
   fill="none"
   points="0,0 192.756,0 192.756,192.754 0,192.754 0,0 "
   id="polygon27" />
</svg>