<?xml version="1.0" encoding="UTF-8" standalone="no"?>
<!-- Created with Inkscape (http://www.inkscape.org/) -->

<svg
   xmlns:dc="http://purl.org/dc/elements/1.1/"
   xmlns:cc="http://creativecommons.org/ns#"
   xmlns:rdf="http://www.w3.org/1999/02/22-rdf-syntax-ns#"
   xmlns:svg="http://www.w3.org/2000/svg"
   xmlns="http://www.w3.org/2000/svg"
   xmlns:sodipodi="http://sodipodi.sourceforge.net/DTD/sodipodi-0.dtd"
   xmlns:inkscape="http://www.inkscape.org/namespaces/inkscape"
   width="500"
   height="105"
   viewBox="0 0 499.99996 105"
   id="svg2"
   version="1.1"
   inkscape:version="0.91 r13725"
   sodipodi:docname="lenovo.svg">
  <defs
     id="defs4" />
  <sodipodi:namedview
     id="base"
     pagecolor="#ffffff"
     bordercolor="#666666"
     borderopacity="1.0"
     inkscape:pageopacity="0.0"
     inkscape:pageshadow="2"
     inkscape:zoom="1.4"
     inkscape:cx="172.36641"
     inkscape:cy="217.38017"
     inkscape:document-units="px"
     inkscape:current-layer="layer1"
     showgrid="false"
     fit-margin-top="5"
     fit-margin-left="10"
     fit-margin-right="10"
     fit-margin-bottom="5"
     units="px"
     inkscape:window-width="1920"
     inkscape:window-height="1017"
     inkscape:window-x="1016"
     inkscape:window-y="-8"
     inkscape:window-maximized="1" />
  <metadata
     id="metadata7">
    <rdf:RDF>
      <cc:Work
         rdf:about="">
        <dc:format>image/svg+xml</dc:format>
        <dc:type
           rdf:resource="http://purl.org/dc/dcmitype/StillImage" />
        <dc:title></dc:title>
      </cc:Work>
    </rdf:RDF>
  </metadata>
  <g
     inkscape:label="Layer 1"
     inkscape:groupmode="layer"
     id="layer1"
     transform="translate(-137.8498,-390.54123)">
    <g
       id="g23944"
       transform="matrix(1.5421564,0,0,1.5421564,148.7686,-598.51789)">
      <g
         id="g13613"
         transform="matrix(0,2.7249422,2.7249422,0,57.56743,672.48808)"
         style="fill:#e60012;fill-opacity:1">
        <path
           d="m 0,0 c -1.16,0.864 -1.841,2.24 -1.841,3.902 0,1.828 1.044,3.215 2.585,3.932 L 4.421,-1.029 C 2.534,-1.271 1.058,-0.788 0,0 M 7.228,9.746 C 8.808,7.611 9.185,6.391 9.185,4.444 9.185,2.692 8.641,1.32 7.687,0.353 L 2.307,13.322 C 0.302,13.039 -1.489,12.278 -2.851,11.107 -4.83,9.403 -5.877,6.881 -5.877,3.81 c 0,-5.578 4.115,-9.784 9.55,-9.784 5.576,0 9.549,4.216 9.549,10.343 0,3.433 -1.627,6.943 -3.528,8.585 L 7.228,9.746 Z"
           style="fill:#e60012;fill-opacity:1;fill-rule:nonzero;stroke:none"
           id="path13615"
           inkscape:connector-curvature="0" />
      </g>
    </g>
  </g>
</svg>
