<?xml version="1.0" encoding="UTF-8" standalone="no"?>
<!-- Created with Inkscape (http://www.inkscape.org/) -->
<svg
   xmlns:svg="http://www.w3.org/2000/svg"
   xmlns="http://www.w3.org/2000/svg"
   version="1.0"
   width="885.82672"
   height="181.06299"
   id="svg2367">
  <defs
     id="defs2369" />
  <g
     transform="translate(-263.3037,348.46946)"
     id="g6737">
    <path
       d="M 426.30021,-257.76059 C 426.30021,-217.49364 393.8384,-185.20923 353.57154,-185.20923 C 313.48203,-185.20923 281.02022,-217.49364 281.02022,-257.58323 C 281.02022,-298.55957 313.48203,-330.66671 354.81325,-330.66671 C 394.0158,-330.66671 426.30021,-297.6727 426.30021,-257.76059 z M 288.47048,-257.76059 C 288.47048,-221.75092 317.56196,-192.83685 353.57154,-192.83685 C 389.40372,-192.83685 418.6726,-221.57357 418.6726,-257.58323 C 418.6726,-294.30228 389.93588,-323.03896 353.03938,-323.03896 C 317.73931,-323.03896 288.47048,-293.59277 288.47048,-257.76059 z M 337.60667,-260.77612 L 336.71976,-259.00222 C 333.52678,-259.71185 327.31824,-262.01787 320.93229,-264.85605 L 320.04538,-263.25954 L 322.70615,-261.84039 C 331.93032,-257.05095 335.12325,-255.98668 340.26749,-255.98668 C 351.08812,-255.98668 359.24793,-262.01787 363.15042,-272.83838 C 369.71376,-274.25753 378.22833,-274.78969 388.51677,-274.78969 C 397.20873,-274.78969 404.65899,-274.43493 414.41531,-273.19326 L 411.93189,-270.1776 C 407.49721,-270.70976 399.16,-271.242 393.30625,-271.242 C 386.03335,-271.242 381.77606,-271.242 379.29264,-271.06464 L 378.22833,-268.40374 C 384.08208,-268.75858 386.21075,-268.75858 390.82283,-268.75858 C 398.80524,-268.75858 405.01379,-268.40374 410.15799,-268.04898 L 407.67457,-264.67869 C 398.45044,-265.03341 394.37056,-265.21081 387.45246,-265.21081 C 383.72733,-265.21081 380.88915,-265.03341 376.45447,-264.85605 L 375.21276,-262.19527 C 379.11529,-262.55003 384.61428,-262.72739 390.11327,-262.72739 C 395.61227,-262.72739 401.99822,-262.55003 405.72334,-262.37263 L 403.23993,-259.17961 C 400.57911,-259.35697 395.61227,-259.35697 391.70974,-259.35697 C 385.50119,-259.35697 377.51878,-259.00222 373.61625,-258.4701 L 372.37454,-256.16408 C 379.8248,-256.87359 384.43688,-257.22835 392.59669,-257.22835 C 395.78967,-257.22835 397.74089,-257.22835 401.46602,-256.87359 L 398.62784,-253.50331 C 393.661,-253.85806 392.06454,-253.85806 390.11327,-253.85806 C 376.45447,-253.85806 367.4077,-251.90676 358.36098,-246.7626 C 366.69819,-238.42535 380.357,-232.74891 392.77409,-232.74891 C 393.8384,-232.74891 394.37056,-232.74891 397.03138,-232.92631 L 391.17758,-226.89525 C 358.36098,-235.58721 352.50719,-237.89323 322.3514,-255.80933 C 310.46645,-262.55003 300.71018,-267.16207 292.90512,-269.46809 L 293.96947,-273.19326 C 295.74334,-272.83838 299.82322,-271.77411 303.54835,-270.355 L 305.32222,-274.43493 L 337.60667,-260.77612"
       style="fill:#0a1d3d;fill-rule:nonzero;stroke:none"
       id="path5423" />
  </g>
</svg>
