<?xml version="1.0" encoding="UTF-8" standalone="no"?>
<svg
   xmlns:dc="http://purl.org/dc/elements/1.1/"
   xmlns:cc="http://creativecommons.org/ns#"
   xmlns:rdf="http://www.w3.org/1999/02/22-rdf-syntax-ns#"
   xmlns:svg="http://www.w3.org/2000/svg"
   xmlns="http://www.w3.org/2000/svg"
   xmlns:sodipodi="http://sodipodi.sourceforge.net/DTD/sodipodi-0.dtd"
   xmlns:inkscape="http://www.inkscape.org/namespaces/inkscape"
   inkscape:version="1.0beta2 (2b71d25, 2019-12-03)"
   sodipodi:docname="mastercard.svg"
   id="svg34"
   version="1.1"
   height="155.58"
   width="200"
   viewBox="0 0 200 155.58">
  <defs
     id="defs38" />
  <sodipodi:namedview
     inkscape:current-layer="svg34"
     inkscape:window-maximized="0"
     inkscape:window-y="23"
     inkscape:window-x="0"
     inkscape:cy="145.07392"
     inkscape:cx="154.96009"
     inkscape:zoom="4.1013681"
     showgrid="false"
     id="namedview36"
     inkscape:window-height="480"
     inkscape:window-width="789"
     inkscape:pageshadow="2"
     inkscape:pageopacity="0"
     guidetolerance="10"
     gridtolerance="10"
     objecttolerance="10"
     borderopacity="1"
     inkscape:document-rotation="0"
     bordercolor="#666666"
     pagecolor="#ffffff" />
  <metadata
     id="metadata10">
    <rdf:RDF>
      <cc:Work
         rdf:about="">
        <dc:format>image/svg+xml</dc:format>
        <dc:type
           rdf:resource="http://purl.org/dc/dcmitype/StillImage" />
        <dc:title />
      </cc:Work>
    </rdf:RDF>
  </metadata>
  <g
     id="g32"
     transform="translate(1565.7 -1106.8)">
    <g
       id="g30"
       transform="matrix(3.1437 0 0 3.1437 -4835.7 -1027.6)">
      <g
         id="g14"
         transform="matrix(1.25 0 0 -1.25 1102.5 727.74)">
        <path
           sodipodi:nodetypes="cssscccccssscccccssscccccssscccccccccssccscccccssscccccssscccccscccscccscccccccssccccssccssccssccssccccccccsscccccccccccssccssccccsccscccccsssccssscc"
           inkscape:connector-curvature="0"
           id="path12"
           fill="#231f20"
           d="m -38.89,1.776 c 0,0.734 0.481,1.337 1.267,1.337 0.751,0 1.258,-0.577 1.258,-1.337 0,-0.76 -0.507,-1.337 -1.258,-1.337 -0.786,0 -1.267,0.603 -1.267,1.337 m 3.381,0 v 2.088 h -0.908 V 3.357 c -0.288,0.376 -0.725,0.612 -1.319,0.612 -1.171,0 -2.089,-0.918 -2.089,-2.193 0,-1.276 0.918,-2.193 2.089,-2.193 0.594,0 1.031,0.236 1.319,0.612 v -0.507 h 0.908 z m 30.684,0 c 0,0.734 0.481,1.337 1.267,1.337 0.752,0 1.258,-0.577 1.258,-1.337 0,-0.76 -0.506,-1.337 -1.258,-1.337 -0.786,0 -1.267,0.603 -1.267,1.337 m 3.382,0 V 5.541 H -2.352 V 3.357 c -0.288,0.376 -0.725,0.612 -1.319,0.612 -1.171,0 -2.089,-0.918 -2.089,-2.193 0,-1.276 0.918,-2.193 2.089,-2.193 0.594,0 1.031,0.236 1.319,0.612 v -0.507 h 0.909 z m -22.795,1.38 c 0.585,0 0.961,-0.367 1.057,-1.013 h -2.167 c 0.097,0.603 0.463,1.013 1.11,1.013 m 0.018,0.813 c -1.224,0 -2.08,-0.891 -2.08,-2.193 0,-1.328 0.891,-2.193 2.141,-2.193 0.629,0 1.205,0.157 1.712,0.585 l -0.445,0.673 c -0.35,-0.279 -0.796,-0.437 -1.215,-0.437 -0.585,0 -1.118,0.271 -1.249,1.023 h 3.101 c 0.009,0.113 0.018,0.227 0.018,0.349 -0.009,1.302 -0.813,2.193 -1.983,2.193 m 10.964,-2.193 c 0,0.734 0.481,1.337 1.267,1.337 0.751,0 1.258,-0.577 1.258,-1.337 0,-0.76 -0.507,-1.337 -1.258,-1.337 -0.786,0 -1.267,0.603 -1.267,1.337 m 3.381,0 v 2.088 h -0.908 V 3.357 c -0.289,0.376 -0.725,0.612 -1.319,0.612 -1.171,0 -2.089,-0.918 -2.089,-2.193 0,-1.276 0.918,-2.193 2.089,-2.193 0.594,0 1.03,0.236 1.319,0.612 v -0.507 h 0.908 z m -8.509,0 c 0,-1.267 0.882,-2.193 2.228,-2.193 0.629,0 1.048,0.14 1.502,0.498 l -0.436,0.734 c -0.341,-0.245 -0.699,-0.376 -1.093,-0.376 -0.725,0.009 -1.258,0.533 -1.258,1.337 0,0.804 0.533,1.328 1.258,1.337 0.394,0 0.752,-0.131 1.093,-0.376 l 0.436,0.734 c -0.454,0.358 -0.873,0.498 -1.502,0.498 -1.346,0 -2.228,-0.926 -2.228,-2.193 m 11.707,2.193 c -0.524,0 -0.865,-0.245 -1.101,-0.612 v 0.507 h -0.9 v -4.176 h 0.909 v 2.341 c 0,0.691 0.297,1.075 0.891,1.075 0.184,0 0.376,-0.026 0.568,-0.105 l 0.28,0.856 C -6.231,3.934 -6.493,3.969 -6.677,3.969 M -31.018,3.532 c -0.437,0.288 -1.039,0.437 -1.703,0.437 -1.058,0 -1.739,-0.507 -1.739,-1.337 0,-0.681 0.507,-1.101 1.441,-1.232 l 0.429,-0.061 c 0.498,-0.07 0.733,-0.201 0.733,-0.437 0,-0.323 -0.332,-0.507 -0.952,-0.507 -0.629,0 -1.083,0.201 -1.389,0.437 l -0.428,-0.707 c 0.498,-0.367 1.127,-0.542 1.808,-0.542 1.206,0 1.905,0.568 1.905,1.363 0,0.734 -0.55,1.118 -1.459,1.249 L -32.8,2.257 c -0.393,0.052 -0.708,0.13 -0.708,0.41 0,0.306 0.297,0.489 0.795,0.489 0.533,0 1.049,-0.201 1.302,-0.358 z m 11.716,0.437 c -0.524,0 -0.865,-0.245 -1.1,-0.612 v 0.507 h -0.9 v -4.176 h 0.908 v 2.341 c 0,0.691 0.297,1.075 0.891,1.075 0.184,0 0.376,-0.026 0.568,-0.105 l 0.28,0.856 c -0.201,0.079 -0.463,0.114 -0.647,0.114 m -7.749,-0.105 h -1.485 v 1.267 h -0.918 V 3.864 h -0.847 v -0.83 h 0.847 V 1.129 c 0,-0.969 0.376,-1.546 1.45,-1.546 0.394,0 0.848,0.122 1.136,0.323 l -0.262,0.778 c -0.271,-0.157 -0.568,-0.236 -0.804,-0.236 -0.454,0 -0.602,0.28 -0.602,0.699 v 1.887 h 1.485 z m -13.577,-4.176 v 2.621 c 0,0.987 -0.629,1.651 -1.643,1.66 -0.533,0.009 -1.083,-0.157 -1.468,-0.743 -0.288,0.463 -0.742,0.743 -1.38,0.743 -0.446,0 -0.882,-0.131 -1.223,-0.62 v 0.515 h -0.909 v -4.176 h 0.917 v 2.315 c 0,0.725 0.402,1.11 1.023,1.11 0.603,0 0.908,-0.393 0.908,-1.101 v -2.324 h 0.918 v 2.315 c 0,0.725 0.419,1.11 1.022,1.11 0.62,0 0.917,-0.393 0.917,-1.101 v -2.324 z" />
      </g>
      <g
         id="g18"
         transform="matrix(1.25 0 0 -1.25 1103.2 710.77)" />
      <path
         id="path20"
         fill="#ff5f00"
         d="m1080.6 714.05h-17.202v-30.915h17.202z" />
      <g
         id="g24"
         transform="matrix(1.25 0 0 -1.25 1064.5 698.59)">
        <path
           id="path22"
           fill="#eb001b"
           d="m0 0c0 5.017 2.349 9.486 6.007 12.366-2.675 2.106-6.051 3.363-9.72 3.363-8.686 0-15.727-7.042-15.727-15.729s7.041-15.729 15.727-15.729c3.669 0 7.045 1.257 9.72 3.363-3.658 2.88-6.007 7.349-6.007 12.366" />
      </g>
      <g
         id="g28"
         transform="matrix(1.25 0 0 -1.25 1103.8 698.59)">
        <path
           id="path26"
           fill="#f79e1b"
           d="m0 0c0-8.687-7.041-15.729-15.727-15.729-3.669 0-7.045 1.257-9.721 3.363 3.659 2.88 6.008 7.349 6.008 12.366s-2.349 9.486-6.008 12.366c2.676 2.106 6.052 3.363 9.721 3.363 8.686 0 15.727-7.042 15.727-15.729" />
      </g>
    </g>
  </g>
</svg>
