<svg xmlns="http://www.w3.org/2000/svg" width="124" height="33">
    <path fill="#179BD7"
          d="M23.048 7.667c-.028.179-.06.362-.096.55-1.237 6.351-5.469 8.545-10.874 8.545H9.326c-.661 0-1.218.48-1.321 1.132L6.596 26.83l-.399 2.533a.704.704 0 0 0 .695.814h4.881c.578 0 1.069-.42 1.16-.99l.048-.248.919-5.832.059-.32c.09-.572.582-.992 1.16-.992h.73c4.729 0 8.431-1.92 9.513-7.476.452-2.321.218-4.259-.978-5.622a4.667 4.667 0 0 0-1.336-1.03z"/>
    <path fill="#222D65"
          d="M21.754 7.151a9.757 9.757 0 0 0-1.203-.267 15.284 15.284 0 0 0-2.426-.177h-7.352a1.172 1.172 0 0 0-1.159.992L8.05 17.605l-.045.289a1.336 1.336 0 0 1 1.321-1.132h2.752c5.405 0 9.637-2.195 10.874-8.545.037-.188.068-.371.096-.55a6.594 6.594 0 0 0-1.017-.429 9.045 9.045 0 0 0-.277-.087z"/>
    <path fill="#253B80"
          d="M9.614 7.699a1.169 1.169 0 0 1 1.159-.991h7.352c.871 0 1.684.057 2.426.177a9.757 9.757 0 0 1 1.481.353c.365.121.704.264 1.017.429.368-2.347-.003-3.945-1.272-5.392C20.378.682 17.853 0 14.622 0h-9.38c-.66 0-1.223.48-1.325 1.133L.01 25.898a.806.806 0 0 0 .795.932h5.791l1.454-9.225 1.564-9.906z"/>
</svg>