<?xml version="1.0" encoding="UTF-8" standalone="no"?>
<svg
   xmlns:dc="http://purl.org/dc/elements/1.1/"
   xmlns:cc="http://creativecommons.org/ns#"
   xmlns:rdf="http://www.w3.org/1999/02/22-rdf-syntax-ns#"
   xmlns:svg="http://www.w3.org/2000/svg"
   xmlns="http://www.w3.org/2000/svg"
   xmlns:sodipodi="http://sodipodi.sourceforge.net/DTD/sodipodi-0.dtd"
   xmlns:inkscape="http://www.inkscape.org/namespaces/inkscape"
   viewBox="0 0 494.47144 157.86795"
   height="157.86795"
   width="494.47144"
   xml:space="preserve"
   version="1.1"
   id="svg2"
   sodipodi:docname="Pepsi_logo_new.svg"
   inkscape:version="0.92.2 (5c3e80d, 2017-08-06)"><sodipodi:namedview
     pagecolor="#ffffff"
     bordercolor="#666666"
     borderopacity="1"
     objecttolerance="10"
     gridtolerance="10"
     guidetolerance="10"
     inkscape:pageopacity="0"
     inkscape:pageshadow="2"
     inkscape:window-width="1366"
     inkscape:window-height="705"
     id="namedview18"
     showgrid="false"
     fit-margin-top="0"
     fit-margin-left="0"
     fit-margin-right="0"
     fit-margin-bottom="0"
     inkscape:zoom="0.69490313"
     inkscape:cx="182.11614"
     inkscape:cy="133.46519"
     inkscape:window-x="-8"
     inkscape:window-y="-8"
     inkscape:window-maximized="1"
     inkscape:current-layer="svg2" /><metadata
     id="metadata8"><rdf:RDF><cc:Work
         rdf:about=""><dc:format>image/svg+xml</dc:format><dc:type
           rdf:resource="http://purl.org/dc/dcmitype/StillImage" /><dc:title /></cc:Work></rdf:RDF></metadata><defs
     id="defs6" /><g
     id="g1017"
     transform="matrix(1.4351494,0,0,1.4351494,-73.537369,-151.06329)"><g
       id="g1003"></g><g
       id="g994"><path
         id="path30"
         style="fill:#ffffff;fill-opacity:1;fill-rule:nonzero;stroke:none;stroke-width:0.125"
         d="m 145.13125,199.15238 c -21.474,21.47899 -56.304625,21.47649 -77.77775,0 -21.484375,-21.48238 -21.484375,-56.30988 0,-77.78488 21.478,-21.4775 56.30375,-21.4775 77.774,0.002 21.48375,21.4725 21.48375,56.3 0.004,77.78238"
         inkscape:connector-curvature="0" /><path
         id="path32"
         style="fill:#2151a1;fill-opacity:1;fill-rule:nonzero;stroke:none;stroke-width:0.125"
         d="m 149.0575,132.505 c 1.03,3.3375 1.595,6.88 1.595,10.5525 0,11.85 -5.82625,22.27 -14.6875,28.79875 -15.40838,11.34875 -37.866875,11.36375 -68.876125,21.135 9.358875,11.186 23.422875,18.30612 39.151375,18.30612 28.1885,0 51.0385,-22.84987 51.0385,-51.03737 0,-10.2325 -3.02875,-19.75875 -8.22125,-27.755"
         inkscape:connector-curvature="0" /><path
         id="path34"
         style="fill:#eb1933;fill-opacity:1;fill-rule:nonzero;stroke:none;stroke-width:0.125"
         d="m 136.84875,119.42375 c -8.52875,-6.41 -19.12412,-10.2025 -30.607,-10.2025 -28.1875,0 -51.036625,22.855 -51.036625,51.03875 0,11.345 3.701125,21.82375 9.960875,30.29625 34.32625,-9.995 61.43025,-36.92125 71.68275,-71.1325"
         inkscape:connector-curvature="0" /></g></g></svg>