<?xml version="1.0" encoding="utf-8"?>
<!-- Generator: Adobe Illustrator 20.1.0, SVG Export Plug-In . SVG Version: 6.00 Build 0)  -->
<svg version="1.1" id="Calque_1" xmlns="http://www.w3.org/2000/svg" xmlns:xlink="http://www.w3.org/1999/xlink" x="0px" y="0px"
	 viewBox="0 0 160 115" style="enable-background:new 0 0 160 115;" xml:space="preserve">
<style type="text/css">
	.st0{fill:url(#SVGID_1_);}
	.st1{fill:url(#SVGID_2_);}
	.st2{fill:url(#SVGID_3_);}
	.st3{fill:url(#SVGID_4_);}
	.st4{fill:url(#SVGID_5_);}
	.st5{fill:url(#SVGID_6_);}
	.st6{opacity:0.85;fill:url(#SVGID_7_);}
	.st7{opacity:0.85;fill:url(#SVGID_8_);}
	.st8{opacity:0.85;fill:url(#SVGID_9_);}
	.st9{fill:url(#SVGID_10_);}
	.st10{fill:#7E7E7D;}
	.st11{fill:url(#SVGID_11_);}
	.st12{fill:url(#SVGID_12_);}
	.st13{fill:url(#SVGID_13_);}
	.st14{fill:url(#SVGID_14_);}
	.st15{fill:url(#SVGID_15_);}
	.st16{fill:url(#SVGID_16_);}
	.st17{fill:url(#SVGID_17_);}
	.st18{fill:url(#SVGID_18_);}
	.st19{fill:url(#SVGID_19_);}
	.st20{fill:url(#SVGID_20_);}
	.st21{fill:url(#SVGID_21_);}
	.st22{fill:url(#SVGID_22_);}
	.st23{fill:url(#SVGID_23_);}
	.st24{fill:url(#SVGID_24_);}
	.st25{fill:url(#SVGID_25_);}
	.st26{fill:url(#SVGID_26_);}
	.st27{fill:url(#SVGID_27_);}
	.st28{fill:#002355;}
</style>
<g>
	<g>
		<g>
			<g>
				<g>
					<g>
						<path d="M113.2,75.1c-1.5-4.4-7.5-15.5-12.2-21.8c-1-1.4-0.6-2.1-0.1-2.5c0.5-0.4,2.3-2,4.4-4.3c2.1-2.4,2.6-5.1,1.1-9
							c-1.5-3.9-6.3-13.1-7.3-16.1c-1.2-3.5-1.3-5.1-0.6-7c0.8-2.3,2-2.4,3-2.3c0.5,0,0.9,0.5,0.9,0.8c0,1,0.1,2.2,1,4.8
							c1.6,4.1,5.5,6.8,6.8,7.3c0.9,0.4,1-0.3,1-0.6c-0.1-0.3-1.4-5.4-2.3-9.2c-1-4-1.5-4.9-2.4-5.7c-1.4-1.4-3.6-2.1-5.5-2
							c-4.1,0.2-6,4.1-6.2,4.5c-0.2,0.3-0.3,0.6-0.7,0.3c-1.2-0.8-4.6-3.7-4.9-5.5c-0.2-1.1-0.4-1.2-1.4-1.6
							c-4.1-1.6-7.7-3-11.7-3.7c-1.6-0.3-1.7-0.4-3.5-0.1c-3.2,0.6-5.1,1.3-7.5,2.6c-1.3,0.7-1.5,1.2-1.7,1.5
							C63,5.5,62.7,5.8,62.3,6c-0.8,0.3-3.7,1.3-4.7,1.9c-0.6,0.4-1,0.7-0.6,1.5c0.6,1.2,2.2,3.8,3,4.5c0.4,0.4,1.6,0.7,1.8,0.7
							c0.3,0.1,0.5,0.1,0.6-0.1c0.1-0.2,0.1-0.5,0.7-0.9c0.8-0.6,2.2-0.9,3-1c0.6,0,1-0.1,1.3,0.2c0.3,0.2,1,1,1.3,1.7
							c0.2,0.8,0.1,1-0.3,1.2c-0.4,0.2-1.7,0.5-3.2,0.6c-1.5,0.1-1.9-0.3-2-0.4c-0.1-0.1-0.3-0.2-0.4,0c-0.2,0.3-0.6,0.6-1.2,0.9
							c-0.3,0.2-0.5,0.5-0.2,1c0.9,1.6,2.2,3.4,3.3,3.8c0.9,0.3,1.4,0,2.4-0.7c0.9-0.7,1.5-0.7,1.8-0.5c0.3,0.2,0.8,0.7,0.7,1.1
							c-0.2,0.8-1.9,2.7-2.2,3.1c-0.3,0.4-0.6,0.6-1.1,0.3c-0.8-0.4-12.5-6.5-14.1-7.1c-1.7-0.7-2.8-0.8-4.5-0.9
							c-1.4-0.1-3.2,0.1-4.3,0.3c-0.8,0.2-1.3,0.5-2.1,1.3c-1.1,1-2.2,2.2-2.3,3.3c-0.1,0.8,0.8,2.3,0.9,2.4
							c0.1,0.1,0.2,0.3,0.7,0.3c0.5-0.1,1.6-0.7,3-0.4c1.3,0.2,1.4,1.2,1.4,2c0,0.1,0.2,0.4,0.5,0.4c0.5,0,1.3,0,2.2,0.4
							c1.1,0.5,3.3,2.2,3.7,2.6c0.3,0.3,0.3,0.6-0.3,0.6c-2.8,0.2-7.1,1.1-9,1.7c-1.4,0.5-3,1.1-3.6,2.1c-0.7,1.1-1.5,3-1.7,4.3
							c-0.2,1.3,1.2,2.9,1.5,3.3c0.3,0.2,0.4,0.4,0.9,0.2c0.7-0.4,2.3-1.4,3.9-1.5c1-0.1,1.3,0.8,1.6,1.2c0.2,0.3,0.5,0.1,1.3-0.1
							c1.5-0.4,10-0.3,13-0.1c1.4,0.1,3.3,0.3,4.7,1c1.4,0.8,3.9,3.2,3.9,3.2s-3.4,5.6-5.2,9c-1.7,3.1-2.9,5.4-3.5,6.7
							c-0.6,1.2-1,3-0.9,4.3c0.2,2,0.2,3,0.2,3.9c0,0.8-0.8,0.9-1.8,1.1c-1.5,0.4-4.4,0.6-6.7,1.2c-2.1,0.5-2.9,1-3.3,2.7
							c-0.3,1.3-0.7,4.5-0.8,6c0,0.6,0,0.9,0.7,0.7c0.4-0.1,1.7-0.3,3.3-0.4c2-0.2,4.1-0.1,5.8-0.1c3.1,0,12.1,0.5,12.7,0.6
							c0.8,0.1,0.9,0,0.9-0.6c-0.1-0.7-0.2-3-0.2-4.3c0-1.4-0.2-2.7,1-4.1c1.2-1.3,10.4-11.6,10.9-12.1c0.4-0.4,0.7-0.9,1.4-0.3
							c0.7,0.6,8.3,6.1,9.8,7.2c1.5,1.1,3,1.5,4.7,1.5c1.3,0,1.6,2.2,0.5,2.4c-1.1,0.2-2.8,0.6-3.9,0.8c-1.8,0.4-2.3,1-2.9,2.2
							c-0.5,1-1,6-1,6.5c0,0.3,0,0.8,0.5,0.7c2.2-0.4,5.7-0.6,9.5-0.5c4.3,0.1,8.5,0.5,9.1,0.5c0.6,0,0.7,0,1-0.5
							c0.5-0.9,2.2-2.7,3.6-3.9C113.5,76.2,113.5,76,113.2,75.1z M96.6,44.8c-1.1,0.4-1.8,0-2.3-0.5c-0.5-0.5-4.9-5.7-6.3-7.3
							c-0.7-0.8-1.2-2.6,0.9-3.4c1.7-0.6,4.9-1.6,5.7-2.1c0.9-0.5,1.3-0.9,1.4-1.8c0.1-0.9,0.1-1.9,0.1-2.2c0-0.3,0.4-0.6,0.7-0.2
							c0.2,0.3,0.9,1.8,1.9,3.6c1.4,2.6,3.2,5.9,3.8,7.4c0.6,1.4,0.3,2.4-0.6,3.4C100.8,43,97.4,44.5,96.6,44.8z"/>
					</g>
				</g>
				<linearGradient id="SVGID_1_" gradientUnits="userSpaceOnUse" x1="111.8855" y1="11.819" x2="87.957" y2="48.4683">
					<stop  offset="0.2033" style="stop-color:#CCCCCC"/>
					<stop  offset="0.2274" style="stop-color:#A6A6A6"/>
					<stop  offset="0.2583" style="stop-color:#7D7D7D"/>
					<stop  offset="0.2885" style="stop-color:#5D5D5D"/>
					<stop  offset="0.3174" style="stop-color:#464646"/>
					<stop  offset="0.3446" style="stop-color:#383838"/>
					<stop  offset="0.3681" style="stop-color:#333333"/>
					<stop  offset="0.4381" style="stop-color:#393939"/>
					<stop  offset="0.5311" style="stop-color:#4A4A4A"/>
					<stop  offset="0.637" style="stop-color:#656565"/>
					<stop  offset="0.7516" style="stop-color:#8C8C8C"/>
					<stop  offset="0.8132" style="stop-color:#A3A3A3"/>
					<stop  offset="1" style="stop-color:#000000"/>
				</linearGradient>
				<path class="st0" d="M101.1,8.2C101.1,8.2,101.1,8.2,101.1,8.2c-3.4,0-6.9,3.9-6.2,9.8c0.4,3.6,1,5.2,2,7.5
					c0.5,1.1,6.3,12.2,6.6,13.3c0.4,1.7,0,2.7-1.2,3.9c-1.4,1.3-3.8,2.7-5.3,3.3c-0.4,0.1-0.7,0.2-1,0.2c-0.4,0-1.3-0.1-2.9-2.2
					l7.5,10c-1-1.3-1.4-2.2-1.3-3.1c0.2-0.8,1.5-1.7,3.1-3c1.6-1.2,3.3-2.8,4.1-4.8c0.2-0.6,0.3-1.2,0.3-1.9c0-2-1-4.2-2.1-6.7
					c-1.5-3.2-5.7-10.1-7-14.9c-0.3-1.2-0.5-2.3-0.5-3.2c0-2.7,1.2-4.5,2.6-5.1c0.7-0.3,1.3-0.4,1.8-0.4c0.8,0,1.3,0.2,1.6,0.3
					c0.4,0.2,0.5,0.7,0.5,1.1c0,0,0,0.1,0,0.1c0,0.1,0,0.3,0,0.6c0,1.1,0.2,3.6,1.5,6c1.7,3.1,4.5,4.8,5.6,5.2c0.1,0-2.6-9.8-3-11.7
					C106.9,10.4,105.4,8.2,101.1,8.2z"/>
				<linearGradient id="SVGID_2_" gradientUnits="userSpaceOnUse" x1="44.6746" y1="38.422" x2="49.01" y2="28.4924">
					<stop  offset="3.103500e-02" style="stop-color:#A6A6A6"/>
					<stop  offset="0.2" style="stop-color:#A6A6A6"/>
					<stop  offset="0.9897" style="stop-color:#4C4C4C"/>
				</linearGradient>
				<path class="st1" d="M54.5,30.1c0.7,0.7-0.5,0.6-3.9,0.9c-3.5,0.3-7,1-8.9,1.7c-1.4,0.5-2.2,0.9-2.7,2.1c0,0-1.1,2.4-1.3,3.4
					c-0.1,0.5,0,0.7,0.2,1.1c0.1,0.2,0.5-6.4,8.9-6.8c7.5-0.4,9.4-1.2,7.9-2.6L54.5,30.1z"/>
				<linearGradient id="SVGID_3_" gradientUnits="userSpaceOnUse" x1="103.8811" y1="14.5699" x2="98.5396" y2="14.0646">
					<stop  offset="0.1966" style="stop-color:#333333"/>
					<stop  offset="0.2597" style="stop-color:#353535"/>
					<stop  offset="0.2825" style="stop-color:#3C3C3C"/>
					<stop  offset="0.2987" style="stop-color:#474747"/>
					<stop  offset="0.3118" style="stop-color:#585858"/>
					<stop  offset="0.323" style="stop-color:#6E6E6E"/>
					<stop  offset="0.333" style="stop-color:#8A8A8A"/>
					<stop  offset="0.342" style="stop-color:#AAAAAA"/>
					<stop  offset="0.3503" style="stop-color:#D0D0D0"/>
					<stop  offset="0.3576" style="stop-color:#F9F9F9"/>
					<stop  offset="0.3586" style="stop-color:#FFFFFF"/>
					<stop  offset="0.8241" style="stop-color:#333333"/>
					<stop  offset="1" style="stop-color:#191919"/>
				</linearGradient>
				<path class="st2" d="M97.5,16.6c0,0,0.2-1.7,0.5-2.5c0.8-2.2,2.2-2.6,3.1-2.6c0.6,0,0.9,0.2,1.2,0.4c0.2,0.2,0.4,0.4,0.4,0.8
					c0,1,0.1,2.1,1,4.6c0.1,0.2,0.1,0.3,0.2,0.5c-0.8-2-0.9-3.9-0.9-4.9c0-0.3,0-0.7,0-0.7c0-0.7-0.8-1-1.5-1c-0.5,0-1,0.1-1.6,0.3
					c-1.2,0.5-2.3,2-2.3,4.5L97.5,16.6z"/>
				<linearGradient id="SVGID_4_" gradientUnits="userSpaceOnUse" x1="55.8257" y1="43.6687" x2="60.2201" y2="33.6041">
					<stop  offset="0" style="stop-color:#CCCCCC"/>
					<stop  offset="0.1219" style="stop-color:#B8B8B8"/>
					<stop  offset="0.2537" style="stop-color:#ABABAB"/>
					<stop  offset="0.3681" style="stop-color:#A6A6A6"/>
					<stop  offset="0.9897" style="stop-color:#000000"/>
				</linearGradient>
				<path class="st3" d="M54.8,30.4c0.3,0.7-0.8,0.5-4.2,0.8c-3.5,0.3-7,1-8.9,1.7c-1.4,0.5-2.2,0.9-2.7,2.1c0,0-1.1,2.4-1.3,3.4
					c-0.1,0.5,0,0.7,0.3,1.1c0.4,0.6,0.6,0.7,1.1,0.4c0.4-0.2,2.3-1.3,3.5-1.3c1.1,0,1.6,0.7,1.8,1.2c0.1,0.4,0.6,0.2,0.7,0.2
					c0.5-0.1,1-0.3,2.7-0.4c2.1-0.2,10.2-0.1,13.2,0c2.7,0.1,13.3,8.4,13.4,8.4l0.5-1.1c-3.6-3-16.9-13.5-20.2-16.7L54.8,30.4z"/>
				<linearGradient id="SVGID_5_" gradientUnits="userSpaceOnUse" x1="98.5752" y1="91.1128" x2="20.0738" y2="11.2518">
					<stop  offset="7.692300e-02" style="stop-color:#808080"/>
					<stop  offset="0.1209" style="stop-color:#8C8C8C"/>
					<stop  offset="0.1703" style="stop-color:#666666"/>
					<stop  offset="0.3077" style="stop-color:#808080"/>
					<stop  offset="0.4725" style="stop-color:#F2F2F2"/>
					<stop  offset="0.6978" style="stop-color:#F2F2F2"/>
					<stop  offset="0.7209" style="stop-color:#E3E3E3"/>
					<stop  offset="0.7655" style="stop-color:#BBBBBB"/>
					<stop  offset="0.8268" style="stop-color:#7B7B7B"/>
					<stop  offset="0.8407" style="stop-color:#6B6B6B"/>
					<stop  offset="0.9615" style="stop-color:#333333"/>
				</linearGradient>
				<path class="st4" d="M85.3,36.9c1.6,1.9,6.4,7.8,10.5,13c6.4,8.2,10.3,14.6,14.5,24.1c0.4,0.9,0.1,1-0.6,1.6c-1.3,1-1,1.5-2,3.1
					c-0.1,0.2-0.4,0.5-0.7,0.5c-0.9-0.1-7.7-0.6-12.1-0.5c-2.7,0.1-3.3,0.3-3.9,0.4c-0.5,0.1-0.6,0.1-0.6-0.6c0-0.2,0.5-3,0.9-4.1
					c0.4-1,1-1.4,1.9-1.7c0.9-0.2,3.4-0.7,4.4-1c1-0.3,1.1-1.2,1-2c-0.1-0.7-0.7-1.7-1.3-1.8c-0.9-0.2-1.5-0.3-2.5-0.7
					c-1-0.4-14.9-11.6-16.1-12.7c-0.3-0.3-0.6-0.5-0.7-0.3c-0.1,0.1,0.2,0.5,0.3,0.6c0.2,0.2,2.3,2.4,2.8,2.9c0.3,0.3,0.2,0.5,0,0.6
					c-0.2,0.2-6.8,6.7-9.5,9.5c-2.7,2.8-4.7,4.5-4.7,6.7c0,2.3,0.1,4,0.1,4.4c0,0.3-0.3,0.3-0.6,0.3c-0.8-0.1-7.4-0.7-11-0.8
					c-3.7-0.1-6.3,0.3-8,0.7c-0.4,0.1-0.5-0.1-0.5-0.5c0-0.6,0.4-2.9,0.9-4.4c0.3-1,1.1-1.5,2-1.7c1.2-0.3,5.9-1.1,8-1.5
					c1.1-0.2,1.4-0.6,1.4-1.5c0-1-0.1-3.1-0.2-4.1c-0.1-1.1,0.3-2.2,0.7-3.1c1.7-3.9,5.8-12.1,9.3-17c0.4-0.6,0.8-0.7,1.2-0.6
					c0.5,0.1,2.6,1.8,2.8,1.9c0.4,0.2,0.9,0,0.6-0.2c-1.2-1.2-5-3.5-7.3-5.3c-4.5-3.6-9.2-8.9-13-12.4c-2-1.8-4.1-3.1-5.6-3.5
					c-0.6-0.1-1.1-0.1-1.6-0.2c-0.2,0-0.3-0.2-0.3-0.3c0-0.2,0-0.7-0.5-1.3c-0.4-0.4-1.1-0.5-1.7-0.6c-0.8,0-2,0.1-2.7,0.3
					c-0.4,0.1-0.5,0-0.6-0.1c-0.1-0.1-0.3-0.6-0.4-1c0-0.3,0-0.5,0.2-0.9c0.5-0.9,1.7-1.8,2.3-2.4c0.7-0.7,1.1-0.7,1.8-0.8
					c1.6-0.2,3.7-0.3,5.9,0.2c1.6,0.4,2.8,1,4.4,1.7c1.5,0.8,10.5,5.3,11.6,5.9L85.3,36.9z"/>
				<radialGradient id="SVGID_6_" cx="64.6059" cy="21.6718" r="17.9018" gradientUnits="userSpaceOnUse">
					<stop  offset="3.571400e-02" style="stop-color:#FFFFFF"/>
					<stop  offset="0.467" style="stop-color:#FFFFFF"/>
					<stop  offset="0.5179" style="stop-color:#FBFBFB"/>
					<stop  offset="0.5707" style="stop-color:#EEEEEE"/>
					<stop  offset="0.6243" style="stop-color:#DADADA"/>
					<stop  offset="0.6785" style="stop-color:#BDBDBD"/>
					<stop  offset="0.7326" style="stop-color:#989898"/>
					<stop  offset="0.7473" style="stop-color:#8C8C8C"/>
					<stop  offset="0.8462" style="stop-color:#666666"/>
					<stop  offset="1" style="stop-color:#333333"/>
				</radialGradient>
				<path class="st5" d="M70.5,20.7c0.2,1.1-0.5,1.8-1,2.5c-0.4,0.7-1.3,1.7-1.7,2.2c-0.6,0.7-1.7,0.5-1.7,0.5s5.1,2.6,8.1,4.1
					c1.2,0.6,3,0,4.3-2.3c0.3-0.5,2.1-4.5,2.6-5.6c0.5-1.2,1.1-2.5,0.1-4.7c-1.1-2.2-4.3-6.3-5.7-7.9c-0.7-0.8-1.5-1.3-3.2-1.4
					c-1.7-0.1-3.8,0.2-6.6,0.9c-2.8,0.7-6.3,2.2-6.5,2.3c-0.1,0-0.1,0.1,0,0.2c0,0.1,0.4,0.7,0.4,0.7s0.2,0.4,0.7,0.7
					c0.5,0.3,1.1,0.4,1.2,0.5c0.1,0,0.2,0,0.2-0.1c0-0.1,0.6-1.1,2.5-1.6c1-0.3,1.7-0.3,2-0.3c0.5,0,1.3,0.3,1.7,0.7
					c0.7,0.7,1.3,1.8,1.4,2.4c0.1,0.5,0,1.2-0.5,1.5c-0.5,0.3-2.1,0.6-3.1,0.7c-1,0.1-2,0.1-2.6-0.3c-0.1-0.1-0.2-0.1-0.2,0
					c-0.2,0.2-0.4,0.3-0.8,0.6c-0.1,0.1-0.2,0.2-0.1,0.4c0.1,0.2,1.3,2.2,2,2.7c0.7,0.6,1.1,0.3,2-0.2c0.9-0.5,1.5-1.1,2.4-1.1
					C69.6,19,70.3,19.8,70.5,20.7z"/>
				
					<radialGradient id="SVGID_7_" cx="68.6233" cy="32.4226" r="6.3189" gradientTransform="matrix(1 0 0 0.9636 0 -13.1831)" gradientUnits="userSpaceOnUse">
					<stop  offset="3.571400e-02" style="stop-color:#FFFFFF"/>
					<stop  offset="0.2276" style="stop-color:#FFFFFF"/>
					<stop  offset="0.2932" style="stop-color:#F6F6F6"/>
					<stop  offset="0.4021" style="stop-color:#DCDCDC"/>
					<stop  offset="0.5409" style="stop-color:#B3B3B3"/>
					<stop  offset="0.7042" style="stop-color:#797979"/>
					<stop  offset="0.886" style="stop-color:#313131"/>
					<stop  offset="1" style="stop-color:#000000"/>
				</radialGradient>
				<path class="st6" d="M68.8,16.2c-0.5,0.3-2,0.6-3,0.7c-1,0.1-2,0-2.5-0.3c-0.1,0-0.2-0.1-0.2,0c-0.2,0.2-0.3,0.3-0.8,0.5
					c-0.1,0.1-0.2,0.2-0.1,0.3c0.1,0.2,1.2,2,1.9,2.5c0.7,0.5,1.1,0.3,2-0.2c0.9-0.5,1.5-1.1,2.4-1L68.8,16.2z"/>
				<radialGradient id="SVGID_8_" cx="64.6733" cy="8.1341" r="7.4341" gradientUnits="userSpaceOnUse">
					<stop  offset="0.2308" style="stop-color:#FFFFFF"/>
					<stop  offset="0.5714" style="stop-color:#F5F5F5"/>
					<stop  offset="0.8626" style="stop-color:#000000"/>
				</radialGradient>
				<path class="st7" d="M65.6,9.4c-2.6,0.7-6,2-6.1,2.1c-0.1,0-0.1,0.2,0,0.3c0,0.1,0.4,0.7,0.4,0.7s0.2,0.4,0.7,0.7
					c0.5,0.3,0.9,0.4,1.1,0.4c0.1,0,0.2,0,0.2-0.1c0-0.1,0.6-1.1,2.5-1.6c1-0.3,1.7-0.3,2-0.3L65.6,9.4z"/>
				<radialGradient id="SVGID_9_" cx="77.1272" cy="22.639" r="25.0384" gradientUnits="userSpaceOnUse">
					<stop  offset="3.571400e-02" style="stop-color:#FFFFFF"/>
					<stop  offset="0.2527" style="stop-color:#FFFFFF"/>
					<stop  offset="0.2708" style="stop-color:#FBFBFB"/>
					<stop  offset="0.2894" style="stop-color:#EEEEEE"/>
					<stop  offset="0.3084" style="stop-color:#DADADA"/>
					<stop  offset="0.3275" style="stop-color:#BDBDBD"/>
					<stop  offset="0.3462" style="stop-color:#999999"/>
					<stop  offset="0.4121" style="stop-color:#666666"/>
					<stop  offset="0.4725" style="stop-color:#333333"/>
					<stop  offset="0.8571" style="stop-color:#333333"/>
				</radialGradient>
				<path class="st8" d="M70.5,20.8c0.2,1.1-0.5,1.9-1,2.6c-0.4,0.7-1.3,1.7-1.7,2.2c-0.6,0.7-1.4,0.4-1.4,0.4s4.9,2.5,7.8,4
					c1.2,0.6,2.9,0.2,4.2-2.2c0.3-0.5,2.1-4.5,2.6-5.6L70.5,20.8z"/>
				<g>
					<linearGradient id="SVGID_10_" gradientUnits="userSpaceOnUse" x1="59.6355" y1="36.8847" x2="47.377" y2="39.9494">
						<stop  offset="0" style="stop-color:#F2F2F2"/>
						<stop  offset="8.055412e-02" style="stop-color:#DDDDDD"/>
						<stop  offset="0.2582" style="stop-color:#B2B2B2"/>
						<stop  offset="0.2996" style="stop-color:#C6C6C6"/>
						<stop  offset="0.3578" style="stop-color:#DADADA"/>
						<stop  offset="0.4245" style="stop-color:#E8E8E8"/>
						<stop  offset="0.5065" style="stop-color:#F0F0F0"/>
						<stop  offset="0.6484" style="stop-color:#F2F2F2"/>
						<stop  offset="0.8956" style="stop-color:#FFFFFF"/>
					</linearGradient>
					<path class="st9" d="M46.3,39.1c-0.2-0.1-0.2-0.4,0.1-0.7c0.2-0.2,1.5-1.3,2.3-1.5c0.8-0.2,3.8-0.5,5-0.5
						c0.4,0,4.9-0.4,5.3-0.4c0.4,0,1.4,1.6,2.7,3c-0.1,0-4.1-0.1-7.4-0.1c-3.2,0-5.9,0.1-7,0.2C46.9,39.2,46.5,39.2,46.3,39.1z"/>
					<path class="st10" d="M46.2,39.2L46.2,39.2L46.2,39.2c-0.1,0-0.2-0.2-0.2-0.3l0,0c0-0.1,0.1-0.3,0.3-0.5l0,0
						c0.2-0.2,1.5-1.3,2.4-1.5l0,0c0.8-0.2,3.8-0.5,5-0.5l0,0c0.3,0,4.7-0.4,5.3-0.4l0,0c0,0,0,0,0,0l0,0c0.1,0,0.3,0.1,0.5,0.3l0,0
						c0.2,0.2,0.4,0.4,0.6,0.7l0,0c0.5,0.6,1,1.3,1.6,2l0,0l0.1,0.1l-0.1,0c0,0,0,0-0.1,0l0,0c-0.5,0-3.9-0.1-6.9-0.1l0,0
						c-0.1,0-0.3,0-0.4,0l0,0c-3.2,0-5.9,0.1-7,0.2l0,0c-0.2,0-0.5,0.1-0.7,0.1l0,0C46.4,39.2,46.3,39.2,46.2,39.2L46.2,39.2z
						 M46.5,39.1c0.2,0,0.5,0,0.7-0.1l0,0c1-0.1,3.8-0.2,7-0.2l0,0c0.1,0,0.3,0,0.4,0l0,0c2.9,0,6.1,0.1,6.8,0.1l0,0
						c-0.9-1-1.7-2.1-2.1-2.6l0,0c-0.2-0.2-0.3-0.3-0.4-0.3l0,0c0,0,0,0,0,0l0,0c-0.6,0-4.9,0.4-5.3,0.4l0,0c-1.2,0.1-4.2,0.3-5,0.5
						l0,0c-0.8,0.2-2.1,1.3-2.3,1.5l0,0c-0.2,0.2-0.2,0.3-0.2,0.4l0,0c0,0.1,0,0.1,0.1,0.2l0,0l0,0C46.3,39.1,46.4,39.1,46.5,39.1
						L46.5,39.1z"/>
				</g>
				<g>
					<g>
						
							<linearGradient id="SVGID_11_" gradientUnits="userSpaceOnUse" x1="921.6027" y1="395.493" x2="1049.7146" y2="551.58" gradientTransform="matrix(0.4383 0 0 0.4383 -344.9077 -167.2784)">
							<stop  offset="0" style="stop-color:#FFFFFF"/>
							<stop  offset="6.896600e-02" style="stop-color:#DEDEDE"/>
							<stop  offset="0.1565" style="stop-color:#FFFFFF"/>
							<stop  offset="0.2033" style="stop-color:#FFFFFF"/>
							<stop  offset="0.2785" style="stop-color:#DEDEDE"/>
							<stop  offset="0.3297" style="stop-color:#CCCCCC"/>
							<stop  offset="0.3357" style="stop-color:#D1D1D1"/>
							<stop  offset="0.3647" style="stop-color:#E6E6E6"/>
							<stop  offset="0.3976" style="stop-color:#F4F4F4"/>
							<stop  offset="0.4372" style="stop-color:#FCFCFC"/>
							<stop  offset="0.502" style="stop-color:#FFFFFF"/>
							<stop  offset="0.8852" style="stop-color:#FFFFFF"/>
							<stop  offset="0.9797" style="stop-color:#B0B0B0"/>
						</linearGradient>
						<path class="st11" d="M111.4,74.4c-1.4-3.4-5.2-10.9-10.5-18.7c-5.2-7.6-14-18-15.2-19.7c-1.2-1.7-1.7-3.6,0.8-4.4
							c1.6-0.5,5.5-1.3,7.1-1.8c1.6-0.4,1.7-0.9,1.8-2.1c0.1-1.3-0.2-7.6-1-11.4c-0.2-0.8-0.7-1.4-1.3-1.9c-0.6-0.4-2.7-2.3-3.9-3.6
							c-1.4-1.6-2-3-2.2-4.1c0,0,0-0.2-0.3-0.5c-0.1-0.1-0.2-0.2-0.4-0.3C84,4.6,75.8,2.3,74.1,2.2c-1.2-0.1-5.2,0.4-9,2.7
							c-1.1,0.7-1.1,1.5-1.9,1.9c-0.8,0.4-2.5,0.8-4.3,1.7c-1,0.5-1,0.5-0.8,1.1c0.1,0.2,0.8,1.4,1.1,1.4c0.3,0,0.7-0.2,1.1-0.3
							c0.5-0.2,4.2-1.6,7-2.2c3.2-0.7,6.7-0.7,7.9,0.5c1.9,2,5.1,6.4,6.1,8.3c1,1.9,0.9,2.8,0.2,4.8c-0.6,1.8-2.9,6.5-3.5,7.4
							c-0.7,1-1.5,1.5-3.4,0.7c-2.1-0.9-9.7-4.8-11.4-5.6c-1.1-0.6-5.8-3-9.4-4.7c-1.3-0.7-2.4-1.1-3.6-1.4
							c-2.6-0.7-5.4-0.4-6.7-0.2c-0.6,0.1-1,1.1-0.9,1.4c0,0.5,1.4,0.1,2.6,0.2c0.9,0.1,4.1,0.4,5.9,1.2c1.9,0.8,11.6,6,14.1,7.3
							c18.7,10.2,26.7,16.7,41.1,41c0.6,1.1,1,2.4-0.1,2.7c-1.5,0.4-7.6,1.6-9.5,2.2c-1.6,0.5-1.8,0.6-2,1.4c-0.3,0.9-0.7,2.6-0.6,3
							c0,0.1-0.1,0.3,0.2,0.3c1.7,0,7.9,0,12.7,0.5c0.6,0.1,0.6,0,1-0.5c0.4-0.6,2.1-2.5,3.2-3.3C111.8,75.2,111.5,74.6,111.4,74.4z
							"/>
					</g>
				</g>
				<linearGradient id="SVGID_12_" gradientUnits="userSpaceOnUse" x1="44.7832" y1="19.3439" x2="102.17" y2="73.8493">
					<stop  offset="0" style="stop-color:#D9D9D9"/>
					<stop  offset="4.297480e-02" style="stop-color:#C3C3C3"/>
					<stop  offset="0.1571" style="stop-color:#909090"/>
					<stop  offset="0.2643" style="stop-color:#686868"/>
					<stop  offset="0.3616" style="stop-color:#4B4B4B"/>
					<stop  offset="0.4457" style="stop-color:#393939"/>
					<stop  offset="0.5069" style="stop-color:#333333"/>
					<stop  offset="0.5726" style="stop-color:#383838"/>
					<stop  offset="0.6507" style="stop-color:#464646"/>
					<stop  offset="0.735" style="stop-color:#5E5E5E"/>
					<stop  offset="0.8238" style="stop-color:#808080"/>
					<stop  offset="0.915" style="stop-color:#AAAAAA"/>
					<stop  offset="1" style="stop-color:#D9D9D9"/>
				</linearGradient>
				<path class="st12" d="M107,70.8c-0.1-1-1-2.4-2.6-5c-1.6-2.5-3.6-6-6.3-9.8c-4.8-6.8-9.5-12.1-15.4-16.7
					c-4.3-3.4-8.9-6.2-12.2-8.1c-3.3-2-17.4-9.7-19.6-10.3c-2-0.6-3.6-0.8-5-1c-1-0.1-1.8,0-2.6,0c-0.8,0-0.5-0.7-0.4-0.9
					c-0.1,0.2-0.6,1.1,0.2,1.1c0.6,0,1.9,0,2.8,0.1c1.7,0.2,3.9,0.7,5.3,1.2c2,0.8,11.2,6.2,13.5,7.6c7.2,4.1,12.6,7.8,17.7,11.9
					c7.8,6.3,14.6,13.6,23,28.4c0.3,0.6,0.5,1,0.5,1.6c0,0.8-0.7,1.1-0.9,1.2c-1.5,0.4-7.4,1.8-9.2,2.4c-1.5,0.5-1.8,0.9-2,1.6
					c-0.1,0.3-0.3,1.7-0.6,2.1c-0.3,0.4-1,0.5-1.7,0.5c-0.5,0-0.7,0-0.6-0.5c0-0.5,0.3-1.9,0.5-2.6c0.2-0.8,0.5-1.4,1.2-1.8
					c0.7-0.4,3.2-0.8,4.6-1.2c1.4-0.3,1.5-1,1.4-2c0,1.1-0.4,1.4-1.8,1.7c-1.4,0.3-3.8,0.6-4.6,1.2c-0.8,0.5-1.1,1.2-1.2,1.8
					c-0.5,2-0.8,3.4-0.7,3.9c0,0.4,0.2,0.5,0.7,0.4c0.5-0.1,1.7-0.2,3.5-0.3c0.5,0,0.5-0.6,0.5-1.4c0-0.3,0-1,0.1-1.4
					c0.1-0.4,0.4-0.7,0.9-0.9c1-0.3,6.5-1.8,9.4-2.6C106.6,72.3,107.1,71.9,107,70.8z"/>
				<linearGradient id="SVGID_13_" gradientUnits="userSpaceOnUse" x1="72.4404" y1="45.7197" x2="50.0777" y2="79.1517">
					<stop  offset="0" style="stop-color:#BFBFBF"/>
					<stop  offset="0.1" style="stop-color:#FFFFFF"/>
					<stop  offset="0.3492" style="stop-color:#EDEDED"/>
					<stop  offset="0.4228" style="stop-color:#F6F6F6"/>
					<stop  offset="0.5385" style="stop-color:#FFFFFF"/>
					<stop  offset="0.5442" style="stop-color:#F4F4F4"/>
					<stop  offset="0.5799" style="stop-color:#B2B2B2"/>
					<stop  offset="0.6139" style="stop-color:#7C7C7C"/>
					<stop  offset="0.6453" style="stop-color:#515151"/>
					<stop  offset="0.6735" style="stop-color:#333333"/>
					<stop  offset="0.6974" style="stop-color:#202020"/>
					<stop  offset="0.7143" style="stop-color:#191919"/>
					<stop  offset="0.7229" style="stop-color:#373737"/>
					<stop  offset="0.7398" style="stop-color:#6C6C6C"/>
					<stop  offset="0.757" style="stop-color:#999999"/>
					<stop  offset="0.7741" style="stop-color:#BEBEBE"/>
					<stop  offset="0.7912" style="stop-color:#DADADA"/>
					<stop  offset="0.8081" style="stop-color:#EFEFEF"/>
					<stop  offset="0.8249" style="stop-color:#FBFBFB"/>
					<stop  offset="0.8414" style="stop-color:#FFFFFF"/>
					<stop  offset="0.85" style="stop-color:#FAFAFA"/>
					<stop  offset="0.8597" style="stop-color:#EDEDED"/>
					<stop  offset="0.87" style="stop-color:#D6D6D6"/>
					<stop  offset="0.8806" style="stop-color:#B7B7B7"/>
					<stop  offset="0.8915" style="stop-color:#8E8E8E"/>
					<stop  offset="0.9025" style="stop-color:#5D5D5D"/>
					<stop  offset="0.9103" style="stop-color:#363636"/>
					<stop  offset="0.9451" style="stop-color:#363636"/>
					<stop  offset="1" style="stop-color:#737373"/>
				</linearGradient>
				<path class="st13" d="M70,44.8c0.4,0.1,1.1,0.6,1.6,1c0.4,0.3,0.8,0.6,0.8,0.6c-3.7,4.7-9.3,12.7-11.1,16.1
					c-0.9,1.8-0.9,2.5-0.9,4.1c0,1.6,0.2,3.5,0.1,4.4c-0.1,0.9-0.7,1.3-1.6,1.6c-0.9,0.2-6.3,1.1-7.5,1.5c-1.2,0.4-1.5,1-1.7,1.9
					c-0.2,0.9-0.3,1.4-0.4,1.7c-0.1,0.4,0,0.6-0.4,0.7c-0.3,0-1.2,0.1-1.5,0.2c-0.4,0.1-0.4,0-0.4-0.4c0-0.4,0.4-2.3,0.7-3.3
					c0.3-1,0.7-1.7,2-2c1.3-0.3,6.8-1.2,7.8-1.4c1.2-0.2,1.5-0.7,1.4-1.9c-0.1-1.2-0.2-2.9-0.3-3.9c0-1,0-1.9,0.4-2.8
					c0.4-1,2.3-5.2,3.9-8.2c2.2-4.1,5-8.5,5.5-9.1C69.2,44.8,69.5,44.6,70,44.8z"/>
				<linearGradient id="SVGID_14_" gradientUnits="userSpaceOnUse" x1="69.9441" y1="63.1334" x2="75.8462" y2="66.61">
					<stop  offset="0.2" style="stop-color:#FFFFFF"/>
					<stop  offset="0.3197" style="stop-color:#FDFDFD"/>
					<stop  offset="0.3903" style="stop-color:#F4F4F4"/>
					<stop  offset="0.4482" style="stop-color:#E6E6E6"/>
					<stop  offset="0.4989" style="stop-color:#D2D2D2"/>
					<stop  offset="0.5207" style="stop-color:#C7C7C7"/>
					<stop  offset="0.8189" style="stop-color:#3B3B3B"/>
					<stop  offset="0.8352" style="stop-color:#333333"/>
					<stop  offset="0.9389" style="stop-color:#242424"/>
					<stop  offset="1" style="stop-color:#191919"/>
				</linearGradient>
				<path class="st14" d="M66.9,74.8c0-1,0.3-1.9,0.9-2.7c0.8-1.2,2.1-2.4,3.7-4c2.7-2.8,9.4-9.4,9.7-9.6c0.1-0.1,0.3-0.4,0-0.7
					c-0.7-0.6-1-1-2.1-2.1c-0.6-0.6-1.1-1-1.1-1.2c0,0-7.5,8.4-9.9,14.6c-1,2.2-1.3,3.5-1.3,4.6C66.8,74.5,66.9,74.8,66.9,74.8z"/>
				<linearGradient id="SVGID_15_" gradientUnits="userSpaceOnUse" x1="73.2539" y1="47.1484" x2="79.4641" y2="39.7132">
					<stop  offset="2.197800e-02" style="stop-color:#FFFFFF"/>
					<stop  offset="0.1828" style="stop-color:#FFFFFF"/>
					<stop  offset="0.2088" style="stop-color:#FFFFFF"/>
					<stop  offset="0.3037" style="stop-color:#F7F7F7"/>
					<stop  offset="0.4491" style="stop-color:#E2E2E2"/>
					<stop  offset="0.5" style="stop-color:#D9D9D9"/>
					<stop  offset="0.5971" style="stop-color:#C5C5C5"/>
					<stop  offset="0.8268" style="stop-color:#9C9C9C"/>
					<stop  offset="0.9451" style="stop-color:#8C8C8C"/>
					<stop  offset="1" style="stop-color:#858585"/>
				</linearGradient>
				<path class="st15" d="M43.2,20c1,0,2,0,2.9,0.1c1.8,0.2,3.9,0.7,5.3,1.3c0.7,0.3,2.4,1.2,4.4,2.3c3.4,1.9,7.7,4.4,9.2,5.3
					c5.3,3,9.6,5.8,13.6,8.8c1.4,1.1,2.8,2.2,4.2,3.2c7.8,6.3,14.3,13.3,22.9,28.4c0.3,0.6,0.4,1,0.4,1.6c0,0.4-0.4,0.9-1,1L43.2,20
					z"/>
				<linearGradient id="SVGID_16_" gradientUnits="userSpaceOnUse" x1="86.9613" y1="5.6647" x2="95.0471" y2="13.9363">
					<stop  offset="0" style="stop-color:#000000"/>
					<stop  offset="4.349557e-02" style="stop-color:#020202"/>
					<stop  offset="6.841227e-02" style="stop-color:#0B0B0B"/>
					<stop  offset="8.864614e-02" style="stop-color:#191919"/>
					<stop  offset="0.1064" style="stop-color:#2C2C2C"/>
					<stop  offset="0.1225" style="stop-color:#464646"/>
					<stop  offset="0.1373" style="stop-color:#666666"/>
					<stop  offset="0.1513" style="stop-color:#8C8C8C"/>
					<stop  offset="0.1646" style="stop-color:#B7B7B7"/>
					<stop  offset="0.1768" style="stop-color:#E7E7E7"/>
					<stop  offset="0.1793" style="stop-color:#F2F2F2"/>
					<stop  offset="0.1929" style="stop-color:#E4E4E4"/>
					<stop  offset="0.2458" style="stop-color:#B2B2B2"/>
					<stop  offset="0.2999" style="stop-color:#878787"/>
					<stop  offset="0.3543" style="stop-color:#646464"/>
					<stop  offset="0.4091" style="stop-color:#494949"/>
					<stop  offset="0.4645" style="stop-color:#363636"/>
					<stop  offset="0.5207" style="stop-color:#2A2A2A"/>
					<stop  offset="0.5793" style="stop-color:#262626"/>
					<stop  offset="0.7135" style="stop-color:#1F1F1F"/>
					<stop  offset="0.911" style="stop-color:#0B0B0B"/>
					<stop  offset="1" style="stop-color:#000000"/>
				</linearGradient>
				<path class="st16" d="M94.4,12.9L94.4,12.9L94.4,12.9c-0.3,0-0.5-0.1-0.7-0.3c-1.2-0.9-4.7-3.6-5.2-5.9c-0.3-1.1,0.1-0.6-1-1.1
					c-0.3-0.1-0.6-0.2-0.9-0.4c0.1,0.1,0.2,0.1,0.3,0.2c0.2,0.1,0.3,0.2,0.4,0.3c0.4,0.4,0.5,0.8,0.5,0.9c0.2,1,0.8,2.4,2.1,3.8
					c1.1,1.3,3.4,3.2,3.9,3.5c0.3,0.2,0.6,0.4,0.9,0.7c0.1-0.8,0.4-1.6,0.7-2.4c-0.1,0.1-0.1,0.2-0.2,0.3
					C94.9,12.7,94.7,12.9,94.4,12.9z"/>
				<linearGradient id="SVGID_17_" gradientUnits="userSpaceOnUse" x1="87.9304" y1="40.0412" x2="97.1324" y2="33.9994">
					<stop  offset="0" style="stop-color:#000000"/>
					<stop  offset="4.349557e-02" style="stop-color:#020202"/>
					<stop  offset="6.841227e-02" style="stop-color:#0B0B0B"/>
					<stop  offset="8.864614e-02" style="stop-color:#191919"/>
					<stop  offset="0.1064" style="stop-color:#2C2C2C"/>
					<stop  offset="0.1225" style="stop-color:#464646"/>
					<stop  offset="0.1373" style="stop-color:#666666"/>
					<stop  offset="0.1513" style="stop-color:#8C8C8C"/>
					<stop  offset="0.1646" style="stop-color:#B7B7B7"/>
					<stop  offset="0.1768" style="stop-color:#E7E7E7"/>
					<stop  offset="0.1793" style="stop-color:#F2F2F2"/>
					<stop  offset="0.1929" style="stop-color:#E4E4E4"/>
					<stop  offset="0.2458" style="stop-color:#B2B2B2"/>
					<stop  offset="0.2999" style="stop-color:#878787"/>
					<stop  offset="0.3543" style="stop-color:#646464"/>
					<stop  offset="0.4091" style="stop-color:#494949"/>
					<stop  offset="0.4645" style="stop-color:#363636"/>
					<stop  offset="0.5207" style="stop-color:#2A2A2A"/>
					<stop  offset="0.5793" style="stop-color:#262626"/>
					<stop  offset="0.7135" style="stop-color:#1F1F1F"/>
					<stop  offset="0.911" style="stop-color:#0B0B0B"/>
					<stop  offset="1" style="stop-color:#000000"/>
				</linearGradient>
				<path class="st17" d="M86.8,32.2c-1.2,0.4-1.3,0.8-1.3,1.4v0c0,0.5,0.2,1.4,0.8,2.1c0.6,0.9,3.5,4.2,6.8,8.2
					c0.4,0.5,0.5,0.6,0.8,0.9c-0.1-0.2-4.7-6-6.1-7.6c-0.4-0.5-0.9-1.1-0.9-1.9c0-0.8,0.6-2,1.9-2.5c1.7-0.6,4.9-1.7,5.6-2.1
					c0.7-0.4,0.9-0.6,1-1.1c-0.4,0.3-0.8,0.5-1.4,0.7C92.3,30.9,88.3,31.8,86.8,32.2z"/>
				<g>
					<linearGradient id="SVGID_18_" gradientUnits="userSpaceOnUse" x1="95.3151" y1="10.6634" x2="107.3999" y2="10.6634">
						<stop  offset="0" style="stop-color:#4C4C4C"/>
						<stop  offset="0.2857" style="stop-color:#CCCCCC"/>
						<stop  offset="0.2991" style="stop-color:#C0C0C0"/>
						<stop  offset="0.3504" style="stop-color:#979797"/>
						<stop  offset="0.4006" style="stop-color:#767676"/>
						<stop  offset="0.4488" style="stop-color:#5F5F5F"/>
						<stop  offset="0.4939" style="stop-color:#515151"/>
						<stop  offset="0.533" style="stop-color:#4C4C4C"/>
						<stop  offset="0.7582" style="stop-color:#191919"/>
						<stop  offset="1" style="stop-color:#000000"/>
					</linearGradient>
					<path class="st18" d="M95.3,13.2c0.6-2.2,2.6-4.8,5.8-4.8c4,0,5.7,1.5,6.3,3.8c-0.7-3.2-3.5-4.2-6.3-4.2
						C98,8.2,95.9,10.8,95.3,13.2z"/>
				</g>
				<linearGradient id="SVGID_19_" gradientUnits="userSpaceOnUse" x1="45.9908" y1="73.5065" x2="73.8563" y2="73.5065">
					<stop  offset="0" style="stop-color:#000000"/>
					<stop  offset="5.118977e-02" style="stop-color:#020202"/>
					<stop  offset="8.051170e-02" style="stop-color:#0B0B0B"/>
					<stop  offset="0.1043" style="stop-color:#191919"/>
					<stop  offset="0.1252" style="stop-color:#2C2C2C"/>
					<stop  offset="0.144" style="stop-color:#464646"/>
					<stop  offset="0.1615" style="stop-color:#666666"/>
					<stop  offset="0.1777" style="stop-color:#8B8B8B"/>
					<stop  offset="0.1793" style="stop-color:#8F8F8F"/>
					<stop  offset="0.1944" style="stop-color:#878787"/>
					<stop  offset="0.2688" style="stop-color:#646464"/>
					<stop  offset="0.3444" style="stop-color:#494949"/>
					<stop  offset="0.4208" style="stop-color:#363636"/>
					<stop  offset="0.4984" style="stop-color:#2A2A2A"/>
					<stop  offset="0.5793" style="stop-color:#262626"/>
					<stop  offset="0.7135" style="stop-color:#1F1F1F"/>
					<stop  offset="0.911" style="stop-color:#0B0B0B"/>
					<stop  offset="1" style="stop-color:#000000"/>
				</linearGradient>
				<path class="st19" d="M69,71.8c0.5-0.6,2.6-2.9,4.8-5.4c-0.7,0.7-1.4,1.4-1.9,1.9c-3.1,3.2-4.5,4.2-4.5,6.2
					c0,1.2,0.1,4.1,0.1,4.5c0,0.3,0,0.6-0.5,0.8C66.9,80,66.5,80,66.3,80c-0.9,0-9.1-0.8-12-0.8c-2.9,0-5.4,0.3-6.9,0.7
					c-0.2,0.1-0.9,0-1.1-0.4c-0.1-0.2-0.2-0.4-0.2-0.6C46,79.6,46,80.2,46,80.5c0.5-0.1,1.7-0.3,3.3-0.4c2-0.2,4.3-0.1,5.8-0.1
					s12.9,0.6,12.9,0.6c-0.1-0.9-0.2-2.9-0.2-4.2c0-0.3,0-0.3,0-1.3C67.8,74.1,68,72.9,69,71.8z"/>
				<linearGradient id="SVGID_20_" gradientUnits="userSpaceOnUse" x1="81.4477" y1="62.8121" x2="93.9106" y2="62.8121">
					<stop  offset="0" style="stop-color:#000000"/>
					<stop  offset="5.118977e-02" style="stop-color:#020202"/>
					<stop  offset="8.051170e-02" style="stop-color:#0B0B0B"/>
					<stop  offset="0.1043" style="stop-color:#191919"/>
					<stop  offset="0.1252" style="stop-color:#2C2C2C"/>
					<stop  offset="0.144" style="stop-color:#464646"/>
					<stop  offset="0.1615" style="stop-color:#666666"/>
					<stop  offset="0.1777" style="stop-color:#8B8B8B"/>
					<stop  offset="0.1793" style="stop-color:#8F8F8F"/>
					<stop  offset="0.1944" style="stop-color:#878787"/>
					<stop  offset="0.2688" style="stop-color:#646464"/>
					<stop  offset="0.3444" style="stop-color:#494949"/>
					<stop  offset="0.4208" style="stop-color:#363636"/>
					<stop  offset="0.4984" style="stop-color:#2A2A2A"/>
					<stop  offset="0.5793" style="stop-color:#262626"/>
					<stop  offset="0.7135" style="stop-color:#1F1F1F"/>
					<stop  offset="0.911" style="stop-color:#0B0B0B"/>
					<stop  offset="1" style="stop-color:#000000"/>
				</linearGradient>
				<path class="st20" d="M92,66.5c0.6,0.5,1.2,0.8,1.9,1c-0.5-0.4-1.3-0.9-2.3-1.7c-1.5-1.1-3.3-2.6-5.2-4.1
					c-1.6-1.3-3.2-2.5-4.5-3.6c0,0.5-0.3,0.7-0.4,0.8c0.3,0,0.6,0.2,0.8,0.5C82.9,59.9,90.5,65.4,92,66.5z"/>
				<linearGradient id="SVGID_21_" gradientUnits="userSpaceOnUse" x1="89.7919" y1="64.4867" x2="112.6838" y2="64.4867">
					<stop  offset="0" style="stop-color:#000000"/>
					<stop  offset="5.118977e-02" style="stop-color:#020202"/>
					<stop  offset="8.051170e-02" style="stop-color:#0B0B0B"/>
					<stop  offset="0.1043" style="stop-color:#191919"/>
					<stop  offset="0.1252" style="stop-color:#2C2C2C"/>
					<stop  offset="0.144" style="stop-color:#464646"/>
					<stop  offset="0.1615" style="stop-color:#666666"/>
					<stop  offset="0.1777" style="stop-color:#8B8B8B"/>
					<stop  offset="0.1793" style="stop-color:#8F8F8F"/>
					<stop  offset="0.1944" style="stop-color:#878787"/>
					<stop  offset="0.2688" style="stop-color:#646464"/>
					<stop  offset="0.3444" style="stop-color:#494949"/>
					<stop  offset="0.4208" style="stop-color:#363636"/>
					<stop  offset="0.4984" style="stop-color:#2A2A2A"/>
					<stop  offset="0.5793" style="stop-color:#262626"/>
					<stop  offset="0.7135" style="stop-color:#1F1F1F"/>
					<stop  offset="0.911" style="stop-color:#0B0B0B"/>
					<stop  offset="1" style="stop-color:#000000"/>
				</linearGradient>
				<path class="st21" d="M112.3,76.3c0.3-0.2,0.4-0.2,0.4-0.4c0-0.1-0.1-0.4-0.2-0.8c-1.5-4.4-7.4-15.3-12-21.4
					c-0.4-0.6-0.7-1.4-0.7-1.9c0-0.7,0.4-1.2,0.7-1.5c0.3-0.3,1.1-0.9,2.1-1.9c-1.6,1.2-2.7,2.1-2.8,2.6c-0.1,0.2-0.2,0.5-0.2,0.9
					c0,0.5,0.2,1.1,0.8,2c0.4,0.5,0.7,1,1.1,1.5c5.3,7.8,9,15.4,10.4,18.9c0.3,0.9,0.2,1.3,0,1.7c0,0-2.8,2.8-3.1,3.4
					c-0.1,0.2-0.3,0.4-0.4,0.6c-0.2,0.2-0.7,0.3-1.1,0.2c-4.1-0.4-8.5-0.5-10.7-0.5c-2.9,0-4.6,0.3-5.5,0.3c-0.5,0-0.9-0.1-0.9-0.2
					c0,0,0,0,0,0c0,0.4-0.1,0.7-0.1,0.8c1.8-0.3,4.1-0.5,6.7-0.5c0.8,0,1.7,0,2.6,0c4.3,0.1,9.3,0.5,9.3,0.5
					C108.4,80.6,110.8,77.5,112.3,76.3z"/>
				<linearGradient id="SVGID_22_" gradientUnits="userSpaceOnUse" x1="44.7671" y1="42.1302" x2="68.6292" y2="42.1302">
					<stop  offset="0" style="stop-color:#666666"/>
					<stop  offset="5.677869e-02" style="stop-color:#686868"/>
					<stop  offset="8.929446e-02" style="stop-color:#717171"/>
					<stop  offset="0.1157" style="stop-color:#7F7F7F"/>
					<stop  offset="0.1388" style="stop-color:#929292"/>
					<stop  offset="0.1596" style="stop-color:#ACACAC"/>
					<stop  offset="0.1787" style="stop-color:#CBCBCB"/>
					<stop  offset="0.1793" style="stop-color:#CCCCCC"/>
					<stop  offset="0.2072" style="stop-color:#BEBEBE"/>
					<stop  offset="0.3158" style="stop-color:#8C8C8C"/>
					<stop  offset="0.4268" style="stop-color:#616161"/>
					<stop  offset="0.5384" style="stop-color:#3E3E3E"/>
					<stop  offset="0.6508" style="stop-color:#232323"/>
					<stop  offset="0.7644" style="stop-color:#0F0F0F"/>
					<stop  offset="0.8798" style="stop-color:#040404"/>
					<stop  offset="1" style="stop-color:#000000"/>
				</linearGradient>
				<path class="st22" d="M68.6,44.3c-1.3-0.9-2.7-1.8-3.9-2.6c-1.6-1-3.2-1.7-3.7-1.7c-5-0.1-5-0.1-7.9-0.1c-2.3,0-4.5,0.1-5.3,0.2
					c-1.7,0.1-2.6,0.3-2.8,0.4c-0.2,0-0.3,0-0.3,0c0,0.1,0.1,0.2,0.1,0.3c0,0,0.1,0,0.2-0.1c1-0.3,3.4-0.4,6.3-0.4
					c2.8,0,5.8,0,7.4,0.1c1.4,0.1,3.4,0.3,5,1.1C65.3,42.2,68.5,44.5,68.6,44.3z"/>
				<linearGradient id="SVGID_23_" gradientUnits="userSpaceOnUse" x1="45.2935" y1="27.6094" x2="53.7855" y2="27.6094">
					<stop  offset="0" style="stop-color:#262626"/>
					<stop  offset="4.889391e-02" style="stop-color:#292929"/>
					<stop  offset="7.689206e-02" style="stop-color:#313131"/>
					<stop  offset="9.961990e-02" style="stop-color:#3F3F3F"/>
					<stop  offset="0.1195" style="stop-color:#535353"/>
					<stop  offset="0.1376" style="stop-color:#6C6C6C"/>
					<stop  offset="0.1543" style="stop-color:#8C8C8C"/>
					<stop  offset="0.1697" style="stop-color:#B1B1B1"/>
					<stop  offset="0.1793" style="stop-color:#CCCCCC"/>
					<stop  offset="0.2072" style="stop-color:#BEBEBE"/>
					<stop  offset="0.3158" style="stop-color:#8C8C8C"/>
					<stop  offset="0.4268" style="stop-color:#616161"/>
					<stop  offset="0.5384" style="stop-color:#3E3E3E"/>
					<stop  offset="0.6508" style="stop-color:#232323"/>
					<stop  offset="0.7644" style="stop-color:#0F0F0F"/>
					<stop  offset="0.8798" style="stop-color:#040404"/>
					<stop  offset="1" style="stop-color:#000000"/>
				</linearGradient>
				<path class="st23" d="M53.6,29.9c-1.9-1.8-4.8-3.8-6.1-4.1c-0.5-0.1-1.1-0.2-1.7-0.2c-0.4,0-0.4-0.5-0.5-0.6
					c0,0.1,0,0.8,0.3,0.8c0.3,0,1.4-0.1,2.3,0.3c1.3,0.6,4.5,3,5,3.5C53.5,30.4,54.1,30.3,53.6,29.9z"/>
				<linearGradient id="SVGID_24_" gradientUnits="userSpaceOnUse" x1="38.0387" y1="39.9939" x2="43.628" y2="39.9939">
					<stop  offset="0" style="stop-color:#666666"/>
					<stop  offset="6.204497e-02" style="stop-color:#686868"/>
					<stop  offset="9.757580e-02" style="stop-color:#717171"/>
					<stop  offset="0.1264" style="stop-color:#7F7F7F"/>
					<stop  offset="0.1516" style="stop-color:#929292"/>
					<stop  offset="0.1743" style="stop-color:#ACACAC"/>
					<stop  offset="0.1793" style="stop-color:#B2B2B2"/>
					<stop  offset="0.182" style="stop-color:#B2B2B2"/>
					<stop  offset="0.3133" style="stop-color:#878787"/>
					<stop  offset="0.4469" style="stop-color:#646464"/>
					<stop  offset="0.5816" style="stop-color:#494949"/>
					<stop  offset="0.7176" style="stop-color:#363636"/>
					<stop  offset="0.856" style="stop-color:#2A2A2A"/>
					<stop  offset="1" style="stop-color:#262626"/>
				</linearGradient>
				<path class="st24" d="M42.8,39.4c0.4,0,0.5,0,0.8,0.1c-0.2-0.3-0.4-0.5-1-0.5c-0.9,0-3.1,1.1-3.5,1.4c-0.5,0.3-0.8,0.3-1.1-0.1
					c0.2,0.4,0.4,0.6,0.6,0.5C38.9,40.8,41.6,39.4,42.8,39.4z"/>
				<linearGradient id="SVGID_25_" gradientUnits="userSpaceOnUse" x1="67.4304" y1="5.3456" x2="68.0439" y2="6.6953">
					<stop  offset="0" style="stop-color:#FFFFFF"/>
					<stop  offset="0.1154" style="stop-color:#EBEBEB"/>
					<stop  offset="0.9066" style="stop-color:#404040"/>
				</linearGradient>
				<path class="st25" d="M69.1,5c0.4-0.1,0.8-0.2,0.8,0.2c0,0.2,0,0.4-0.1,0.5c0,0.1-0.1,0.2-0.3,0.3c-0.4,0.1-2.9,1-3.3,1.2
					c-0.3,0.1-0.5,0-0.6-0.2c-0.1-0.2,0-0.7,0.1-0.9c0.1-0.2,0.3-0.3,0.5-0.4C66.5,5.7,68.5,5.1,69.1,5z"/>
				<path d="M69,5.3c0.3,0,0.4,0,0.4,0.1c0,0.2,0,0.3,0,0.3c0,0.1,0,0.1-0.2,0.2c-0.3,0.1-2.1,0.7-2.5,0.9c-0.4,0.2-0.6,0.1-0.6-0.1
					c0-0.2,0-0.4,0.1-0.6c0.1-0.1,0.2-0.2,0.3-0.2C66.8,5.8,68.5,5.3,69,5.3z"/>
				<linearGradient id="SVGID_26_" gradientUnits="userSpaceOnUse" x1="59.7474" y1="19.2506" x2="82.3274" y2="19.2506">
					<stop  offset="0.6868" style="stop-color:#FFFFFF"/>
					<stop  offset="0.7158" style="stop-color:#FAFAFA"/>
					<stop  offset="0.7521" style="stop-color:#EAEAEA"/>
					<stop  offset="0.7922" style="stop-color:#D1D1D1"/>
					<stop  offset="0.8351" style="stop-color:#ADADAD"/>
					<stop  offset="0.8803" style="stop-color:#7F7F7F"/>
					<stop  offset="0.9273" style="stop-color:#474747"/>
					<stop  offset="0.9751" style="stop-color:#070707"/>
					<stop  offset="0.9797" style="stop-color:#000000"/>
				</linearGradient>
				<path class="st26" d="M78.9,28.5c0.3-0.5,2.3-4.7,2.7-5.9c0.3-0.8,0.6-1.5,0.6-2.5c0-0.6-0.2-1.6-0.6-2.5
					c-1.1-2.3-4.5-6.6-5.9-8.3c-1.2-1.4-2.2-1.6-4.2-1.5c-5,0.1-9.4,2.3-11.9,3.3c1.8-0.6,6-2.4,10.8-2.6c2.6-0.2,3.7,0.1,4.6,1.1
					c1.4,1.5,4.6,5.9,5.8,8.1c0.5,0.9,0.7,1.7,0.6,2.3c-0.1,1-0.5,1.8-0.7,2.4c-0.5,1.2-2.4,4.9-2.7,5.5c-1.4,2.3-2.6,2.3-4,1.9
					c0.1,0,0.7,0.3,1.3,0.6C77,31.1,78,30.2,78.9,28.5z"/>
				<linearGradient id="SVGID_27_" gradientUnits="userSpaceOnUse" x1="58.2666" y1="75.1458" x2="66.6374" y2="45.5415">
					<stop  offset="0" style="stop-color:#E5E5E5"/>
					<stop  offset="6.593400e-02" style="stop-color:#404040"/>
					<stop  offset="7.501830e-02" style="stop-color:#424242"/>
					<stop  offset="0.2588" style="stop-color:#6E6E6E"/>
					<stop  offset="0.3517" style="stop-color:#808080"/>
					<stop  offset="0.4902" style="stop-color:#9A9A9A"/>
					<stop  offset="0.6044" style="stop-color:#ABABAB"/>
					<stop  offset="0.7298" style="stop-color:#898989"/>
					<stop  offset="0.8783" style="stop-color:#666666"/>
					<stop  offset="0.9586" style="stop-color:#595959"/>
					<stop  offset="1" style="stop-color:#A6A6A6"/>
				</linearGradient>
				<path class="st27" d="M72.9,46.7c-0.1,0-0.3-0.2-0.6-0.4c-0.8,0.9-4.2,5.1-6.5,8.9c-1.8,2.8-4.4,7.1-4.8,8
					c-0.4,0.9-0.5,1.6-0.5,2.7c0,0,0.1,4.6,0.1,4.6c0,0.6-0.1,1-0.4,1.4c-0.3,0.4-0.8,0.5-1.4,0.6c-1.1,0.2-6.1,0.9-7.5,1.2
					c-1.3,0.3-1.9,0.9-2.2,1.8c-0.2,0.6-0.5,1.7-0.5,2.2c0,0,0,0.3,0,0.3c0,0.5,0.1,0.5,0.1,0.5s5.8-0.4,9.3-0.2
					c3.5,0.2,8.2,0.7,8.2,0.7s-5-0.9-8.4-1.2c-3.4-0.2-7.9,0.2-8,0c0-0.1-0.1-0.4-0.1-0.8c0.1-0.3,0.1-0.6,0.2-0.9
					c0.2-0.8,0.6-1.6,1.9-1.9c1.3-0.3,6.1-1.1,7.1-1.4c0.9-0.2,1.5-0.6,1.6-1.3c0-0.2,0.1-0.7,0.1-1.2c0-1-0.2-3.6-0.2-3.7
					c0-1.6,0.1-2.4,1.1-4.2c1.6-2.7,7.7-12,10.7-15.2c0.2-0.2,0.3-0.4,0.6-0.3C73,46.8,72.9,46.7,72.9,46.7z"/>
			</g>
		</g>
		<g>
		</g>
	</g>
</g>
</svg>
