<?xml version="1.0" encoding="UTF-8" standalone="no"?>
<!-- Created with Inkscape (http://www.inkscape.org/) -->

<svg
   xmlns:dc="http://purl.org/dc/elements/1.1/"
   xmlns:cc="http://creativecommons.org/ns#"
   xmlns:rdf="http://www.w3.org/1999/02/22-rdf-syntax-ns#"
   xmlns:svg="http://www.w3.org/2000/svg"
   xmlns="http://www.w3.org/2000/svg"
   xmlns:sodipodi="http://sodipodi.sourceforge.net/DTD/sodipodi-0.dtd"
   xmlns:inkscape="http://www.inkscape.org/namespaces/inkscape"
   id="svg2"
   sodipodi:version="0.32"
   inkscape:version="0.48.1 "
   width="295.5759"
   height="83.407166"
   xml:space="preserve"
   sodipodi:docname="AJAX.svg"
   version="1.0"
   inkscape:output_extension="org.inkscape.output.svg.inkscape"><metadata
     id="metadata7"><rdf:RDF><cc:Work
         rdf:about=""><dc:format>image/svg+xml</dc:format><dc:type
           rdf:resource="http://purl.org/dc/dcmitype/StillImage" /></cc:Work></rdf:RDF></metadata><defs
     id="defs5"><inkscape:perspective
       sodipodi:type="inkscape:persp3d"
       inkscape:vp_x="0 : 526.18109 : 1"
       inkscape:vp_y="0 : 1000 : 0"
       inkscape:vp_z="744.09448 : 526.18109 : 1"
       inkscape:persp3d-origin="372.04724 : 350.78739 : 1"
       id="perspective9" /><clipPath
       clipPathUnits="userSpaceOnUse"
       id="clipPath99"><path
         d="m 0,0 595.276,0 0,841.89 L 0,841.89 0,0 z"
         id="path101"
         inkscape:connector-curvature="0" /></clipPath><clipPath
       clipPathUnits="userSpaceOnUse"
       id="clipPath253"><path
         d="m 0,0 595.276,0 0,841.89 L 0,841.89 0,0 z"
         id="path255"
         inkscape:connector-curvature="0" /></clipPath><clipPath
       clipPathUnits="userSpaceOnUse"
       id="clipPath345"><path
         d="m 0,0 595.276,0 0,841.89 L 0,841.89 0,0 z"
         id="path347"
         inkscape:connector-curvature="0" /></clipPath></defs><sodipodi:namedview
     inkscape:window-height="750"
     inkscape:window-width="1280"
     inkscape:pageshadow="2"
     inkscape:pageopacity="0.0"
     guidetolerance="10.0"
     gridtolerance="10.0"
     objecttolerance="10.0"
     borderopacity="1.0"
     bordercolor="#666666"
     pagecolor="#ffffff"
     id="base"
     showgrid="false"
     inkscape:zoom="2.483428"
     inkscape:cx="148.87599"
     inkscape:cy="48.980558"
     inkscape:window-x="-8"
     inkscape:window-y="-8"
     inkscape:current-layer="g11"
     fit-margin-top="0"
     fit-margin-left="0"
     fit-margin-right="0"
     fit-margin-bottom="0"
     inkscape:window-maximized="0" /><g
     id="g11"
     inkscape:groupmode="layer"
     inkscape:label="bookingguide"
     transform="matrix(1.25,0,0,-1.25,-233.49635,650.19761)"><g
       id="g2901"
       transform="matrix(1.6346852,0,0,1.6346852,-480.32465,383.92554)"><g
         transform="translate(542.6324,64.7148)"
         id="g151"><path
           id="path153"
           style="fill:#747f8a;fill-opacity:1;fill-rule:nonzero;stroke:none"
           d="M 0,0 C 0,-0.193 -2.713,-0.374 -6.586,-0.526 -7.27,-0.138 -7.789,0.252 -8.169,0.588 -3.472,0.422 0,0.217 0,0"
           inkscape:connector-curvature="0" /></g><g
         transform="translate(539.8502,71.2535)"
         id="g155"><path
           id="path157"
           style="fill:#747f8a;fill-opacity:1;fill-rule:nonzero;stroke:none"
           d="m 0,0 c 0,-0.161 -2.274,-0.312 -5.525,-0.442 0.466,0.272 0.946,0.546 1.45,0.821 C -1.619,0.266 0,0.135 0,0"
           inkscape:connector-curvature="0" /></g><g
         transform="translate(515.6267,57.1865)"
         id="g159"><path
           id="path161"
           style="fill:#747f8a;fill-opacity:1;fill-rule:nonzero;stroke:none"
           d="m 0,0 c -1.505,-0.018 -2.825,-0.025 -3.856,-0.025 -1.484,0 -2.686,0.457 -2.686,1.024 0,0.564 1.202,1.021 2.686,1.021 1.314,0 3.094,-0.014 5.136,-0.04 C 0.49,0.84 0.115,0.155 0.08,0.112 0.057,0.079 0.028,0.04 0,0"
           inkscape:connector-curvature="0" /></g><g
         transform="translate(516.4374,55.817)"
         id="g163"><path
           id="path165"
           style="fill:#747f8a;fill-opacity:1;fill-rule:nonzero;stroke:none"
           d="m 0,0 c 0.496,-0.599 0.972,-1.103 1.609,-1.654 0,0 0.24,-0.343 0.969,-0.049 0.742,0.302 1.371,0.713 2.08,1.664 2.07,-0.035 4.265,-0.081 6.426,-0.13 0.178,-0.259 0.539,-0.795 0.984,-1.456 -6.024,-0.156 -12.562,-0.249 -15.911,-0.249 -1.395,0 -2.527,0.433 -2.527,0.963 0,0.533 1.132,0.963 2.527,0.963 1.02,0 2.334,-0.007 3.838,-0.024 C -0.006,0.014 0,0 0,0"
           inkscape:connector-curvature="0" /></g><g
         transform="translate(514.1071,50.7933)"
         id="g167"><path
           id="path169"
           style="fill:#747f8a;fill-opacity:1;fill-rule:nonzero;stroke:none"
           d="m 0,0 c -1.238,0 -2.241,0.381 -2.241,0.851 0,0.471 1.003,0.853 2.241,0.853 3.275,0 9.989,-0.1 15.739,-0.263 C 16.016,1.044 16.293,0.649 16.556,0.286 10.636,0.112 3.43,0 0,0"
           inkscape:connector-curvature="0" /></g><g
         transform="translate(533.2043,48.0615)"
         id="g171"><path
           id="path173"
           style="fill:#747f8a;fill-opacity:1;fill-rule:nonzero;stroke:none"
           d="m 0,0 c -4.829,-0.212 -13.132,-0.354 -16.582,-0.354 -0.971,0 -1.76,0.303 -1.76,0.67 0,0.37 0.789,0.671 1.76,0.671 3.3,0 11.05,-0.13 15.941,-0.325 C -0.42,0.425 -0.204,0.202 0,0"
           inkscape:connector-curvature="0" /></g><g
         transform="translate(520.606,46.2503)"
         id="g175"><path
           id="path177"
           style="fill:#747f8a;fill-opacity:1;fill-rule:nonzero;stroke:none"
           d="m 0,0 c 2.849,0 11.522,-0.215 11.522,-0.475 0,-0.264 -8.674,-0.477 -11.522,-0.477 -0.555,0 -1.004,0.213 -1.004,0.477 C -1.004,-0.215 -0.555,0 0,0"
           inkscape:connector-curvature="0" /></g><g
         transform="translate(520.6375,63.7869)"
         id="g179"><path
           id="path181"
           style="fill:#747f8a;fill-opacity:1;fill-rule:nonzero;stroke:none"
           d="m 0,0 c -3.586,-0.061 -6.799,-0.095 -8.867,-0.095 -1.483,0 -2.686,0.457 -2.686,1.023 0,0.565 1.203,1.024 2.686,1.024 2.402,0 6.349,-0.046 10.628,-0.127 C 1.125,1.196 0.537,0.584 0,0"
           inkscape:connector-curvature="0" /></g><g
         transform="translate(538.2264,68.3606)"
         id="g183"><path
           id="path185"
           style="fill:#747f8a;fill-opacity:1;fill-rule:nonzero;stroke:none"
           d="m 0,0 c 2.101,-0.114 3.423,-0.239 3.423,-0.369 0,-0.143 -1.6,-0.28 -4.076,-0.402 C -0.124,-0.373 -0.008,-0.026 0,0"
           inkscape:connector-curvature="0" /></g><g
         transform="translate(512.5949,67.0302)"
         id="g187"><path
           id="path189"
           style="fill:#747f8a;fill-opacity:1;fill-rule:nonzero;stroke:none"
           d="m 0,0 c -1.396,0 -2.528,0.43 -2.528,0.962 0,0.531 1.132,0.963 2.528,0.963 2.863,0 8.056,-0.07 13.265,-0.185 C 12.626,1.201 12.02,0.668 11.448,0.145 6.876,0.053 2.53,0 0,0"
           inkscape:connector-curvature="0" /></g><g
         transform="translate(528.1628,70.6191)"
         id="g191"><path
           id="path193"
           style="fill:#747f8a;fill-opacity:1;fill-rule:nonzero;stroke:none"
           d="m 0,0 c -5.326,-0.135 -11.096,-0.218 -14.056,-0.218 -1.238,0 -2.24,0.381 -2.24,0.852 0,0.471 1.002,0.854 2.24,0.854 3.267,0 9.965,-0.102 15.707,-0.264 C 1.365,1.016 1.077,0.808 0.785,0.59 0.519,0.392 0.257,0.197 0,0"
           inkscape:connector-curvature="0" /></g><g
         transform="translate(516.6219,73.8511)"
         id="g195"><path
           id="path197"
           style="fill:#747f8a;fill-opacity:1;fill-rule:nonzero;stroke:none"
           d="m 0,0 c -0.971,0 -1.76,0.299 -1.76,0.67 0,0.37 0.789,0.671 1.76,0.671 3.663,0 12.799,-0.162 17.439,-0.393 C 17.143,0.754 16.847,0.553 16.548,0.351 11.712,0.142 3.443,0 0,0"
           inkscape:connector-curvature="0" /></g><g
         transform="translate(511.4938,60.4085)"
         id="g199"><path
           id="path201"
           style="fill:#747f8a;fill-opacity:1;fill-rule:nonzero;stroke:none"
           d="m 0,0 c -1.51,0 -2.736,0.465 -2.736,1.042 0,0.573 1.226,1.04 2.736,1.04 1.893,0 4.726,-0.028 7.93,-0.077 C 7.328,1.297 6.805,0.641 6.357,0.053 3.806,0.019 1.576,0 0,0"
           inkscape:connector-curvature="0" /></g><g
         transform="translate(519.6024,77.1242)"
         id="g203"><path
           id="path205"
           style="fill:#747f8a;fill-opacity:1;fill-rule:nonzero;stroke:none"
           d="M 0,0 C 0,0.263 0.449,0.476 1.004,0.476 3.852,0.476 12.526,0.263 12.526,0 12.526,-0.261 3.853,-0.475 1.004,-0.475 0.449,-0.475 0,-0.261 0,0"
           inkscape:connector-curvature="0" /></g><g
         transform="translate(542.9166,62.2206)"
         id="g207"><path
           id="path209"
           style="fill:#5c0632;fill-opacity:1;fill-rule:nonzero;stroke:none"
           d="m 0,0 c 0.02,-0.519 0.017,-1.034 -0.009,-1.539 -5.046,-0.2 -9.831,-0.504 -9.831,-0.846 0,-0.336 4.678,-0.637 9.666,-0.836 -0.088,-0.576 -0.201,-1.141 -0.339,-1.695 -4.917,-0.201 -9.48,-0.497 -9.48,-0.83 0,-0.321 4.26,-0.61 8.977,-0.811 -0.216,-0.602 -0.461,-1.187 -0.736,-1.747 -4.051,-0.195 -7.399,-0.455 -7.399,-0.739 0,-0.265 2.925,-0.51 6.612,-0.699 -0.207,-0.337 -0.423,-0.667 -0.649,-0.979 -0.24,-0.34 -0.501,-0.677 -0.777,-1.008 -2.305,-0.175 -3.887,-0.374 -3.887,-0.587 0,-0.183 1.133,-0.354 2.879,-0.507 -0.953,-0.943 -2.079,-1.824 -3.406,-2.593 0,0 -1.563,1.346 -2.853,2.918 -1.15,1.402 -3.59,5.098 -4.164,5.925 -0.575,0.827 -0.953,1.069 -1.625,0.829 -0.901,-0.319 -1.948,-0.479 -2.27,-0.479 -0.322,0 -0.499,0.125 0.041,0.339 0.538,0.217 2.665,1.221 3.712,3.296 1.176,2.337 0.142,5.564 0.142,5.564 -0.395,-1.725 -1.293,-2.369 -1.293,-2.369 0.29,1.602 -0.026,3.054 -0.817,4.073 l -0.441,-2.028 c 0,0 -0.276,0.014 -0.959,-0.56 -0.682,-0.575 -0.87,-1.413 -0.87,-1.413 0.537,-0.216 1.183,0.323 1.183,0.323 -0.825,-3.087 -2.008,-5.6 -2.871,-6.929 -0.862,-1.329 -1.573,-1.83 -2.437,-2.181 -0.729,-0.292 -0.969,0.051 -0.969,0.051 -0.637,0.55 -1.113,1.054 -1.609,1.653 0,0 -0.04,0.07 0.094,0.068 0.355,-0.005 0.987,0.602 1.125,0.854 0.158,0.289 0.141,0.51 0.062,0.525 -0.078,0.013 -0.213,-0.216 -0.898,-0.648 -0.681,-0.431 -0.994,-0.132 -1.221,0.108 -0.176,0.191 -0.003,0.427 0.107,0.575 0.104,0.132 3.707,6.851 13.241,13.91 12.494,9.251 20.473,11.749 20.93,11.929 0.302,0.119 0.795,0.276 0.907,0.161 0.124,-0.13 0.185,-0.234 0.168,-0.385 C 8.02,20.543 7.94,20.466 7.362,20.211 2.566,18.098 -3.033,14.576 -6.214,12.526 c -3.912,-1.906 -7.647,-4.628 -7.783,-4.693 -0.301,-0.187 -0.079,-0.459 0.103,-0.345 6.606,4.394 14.351,7.387 22.91,9.839 0.409,0.116 0.633,0.116 0.701,0.026 0.077,-0.1 0.11,-0.214 0.122,-0.34 C 9.85,16.856 9.72,16.773 9.369,16.636 0.174,13.22 -6.603,10.047 -10.962,7.114 c 0,0 -0.451,-0.272 -0.457,-0.587 -0.002,-0.12 0.242,-0.134 0.242,-0.134 2.182,-0.039 5.099,-0.167 6.487,-0.248 0,0 -0.198,-0.703 -1.527,-1.269 C -7.243,4.438 -8.193,4.508 -9.133,4.5 -9.342,4.504 -9.519,4.293 -9.352,4.068 -9.268,3.956 -7.268,0.736 0,0"
           inkscape:connector-curvature="0" /></g><g
         transform="translate(476.2855,45.382)"
         id="g211"></g></g></g></svg>