<?xml version="1.0" encoding="UTF-8" standalone="no"?>
<!-- Created with Inkscape (http://www.inkscape.org/) -->

<svg
   xmlns:dc="http://purl.org/dc/elements/1.1/"
   xmlns:cc="http://creativecommons.org/ns#"
   xmlns:rdf="http://www.w3.org/1999/02/22-rdf-syntax-ns#"
   xmlns:svg="http://www.w3.org/2000/svg"
   xmlns="http://www.w3.org/2000/svg"
   xmlns:sodipodi="http://sodipodi.sourceforge.net/DTD/sodipodi-0.dtd"
   xmlns:inkscape="http://www.inkscape.org/namespaces/inkscape"
   width="92.390663"
   height="63.747341"
   viewBox="0 0 24.44503 16.866484"
   version="1.1"
   id="svg13596"
   inkscape:version="0.92.0 r15299"
   sodipodi:docname="royal air maroc.svg">
  <defs
     id="defs13590">
    <clipPath
       id="clipPath11785"
       clipPathUnits="userSpaceOnUse">
      <path
         inkscape:connector-curvature="0"
         id="path11783"
         d="m 606.536,498.176 h 68.542 v 57.07 h -68.542 z" />
    </clipPath>
    <clipPath
       id="clipPath11765"
       clipPathUnits="userSpaceOnUse">
      <path
         inkscape:connector-curvature="0"
         id="path11763"
         d="M 0,0 H 884.409 V 595.276 H 0 Z" />
    </clipPath>
  </defs>
  <sodipodi:namedview
     id="base"
     pagecolor="#ffffff"
     bordercolor="#666666"
     borderopacity="1.0"
     inkscape:pageopacity="0.0"
     inkscape:pageshadow="2"
     inkscape:zoom="8.361133"
     inkscape:cx="46.195332"
     inkscape:cy="31.873671"
     inkscape:document-units="mm"
     inkscape:current-layer="layer1"
     showgrid="false"
     fit-margin-top="0"
     fit-margin-left="0"
     fit-margin-right="0"
     fit-margin-bottom="0"
     units="px"
     inkscape:window-width="1280"
     inkscape:window-height="744"
     inkscape:window-x="-4"
     inkscape:window-y="-4"
     inkscape:window-maximized="1" />
  <metadata
     id="metadata13593">
    <rdf:RDF>
      <cc:Work
         rdf:about="">
        <dc:format>image/svg+xml</dc:format>
        <dc:type
           rdf:resource="http://purl.org/dc/dcmitype/StillImage" />
        <dc:title></dc:title>
      </cc:Work>
    </rdf:RDF>
  </metadata>
  <g
     inkscape:label="Layer 1"
     inkscape:groupmode="layer"
     id="layer1"
     transform="translate(-103.78161,-195.91861)">
    <g
       id="g13926"
       transform="translate(0.13228892,-0.13228838)">
      <path
         d="m 113.80948,206.28986 -7.1e-4,0.002 2.87655,-2.09021 -0.11747,-0.3616 -2.07081,1.5046 0.3489,-1.0735 -0.30797,-0.22367 -0.60996,1.87784 c -0.73236,-0.57714 -1.20438,-1.47073 -1.20438,-2.47332 0,-0.22966 0.0254,-0.45403 0.0727,-0.66993 l -0.31714,-0.23001 c -0.0762,0.28716 -0.11748,0.58879 -0.11748,0.89994 0,1.16522 0.5715,2.19886 1.4478,2.83774 m 1.90888,-2.05599 -2.07116,-1.5046 h 1.12889 l 0.11748,-0.36195 -1.97662,3.6e-4 c 0.40852,-1.10949 1.42381,-1.92723 2.6416,-2.04823 l 0.12136,-0.37218 c -1.47356,0.0801 -2.70687,1.07244 -3.14572,2.42041 h -7.1e-4 l 2.87691,2.0895 z m -1.91946,-4.6549 h 0.0208 c -0.0148,-0.15805 -0.0691,-0.25153 -0.16863,-0.28893 -0.35736,-0.13476 -0.54998,-0.42933 -0.54998,-0.75917 0,-0.37607 0.24024,-0.6096 0.54187,-0.6096 0.42827,0 0.58349,0.49882 1.0728,0.49882 0.17568,0 0.31926,-0.10301 0.31926,-0.1912 v -0.0519 h -0.0914 c -0.61419,0 -0.70873,-0.61771 -1.30069,-0.61771 -0.50483,0 -0.90417,0.39934 -0.90417,0.97155 0,0.57679 0.44556,1.0481 1.0601,1.0481 m -5.66703,4.03048 h 2.20381 v -0.0194 c -0.22155,-0.067 -0.39794,-0.17533 -0.58173,-0.34255 h -1.62208 c -0.82514,0 -1.06821,-0.0769 -1.47708,-0.51823 h 5.59753 c 0.0243,-0.12241 0.0547,-0.24377 0.091,-0.36159 h -6.47842 l 0.25118,0.29739 c 0.65582,0.77752 0.9017,0.94438 2.01577,0.94438 m 6.77651,-5.63774 c 0.31327,0 0.50659,-0.2607 0.50659,-0.502 0,-0.24518 -0.11253,-0.34502 -0.22895,-0.34502 -0.10266,0 -0.18521,0.084 -0.18521,0.18415 0,0.10936 0.0984,0.1831 0.17251,0.1831 -0.0949,0.14463 -0.23848,0.19402 -0.42369,0.18026 0.0208,-0.031 0.0342,-0.0645 0.0342,-0.10618 0,-0.10478 -0.0868,-0.18345 -0.18344,-0.18345 -0.0917,0 -0.18309,0.0861 -0.18309,0.19544 0,0.20673 0.19332,0.3937 0.49106,0.3937 m -1.80657,7.91598 h -2.65465 c -0.73061,0 -1.00507,-0.061 -1.34232,-0.38135 h -0.49989 c 0.53587,0.60537 0.8322,0.7433 1.84221,0.7433 h 3.02083 c -0.13017,-0.11218 -0.25259,-0.23318 -0.36618,-0.36195 m -1.22167,-0.51823 v -0.0194 c -0.22155,-0.067 -0.39829,-0.17533 -0.58173,-0.34255 h -1.62243 c -0.73095,0 -1.00506,-0.0607 -1.34267,-0.38135 h -0.49953 c 0.53516,0.60537 0.83185,0.7433 1.8422,0.7433 z m -0.77153,-0.88018 v -0.0194 c -0.22154,-0.0667 -0.39828,-0.17533 -0.58173,-0.34219 h -1.62242 c -0.73096,0 -1.00542,-0.0607 -1.34267,-0.38136 h -0.49954 c 0.53552,0.60537 0.83185,0.74295 1.84221,0.74295 z m 5.50263,-5.9951 c -0.18027,0 -0.36265,0.22013 -0.43039,0.54116 0.11183,0.008 0.22296,0.0194 0.33161,0.0363 0.072,-0.27975 0.1965,-0.40887 0.30128,-0.42756 -0.0374,-0.085 -0.10725,-0.14993 -0.2025,-0.14993 m -0.73907,1.4478 -1.0989,3.38172 0.30762,0.22367 0.79093,-2.43452 0.34925,1.0735 h 0.38029 l -0.60995,-1.87819 c 1.23472,0.0462 2.28953,0.80504 2.7626,1.87819 h 0.39123 c -0.50905,-1.31163 -1.78364,-2.24437 -3.27307,-2.24437 m 1.96109,0.18238 v -0.37112 c -0.53692,-0.30797 -1.25377,-0.53516 -1.96109,-0.53516 -0.70767,0 -1.42416,0.22719 -1.96144,0.53516 v 0.37112 c 0.57573,-0.33972 1.24601,-0.54433 1.96144,-0.54433 0.71543,0 1.38536,0.20461 1.96109,0.54433 m -3.74544,-0.70591 c 0.0924,-0.043 0.18662,-0.0833 0.28293,-0.11994 -0.0469,-0.14076 -0.13547,-0.29951 -0.30127,-0.29951 -0.0825,0 -0.14711,0.0663 -0.17498,0.14358 0.0766,0.0272 0.14005,0.0935 0.19332,0.27587 m 0.19791,6.75147 -0.31644,0.2293 c 0.54857,0.3556 1.20156,0.56303 1.90288,0.56303 0.76976,0 1.48202,-0.24976 2.06128,-0.67133 l 0.002,0.001 -1.09855,-3.38173 h -0.38065 l 0.79128,2.43417 -0.91334,-0.66287 -0.30762,0.2233 1.59702,1.16029 c -0.5013,0.33726 -1.10314,0.53516 -1.75119,0.53516 -0.57855,0 -1.12007,-0.15733 -1.58644,-0.43038 m 0.9465,-7.0986 c 0.10936,-0.0169 0.22049,-0.0279 0.33197,-0.036 -0.0677,-0.32103 -0.24977,-0.54116 -0.43004,-0.54116 -0.0952,0 -0.16545,0.0649 -0.20285,0.14993 0.10478,0.0187 0.22966,0.14781 0.30092,0.42721 m -0.65511,-0.33549 c -0.0825,0 -0.16227,0.0579 -0.19438,0.14323 0.0787,0.0116 0.18345,0.0751 0.26071,0.32596 0.10089,-0.0303 0.20355,-0.0571 0.30762,-0.0801 -0.0741,-0.24835 -0.20814,-0.38911 -0.37395,-0.38911 m 8.56192,6.77051 h -0.50024 c -0.3369,0.32032 -0.61136,0.38135 -1.34196,0.38135 h -2.6543 c -0.11395,0.12877 -0.23601,0.24977 -0.36654,0.36195 h 3.02084 c 1.01035,0 1.30668,-0.13793 1.8422,-0.7433 m -7.48418,-3.13866 -0.11747,0.36159 h 2.5594 l -0.91299,0.66358 0.11747,0.3616 1.5995,-1.1617 c 0.0776,0.27305 0.11959,0.56127 0.11959,0.85937 0,0.93239 -0.40781,1.77129 -1.0541,2.34808 l 0.121,0.37219 c 0.78952,-0.64418 1.29505,-1.62419 1.29505,-2.72027 0,-0.37853 -0.0607,-0.7426 -0.17216,-1.08444 l 3.6e-4,-3.6e-4 z m 9.43434,0.36159 c -0.40887,0.44133 -0.65158,0.51823 -1.47673,0.51823 h -1.62243 c -0.18344,0.16722 -0.36018,0.27552 -0.58173,0.34255 v 0.0194 h 2.20416 c 1.11372,0 1.3596,-0.16686 2.01577,-0.94438 l 0.25118,-0.29739 h -6.47877 c 0.0363,0.11782 0.0667,0.23918 0.0914,0.36159 z m -9.57439,-5.44512 0.35771,-0.26 0.35737,0.26035 -0.13617,-0.42051 0.35771,-0.26 h -0.44203 l -0.13688,-0.42051 -0.13652,0.42051 h -0.44238 l 0.35807,0.26 z m 8.3954,7.34201 h -0.49953 c -0.33726,0.32068 -0.61172,0.38135 -1.34267,0.38135 h -1.62243 c -0.18344,0.16722 -0.35983,0.27552 -0.58173,0.34255 v 0.0194 h 2.20416 c 1.01035,0 1.30704,-0.13793 1.8422,-0.7433 m 0.77153,-0.87983 h -0.49954 c -0.3376,0.32068 -0.61171,0.38136 -1.34267,0.38136 h -1.62242 c -0.18345,0.16686 -0.36019,0.27551 -0.58173,0.34219 v 0.0194 h 2.20415 c 1.01036,0 1.30669,-0.13758 1.84221,-0.74295 m -6.83119,-4.60375 c -0.0275,-0.0773 -0.0924,-0.14358 -0.17533,-0.14358 -0.16545,0 -0.254,0.1591 -0.30057,0.30057 0.096,0.0363 0.19015,0.0762 0.28258,0.11924 0.0533,-0.18274 0.11712,-0.24906 0.19332,-0.27623 m -2.20557,-0.68086 c 0.0998,0.11501 0.15875,0.20391 0.22261,0.34678 0.002,0.002 0.003,0.005 0.005,0.007 0.002,-0.002 0.003,-0.005 0.005,-0.007 0.0639,-0.14287 0.12277,-0.23177 0.22261,-0.34678 -0.0378,-0.0998 -0.1517,-0.28116 -0.22755,-0.35489 -0.0758,0.0737 -0.18979,0.25506 -0.22754,0.35489 m 1.06539,-0.28469 v 0.0519 c 0,0.0882 0.14358,0.1912 0.31927,0.1912 0.4893,0 0.64452,-0.49882 1.07279,-0.49882 0.30127,0 0.54222,0.23353 0.54222,0.6096 0,0.32984 -0.19332,0.62441 -0.55033,0.75917 -0.0998,0.0374 -0.15381,0.13088 -0.16898,0.28893 h 0.0212 c 0.61419,0 1.0601,-0.47131 1.0601,-1.0481 0,-0.57221 -0.39934,-0.97155 -0.90417,-0.97155 -0.59196,0 -0.6865,0.61771 -1.30069,0.61771 z m -0.38029,-0.70732 c 0,0.2413 0.19367,0.502 0.50659,0.502 0.29809,0 0.49142,-0.18697 0.49142,-0.3937 0,-0.10936 -0.0914,-0.19544 -0.1831,-0.19544 -0.097,0 -0.18344,0.0787 -0.18344,0.18345 0,0.0416 0.0134,0.0751 0.0342,0.10618 -0.18556,0.0138 -0.32914,-0.0356 -0.42369,-0.18026 0.0734,0 0.17251,-0.0737 0.17251,-0.1831 0,-0.10019 -0.0825,-0.18415 -0.18556,-0.18415 -0.11606,0 -0.22895,0.0998 -0.22895,0.34502 m -0.45756,-0.13864 c -0.1598,0 -0.28963,0.12982 -0.28963,0.28928 0,0.16016 0.12983,0.28963 0.28963,0.28963 0.16017,0 0.28963,-0.12947 0.28963,-0.28963 0,-0.15946 -0.12946,-0.28928 -0.28963,-0.28928 m 1.48978,1.54799 c -0.0318,-0.0854 -0.11183,-0.14323 -0.19402,-0.14323 -0.16616,0 -0.29986,0.14076 -0.3743,0.38947 0.10407,0.0229 0.20673,0.0497 0.30762,0.0804 0.0773,-0.25153 0.18239,-0.31503 0.2607,-0.32667"
         style="fill:#c20831;fill-opacity:1;fill-rule:nonzero;stroke:none;stroke-width:0.35277778"
         id="path11789"
         inkscape:connector-curvature="0" />
    </g>
  </g>
</svg>
