<?xml version="1.0" encoding="utf-8"?>
<!-- Generator: Adobe Illustrator 16.0.0, SVG Export Plug-In . SVG Version: 6.00 Build 0)  -->
<!DOCTYPE svg PUBLIC "-//W3C//DTD SVG 1.1//EN" "http://www.w3.org/Graphics/SVG/1.1/DTD/svg11.dtd">
<svg version="1.1" id="Layer_1" xmlns="http://www.w3.org/2000/svg" xmlns:xlink="http://www.w3.org/1999/xlink" x="0px" y="0px"
	 width="200px" height="100px" viewBox="0 0 200 100" enable-background="new 0 0 200 100" xml:space="preserve">
<path fill-rule="evenodd" clip-rule="evenodd" fill="#2B3087" d="M123.427,73.695c-0.173,0.727,0.221,1.344,1.539,2.431
	c2.481,2.042,9.258,6.144,20.939,6.139c21.027-0.003,28.651-13.594,25.982-25.117c-0.709-3.077-4.652-19.014-5.221-21.26
	c-1.653-6.526,1.517-11.225,7.738-11.23c5.325-0.001,8.648,2.017,11.554,3.842c0.551,0.348,0.952,0.534,1.097-0.103
	c0.084-0.371,1.041-5.329,1.041-5.329s0.287-0.958-0.969-1.615c-1.932-1.011-6.748-3.733-16.882-3.737
	c-18.86-0.012-26.886,12.094-23.603,25.215c1.051,4.198,5.257,19.912,5.272,22.946c0.003,1.16,0.618,9.181-9.05,9.181
	c-8.979,0.002-14.901-5.914-17.002-8.016c-0.467-0.463-1.163-0.292-1.258,0.383C124.547,67.829,123.427,73.695,123.427,73.695
	L123.427,73.695L123.427,73.695z"/>
</svg>
