<?xml version="1.0" encoding="UTF-8" standalone="no"?>
<svg
   xmlns:dc="http://purl.org/dc/elements/1.1/"
   xmlns:cc="http://creativecommons.org/ns#"
   xmlns:rdf="http://www.w3.org/1999/02/22-rdf-syntax-ns#"
   xmlns:svg="http://www.w3.org/2000/svg"
   xmlns="http://www.w3.org/2000/svg"
   xmlns:sodipodi="http://sodipodi.sourceforge.net/DTD/sodipodi-0.dtd"
   xmlns:inkscape="http://www.inkscape.org/namespaces/inkscape"
   viewBox="0 0 350 128.381"
   height="128.381"
   width="350"
   xml:space="preserve"
   id="svg2"
   version="1.1"
   inkscape:version="0.91 r13725"
   sodipodi:docname="Singapore_Airlines2.svg"><sodipodi:namedview
     pagecolor="#ffffff"
     bordercolor="#666666"
     borderopacity="1"
     objecttolerance="10"
     gridtolerance="10"
     guidetolerance="10"
     inkscape:pageopacity="0"
     inkscape:pageshadow="2"
     inkscape:window-width="1366"
     inkscape:window-height="705"
     id="namedview4166"
     showgrid="false"
     inkscape:zoom="2.072165"
     inkscape:cx="147.77182"
     inkscape:cy="102.55966"
     inkscape:window-x="-8"
     inkscape:window-y="-8"
     inkscape:window-maximized="1"
     inkscape:current-layer="g12" /><metadata
     id="metadata8"><rdf:RDF><cc:Work
         rdf:about=""><dc:format>image/svg+xml</dc:format><dc:type
           rdf:resource="http://purl.org/dc/dcmitype/StillImage" /><dc:title></dc:title></cc:Work></rdf:RDF></metadata><defs
     id="defs6" /><g
     transform="matrix(1.3333333,0,0,-1.3333333,0,128.38101)"
     id="g10"><g
       transform="scale(0.1,0.1)"
       id="g12"><g
         id="g5458"
         transform="matrix(1.4936131,0,0,1.4936131,-190.36118,-642.31656)"><path
           inkscape:connector-curvature="0"
           d="m 127.45013,467.7062 1216.67327,0 -24.14,-37.664 -1192.53327,0 0,37.664"
           style="fill:#fcb130;fill-opacity:1;fill-rule:evenodd;stroke:none"
           id="path50" /><g
           style="fill:#fcb130;fill-opacity:1"
           id="g4758"><path
             id="path52"
             style="fill:#fcb130;fill-opacity:1;fill-rule:evenodd;stroke:none"
             d="m 1565.7334,484.7692 -44.74,0 90.31,142.539 c 0,0 13.52,29.547 -4.17,60.758 l -125.89,208.49499 c 0,0 -11.02,19.36 0,37.88 l 37.25,55.77 147.74,-241.384 c 0,0 38.08,-50.56199 -3.33,-113.19499 l -97.17,-150.863"
             inkscape:connector-curvature="0" /><path
             id="path54"
             style="fill:#fcb130;fill-opacity:1;fill-rule:evenodd;stroke:none"
             d="m 1673.7234,528.4682 54.94,83.648 c 0,0 16.02,34.543 57.43,34.543 l 58.26,0 40.58,-64.089 c 0,0 -32.05,3.328 -46.41,-19.563 l -59.92,-90.305 c 0,0 -19.56,-42.242 -71.79,-42.242 l -282.16,0 107.37,164.805 c 0,0 15.18,19.348 -6.04,51.394 l -95.51,153.56199 c 0,0 -23.51,22.68 0.83,61.59 l 27.89,42.25 132.76,-215.15899 c 0,0 23.51,-29.551 0,-64.922 l -99.68,-155.442 210.17,0 c 0,0 23.72,-4.367 44.11,26.012 l 52.23,80.32 c 0,0 11.86,27.051 38.08,38.079 l -42.24,0 c 0,0 -22.06,-0.833 -38.91,-27.051 l -46.4,-71.789 c 0,0 -16.86,-30.379 -54.11,-30.379 l -73.45,0 88.64,137.543 c 0,0 48.28,63.465 14.36,121.73 l -146.91,243.03799 c 0,0 -11.02,21.02001 1.67,40.58001 l 32.04,48.07 167.3,-269.47001 c 0,0 24.56,-40.37 24.56,-71.58099 0,-31.215 -19.56,-66.59 -30.39,-84.484 l -73.66,-114.864 c 0,0 -8.32,-11.027 -2.49,-15.191 6.03,-4.16 11.86,3.332 16.85,9.367"
             inkscape:connector-curvature="0" /></g><g
           id="g5439"></g></g></g></g></svg>