<?xml version="1.0" encoding="UTF-8" standalone="no"?>
<svg
   xmlns:dc="http://purl.org/dc/elements/1.1/"
   xmlns:cc="http://creativecommons.org/ns#"
   xmlns:rdf="http://www.w3.org/1999/02/22-rdf-syntax-ns#"
   xmlns:svg="http://www.w3.org/2000/svg"
   xmlns="http://www.w3.org/2000/svg"
   xmlns:sodipodi="http://sodipodi.sourceforge.net/DTD/sodipodi-0.dtd"
   xmlns:inkscape="http://www.inkscape.org/namespaces/inkscape"
   inkscape:version="1.0beta2 (2b71d25, 2019-12-03)"
   sodipodi:docname="sony_.svg"
   viewBox="0 0 500.00001 89.67711"
   height="89.677"
   width="500"
   id="svg4256"
   version="1.1">
  <sodipodi:namedview
     inkscape:current-layer="svg4256"
     inkscape:window-maximized="0"
     inkscape:window-y="23"
     inkscape:window-x="0"
     inkscape:cy="44.838501"
     inkscape:cx="250"
     inkscape:zoom="0.984"
     showgrid="false"
     id="namedview14"
     inkscape:window-height="480"
     inkscape:window-width="752"
     inkscape:pageshadow="2"
     inkscape:pageopacity="0"
     guidetolerance="10"
     gridtolerance="10"
     objecttolerance="10"
     borderopacity="1"
     inkscape:document-rotation="0"
     bordercolor="#666666"
     pagecolor="#ffffff" />
  <metadata
     id="metadata4264">
    <rdf:RDF>
      <cc:Work
         rdf:about="">
        <dc:format>image/svg+xml</dc:format>
        <dc:type
           rdf:resource="http://purl.org/dc/dcmitype/StillImage" />
        <dc:title />
      </cc:Work>
    </rdf:RDF>
  </metadata>
  <defs
     id="defs4262" />
  <path
     sodipodi:nodetypes="cccccccscsccccccsccsccscccccsccccccccscc"
     inkscape:connector-curvature="0"
     d="m 46.562,1.042 c -9.65,0 -20.613,1.805 -29.928,5.965 C 8.037,10.843 1,17.047 1,27.332 0.996,36.595 6.883,42.02 6.723,41.87 c 2.504,2.305 6.535,6.23 17.074,8.535 4.71,1.03 14.78,2.612 24.808,3.66 9.954,1.05 19.75,2.048 23.74,3.058 3.17,0.807 8.495,1.906 8.495,7.88 0,5.95 -5.61,7.766 -6.585,8.16 -0.974,0.385 -7.704,3.473 -19.802,3.473 -8.932,0 -19.67,-2.686 -23.584,-4.086 -4.512,-1.606 -9.245,-3.73 -13.66,-9.123 -1.098,-1.337 -2.83,-5.014 -2.83,-8.655 H 3.43 v 30.68 H 15.6 v -4.145 c 0,-0.472 0.59,-2.413 2.633,-1.49 2.542,1.155 10.004,4.126 17.806,5.755 6.397,1.338 10.522,2.297 18.475,2.297 12.976,0 19.947,-2.114 24.766,-3.49 4.54,-1.3 10.15,-3.634 14.707,-7.268 2.468,-1.965 7.88,-7.002 7.88,-16.145 0,-8.776 -4.71,-14.223 -6.367,-15.88 -2.257,-2.258 -5.014,-4.008 -7.887,-5.357 -2.503,-1.178 -6.453,-2.593 -9.685,-3.384 -6.273,-1.54 -20.457,-3.44 -27.24,-4.15 -7.113,-0.743 -19.452,-1.765 -24.38,-3.29 -1.494,-0.463 -4.54,-1.914 -4.54,-5.45 0,-2.515 1.393,-4.647 4.146,-6.37 4.37,-2.738 13.197,-4.44 22.398,-4.44 10.878,-0.04 20.09,2.447 25.95,5.067 1.993,0.89 4.325,2.168 6.177,3.68 2.09,1.704 5.024,5.245 6.085,10.184 h 9.83 V 4.87 H 85.378 v 3.104 c 0,1.002 -1.035,2.304 -2.992,1.228 C 77.474,6.625 63.586,1.065 46.56,1.042"
     id="path4258" />
</svg>
