<?xml version="1.0" encoding="UTF-8" standalone="no"?>
<svg
   xmlns:dc="http://purl.org/dc/elements/1.1/"
   xmlns:cc="http://creativecommons.org/ns#"
   xmlns:rdf="http://www.w3.org/1999/02/22-rdf-syntax-ns#"
   xmlns:svg="http://www.w3.org/2000/svg"
   xmlns="http://www.w3.org/2000/svg"
   xmlns:xlink="http://www.w3.org/1999/xlink"
   xmlns:sodipodi="http://sodipodi.sourceforge.net/DTD/sodipodi-0.dtd"
   xmlns:inkscape="http://www.inkscape.org/namespaces/inkscape"
   sodipodi:docname="south-african-airways.svg"
   inkscape:version="1.0beta2 (2b71d25, 2019-12-03)"
   xml:space="preserve"
   id="svg6364"
   height="203.39166"
   width="370.20831"
   version="1.1"><metadata
     id="metadata101"><rdf:RDF><cc:Work
         rdf:about=""><dc:format>image/svg+xml</dc:format><dc:type
           rdf:resource="http://purl.org/dc/dcmitype/StillImage" /></cc:Work></rdf:RDF></metadata><sodipodi:namedview
     inkscape:document-rotation="0"
     inkscape:current-layer="g4306"
     inkscape:window-maximized="0"
     inkscape:window-y="23"
     inkscape:window-x="0"
     inkscape:cy="34.110567"
     inkscape:cx="288.23959"
     inkscape:zoom="1.6615658"
     fit-margin-bottom="0"
     fit-margin-right="0"
     fit-margin-left="0"
     fit-margin-top="0"
     showgrid="false"
     id="namedview99"
     inkscape:window-height="880"
     inkscape:window-width="1600"
     inkscape:pageshadow="2"
     inkscape:pageopacity="0"
     guidetolerance="10"
     gridtolerance="10"
     objecttolerance="10"
     borderopacity="1"
     bordercolor="#666666"
     pagecolor="#ffffff" /><defs
     id="defs6368"><linearGradient
       id="linearGradient4190"><stop
         offset="0"
         style="stop-color:#0b1838;stop-opacity:1"
         id="stop4192" /><stop
         offset="0.20781974"
         style="stop-color:#032f70;stop-opacity:1"
         id="stop4212" /><stop
         offset="0.35548043"
         style="stop-color:#585e97;stop-opacity:1"
         id="stop4210" /><stop
         offset="0.45092228"
         style="stop-color:#8182b2;stop-opacity:1"
         id="stop4208" /><stop
         offset="0.51174444"
         style="stop-color:#585e98;stop-opacity:1"
         id="stop4206" /><stop
         offset="0.61763775"
         style="stop-color:#032f70;stop-opacity:1"
         id="stop4204" /><stop
         offset="1"
         style="stop-color:#061c41;stop-opacity:1"
         id="stop4194" /></linearGradient><linearGradient
       id="linearGradient4113"><stop
         offset="0"
         style="stop-color:#084c11;stop-opacity:1"
         id="stop4115" /><stop
         offset="0.39095074"
         style="stop-color:#027516;stop-opacity:1"
         id="stop4129" /><stop
         offset="0.59969682"
         style="stop-color:#64a378;stop-opacity:1"
         id="stop4127" /><stop
         offset="0.67405188"
         style="stop-color:#88b797;stop-opacity:1"
         id="stop4125" /><stop
         offset="0.75287592"
         style="stop-color:#64a279;stop-opacity:1"
         id="stop4123" /><stop
         offset="0.84919339"
         style="stop-color:#138437;stop-opacity:1"
         id="stop4121" /><stop
         offset="1"
         style="stop-color:#084c11;stop-opacity:1"
         id="stop4117" /></linearGradient><linearGradient
       id="linearGradient4083"><stop
         offset="0"
         style="stop-color:#820008;stop-opacity:1"
         id="stop4085" /><stop
         offset="0.34648523"
         style="stop-color:#c70d12;stop-opacity:1"
         id="stop4101" /><stop
         offset="0.45125481"
         style="stop-color:#e26a48;stop-opacity:1"
         id="stop4111" /><stop
         offset="0.57475489"
         style="stop-color:#eb9b7b;stop-opacity:1"
         id="stop4099" /><stop
         offset="0.74593478"
         style="stop-color:#e26b49;stop-opacity:1"
         id="stop4109" /><stop
         offset="0.83923209"
         style="stop-color:#cc221b;stop-opacity:1"
         id="stop4105" /><stop
         offset="1"
         style="stop-color:#940109;stop-opacity:1"
         id="stop4087" /></linearGradient><linearGradient
       id="linearGradient8435"><stop
         offset="0"
         style="stop-color:#90600c;stop-opacity:1"
         id="stop8437" /><stop
         offset="0.0764918"
         style="stop-color:#c6891c;stop-opacity:1"
         id="stop4268" /><stop
         offset="0.26263037"
         style="stop-color:#f2c876;stop-opacity:1"
         id="stop8447" /><stop
         offset="0.49584091"
         style="stop-color:#fbf1d6;stop-opacity:1"
         id="stop8443" /><stop
         offset="0.69218808"
         style="stop-color:#fbf1d6;stop-opacity:1"
         id="stop8445" /><stop
         offset="0.84535122"
         style="stop-color:#f2c876;stop-opacity:1"
         id="stop8449" /><stop
         offset="0.94654179"
         style="stop-color:#c6891c;stop-opacity:1"
         id="stop4270" /><stop
         offset="1"
         style="stop-color:#90600c;stop-opacity:1"
         id="stop8439" /></linearGradient><linearGradient
       id="linearGradient8392"><stop
         offset="0"
         style="stop-color:#fde2a0;stop-opacity:1"
         id="stop8394" /><stop
         offset="1"
         style="stop-color:#cc770d;stop-opacity:1"
         id="stop8396" /></linearGradient><linearGradient
       id="linearGradient8371"><stop
         offset="0"
         style="stop-color:#000002;stop-opacity:1"
         id="stop8373" /><stop
         offset="1"
         style="stop-color:#5a5a5a;stop-opacity:1"
         id="stop8375" /></linearGradient><linearGradient
       gradientTransform="matrix(4.8878153,0,0,4.8878153,-4794.3196,-740.11912)"
       gradientUnits="userSpaceOnUse"
       xlink:href="#linearGradient8371"
       id="linearGradient10461"
       y2="215.26511"
       x2="1083.203"
       y1="212.76857"
       x1="1079.814" /><linearGradient
       gradientTransform="matrix(4.8878153,0,0,4.8878153,-4794.3196,-740.11912)"
       gradientUnits="userSpaceOnUse"
       xlink:href="#linearGradient8392"
       id="linearGradient10464"
       y2="227.4257"
       x2="1074.4086"
       y1="231.42177"
       x1="1073.4856" /><linearGradient
       gradientTransform="matrix(4.8878153,0,0,4.8878153,-4794.3196,-740.11912)"
       gradientUnits="userSpaceOnUse"
       xlink:href="#linearGradient8435"
       id="linearGradient10467"
       y2="205.9352"
       x2="1079.6165"
       y1="223.41832"
       x1="1072.3411" /><filter
       id="filter10889"
       color-interpolation-filters="sRGB"><feGaussianBlur
         stdDeviation="3.5942542"
         id="feGaussianBlur10891" /></filter><linearGradient
       gradientUnits="userSpaceOnUse"
       xlink:href="#linearGradient4083"
       id="linearGradient4097"
       y2="402.74789"
       x2="478.33096"
       y1="363.6817"
       x1="431.29047" /><linearGradient
       gradientUnits="userSpaceOnUse"
       xlink:href="#linearGradient4113"
       id="linearGradient4119"
       y2="330.42169"
       x2="556.85577"
       y1="254.34113"
       x1="471.30499" /><linearGradient
       gradientUnits="userSpaceOnUse"
       xlink:href="#linearGradient4190"
       id="linearGradient4196"
       y2="370.98047"
       x2="597.83173"
       y1="252.56195"
       x1="472.013" /><filter
       id="filter4246"
       color-interpolation-filters="sRGB"><feGaussianBlur
         stdDeviation="6.6042969"
         id="feGaussianBlur4248" /></filter><clipPath
       id="clipPath4264"><path
         inkscape:connector-curvature="0"
         style="fill:#ff0000;fill-opacity:1"
         id="path4266"
         d="m -338.21464,607.05034 c 87.82183,0 88.16398,0 88.16398,0 l 231.590798,208.43477 -241.164808,0 -78.58997,-208.43477" /></clipPath><linearGradient
       gradientUnits="userSpaceOnUse"
       xlink:href="#linearGradient4083"
       id="linearGradient4362"
       y2="402.74789"
       x2="478.33096"
       y1="363.6817"
       x1="431.29047" /><linearGradient
       gradientUnits="userSpaceOnUse"
       xlink:href="#linearGradient4190"
       id="linearGradient4364"
       y2="370.98047"
       x2="597.83173"
       y1="252.56195"
       x1="472.013" /><linearGradient
       gradientUnits="userSpaceOnUse"
       xlink:href="#linearGradient4113"
       id="linearGradient4366"
       y2="330.42169"
       x2="556.85577"
       y1="254.34113"
       x1="471.30499" /><linearGradient
       gradientTransform="matrix(4.8878153,0,0,4.8878153,-4794.3196,-740.11912)"
       gradientUnits="userSpaceOnUse"
       xlink:href="#linearGradient8435"
       id="linearGradient4368"
       y2="205.9352"
       x2="1079.6165"
       y1="223.41832"
       x1="1072.3411" /><linearGradient
       gradientTransform="matrix(4.8878153,0,0,4.8878153,-4794.3196,-740.11912)"
       gradientUnits="userSpaceOnUse"
       xlink:href="#linearGradient8392"
       id="linearGradient4370"
       y2="227.4257"
       x2="1074.4086"
       y1="231.42177"
       x1="1073.4856" /><linearGradient
       gradientTransform="matrix(4.8878153,0,0,4.8878153,-4794.3196,-740.11912)"
       gradientUnits="userSpaceOnUse"
       xlink:href="#linearGradient8371"
       id="linearGradient4372"
       y2="215.26511"
       x2="1083.203"
       y1="212.76857"
       x1="1079.814" /><linearGradient
       gradientTransform="translate(0,-50.46834)"
       gradientUnits="userSpaceOnUse"
       xlink:href="#linearGradient4083"
       id="linearGradient4405"
       y2="402.74789"
       x2="478.33096"
       y1="363.6817"
       x1="431.29047" /><linearGradient
       gradientTransform="translate(0,-50.46834)"
       gradientUnits="userSpaceOnUse"
       xlink:href="#linearGradient4190"
       id="linearGradient4407"
       y2="370.98047"
       x2="597.83173"
       y1="252.56195"
       x1="472.013" /><linearGradient
       gradientTransform="translate(0,-50.46834)"
       gradientUnits="userSpaceOnUse"
       xlink:href="#linearGradient4113"
       id="linearGradient4409"
       y2="330.42169"
       x2="556.85577"
       y1="254.34113"
       x1="471.30499" /><linearGradient
       gradientTransform="matrix(4.8878153,0,0,4.8878153,-4794.3196,-790.58752)"
       gradientUnits="userSpaceOnUse"
       xlink:href="#linearGradient8435"
       id="linearGradient4411"
       y2="205.9352"
       x2="1079.6165"
       y1="223.41832"
       x1="1072.3411" /><linearGradient
       gradientTransform="matrix(4.8878153,0,0,4.8878153,-4794.3196,-790.58752)"
       gradientUnits="userSpaceOnUse"
       xlink:href="#linearGradient8392"
       id="linearGradient4413"
       y2="227.4257"
       x2="1074.4086"
       y1="231.42177"
       x1="1073.4856" /><linearGradient
       gradientTransform="matrix(4.8878153,0,0,4.8878153,-4794.3196,-790.58752)"
       gradientUnits="userSpaceOnUse"
       xlink:href="#linearGradient8371"
       id="linearGradient4415"
       y2="215.26511"
       x2="1083.203"
       y1="212.76857"
       x1="1079.814" /></defs><g
     id="g6374"
     transform="matrix(1.25,0,0,-1.25,-309.06906,303.28135)"><g
       id="g4306"
       transform="matrix(0.47554567,0,0,0.47554567,133.47845,46.020366)"><path
         inkscape:connector-curvature="0"
         style="fill:#002c6d;fill-opacity:1;fill-rule:evenodd;stroke:none"
         id="path6810"
         d="m 441.12202,176.32016 c -3.53389,-8.84206 -5.63077,-13.65167 -9.16466,-22.48395 -1.7645,-4.41859 -2.87892,-6.95048 -4.64342,-11.36417 -1.8867,-4.72163 -2.74207,-7.93782 -6.72075,-11.11978 h 0.97756 c -0.0958,-0.0798 -0.14507,-0.16502 -0.24439,-0.2444 h 10.02003 c -0.68919,0.85537 -0.97757,1.59343 -0.97757,2.6883 0,2.01867 0.71851,3.14287 1.46635,5.01001 l 1.34415,3.29928 c 0.2393,0.62564 0.36639,1.03133 0.73317,1.58854 h 13.1971 c 0.27215,-0.44866 0.37929,-0.80235 0.61098,-1.34415 0.50833,-1.18285 0.87003,-1.86226 1.34415,-3.05488 0.7185,-1.81827 1.33437,-2.83005 1.58854,-4.76562 0.0489,-0.2835 0.122,-0.44968 0.122,-0.73318 0,-1.01666 -0.38125,-1.55432 -0.85537,-2.4439 h 0.85537 c -0.0442,-0.0833 -0.0747,-0.15563 -0.122,-0.2444 h 12.58612 c -4.08621,2.99135 -4.57988,6.41771 -6.72075,10.99759 -2.03822,4.37459 -2.97179,6.93581 -4.88781,11.36417 -2.4488,5.6552 -3.78317,8.88116 -6.23197,14.54125 -1.37347,3.17219 -2.26305,4.84871 -3.54366,8.0649 -0.11184,-0.27959 -0.1353,-0.4613 -0.24439,-0.73318 -0.14742,0.35857 -0.33003,0.57903 -0.48878,0.97757 z m -187.81431,-2.56611 c -0.78693,0 -1.17796,-0.11222 -1.95512,-0.24439 -1.25617,-0.20529 -1.98445,-0.42035 -3.17708,-0.85537 -4.30617,-1.56898 -7.13132,-4.35993 -7.57611,-8.92026 -0.0489,-0.4008 -0.122,-0.69407 -0.122,-1.09976 0,-5.82627 4.19863,-9.00335 9.40904,-11.60856 3.39703,-1.69118 5.48902,-2.39992 8.55368,-4.64342 1.80849,-1.3246 2.93269,-2.77139 2.93269,-5.01001 0,-4.0911 -3.7343,-6.96514 -7.82051,-6.96514 h -1.95512 c -1.15271,0 -1.96925,0.17753 -2.93269,0.48878 -0.13921,0.0465 -0.23384,0.0735 -0.36639,0.122 -0.0958,0.0313 -0.14312,0.0884 -0.2444,0.122 -0.46954,0.15641 -0.82303,0.42849 -1.22195,0.61098 -1.72043,0.93435 -2.94735,2.21418 -4.39903,4.03245 l -0.12259,-0.3662 c -0.17674,0.21428 -0.42594,0.3793 -0.61098,0.61098 l -2.4439,-6.59855 c 1.34368,-0.71531 2.51789,-1.21339 3.66586,-1.58854 0.0766,-0.0274 0.16736,-0.095 0.24439,-0.122 0.78326,-0.24518 1.56386,-0.38985 2.5661,-0.61098 0.26746,-0.0637 0.44014,-0.17987 0.73317,-0.24439 1.61298,-0.35662 2.49768,-0.54255 4.15465,-0.61098 1.98934,-0.0782 3.15753,-0.21037 5.1322,0 3.65609,0.38594 5.90448,0.69407 8.92027,2.8105 3.12331,2.18485 4.35993,4.63853 4.76562,8.43148 0.0637,0.59142 0.0489,0.98734 0,1.58854 -0.46924,5.83605 -4.18397,8.99847 -9.40905,11.60856 -3.39214,1.70096 -5.51834,2.30216 -8.67587,4.39903 -1.79383,1.19752 -2.93269,2.49279 -2.93269,4.64343 0,0.26902 -0.0489,0.46923 0,0.73317 0.30813,2.47323 1.82315,3.92492 4.15464,4.76562 1.03622,0.36639 1.71074,0.61098 2.8105,0.61098 h 1.95512 c 0.82847,0 1.44253,-0.0762 2.07732,-0.24439 0.41746,-0.14625 0.84912,-0.2745 1.34415,-0.48879 1.47612,-0.6403 2.29728,-1.06554 3.29928,-2.32171 0.66474,-0.83093 0.8016,-1.48589 1.46634,-2.32171 l 0.24439,0.61098 c 0.15368,-0.26707 0.25065,-0.55581 0.48879,-0.85537 l 2.4439,5.98757 c -0.1173,0.21037 -0.28349,0.23931 -0.48878,0.36639 -0.43501,0.26903 -0.77716,0.47901 -1.22195,0.73318 -0.23227,0.13138 -0.40424,0.13959 -0.61098,0.24439 -0.36248,0.20489 -0.66783,0.34293 -0.97756,0.48878 -0.22054,0.088 -0.497,0.16462 -0.73317,0.24439 -0.29797,0.11848 -0.64469,0.25886 -0.97757,0.36639 -0.045,0.0117 -0.0786,-0.0117 -0.122,0 -0.21389,0.068 -0.36482,0.17088 -0.61097,0.24439 -1.16819,0.34723 -1.8476,0.44479 -3.05489,0.61098 -0.78694,0.10284 -1.28061,0.24439 -2.07732,0.24439 h -4.52123 z m 416.19747,-0.85536 c -0.45456,-1.65697 -1.08998,-2.48301 -1.83293,-4.03245 -1.15841,-2.40481 -1.7254,-3.68053 -2.81049,-6.10977 -1.79383,-4.00312 -2.97179,-6.25152 -4.76562,-10.26441 -1.70585,-3.81739 -2.81538,-5.95825 -4.52123,-9.77563 -1.96979,-4.40881 -3.2504,-6.87716 -6.35416,-10.631 h 0.97756 c -0.0759,-0.0931 -0.16618,-0.14976 -0.24439,-0.24439 h 10.38661 c -0.93357,0.65496 -1.22195,1.57876 -1.22195,2.6883 0,1.83781 0.59631,2.83004 1.34415,4.52122 0.79671,1.78406 1.22684,2.75673 2.07732,4.52123 h 13.31929 c 0.80387,-1.51436 1.17593,-2.53169 1.95513,-4.15464 0.81138,-1.68141 1.34415,-2.65897 1.34415,-4.52123 0,-1.18285 -0.54744,-1.92091 -1.34415,-2.81049 h 0.97756 c -0.0809,-0.0935 -0.1568,-0.14664 -0.24439,-0.24439 h 13.07491 c -1.87204,1.44679 -2.6101,2.62964 -3.78806,4.64342 -1.18774,2.03333 -1.66674,3.26017 -2.6883,5.3766 -1.93068,4.02267 -2.9669,6.30528 -5.01001,10.26441 -1.59343,3.0891 -2.49278,4.88782 -3.91025,8.0649 -1.15352,2.59543 -2.01867,4.00312 -3.17708,6.59855 -0.58654,1.31971 -0.99711,1.97956 -1.58854,3.29927 -0.44968,1.02155 -0.63542,1.60809 -1.22195,2.5661 -0.0778,-0.28427 -0.15602,-0.49136 -0.2444,-0.73317 -0.14937,0.30891 -0.26315,0.60922 -0.48878,0.97757 z m -380.14983,-6.72075 c -1.02644,0 -1.68629,-0.13686 -2.6883,-0.36639 -1.2024,-0.28349 -1.78894,-0.51811 -2.93269,-0.97756 -2.57099,-1.02156 -4.02267,-1.8867 -5.74318,-4.03245 -1.79383,-2.2484 -2.64919,-3.82716 -3.42147,-6.59855 -0.45457,-1.6472 -0.73317,-2.6883 -0.73317,-4.39904 v -3.17708 c 0,-1.17796 0.23461,-1.78894 0.48878,-2.93269 0.31282,-1.42235 0.4008,-2.32171 0.97756,-3.66586 2.10176,-4.84871 5.04912,-7.50768 10.14222,-8.92026 0.26942,-0.0868 0.45038,-0.28819 0.73317,-0.36639 1.50056,-0.41546 2.35593,-0.61098 3.91025,-0.61098 h 3.29928 c 1.55433,0 2.41947,0.16619 3.91025,0.61098 5.32283,1.59343 8.49991,4.55544 10.38661,9.77563 0.46923,1.30505 0.62564,2.05777 0.85537,3.42147 0.15641,0.95312 0.24439,1.48101 0.24439,2.44391 v 3.17708 c 0,2.22884 -0.39592,3.49967 -1.09976,5.62099 -1.51393,4.54957 -4.09646,7.47323 -8.0649,9.16465 -0.37733,0.18261 -0.81861,0.33198 -1.22195,0.48878 -0.23696,0.0802 -0.48761,0.17205 -0.73317,0.24439 -0.42755,0.14468 -0.88884,0.24791 -1.34415,0.36639 -0.28662,0.0649 -0.49211,0.18965 -0.73317,0.24439 -1.1242,0.25417 -1.78406,0.48878 -2.93269,0.48878 h -3.29928 z m 297.42356,0 c -0.37147,-1.41258 -0.85048,-2.10176 -1.46634,-3.42147 -0.95313,-2.05288 -1.54944,-3.18197 -2.44391,-5.2544 -1.48101,-3.42147 -2.30705,-5.39126 -3.78806,-8.79807 -1.41258,-3.26506 -2.37548,-5.04911 -3.78806,-8.30929 -1.62764,-3.75873 -2.69318,-5.83605 -5.2544,-9.04245 h 0.97757 c -0.0759,-0.0966 -0.1658,-0.14586 -0.24439,-0.2444 h 8.55367 c -0.77227,0.5621 -0.97756,1.2464 -0.97756,2.19952 0,1.56899 0.479,2.46346 1.09976,3.91025 0.65985,1.52011 1.00689,2.40481 1.71073,3.91026 h 10.87539 c 0.64871,-1.26857 0.94922,-2.16906 1.58854,-3.54367 0.66474,-1.43702 1.22196,-2.3266 1.22196,-3.91025 0,-1.00689 -0.43991,-1.5641 -1.09976,-2.32171 h 0.85536 c -0.0743,-0.0888 -0.16305,-0.15094 -0.24439,-0.2444 h 10.87539 c -0.0774,0.0618 -0.0497,0.1834 -0.122,0.2444 -1.37906,1.15825 -2.13085,2.16287 -3.05488,3.78805 -0.98245,1.74006 -1.35393,2.71274 -2.19952,4.52123 -1.59831,3.42636 -2.46835,5.42548 -4.15464,8.79807 -1.31971,2.63942 -2.00401,4.1302 -3.17708,6.84294 -0.95313,2.20929 -1.73029,3.2895 -2.6883,5.49879 -0.48389,1.12909 -0.85537,1.81338 -1.34415,2.93269 -0.37147,0.87003 -0.48878,1.38325 -0.97756,2.19952 -0.0817,-0.31048 -0.27059,-0.47893 -0.36639,-0.73317 -0.13452,0.29561 -0.15485,0.62411 -0.36639,0.97756 z m 18.32931,-34.82568 h 0.97756 c -0.0848,-0.0939 -0.14624,-0.14703 -0.24439,-0.2444 h 8.67587 c -0.77716,0.77228 -1.1242,1.40281 -1.46634,2.44391 -0.23462,0.70874 -0.36639,1.0851 -0.36639,1.83293 v 19.55126 l 18.3293,-23.5837 h 0.36639 l 0.2444,-0.2444 h 5.01001 c 0,10.98293 -0.0489,17.11713 0,28.10494 0,1.90625 0.48389,3.29928 1.83293,4.64343 h -0.97757 c 0.0766,0.0825 0.1615,0.16149 0.24439,0.24439 h -8.55367 c 0.73806,-0.73806 1.02155,-1.3246 1.34415,-2.32171 0.26394,-0.79183 0.48878,-1.2464 0.48878,-2.07733 v -17.59613 l -17.35175,21.75078 h -0.36639 l -0.24439,0.24439 h -7.9427 c 1.40281,-1.39792 1.82805,-2.78606 1.83293,-4.76562 0.0235,-9.2282 0.0536,-14.47771 0,-23.70591 0,-0.70384 -0.16618,-1.03133 -0.36639,-1.71073 -0.32259,-1.0851 -0.66963,-1.77428 -1.46634,-2.5661 z m 190.25821,33.97031 c -0.36639,-1.34415 -0.86515,-2.04311 -1.46635,-3.29927 -0.94335,-1.95513 -1.44679,-3.03534 -2.32171,-5.01001 -1.45657,-3.25529 -2.33149,-5.04912 -3.78806,-8.30929 -1.38814,-3.10376 -2.27772,-4.83405 -3.66586,-7.9427 -1.6032,-3.57788 -2.61009,-5.62099 -5.1322,-8.67587 h 0.85536 c -0.0747,-0.0923 -0.16657,-0.15055 -0.24439,-0.24439 h 8.43148 c -0.75761,0.53277 -0.97756,1.30016 -0.97756,2.19951 0,1.49568 0.61098,2.29728 1.22195,3.66587 0.6452,1.45168 0.89936,2.22884 1.58854,3.66586 h 10.7532 c 0.62978,-1.19838 0.84379,-1.99509 1.46634,-3.29928 0.65986,-1.36859 1.22196,-2.28261 1.22196,-3.78806 0,-0.95801 -0.44968,-1.47612 -1.09976,-2.19951 h 0.85537 c -0.0618,-0.0712 -0.0555,-0.1701 -0.122,-0.24439 h 10.5088 c -1.52011,1.17307 -2.09687,2.14575 -3.05489,3.78805 -0.9629,1.6472 -1.36858,2.67853 -2.19951,4.39904 -1.56899,3.26506 -2.37548,5.09799 -4.03245,8.30928 -1.29527,2.51723 -2.02356,4.01779 -3.17708,6.59855 -0.93846,2.10665 -1.62764,3.14287 -2.5661,5.25441 -0.47901,1.07043 -0.86515,1.60809 -1.34415,2.68829 -0.36639,0.82604 -0.49856,1.42725 -0.97757,2.19952 -0.0778,-0.28584 -0.15328,-0.49793 -0.24439,-0.73317 -0.13764,0.29366 -0.27137,0.62724 -0.48878,0.97756 z m -238.64758,-0.48878 c -1.1633,0 -1.79383,-0.23462 -2.93269,-0.48878 -1.53478,-0.34215 -2.46346,-0.47412 -3.91025,-1.09976 -3.60721,-1.55921 -5.60144,-3.28461 -7.69831,-6.59855 -0.91891,-1.45657 -1.25128,-2.37059 -1.71074,-4.03245 -0.32768,-1.18774 -0.61098,-1.82804 -0.61098,-3.05488 v -3.42147 c 0,-0.93846 0.16111,-1.40769 0.36639,-2.32172 0.32768,-1.47612 0.62076,-2.39991 1.22196,-3.78805 0.85048,-1.97468 1.55921,-2.97668 3.17708,-4.39904 1.56899,-1.37836 2.48301,-2.34615 4.39903,-3.17708 0.936,-0.40322 1.68692,-0.60851 2.44391,-0.85536 0.99532,-0.36718 2.00459,-0.72688 3.29927,-0.97757 1.07532,-0.21037 1.71563,-0.36639 2.8105,-0.36639 h 4.15464 c 0.82604,0 1.26106,0.23462 2.07732,0.36639 1.24151,0.20529 1.98446,0.33237 3.17708,0.73318 0.37148,0.122 0.4839,0.16618 1.22196,0.48878 0.25886,0.37655 0.22484,0.78205 0.36639,1.22195 0.36639,1.09487 0.48878,1.75961 0.97756,2.81049 -0.36835,-0.14585 -0.64683,-0.23187 -0.97756,-0.36639 0.0735,0.19669 0.14038,0.38751 0.24439,0.61098 -2.48301,-0.98245 -3.92981,-1.83293 -6.59855,-1.83293 h -2.56611 c -0.90131,0 -1.62764,0.0923 -2.32171,0.24439 -0.0352,0.0117 -0.088,-0.0117 -0.122,0 -0.5009,0.11535 -1.03946,0.42031 -1.58854,0.61098 -0.26238,0.0962 -0.48589,0.1392 -0.73317,0.24439 -0.74572,0.27372 -1.32847,0.62959 -1.95513,0.97756 -2.38052,1.5243 -3.90415,3.73429 -4.76562,6.84294 -0.35192,1.27084 -0.61097,1.97468 -0.61097,3.29928 v 2.6883 c 0,1.48589 0.34723,2.26306 0.85537,3.66586 1.82315,4.97091 5.58677,7.88893 10.87538,8.06489 0.91403,0.0313 1.41258,0.0442 2.32172,0 0.69407,-0.0313 1.37089,-0.12903 1.95512,-0.24439 0.29327,-0.0852 0.57778,-0.13021 0.85537,-0.24439 0.0391,-0.0117 0.0845,0.0117 0.122,0 0.99938,-0.42661 1.92459,-1.07008 2.93269,-1.95512 0.64519,-0.56699 0.81138,-1.04111 1.34415,-1.71074 l 0.122,0.48878 c 0.17713,-0.25104 0.36991,-0.43001 0.61098,-0.73317 l 1.83293,5.74318 c -0.28663,0.0743 -0.50736,0.15446 -0.73318,0.24439 -0.72226,0.1877 -1.14109,0.47729 -1.71073,0.73318 -0.2397,0.0872 -0.39564,0.17361 -0.61098,0.24439 -1.58365,0.57676 -2.61498,0.70384 -4.27684,0.97756 -1.12419,0.18574 -1.67652,0.36639 -2.81049,0.36639 h -4.52123 z m -245.73492,-0.73317 c 0.74784,-0.74784 1.06066,-1.30016 1.34415,-2.32171 0.21976,-0.79183 0.36639,-1.26106 0.36639,-2.07733 0.0684,-6.53989 0.0587,-10.32795 0.122,-16.86296 0.0196,-1.80849 0.16111,-2.8056 0.73318,-4.52123 0.60609,-1.81338 1.10464,-2.81538 2.32171,-4.27684 0.69407,-0.82115 1.27572,-1.15841 2.19952,-1.71073 0.84559,-0.49856 1.36858,-0.83582 2.32171,-1.09976 0.20998,-0.0774 0.35075,-0.17244 0.61098,-0.24439 0.51232,-0.1482 1.00825,-0.26277 1.46634,-0.36639 0.89963,-0.24635 1.78812,-0.48878 2.93269,-0.48878 h 3.91025 c 1.94046,0 3.08421,0.38594 4.88782,1.09976 1.66674,0.66474 2.66874,1.29038 3.78805,2.68829 1.54944,1.93069 2.15553,3.2895 2.56611,5.74319 0.16618,1.00689 0.36639,1.67163 0.36639,2.6883 0.0684,6.66209 -0.0637,10.32306 0,16.98515 0.0195,1.87204 0.51322,3.20152 1.83293,4.52123 h -0.97757 c 0.0806,0.0872 0.15681,0.1568 0.2444,0.24439 h -8.79807 c 0.87492,-0.87492 1.19751,-1.60809 1.46634,-2.81049 0.12709,-0.59631 0.24439,-0.98245 0.24439,-1.58854 v -17.10735 c 0,-1.2855 -0.1173,-2.05777 -0.48878,-3.29928 -0.38594,-1.30505 -0.62075,-1.98934 -1.46634,-3.05488 -0.74295,-0.92869 -1.42725,-1.33438 -2.56611,-1.71074 -0.81626,-0.27372 -1.33926,-0.48878 -2.19951,-0.48878 h -1.83293 c -0.4803,0 -0.84911,0.0457 -1.22196,0.122 -0.0352,0.0117 -0.0876,-0.0117 -0.122,0 -0.1873,0.0426 -0.41679,0.18261 -0.61097,0.24439 -1.15842,0.41546 -1.82805,0.86026 -2.56611,1.83293 -0.77716,1.02644 -1.03133,1.79383 -1.34415,3.05489 -0.2393,0.97267 -0.48878,1.43701 -0.48878,2.4439 -0.0735,6.8625 0,10.73365 0,17.59614 0,1.86714 0.60609,3.01089 1.71074,4.52123 h -0.85537 c 0.0598,0.0829 0.0598,0.15914 0.122,0.24439 h -10.02002 z m 33.72593,0 1.46634,-5.49879 c 0.13061,0.2178 0.34059,0.33002 0.48879,0.48878 l 0.122,-0.73318 c 0.55721,0.92869 1.30015,1.25129 2.32171,1.58854 0.95801,0.3226 1.55921,0.48879 2.5661,0.48879 h 4.64343 v -24.31688 c 0,-1.96979 -0.44038,-3.3726 -1.83293,-4.76562 h 0.97756 c -0.0786,-0.0856 -0.15876,-0.15876 -0.24439,-0.2444 h 10.14221 c -0.79182,0.63542 -1.02155,1.24151 -1.34415,2.19952 -0.29835,0.90425 -0.48878,1.4859 -0.48878,2.44391 -0.054,9.61433 0,15.07402 0,24.68347 2.25817,0 3.48502,-0.0782 5.74319,-0.122 0.71608,-0.008 1.27877,0.0454 1.83293,-0.122 0.34566,-0.15798 0.60667,-0.3445 0.97756,-0.61098 0.38125,-0.27841 0.48878,-0.67452 0.85537,-0.97756 l 0.122,0.48878 c 0.20216,-0.20725 0.34175,-0.5106 0.61097,-0.73317 l 1.34454,5.4984 h -0.73317 v 0.24439 z m 32.01519,0 c 0.91402,-0.91402 1.19263,-1.67652 1.46634,-2.93269 0.14664,-0.67941 0.36718,-1.14375 0.3664,-1.83293 v -23.33932 c 0,-1.96979 -0.43502,-3.2504 -1.83294,-4.64342 h 0.97757 c -0.0845,-0.0923 -0.15172,-0.15211 -0.24439,-0.2444 h 10.02002 c -1.31971,1.31971 -1.83293,2.52212 -1.83293,4.39904 -0.054,4.07644 0,6.42259 0,10.5088 h 15.03003 v -10.26441 c 0,-0.85537 -0.21506,-1.38325 -0.48878,-2.19952 -0.3226,-0.96778 -0.57188,-1.525 -1.34415,-2.19951 h 0.97756 c -0.0864,-0.0876 -0.14194,-0.15485 -0.24439,-0.2444 h 10.02002 c -0.75761,0.75762 -1.12908,1.30016 -1.46634,2.32172 -0.26903,0.8016 -0.36639,1.35881 -0.36639,2.19951 V 159.335 c 0,0.79182 0.14155,1.19751 0.36639,1.95512 0.3179,1.07044 0.67452,1.65209 1.46634,2.44391 h -0.97756 c 0.0985,0.11144 0.12747,0.24987 0.24439,0.36639 h -10.02002 c 0.8016,-0.80649 1.15841,-1.46145 1.46634,-2.5661 0.19043,-0.71362 0.36639,-1.22195 0.36639,-1.95513 v -9.28685 h -15.03003 c -0.003,3.41201 -0.0469,5.51471 0,9.04246 0.0156,1.85248 0.523,3.0891 1.83293,4.39904 h -0.97756 c 0.0931,0.10284 0.14116,0.26316 0.24439,0.36639 h -10.02002 z m 87.49189,0 c 0.94335,-0.94335 1.33438,-1.74984 1.58854,-3.05489 0.11262,-0.58653 0.24439,-0.99222 0.24439,-1.58854 v -23.7059 c 0,-0.80649 -0.11261,-1.30505 -0.36639,-2.07732 -0.33745,-1.01667 -0.71362,-1.56899 -1.46634,-2.32171 h 0.97756 c -0.0806,-0.0884 -0.15172,-0.15172 -0.24439,-0.2444 h 10.02002 c -1.34903,1.34415 -1.83293,2.61987 -1.83293,4.52123 -0.0489,4.14487 0,6.49591 0,10.631 3.53389,0 5.50857,0.0391 9.04246,0 0.47412,-0.004 0.94264,-0.0543 1.34415,-0.122 0.14624,-0.0442 0.34801,-0.0661 0.48878,-0.122 0.21467,-0.0559 0.40862,-0.16384 0.61098,-0.24439 0.48166,-0.26863 0.97193,-0.64984 1.46634,-1.09976 v 0.24439 c 0.20607,-0.15836 0.39846,-0.29522 0.61098,-0.48878 v 7.20953 c -0.26199,-0.17049 -0.4295,-0.3136 -0.61098,-0.48878 v 0.73317 c -0.43501,-0.28349 -0.64519,-0.59631 -1.09976,-0.85537 -1.29038,-0.73317 -2.18485,-0.97756 -3.66586,-0.97756 h -8.18709 v 9.65344 c 3.8516,0 6.04623,0.0391 9.89783,0 0.49613,-0.004 0.9141,-0.052 1.34415,-0.122 0.1568,-0.0469 0.33902,-0.0614 0.48878,-0.122 0.0391,-0.008 0.0852,0.0117 0.122,0 0.72042,-0.31087 1.3303,-0.74557 1.95512,-1.46635 l 0.122,0.36639 c 0.22367,-0.19551 0.39443,-0.36131 0.61098,-0.61098 l 1.58854,5.98758 h -0.85537 l 0.122,0.36639 h -24.31688 z m 28.83811,0 c 0.76739,-0.76739 1.1242,-1.40769 1.46635,-2.44391 0.2393,-0.71362 0.36639,-1.2024 0.36639,-1.95513 v -24.07249 c 0,-0.69407 -0.16619,-1.0411 -0.36639,-1.71073 -0.3226,-1.09976 -0.65497,-1.74984 -1.46635,-2.5661 h 0.85537 c -0.0661,-0.0716 -0.0489,-0.17049 -0.122,-0.2444 h 10.02002 c -0.76738,0.77228 -1.05088,1.39303 -1.34415,2.44391 -0.23461,0.87003 -0.48878,1.30016 -0.48878,2.19952 v 24.68347 c 1.86715,0 2.89848,0.0352 4.76562,0 0.37226,-0.008 0.74565,-0.0493 1.09976,-0.122 2.13809,-0.71695 3.78806,-2.53514 3.78806,-4.88782 v -1.71073 c 0,-1.16819 -0.40569,-1.80361 -0.97757,-2.8105 -0.66963,-1.19262 -1.27083,-1.74495 -2.4439,-2.44391 -1.31483,-0.78693 -2.13109,-1.27572 -3.66587,-1.34414 0.35193,-0.75762 0.63542,-1.01667 1.09976,-1.71074 0.86026,-1.29527 1.42724,-2.02356 2.32171,-3.29928 1.91114,-2.73228 2.85449,-4.35504 4.76562,-7.08733 1.49568,-2.13597 2.16042,-3.58277 4.15465,-5.2544 1.25128,-1.05088 2.01867,-1.71562 3.54366,-2.32171 0.64766,-0.25886 1.17797,-0.46923 1.71074,-0.61098 0.78049,-0.27723 1.45113,-0.48878 2.44391,-0.48878 h 2.5661 l 2.6883,0.24439 c -0.57188,0.50833 -1.08021,0.65986 -1.71074,1.09976 -1.47612,1.03133 -2.27283,1.66186 -3.54366,2.93269 -1.89159,1.89158 -2.77628,3.1282 -4.39904,5.2544 -3.11354,4.06177 -4.61898,6.50568 -7.8205,10.5088 1.18774,0.63542 1.96979,0.8016 3.05488,1.58854 1.09976,0.78694 1.53478,1.51523 2.19952,2.6883 0.79183,1.4028 1.03133,2.30705 1.09976,3.91025 0.0117,0.69896 0.0489,1.13398 0,1.83293 -0.18652,3.12879 -2.26607,5.32698 -5.01001,6.47636 -0.26277,0.13373 -0.57813,0.25534 -0.85537,0.36639 -0.2483,0.0798 -0.47705,0.18222 -0.73317,0.24439 -1.05249,0.33706 -2.15185,0.47779 -3.29928,0.48878 -6.14887,0.0587 -9.61433,0.10753 -15.7632,0.122 z m 33.11495,0 c 0.93846,-0.94335 1.29527,-1.75473 1.58854,-3.05489 0.122,-0.56698 0.24439,-0.8798 0.24439,-1.46634 v -23.70591 c 0,-0.8016 -0.13686,-1.31482 -0.36639,-2.07732 -0.31751,-1.07532 -0.6794,-1.65208 -1.46634,-2.4439 h 0.97756 c -0.0841,-0.0935 -0.14742,-0.14703 -0.24439,-0.2444 h 10.02002 c -0.81138,0.81627 -1.09976,1.48101 -1.46634,2.56611 -0.22993,0.69896 -0.36639,1.09487 -0.36639,1.83293 v 23.95029 c 0,0.7234 0.1611,1.14375 0.36639,1.83293 0.32767,1.09487 0.66474,1.75962 1.46634,2.56611 h -0.85537 c 0.0649,0.0708 0.0497,0.17127 0.122,0.24439 z m 321.61824,0 c -0.61097,0 -0.86025,-0.15172 -1.46634,-0.24439 -0.97268,-0.15172 -1.63742,-0.2835 -2.5661,-0.61098 -3.33838,-1.18285 -5.40104,-3.29439 -5.74319,-6.72075 -0.0528,-0.29796 -0.122,-0.54743 -0.122,-0.85536 0,-4.3746 3.2895,-6.72075 7.33173,-8.67588 0.20411,-0.10362 0.40224,-0.1435 0.61097,-0.24439 2.25927,-1.05533 3.81899,-1.75984 5.98758,-3.29927 1.4028,-0.99712 2.19951,-1.98445 2.19951,-3.66586 0,-3.07444 -2.81538,-5.2544 -5.98757,-5.2544 h -1.58854 c -0.83801,0 -1.3951,0.0391 -2.07732,0.24439 -0.23618,0.0762 -0.39869,0.15993 -0.61098,0.24439 -0.31164,0.10088 -0.58446,0.25182 -0.85537,0.36639 -1.33597,0.70361 -2.17019,1.68383 -3.29927,3.05488 l -0.122,-0.36639 c -0.20216,0.23188 -0.39607,0.34997 -0.61098,0.61098 l -1.95512,-5.01001 c 1.08067,-0.56065 2.00568,-0.81455 2.93269,-1.09976 0.0786,-0.0274 0.1654,-0.095 0.24439,-0.122 0.56436,-0.16384 1.11735,-0.33785 1.83293,-0.48878 0.25925,-0.0606 0.44186,-0.183 0.73317,-0.24439 1.25128,-0.27372 1.89158,-0.43013 3.17708,-0.48878 1.54455,-0.0587 2.50256,-0.16111 4.03245,0 2.83493,0.29326 4.62876,0.61097 6.96513,2.19951 2.42436,1.63742 3.34816,3.49968 3.66587,6.35416 0.0489,0.43991 0.0489,0.64519 0,1.09976 -0.3617,4.38437 -3.27973,6.82828 -7.33173,8.79807 -0.27215,0.13216 -0.48057,0.12747 -0.73317,0.24439 -1.04279,0.50587 -1.84697,0.84805 -2.6883,1.22195 -1.04173,0.47717 -2.07486,1.04111 -3.29927,1.83293 -1.38814,0.89447 -2.19952,1.93069 -2.19952,3.54367 0,0.2002 -0.0489,0.28858 0,0.48878 0.23931,1.85737 1.36859,3.03045 3.17708,3.66586 0.8016,0.27372 1.34415,0.36639 2.19952,0.36639 h 1.46634 c 0.64273,0 1.21828,0.004 1.71074,-0.122 0.26159,-0.0954 0.42997,-0.2393 0.73317,-0.36639 1.14864,-0.479 1.91113,-0.76738 2.6883,-1.71073 0.51322,-0.62564 0.58165,-1.20729 1.09976,-1.83293 l 0.24439,0.61097 c 0.14663,-0.25573 0.24986,-0.56706 0.48878,-0.85536 l 1.83254,4.64303 c -0.0978,0.15641 -0.21037,0.15641 -0.36639,0.24439 -0.33707,0.21037 -0.50834,0.29796 -0.85537,0.48878 -0.9629,0.523 -1.51522,0.66963 -2.5661,0.97756 -0.23931,0.0786 -0.44218,0.15915 -0.73318,0.2444 -0.90424,0.25885 -1.50544,0.36169 -2.4439,0.48878 -0.61098,0.0833 -0.97268,0.24439 -1.58854,0.24439 h -3.54367 z m -137.95858,-0.61098 c 0.75761,-0.72828 1.002,-1.33926 1.34415,-2.32171 0.22992,-0.67941 0.36639,-1.11442 0.36639,-1.83293 v -22.97273 c 0,-0.66475 -0.17127,-0.95313 -0.36639,-1.58854 -0.3226,-1.05088 -0.54744,-1.66675 -1.34415,-2.44391 h 0.85537 c -0.0813,-0.0872 -0.15094,-0.15328 -0.24439,-0.24439 h 9.89782 c -0.75761,0.73806 -1.06065,1.32948 -1.34415,2.32171 -0.23461,0.83093 -0.36639,1.21707 -0.36639,2.07732 v 23.46151 c 1.83782,0 2.80561,0.0313 4.64343,0 0.55756,-0.0117 1.07672,-0.0927 1.58854,-0.24439 1.80297,-0.80387 3.17708,-2.48617 3.17708,-4.52123 v -1.46634 c 0,-1.11442 -0.41547,-1.84759 -0.97757,-2.81049 -0.65985,-1.13398 -1.17307,-1.65697 -2.32171,-2.32172 -1.29527,-0.75272 -2.15553,-1.15841 -3.66586,-1.22195 0.34723,-0.72828 0.6403,-1.04599 1.09976,-1.71073 0.84559,-1.23662 1.31971,-1.95513 2.19952,-3.17708 1.87692,-2.60032 2.88381,-4.11555 4.76562,-6.72075 1.47123,-2.04311 2.06754,-3.29439 4.03244,-4.88782 1.23173,-1.002 2.04311,-1.61786 3.54367,-2.19951 0.24556,-0.0946 0.39435,-0.16502 0.61098,-0.24439 0.13529,-0.052 0.24126,-0.0747 0.36639,-0.122 0.20685,-0.07 0.40807,-0.192 0.61097,-0.24439 0.76762,-0.26395 1.46506,-0.48879 2.44391,-0.48879 h 2.5661 l 2.6883,0.2444 c -0.5621,0.48389 -1.08509,0.55721 -1.71073,0.97756 -1.45168,0.98245 -2.17508,1.59831 -3.42147,2.81049 -1.86715,1.80361 -2.80072,2.98157 -4.39904,5.01001 -3.05977,3.87115 -4.55055,6.19775 -7.69831,10.02002 1.1633,0.60121 1.86226,0.71851 2.93269,1.46635 1.08021,0.75272 1.54455,1.43702 2.19952,2.5661 0.77716,1.32949 1.15841,2.25817 1.22195,3.78806 0.0117,0.65985 -0.0731,1.0411 -0.122,1.71073 -0.18182,2.96061 -2.21691,5.12889 -4.88781,6.23197 -0.25847,0.12747 -0.58255,0.26042 -0.85537,0.36639 -0.24439,0.0759 -0.48104,0.18534 -0.73317,0.24439 -1.03591,0.32181 -2.04678,0.47658 -3.17708,0.48878 -6.04623,0.0587 -9.47259,-0.004 -15.51882,0 z m -17.84053,-0.24439 c 0.92869,-0.89447 1.30505,-1.57388 1.58854,-2.81049 0.122,-0.53766 0.24439,-0.90914 0.24439,-1.46635 v -22.60614 c 0,-0.77228 -0.14155,-1.09976 -0.36639,-1.83293 -0.31282,-1.02156 -0.68429,-1.69119 -1.46634,-2.44391 h 0.97756 c -0.0833,-0.0888 -0.1482,-0.15172 -0.24439,-0.24439 h 9.89783 c -0.8016,0.77227 -1.10954,1.40769 -1.46635,2.4439 -0.22484,0.65986 -0.36639,1.01667 -0.36639,1.71074 v 22.85054 c 0,0.68918 0.16619,1.05576 0.36639,1.71073 0.3226,1.04111 0.67452,1.67652 1.46635,2.44391 h -0.97757 c 0.0837,0.0911 0.14703,0.15015 0.2444,0.24439 h -9.89783 z m 55.7211,-0.122 -6.47636,-0.122 c 1.39303,-2.90825 2.60032,-6.95536 2.8105,-7.8205 l 6.23196,-23.09493 h 0.61098 l 0.122,-0.24439 h 3.78805 l 5.98758,17.22955 5.74318,-16.98516 h 0.61098 l 0.122,-0.24439 h 3.78805 l 7.20953,25.90542 c 0.59143,2.17019 0.86026,2.76161 1.83293,4.88781 h -0.85537 c 0.0457,0.10089 0.0727,0.13608 0.122,0.2444 l -6.23196,0.12199 0.122,-1.46634 c 0,-1.55432 -0.67941,-4.02756 -1.09976,-5.62099 l -3.78806,-13.68588 -7.08733,20.52882 h -0.24439 l -0.24439,-0.61097 -0.24439,0.85536 h -0.24439 l -7.33172,-20.77321 -3.42147,12.83052 c -0.42036,1.55432 -1.34415,4.67763 -1.34415,6.10976 0,0.53278 0.20529,1.42236 0.24439,1.71074 h -0.73317 c 0.008,0.0602 -0.004,0.20411 0,0.24439 z m 67.94063,-0.24439 -7.20953,-0.122 c 1.39303,-1.02194 2.01867,-1.80888 3.54367,-4.52162 l 7.08733,-12.21954 v -8.67587 c 0,-3.23573 -0.39103,-4.10577 -0.85537,-5.2544 h 0.85537 c -0.0313,-0.0786 -0.0895,-0.16384 -0.122,-0.24439 h 6.47636 c -0.84071,1.59342 -0.85537,3.38237 -0.85537,3.66586 v 10.631 l 7.57611,12.95271 c 0.29327,0.44968 1.26106,1.95024 2.44391,3.42147 h -0.85537 c 0.0591,0.0755 0.0614,0.16892 0.122,0.24439 l -6.47635,0.12219 c 0.0833,-1.47612 -0.23462,-2.55632 -1.58854,-4.76562 l -4.03245,-7.08733 -4.03245,6.96514 c -0.80649,1.39303 -1.51033,2.83982 -1.34415,4.64342 h -0.73317 c 0.004,0.0802 -0.008,0.16228 0,0.24439 z M 290.8217,162.14569 h 1.71073 c 0.35701,0 0.58165,-0.0598 0.85537,-0.122 0.0735,-0.0195 0.16384,0.0235 0.24439,0 0.21115,-0.0551 0.47154,-0.17323 0.73317,-0.24439 0.96427,-0.37109 1.65122,-0.82487 2.56611,-1.58854 1.59342,-1.33438 2.27772,-2.45857 3.05488,-4.39904 0.52788,-1.32948 0.62564,-2.13108 0.85537,-3.54366 0.12708,-0.7625 0.36639,-1.30505 0.36639,-2.07732 v -3.91026 c 0,-1.18285 -0.23462,-1.77916 -0.48878,-2.93269 -1.12909,-5.08332 -4.57011,-9.28684 -9.77563,-9.28684 -1.02402,0 -1.93038,0.19746 -2.8105,0.48878 -3.09875,1.35318 -5.12775,4.49389 -5.98757,8.18709 -0.33746,1.46145 -0.61098,2.29238 -0.61098,3.78805 v 2.93269 c 0,1.66186 0.17088,2.66875 0.61098,4.27684 0.6403,2.31194 1.27083,3.66586 2.81049,5.49879 1.04111,1.2464 1.89159,1.7645 3.42147,2.32172 0.92869,0.33706 1.45657,0.61097 2.44391,0.61097 z m 149.44495,-2.32172 5.01001,-11.85295 h -9.65344 z m 228.74975,-1.34414 4.64343,-10.14222 h -9.04246 z m -82.48188,-4.64343 3.66586,-8.67587 h -7.20953 z m 208.58752,-0.48878 3.66586,-8.0649 h -7.20953 z" /><path
         inkscape:connector-curvature="0"
         style="fill:#ffffff;fill-opacity:1"
         id="path6864"
         d="m 404.42429,362.96133 c 70.25746,0 70.53118,0 70.53118,0 L 660.22811,196.21351 H 467.29626 l -62.87197,166.74782" /><path
         inkscape:connector-curvature="0"
         style="fill:#8a8a8a;fill-opacity:1;filter:url(#filter4246)"
         id="path6864-0"
         clip-path="url(#clipPath4264)"
         transform="matrix(0.8,0,0,-0.8,674.996,848.6016)"
         d="m -370.63522,597.38443 78.75,224.56761 52.63522,0.80651 -83.63227,-225.18662 z m 89.16647,-2.41951 238.709315,226.98712 H 12.178456 L -228.49961,595.15242 Z" /><path
         inkscape:connector-curvature="0"
         style="fill:url(#linearGradient4405);fill-opacity:1;fill-rule:nonzero;stroke:none"
         id="path6986"
         d="m 432.86649,308.66259 97.01825,-1.90136 -55.77486,50.08056 H 415.1335 l 17.73299,-48.1792" /><path
         inkscape:connector-curvature="0"
         style="fill:url(#linearGradient4407);fill-opacity:1;fill-rule:nonzero;stroke:none"
         id="path6988"
         d="M 645.73574,202.24019 587.9862,254.35896 472.013,202.09355 645.73574,202.24019" /><path
         inkscape:connector-curvature="0"
         style="fill:url(#linearGradient4409);fill-opacity:1;fill-rule:nonzero;stroke:none"
         id="path6990"
         d="m 538.97607,298.46661 39.32248,-35.38779 -107.13603,-59.2061 -37.27936,102.88851 105.09291,-8.29462" /><path
         inkscape:connector-curvature="0"
         style="fill:url(#linearGradient4411);fill-opacity:1"
         id="path6998"
         d="m 433.88316,306.76123 66.29344,-45.53978 -29.01408,-57.34873 75.46299,70.71202 -112.74235,32.17649" /><path
         inkscape:connector-curvature="0"
         style="fill:url(#linearGradient4413);fill-opacity:1"
         id="path7122"
         d="m 442.07025,338.86929 c 3.77339,6.80384 12.78652,9.01802 20.1378,4.94647 7.35127,-4.07644 10.25463,-12.89895 6.48124,-19.70279 -3.77339,-6.80872 -12.79141,-9.0229 -20.14269,-4.94158 -7.35127,4.07155 -10.24975,12.89406 -6.47635,19.6979" /><path
         inkscape:connector-curvature="0"
         style="fill:url(#linearGradient4415);fill-opacity:1"
         id="path7072"
         d="M 433.88316,306.76123 500.1766,261.22145 471.16252,203.87272 433.88316,306.76123" /></g></g></svg>
