<?xml version="1.0" encoding="utf-8"?>
<!-- Generator: Adobe Illustrator 19.2.1, SVG Export Plug-In . SVG Version: 6.00 Build 0)  -->
<svg version="1.1" id="レイヤー_1" xmlns="http://www.w3.org/2000/svg" xmlns:xlink="http://www.w3.org/1999/xlink" x="0px"
	 y="0px" viewBox="0 0 14791.1 2000" style="enable-background:new 0 0 14791.1 2000;" xml:space="preserve">
<g>
	<path d="M1738.7,5c425.9,0,882.5,86.8,1245.9,317.4c236,151,455.7,379.8,455.7,678c0,348.2-297.4,601.4-582.3,749.6
		c-339,175.5-739.6,245-1119.4,245c-425.8,0-881.5-85.8-1245-317.3c-236-151-456.6-379.8-456.6-677.3
		C37,650.6,333.6,398.3,619.3,250C959.3,74.6,1359,5,1738.7,5L1738.7,5z M1735.1,110.8c-396,0-822.8,74.1-1166.4,281.1
		C352.6,521.2,139.2,724.7,139.2,995c0,317.5,289.3,539.7,547.9,667.3c320.1,156.3,694.4,217.1,1048,217.1
		c396.8,0,823.7-74.3,1167.3-281.3c215.2-130.2,429.5-332.7,429.5-603c0-318.2-288.5-540.7-547.9-667.2
		C2463.8,171.3,2089.5,110.8,1735.1,110.8L1735.1,110.8z M240.5,775.3l651.9-111.2l196.2-425.9L1284,664.1l651.8,111.2L1284,887.5
		l-195.4,426.8L892.4,887.5L240.5,775.3L240.5,775.3z M1673.6,1099.8l287.5-50.5l85.9-192.6l85.9,192.6l287.6,50.5l-287.6,49.7
		l-85.9,192.7l-85.9-192.7L1673.6,1099.8L1673.6,1099.8z M2268.6,586.3l287.5-49.7l85.9-193.4l85.9,193.4l287.5,49.7l-287.5,50.6
		L2642,829.6L2556,636.9L2268.6,586.3z M1961.1,1497.8l286.6-49.7l85.9-193.5l86.8,193.5l287.5,49.7l-287.5,50.6l-86.8,192.7
		l-85.9-192.7L1961.1,1497.8z M1077.8,1567.4l287.5-49.7l86.8-193.7l85.8,193.7l287.6,49.7l-287.6,50.6l-85.8,192.7l-86.8-192.7
		L1077.8,1567.4z M2523.6,1091.9l286.6-50.7l85.9-192.6l86.8,192.6l287.5,50.7l-287.5,49.7L2896,1334l-85.9-192.5L2523.6,1091.9z"/>
</g>
</svg>
