<?xml version="1.0" encoding="UTF-8" standalone="no"?>
<svg
   xmlns:dc="http://purl.org/dc/elements/1.1/"
   xmlns:cc="http://creativecommons.org/ns#"
   xmlns:rdf="http://www.w3.org/1999/02/22-rdf-syntax-ns#"
   xmlns:svg="http://www.w3.org/2000/svg"
   xmlns="http://www.w3.org/2000/svg"
   xmlns:sodipodi="http://sodipodi.sourceforge.net/DTD/sodipodi-0.dtd"
   xmlns:inkscape="http://www.inkscape.org/namespaces/inkscape"
   inkscape:version="1.0beta2 (2b71d25, 2019-12-03)"
   sodipodi:docname="subway_.svg"
   id="svg16"
   version="1.1"
   width="189.56"
   viewBox="0 0 189.56512 39.072222"
   height="39.072">
  <metadata
     id="metadata22">
    <rdf:RDF>
      <cc:Work
         rdf:about="">
        <dc:format>image/svg+xml</dc:format>
        <dc:type
           rdf:resource="http://purl.org/dc/dcmitype/StillImage" />
      </cc:Work>
    </rdf:RDF>
  </metadata>
  <defs
     id="defs20" />
  <sodipodi:namedview
     inkscape:current-layer="svg16"
     inkscape:window-maximized="0"
     inkscape:window-y="23"
     inkscape:window-x="0"
     inkscape:cy="19.535999"
     inkscape:cx="94.779999"
     inkscape:zoom="2.5954843"
     showgrid="false"
     id="namedview18"
     inkscape:window-height="480"
     inkscape:window-width="854"
     inkscape:pageshadow="2"
     inkscape:pageopacity="0"
     guidetolerance="10"
     gridtolerance="10"
     objecttolerance="10"
     borderopacity="1"
     inkscape:document-rotation="0"
     bordercolor="#666666"
     pagecolor="#ffffff" />
  <g
     id="g14"
     transform="matrix(.5 0 0 .5 .71444 .93895)">
    <path
       sodipodi:nodetypes="cccsscccccccccccccccccsssscscccscssccccccsccccccccccccccsscccscccccsccccccscscsssccccsccsccccccccc"
       inkscape:connector-curvature="0"
       id="path10"
       transform="translate(0,-3.357e-4)"
       fill="#ffcb08"
       d="m 43.842,7.8242 c -12.969,-0.0643 -13.718,0.021 -18.016,2.084 -0.968,0.4648 -2.099,1.0878 -2.514,1.3828 -1.242,0.884 -3.519,3.122 -3.519,3.459 0,0.17225 -0.06783,0.3125 -0.15039,0.3125 -0.39819,0 -2.1903,3.3628 -2.1934,4.1152 -0.0012,0.28113 -0.06732,0.58235 -0.14648,0.66992 -0.52886,0.58489 -0.69594,5.6829 -0.25781,7.8691 0.14778,0.73739 0.33539,1.679 0.41797,2.0938 0.15681,0.78767 0.83976,2.2118 1.6211,3.3848 0.25199,0.37828 0.5333,0.80756 0.625,0.95508 0.41478,0.66717 3.1902,3.2275 4.3633,4.0234 1.635,1.1093 3.6201,2.315 4.1289,2.5098 0.21451,0.08212 1.0689,0.51771 1.8984,0.9668 0.82957,0.44909 1.8469,0.95747 2.2617,1.1309 0.41478,0.17339 1.8111,0.82245 3.1016,1.4414 6.8979,3.3087 7.4897,3.6497 8.0762,4.6504 0.60365,1.03 0.62202,2.1063 0.05078,2.9453 -0.23044,0.33845 -0.54531,0.61456 -0.70117,0.61524 -0.15586,6.2e-4 -0.33815,0.09023 -0.4043,0.19726 -0.12402,0.19956 -14.344,0.10706 -21.393,-0.13867 l -3.1426,-0.10938 v -3.6602 c 0,-3.1422 -0.03617,-3.6621 -0.25195,-3.6621 -0.13826,0 -0.25,0.07579 -0.25,0.16797 0,0.09217 -0.08613,0.16797 -0.19141,0.16797 -0.20798,0 -1.9869,1.4495 -2.2051,1.7969 -0.07371,0.11736 -0.36292,0.33195 -0.64258,0.47656 -0.27966,0.14461 -0.93794,0.65786 -1.4609,1.1387 -0.52301,0.48081 -1.3014,1.115 -1.7305,1.4102 -0.42906,0.29521 -0.80484,0.59596 -0.83594,0.66797 -0.0848,0.19648 -1.734,1.5488 -1.8887,1.5488 -0.073806,0 -0.3712,0.25032 -0.66016,0.55664 -0.2899,0.308 -1.3184,1.193 -2.2861,1.97 -0.9677,0.777 -1.9084,1.564 -2.0918,1.748 -0.1834,0.184 -0.6108,0.523 -0.9492,0.754 -0.3385,0.23 -1.0405,0.823 -1.5606,1.316 l -0.9453,0.899 1.0566,0.982 c 0.58096,0.54068 1.11,0.98574 1.1758,0.98828 0.065829,0.0025 0.70645,0.53252 1.4238,1.1777 0.7174,0.645 1.3937,1.174 1.504,1.174 0.11026,0 0.29948,0.13094 0.41992,0.29297 0.12045,0.16202 0.63312,0.63476 1.1387,1.0488 0.50555,0.41406 1.0701,0.87545 1.2559,1.0273 0.18576,0.15188 0.8209,0.6805 1.4102,1.1738 0.58928,0.49333 1.3934,1.1389 1.7871,1.4336 0.39367,0.29471 0.97585,0.79616 1.2949,1.1152 0.31907,0.31907 0.87335,0.77058 1.2305,1.002 0.35712,0.23137 1.1013,0.8386 1.6543,1.3516 0.55304,0.51296 1.0949,0.93405 1.2031,0.93555 0.10821,0.0015 0.37154,0.22467 0.58594,0.49609 0.75728,0.95861 0.79927,0.79543 0.84766,-3.3008 l 0.04492,-3.8125 0.75391,0.02148 c 0.41478,0.01102 4.7694,0.03472 9.6777,0.05469 6.2137,0.02529 8.9238,0.09172 8.9238,0.2168 0,0.20508 5.2163,0.06547 7.877,-0.21094 2.0872,-0.21683 4.7155,-0.73229 5.1113,-1.002 0.09217,-0.0628 0.62078,-0.29109 1.1738,-0.50781 0.55304,-0.21674 1.0438,-0.44016 1.0898,-0.49609 0.16213,-0.19675 1.3619,-0.8418 1.5664,-0.8418 0.11379,0 0.46975,-0.2434 0.79102,-0.54297 0.32125,-0.29956 0.87197,-0.77231 1.2246,-1.0488 0.72633,-0.56964 2.5459,-2.8444 3.082,-3.8535 0.54362,-1.0233 1.3674,-3.6148 1.6387,-5.1562 0.54321,-3.0867 0.19458,-7.16 -0.82617,-9.6621 -0.2415,-0.59198 -0.43945,-1.1405 -0.43945,-1.2188 0,-0.17265 -0.82838,-1.4945 -1.084,-1.7285 -0.10067,-0.09217 -0.5429,-0.63742 -0.98242,-1.2129 -0.43954,-0.57547 -0.95331,-1.1283 -1.1406,-1.2285 -0.32955,-0.17639 -0.61551,-0.40909 -1.6855,-1.3613 -0.27853,-0.24786 -0.78186,-0.57846 -1.1172,-0.73633 -0.33533,-0.15787 -0.87084,-0.50311 -1.1914,-0.76562 -0.32056,-0.26253 -0.64394,-0.47656 -0.71875,-0.47656 -0.07481,0 -0.52876,-0.26333 -1.0078,-0.58594 -0.47905,-0.32261 -0.97462,-0.58789 -1.1016,-0.58789 -0.26913,0 -1.5917,-0.69419 -1.6738,-0.87891 -0.03072,-0.06913 -0.16239,-0.125 -0.29297,-0.125 -0.13059,0 -0.23633,-0.0758 -0.23633,-0.16797 0,-0.09218 -0.12383,-0.16797 -0.27344,-0.16797 -0.14961,0 -0.69619,-0.21359 -1.2148,-0.47461 -2.743,-1.3805 -4.1405,-2.0503 -4.2676,-2.0449 -0.07794,0.0033 -0.34738,-0.14014 -0.59766,-0.31836 -0.2503,-0.17821 -0.67638,-0.37772 -0.94727,-0.44336 -0.27082,-0.06564 -1.2657,-0.54202 -2.2109,-1.0586 -0.9452,-0.51658 -2.0384,-1.1032 -2.4297,-1.3027 -0.39132,-0.1995 -0.93458,-0.59659 -1.207,-0.88281 -0.45376,-0.47667 -0.49609,-0.62082 -0.49609,-1.7148 0,-1.1461 0.0223,-1.2134 0.55274,-1.6562 0.30402,-0.25381 0.791,-0.49543 1.082,-0.53906 0.29094,-0.04363 5.5064,-0.04027 11.59,0.0078 l 11.061,0.08789 -0.03125,-7.0234 -0.0332,-7.0215 -1.9785,-0.11523 c -1.091,-0.0631 -6.582,-0.1389 -12.204,-0.1668 z" />
  </g>
</svg>
