<?xml version="1.0" encoding="utf-8"?><!-- Generator: Adobe Illustrator 21.0.0, SVG Export Plug-In . SVG Version: 6.00 Build 0)  --><svg version="1.1"	 id="svg3063" inkscape:version="0.48.5 r10040" sodipodi:docname="New document 2" xmlns:cc="http://creativecommons.org/ns#" xmlns:dc="http://purl.org/dc/elements/1.1/" xmlns:inkscape="http://www.inkscape.org/namespaces/inkscape" xmlns:rdf="http://www.w3.org/1999/02/22-rdf-syntax-ns#" xmlns:sodipodi="http://sodipodi.sourceforge.net/DTD/sodipodi-0.dtd" xmlns:svg="http://www.w3.org/2000/svg"	 xmlns="http://www.w3.org/2000/svg" xmlns:xlink="http://www.w3.org/1999/xlink" x="0px" y="0px" width="262.161155907"	 height="381.444763066" viewBox="0 0 284.329 413.699" style="enable-background:new 0 0 284.329 413.699;" xml:space="preserve"><style type="text/css">	.st0{fill:#9E7FBA;}	.st1{fill:#682A8F;}</style><sodipodi:namedview  bordercolor="#666666" borderopacity="1.0" fit-margin-bottom="0" fit-margin-left="0" fit-margin-right="0" fit-margin-top="0" id="base" inkscape:current-layer="layer1" inkscape:cx="976.71112" inkscape:cy="594.55959" inkscape:document-units="px" inkscape:object-paths="false" inkscape:pageopacity="0.0" inkscape:pageshadow="2" inkscape:window-height="706" inkscape:window-maximized="1" inkscape:window-width="1366" inkscape:window-x="-8" inkscape:window-y="-8" inkscape:zoom="0.35355339" pagecolor="#ffffff" showgrid="false">	</sodipodi:namedview><g id="layer1" transform="translate(-135.41925,583.0132)" inkscape:groupmode="layer" inkscape:label="Layer 1">	<g id="text3141" transform="matrix(5.6956046,0,0,5.7603967,-1277.173,570.00134)">	</g>	<g id="text3145" transform="matrix(5.6956046,0,0,5.7603967,-1277.173,570.00134)">	</g>	<g id="g3328">		<g id="g3278" transform="matrix(2.1501372,0,0,2.1509725,-155.7507,-1003.6328)">			<path id="path3124" inkscape:connector-curvature="0" class="st0" d="M198.874,195.549c-0.273-0.002-0.554,0.006-0.826,0.009				c-8.302,0.088-16.702,2.039-24.443,5.731c0,0,1.204-0.309,2.026-0.302c0.117,0.001,0.223,0.002,0.32,0.018				c0.797,0.128,1.553,0.54,2.195,1.031c0.907,0.693,1.236,2.022,2.212,2.612c0.793,0.479,1.793,0.558,2.719,0.604				c1.988,0.1,3.938-0.61,5.926-0.711c2.008-0.102,4.043-0.179,6.033,0.107c2.941,0.422,5.856,1.206,8.592,2.363				c3.223,1.364,6.225,3.262,9.054,5.322c2.772,2.019,5.213,4.465,7.686,6.842c3.578,3.439,6.452,7.621,10.325,10.725				c1.59,1.274,3.22,2.354,5.225,3.181c2.863,1.182,9.063,2.035,9.063,2.035l2.594,0.649c1.348,0.224,2.571,0.533,3.652,0.915				l0.062,0.018c0.988,0.354,1.856,0.777,2.594,1.262c-2.004-6.616-5.476-12.924-9.303-18.561				C234.99,205.27,216.085,195.669,198.874,195.549L198.874,195.549z"/>			<path id="path3122" inkscape:connector-curvature="0" class="st1" d="M164.017,207.038c-5.131,3.777-9.733,8.445-13.506,13.977				c-5.787,8.484-9.987,18.857-9.987,29.197v48.052c-0.004,1.061,0.589,1.599,1.342,1.599h14.572c-1.923-0.944-3.29-2.2-4.043-3.714				c-5.604-11.264,12.319-31.142,40.188-46.399c1.193-0.874,2.319-1.794,2.284-2.15c-0.045-0.45-1.848,0.284-1.848,0.284				c-13.297,5.27-25.021,13.574-35.754,22.569c0,0-2.148-9.643-3.057-14.394c-0.56-2.931-1.302-5.842-1.564-8.814				c-0.241-2.738,0-8.246,0-8.246s0.13-5.542,0.96-8.246c0.869-2.831,4.141-8.166,4.141-8.166s2.667-3.751,4.754-5.838				c0.53-0.53,1.067-1.559,1.084-2.346c0.014-0.647-0.409-1.041-0.56-1.67c-0.196-0.819-0.393-1.806-0.364-2.648				c0.022-0.645,0.156-1.186,0.435-1.768C163.295,207.898,163.707,207.396,164.017,207.038z"/>			<path id="path3094" inkscape:connector-curvature="0" class="st1" d="M255.678,250.131c-4.332,10.748-18.97,25.373-40.161,36.741				c-12.256,6.575-23.378,10.756-32.778,12.99h71.642c0.87,0,1.324-0.422,1.324-1.573				C255.692,283.934,255.681,266.912,255.678,250.131L255.678,250.131z"/>			<path id="path3096" inkscape:connector-curvature="0" class="st1" d="M239.027,249.056c-7.77-0.013-23.445,5.461-39.948,14.803				c-24.248,13.725-35.176,27.409-30.974,29.952c5.601,3.389,23.588,1.847,48.718-12.662c10.313-5.954,29.743-20.357,27.198-29.855				C243.614,249.777,241.837,249.061,239.027,249.056z M201.62,265.938c0,0,5.456,10.433-2.985,16.846				c-11.537,8.765-20.045-0.569-20.045-0.569C184.269,276.175,192.278,270.382,201.62,265.938z"/>		</g>		<g id="g3261" transform="matrix(2.1501372,0,0,2.1509725,-155.7507,-1003.6328)">			<g id="text3143" transform="matrix(5.6956046,0,0,5.7603967,-1277.173,570.00134)">				<path id="path3167" inkscape:connector-curvature="0" sodipodi:nodetypes="sscccsccscccccccccccccccccccccsscc" d="					M252.614-32.947c0.222,0,0.392-0.047,0.511-0.141c0.118-0.094,0.178-0.229,0.178-0.405v-0.017c0-0.165-0.057-0.296-0.17-0.393					c-0.113-0.097-0.291-0.145-0.533-0.145h-1.345v1.1H252.614z M252.157-35.207c0.222,0,0.391-0.043,0.507-0.128					c0.116-0.085,0.174-0.216,0.174-0.392v-0.017c0-0.165-0.054-0.291-0.163-0.38c-0.109-0.088-0.271-0.132-0.488-0.132h-0.933					v1.049L252.157-35.207z M249.856-37.587h2.657c0.326,0,0.605,0.046,0.836,0.137c0.232,0.091,0.415,0.16,0.568,0.312					c0.104,0.119,0.233,0.222,0.31,0.427c0.059,0.159,0.09,0.404,0.09,0.609v0.047c0,0.347-0.133,0.614-0.283,0.827					c-0.151,0.213-0.367,0.241-0.599,0.355c0.441,0.07,0.916,0.427,1.101,0.652c0.185,0.225,0.277,0.539,0.277,0.942v0.017					c0,0.517-0.171,0.921-0.514,1.211c-0.343,0.29-1.15,0.435-1.772,0.435h-2.672V-37.587z"/>				<path id="path3169" inkscape:connector-curvature="0" sodipodi:nodetypes="ccccccccccccc" d="M255.379-37.587h4.508v1.247					h-3.056v1.102h2.604v1.169h-2.604v1.181h3.124v1.272h-4.576V-37.587z"/>				<path id="path3171" inkscape:connector-curvature="0" sodipodi:nodetypes="ccccccc" d="M260.586-37.587h1.555v4.706h2.717v1.265					h-4.272V-37.587z"/>				<path id="path3187" inkscape:connector-curvature="0" sodipodi:nodetypes="ccccccc" d="M265.457-37.587h1.555v4.706h2.717v1.265					h-4.272V-37.587z"/>			</g>			<g id="g3255">				<path id="path3157" inkscape:connector-curvature="0" sodipodi:nodetypes="ccccccccc" d="M145.703,320.385h-10.284v-7.172					h29.628v7.172h-10.586v27.324h-8.758V320.385z"/>				<path id="path3159" inkscape:connector-curvature="0" sodipodi:nodetypes="ccccccccccccc" d="M180.733,335.711l-4.213-11.794					l-4.487,11.794H180.733z M173.336,313.069h7.106l14.035,34.64h-9.232l-1.993-5.076h-13.582l-2.108,5.076h-8.537L173.336,313.069					z"/>				<path id="path3163" inkscape:connector-curvature="0" d="M242.812,312.63c-2.397,0.077-5.023,0.724-7.037,1.599					c-2.148,0.933-3.912,2.11-5.5,3.732c-1.588,1.621-2.418,3.419-3.305,5.598c-0.887,2.179-1.128,4.492-1.128,6.948v0.107					c0,2.456,0.241,4.759,1.128,6.922c0.887,2.162,2.104,4.046,3.661,5.651s3.414,2.878,5.562,3.812					c2.148,0.934,4.48,1.395,7.002,1.395c2.521,0,4.854-0.461,7.002-1.395c2.148-0.934,4.019-2.217,5.607-3.838					c1.588-1.621,2.827-3.517,3.714-5.695c0.887-2.178,1.075-4.5,1.075-6.957v-0.098c0-2.457-0.188-4.76-1.075-6.922					c-0.887-2.162-2.113-4.046-3.67-5.651c-1.556-1.605-3.405-2.879-5.553-3.812c-2.148-0.933-4.488-1.395-7.01-1.395					C243.125,312.63,242.972,312.625,242.812,312.63z M243.185,320.174c1.336,0,2.559,0.279,3.661,0.844					c1.101,0.566,2.051,1.326,2.852,2.275c0.801,0.949,1.423,2.038,1.857,3.279c0.434,1.24,0.649,2.55,0.649,3.936v0.116					c0,1.386-0.215,2.696-0.649,3.936c-0.434,1.24-1.036,2.331-1.804,3.261c-0.768,0.93-1.706,1.665-2.808,2.212					c-1.102,0.547-2.316,0.817-3.652,0.817c-1.335,0-2.559-0.279-3.661-0.844c-1.102-0.565-2.041-1.326-2.826-2.275					c-0.784-0.948-1.396-2.038-1.83-3.279c-0.434-1.241-0.649-2.559-0.649-3.945v-0.107c0-1.387,0.205-2.696,0.622-3.936					c0.417-1.24,1.019-2.331,1.804-3.261c0.784-0.93,1.723-1.665,2.808-2.212C240.645,320.444,241.849,320.174,243.185,320.174z"/>				<path id="path3189" inkscape:connector-curvature="0" sodipodi:nodetypes="sssccsssssssccsss" d="M193.127,330.553					c0-4.395,1.15-9.307,4.157-12.512c3.288-3.503,8.559-5.402,13.363-5.402c9.402,0,13.743,6.504,13.743,6.504l-6.685,4.825					c0,0-1.794-2.037-2.965-2.664c-1.189-0.637-2.577-1.132-3.92-1.005c-2.507,0.237-5.167,1.33-6.836,3.217					c-1.565,1.77-2.312,4.374-2.212,6.735c0.134,3.165,1.346,6.647,3.719,8.746c1.319,1.166,3.569,1.458,5.077,1.458					c2.237,0,3.451-0.44,4.976-1.206c1.031-0.518,2.664-2.212,2.664-2.212l6.987,5.026c0,0-5.238,6.233-14.375,6.233					c-4.018,0-8.394-0.961-11.195-3.33C195.482,341.463,193.127,338.607,193.127,330.553L193.127,330.553z"/>			</g>			<g id="g3217" transform="matrix(0.62500655,0,0,0.62500655,405.36411,842.34472)">				<g id="text3221">				</g>			</g>		</g>	</g></g></svg>