<?xml version="1.0" encoding="utf-8"?><!-- Generator: Adobe Illustrator 21.0.0, SVG Export Plug-In . SVG Version: 6.00 Build 0)  --><svg version="1.1"	 id="svg3063" inkscape:version="0.48.5 r10040" sodipodi:docname="New document 2" xmlns:cc="http://creativecommons.org/ns#" xmlns:dc="http://purl.org/dc/elements/1.1/" xmlns:inkscape="http://www.inkscape.org/namespaces/inkscape" xmlns:rdf="http://www.w3.org/1999/02/22-rdf-syntax-ns#" xmlns:sodipodi="http://sodipodi.sourceforge.net/DTD/sodipodi-0.dtd" xmlns:svg="http://www.w3.org/2000/svg"	 xmlns="http://www.w3.org/2000/svg" xmlns:xlink="http://www.w3.org/1999/xlink" x="0px" y="0px" width="262.161155907"	 height="381.444763066" viewBox="0 0 284.329 413.699" style="enable-background:new 0 0 284.329 413.699;" xml:space="preserve"><style type="text/css">	.st0{fill:#9E7FBA;}	.st1{fill:#682A8F;}</style><sodipodi:namedview  bordercolor="#666666" borderopacity="1.0" fit-margin-bottom="0" fit-margin-left="0" fit-margin-right="0" fit-margin-top="0" id="base" inkscape:current-layer="layer1" inkscape:cx="976.71112" inkscape:cy="594.55959" inkscape:document-units="px" inkscape:object-paths="false" inkscape:pageopacity="0.0" inkscape:pageshadow="2" inkscape:window-height="706" inkscape:window-maximized="1" inkscape:window-width="1366" inkscape:window-x="-8" inkscape:window-y="-8" inkscape:zoom="0.35355339" pagecolor="#ffffff" showgrid="false">	</sodipodi:namedview><g id="layer1" transform="translate(-135.41925,583.0132)" inkscape:groupmode="layer" inkscape:label="Layer 1">	<g id="text3141" transform="matrix(5.6956046,0,0,5.7603967,-1277.173,570.00134)">	</g>	<g id="text3145" transform="matrix(5.6956046,0,0,5.7603967,-1277.173,570.00134)">	</g>	<g id="g3328">		<g id="g3278" transform="matrix(2.1501372,0,0,2.1509725,-155.7507,-1003.6328)">			<path id="path3124" inkscape:connector-curvature="0" class="st0" d="M198.874,195.549c-0.273-0.002-0.554,0.006-0.826,0.009				c-8.302,0.088-16.702,2.039-24.443,5.731c0,0,1.204-0.309,2.026-0.302c0.117,0.001,0.223,0.002,0.32,0.018				c0.797,0.128,1.553,0.54,2.195,1.031c0.907,0.693,1.236,2.022,2.212,2.612c0.793,0.479,1.793,0.558,2.719,0.604				c1.988,0.1,3.938-0.61,5.926-0.711c2.008-0.102,4.043-0.179,6.033,0.107c2.941,0.422,5.856,1.206,8.592,2.363				c3.223,1.364,6.225,3.262,9.054,5.322c2.772,2.019,5.213,4.465,7.686,6.842c3.578,3.439,6.452,7.621,10.325,10.725				c1.59,1.274,3.22,2.354,5.225,3.181c2.863,1.182,9.063,2.035,9.063,2.035l2.594,0.649c1.348,0.224,2.571,0.533,3.652,0.915				l0.062,0.018c0.988,0.354,1.856,0.777,2.594,1.262c-2.004-6.616-5.476-12.924-9.303-18.561				C234.99,205.27,216.085,195.669,198.874,195.549L198.874,195.549z"/>			<path id="path3122" inkscape:connector-curvature="0" class="st1" d="M164.017,207.038c-5.131,3.777-9.733,8.445-13.506,13.977				c-5.787,8.484-9.987,18.857-9.987,29.197v48.052c-0.004,1.061,0.589,1.599,1.342,1.599h14.572c-1.923-0.944-3.29-2.2-4.043-3.714				c-5.604-11.264,12.319-31.142,40.188-46.399c1.193-0.874,2.319-1.794,2.284-2.15c-0.045-0.45-1.848,0.284-1.848,0.284				c-13.297,5.27-25.021,13.574-35.754,22.569c0,0-2.148-9.643-3.057-14.394c-0.56-2.931-1.302-5.842-1.564-8.814				c-0.241-2.738,0-8.246,0-8.246s0.13-5.542,0.96-8.246c0.869-2.831,4.141-8.166,4.141-8.166s2.667-3.751,4.754-5.838				c0.53-0.53,1.067-1.559,1.084-2.346c0.014-0.647-0.409-1.041-0.56-1.67c-0.196-0.819-0.393-1.806-0.364-2.648				c0.022-0.645,0.156-1.186,0.435-1.768C163.295,207.898,163.707,207.396,164.017,207.038z"/>			<path id="path3094" inkscape:connector-curvature="0" class="st1" d="M255.678,250.131c-4.332,10.748-18.97,25.373-40.161,36.741				c-12.256,6.575-23.378,10.756-32.778,12.99h71.642c0.87,0,1.324-0.422,1.324-1.573				C255.692,283.934,255.681,266.912,255.678,250.131L255.678,250.131z"/>			<path id="path3096" inkscape:connector-curvature="0" class="st1" d="M239.027,249.056c-7.77-0.013-23.445,5.461-39.948,14.803				c-24.248,13.725-35.176,27.409-30.974,29.952c5.601,3.389,23.588,1.847,48.718-12.662c10.313-5.954,29.743-20.357,27.198-29.855				C243.614,249.777,241.837,249.061,239.027,249.056z M201.62,265.938c0,0,5.456,10.433-2.985,16.846				c-11.537,8.765-20.045-0.569-20.045-0.569C184.269,276.175,192.278,270.382,201.62,265.938z"/>		</g>		<g id="g3261" transform="matrix(2.1501372,0,0,2.1509725,-155.7507,-1003.6328)">			<g id="text3143" transform="matrix(5.6956046,0,0,5.7603967,-1277.173,570.00134)">			</g>			<g id="g3255">			</g>			<g id="g3217" transform="matrix(0.62500655,0,0,0.62500655,405.36411,842.34472)">				<g id="text3219">				</g>				<g id="text3221">				</g>			</g>		</g>	</g></g></svg>