<?xml version="1.0" encoding="UTF-8" standalone="no"?>
<!-- Created with Inkscape (http://www.inkscape.org/) -->

<svg
   xmlns:dc="http://purl.org/dc/elements/1.1/"
   xmlns:cc="http://creativecommons.org/ns#"
   xmlns:rdf="http://www.w3.org/1999/02/22-rdf-syntax-ns#"
   xmlns:svg="http://www.w3.org/2000/svg"
   xmlns="http://www.w3.org/2000/svg"
   xmlns:sodipodi="http://sodipodi.sourceforge.net/DTD/sodipodi-0.dtd"
   xmlns:inkscape="http://www.inkscape.org/namespaces/inkscape"
   viewBox="0 0 38.630752 6.6569168"
   version="1.1"
   id="svg948"
   inkscape:version="0.92.0 r15299"
   sodipodi:docname="tap air portugal.svg">
  <defs
     id="defs942">
    <path
       d="M 0.468,24.49 H 20.763 V 0.33 H 0.468 Z"
       id="a"
       inkscape:connector-curvature="0" />
    <path
       d="M 0,24.49 H 21.97 V 0.33 H 0 Z"
       id="c"
       inkscape:connector-curvature="0" />
    <path
       d="M 0.056,24.49 H 11.894 V 0.33 H 0.056 Z"
       id="e"
       inkscape:connector-curvature="0" />
    <path
       d="M 0.468,24.49 H 7.232 V 0.33 H 0.468 Z"
       id="g"
       inkscape:connector-curvature="0" />
    <path
       d="M 6.5,10.444 V 0.092 H 0.294 v 10.352 z"
       id="i"
       inkscape:connector-curvature="0" />
    <path
       d="M 0,24.67 H 145.007 V 0.51 H 0 Z"
       id="k"
       inkscape:connector-curvature="0" />
  </defs>
  <sodipodi:namedview
     id="base"
     pagecolor="#ffffff"
     bordercolor="#666666"
     borderopacity="1.0"
     inkscape:pageopacity="0.0"
     inkscape:pageshadow="2"
     inkscape:zoom="6.185951"
     inkscape:cx="70.602872"
     inkscape:cy="12.079981"
     inkscape:document-units="mm"
     inkscape:current-layer="layer1"
     showgrid="false"
     fit-margin-top="0"
     fit-margin-left="0"
     fit-margin-right="0"
     fit-margin-bottom="0"
     units="px"
     inkscape:window-x="-4"
     inkscape:window-y="-4"
     inkscape:window-maximized="1" />
  <metadata
     id="metadata945">
    <rdf:RDF>
      <cc:Work
         rdf:about="">
        <dc:format>image/svg+xml</dc:format>
        <dc:type
           rdf:resource="http://purl.org/dc/dcmitype/StillImage" />
        <dc:title></dc:title>
      </cc:Work>
    </rdf:RDF>
  </metadata>
  <g
     inkscape:label="Layer 1"
     inkscape:groupmode="layer"
     id="layer1"
     transform="translate(-32.977629,-350.23567)">
    <g
       id="g1091"
       transform="translate(0.13229132,-0.13229089)">
      <path
         transform="matrix(0.26458333,0,0,0.26458333,38.666435,350.41294)"
         style="fill:#ed1c24;fill-rule:evenodd"
         inkscape:connector-curvature="0"
         d="m 0.468,0.33 h 11.838 c 4.67,0 8.457,3.862 8.457,8.629 0,4.765 -3.787,8.628 -8.457,8.628 H 7.232 V 24.49 H 0.468 Z m 6.764,6.902 h 5.074 c 0.933,0 1.692,0.773 1.692,1.727 0,0.952 -0.759,1.725 -1.692,1.725 H 7.232 V 7.233 Z"
         mask="none"
         id="path961" />
      <path
         transform="matrix(0.26458333,0,0,0.26458333,32.977629,350.41294)"
         style="fill:#bfd730;fill-rule:evenodd"
         inkscape:connector-curvature="0"
         d="M 5.056,24.49 V 7.232 H 0 V 0.33 h 21.97 v 24.16 l -1.292,-4.394 v 0.08 H 13.09 L 11.82,24.49 Z M 15.119,13.273 h 3.552 l -1.777,-6.04 z"
         mask="none"
         id="path968" />
      <path
         transform="matrix(0.26458333,0,0,0.26458333,34.300546,350.41294)"
         style="fill:#46a41a;fill-rule:evenodd"
         inkscape:connector-curvature="0"
         d="M 0.056,24.49 H 6.82 V 7.232 h 5.073 V 0.33 H 6.821 Z"
         mask="none"
         id="path975" />
      <path
         transform="matrix(0.26458333,0,0,0.26458333,38.666435,350.41294)"
         style="fill:#ba141a;fill-rule:evenodd"
         inkscape:connector-curvature="0"
         d="M 0.468,24.49 H 7.232 L 0.468,0.33 Z"
         mask="none"
         id="path982" />
      <path
         id="path986"
         d="m 52.298562,355.06617 h 0.360627 v -1.08929 c 0.09313,0.0265 0.205581,0.032 0.328613,0.032 0.372533,0 0.683948,-0.10028 0.88212,-0.29898 0.147638,-0.14235 0.224103,-0.34766 0.224103,-0.59399 0,-0.24606 -0.09737,-0.44424 -0.247386,-0.576 -0.169333,-0.14949 -0.434975,-0.23574 -0.805921,-0.23574 -0.315912,0 -0.559329,0.0246 -0.742156,0.055 v 2.70722 z m 0.360627,-2.44422 a 2.0439062,2.0439062 0 0 1 0.381,-0.0315 c 0.393171,0 0.692944,0.15398 0.692944,0.54292 0,0.36962 -0.270669,0.58367 -0.731308,0.58367 -0.134673,0 -0.25109,-0.0103 -0.342636,-0.0376 v -1.05727 z m 3.048794,2.49317 c 0.763852,0 1.397529,-0.5371 1.397529,-1.4478 0,-0.79322 -0.543454,-1.388 -1.366573,-1.388 -0.8001,0 -1.395148,0.59742 -1.395148,1.4515 0,0.7956 0.560123,1.3843 1.359959,1.3843 h 0.0045 z m 0.0053,-0.29157 c -0.610923,0 -0.99113,-0.51197 -0.99113,-1.1049 0,-0.61383 0.347134,-1.14776 1.001977,-1.14776 0.653521,0 0.995363,0.55694 0.995363,1.11389 0,0.65008 -0.382852,1.13877 -1.001977,1.13877 z m 1.666875,0.24262 h 0.359039 v -1.18454 h 0.398463 c 0.331258,0.0148 0.486039,0.16193 0.572823,0.53631 0.07964,0.34475 0.143668,0.57044 0.187325,0.64823 h 0.37465 c -0.05927,-0.11377 -0.126736,-0.3855 -0.224367,-0.77126 -0.06641,-0.25797 -0.19685,-0.4572 -0.403754,-0.53446 v -0.01 c 0.284956,-0.0899 0.531018,-0.33231 0.531018,-0.69585 0,-0.21378 -0.08599,-0.40084 -0.218545,-0.51567 -0.175684,-0.15902 -0.432859,-0.23548 -0.835555,-0.23548 -0.26617,0 -0.549539,0.0249 -0.741097,0.0603 z m 0.359039,-2.44422 c 0.06588,-0.0169 0.201083,-0.0357 0.404813,-0.0357 0.377031,0 0.669925,0.13917 0.669925,0.50747 0,0.31062 -0.247386,0.5125 -0.645584,0.5125 h -0.429154 z m 2.542646,2.44422 h 0.363008 v -2.4339 h 0.930804 v -0.30506 h -2.220383 v 0.30506 h 0.926571 z m 1.506273,-2.73896 v 1.54384 c 0,0.90831 0.464873,1.24407 1.060979,1.24407 0.643731,0 1.125273,-0.36645 1.125273,-1.25254 v -1.53537 h -0.362479 v 1.5531 c 0,0.64082 -0.294217,0.94059 -0.744802,0.94059 -0.415396,0 -0.715434,-0.29104 -0.715434,-0.94033 v -1.55336 z m 4.997979,1.29963 h -0.967581 v 0.29051 h 0.608541 v 0.79031 c -0.09869,0.0503 -0.282839,0.0873 -0.551391,0.0873 -0.728134,0 -1.168136,-0.4572 -1.168136,-1.10172 0,-0.6313 0.448204,-1.09088 1.204384,-1.09088 0.31406,0 0.5207,0.0571 0.687387,0.13335 l 0.0934,-0.29448 c -0.127,-0.0603 -0.410898,-0.14102 -0.767821,-0.14102 -1.041929,0 -1.598083,0.67548 -1.598083,1.4089 0,0.40111 0.147108,0.76015 0.390525,0.99219 0.288396,0.27596 0.661987,0.3937 1.127125,0.3937 0.425979,0 0.771789,-0.10583 0.941652,-0.16933 z m 1.987021,0.56568 0.324643,0.87365 h 0.392907 l -1.023409,-2.73896 h -0.442648 l -1.012825,2.73896 h 0.380471 l 0.310621,-0.87365 z m -0.991923,-0.28469 0.307446,-0.8263 c 0.05662,-0.16139 0.09922,-0.30639 0.141023,-0.45032 h 0.0077 c 0.04233,0.14102 0.08387,0.28363 0.148167,0.45747 l 0.306917,0.81915 z"
         inkscape:connector-curvature="0"
         style="fill:#000000;fill-rule:evenodd;stroke-width:0.26458332" />
      <path
         transform="matrix(0.26458333,0,0,0.26458333,69.624008,352.30286)"
         style="fill:#000000;fill-rule:evenodd"
         inkscape:connector-curvature="0"
         d="M 0.294,10.444 H 6.5 V 9.277 H 1.663 V 0.092 h -1.37 z"
         mask="none"
         id="path991" />
      <path
         transform="matrix(0.26458333,0,0,0.26458333,32.977629,350.36532)"
         id="path998"
         mask="none"
         d="m 58.4,17.767 h 1.94 V 7.414 H 58.4 Z m -4.434,-3 1.046,3 h 2.13 L 53.445,7.415 h -2.521 l -3.588,10.352 h 2.035 l 0.972,-3 h 3.622 z m -3.28,-1.477 0.898,-2.621 c 0.197,-0.602 0.355,-1.23 0.511,-1.8 h 0.031 c 0.168,0.563 0.346,1.182 0.564,1.811 l 0.925,2.61 h -2.93 z M 64.357,9.026 c 0.23,-0.039 0.638,-0.085 1.261,-0.085 1.034,0 2.265,0.285 2.265,1.645 0,1.025 -0.832,1.662 -2.171,1.662 h -1.355 z m 0,4.81 h 1.227 c 1.13,0.05 1.613,0.509 1.916,1.817 0.264,1.143 0.44,1.762 0.563,2.114 h 1.99 c -0.185,-0.446 -0.406,-1.322 -0.702,-2.488 l -0.056,-0.224 c -0.229,-0.887 -0.634,-1.546 -1.186,-1.937 0.881,-0.447 1.675,-1.323 1.675,-2.68 0,-0.866 -0.336,-1.651 -0.916,-2.153 -0.73,-0.663 -1.759,-0.958 -3.336,-0.958 -0.989,0 -2.08,0.089 -2.849,0.232 l -0.219,0.042 v 10.166 h 1.893 v -3.93 z"
         inkscape:connector-curvature="0"
         style="fill:#000000;fill-rule:evenodd" />
    </g>
  </g>
</svg>
