<?xml version="1.0" encoding="UTF-8" standalone="no"?>
<svg
   xmlns:dc="http://purl.org/dc/elements/1.1/"
   xmlns:cc="http://creativecommons.org/ns#"
   xmlns:rdf="http://www.w3.org/1999/02/22-rdf-syntax-ns#"
   xmlns:svg="http://www.w3.org/2000/svg"
   xmlns="http://www.w3.org/2000/svg"
   xmlns:sodipodi="http://sodipodi.sourceforge.net/DTD/sodipodi-0.dtd"
   xmlns:inkscape="http://www.inkscape.org/namespaces/inkscape"
   inkscape:version="1.0beta2 (2b71d25, 2019-12-03)"
   sodipodi:docname="visa_.svg"
   width="500"
   height="162.81593"
   viewBox="0 0 500.00001 162.81594"
   id="svg10306"
   version="1.1">
  <sodipodi:namedview
     inkscape:current-layer="svg10306"
     inkscape:window-maximized="0"
     inkscape:window-y="23"
     inkscape:window-x="0"
     inkscape:cy="87.25558"
     inkscape:cx="265.98995"
     inkscape:zoom="1.5283302"
     showgrid="false"
     id="namedview846"
     inkscape:window-height="697"
     inkscape:window-width="1164"
     inkscape:pageshadow="2"
     inkscape:pageopacity="0"
     guidetolerance="10"
     gridtolerance="10"
     objecttolerance="10"
     borderopacity="1"
     inkscape:document-rotation="0"
     bordercolor="#666666"
     pagecolor="#ffffff" />
  <defs
     id="defs10308">
    <clipPath
       clipPathUnits="userSpaceOnUse"
       id="clipPath10271">
      <path
         d="m 413.742,90.435 c -0.057,-4.494 4.005,-7.002 7.065,-8.493 3.144,-1.53 4.2,-2.511 4.188,-3.879 -0.024,-2.094 -2.508,-3.018 -4.833,-3.054 -4.056,-0.063 -6.414,1.095 -8.289,1.971 l -1.461,-6.837 c 1.881,-0.867 5.364,-1.623 8.976,-1.656 8.478,0 14.025,4.185 14.055,10.674 0.033,8.235 -11.391,8.691 -11.313,12.372 0.027,1.116 1.092,2.307 3.426,2.61 1.155,0.153 4.344,0.27 7.959,-1.395 l 1.419,6.615 c -1.944,0.708 -4.443,1.386 -7.554,1.386 -7.98,0 -13.593,-4.242 -13.638,-10.314 m 34.827,9.744 c -1.548,0 -2.853,-0.903 -3.435,-2.289 l -12.111,-28.917 8.472,0 1.686,4.659 10.353,0 0.978,-4.659 7.467,0 -6.516,31.206 -6.894,0 m 1.185,-8.43 2.445,-11.718 -6.696,0 4.251,11.718 m -46.284,8.43 -6.678,-31.206 8.073,0 6.675,31.206 -8.07,0 m -11.943,0 -8.403,-21.24 -3.399,18.06 c -0.399,2.016 -1.974,3.18 -3.723,3.18 l -13.737,0 -0.192,-0.906 c 2.82,-0.612 6.024,-1.599 7.965,-2.655 1.188,-0.645 1.527,-1.209 1.917,-2.742 l 6.438,-24.903 8.532,0 13.08,31.206 -8.478,0"
         id="path10273" />
    </clipPath>
    <linearGradient
       x1="0"
       y1="0"
       x2="1"
       y2="0"
       gradientUnits="userSpaceOnUse"
       gradientTransform="matrix(419.70804,-154.56912,154.56912,419.70804,46.111412,156.88209)"
       spreadMethod="pad"
       id="linearGradient10277">
      <stop
         style="stop-opacity:1;stop-color:#222357"
         offset="0"
         id="stop10279" />
      <stop
         style="stop-opacity:1;stop-color:#254aa5"
         offset="1"
         id="stop10281" />
    </linearGradient>
  </defs>
  <metadata
     id="metadata10311">
    <rdf:RDF>
      <cc:Work
         rdf:about="">
        <dc:format>image/svg+xml</dc:format>
        <dc:type
           rdf:resource="http://purl.org/dc/dcmitype/StillImage" />
        <dc:title />
      </cc:Work>
    </rdf:RDF>
  </metadata>
  <g
     id="layer1"
     transform="translate(-333.70157,-536.42431)">
    <g
       transform="matrix(4.9846856,0,0,-4.9846856,-1470.1185,1039.6264)"
       clip-path="url(#clipPath10271)"
       id="g10269">
      <g
         transform="translate(351.611,96.896)"
         id="g10275">
        <path
           d="M 439.52734,-160.49805 -51.150391,20.205078 60.482422,323.32031 366.31055,210.68945 c 0.18441,-0.51258 0.35535,-1.02751 0.54687,-1.53906 -2.99385,-0.14783 -5.81865,-0.98749 -7.95117,-2.78516 -2.93556,-2.47461 -1.35321,-6.04748 2.59766,-10.18359 -0.62758,-0.51898 -1.21091,-1.09168 -1.72657,-1.74609 -1.72691,-2.19162 2.11624,-5.17228 3.40235,-7.64844 0.95818,-1.84481 1.93765,-3.67857 2.92578,-5.50781 0.45224,-2.70032 1.11734,-6.445 1.20312,-6.93555 0.32312,-1.84791 0.5764,-3.70839 0.95899,-5.54492 0.043,-0.20648 0.11383,-0.40555 0.1875,-0.60352 -0.26968,-0.0432 -0.53985,-0.0902 -0.8086,-0.125 -0.0439,-0.006 -0.95871,-0.75599 -0.9746,-0.88867 -0.15109,-1.25993 -0.27589,-2.52302 -0.40626,-3.78516 -0.74431,1.12478 -1.48611,2.25108 -2.23828,3.3711 -4.89274,6.78979 -9.6665,13.66631 -14.67773,20.36914 -2.06903,2.76746 -4.273,5.43632 -6.55469,8.03125 -1.19503,1.3591 -2.05577,3.93978 -3.86133,3.81641 -1.48936,-0.1018 -2.96671,-0.34517 -4.42773,-0.6836 -1.27997,1.95182 -2.47156,2.86466 -4.35352,2.10156 -2.20711,-0.3965 -5.32749,-3.14037 -11.44922,-10.24218 -1.54975,-1.79789 2.41399,-4.08706 3.6211,-6.13086 0.2165,-0.40809 0.43538,-0.81481 0.65234,-1.22266 -0.72914,1.16286 -1.34175,2.77219 -2.58203,2.66211 -15.32238,-1.35992 -13.71914,-1.14783 -13.98828,-9.76953 0.48299,-1.33323 0.80686,-2.73387 1.44922,-3.99805 0.9863,-1.94109 2.08165,-3.82383 3.19336,-5.69726 -0.56182,0.0854 -1.14107,0.18989 -1.72656,0.29101 -2.05347,1.64238 -4.41636,3.03308 -5.92969,3.7832 -2.30461,1.14237 -4.79573,1.86352 -7.19336,2.79493 -4.00819,1.25238 -7.99098,2.58398 -12.02344,3.75586 -4.48095,1.30221 -20.1099,5.31772 -24.76172,6.75 -3.02098,0.93016 -5.94307,2.15751 -8.94531,3.14648 -0.59279,0.19527 -1.18448,0.44258 -1.7793,0.66211 -1.77007,2.18322 -4.14763,5.10959 -7.92578,9.82031 -1.99128,1.21957 -3.82056,2.75677 -5.97461,3.65821 -2.0148,0.84315 -4.21997,1.15455 -6.375,1.50976 -0.3849,0.0634 0.0273,-1.6852 -1.0332,-0.55078 -1.23163,0.5896 -2.32792,2.05806 -3.49609,2.74609 -0.53703,0.54001 -1.12464,0.59797 -1.72852,0.2793 -0.002,-7e-4 -0.004,-9e-4 -0.006,-0.002 -5.25785,-1.85562 -9.09211,-6.45408 -13.63867,-9.68164 0.63052,-2.34632 0.93325,-4.80608 1.89062,-7.03907 4.46456,-10.41314 16.06892,-29.93245 20.90235,-37.89453 3.59022,-5.91415 7.24221,-11.79142 10.94726,-17.63476 -0.25166,-0.14672 -0.4274,-0.24756 -0.68945,-0.40039 -1.76674,-1.03042 -0.68976,-4.03654 -0.90625,-6.07032 -1.07563,-10.10475 -0.29931,-20.26701 0.3125,-30.363277 3.17006,-16.974308 3.99825,-24.076753 8.64258,-39.951172 1.71355,-5.856965 3.71049,-11.629405 5.75586,-17.378906 3.41125,-9.588956 7.33236,-18.992208 11.28711,-28.3691406 v -0.00195 c 0.0768,-0.7691298 0.10094,-1.6345752 0.69726,-1.6542968 0.28816,-0.6825789 0.5752,-1.3663834 0.86328,-2.0488282 -0.31318,0.9221753 -0.54108,1.5727392 -0.67382,2.046875 0.69778,0.01597 1.39406,0.042452 2.09179,0.082031 9.61501,-23.5947485 15.49288,-38.1188505 29.20313,-64.8984375 2.43301,-4.752286 3.20789,-12.028297 8.27344,-13.714844 25.28142,-8.417388 15.52494,14.828964 12.25,23.291016 -1.67977,5.623408 -0.0347,-7.022471 -0.39844,-5.291016 -1.22446,5.829051 -0.93218,11.950986 -2.53516,17.6875 -0.79671,2.851133 -1.71422,5.663909 -2.69336,8.457031 0.20748,0.01293 0.40494,0.01259 0.60352,0.01367 0.18105,-0.268981 0.36644,-0.534681 0.57031,-0.789062 0.20843,-0.26007 0.38912,0.01611 0.5625,0.427734 -4.3e-4,-0.01103 0.002,-0.0242 0.002,-0.03516 -0.036,-0.725702 -0.62404,-2.032386 0.0879,-2.177734 0.49303,-0.100659 0.98859,-0.178638 1.48438,-0.259766 0.35864,-2.480233 2.22366,-4.92563 4.85351,-7.353516 0.4353,-1.566318 0.83487,-3.140275 1.11524,-4.740234 0.68254,-3.895048 -1.7291,-8.011062 0.14062,-11.861328 0.26861,-0.714101 0.40667,-1.085834 0.58985,-1.576172 0.40048,-8.119082 1.65229,-15.138121 7.28125,-16.380859 4.48762,-0.990759 9.28133,1.742155 12.89844,5.199218 0.99213,0.718857 1.81763,1.59606 2.42578,2.646485 0.11372,0.140543 0.24647,0.279579 0.35546,0.419922 0.33562,0.432086 0.43794,0.891992 0.38868,1.367187 0.81574,3.478398 -1.7823,6.896067 -5.73633,10.294922 -0.2532,0.576132 -0.50969,1.150478 -0.75391,1.730469 -0.3353,0.796287 -0.58824,1.625265 -0.88281,2.4375 0.26211,0.0654 0.73616,-0.07035 0.78516,0.195312 0.37846,2.053079 0.27836,4.479048 -0.0547,6.958985 5.27767,-10.507235 10.57562,-21.003564 15.95117,-31.460938 1.05037,-2.043332 1.1259,-6.503352 3.08008,-6.523437 0.13028,-0.0013 0.27016,0.01648 0.41797,0.05664 1.09761,0.298217 2.09894,0.588059 3.05078,0.875 0.6687,0.117016 1.41931,0.354293 2.27344,0.730469 5.74099,1.925574 8.34258,3.674888 9.09179,5.689453 0.11267,0.16077 0.22127,0.329531 0.32227,0.507813 0.27266,0.211926 0.51241,0.388536 0.79492,0.611328 0.61835,0.487634 0.54017,1.114726 0.13867,1.808593 0.64885,2.505081 0.77344,5.710238 0.70508,8.933594 0.37701,-0.07123 0.59622,0.11141 0.57031,0.728516 -0.0388,0.924294 -0.29775,1.765866 -0.70117,2.552734 -0.0447,0.871674 -0.0871,1.7621 -0.13672,2.583985 -0.15909,2.636805 -2.65837,4.565248 -3.98828,6.847656 -1.37217,2.155407 -2.15516,3.564626 -2.85351,4.304687 -0.0305,1.904738 -1.98167,4.361731 -2.8125,6.25586 -0.82419,1.878972 -2.3198,3.384968 -3.48438,5.074218 -2.09399,3.037376 -1.84313,2.789931 -2.82812,3.923829 -2.25464,5.585282 -4.33844,10.354244 -6.47266,14.990234 1.53417,0.347458 3.03627,0.819792 4.51562,1.3789062 2.92716,-5.5320662 5.8827,-11.0500102 8.89258,-16.5390622 1.1014,-2.08606 2.20318,-4.171807 3.30469,-6.257813 0.71038,-2.437762 1.38158,-4.888129 2.02148,-7.345703 0.88448,-1.456514 0.97266,-4.6445 2.6543,-4.369141 5.51231,0.90262 10.44325,4.184263 15.0957,7.275391 0.71083,0.472281 -0.20522,1.695659 -0.32226,2.541016 -0.061,0.440904 -0.0867,0.891507 -0.21289,1.318359 -1.08605,3.674206 -1.80789,5.396031 -2.87305,7.457031 -3.3316,11.030739 -7.47095,21.7874956 -13.31836,31.7890629 -0.43411,0.7425237 -0.97981,1.4090728 -1.53711,2.0683593 -0.10138,2.9033838 -0.86029,5.8964618 -1.32031,8.0917968 -0.18553,0.912512 -0.3235,1.83676 -0.55664,2.738281 -3.46113,13.383307 -7.53605,26.595385 -11.63281,39.798829 1.05055,-2.113996 2.10283,-4.226464 3.16211,-6.335938 5.0524,-10.061479 10.26618,-20.042709 15.60156,-29.957031 7.11733,-13.2255712 9.53986,-16.9500653 16.0918,-27.9121096 1.36894,-2.2903714 2.72614,-4.5873644 4.08984,-6.8808594 8.93809,-15.032233 24.95082,-8.205096 16.23828,6.9589844 -1.68974,2.9409763 -3.35039,5.89768522 -5.06836,8.8222656 -7.70347,13.114036 -6.57129,10.225364 -15.9707,27.705078 -10.33121,19.21255 -21.78728,41.862253 -30.9043,61.583984 -0.21095,0.45634 -0.41009,0.917806 -0.61914,1.375 2.60444,1.046002 4.8023,1.861026 6.54492,2.589844 2.30341,-4.390836 4.63566,-8.805409 7.04492,-13.289062 7.21051,-13.418779 14.60365,-26.743942 22.26563,-39.910156 1.16934,-2.009376 2.37411,-3.997962 3.59766,-5.97461 0.84263,-1.848858 1.68912,-3.697089 2.55273,-5.537109 3.03954,-6.476103 6.42603,-12.783785 9.63867,-19.175781 3.44821,-5.8233586 5.13567,-9.567366 9.23828,-14.2812505 0.27663,-0.3178405 3.19868,-2.947059 3.98242,-4.0195313 0.0338,-0.046174 -0.10746,-0.099143 -0.082,-0.1503906 0.21214,-0.4283446 0.50466,-0.809393 0.75782,-1.2148437 5.20645,-7.1643879 4.82849,-3.6050989 16.74804,6.51171872 0.51138,0.43404133 -0.47716,1.25276609 -0.73242,1.87304688 -0.15083,0.3665347 -0.20056,0.4786338 -0.32617,0.7832031 4.79785,-2.38994406 9.59468,-4.7806232 14.41797,-7.1191406 2.41957,0.030655 4.9972,-0.4994819 7.50781,-0.7949219 0.0603,-0.1329747 0.084,-0.1868998 0.14453,-0.3203125 -36.85237,7.592987 -3.02292,-25.7505926 18.54102,-37.2578126 z M 321.89648,-36.353516 c -0.3102,1.116202 -0.62829,2.231071 -0.95312,3.34375 0.26219,-0.193756 0.66138,-0.208543 1.14844,-0.109375 0.35897,-1.270688 0.62595,-2.66536 0.82031,-4.15625 -0.35575,0.306348 -0.68317,0.614948 -1.01563,0.921875 z m 0.19532,3.234375 c -0.34961,1.237553 -0.78094,2.364648 -1.3418,3.320313 0.01,0.110181 0.0192,0.227185 0.0293,0.335937 2.54214,-0.224039 5.10532,-0.30921 7.66406,-0.416015 -2.37669,-1.417551 -4.82514,-2.929442 -6.35156,-3.240235 z m -1.3418,3.320313 c -0.0579,-0.642428 -0.11758,-1.267111 -0.16797,-1.958984 -0.0879,0.309375 -0.18271,0.617748 -0.26758,0.927734 -0.13147,0.480256 -0.26207,0.960833 -0.39257,1.441406 0.20268,-0.02072 0.40639,-0.03406 0.60937,-0.05273 0.0752,-0.11634 0.14741,-0.235864 0.21875,-0.357422 z m -0.82812,0.410156 c -0.96425,0.09855 -1.9229,0.232235 -2.87891,0.388672 -0.0693,0.479105 -0.0808,0.959712 -0.0332,1.441406 0.003,-0.0084 0.005,-0.01703 0.008,-0.02539 0.24027,0.230629 0.50125,0.457255 0.77734,0.677734 0.68978,-0.346427 1.2951,-0.806798 1.82422,-1.367188 0.10071,-0.371825 0.20175,-0.743494 0.30274,-1.115234 z m 41.94531,0.244141 c 0.0145,-0.02793 -0.008,-0.01915 -0.082,0.04102 -0.11234,0.09105 -0.30081,0.275655 -0.47657,0.445313 -0.17303,0.190596 -0.33943,0.387147 -0.50976,0.580078 -0.0223,0.05598 -0.0461,0.119974 -0.0684,0.175781 0.47888,-0.493229 1.08008,-1.133408 1.13672,-1.242187 z m -29.18164,1.507812 c -0.007,0.06975 -0.0148,0.139224 -0.0215,0.208985 0.17193,-0.02248 0.3437,-0.04589 0.51563,-0.06836 0.0858,-0.01122 -0.17406,-0.01664 -0.25586,-0.04492 -0.0747,-0.02583 -0.16072,-0.06618 -0.23828,-0.0957 z m -106.41407,6.851563 c 0.0683,0.0084 0.14032,0.02733 0.21485,0.05469 4.39888,1.6146 8.48511,4.065562 12.29687,6.841797 0.36703,-0.381705 0.74884,-0.49812 1.15235,-0.148437 1.39013,1.204691 2.60166,2.578494 3.73047,4.029297 3.26944,-3.832899 4.52254,-1.807066 15.89843,7.7460932 0.16576,0.1391972 -2.6658,5.8208574 -2.7539,5.9960938 -0.45122,0.8324149 -0.92839,1.6520121 -1.35352,2.4980469 -4.6217,9.1975431 -8.78622,18.7033401 -12.71875,28.2285161 -0.62914,6.047822 -1.38374,12.082142 -2.6875,18.03125 -0.18271,0.793862 -0.40952,1.580193 -0.54883,2.382812 -0.34006,1.959261 -0.42264,3.351154 -0.66015,5.220703 -0.055,0.432941 -0.1737,0.858719 -0.1875,1.294922 -0.0249,0.787549 0.0961,1.575698 0.0723,2.363281 -0.0274,0.90546 -0.15136,1.804284 -0.22656,2.707032 -0.23326,1.269975 -0.54569,2.526784 -0.75586,3.800781 -0.6768,4.102445 -0.76938,8.305006 -1.85547,12.345703 -0.2983,1.77269 -0.51676,3.560888 -0.89453,5.318359 -2.15263,10.014592 -4.65203,18.099619 -7.91992,28.248049 -1.07941,3.3521 -2.18957,6.69522 -3.31836,10.03125 4.66667,0.58267 9.18617,2.45 13.80078,3.48633 -0.3422,2.09218 -0.32256,4.27794 -1.02734,6.27734 -0.66116,1.87567 -3.52014,5.81351 -5.82813,8.83984 -0.10543,0.30538 -0.21839,0.60537 -0.32422,0.91211 -1.61499,4.4101 -3.78091,9.31063 -6.66797,13.07227 -0.0628,1.93537 -0.80632,2.47844 -1.94531,2.20508 -0.23898,0.26024 -0.50107,0.54876 -0.69726,0.76172 -1.40389,0.43324 -4.07523,1.62087 -6.82422,2.28125 -0.006,0.002 -0.0115,0.006 -0.0176,0.008 -1.18488,1.29461 -2.3672,2.59165 -3.55664,3.88281 -0.0391,0.64639 -0.45735,1.45217 -0.99805,2.04688 -0.0213,0.0693 -0.0389,0.13973 -0.0605,0.20898 -0.22448,0.71975 -0.0282,2.29474 -0.76368,2.12891 -0.0409,-0.009 -0.0745,-0.0162 -0.11523,-0.0254 -0.44644,0.73611 -1.15008,0.54756 -2.58203,-0.16797 -0.58551,2.54215 2.66885,5.8076 -2.91406,7.19336 -4.99208,1.2391 -10.5706,0.31196 -15.34961,-1.58985 -2.16699,-0.86235 -2.01136,-4.07148 -1.70899,-7.20312 -2.14061,-0.47074 -4.28816,-0.93004 -6.18555,-1.7793 -0.30124,1.25454 -0.53224,2.21408 -1.03711,4.32031 -4.07626,17.0071 -20.90869,17.18553 -17.66601,0 0.60715,-3.21776 1.01917,-6.4778 1.82227,-9.65234 2.03417,-8.04135 4.4556,-15.98088 6.68359,-23.9707 2.78466,-9.77374 5.85706,-19.46902 8.35351,-29.32032 6.19224,-24.435248 9.73296,-42.255242 13.61914,-66.753902 0.80536,-5.076673 1.26429,-10.201617 1.89649,-15.302735 2.58023,-11.289283 4.0573,-23.3407053 9.82422,-33.6367186 0.98292,-1.7548765 2.10891,-3.4488211 3.4375,-4.9589844 0.43531,-0.494811 1.06636,-1.048753 1.70312,-1.576172 0.51229,-1.078269 1.54103,-2.085714 3.32422,-3.345703 2.28643,0.927561 4.86061,1.427406 7.2793,2.158203 -0.16019,-0.729741 -0.31198,-1.461676 -0.44531,-2.197266 -0.0743,-0.40999 0.79107,0.273409 1.16015,0.466797 0.45603,0.238955 1.17813,0.325168 1.30469,0.824219 0.1664,0.65614 0.34327,1.231962 0.51758,1.81836 0.24098,0.105975 0.47788,0.218168 0.71094,0.335937 0.27465,-0.715457 0.35616,-0.926536 0.69921,-1.818359 0.22741,0.173362 0.41179,0.184224 0.56641,0.07422 0.2198,-1.136268 -0.15237,0.346295 0.35352,-1.001953 0.12652,-0.337208 0.0316,-1.096173 0.33789,-1.064453 0.35082,-2.136757 0.57756,-5.082829 1.83593,-4.927734 z m -4.5039,8.402344 c -0.81062,-0.356481 -1.66417,-0.648355 -2.53711,-0.91211 0.43067,1.961897 0.9451,3.9046343 1.48047,5.8437501 0.37723,-0.9756887 0.91894,-2.3874282 1.42383,-3.7031251 -0.12439,-0.388397 -0.24204,-0.807468 -0.36719,-1.228515 z m -7.54297,176.431642 c 9.5e-4,-0.001 8e-4,-0.003 0.002,-0.004 -0.42356,0.10143 -0.84469,0.18479 -1.26758,0.25586 0.31619,0.009 0.62235,-0.0236 0.90821,-0.11719 0.1228,-0.0402 0.23612,-0.0924 0.35742,-0.13476 z m 0.002,-0.004 c 0.005,-10e-4 0.0104,-0.003 0.0156,-0.004 2.44215,-0.85473 4.55903,-2.13213 6.13476,-3.64063 -0.54669,-0.31559 -1.13845,-0.72156 -1.76367,-1.19922 -1.45377,1.62225 -2.91579,3.23659 -4.38672,4.84375 z M 491.88867,-18.316406 c -0.65178,1.152613 -1.31953,2.300752 -2.01172,3.441406 -4.41052,10.1988894 -10.01402,20.9719683 -15.00195,30.085938 0.564,4.334082 1.03994,9.155276 1.28125,10.3125 0.64367,3.08674 5.95887,14.323454 6.12109,14.6875 1.58735,3.562201 3.17568,7.123635 4.76368,10.685546 1.10721,5.465914 2.65579,10.859523 3.32226,16.396485 0.0313,0.260109 0.0578,0.6028 0.0879,0.890625 0.23555,0.412914 0.44554,0.839802 0.59766,1.300781 0.47355,1.435065 0.35301,2.743642 -0.22266,3.955078 0.2255,5.182215 0.12737,11.53388 -0.83398,16.197266 0.94718,2.494051 1.94717,5.101389 2.94336,7.695312 0.42096,-0.112846 0.85808,-0.187811 1.33398,-0.175781 4.21301,0.106498 6.82581,4.05958 9.48047,7.9082 1.84559,0.62385 3.33161,1.62807 4.06836,3.42774 0.97229,2.37506 -0.84569,4.28516 -3.22266,6.125 -1.05003,1.64402 -2.04461,3.21188 -3.07422,4.82422 0.30931,0.78486 0.61623,1.57068 0.92579,2.35547 0.85663,1.25918 1.69887,2.51735 2.45898,3.78515 8.56541,1.13942 9.8696,8.64996 7.77148,15.0293 0.40896,0.39035 0.70176,0.88207 0.88086,1.47851 3.61196,1.23559 2.80179,2.24904 0.55274,5.8418 -2.79179,3.78224 -5.74098,7.44981 -8.47852,11.27148 -0.0556,0.0776 -0.10697,0.15836 -0.16211,0.23633 l 45.6836,-16.82422 z m -281.17383,4.572265 c 0.0582,-0.04688 -0.14227,0.09192 -0.73828,0.496094 0.004,0.01706 0.01,0.03372 0.0137,0.05078 0.36547,-0.277962 0.67268,-0.505069 0.72461,-0.546875 z M 441.61523,2.3417969 c 0.0571,-0.066756 -0.1247,0.1241067 -0.1875,0.1855469 -0.0205,0.032798 -0.042,0.066731 -0.0625,0.099609 0.0865,-0.099671 0.15734,-0.1767638 0.25,-0.2851562 z M 243.83789,124.00586 c -10e-4,0.002 -0.003,0.002 -0.004,0.004 0.001,-0.003 -0.004,0.0285 -0.002,0.0215 0.002,-0.008 0.004,-0.0169 0.006,-0.0254 z m -0.62891,1.16992 c 0.004,-0.013 -0.0472,0.0307 -0.0742,0.0156 -0.0693,0.12335 -0.098,0.16473 -0.17774,0.30664 0.19004,-0.23936 0.24839,-0.3096 0.25195,-0.32227 z m -76.52343,32.75781 c -0.32207,0.55262 -0.60359,1.26798 -0.33399,1.55469 0.10406,-0.52002 0.22166,-1.03683 0.33399,-1.55469 z m 138.16601,2.2793 c 1.03518,0.79837 2.48782,1.87365 4.02344,3.00195 1.13293,-0.67102 2.77718,-1.36389 2.75586,-1.98437 -2.0559,-0.36942 -4.52009,-0.64489 -6.7793,-1.01758 z m 29.3125,1.41211 c -1.94578,3.29227 -3.89658,6.58143 -5.83984,9.875 -0.2727,0.46219 -0.53895,0.9285 -0.8086,1.39258 -0.16202,0.64369 -0.33104,1.28407 -0.51757,1.91797 -0.33287,0.83697 -0.51482,1.31027 -0.67969,1.73437 2.1813,-4.07951 4.3588,-8.16209 6.48633,-12.26953 0.46501,-0.89775 0.89805,-1.75694 1.35937,-2.65039 z m -66.64258,0.99609 c -0.22739,0.11925 -0.45637,0.23568 -0.67773,0.36524 -0.20229,0.11839 0.41636,-0.218 0.63086,-0.3125 0.0301,-0.0133 0.0598,-0.0276 0.0898,-0.041 -0.0145,-0.003 -0.0285,-0.008 -0.043,-0.0117 z m 44.46485,0.24414 c -0.90486,0.21635 -1.80952,0.4334 -2.7168,0.64063 0.57048,0.41913 1.105,0.81322 1.74219,1.2832 0.20998,-0.2105 0.39126,-0.42511 0.58203,-0.63867 0.12916,-0.43996 0.26201,-0.86969 0.39258,-1.28516 z m -0.97461,1.92383 c -0.40723,0.40824 -0.8403,0.80421 -1.30469,1.19141 0.40416,-0.003 0.8418,0.004 1.3457,0.0195 0.0107,-0.0181 0.0206,-0.0366 0.0312,-0.0547 0.0467,-0.17062 0.0408,-0.15466 0.0937,-0.34765 0.0552,-0.20007 0.10772,-0.37359 0.16211,-0.56641 -0.10386,-0.0764 -0.20802,-0.1536 -0.32812,-0.24219 z m -7.64258,-0.71484 c -0.11467,0.0263 -0.2242,0.0535 -0.33789,0.0801 0.13767,0.006 0.28051,0.003 0.42187,0.002 -0.0281,-0.0273 -0.056,-0.0546 -0.084,-0.082 z m 0.6875,0.63867 c -0.12737,0.0307 -0.25551,0.0588 -0.38281,0.0898 1.77183,1.4375 1.81864,1.57223 2.64648,1.44727 -0.17759,-0.0652 -0.35325,-0.13908 -0.51953,-0.24023 -0.62067,-0.37758 -1.19605,-0.81977 -1.74414,-1.29688 z m 66.07617,3.7793 c 0.27856,0.23916 0.55551,0.4771 0.85157,0.74219 0.0702,-0.16591 0.1542,-0.358 0.23046,-0.53907 -0.36087,-0.0705 -0.72166,-0.13304 -1.08203,-0.20312 z m -124.01758,19.75195 c -0.23188,0.34657 -0.48698,0.67278 -0.76757,0.97656 -0.0111,0.016 -0.0221,0.0275 -0.0332,0.043 0.13869,-0.13271 0.53408,-0.51805 0.80078,-1.01953 z m 94.60547,3.96094 c -0.0289,0.22999 -0.0622,0.46042 -0.082,0.6914 -0.0187,0.21778 0.34002,-0.50973 0.16211,-0.63671 -0.0263,-0.0188 -0.0537,-0.036 -0.0801,-0.0547 z m -3.33984,3.21875 c -0.10037,0.0825 -0.18442,0.16379 -0.28125,0.24609 0.0267,0.0123 0.0534,0.0248 0.0801,0.0371 0.10478,0.0484 0.29037,-0.3565 0.20117,-0.2832 z"
           transform="matrix(0.20061446,0,0,-0.20061446,10.261386,4.0536146)"
           style="fill:url(#linearGradient10277);fill-opacity:1;fill-rule:nonzero;stroke:none;stroke-width:4.98469"
           clip-path="none"
           id="path10283" />
      </g>
    </g>
  </g>
</svg>
