<?xml version="1.0" encoding="UTF-8" ?>
<!DOCTYPE svg PUBLIC "-//W3C//DTD SVG 1.1//EN" "http://www.w3.org/Graphics/SVG/1.1/DTD/svg11.dtd">
<svg width="1000pt" height="423pt" viewBox="0 0 1000 423" version="1.1" xmlns="http://www.w3.org/2000/svg">
<g id="color_fdfdfdff">
</g>
<g id="color_757575ff">
<path fill="#757575" opacity="1.00" d=" M 742.86 170.89 C 753.78 161.29 768.65 157.12 783.00 157.47 C 797.06 157.49 811.40 160.37 823.72 167.34 C 829.39 170.42 833.64 176.39 833.50 183.01 C 833.50 216.02 833.49 249.04 833.51 282.06 C 833.30 297.00 828.51 312.85 816.83 322.84 C 805.10 332.94 789.03 335.90 773.97 335.70 C 762.39 335.21 750.72 332.29 740.75 326.26 C 737.15 323.95 733.75 321.07 731.66 317.29 C 727.84 310.24 732.28 300.18 740.14 298.41 C 745.92 297.51 751.34 300.34 756.54 302.45 C 763.60 305.56 771.30 307.32 779.04 307.04 C 785.64 307.03 792.72 305.38 797.51 300.56 C 801.96 295.93 803.32 289.25 803.27 283.03 C 803.25 277.27 803.22 271.52 803.26 265.76 C 794.22 273.71 781.53 275.62 769.89 274.87 C 757.70 274.12 745.74 268.68 737.76 259.32 C 726.53 246.45 723.21 228.54 724.12 211.92 C 724.90 196.57 731.00 181.02 742.86 170.89 M 776.54 184.81 C 771.65 185.65 766.89 187.81 763.44 191.43 C 757.13 198.27 755.70 208.04 755.71 216.99 C 755.84 225.04 756.47 233.79 761.46 240.47 C 766.19 246.62 774.59 248.02 781.89 247.45 C 788.87 247.11 795.76 243.31 798.97 236.95 C 804.97 225.57 802.84 212.31 803.26 199.97 C 803.04 196.30 804.36 191.56 800.69 189.18 C 793.85 184.14 784.67 183.60 776.54 184.81 Z" />
</g>
<g id="color_fbe666ff">
<path fill="#fbe666" opacity="1.00" d=" M 855.45 98.75 C 860.51 97.15 866.09 97.15 871.15 98.77 C 877.44 100.79 882.42 106.42 883.52 112.95 C 884.21 118.56 883.96 124.76 880.52 129.51 C 873.82 138.89 859.27 140.17 850.13 133.78 C 838.38 125.03 840.79 103.05 855.45 98.75 Z" />
</g>
</svg>