<?xml version="1.0" encoding="UTF-8" standalone="no"?>
<svg
        xmlns:dc="http://purl.org/dc/elements/1.1/"
        xmlns:cc="http://creativecommons.org/ns#"
        xmlns:rdf="http://www.w3.org/1999/02/22-rdf-syntax-ns#"
        xmlns:svg="http://www.w3.org/2000/svg"
        xmlns="http://www.w3.org/2000/svg"
        xmlns:sodipodi="http://sodipodi.sourceforge.net/DTD/sodipodi-0.dtd"
        xmlns:inkscape="http://www.inkscape.org/namespaces/inkscape"
        inkscape:version="1.0beta2 (2b71d25, 2019-12-03)"
        sodipodi:docname="vueling.svg"
        id="svg29"
        version="1.1"
        viewBox="0 0 1000 423"
        height="423pt"
        width="1000pt">
    <metadata
            id="metadata35">
        <rdf:RDF>
            <cc:Work
                    rdf:about="">
                <dc:format>image/svg+xml</dc:format>
                <dc:type
                        rdf:resource="http://purl.org/dc/dcmitype/StillImage" />
            </cc:Work>
        </rdf:RDF>
    </metadata>
    <defs
            id="defs33" />
    <sodipodi:namedview
            inkscape:current-layer="svg29"
            inkscape:window-maximized="0"
            inkscape:window-y="23"
            inkscape:window-x="0"
            inkscape:cy="331.20278"
            inkscape:cx="791.43668"
            inkscape:zoom="0.65194801"
            showgrid="false"
            id="namedview31"
            inkscape:window-height="741"
            inkscape:window-width="1243"
            inkscape:pageshadow="2"
            inkscape:pageopacity="0"
            guidetolerance="10"
            gridtolerance="10"
            objecttolerance="10"
            borderopacity="1"
            inkscape:document-rotation="0"
            bordercolor="#666666"
            pagecolor="#ffffff" />
    <g
            id="color_fdfdfdff" />
    <g
            transform="matrix(1.2860902,0,0,1.2860902,-141.80707,-60.975551)"
            id="color_757575ff">
        <path
                inkscape:connector-curvature="0"
                id="path21"
                d="m 117.43,166.62 c 3.39,-6.57 11.75,-9.13 18.66,-7.72 5.49,1.02 9.4,5.89 10.77,11.08 6.32,21.33 12.66,42.65 18.94,64 0.34,1.25 0.93,2.43 1.61,3.53 6.62,-21.85 13.04,-43.76 19.52,-65.66 1.22,-4.69 3.48,-9.62 8.08,-11.82 7.39,-3.37 17.56,-0.98 21.75,6.24 2.67,4.79 1.99,10.65 0.06,15.57 -8.99,25.03 -17.81,50.12 -26.77,75.16 -1.88,4.82 -3.68,9.95 -7.43,13.69 -3.88,3.69 -9.56,4.06 -14.64,4.1 -5.64,0.03 -11.92,-0.49 -16.25,-4.55 -3.97,-3.81 -6.05,-9.08 -7.93,-14.13 -8.89,-25.12 -17.71,-50.26 -26.64,-75.35 -1.66,-4.52 -2.06,-9.78 0.27,-14.14 z"
                opacity="1.00"
                fill="#757575" />
    </g>
    <g
            transform="matrix(1.2860902,0,0,1.2860902,-141.80707,-60.975551)"
            id="color_fbe666ff">
        <path
                inkscape:connector-curvature="0"
                id="path26"
                d="m 855.45,98.75 c 5.06,-1.6 10.64,-1.6 15.7,0.02 6.29,2.02 11.27,7.65 12.37,14.18 0.69,5.61 0.44,11.81 -3,16.56 -6.7,9.38 -21.25,10.66 -30.39,4.27 -11.75,-8.75 -9.34,-30.73 5.32,-35.03 z"
                opacity="1.00"
                fill="#fbe666" />
    </g>
</svg>
