<?xml version="1.0" encoding="UTF-8" standalone="no"?>
<svg
   xmlns:dc="http://purl.org/dc/elements/1.1/"
   xmlns:cc="http://creativecommons.org/ns#"
   xmlns:rdf="http://www.w3.org/1999/02/22-rdf-syntax-ns#"
   xmlns:svg="http://www.w3.org/2000/svg"
   xmlns="http://www.w3.org/2000/svg"
   xmlns:sodipodi="http://sodipodi.sourceforge.net/DTD/sodipodi-0.dtd"
   xmlns:inkscape="http://www.inkscape.org/namespaces/inkscape"
   inkscape:version="1.0beta2 (2b71d25, 2019-12-03)"
   sodipodi:docname="wizz-air-.svg"
   xml:space="preserve"
   enable-background="new 0 0 130 60"
   viewBox="0 0 130 60"
   y="0px"
   x="0px"
   id="Layer_1"
   version="1.1"><metadata
   id="metadata34"><rdf:RDF><cc:Work
       rdf:about=""><dc:format>image/svg+xml</dc:format><dc:type
         rdf:resource="http://purl.org/dc/dcmitype/StillImage" /></cc:Work></rdf:RDF></metadata><defs
   id="defs32"><pattern
     inkscape:collect="always"
     patternUnits="userSpaceOnUse"
     width="2"
     height="1"
     patternTransform="translate(0,0) scale(10,10)"
     id="Strips1_1"
     inkscape:stockid="Stripes 1:1"><rect
       style="fill:black;stroke:none"
       x="0"
       y="-0.5"
       width="1"
       height="2"
       id="rect1935" /></pattern></defs><sodipodi:namedview
   inkscape:current-layer="Layer_1"
   inkscape:window-maximized="0"
   inkscape:window-y="59"
   inkscape:window-x="31"
   inkscape:cy="28.267883"
   inkscape:cx="59.962054"
   inkscape:zoom="8.8414355"
   showgrid="false"
   id="namedview30"
   inkscape:window-height="705"
   inkscape:window-width="1357"
   inkscape:pageshadow="2"
   inkscape:pageopacity="0"
   guidetolerance="10"
   gridtolerance="10"
   objecttolerance="10"
   borderopacity="1"
   inkscape:document-rotation="0"
   bordercolor="#666666"
   pagecolor="#ffffff" />
<linearGradient
   y2="-1.327862e-10"
   x2="64.9993"
   y1="60"
   x1="64.9993"
   gradientUnits="userSpaceOnUse"
   id="SVGID_1_">
        <stop
   id="stop10"
   stop-color="#161998"
   offset="0" />
        <stop
   id="stop12"
   stop-color="#441e93"
   offset=".129" />
        <stop
   id="stop14"
   stop-color="#6e228f"
   offset=".266" />
        <stop
   id="stop16"
   stop-color="#90258c"
   offset=".407" />
        <stop
   id="stop18"
   stop-color="#ab2889"
   offset=".549" />
        <stop
   id="stop20"
   stop-color="#be2a87"
   offset=".694" />
        <stop
   id="stop22"
   stop-color="#c92b86"
   offset=".842" />
        <stop
   id="stop24"
   stop-color="#cd2b86"
   offset="1" />
</linearGradient>

<g
   id="g60"><path
     d="m 59.492188,6.5605469 c 0.0013,0.037805 -0.0012,0.075485 0,0.1132812 l 0.01367,-0.00781 c -0.0028,-0.037299 -0.01367,-0.065285 -0.01367,-0.1054687 z M 26.371094,7.1582031 c -0.708,0 -1.359266,0.3939219 -1.697266,1.0449219 L 14.646484,29.076172 13.65625,9.0527344 c 0,-1.046 -0.850531,-1.892578 -1.894531,-1.8925782 H 1.8984375 c -0.539,0 -1.03839068,0.2107969 -1.40039062,0.5917969 -0.35,0.384 -0.52918753,0.9175625 -0.4921875,1.4765625 L 4.4257812,51.689453 c 0.106,0.961 0.9186719,1.6875 1.8886719,1.6875 l 7.3300779,0.002 c 0.9,0 1.718578,-0.491062 2.142578,-1.289062 l 11.197266,-21.44336 1.378906,21.042969 c 0.111,0.961 0.920766,1.6875 1.884766,1.6875 l 7.277344,0.002 c 0.896,0 1.723484,-0.496828 2.146484,-1.298828 l 16.552734,-33.125 1.103516,-5.662109 -19.236328,37.699219 c -0.173,0.302998 -0.492516,0.498046 -0.853516,0.498046 l -6.552734,0.0332 c -0.234,0 -0.426266,-0.167188 -0.447266,-0.367188 L 28.431641,23.767578 14.21875,51 c -0.17,0.3 -0.497609,0.494141 -0.849609,0.494141 l -6.6464848,-0.0039 c -0.2279999,0 -0.4224062,-0.168765 -0.4414062,-0.384765 L 1.9472656,9.53125 c -0.01,-0.13 0.035281,-0.2577031 0.1132813,-0.3457031 0.081,-0.081 0.1959375,-0.125 0.3359375,-0.125 h 8.9335936 c 0.244,0 0.449219,0.1979847 0.449219,0.4589843 L 13.119141,36.642578 26.257812,9.2949219 c 0.071,-0.142 0.229485,-0.234375 0.396485,-0.234375 l 8.144531,-0.035156 c 0.225,0 0.425453,0.1691416 0.439453,0.3691406 L 36.5625,36.728516 49.4375,9.2871094 c 0.081,-0.136 0.231391,-0.2265625 0.400391,-0.2265625 h 8.236328 l 0.316406,-1.8144531 -8.841797,-0.087891 c -0.707,0 -1.339219,0.3810146 -1.699219,1.0410157 L 38.097656,28.992188 37.130859,8.890625 c -0.083,-0.973 -0.907578,-1.7324219 -1.892578,-1.7324219 z m 32.019531,0.087891 h 0.0098 c -0.0021,-0.00954 -0.002,-0.021456 -0.0039,-0.03125 z M 56.224609,18.955078 c 0.184286,0.0031 0.386707,0.0011 0.572266,0.0039 v -0.002 c -0.195549,-0.002 -0.375693,7.94e-4 -0.572266,-0.002 z"
     style="fill:url(#SVGID_1_)"
     id="path27" /><path
     d="m 56.417969,18.925781 c -0.03901,0 -0.07031,0.0313 -0.07031,0.07031 v 0.193359 c 0,0.03901 0.0313,0.07031 0.07031,0.07031 h 0.466797 c -0.07357,-0.10406 -0.09875,-0.218959 -0.07813,-0.333985 z"
     style="fill:#ffffff"
     id="rect52" /></g></svg>
